*
*
G04 PADS 9.5 Build Number: 522968 generated Gerber (RS-274-X) file*
G04 PC Version=2.1*
*
%IN "QCD_PowerBank_001B_V02_"*%
*
%MOIN*%
*
%FSLAX35Y35*%
*
*
*
*
G04 PC Standard Apertures*
*
*
G04 Thermal Relief Aperture macro.*
%AMTER*
1,1,$1,0,0*
1,0,$1-$2,0,0*
21,0,$3,$4,0,0,45*
21,0,$3,$4,0,0,135*
%
*
*
G04 Annular Aperture macro.*
%AMANN*
1,1,$1,0,0*
1,0,$2,0,0*
%
*
*
G04 Odd Aperture macro.*
%AMODD*
1,1,$1,0,0*
1,0,$1-0.005,0,0*
%
*
*
G04 PC Custom Aperture Macros*
*
*
*
*
*
*
G04 PC Aperture Table*
*
%ADD014C,0.06299*%
%ADD026C,0.19685*%
%ADD028C,0.11811*%
%ADD029C,0.06*%
%ADD032C,0.05906*%
%ADD037C,0.03937*%
%ADD044R,0.06299X0.06299*%
%ADD047C,0.01*%
%ADD051C,0.02362*%
%ADD057C,0.01969*%
%ADD060C,0.0315*%
%ADD061C,0.01575*%
%ADD064C,0.01181*%
%ADD071C,0.00787*%
%ADD110C,0.001*%
%ADD111R,0.04724X0.04724*%
%ADD135C,0.04724*%
%ADD529O,0.05905X0.01968*%
%ADD530R,0.05905X0.01968*%
%ADD654C,0.02205*%
%ADD771R,0.05X0.06*%
%ADD782R,0.03X0.038*%
%ADD783R,0.038X0.03*%
%ADD792R,0.06693X0.07874*%
%ADD818O,0.17X0.09*%
%ADD819O,0.09X0.17*%
%ADD823R,0.05906X0.11024*%
%ADD824R,0.11024X0.05906*%
*
*
*
*
G04 PC Circuitry*
G04 Layer Name QCD_PowerBank_001B_V02_ - circuitry*
%LPD*%
*
*
G04 PC Custom Flashes*
G04 Layer Name QCD_PowerBank_001B_V02_ - flashes*
%LPD*%
*
*
G04 PC Circuitry*
G04 Layer Name QCD_PowerBank_001B_V02_ - circuitry*
%LPD*%
*
G54D14*
G01X1895160Y1582383D03*
Y1572383D03*
Y1562383D03*
Y1552383D03*
X1905160Y1592383D03*
Y1582383D03*
Y1572383D03*
Y1562383D03*
Y1552383D03*
X1944291Y1647991D02*
X1970408D01*
X1978096Y1655680*
X1984956Y1681655*
X1995439Y1692138*
X2000090Y1692502*
X2055870Y1647852D02*
X2051758Y1642774D01*
X2007108Y1687424*
X2000090Y1692502*
G54D26*
X2055870Y1647852D03*
X1944291Y1647991D03*
G54D28*
X1925212Y1537017D03*
X1894966Y1610273D03*
G54D29*
X2043081Y1582454D03*
Y1594265D03*
G54D32*
X2094488Y1582912D03*
Y1602991D03*
X2090242Y1607238D01*
X2090171*
X2064494Y1632915*
X2061467Y1638157*
X2055870Y1647852*
G54D37*
X1937199Y1491676D02*
X1936027Y1496708D01*
Y1504046*
X1935997Y1489417D02*
X1937199Y1491676D01*
X2037118Y1476715D02*
X2042945Y1478448D01*
X2047658Y1479436*
X2054569Y1481612*
X2057207Y1482387*
X2058913Y1484137*
X2062238Y1488360*
X2063989Y1489455*
X2037118Y1476715D02*
X2031939Y1476776D01*
X2004161Y1468248D02*
X2008370Y1469114D01*
X2012423Y1469540*
X2015315Y1469680*
X2020386Y1474320*
X2004161Y1468248D02*
X2001164Y1468357D01*
X1994228Y1469361*
X1989354Y1470046*
X1987762Y1472652*
X2063989Y1489455D02*
X2063989D01*
X1875168Y1559581D02*
X1874569Y1559855D01*
X1874329Y1560938*
X1874005Y1561947*
X1872963Y1564835*
X1871935Y1570699*
X1871116Y1577437*
X1871984Y1585297*
X1951135Y1509074D02*
X1950111D01*
X1950064*
X1950027Y1509111*
X1936027Y1504046D02*
X1944962D01*
X1950027Y1509111*
X1936027Y1504046D02*
Y1504537D01*
X1926894*
X1914090*
X1909518Y1509109*
X1978671Y1526334D02*
X1978069Y1526936D01*
X1960418Y1509074D02*
X1951135D01*
X2123367Y1566693D02*
X2124888Y1571373D01*
X2126098Y1573083*
X2126988Y1579495*
X2127680Y1584240*
X2127878Y1588194*
X1871228Y1606937D02*
X1871505Y1609899D01*
X1872404Y1620982*
X1873051Y1625145*
X1874715Y1633867*
X1878224Y1641755*
X1871984Y1585297D02*
X1871812Y1590215D01*
X1871400Y1602019D02*
X1871228Y1606937D01*
X1884648Y1660290D02*
X1884901Y1656925D01*
X1882599Y1652726*
X2116925Y1653323D02*
X2116596Y1659513D01*
X2114577Y1666077*
X2112790Y1669421*
X2108419Y1674003*
X2103732Y1675298*
X2100439Y1678955*
X2127223Y1618173D02*
X2126990Y1624528D01*
X2126374Y1632558*
X2124925Y1636084*
X2123193Y1637809*
X2121350Y1642372*
X2127878Y1588194D02*
X2127659Y1591999D01*
X2127391Y1598435*
X2126979Y1610239D02*
X2127223Y1618173D01*
X1884648Y1660290D02*
X1886681Y1666503D01*
X1890489Y1671653*
X1898589Y1678505*
X2059735Y1713937D02*
X2054333Y1716992D01*
X2052214Y1718455*
X2047763Y1720220*
X2047763D02*
X2039902Y1722706D01*
X2037317Y1723335*
X2035793Y1724057*
X2030934Y1725109*
X1993225Y1719055D02*
X2007245D01*
Y1705406*
X1993225*
Y1719055*
Y1716034D02*
X2007245D01*
X1993225Y1712491D02*
X2007245D01*
X1993225Y1708948D02*
X2007245D01*
G54D44*
X1895160Y1592383D03*
G54D47*
X1904000Y1677142D02*
X1896346Y1683614D01*
X1893178Y1679869*
X1900832Y1673396*
X1904000Y1677142*
X1900091Y1674023D02*
X1901362D01*
X1898908Y1675023D02*
X1902208D01*
X1897726Y1676023D02*
X1903053D01*
X1896543Y1677023D02*
X1903899D01*
X1895361Y1678023D02*
X1902958D01*
X1894178Y1679023D02*
X1901775D01*
X1893309Y1680023D02*
X1900593D01*
X1894155Y1681023D02*
X1899410D01*
X1895000Y1682023D02*
X1898228D01*
X1895846Y1683023D02*
X1897045D01*
X1893178Y1679869D02*
X1893178D01*
X1894178Y1679023D02*
Y1681051D01*
X1895178Y1678177D02*
Y1682234D01*
X1896178Y1677332D02*
Y1683416D01*
X1897178Y1676486D02*
Y1682911D01*
X1898178Y1675641D02*
Y1682065D01*
X1899178Y1674795D02*
Y1681219D01*
X1900178Y1673949D02*
Y1680374D01*
X1901178Y1673806D02*
Y1679528D01*
X1902178Y1674988D02*
Y1678682D01*
X1903178Y1676171D02*
Y1677837D01*
X1911626Y1686161D02*
X1903972Y1692633D01*
X1900805Y1688887*
X1908459Y1682415*
X1911626Y1686161*
X1907740Y1683023D02*
X1908973D01*
X1906557Y1684023D02*
X1909819D01*
X1905374Y1685023D02*
X1910664D01*
X1904192Y1686023D02*
X1911510D01*
X1903009Y1687023D02*
X1910606D01*
X1901827Y1688023D02*
X1909424D01*
X1900920Y1689023D02*
X1908241D01*
X1901765Y1690023D02*
X1907059D01*
X1902611Y1691023D02*
X1905876D01*
X1903457Y1692023D02*
X1904694D01*
X1900805Y1688887D02*
X1900805D01*
X1901805Y1688042D02*
Y1690070D01*
X1902805Y1687196D02*
Y1691253D01*
X1903805Y1686351D02*
Y1692435D01*
X1904805Y1685505D02*
Y1691929D01*
X1905805Y1684659D02*
Y1691084D01*
X1906805Y1683814D02*
Y1690238D01*
X1907805Y1682968D02*
Y1689392D01*
X1908805Y1682824D02*
Y1688547D01*
X1909805Y1684007D02*
Y1687701D01*
X1910805Y1685189D02*
Y1686855D01*
X2102522Y1684132D02*
X2095073Y1677424D01*
X2098356Y1673779*
X2105805Y1680486*
X2102522Y1684132*
X2098136Y1674023D02*
X2098627D01*
X2097235Y1675023D02*
X2099738D01*
X2096335Y1676023D02*
X2100848D01*
X2095435Y1677023D02*
X2101959D01*
X2095738Y1678023D02*
X2103069D01*
X2096849Y1679023D02*
X2104180D01*
X2097959Y1680023D02*
X2105291D01*
X2099070Y1681023D02*
X2105321D01*
X2100181Y1682023D02*
X2104421D01*
X2101291Y1683023D02*
X2103520D01*
X2102402Y1684023D02*
X2102620D01*
X2096000Y1676395D02*
Y1678259D01*
X2097000Y1675285D02*
Y1679159D01*
X2098000Y1674174D02*
Y1680060D01*
X2099000Y1674359D02*
Y1680960D01*
X2100000Y1675259D02*
Y1681860D01*
X2101000Y1676160D02*
Y1682761D01*
X2102000Y1677060D02*
Y1683661D01*
X2103000Y1677961D02*
Y1683601D01*
X2104000Y1678861D02*
Y1682490D01*
X2105000Y1679761D02*
Y1681380D01*
X2094619Y1692909D02*
X2087170Y1686202D01*
X2090453Y1682556*
X2097902Y1689263*
X2094619Y1692909*
X2090032Y1683023D02*
X2090971D01*
X2089132Y1684023D02*
X2092082D01*
X2088231Y1685023D02*
X2093192D01*
X2087331Y1686023D02*
X2094303D01*
X2088082Y1687023D02*
X2095414D01*
X2089193Y1688023D02*
X2096524D01*
X2090304Y1689023D02*
X2097635D01*
X2091414Y1690023D02*
X2097217D01*
X2092525Y1691023D02*
X2096317D01*
X2093636Y1692023D02*
X2095417D01*
X2088000Y1685280D02*
Y1686949D01*
X2089000Y1684169D02*
Y1687849D01*
X2090000Y1683059D02*
Y1688750D01*
X2091000Y1683049D02*
Y1689650D01*
X2092000Y1683949D02*
Y1690551D01*
X2093000Y1684850D02*
Y1691451D01*
X2094000Y1685750D02*
Y1692351D01*
X2095000Y1686651D02*
Y1692486D01*
X2096000Y1687551D02*
Y1691375D01*
X2097000Y1688452D02*
Y1690265D01*
X2132314Y1601062D02*
X2122297Y1600712D01*
X2122468Y1595809*
X2132485Y1596159*
X2132314Y1601062*
X2122468Y1595809D02*
X2122468D01*
X2122433Y1596809D02*
X2132463D01*
X2122398Y1597809D02*
X2132428D01*
X2122363Y1598809D02*
X2132393D01*
X2122328Y1599809D02*
X2132358D01*
X2125088Y1600809D02*
X2132323D01*
X2123000Y1595828D02*
Y1600736D01*
X2124000Y1595863D02*
Y1600771D01*
X2125000Y1595898D02*
Y1600806D01*
X2126000Y1595933D02*
Y1600841D01*
X2127000Y1595967D02*
Y1600876D01*
X2128000Y1596002D02*
Y1600911D01*
X2129000Y1596037D02*
Y1600946D01*
X2130000Y1596072D02*
Y1600981D01*
X2131000Y1596107D02*
Y1601016D01*
X2132000Y1596142D02*
Y1601051D01*
X2131902Y1612865D02*
X2121884Y1612516D01*
X2122056Y1607613*
X2132073Y1607963*
X2131902Y1612865*
X2122041Y1608023D02*
X2132071D01*
X2122006Y1609023D02*
X2132036D01*
X2121971Y1610023D02*
X2132001D01*
X2121936Y1611023D02*
X2131966D01*
X2121902Y1612023D02*
X2131931D01*
X2122000Y1609204D02*
Y1612520D01*
X2123000Y1607646D02*
Y1612555D01*
X2124000Y1607681D02*
Y1612589D01*
X2125000Y1607716D02*
Y1612624D01*
X2126000Y1607751D02*
Y1612659D01*
X2127000Y1607786D02*
Y1612694D01*
X2128000Y1607821D02*
Y1612729D01*
X2129000Y1607856D02*
Y1612764D01*
X2130000Y1607890D02*
Y1612799D01*
X2131000Y1607925D02*
Y1612834D01*
X2132000Y1607960D02*
Y1610056D01*
X1883788Y1642177D02*
X1874478Y1645890D01*
X1872661Y1641334*
X1881971Y1637621*
X1883788Y1642177*
X1880962Y1638023D02*
X1882132D01*
X1878454Y1639023D02*
X1882530D01*
X1875947Y1640023D02*
X1882929D01*
X1873439Y1641023D02*
X1883328D01*
X1872936Y1642023D02*
X1883727D01*
X1873334Y1643023D02*
X1881667D01*
X1873733Y1644023D02*
X1879159D01*
X1874132Y1645023D02*
X1876652D01*
X1872661Y1641334D02*
X1872661D01*
X1873661Y1640935D02*
Y1643841D01*
X1874661Y1640536D02*
Y1645817D01*
X1875661Y1640137D02*
Y1645418D01*
X1876661Y1639738D02*
Y1645020D01*
X1877661Y1639340D02*
Y1644621D01*
X1878661Y1638941D02*
Y1644222D01*
X1879661Y1638542D02*
Y1643823D01*
X1880661Y1638143D02*
Y1643425D01*
X1881661Y1637745D02*
Y1643026D01*
X1882661Y1639349D02*
Y1642627D01*
X1883661Y1641857D02*
Y1642228D01*
X1888163Y1653148D02*
X1878853Y1656861D01*
X1877036Y1652304*
X1886346Y1648592*
X1888163Y1653148*
X1885264Y1649023D02*
X1886518D01*
X1882756Y1650023D02*
X1886917D01*
X1880249Y1651023D02*
X1887316D01*
X1877741Y1652023D02*
X1887715D01*
X1877322Y1653023D02*
X1888113D01*
X1877721Y1654023D02*
X1885969D01*
X1878120Y1655023D02*
X1883461D01*
X1878518Y1656023D02*
X1880954D01*
X1877036Y1652304D02*
X1877036D01*
X1878036Y1651906D02*
Y1654812D01*
X1879036Y1651507D02*
Y1656788D01*
X1880036Y1651108D02*
Y1656389D01*
X1881036Y1650709D02*
Y1655991D01*
X1882036Y1650311D02*
Y1655592D01*
X1883036Y1649912D02*
Y1655193D01*
X1884036Y1649513D02*
Y1654794D01*
X1885036Y1649114D02*
Y1654395D01*
X1886036Y1648715D02*
Y1653997D01*
X1887036Y1650320D02*
Y1653598D01*
X1888036Y1652828D02*
Y1653199D01*
X1876735Y1592841D02*
X1866718Y1592491D01*
X1866889Y1587589*
X1876906Y1587939*
X1876735Y1592841*
X1866889Y1587589D02*
X1866889D01*
X1866854Y1588589D02*
X1876884D01*
X1866819Y1589589D02*
X1876849D01*
X1866784Y1590589D02*
X1876814D01*
X1866749Y1591589D02*
X1876779D01*
X1869509Y1592589D02*
X1876744D01*
X1866718Y1592491D02*
X1866718D01*
X1867718Y1587618D02*
Y1592526D01*
X1868718Y1587653D02*
Y1592561D01*
X1869718Y1587688D02*
Y1592596D01*
X1870718Y1587723D02*
Y1592631D01*
X1871718Y1587758D02*
Y1592666D01*
X1872718Y1587792D02*
Y1592701D01*
X1873718Y1587827D02*
Y1592736D01*
X1874718Y1587862D02*
Y1592771D01*
X1875718Y1587897D02*
Y1592806D01*
X1876718Y1587932D02*
Y1592841D01*
X1876323Y1604645D02*
X1866306Y1604295D01*
X1866477Y1599393*
X1876494Y1599743*
X1876323Y1604645*
X1866477Y1599393D02*
X1866477D01*
X1866442Y1600393D02*
X1876472D01*
X1866407Y1601393D02*
X1876437D01*
X1866372Y1602393D02*
X1876402D01*
X1866337Y1603393D02*
X1876367D01*
X1869097Y1604393D02*
X1876332D01*
X1866306Y1604295D02*
X1866306D01*
X1867306Y1599422D02*
Y1604330D01*
X1868306Y1599457D02*
Y1604365D01*
X1869306Y1599492D02*
Y1604400D01*
X1870306Y1599526D02*
Y1604435D01*
X1871306Y1599561D02*
Y1604470D01*
X1872306Y1599596D02*
Y1604505D01*
X1873306Y1599631D02*
Y1604540D01*
X1874306Y1599666D02*
Y1604575D01*
X1875306Y1599701D02*
Y1604610D01*
X1876306Y1599736D02*
Y1604644D01*
X1911601Y1514285D02*
X1904152Y1507578D01*
X1907434Y1503933*
X1914883Y1510640*
X1911601Y1514285*
X1907434Y1503933D02*
X1907434D01*
X1906534Y1504933D02*
X1908545D01*
X1905634Y1505933D02*
X1909656D01*
X1904733Y1506933D02*
X1910766D01*
X1904546Y1507933D02*
X1911877D01*
X1905656Y1508933D02*
X1912988D01*
X1906767Y1509933D02*
X1914098D01*
X1907878Y1510933D02*
X1914620D01*
X1908988Y1511933D02*
X1913719D01*
X1910099Y1512933D02*
X1912819D01*
X1911209Y1513933D02*
X1911919D01*
X1904152Y1507578D02*
X1904152D01*
X1905152Y1506467D02*
Y1508478D01*
X1906152Y1505357D02*
Y1509379D01*
X1907152Y1504246D02*
Y1510279D01*
X1908152Y1504579D02*
Y1511180D01*
X1909152Y1505479D02*
Y1512080D01*
X1910152Y1506379D02*
Y1512980D01*
X1911152Y1507280D02*
Y1513881D01*
X1912152Y1508180D02*
Y1513673D01*
X1913152Y1509081D02*
Y1512563D01*
X1914152Y1509981D02*
Y1511452D01*
X1903698Y1523062D02*
X1896249Y1516355D01*
X1899531Y1512710*
X1906980Y1519417*
X1903698Y1523062*
X1899531Y1512710D02*
X1899531D01*
X1898631Y1513710D02*
X1900642D01*
X1897731Y1514710D02*
X1901753D01*
X1896830Y1515710D02*
X1902863D01*
X1896643Y1516710D02*
X1903974D01*
X1897753Y1517710D02*
X1905084D01*
X1898864Y1518710D02*
X1906195D01*
X1899974Y1519710D02*
X1906717D01*
X1901085Y1520710D02*
X1905816D01*
X1902196Y1521710D02*
X1904916D01*
X1903306Y1522710D02*
X1904015D01*
X1896249Y1516355D02*
X1896249D01*
X1897249Y1515245D02*
Y1517256D01*
X1898249Y1514134D02*
Y1518156D01*
X1899249Y1513023D02*
Y1519057D01*
X1900249Y1513356D02*
Y1519957D01*
X1901249Y1514256D02*
Y1520857D01*
X1902249Y1515157D02*
Y1521758D01*
X1903249Y1516057D02*
Y1522658D01*
X1904249Y1516958D02*
Y1522450D01*
X1905249Y1517858D02*
Y1521340D01*
X1906249Y1518758D02*
Y1520229D01*
X2000646Y1476082D02*
X2000297Y1486099D01*
X1995394Y1485928*
X1995744Y1475910*
X2000646Y1476082*
X1995744Y1475910D02*
X1995744D01*
X1995709Y1476910D02*
X2000618D01*
X1995674Y1477910D02*
X2000583D01*
X1995639Y1478910D02*
X2000548D01*
X1995604Y1479910D02*
X2000513D01*
X1995569Y1480910D02*
X2000478D01*
X1995534Y1481910D02*
X2000443D01*
X1995500Y1482910D02*
X2000408D01*
X1995465Y1483910D02*
X2000373D01*
X1995430Y1484910D02*
X2000338D01*
X1995395Y1485910D02*
X2000303D01*
X1995394Y1485928D02*
X1995394D01*
X1996394Y1475933D02*
Y1485963D01*
X1997394Y1475968D02*
Y1485998D01*
X1998394Y1476003D02*
Y1486033D01*
X1999394Y1476038D02*
Y1486068D01*
X2000394Y1476073D02*
Y1483308D01*
X2012450Y1476494D02*
X2012100Y1486511D01*
X2007198Y1486340*
X2007548Y1476323*
X2012450Y1476494*
X2007548Y1476323D02*
X2007548D01*
X2007513Y1477323D02*
X2012421D01*
X2007478Y1478323D02*
X2012386D01*
X2007443Y1479323D02*
X2012352D01*
X2007408Y1480323D02*
X2012317D01*
X2007373Y1481323D02*
X2012282D01*
X2007338Y1482323D02*
X2012247D01*
X2007303Y1483323D02*
X2012212D01*
X2007268Y1484323D02*
X2012177D01*
X2007233Y1485323D02*
X2012142D01*
X2007199Y1486323D02*
X2012107D01*
X2008000Y1476338D02*
Y1486368D01*
X2009000Y1476373D02*
Y1486403D01*
X2010000Y1476408D02*
Y1486438D01*
X2011000Y1476443D02*
Y1486473D01*
X2012000Y1476478D02*
Y1486508D01*
X2080585Y1518020D02*
X2087604Y1510864D01*
X2091106Y1514299*
X2084087Y1521455*
X2080585Y1518020*
X2087604Y1510864D02*
X2087604D01*
X2086623Y1511864D02*
X2088623D01*
X2085642Y1512864D02*
X2089643D01*
X2084661Y1513864D02*
X2090663D01*
X2083681Y1514864D02*
X2090552D01*
X2082700Y1515864D02*
X2089571D01*
X2081719Y1516864D02*
X2088590D01*
X2080738Y1517864D02*
X2087609D01*
X2081445Y1518864D02*
X2086629D01*
X2082465Y1519864D02*
X2085648D01*
X2083485Y1520864D02*
X2084667D01*
X2081000Y1517597D02*
Y1518427D01*
X2082000Y1516577D02*
Y1519408D01*
X2083000Y1515558D02*
Y1520388D01*
X2084000Y1514538D02*
Y1521369D01*
X2085000Y1513519D02*
Y1520524D01*
X2086000Y1512499D02*
Y1519505D01*
X2087000Y1511479D02*
Y1518485D01*
X2088000Y1511252D02*
Y1517465D01*
X2089000Y1512233D02*
Y1516446D01*
X2090000Y1513214D02*
Y1515426D01*
X2091000Y1514195D02*
Y1514407D01*
X2072153Y1509750D02*
X2079171Y1502593D01*
X2079171D02*
X2082674Y1506028D01*
X2075655Y1513185*
X2072153Y1509750*
X2079171Y1502593D02*
X2079171D01*
X2078191Y1503593D02*
X2080191D01*
X2077210Y1504593D02*
X2081211D01*
X2076229Y1505593D02*
X2082230D01*
X2075248Y1506593D02*
X2082119D01*
X2074268Y1507593D02*
X2081139D01*
X2073287Y1508593D02*
X2080158D01*
X2072306Y1509593D02*
X2079177D01*
X2073013Y1510593D02*
X2078196D01*
X2074033Y1511593D02*
X2077216D01*
X2075052Y1512593D02*
X2076235D01*
X2073000Y1508886D02*
Y1510581D01*
X2074000Y1507866D02*
Y1511561D01*
X2075000Y1506847D02*
Y1512542D01*
X2076000Y1505827D02*
Y1512833D01*
X2077000Y1504808D02*
Y1511813D01*
X2078000Y1503788D02*
Y1510794D01*
X2079000Y1502768D02*
Y1509774D01*
X2080000Y1503406D02*
Y1508754D01*
X2081000Y1504387D02*
Y1507735D01*
X2082000Y1505368D02*
Y1506715D01*
X1934654Y1705122D02*
X1929567Y1713759D01*
X1925340Y1711269*
X1930427Y1702632*
X1934654Y1705122*
X1930197Y1703023D02*
X1931091D01*
X1929608Y1704023D02*
X1932789D01*
X1929019Y1705023D02*
X1934486D01*
X1928430Y1706023D02*
X1934123D01*
X1927841Y1707023D02*
X1933534D01*
X1927252Y1708023D02*
X1932945D01*
X1926663Y1709023D02*
X1932356D01*
X1926074Y1710023D02*
X1931767D01*
X1925485Y1711023D02*
X1931178D01*
X1926621Y1712023D02*
X1930589D01*
X1928318Y1713023D02*
X1930000D01*
X1925340Y1711269D02*
X1925340D01*
X1926340Y1709571D02*
Y1711858D01*
X1927340Y1707874D02*
Y1712447D01*
X1928340Y1706176D02*
Y1713036D01*
X1929340Y1704478D02*
Y1713625D01*
X1930340Y1702781D02*
Y1712446D01*
X1931340Y1703170D02*
Y1710748D01*
X1932340Y1703759D02*
Y1709050D01*
X1933340Y1704348D02*
Y1707353D01*
X1934340Y1704937D02*
Y1705655D01*
X1944831Y1711116D02*
X1939743Y1719753D01*
X1935517Y1717263*
X1940604Y1708627*
X1944831Y1711116*
X1940371Y1709023D02*
X1941277D01*
X1939782Y1710023D02*
X1942975D01*
X1939192Y1711023D02*
X1944672D01*
X1938603Y1712023D02*
X1944297D01*
X1938014Y1713023D02*
X1943708D01*
X1937425Y1714023D02*
X1943119D01*
X1936836Y1715023D02*
X1942530D01*
X1936247Y1716023D02*
X1941941D01*
X1935658Y1717023D02*
X1941351D01*
X1936807Y1718023D02*
X1940762D01*
X1938504Y1719023D02*
X1940173D01*
X1935517Y1717263D02*
X1935517D01*
X1936517Y1715566D02*
Y1717852D01*
X1937517Y1713868D02*
Y1718441D01*
X1938517Y1712170D02*
Y1719031D01*
X1939517Y1710473D02*
Y1719620D01*
X1940517Y1708775D02*
Y1718440D01*
X1941517Y1709164D02*
Y1716743D01*
X1942517Y1709753D02*
Y1715045D01*
X1943517Y1710342D02*
Y1713347D01*
X1944517Y1710931D02*
Y1711650D01*
X1886987Y1550437D02*
X1877693Y1546682D01*
X1879531Y1542133*
X1888825Y1545888*
X1886987Y1550437*
X1879531Y1542133D02*
X1879531D01*
X1879127Y1543133D02*
X1882006D01*
X1878723Y1544133D02*
X1884481D01*
X1878319Y1545133D02*
X1886956D01*
X1877915Y1546133D02*
X1888726D01*
X1878811Y1547133D02*
X1888322D01*
X1881287Y1548133D02*
X1887918D01*
X1883762Y1549133D02*
X1887514D01*
X1886237Y1550133D02*
X1887110D01*
X1877693Y1546682D02*
X1877693D01*
X1878693Y1544207D02*
Y1547086D01*
X1879693Y1542199D02*
Y1547490D01*
X1880693Y1542603D02*
Y1547894D01*
X1881693Y1543007D02*
Y1548298D01*
X1882693Y1543411D02*
Y1548702D01*
X1883693Y1543815D02*
Y1549106D01*
X1884693Y1544219D02*
Y1549510D01*
X1885693Y1544623D02*
Y1549914D01*
X1886693Y1545027D02*
Y1550318D01*
X1887693Y1545431D02*
Y1548688D01*
X1888693Y1545835D02*
Y1546213D01*
X1882563Y1561388D02*
X1873269Y1557633D01*
X1875107Y1553084*
X1884400Y1556839*
X1882563Y1561388*
X1875107Y1553084D02*
X1875107D01*
X1874703Y1554084D02*
X1877582D01*
X1874299Y1555084D02*
X1880057D01*
X1873895Y1556084D02*
X1882532D01*
X1873491Y1557084D02*
X1884301D01*
X1874387Y1558084D02*
X1883897D01*
X1876862Y1559084D02*
X1883493D01*
X1879337Y1560084D02*
X1883089D01*
X1881812Y1561084D02*
X1882685D01*
X1873269Y1557633D02*
X1873269D01*
X1874269Y1555158D02*
Y1558037D01*
X1875269Y1553150D02*
Y1558441D01*
X1876269Y1553554D02*
Y1558845D01*
X1877269Y1553958D02*
Y1559249D01*
X1878269Y1554362D02*
Y1559653D01*
X1879269Y1554766D02*
Y1560057D01*
X1880269Y1555170D02*
Y1560461D01*
X1881269Y1555574D02*
Y1560865D01*
X1882269Y1555978D02*
Y1561269D01*
X1883269Y1556382D02*
Y1559639D01*
X1884269Y1556786D02*
Y1557164D01*
X1958420Y1482560D02*
X1961518Y1492093D01*
X1956852Y1493609*
X1953755Y1484076*
X1958420Y1482560*
X1958420*
X1955343Y1483560D02*
X1958745D01*
X1953912Y1484560D02*
X1959070D01*
X1954237Y1485560D02*
X1959395D01*
X1954562Y1486560D02*
X1959720D01*
X1954887Y1487560D02*
X1960045D01*
X1955212Y1488560D02*
X1960370D01*
X1955537Y1489560D02*
X1960695D01*
X1955862Y1490560D02*
X1961020D01*
X1956187Y1491560D02*
X1961345D01*
X1956511Y1492560D02*
X1960081D01*
X1956836Y1493560D02*
X1957003D01*
X1953755Y1484076D02*
X1953755D01*
X1954755Y1483751D02*
Y1487154D01*
X1955755Y1483426D02*
Y1490232D01*
X1956755Y1483101D02*
Y1493309D01*
X1957755Y1482777D02*
Y1493316D01*
X1958755Y1483590D02*
Y1492991D01*
X1959755Y1486668D02*
Y1492666D01*
X1960755Y1489745D02*
Y1492341D01*
X1969653Y1478910D02*
X1972751Y1488444D01*
X1968085Y1489959*
X1964988Y1480426*
X1969653Y1478910*
X1969653*
X1966575Y1479910D02*
X1969978D01*
X1965145Y1480910D02*
X1970303D01*
X1965470Y1481910D02*
X1970628D01*
X1965795Y1482910D02*
X1970953D01*
X1966120Y1483910D02*
X1971278D01*
X1966445Y1484910D02*
X1971603D01*
X1966770Y1485910D02*
X1971928D01*
X1967095Y1486910D02*
X1972253D01*
X1967419Y1487910D02*
X1972577D01*
X1967744Y1488910D02*
X1971313D01*
X1968069Y1489910D02*
X1968236D01*
X1964988Y1480426D02*
X1964988D01*
X1965988Y1480101D02*
Y1483504D01*
X1966988Y1479777D02*
Y1486582D01*
X1967988Y1479452D02*
Y1489659D01*
X1968988Y1479127D02*
Y1489666D01*
X1969988Y1479940D02*
Y1489341D01*
X1970988Y1483018D02*
Y1489016D01*
X1971988Y1486096D02*
Y1488691D01*
X2068725Y1486504D02*
X2063414Y1495005D01*
X2059253Y1492405*
X2064565Y1483905*
X2068725Y1486504*
X2064565Y1483905D02*
X2064565D01*
X2063940Y1484905D02*
X2066166D01*
X2063315Y1485905D02*
X2067766D01*
X2062691Y1486905D02*
X2068475D01*
X2062066Y1487905D02*
X2067850D01*
X2061441Y1488905D02*
X2067225D01*
X2060816Y1489905D02*
X2066600D01*
X2060191Y1490905D02*
X2065976D01*
X2059566Y1491905D02*
X2065351D01*
X2060053Y1492905D02*
X2064726D01*
X2061653Y1493905D02*
X2064101D01*
X2063253Y1494905D02*
X2063476D01*
X2060000Y1491210D02*
Y1492872D01*
X2061000Y1489610D02*
Y1493496D01*
X2062000Y1488010D02*
Y1494121D01*
X2063000Y1486409D02*
Y1494746D01*
X2064000Y1484809D02*
Y1494066D01*
X2065000Y1484176D02*
Y1492466D01*
X2066000Y1484801D02*
Y1490865D01*
X2067000Y1485426D02*
Y1489265D01*
X2068000Y1486051D02*
Y1487665D01*
X2078742Y1492763D02*
X2073430Y1501264D01*
X2069270Y1498664*
X2074581Y1490163*
X2078742Y1492763*
X2074581Y1490163D02*
X2074581D01*
X2073957Y1491163D02*
X2076182D01*
X2073332Y1492163D02*
X2077782D01*
X2072707Y1493163D02*
X2078491D01*
X2072082Y1494163D02*
X2077866D01*
X2071457Y1495163D02*
X2077242D01*
X2070832Y1496163D02*
X2076617D01*
X2070207Y1497163D02*
X2075992D01*
X2069583Y1498163D02*
X2075367D01*
X2070069Y1499163D02*
X2074742D01*
X2071669Y1500163D02*
X2074117D01*
X2073270Y1501163D02*
X2073492D01*
X2070000Y1497495D02*
Y1499120D01*
X2071000Y1495895D02*
Y1499745D01*
X2072000Y1494295D02*
Y1500370D01*
X2073000Y1492694D02*
Y1500995D01*
X2074000Y1491094D02*
Y1500351D01*
X2075000Y1490425D02*
Y1498751D01*
X2076000Y1491050D02*
Y1497150D01*
X2077000Y1491675D02*
Y1495550D01*
X2078000Y1492300D02*
Y1493950D01*
X2103445Y1516314D02*
X2095547Y1522485D01*
X2092526Y1518619*
X2100425Y1512448*
X2103445Y1516314*
X2100425Y1512448D02*
X2100425D01*
X2099145Y1513448D02*
X2101207D01*
X2097865Y1514448D02*
X2101988D01*
X2096585Y1515448D02*
X2102769D01*
X2095305Y1516448D02*
X2103273D01*
X2094025Y1517448D02*
X2101993D01*
X2092746Y1518448D02*
X2100713D01*
X2093174Y1519448D02*
X2099433D01*
X2093955Y1520448D02*
X2098154D01*
X2094737Y1521448D02*
X2096874D01*
X2095518Y1522448D02*
X2095594D01*
X2093000Y1518249D02*
Y1519225D01*
X2094000Y1517468D02*
Y1520505D01*
X2095000Y1516687D02*
Y1521785D01*
X2096000Y1515905D02*
Y1522130D01*
X2097000Y1515124D02*
Y1521349D01*
X2098000Y1514343D02*
Y1520568D01*
X2099000Y1513561D02*
Y1519787D01*
X2100000Y1512780D02*
Y1519005D01*
X2101000Y1513184D02*
Y1518224D01*
X2102000Y1514464D02*
Y1517443D01*
X2103000Y1515744D02*
Y1516661D01*
X2110717Y1525621D02*
X2102818Y1531792D01*
X2099798Y1527926*
X2107697Y1521755*
X2110717Y1525621*
X2107697Y1521755D02*
X2107697D01*
X2106417Y1522755D02*
X2108478D01*
X2105137Y1523755D02*
X2109259D01*
X2103857Y1524755D02*
X2110041D01*
X2102577Y1525755D02*
X2110545D01*
X2101297Y1526755D02*
X2109265D01*
X2100017Y1527755D02*
X2107985D01*
X2100446Y1528755D02*
X2106705D01*
X2101227Y1529755D02*
X2105425D01*
X2102008Y1530755D02*
X2104145D01*
X2102790Y1531755D02*
X2102865D01*
X2100000Y1527769D02*
Y1528185D01*
X2101000Y1526987D02*
Y1529465D01*
X2102000Y1526206D02*
Y1530745D01*
X2103000Y1525425D02*
Y1531650D01*
X2104000Y1524643D02*
Y1530869D01*
X2105000Y1523862D02*
Y1530087D01*
X2106000Y1523081D02*
Y1529306D01*
X2107000Y1522300D02*
Y1528525D01*
X2108000Y1522143D02*
Y1527743D01*
X2109000Y1523423D02*
Y1526962D01*
X2110000Y1524703D02*
Y1526181D01*
X2080973Y1692616D02*
X2074802Y1684718D01*
X2078667Y1681698*
X2084838Y1689596*
X2080973Y1692616*
X2078251Y1682023D02*
X2078922D01*
X2076971Y1683023D02*
X2079703D01*
X2075691Y1684023D02*
X2080484D01*
X2075040Y1685023D02*
X2081266D01*
X2075822Y1686023D02*
X2082047D01*
X2076603Y1687023D02*
X2082828D01*
X2077384Y1688023D02*
X2083609D01*
X2078165Y1689023D02*
X2084391D01*
X2078947Y1690023D02*
X2084292D01*
X2079728Y1691023D02*
X2083012D01*
X2080509Y1692023D02*
X2081732D01*
X2075000Y1684563D02*
Y1684972D01*
X2076000Y1683782D02*
Y1686251D01*
X2077000Y1683000D02*
Y1687531D01*
X2078000Y1682219D02*
Y1688811D01*
X2079000Y1682123D02*
Y1690091D01*
X2080000Y1683403D02*
Y1691371D01*
X2081000Y1684683D02*
Y1692595D01*
X2082000Y1685963D02*
Y1691814D01*
X2083000Y1687243D02*
Y1691033D01*
X2084000Y1688523D02*
Y1690251D01*
X2071666Y1699888D02*
X2065495Y1691989D01*
X2069360Y1688969*
X2075531Y1696868*
X2071666Y1699888*
X2069291Y1689023D02*
X2069402D01*
X2068011Y1690023D02*
X2070184D01*
X2066731Y1691023D02*
X2070965D01*
X2065521Y1692023D02*
X2071746D01*
X2066302Y1693023D02*
X2072527D01*
X2067084Y1694023D02*
X2073309D01*
X2067865Y1695023D02*
X2074090D01*
X2068646Y1696023D02*
X2074871D01*
X2069427Y1697023D02*
X2075333D01*
X2070209Y1698023D02*
X2074053D01*
X2070990Y1699023D02*
X2072773D01*
X2066000Y1691594D02*
Y1692636D01*
X2067000Y1690813D02*
Y1693916D01*
X2068000Y1690032D02*
Y1695196D01*
X2069000Y1689251D02*
Y1696476D01*
X2070000Y1689788D02*
Y1697756D01*
X2071000Y1691068D02*
Y1699036D01*
X2072000Y1692348D02*
Y1699627D01*
X2073000Y1693628D02*
Y1698846D01*
X2074000Y1694908D02*
Y1698064D01*
X2075000Y1696188D02*
Y1697283D01*
X2106603Y1660558D02*
X2098102Y1655246D01*
X2100702Y1651086*
X2109202Y1656398*
X2106603Y1660558*
X2100116Y1652023D02*
X2102201D01*
X2099492Y1653023D02*
X2103802D01*
X2098867Y1654023D02*
X2105402D01*
X2098242Y1655023D02*
X2107002D01*
X2099346Y1656023D02*
X2108603D01*
X2100946Y1657023D02*
X2108812D01*
X2102546Y1658023D02*
X2108187D01*
X2104147Y1659023D02*
X2107562D01*
X2105747Y1660023D02*
X2106937D01*
X2099000Y1653810D02*
Y1655807D01*
X2100000Y1652209D02*
Y1656432D01*
X2101000Y1651272D02*
Y1657057D01*
X2102000Y1651897D02*
Y1657682D01*
X2103000Y1652522D02*
Y1658307D01*
X2104000Y1653147D02*
Y1658931D01*
X2105000Y1653772D02*
Y1659556D01*
X2106000Y1654397D02*
Y1660181D01*
X2107000Y1655022D02*
Y1659923D01*
X2108000Y1655646D02*
Y1658322D01*
X2109000Y1656271D02*
Y1656722D01*
X2100344Y1670574D02*
X2091844Y1665263D01*
X2094443Y1661102*
X2102944Y1666414*
X2100344Y1670574*
X2093868Y1662023D02*
X2095916D01*
X2093243Y1663023D02*
X2097517D01*
X2092618Y1664023D02*
X2099117D01*
X2091993Y1665023D02*
X2100717D01*
X2093061Y1666023D02*
X2102318D01*
X2094661Y1667023D02*
X2102563D01*
X2096261Y1668023D02*
X2101938D01*
X2097862Y1669023D02*
X2101313D01*
X2099462Y1670023D02*
X2100688D01*
X2092000Y1665012D02*
Y1665360D01*
X2093000Y1663412D02*
Y1665985D01*
X2094000Y1661811D02*
Y1666610D01*
X2095000Y1661450D02*
Y1667235D01*
X2096000Y1662075D02*
Y1667860D01*
X2097000Y1662700D02*
Y1668485D01*
X2098000Y1663325D02*
Y1669110D01*
X2099000Y1663950D02*
Y1669734D01*
X2100000Y1664575D02*
Y1670359D01*
X2101000Y1665200D02*
Y1669525D01*
X2102000Y1665825D02*
Y1667924D01*
X2125078Y1646523D02*
X2115784Y1642768D01*
X2117622Y1638220*
X2126915Y1641975*
X2125078Y1646523*
X2117297Y1639023D02*
X2119609D01*
X2116893Y1640023D02*
X2122084D01*
X2116489Y1641023D02*
X2124559D01*
X2116085Y1642023D02*
X2126896D01*
X2116414Y1643023D02*
X2126492D01*
X2118889Y1644023D02*
X2126088D01*
X2121365Y1645023D02*
X2125684D01*
X2123840Y1646023D02*
X2125280D01*
X2116000Y1642234D02*
Y1642856D01*
X2117000Y1639759D02*
Y1643260D01*
X2118000Y1638373D02*
Y1643664D01*
X2119000Y1638777D02*
Y1644068D01*
X2120000Y1639181D02*
Y1644472D01*
X2121000Y1639585D02*
Y1644876D01*
X2122000Y1639989D02*
Y1645280D01*
X2123000Y1640393D02*
Y1645684D01*
X2124000Y1640797D02*
Y1646088D01*
X2125000Y1641201D02*
Y1646492D01*
X2126000Y1641605D02*
Y1644241D01*
X2120653Y1657474D02*
X2111360Y1653719D01*
X2113197Y1649171*
X2122491Y1652926*
X2120653Y1657474*
X2112853Y1650023D02*
X2115306D01*
X2112449Y1651023D02*
X2117781D01*
X2112045Y1652023D02*
X2120256D01*
X2111641Y1653023D02*
X2122452D01*
X2112111Y1654023D02*
X2122048D01*
X2114586Y1655023D02*
X2121644D01*
X2117061Y1656023D02*
X2121240D01*
X2119536Y1657023D02*
X2120836D01*
X2112000Y1652134D02*
Y1653978D01*
X2113000Y1649659D02*
Y1654382D01*
X2114000Y1649496D02*
Y1654786D01*
X2115000Y1649900D02*
Y1655190D01*
X2116000Y1650304D02*
Y1655594D01*
X2117000Y1650708D02*
Y1655998D01*
X2118000Y1651112D02*
Y1656402D01*
X2119000Y1651516D02*
Y1656806D01*
X2120000Y1651920D02*
Y1657210D01*
X2121000Y1652324D02*
Y1656616D01*
X2122000Y1652728D02*
Y1654141D01*
X2107727Y1539585D02*
X2098877Y1544290D01*
X2096574Y1539959*
X2105424Y1535253*
X2107727Y1539585*
X2105424Y1535253D02*
X2105424D01*
X2103543Y1536253D02*
X2105956D01*
X2101662Y1537253D02*
X2106487D01*
X2099782Y1538253D02*
X2107019D01*
X2097901Y1539253D02*
X2107551D01*
X2096730Y1540253D02*
X2106469D01*
X2097262Y1541253D02*
X2104588D01*
X2097793Y1542253D02*
X2102708D01*
X2098325Y1543253D02*
X2100827D01*
X2098857Y1544253D02*
X2098946D01*
X2097000Y1539732D02*
Y1540761D01*
X2098000Y1539201D02*
Y1542642D01*
X2099000Y1538669D02*
Y1544225D01*
X2100000Y1538137D02*
Y1543693D01*
X2101000Y1537605D02*
Y1543161D01*
X2102000Y1537074D02*
Y1542630D01*
X2103000Y1536542D02*
Y1542098D01*
X2104000Y1536010D02*
Y1541566D01*
X2105000Y1535479D02*
Y1541034D01*
X2106000Y1536337D02*
Y1540503D01*
X2107000Y1538218D02*
Y1539971D01*
X2113272Y1550013D02*
X2104421Y1554719D01*
X2102118Y1550388*
X2110969Y1545682*
X2113272Y1550013*
X2110969Y1545682D02*
X2110969D01*
X2109088Y1546682D02*
X2111501D01*
X2107207Y1547682D02*
X2112032D01*
X2105327Y1548682D02*
X2112564D01*
X2103446Y1549682D02*
X2113096D01*
X2102275Y1550682D02*
X2112014D01*
X2102807Y1551682D02*
X2110133D01*
X2103338Y1552682D02*
X2108253D01*
X2103870Y1553682D02*
X2106372D01*
X2104402Y1554682D02*
X2104491D01*
X2103000Y1549919D02*
Y1552045D01*
X2104000Y1549387D02*
Y1553926D01*
X2105000Y1548855D02*
Y1554411D01*
X2106000Y1548324D02*
Y1553880D01*
X2107000Y1547792D02*
Y1553348D01*
X2108000Y1547260D02*
Y1552816D01*
X2109000Y1546729D02*
Y1552284D01*
X2110000Y1546197D02*
Y1551753D01*
X2111000Y1545740D02*
Y1551221D01*
X2112000Y1547621D02*
Y1550689D01*
X2113000Y1549502D02*
Y1550158D01*
X2095631Y1645240D02*
X2091610Y1630234D01*
X2096729Y1628862*
X2100750Y1643869*
X2095631Y1645240*
X2096129Y1629023D02*
X2096772D01*
X2092397Y1630023D02*
X2097040D01*
X2091822Y1631023D02*
X2097308D01*
X2092089Y1632023D02*
X2097576D01*
X2092357Y1633023D02*
X2097844D01*
X2092625Y1634023D02*
X2098111D01*
X2092893Y1635023D02*
X2098379D01*
X2093161Y1636023D02*
X2098647D01*
X2093429Y1637023D02*
X2098915D01*
X2093697Y1638023D02*
X2099183D01*
X2093965Y1639023D02*
X2099451D01*
X2094233Y1640023D02*
X2099719D01*
X2094501Y1641023D02*
X2099987D01*
X2094769Y1642023D02*
X2100255D01*
X2095037Y1643023D02*
X2100523D01*
X2095305Y1644023D02*
X2100173D01*
X2095573Y1645023D02*
X2096441D01*
X2092000Y1630130D02*
Y1631689D01*
X2093000Y1629862D02*
Y1635421D01*
X2094000Y1629594D02*
Y1639153D01*
X2095000Y1629326D02*
Y1642885D01*
X2096000Y1629058D02*
Y1645141D01*
X2097000Y1629875D02*
Y1644873D01*
X2098000Y1633607D02*
Y1644605D01*
X2099000Y1637339D02*
Y1644337D01*
X2100000Y1641071D02*
Y1644069D01*
X2018994Y1621962D02*
X2029979Y1610977D01*
X2033726Y1614724*
X2022741Y1625709*
X2018994Y1621962*
X2029933Y1611023D02*
X2030026D01*
X2028933Y1612023D02*
X2031026D01*
X2027933Y1613023D02*
X2032026D01*
X2026933Y1614023D02*
X2033026D01*
X2025933Y1615023D02*
X2033427D01*
X2024933Y1616023D02*
X2032427D01*
X2023933Y1617023D02*
X2031427D01*
X2022933Y1618023D02*
X2030427D01*
X2021933Y1619023D02*
X2029427D01*
X2020933Y1620023D02*
X2028427D01*
X2019933Y1621023D02*
X2027427D01*
X2019055Y1622023D02*
X2026427D01*
X2020055Y1623023D02*
X2025427D01*
X2021055Y1624023D02*
X2024427D01*
X2022055Y1625023D02*
X2023427D01*
X2019000Y1621956D02*
Y1621968D01*
X2020000Y1620956D02*
Y1622968D01*
X2021000Y1619956D02*
Y1623968D01*
X2022000Y1618956D02*
Y1624968D01*
X2023000Y1617956D02*
Y1625450D01*
X2024000Y1616956D02*
Y1624450D01*
X2025000Y1615956D02*
Y1623450D01*
X2026000Y1614956D02*
Y1622450D01*
X2027000Y1613956D02*
Y1621450D01*
X2028000Y1612956D02*
Y1620450D01*
X2029000Y1611956D02*
Y1619450D01*
X2030000Y1610997D02*
Y1618450D01*
X2031000Y1611997D02*
Y1617450D01*
X2032000Y1612997D02*
Y1616450D01*
X2033000Y1613997D02*
Y1615450D01*
X2038251Y1683593D02*
X2053257Y1687614D01*
X2051886Y1692733*
X2036880Y1688712*
X2038251Y1683593*
X2038136Y1684023D02*
X2039855D01*
X2037868Y1685023D02*
X2043587D01*
X2037600Y1686023D02*
X2047319D01*
X2037332Y1687023D02*
X2051051D01*
X2037064Y1688023D02*
X2053148D01*
X2038041Y1689023D02*
X2052880D01*
X2041773Y1690023D02*
X2052612D01*
X2045505Y1691023D02*
X2052344D01*
X2049237Y1692023D02*
X2052076D01*
X2037000Y1688263D02*
Y1688744D01*
X2038000Y1684531D02*
Y1689012D01*
X2039000Y1683794D02*
Y1689280D01*
X2040000Y1684062D02*
Y1689548D01*
X2041000Y1684330D02*
Y1689816D01*
X2042000Y1684598D02*
Y1690084D01*
X2043000Y1684866D02*
Y1690352D01*
X2044000Y1685134D02*
Y1690620D01*
X2045000Y1685402D02*
Y1690888D01*
X2046000Y1685670D02*
Y1691156D01*
X2047000Y1685938D02*
Y1691424D01*
X2048000Y1686206D02*
Y1691692D01*
X2049000Y1686474D02*
Y1691960D01*
X2050000Y1686741D02*
Y1692228D01*
X2051000Y1687009D02*
Y1692496D01*
X2052000Y1687277D02*
Y1692307D01*
X2053000Y1687545D02*
Y1688575D01*
X1910222Y1627325D02*
X1904909Y1641924D01*
X1899929Y1640111*
X1905243Y1625513*
X1910222Y1627325*
X1905057Y1626023D02*
X1906645D01*
X1904693Y1627023D02*
X1909393D01*
X1904329Y1628023D02*
X1909968D01*
X1903965Y1629023D02*
X1909604D01*
X1903601Y1630023D02*
X1909240D01*
X1903237Y1631023D02*
X1908876D01*
X1902873Y1632023D02*
X1908512D01*
X1902509Y1633023D02*
X1908148D01*
X1902145Y1634023D02*
X1907784D01*
X1901781Y1635023D02*
X1907421D01*
X1901417Y1636023D02*
X1907057D01*
X1901053Y1637023D02*
X1906693D01*
X1900689Y1638023D02*
X1906329D01*
X1900325Y1639023D02*
X1905965D01*
X1899961Y1640023D02*
X1905601D01*
X1902435Y1641023D02*
X1905237D01*
X1899929Y1640111D02*
X1899929D01*
X1900929Y1637364D02*
Y1640475D01*
X1901929Y1634616D02*
Y1640839D01*
X1902929Y1631869D02*
Y1641203D01*
X1903929Y1629121D02*
Y1641567D01*
X1904929Y1626374D02*
Y1641868D01*
X1905929Y1625763D02*
Y1639120D01*
X1906929Y1626127D02*
Y1636373D01*
X1907929Y1626491D02*
Y1633625D01*
X1908929Y1626854D02*
Y1630878D01*
X1909929Y1627218D02*
Y1628130D01*
X1959648Y1690351D02*
X1944348Y1693048D01*
X1943428Y1687830*
X1958728Y1685132*
X1958728D02*
X1959648Y1690351D01*
X1953674Y1686023D02*
X1958885D01*
X1948002Y1687023D02*
X1959061D01*
X1943462Y1688023D02*
X1959237D01*
X1943639Y1689023D02*
X1959414D01*
X1943815Y1690023D02*
X1959590D01*
X1943991Y1691023D02*
X1955834D01*
X1944168Y1692023D02*
X1950163D01*
X1944344Y1693023D02*
X1944492D01*
X1943428Y1687830D02*
X1943428D01*
X1944428Y1687653D02*
Y1693034D01*
X1945428Y1687477D02*
Y1692858D01*
X1946428Y1687301D02*
Y1692682D01*
X1947428Y1687124D02*
Y1692505D01*
X1948428Y1686948D02*
Y1692329D01*
X1949428Y1686772D02*
Y1692153D01*
X1950428Y1686595D02*
Y1691976D01*
X1951428Y1686419D02*
Y1691800D01*
X1952428Y1686243D02*
Y1691624D01*
X1953428Y1686066D02*
Y1691447D01*
X1954428Y1685890D02*
Y1691271D01*
X1955428Y1685714D02*
Y1691095D01*
X1956428Y1685537D02*
Y1690918D01*
X1957428Y1685361D02*
Y1690742D01*
X1958428Y1685185D02*
Y1690566D01*
X1959428Y1689105D02*
Y1690389D01*
X1979224Y1628820D02*
X1969238Y1616919D01*
X1973297Y1613512*
X1983283Y1625413*
X1979224Y1628820*
X1972688Y1614023D02*
X1973726D01*
X1971497Y1615023D02*
X1974565D01*
X1970305Y1616023D02*
X1975404D01*
X1969325Y1617023D02*
X1976243D01*
X1970164Y1618023D02*
X1977082D01*
X1971003Y1619023D02*
X1977921D01*
X1971843Y1620023D02*
X1978760D01*
X1972682Y1621023D02*
X1979599D01*
X1973521Y1622023D02*
X1980438D01*
X1974360Y1623023D02*
X1981277D01*
X1975199Y1624023D02*
X1982117D01*
X1976038Y1625023D02*
X1982956D01*
X1976877Y1626023D02*
X1982556D01*
X1977716Y1627023D02*
X1981364D01*
X1978555Y1628023D02*
X1980173D01*
X1969238Y1616919D02*
X1969238D01*
X1970238Y1616080D02*
Y1618110D01*
X1971238Y1615240D02*
Y1619302D01*
X1972238Y1614401D02*
Y1620494D01*
X1973238Y1613562D02*
Y1621686D01*
X1974238Y1614633D02*
Y1622877D01*
X1975238Y1615825D02*
Y1624069D01*
X1976238Y1617017D02*
Y1625261D01*
X1977238Y1618209D02*
Y1626453D01*
X1978238Y1619400D02*
Y1627644D01*
X1979238Y1620592D02*
Y1628808D01*
X1980238Y1621784D02*
Y1627969D01*
X1981238Y1622976D02*
Y1627130D01*
X1982238Y1624167D02*
Y1626290D01*
X1983238Y1625359D02*
Y1625451D01*
X2020792Y1721975D02*
X2022704Y1731814D01*
X2017889Y1732750*
X2015976Y1722911*
X2020792Y1721975*
X2020543Y1722023D02*
X2020801D01*
X2015998Y1723023D02*
X2020995D01*
X2016192Y1724023D02*
X2021190D01*
X2016387Y1725023D02*
X2021384D01*
X2016581Y1726023D02*
X2021578D01*
X2016776Y1727023D02*
X2021773D01*
X2016970Y1728023D02*
X2021967D01*
X2017164Y1729023D02*
X2022162D01*
X2017359Y1730023D02*
X2022356D01*
X2017553Y1731023D02*
X2022550D01*
X2017747Y1732023D02*
X2021630D01*
X2016000Y1722906D02*
Y1723034D01*
X2017000Y1722712D02*
Y1728178D01*
X2018000Y1722518D02*
Y1732729D01*
X2019000Y1722323D02*
Y1732534D01*
X2020000Y1722129D02*
Y1732340D01*
X2021000Y1723047D02*
Y1732146D01*
X2022000Y1728192D02*
Y1731951D01*
X2032386Y1719721D02*
X2034298Y1729561D01*
X2029483Y1730497*
X2027570Y1720657*
X2032386Y1719721*
X2030832Y1720023D02*
X2032444D01*
X2027641Y1721023D02*
X2032639D01*
X2027836Y1722023D02*
X2032833D01*
X2028030Y1723023D02*
X2033027D01*
X2028224Y1724023D02*
X2033222D01*
X2028419Y1725023D02*
X2033416D01*
X2028613Y1726023D02*
X2033611D01*
X2028808Y1727023D02*
X2033805D01*
X2029002Y1728023D02*
X2033999D01*
X2029196Y1729023D02*
X2034194D01*
X2029391Y1730023D02*
X2031919D01*
X2028000Y1720574D02*
Y1722868D01*
X2029000Y1720379D02*
Y1728013D01*
X2030000Y1720185D02*
Y1730396D01*
X2031000Y1719991D02*
Y1730202D01*
X2032000Y1719796D02*
Y1730007D01*
X2033000Y1722882D02*
Y1729813D01*
X2034000Y1728027D02*
Y1729619D01*
X1901838Y1655350D02*
X1893157Y1660362D01*
X1890705Y1656114*
X1899385Y1651102*
X1901838Y1655350*
X1897789Y1652023D02*
X1899917D01*
X1896057Y1653023D02*
X1900495D01*
X1894325Y1654023D02*
X1901072D01*
X1892593Y1655023D02*
X1901649D01*
X1890861Y1656023D02*
X1900672D01*
X1891230Y1657023D02*
X1898940D01*
X1891807Y1658023D02*
X1897208D01*
X1892384Y1659023D02*
X1895476D01*
X1892962Y1660023D02*
X1893744D01*
X1890705Y1656114D02*
X1890705D01*
X1891705Y1655536D02*
Y1657846D01*
X1892705Y1654959D02*
Y1659578D01*
X1893705Y1654382D02*
Y1660046D01*
X1894705Y1653804D02*
Y1659469D01*
X1895705Y1653227D02*
Y1658891D01*
X1896705Y1652649D02*
Y1658314D01*
X1897705Y1652072D02*
Y1657737D01*
X1898705Y1651495D02*
Y1657159D01*
X1899705Y1651655D02*
Y1656582D01*
X1900705Y1653387D02*
Y1656004D01*
X1901705Y1655119D02*
Y1655427D01*
X1907744Y1665579D02*
X1899063Y1670591D01*
X1896610Y1666342*
X1905291Y1661330*
X1907744Y1665579*
X1904091Y1662023D02*
X1905691D01*
X1902359Y1663023D02*
X1906268D01*
X1900627Y1664023D02*
X1906846D01*
X1898895Y1665023D02*
X1907423D01*
X1897163Y1666023D02*
X1906974D01*
X1897003Y1667023D02*
X1905242D01*
X1897581Y1668023D02*
X1903510D01*
X1898158Y1669023D02*
X1901778D01*
X1898735Y1670023D02*
X1900046D01*
X1896610Y1666342D02*
X1896610D01*
X1897610Y1665765D02*
Y1668074D01*
X1898610Y1665188D02*
Y1669806D01*
X1899610Y1664610D02*
Y1670275D01*
X1900610Y1664033D02*
Y1669697D01*
X1901610Y1663455D02*
Y1669120D01*
X1902610Y1662878D02*
Y1668543D01*
X1903610Y1662301D02*
Y1667965D01*
X1904610Y1661723D02*
Y1667388D01*
X1905610Y1661883D02*
Y1666810D01*
X1906610Y1663615D02*
Y1666233D01*
X1907610Y1665348D02*
Y1665656D01*
X1924499Y1684789D02*
X1918328Y1692687D01*
X1914462Y1689667*
X1920633Y1681768*
X1924499Y1684789*
X1920434Y1682023D02*
X1920959D01*
X1919653Y1683023D02*
X1922239D01*
X1918872Y1684023D02*
X1923519D01*
X1918091Y1685023D02*
X1924316D01*
X1917309Y1686023D02*
X1923535D01*
X1916528Y1687023D02*
X1922753D01*
X1915747Y1688023D02*
X1921972D01*
X1914965Y1689023D02*
X1921191D01*
X1914918Y1690023D02*
X1920409D01*
X1916198Y1691023D02*
X1919628D01*
X1917478Y1692023D02*
X1918847D01*
X1914462Y1689667D02*
X1914462D01*
X1915462Y1688387D02*
Y1690448D01*
X1916462Y1687107D02*
Y1691230D01*
X1917462Y1685827D02*
Y1692011D01*
X1918462Y1684547D02*
Y1692515D01*
X1919462Y1683267D02*
Y1691235D01*
X1920462Y1681988D02*
Y1689955D01*
X1921462Y1682416D02*
Y1688675D01*
X1922462Y1683197D02*
Y1687396D01*
X1923462Y1683979D02*
Y1686116D01*
X1924462Y1684760D02*
Y1684836D01*
X1933806Y1692060D02*
X1927635Y1699959D01*
X1923770Y1696939*
X1929941Y1689040*
X1933806Y1692060*
X1929173Y1690023D02*
X1931199D01*
X1928391Y1691023D02*
X1932479D01*
X1927610Y1692023D02*
X1933759D01*
X1926829Y1693023D02*
X1933054D01*
X1926047Y1694023D02*
X1932273D01*
X1925266Y1695023D02*
X1931491D01*
X1924485Y1696023D02*
X1930710D01*
X1923878Y1697023D02*
X1929929D01*
X1925158Y1698023D02*
X1929148D01*
X1926437Y1699023D02*
X1928366D01*
X1923770Y1696939D02*
X1923770D01*
X1924770Y1695659D02*
Y1697720D01*
X1925770Y1694379D02*
Y1698501D01*
X1926770Y1693099D02*
Y1699283D01*
X1927770Y1691819D02*
Y1699787D01*
X1928770Y1690539D02*
Y1698507D01*
X1929770Y1689259D02*
Y1697227D01*
X1930770Y1689688D02*
Y1695947D01*
X1931770Y1690469D02*
Y1694667D01*
X1932770Y1691250D02*
Y1693387D01*
X1933770Y1692031D02*
Y1692107D01*
X1935810Y1483840D02*
X1940516Y1492691D01*
X1936185Y1494994*
X1931479Y1486143*
X1935810Y1483840*
X1935810*
X1933929Y1484840D02*
X1936342D01*
X1932049Y1485840D02*
X1936873D01*
X1931849Y1486840D02*
X1937405D01*
X1932381Y1487840D02*
X1937937D01*
X1932913Y1488840D02*
X1938469D01*
X1933444Y1489840D02*
X1939000D01*
X1933976Y1490840D02*
X1939532D01*
X1934508Y1491840D02*
X1940064D01*
X1935040Y1492840D02*
X1940234D01*
X1935571Y1493840D02*
X1938354D01*
X1936103Y1494840D02*
X1936473D01*
X1931479Y1486143D02*
X1931479D01*
X1932479Y1485612D02*
Y1488024D01*
X1933479Y1485080D02*
Y1489905D01*
X1934479Y1484548D02*
Y1491785D01*
X1935479Y1484016D02*
Y1493666D01*
X1936479Y1485098D02*
Y1494837D01*
X1937479Y1486979D02*
Y1494305D01*
X1938479Y1488859D02*
Y1493774D01*
X1939479Y1490740D02*
Y1493242D01*
X1940479Y1492621D02*
Y1492710D01*
X1946239Y1478295D02*
X1950944Y1487146D01*
X1946613Y1489449*
X1941907Y1480598*
X1946239Y1478295*
X1946239*
X1944358Y1479295D02*
X1946770D01*
X1942477Y1480295D02*
X1947302D01*
X1942278Y1481295D02*
X1947834D01*
X1942810Y1482295D02*
X1948365D01*
X1943341Y1483295D02*
X1948897D01*
X1943873Y1484295D02*
X1949429D01*
X1944405Y1485295D02*
X1949961D01*
X1944936Y1486295D02*
X1950492D01*
X1945468Y1487295D02*
X1950663D01*
X1946000Y1488295D02*
X1948782D01*
X1946532Y1489295D02*
X1946901D01*
X1941907Y1480598D02*
X1941907D01*
X1942907Y1480067D02*
Y1482479D01*
X1943907Y1479535D02*
Y1484360D01*
X1944907Y1479003D02*
Y1486241D01*
X1945907Y1478472D02*
Y1488121D01*
X1946907Y1479553D02*
Y1489292D01*
X1947907Y1481434D02*
Y1488761D01*
X1948907Y1483314D02*
Y1488229D01*
X1949907Y1485195D02*
Y1487697D01*
X1950907Y1487076D02*
Y1487165D01*
X1972062Y1720393D02*
X1970321Y1730264D01*
X1965490Y1729413*
X1967231Y1719541*
X1972062Y1720393*
X1967146Y1720023D02*
X1969964D01*
X1966969Y1721023D02*
X1971951D01*
X1966793Y1722023D02*
X1971774D01*
X1966617Y1723023D02*
X1971598D01*
X1966440Y1724023D02*
X1971422D01*
X1966264Y1725023D02*
X1971245D01*
X1966088Y1726023D02*
X1971069D01*
X1965911Y1727023D02*
X1970893D01*
X1965735Y1728023D02*
X1970716D01*
X1965559Y1729023D02*
X1970540D01*
X1968953Y1730023D02*
X1970364D01*
X1965490Y1729413D02*
X1965490D01*
X1966490Y1723741D02*
Y1729589D01*
X1967490Y1719587D02*
Y1729765D01*
X1968490Y1719763D02*
Y1729942D01*
X1969490Y1719940D02*
Y1730118D01*
X1970490Y1720116D02*
Y1729306D01*
X1971490Y1720292D02*
Y1723635D01*
X1983693Y1722444D02*
X1981953Y1732315D01*
X1977122Y1731464*
X1978862Y1721592*
X1983693Y1722444*
X1978786Y1722023D02*
X1981306D01*
X1978610Y1723023D02*
X1983591D01*
X1978434Y1724023D02*
X1983415D01*
X1978257Y1725023D02*
X1983238D01*
X1978081Y1726023D02*
X1983062D01*
X1977905Y1727023D02*
X1982886D01*
X1977728Y1728023D02*
X1982709D01*
X1977552Y1729023D02*
X1982533D01*
X1977376Y1730023D02*
X1982357D01*
X1977199Y1731023D02*
X1982181D01*
X1980295Y1732023D02*
X1982004D01*
X1977122Y1731464D02*
X1977122D01*
X1978122Y1725792D02*
Y1731640D01*
X1979122Y1721638D02*
Y1731816D01*
X1980122Y1721814D02*
Y1731993D01*
X1981122Y1721991D02*
Y1732169D01*
X1982122Y1722167D02*
Y1731357D01*
X1983122Y1722343D02*
Y1725686D01*
X1977797Y1468992D02*
X1979192Y1478918D01*
X1974335Y1479600*
X1972940Y1469674*
X1977797Y1468992*
X1977797*
X1972984Y1469992D02*
X1977938D01*
X1973125Y1470992D02*
X1978078D01*
X1973265Y1471992D02*
X1978219D01*
X1973406Y1472992D02*
X1978359D01*
X1973546Y1473992D02*
X1978500D01*
X1973687Y1474992D02*
X1978641D01*
X1973827Y1475992D02*
X1978781D01*
X1973968Y1476992D02*
X1978922D01*
X1974108Y1477992D02*
X1979062D01*
X1974249Y1478992D02*
X1978666D01*
X1972940Y1469674D02*
X1972940D01*
X1973940Y1469534D02*
Y1476790D01*
X1974940Y1469393D02*
Y1479515D01*
X1975940Y1469253D02*
Y1479375D01*
X1976940Y1469112D02*
Y1479234D01*
X1977940Y1470004D02*
Y1479094D01*
X1978940Y1477119D02*
Y1478953D01*
X1989493Y1467348D02*
X1990888Y1477274D01*
X1986031Y1477957*
X1984636Y1468031*
X1989493Y1467348*
X1989493*
X1984680Y1468348D02*
X1989634D01*
X1984821Y1469348D02*
X1989774D01*
X1984961Y1470348D02*
X1989915D01*
X1985102Y1471348D02*
X1990056D01*
X1985242Y1472348D02*
X1990196D01*
X1985383Y1473348D02*
X1990337D01*
X1985523Y1474348D02*
X1990477D01*
X1985664Y1475348D02*
X1990618D01*
X1985805Y1476348D02*
X1990758D01*
X1985945Y1477348D02*
X1990362D01*
X1984636Y1468031D02*
X1984636D01*
X1985636Y1467890D02*
Y1475146D01*
X1986636Y1467750D02*
Y1477872D01*
X1987636Y1467609D02*
Y1477731D01*
X1988636Y1467468D02*
Y1477591D01*
X1989636Y1468360D02*
Y1477450D01*
X1990636Y1475475D02*
Y1477310D01*
X2023827Y1469928D02*
X2021743Y1479733D01*
X2016945Y1478713*
X2019029Y1468908*
X2023827Y1469928*
X2019029Y1468908D02*
X2019029D01*
X2018816Y1469908D02*
X2023734D01*
X2018604Y1470908D02*
X2023619D01*
X2018391Y1471908D02*
X2023406D01*
X2018179Y1472908D02*
X2023194D01*
X2017966Y1473908D02*
X2022981D01*
X2017754Y1474908D02*
X2022769D01*
X2017541Y1475908D02*
X2022556D01*
X2017329Y1476908D02*
X2022344D01*
X2017116Y1477908D02*
X2022131D01*
X2017864Y1478908D02*
X2021919D01*
X2017000Y1478454D02*
Y1478724D01*
X2018000Y1473749D02*
Y1478937D01*
X2019000Y1469045D02*
Y1479149D01*
X2020000Y1469114D02*
Y1479362D01*
X2021000Y1469327D02*
Y1479575D01*
X2022000Y1469540D02*
Y1478525D01*
X2023000Y1469752D02*
Y1473820D01*
X2035380Y1472384D02*
X2033296Y1482188D01*
X2028498Y1481168*
X2030582Y1471364*
X2035380Y1472384*
X2030582Y1471364D02*
X2030582D01*
X2030369Y1472364D02*
X2035287D01*
X2030157Y1473364D02*
X2035172D01*
X2029944Y1474364D02*
X2034959D01*
X2029732Y1475364D02*
X2034747D01*
X2029519Y1476364D02*
X2034534D01*
X2029307Y1477364D02*
X2034322D01*
X2029094Y1478364D02*
X2034109D01*
X2028882Y1479364D02*
X2033897D01*
X2028669Y1480364D02*
X2033684D01*
X2029417Y1481364D02*
X2033472D01*
X2029000Y1478806D02*
Y1481275D01*
X2030000Y1474102D02*
Y1481488D01*
X2031000Y1471453D02*
Y1481700D01*
X2032000Y1471665D02*
Y1481913D01*
X2033000Y1471878D02*
Y1482125D01*
X2034000Y1472090D02*
Y1478877D01*
X2035000Y1472303D02*
Y1474173D01*
X2125242Y1556244D02*
X2115709Y1559341D01*
X2114193Y1554676*
X2123726Y1551578*
X2125242Y1556244*
X2123726Y1551578D02*
X2123726D01*
X2120648Y1552578D02*
X2124051D01*
X2117571Y1553578D02*
X2124376D01*
X2114493Y1554578D02*
X2124701D01*
X2114486Y1555578D02*
X2125026D01*
X2114811Y1556578D02*
X2124212D01*
X2115136Y1557578D02*
X2121134D01*
X2115461Y1558578D02*
X2118057D01*
X2115000Y1554413D02*
Y1557160D01*
X2116000Y1554089D02*
Y1559247D01*
X2117000Y1553764D02*
Y1558922D01*
X2118000Y1553439D02*
Y1558597D01*
X2119000Y1553114D02*
Y1558272D01*
X2120000Y1552789D02*
Y1557947D01*
X2121000Y1552464D02*
Y1557622D01*
X2122000Y1552139D02*
Y1557297D01*
X2123000Y1551814D02*
Y1556972D01*
X2124000Y1552422D02*
Y1556647D01*
X2125000Y1555499D02*
Y1556322D01*
X2128892Y1567477D02*
X2119359Y1570574D01*
X2117843Y1565909*
X2127376Y1562811*
X2128892Y1567477*
X2127376Y1562811D02*
X2127376D01*
X2124298Y1563811D02*
X2127701D01*
X2121220Y1564811D02*
X2128026D01*
X2118143Y1565811D02*
X2128351D01*
X2118136Y1566811D02*
X2128675D01*
X2118461Y1567811D02*
X2127862D01*
X2118786Y1568811D02*
X2124784D01*
X2119111Y1569811D02*
X2121707D01*
X2118000Y1565858D02*
Y1566393D01*
X2119000Y1565533D02*
Y1569470D01*
X2120000Y1565208D02*
Y1570366D01*
X2121000Y1564883D02*
Y1570041D01*
X2122000Y1564558D02*
Y1569716D01*
X2123000Y1564233D02*
Y1569391D01*
X2124000Y1563908D02*
Y1569066D01*
X2125000Y1563583D02*
Y1568741D01*
X2126000Y1563258D02*
Y1568416D01*
X2127000Y1562933D02*
Y1568091D01*
X2128000Y1564732D02*
Y1567766D01*
X2059353Y1708370D02*
X2064365Y1717051D01*
X2060117Y1719504*
X2055105Y1710823*
X2059353Y1708370*
X2058223Y1709023D02*
X2059730D01*
X2056491Y1710023D02*
X2060307D01*
X2055220Y1711023D02*
X2060885D01*
X2055798Y1712023D02*
X2061462D01*
X2056375Y1713023D02*
X2062040D01*
X2056953Y1714023D02*
X2062617D01*
X2057530Y1715023D02*
X2063194D01*
X2058107Y1716023D02*
X2063772D01*
X2058685Y1717023D02*
X2064349D01*
X2059262Y1718023D02*
X2062681D01*
X2059839Y1719023D02*
X2060949D01*
X2056000Y1710306D02*
Y1712373D01*
X2057000Y1709729D02*
Y1714105D01*
X2058000Y1709152D02*
Y1715837D01*
X2059000Y1708574D02*
Y1717570D01*
X2060000Y1709491D02*
Y1719302D01*
X2061000Y1711223D02*
Y1718994D01*
X2062000Y1712955D02*
Y1718417D01*
X2063000Y1714687D02*
Y1717839D01*
X2064000Y1716419D02*
Y1717262D01*
X2069582Y1702465D02*
X2074594Y1711146D01*
X2070345Y1713598*
X2065334Y1704918*
X2069582Y1702465*
X2068615Y1703023D02*
X2069904D01*
X2066883Y1704023D02*
X2070482D01*
X2065395Y1705023D02*
X2071059D01*
X2065972Y1706023D02*
X2071636D01*
X2066549Y1707023D02*
X2072214D01*
X2067127Y1708023D02*
X2072791D01*
X2067704Y1709023D02*
X2073368D01*
X2068281Y1710023D02*
X2073946D01*
X2068859Y1711023D02*
X2074523D01*
X2069436Y1712023D02*
X2073074D01*
X2070013Y1713023D02*
X2071342D01*
X2066000Y1704533D02*
Y1706072D01*
X2067000Y1703956D02*
Y1707804D01*
X2068000Y1703378D02*
Y1709536D01*
X2069000Y1702801D02*
Y1711268D01*
X2070000Y1703189D02*
Y1713000D01*
X2071000Y1704921D02*
Y1713220D01*
X2072000Y1706653D02*
Y1712643D01*
X2073000Y1708385D02*
Y1712066D01*
X2074000Y1710117D02*
Y1711488D01*
X1956005Y1495899D02*
X1962827D01*
Y1491090*
X1956005*
Y1495899*
X1968412Y1487618D02*
X1977444D01*
Y1483169*
X1968412*
Y1487618*
X2007827Y1485709D02*
X2015592D01*
Y1481142*
X2007827*
Y1485709*
X1976158Y1529045D02*
X1981068D01*
Y1513823*
X1976158*
Y1529045*
X1958723Y1519391D02*
X1970393D01*
Y1513955*
X1958723*
Y1519391*
X2067536Y1638157D02*
Y1636145D01*
X2096757Y1606924*
X2096779Y1600664*
X2093321Y1597159*
X2087869Y1597141*
X2052275Y1632734*
Y1638157*
X2067536*
X1892272Y1575114D02*
X1908955D01*
Y1569705*
X1892272*
Y1575114*
X1893008Y1595937D02*
X1908200D01*
Y1589876*
X1893008*
Y1595937*
X1956005Y1495589D02*
X1962827D01*
X1956005Y1494689D02*
X1962827D01*
X1956005Y1493789D02*
X1962827D01*
X1956005Y1492889D02*
X1962827D01*
X1956005Y1491989D02*
X1962827D01*
X1968412Y1486767D02*
X1977444D01*
X1968412Y1485867D02*
X1977444D01*
X1968412Y1484967D02*
X1977444D01*
X1968412Y1484067D02*
X1977444D01*
X2007827Y1485640D02*
X2015592D01*
X2007827Y1484740D02*
X2015592D01*
X2007827Y1483840D02*
X2015592D01*
X2007827Y1482940D02*
X2015592D01*
X2007827Y1482040D02*
X2015592D01*
X1976158Y1528221D02*
X1981068D01*
X1976158Y1527321D02*
X1981068D01*
X1976158Y1526421D02*
X1981068D01*
X1976158Y1525521D02*
X1981068D01*
X1976158Y1524621D02*
X1981068D01*
X1976158Y1523721D02*
X1981068D01*
X1976158Y1522821D02*
X1981068D01*
X1976158Y1521921D02*
X1981068D01*
X1976158Y1521021D02*
X1981068D01*
X1976158Y1520121D02*
X1981068D01*
X1976158Y1519221D02*
X1981068D01*
X1976158Y1518321D02*
X1981068D01*
X1976158Y1517421D02*
X1981068D01*
X1976158Y1516521D02*
X1981068D01*
X1976158Y1515621D02*
X1981068D01*
X1976158Y1514721D02*
X1981068D01*
X1958723Y1519354D02*
X1970393D01*
X1958723Y1518454D02*
X1970393D01*
X1958723Y1517554D02*
X1970393D01*
X1958723Y1516654D02*
X1970393D01*
X1958723Y1515754D02*
X1970393D01*
X1958723Y1514854D02*
X1970393D01*
X2084270Y1600739D02*
X2096778D01*
X2083370Y1601639D02*
X2096775D01*
X2082470Y1602539D02*
X2096772D01*
X2081570Y1603439D02*
X2096769D01*
X2080670Y1604339D02*
X2096766D01*
X2079770Y1605239D02*
X2096763D01*
X2078870Y1606139D02*
X2096760D01*
X2077970Y1607039D02*
X2096642D01*
X2085170Y1599839D02*
X2095965D01*
X2077070Y1607939D02*
X2095742D01*
X2086070Y1598939D02*
X2095077D01*
X2076170Y1608839D02*
X2094842D01*
X2086970Y1598039D02*
X2094190D01*
X2075270Y1609739D02*
X2093942D01*
X2074370Y1610639D02*
X2093042D01*
X2073470Y1611539D02*
X2092142D01*
X2072570Y1612439D02*
X2091242D01*
X2071670Y1613339D02*
X2090342D01*
X2070770Y1614239D02*
X2089442D01*
X2069870Y1615139D02*
X2088542D01*
X2068970Y1616039D02*
X2087642D01*
X2068070Y1616939D02*
X2086742D01*
X2067170Y1617839D02*
X2085842D01*
X2066270Y1618739D02*
X2084942D01*
X2065370Y1619639D02*
X2084042D01*
X2064470Y1620539D02*
X2083142D01*
X2063570Y1621439D02*
X2082242D01*
X2062670Y1622339D02*
X2081342D01*
X2061770Y1623239D02*
X2080442D01*
X2060870Y1624139D02*
X2079542D01*
X2059970Y1625039D02*
X2078642D01*
X2059070Y1625939D02*
X2077742D01*
X2058170Y1626839D02*
X2076842D01*
X2057270Y1627739D02*
X2075942D01*
X2056370Y1628639D02*
X2075042D01*
X2055470Y1629539D02*
X2074142D01*
X2054570Y1630439D02*
X2073242D01*
X2053670Y1631339D02*
X2072342D01*
X2052770Y1632239D02*
X2071442D01*
X2052275Y1633139D02*
X2070542D01*
X2052275Y1634039D02*
X2069642D01*
X2052275Y1634939D02*
X2068742D01*
X2052275Y1635839D02*
X2067842D01*
X2052275Y1637639D02*
X2067536D01*
X2052275Y1636739D02*
X2067536D01*
X1892272Y1575104D02*
X1908955D01*
X1892272Y1574204D02*
X1908955D01*
X1892272Y1573304D02*
X1908955D01*
X1892272Y1572404D02*
X1908955D01*
X1892272Y1571504D02*
X1908955D01*
X1892272Y1570604D02*
X1908955D01*
X1893008Y1595275D02*
X1908200D01*
X1893008Y1594375D02*
X1908200D01*
X1893008Y1593475D02*
X1908200D01*
X1893008Y1592575D02*
X1908200D01*
X1893008Y1591675D02*
X1908200D01*
X1893008Y1590775D02*
X1908200D01*
X2024398Y1731567D02*
G75*
G03X2024002Y1732181I-485J122D01*
X1975611Y1732110I-24002J-132181*
X1975209Y1731533I90J-492*
G01X1977930Y1715782*
G03X1978438Y1715367I492J85*
G01X1987943Y1715658*
G03X1988427Y1716143I-15J500*
G01X1988633Y1723013*
X2012808Y1723314*
X2012263Y1716346*
G03X2012707Y1715810I499J-39*
G01X2018046Y1715227*
G03X2018501Y1715424I55J497*
G01X2019348Y1716554*
G03X2019370Y1716585I-400J300*
G01X2021398Y1719765*
G03X2021461Y1719911I-421J269*
G01X2024398Y1731567*
X1906160Y1676244D02*
G03X1906104Y1676975I-367J340D01*
G01X1896379Y1684723*
G03X1895679Y1684647I-311J-391*
X1887545Y1673497I104321J-84647*
X1887537Y1673483I419J-273*
G01X1883022Y1666060*
G03X1883014Y1666046I427J-260*
X1876207Y1652184I116986J-66046*
X1876451Y1651539I461J-194*
G01X1886572Y1646669*
G03X1887260Y1646951I217J451*
G01X1889221Y1652442*
G03X1889153Y1652905I-471J168*
G01X1887474Y1655203*
X1887245Y1657722*
X1897351Y1673545*
X1898738Y1674377*
X1901807Y1672186*
G03X1902464Y1672253I290J407*
G01X1906160Y1676244*
X1891210Y1640037D02*
G03X1890921Y1640639I-480J140D01*
G01X1874803Y1647279*
G03X1874144Y1646992I-190J-462*
X1865667Y1598406I125856J-46992*
X1866162Y1597912I500J6*
G01X1884076Y1597750*
G03X1884581Y1598261I5J500*
G01X1884422Y1605514*
G03X1884420Y1605548I-500J-11*
G01X1884157Y1608506*
X1884368Y1615498*
X1885490Y1620435*
X1885508Y1620495*
G03X1885081Y1621132I-480J140*
G01X1888939Y1634354D02*
G03X1885081Y1621132I-3112J-6266D01*
G01X1888939Y1634354D02*
G03X1889642Y1634662I223J448D01*
G01X1891210Y1640037*
X1889608Y1556777D02*
G03X1889860Y1557459I-196J460D01*
G01X1888919Y1559362*
G03X1888364Y1559629I-448J-222*
G01X1884436Y1558771*
X1884436*
X1882974Y1562238*
G03X1882472Y1562542I-461J-194*
G01X1875578Y1561976*
X1874482Y1564882*
X1873977Y1571026*
X1874100Y1577469*
X1874698Y1584905*
X1878984Y1588578*
X1883822Y1588754*
G03X1884304Y1589253I-18J499*
G01Y1593398*
G03X1883800Y1593898I-500J-0*
G01X1866323Y1593762*
G03X1865828Y1593237I4J-500*
X1874892Y1551052I134172J6763*
X1875554Y1550774I466J182*
G01X1889608Y1556777*
X1911037Y1521638D02*
G03X1911069Y1522343I-338J369D01*
G01X1906831Y1527001*
G03X1906117Y1527027I-370J-336*
G01X1900859Y1522039*
X1899414Y1524008*
G03X1899293Y1524124I-403J-296*
G01X1898017Y1525864D02*
G03X1899293Y1524124I3115J948D01*
G01X1898017Y1525864D02*
G03X1897942Y1526014I-478J-146D01*
G01X1897621Y1526452*
G03X1897239Y1526656I-404J-296*
G01X1892970Y1526836*
X1890076Y1529893*
X1889247Y1532621*
Y1542564*
X1891421Y1544032*
G03X1891640Y1544423I-280J415*
G01X1891723Y1546157*
G03X1891570Y1546542I-499J24*
G01X1890172Y1547884*
X1889591Y1552125*
G03X1888907Y1552520I-495J-67*
G01X1876851Y1547597*
G03X1876581Y1546937I189J-463*
X1881454Y1536796I123419J53063*
X1881473Y1536764I441J235*
G01X1892106Y1519960*
G03X1892127Y1519930I422J268*
X1899059Y1511350I107873J80070*
X1899772Y1511312I375J330*
G01X1911037Y1521638*
X1953402Y1510347D02*
G03X1952902Y1510869I-500J22D01*
G01X1948690*
G03X1948387Y1510767I0J-500*
G01X1943778Y1507246*
X1920834Y1507501*
Y1513649*
G03X1920654Y1514034I-500J0*
G01X1914634Y1519041*
G03X1913980Y1519029I-320J-384*
G01X1902291Y1508547*
G03X1902261Y1507832I334J-372*
X1936304Y1481718I97739J92168*
X1936993Y1481944I237J440*
G01X1942631Y1493865*
X1952648Y1499085*
G03X1952916Y1499506I-231J444*
G01X1953402Y1510347*
X1981166Y1478672D02*
G03X1980712Y1479230I-496J60D01*
G01X1973869Y1479809*
G03X1973377Y1479529I-42J-498*
G01X1971446Y1475543*
X1971446*
X1950603Y1482216*
X1950603D02*
X1952253Y1487191D01*
G03X1952108Y1487725I-474J157*
G01X1947598Y1491659*
G03X1946840Y1491538I-329J-377*
G01X1940147Y1480329*
G03X1940354Y1479624I429J-257*
X1951552Y1474698I59646J120376*
X1951581Y1474688I180J466*
G01X1951581D02*
X1967221Y1469719D01*
G03X1967251Y1469710I152J476*
X1979283Y1467265I32749J130290*
X1979856Y1467699I77J494*
G01X1981166Y1478672*
X2025936Y1468185D02*
G03X2026330Y1468771I-96J490D01*
G01X2023085Y1485446*
G03X2022484Y1485839I-491J-95*
G01X2019216Y1485101*
G03X2018826Y1484621I110J-487*
G01X2018748Y1478890*
X2016505Y1478394*
G03X2016113Y1477911I108J-488*
G01X2016074Y1474119*
X1993131Y1473305*
X1992918Y1478317*
G03X1992746Y1478674I-499J-21*
G01X1991568Y1479692*
G03X1991461Y1479763I-327J-378*
G01X1990209Y1480844D02*
G03X1991461Y1479763I2685J1842D01*
G01X1990209Y1480844D02*
G03X1990139Y1480926I-412J-283D01*
X1990094Y1481025I-475J-157*
G01X1989675Y1483179D02*
G03X1990094Y1481025I3219J-493D01*
G01X1989675Y1483179D02*
G03X1989206Y1483755I-494J76D01*
G01X1986510Y1483888*
G03X1985992Y1483469I-24J-499*
G01X1983359Y1467215*
G03X1983792Y1466639I494J-80*
X2025936Y1468185I16208J133361*
G01X2070455Y1485615D02*
G03X2070623Y1486297I-262J426D01*
G01X2062704Y1499585*
G03X2061993Y1499742I-430J-256*
G01X2061505Y1499410*
G03X2061429Y1499346I282J-414*
G01X2056441Y1494232*
G03X2056316Y1493751I358J-349*
G01X2057776Y1488420*
X2056137Y1487359*
G03X2056027Y1487263I272J-419*
G01X2054445Y1486239D02*
G03X2056027Y1487263I-902J3129D01*
G01X2054445Y1486239D02*
G03X2054312Y1486179I138J-480D01*
G01X2053975Y1485961*
X2035587Y1486898*
G03X2035562Y1486899I-25J-499*
G01X2029813*
G03X2029680Y1486881I0J-500*
G01X2026628Y1486038*
G03X2026271Y1485456I133J-482*
G01X2029534Y1469468*
G03X2030136Y1469081I490J100*
X2070455Y1485615I-30136J130919*
G01X2105336Y1516620D02*
G03X2105248Y1517328I-392J311D01*
G01X2090988Y1528255*
G03X2090289Y1528164I-304J-397*
G01X2087013Y1523937*
G03X2087032Y1523303I396J-306*
G01X2090453Y1519372*
X2090454D02*
G03X2090456Y1519369I377J328D01*
G01X2094850Y1514408*
X2078828Y1498660*
X2074130Y1503097*
G03X2073671Y1503220I-344J-363*
G01X2066135Y1501429*
G03X2065827Y1500677I116J-487*
G01X2073601Y1488227*
G03X2074302Y1488075I425J265*
X2105336Y1516620I-74302J111925*
G01X2127360Y1557252D02*
G03X2127040Y1557886I-474J159D01*
G01X2110753Y1563186*
G03X2110134Y1562896I-155J-476*
G01X2107927Y1557381*
G03X2108146Y1556760I464J-185*
G01X2117561Y1551460*
X2117761Y1548294*
G03X2117827Y1548077I499J31*
G01X2116983Y1543875D02*
G03X2117827Y1548077I-1982J2584D01*
G01X2116983Y1543875D02*
G03X2116840Y1543702I304J-396D01*
G01X2111672Y1533367*
X2111412Y1533225*
G03X2111305Y1533146I240J-439*
G01X2109772Y1532313D02*
G03X2111305Y1533146I-731J3173D01*
G01X2109772Y1532313D02*
G03X2109670Y1532277I113J-487D01*
G01X2106957Y1530987*
X2097260Y1536409*
G03X2096602Y1536252I-244J-436*
G01X2093491Y1531633*
G03X2093602Y1530956I414J-280*
G01X2107531Y1520321*
G03X2108237Y1520422I303J398*
X2127360Y1557252I-108237J79578*
G01X2128763Y1561685D02*
G03X2134314Y1602754I-128763J38315D01*
X2133806Y1603243I-500J-11*
G01X2122083Y1603047*
X2122084D02*
G03X2121592Y1602550I8J-500D01*
G01X2121491Y1584703*
X2115446Y1584011*
G03X2115014Y1583617I57J-497*
G01X2111454Y1566787*
G03X2111801Y1566204I489J-104*
G01X2128141Y1561348*
G03X2128763Y1561685I143J479*
G01X2133646Y1607171D02*
G03X2134122Y1607699I-23J499D01*
X2125304Y1648445I-134122J-7699*
X2124647Y1648727I-467J-181*
G01X2109481Y1642487*
G03X2109194Y1641875I190J-463*
G01X2111327Y1635051*
G03X2111962Y1634726I477J149*
G01X2116135Y1621373D02*
G03X2111962Y1634726I-1962J6715D01*
G01X2116135Y1621373D02*
G03X2115798Y1620744I141J-480D01*
G01X2116178Y1619529*
G03X2116493Y1619205I477J150*
G01X2121360Y1617541*
X2121237Y1607113*
G03X2121760Y1606607I500J-6*
G01X2121760D02*
X2133646Y1607171D01*
X2123218Y1652303D02*
G03X2123466Y1652953I-211J453D01*
X2102404Y1686956I-123466J-52953*
X2101683Y1686999I-381J-324*
G01X2089352Y1675549*
G03X2089306Y1674864I340J-367*
G01X2093052Y1670319*
G03X2093680Y1670200I386J318*
G01X2099084Y1673186*
X2099084D02*
Y1673185D01*
X2099084D02*
X2103294Y1672796D01*
G03X2103434Y1672803I46J498*
G01X2106827Y1671304D02*
G03X2103434Y1672803I-2778J-1699D01*
G01X2106827Y1671304D02*
G03X2106863Y1671253I426J261D01*
G01X2112903Y1663721*
X2114655Y1656009*
X2106190Y1651056*
G03X2105977Y1650441I253J-432*
G01X2107841Y1645709*
G03X2108518Y1645439I466J184*
G01X2123218Y1652303*
X2099458Y1689602D02*
G03X2099475Y1690292I-353J354D01*
X2069878Y1714739I-99475J-90292*
X2069196Y1714580I-260J-427*
G01X2059314Y1699079*
G03X2059482Y1698379I421J-269*
G01X2063159Y1696218*
G03X2063775Y1696305I253J431*
G01X2071579Y1704556*
X2089373Y1690656*
X2085952Y1686453*
G03X2085948Y1685826I388J-316*
G01X2086803Y1684751*
G03X2086861Y1684689I391J311*
G01X2087554Y1683818D02*
G03X2086861Y1684689I-2858J-1561D01*
G01X2087554Y1683818D02*
G03X2087601Y1683746I439J239D01*
G01X2089140Y1681811*
X2086536Y1679112*
G03X2086560Y1678395I360J-347*
G01X2087078Y1677925*
G03X2087767Y1677942I336J371*
G01X2099458Y1689602*
X2066460Y1716160D02*
G03X2066279Y1716855I-427J260D01*
X2028569Y1731270I-66279J-116855*
X2027975Y1730891I-106J-489*
G01X2025345Y1719201*
G03X2025763Y1718596I488J-110*
G01X2032802Y1717605*
X2035928Y1716073*
X2038267Y1712872*
X2038782Y1709419*
G03X2039069Y1709038I495J74*
G01X2040643Y1708319*
G03X2041277Y1708512I208J454*
G01X2053910Y1702738D02*
G03X2041277Y1708512I-6666J2122D01*
G01X2053910Y1702738D02*
G03X2054179Y1702131I477J-152D01*
G01X2056726Y1700967*
G03X2057361Y1701162I208J455*
G01X2066460Y1716160*
X1973765Y1713350D02*
G03X1974121Y1713902I-139J481D01*
G01X1971696Y1730779*
G03X1971094Y1731196I-495J-72*
X1935347Y1717762I28906J-131196*
X1935155Y1717072I240J-438*
G01X1943932Y1701956*
G03X1944622Y1701779I432J251*
G01X1945778Y1702472*
G03X1946003Y1703032I-258J429*
G01X1958435Y1708945D02*
G03X1946003Y1703032I-5679J-4085D01*
G01X1958435Y1708945D02*
G03X1959054Y1708785I406J292D01*
G01X1960688Y1709552*
X1973765Y1713350*
X1975233Y1731395D02*
X2024354D01*
X1975388Y1730495D02*
X2024127D01*
X1975544Y1729595D02*
X2023901D01*
X1975699Y1728695D02*
X2023674D01*
X1975855Y1727795D02*
X2023447D01*
X1976632Y1732295D02*
X2023368D01*
X1976010Y1726895D02*
X2023221D01*
X1976165Y1725995D02*
X2022994D01*
X1976321Y1725095D02*
X2022767D01*
X1976476Y1724195D02*
X2022540D01*
X2012806Y1723295D02*
X2022314D01*
X2012736Y1722395D02*
X2022087D01*
X2012665Y1721495D02*
X2021860D01*
X2012595Y1720595D02*
X2021633D01*
X2012525Y1719695D02*
X2021353D01*
X2012455Y1718795D02*
X2020779D01*
X2012384Y1717895D02*
X2020205D01*
X2012314Y1716995D02*
X2019631D01*
X2012309Y1716095D02*
X2019004D01*
X1982475Y1733195D02*
X2017525D01*
X1976632Y1723295D02*
X2011248D01*
X1991842Y1734095D02*
X2008158D01*
X1976787Y1722395D02*
X1988614D01*
X1976943Y1721495D02*
X1988588D01*
X1977098Y1720595D02*
X1988561D01*
X1977254Y1719695D02*
X1988534D01*
X1977409Y1718795D02*
X1988507D01*
X1977565Y1717895D02*
X1988480D01*
X1977720Y1716995D02*
X1988453D01*
X1977875Y1716095D02*
X1988424D01*
X1889308Y1676127D02*
X1906051D01*
X1889933Y1677027D02*
X1906039D01*
X1888695Y1675227D02*
X1905218D01*
X1890568Y1677927D02*
X1904909D01*
X1898809Y1674327D02*
X1904384D01*
X1891215Y1678827D02*
X1903780D01*
X1900069Y1673427D02*
X1903551D01*
X1901329Y1672527D02*
X1902718D01*
X1891873Y1679727D02*
X1902650D01*
X1892542Y1680627D02*
X1901520D01*
X1893223Y1681527D02*
X1900391D01*
X1893916Y1682427D02*
X1899261D01*
X1888092Y1674327D02*
X1898655D01*
X1894622Y1683327D02*
X1898132D01*
X1887502Y1673427D02*
X1897276D01*
X1895340Y1684227D02*
X1897002D01*
X1886955Y1672527D02*
X1896701D01*
X1886407Y1671627D02*
X1896126D01*
X1885860Y1670727D02*
X1895552D01*
X1885313Y1669827D02*
X1894977D01*
X1884765Y1668927D02*
X1894402D01*
X1884218Y1668027D02*
X1893827D01*
X1883671Y1667127D02*
X1893252D01*
X1883123Y1666227D02*
X1892677D01*
X1882610Y1665327D02*
X1892102D01*
X1882114Y1664427D02*
X1891528D01*
X1881627Y1663527D02*
X1890953D01*
X1881148Y1662627D02*
X1890378D01*
X1880678Y1661727D02*
X1889803D01*
X1876437Y1652727D02*
X1889236D01*
X1880217Y1660827D02*
X1889228D01*
X1876195Y1651827D02*
X1889001D01*
X1877724Y1650927D02*
X1888679D01*
X1879764Y1659927D02*
X1888653D01*
X1876825Y1653627D02*
X1888626D01*
X1879594Y1650027D02*
X1888358D01*
X1879320Y1659027D02*
X1888079D01*
X1881465Y1649127D02*
X1888037D01*
X1877221Y1654527D02*
X1887968D01*
X1883335Y1648227D02*
X1887715D01*
X1878884Y1658127D02*
X1887504D01*
X1877624Y1655427D02*
X1887454D01*
X1885205Y1647327D02*
X1887394D01*
X1878036Y1656327D02*
X1887372D01*
X1878456Y1657227D02*
X1887290D01*
X1871764Y1640044D02*
X1891213D01*
X1871487Y1639144D02*
X1890950D01*
X1871216Y1638244D02*
X1890687D01*
X1870952Y1637344D02*
X1890425D01*
X1872049Y1640944D02*
X1890180D01*
X1870695Y1636444D02*
X1890162D01*
X1870445Y1635544D02*
X1889899D01*
X1888269Y1634644D02*
X1889636D01*
X1872340Y1641844D02*
X1887995D01*
X1872639Y1642744D02*
X1885810D01*
X1867192Y1620244D02*
X1885447D01*
X1867058Y1619344D02*
X1885242D01*
X1866930Y1618444D02*
X1885037D01*
X1867332Y1621144D02*
X1884975D01*
X1866808Y1617544D02*
X1884833D01*
X1866693Y1616644D02*
X1884628D01*
X1865664Y1598644D02*
X1884572D01*
X1865658Y1599544D02*
X1884553D01*
X1865658Y1600444D02*
X1884533D01*
X1865664Y1601344D02*
X1884513D01*
X1865676Y1602244D02*
X1884494D01*
X1865694Y1603144D02*
X1884474D01*
X1865718Y1604044D02*
X1884454D01*
X1865749Y1604944D02*
X1884435D01*
X1866583Y1615744D02*
X1884424D01*
X1865785Y1605844D02*
X1884394D01*
X1866480Y1614844D02*
X1884348D01*
X1866383Y1613944D02*
X1884321D01*
X1865827Y1606744D02*
X1884314D01*
X1866292Y1613044D02*
X1884294D01*
X1866208Y1612144D02*
X1884267D01*
X1866129Y1611244D02*
X1884239D01*
X1865875Y1607644D02*
X1884234D01*
X1866056Y1610344D02*
X1884212D01*
X1865990Y1609444D02*
X1884185D01*
X1865929Y1608544D02*
X1884158D01*
X1872945Y1643644D02*
X1883626D01*
X1870201Y1634644D02*
X1883385D01*
X1867478Y1622044D02*
X1882303D01*
X1869965Y1633744D02*
X1881709D01*
X1873257Y1644544D02*
X1881441D01*
X1867631Y1622944D02*
X1881085D01*
X1869734Y1632844D02*
X1880696D01*
X1867790Y1623844D02*
X1880265D01*
X1869511Y1631944D02*
X1879989D01*
X1867956Y1624744D02*
X1879682D01*
X1869294Y1631044D02*
X1879486D01*
X1868128Y1625644D02*
X1879271D01*
X1873577Y1645444D02*
X1879256D01*
X1869083Y1630144D02*
X1879140D01*
X1868306Y1626544D02*
X1879003D01*
X1868879Y1629244D02*
X1878927D01*
X1868491Y1627444D02*
X1878860D01*
X1868682Y1628344D02*
X1878835D01*
X1873904Y1646344D02*
X1877072D01*
X1874354Y1647244D02*
X1874887D01*
X1872658Y1557198D02*
X1889910D01*
X1872359Y1558098D02*
X1889544D01*
X1885473Y1558998D02*
X1889099D01*
X1872964Y1556298D02*
X1888486D01*
X1873278Y1555398D02*
X1886379D01*
X1872067Y1558998D02*
X1884340D01*
X1865830Y1593198D02*
X1884304D01*
X1865878Y1592298D02*
X1884304D01*
X1865933Y1591398D02*
X1884304D01*
X1865994Y1590498D02*
X1884304D01*
X1866061Y1589598D02*
X1884304D01*
X1873598Y1554498D02*
X1884272D01*
X1871783Y1559898D02*
X1883961D01*
X1871504Y1560798D02*
X1883581D01*
X1871233Y1561698D02*
X1883201D01*
X1866134Y1588698D02*
X1882282D01*
X1873926Y1553598D02*
X1882165D01*
X1874261Y1552698D02*
X1880057D01*
X1866213Y1587798D02*
X1878073D01*
X1874603Y1551798D02*
X1877950D01*
X1866298Y1586898D02*
X1877023D01*
X1866389Y1585998D02*
X1875973D01*
X1874988Y1550898D02*
X1875843D01*
X1870969Y1562598D02*
X1875343D01*
X1870712Y1563498D02*
X1875004D01*
X1866487Y1585098D02*
X1874923D01*
X1870461Y1564398D02*
X1874664D01*
X1866590Y1584198D02*
X1874641D01*
X1866700Y1583298D02*
X1874569D01*
X1866816Y1582398D02*
X1874497D01*
X1870217Y1565298D02*
X1874448D01*
X1866938Y1581498D02*
X1874424D01*
X1869980Y1566198D02*
X1874374D01*
X1867066Y1580598D02*
X1874352D01*
X1869749Y1567098D02*
X1874300D01*
X1867200Y1579698D02*
X1874280D01*
X1869525Y1567998D02*
X1874226D01*
X1867341Y1578798D02*
X1874207D01*
X1869307Y1568898D02*
X1874152D01*
X1867488Y1577898D02*
X1874135D01*
X1867641Y1576998D02*
X1874091D01*
X1869096Y1569798D02*
X1874078D01*
X1867801Y1576098D02*
X1874074D01*
X1867967Y1575198D02*
X1874057D01*
X1868139Y1574298D02*
X1874040D01*
X1868318Y1573398D02*
X1874023D01*
X1868503Y1572498D02*
X1874005D01*
X1868892Y1570698D02*
X1874004D01*
X1868694Y1571598D02*
X1873988D01*
X1890981Y1521738D02*
X1911121D01*
X1901491Y1522638D02*
X1910801D01*
X1891550Y1520838D02*
X1910164D01*
X1902439Y1523538D02*
X1909982D01*
X1892121Y1519938D02*
X1909182D01*
X1903388Y1524438D02*
X1909163D01*
X1904336Y1525338D02*
X1908344D01*
X1892794Y1519038D02*
X1908200D01*
X1905285Y1526238D02*
X1907525D01*
X1893480Y1518138D02*
X1907219D01*
X1906299Y1527138D02*
X1906622D01*
X1894178Y1517238D02*
X1906237D01*
X1894888Y1516338D02*
X1905255D01*
X1895611Y1515438D02*
X1904273D01*
X1896346Y1514538D02*
X1903291D01*
X1897095Y1513638D02*
X1902310D01*
X1897857Y1512738D02*
X1901328D01*
X1890411Y1522638D02*
X1900419D01*
X1898633Y1511838D02*
X1900346D01*
X1889842Y1523538D02*
X1899759D01*
X1889272Y1524438D02*
X1898904D01*
X1888703Y1525338D02*
X1898229D01*
X1888133Y1526238D02*
X1897778D01*
X1887564Y1527138D02*
X1892685D01*
X1886994Y1528038D02*
X1891832D01*
X1876972Y1546038D02*
X1891717D01*
X1877370Y1545138D02*
X1891674D01*
X1877777Y1544238D02*
X1891595D01*
X1876581Y1546938D02*
X1891157D01*
X1886425Y1528938D02*
X1890980D01*
X1878192Y1543338D02*
X1890393D01*
X1877440Y1547838D02*
X1890220D01*
X1885855Y1529838D02*
X1890128D01*
X1879644Y1548738D02*
X1890055D01*
X1881848Y1549638D02*
X1889932D01*
X1885286Y1530738D02*
X1889819D01*
X1884052Y1550538D02*
X1889808D01*
X1886256Y1551438D02*
X1889685D01*
X1884716Y1531638D02*
X1889546D01*
X1888459Y1552338D02*
X1889510D01*
X1884147Y1532538D02*
X1889272D01*
X1878614Y1542438D02*
X1889247D01*
X1879045Y1541538D02*
X1889247D01*
X1879484Y1540638D02*
X1889247D01*
X1879932Y1539738D02*
X1889247D01*
X1880388Y1538838D02*
X1889247D01*
X1880852Y1537938D02*
X1889247D01*
X1881325Y1537038D02*
X1889247D01*
X1881869Y1536138D02*
X1889247D01*
X1882438Y1535238D02*
X1889247D01*
X1883008Y1534338D02*
X1889247D01*
X1883577Y1533438D02*
X1889247D01*
X1947442Y1510045D02*
X1953388D01*
X1946264Y1509145D02*
X1953348D01*
X1945086Y1508245D02*
X1953308D01*
X1943908Y1507345D02*
X1953267D01*
X1903587Y1506445D02*
X1953227D01*
X1904469Y1505545D02*
X1953187D01*
X1905367Y1504645D02*
X1953146D01*
X1906283Y1503745D02*
X1953106D01*
X1907216Y1502845D02*
X1953066D01*
X1908168Y1501945D02*
X1953025D01*
X1909138Y1501045D02*
X1952985D01*
X1910128Y1500145D02*
X1952945D01*
X1911138Y1499245D02*
X1952829D01*
X1912169Y1498345D02*
X1951228D01*
X1913222Y1497445D02*
X1949500D01*
X1914297Y1496545D02*
X1947773D01*
X1915395Y1495645D02*
X1946046D01*
X1916517Y1494745D02*
X1944319D01*
X1917665Y1493845D02*
X1942621D01*
X1918839Y1492945D02*
X1942196D01*
X1920040Y1492045D02*
X1941770D01*
X1921269Y1491145D02*
X1941344D01*
X1922529Y1490245D02*
X1940919D01*
X1923820Y1489345D02*
X1940493D01*
X1925144Y1488445D02*
X1940067D01*
X1926503Y1487545D02*
X1939642D01*
X1927899Y1486645D02*
X1939216D01*
X1929334Y1485745D02*
X1938791D01*
X1930810Y1484845D02*
X1938365D01*
X1932330Y1483945D02*
X1937939D01*
X1933898Y1483045D02*
X1937514D01*
X1935516Y1482145D02*
X1937088D01*
X1902722Y1507345D02*
X1934859D01*
X1907976Y1513645D02*
X1920834D01*
X1906972Y1512745D02*
X1920834D01*
X1905969Y1511845D02*
X1920834D01*
X1904965Y1510945D02*
X1920834D01*
X1903961Y1510045D02*
X1920834D01*
X1902958Y1509145D02*
X1920834D01*
X1902130Y1508245D02*
X1920834D01*
X1908980Y1514545D02*
X1920039D01*
X1909983Y1515445D02*
X1918957D01*
X1910987Y1516345D02*
X1917875D01*
X1911991Y1517245D02*
X1916793D01*
X1912994Y1518145D02*
X1915711D01*
X1913999Y1519045D02*
X1914629D01*
X1972819Y1478376D02*
X1981131D01*
X1972383Y1477476D02*
X1981024D01*
X1971947Y1476576D02*
X1980916D01*
X1971511Y1475676D02*
X1980809D01*
X1951349Y1474776D02*
X1980701D01*
X1954134Y1473876D02*
X1980594D01*
X1956967Y1472976D02*
X1980486D01*
X1959800Y1472076D02*
X1980379D01*
X1962633Y1471176D02*
X1980272D01*
X1965466Y1470276D02*
X1980164D01*
X1973255Y1479276D02*
X1980163D01*
X1968609Y1469376D02*
X1980057D01*
X1972624Y1468476D02*
X1979949D01*
X1977375Y1467576D02*
X1979826D01*
X1949093Y1475676D02*
X1971029D01*
X1946948Y1476576D02*
X1968218D01*
X1944901Y1477476D02*
X1965407D01*
X1942942Y1478376D02*
X1962595D01*
X1941062Y1479276D02*
X1959784D01*
X1940087Y1480176D02*
X1956973D01*
X1940593Y1481076D02*
X1954161D01*
X1944355Y1487376D02*
X1952278D01*
X1943818Y1486476D02*
X1952016D01*
X1943280Y1485576D02*
X1951718D01*
X1944892Y1488276D02*
X1951476D01*
X1942743Y1484676D02*
X1951419D01*
X1941131Y1481976D02*
X1951350D01*
X1942205Y1483776D02*
X1951120D01*
X1941668Y1482876D02*
X1950822D01*
X1945430Y1489176D02*
X1950444D01*
X1945967Y1490076D02*
X1949412D01*
X1946505Y1490976D02*
X1948380D01*
X1983645Y1468982D02*
X2026289D01*
X1983791Y1469882D02*
X2026114D01*
X1983937Y1470782D02*
X2025939D01*
X1984083Y1471682D02*
X2025764D01*
X1984229Y1472582D02*
X2025589D01*
X1998120Y1473482D02*
X2025414D01*
X1983500Y1468082D02*
X2025406D01*
X2016077Y1474382D02*
X2025239D01*
X2016086Y1475282D02*
X2025063D01*
X2016095Y1476182D02*
X2024888D01*
X2016104Y1477082D02*
X2024713D01*
X2016119Y1477982D02*
X2024538D01*
X2018708Y1478882D02*
X2024363D01*
X2018760Y1479782D02*
X2024188D01*
X2018772Y1480682D02*
X2024012D01*
X2018784Y1481582D02*
X2023837D01*
X2018797Y1482482D02*
X2023662D01*
X2018809Y1483382D02*
X2023487D01*
X2018821Y1484282D02*
X2023312D01*
X2019571Y1485182D02*
X2023137D01*
X1983355Y1467182D02*
X2020179D01*
X1987066Y1466282D02*
X2012934D01*
X1984374Y1473482D02*
X1993123D01*
X1984520Y1474382D02*
X1993085D01*
X1984666Y1475282D02*
X1993047D01*
X1984812Y1476182D02*
X1993009D01*
X1984957Y1477082D02*
X1992971D01*
X1985103Y1477982D02*
X1992933D01*
X1985249Y1478882D02*
X1992506D01*
X1985395Y1479782D02*
X1991423D01*
X1985541Y1480682D02*
X1990328D01*
X1985686Y1481582D02*
X1989831D01*
X1985978Y1483382D02*
X1989665D01*
X1985832Y1482482D02*
X1989644D01*
X2055005Y1486459D02*
X2070526D01*
X2026261Y1485559D02*
X2070364D01*
X2056136Y1487359D02*
X2069990D01*
X2057527Y1488259D02*
X2069453D01*
X2057574Y1489159D02*
X2068917D01*
X2026434Y1484659D02*
X2068879D01*
X2057328Y1490059D02*
X2068381D01*
X2057081Y1490959D02*
X2067844D01*
X2026617Y1483759D02*
X2067349D01*
X2056835Y1491859D02*
X2067308D01*
X2056588Y1492759D02*
X2066772D01*
X2056342Y1493659D02*
X2066235D01*
X2026801Y1482859D02*
X2065771D01*
X2056759Y1494559D02*
X2065699D01*
X2057637Y1495459D02*
X2065163D01*
X2058515Y1496359D02*
X2064626D01*
X2026985Y1481959D02*
X2064142D01*
X2059393Y1497259D02*
X2064090D01*
X2060271Y1498159D02*
X2063554D01*
X2061149Y1499059D02*
X2063017D01*
X2027168Y1481059D02*
X2062457D01*
X2027352Y1480159D02*
X2060712D01*
X2027536Y1479259D02*
X2058902D01*
X2027719Y1478359D02*
X2057020D01*
X2027903Y1477459D02*
X2055059D01*
X2028087Y1476559D02*
X2053011D01*
X2028270Y1475659D02*
X2050864D01*
X2028454Y1474759D02*
X2048606D01*
X2028638Y1473859D02*
X2046220D01*
X2028151Y1486459D02*
X2044213D01*
X2028821Y1472959D02*
X2043685D01*
X2029005Y1472059D02*
X2040975D01*
X2029189Y1471159D02*
X2038050D01*
X2029373Y1470259D02*
X2034858D01*
X2029570Y1469359D02*
X2031317D01*
X2092265Y1517327D02*
X2105249D01*
X2093062Y1516427D02*
X2105183D01*
X2093859Y1515527D02*
X2104462D01*
X2091468Y1518227D02*
X2104074D01*
X2094656Y1514627D02*
X2103728D01*
X2094158Y1513727D02*
X2102980D01*
X2090670Y1519127D02*
X2102900D01*
X2093242Y1512827D02*
X2102219D01*
X2089883Y1520027D02*
X2101725D01*
X2092326Y1511927D02*
X2101445D01*
X2091410Y1511027D02*
X2100657D01*
X2089100Y1520927D02*
X2100551D01*
X2090495Y1510127D02*
X2099854D01*
X2088316Y1521827D02*
X2099376D01*
X2089579Y1509227D02*
X2099036D01*
X2088663Y1508327D02*
X2098204D01*
X2087532Y1522727D02*
X2098202D01*
X2087748Y1507427D02*
X2097356D01*
X2086909Y1523627D02*
X2097027D01*
X2086832Y1506527D02*
X2096492D01*
X2087471Y1524527D02*
X2095853D01*
X2085916Y1505627D02*
X2095612D01*
X2085000Y1504727D02*
X2094715D01*
X2088168Y1525427D02*
X2094678D01*
X2084085Y1503827D02*
X2093801D01*
X2088865Y1526327D02*
X2093504D01*
X2083169Y1502927D02*
X2092870D01*
X2089563Y1527227D02*
X2092329D01*
X2082253Y1502027D02*
X2091920D01*
X2090260Y1528127D02*
X2091155D01*
X2081337Y1501127D02*
X2090951D01*
X2080422Y1500227D02*
X2089963D01*
X2079506Y1499327D02*
X2088954D01*
X2067232Y1498427D02*
X2087925D01*
X2067794Y1497527D02*
X2086875D01*
X2068356Y1496627D02*
X2085802D01*
X2068918Y1495727D02*
X2084706D01*
X2069480Y1494827D02*
X2083586D01*
X2070042Y1493927D02*
X2082441D01*
X2070604Y1493027D02*
X2081269D01*
X2071166Y1492127D02*
X2080071D01*
X2071728Y1491227D02*
X2078844D01*
X2066670Y1499327D02*
X2078122D01*
X2072290Y1490327D02*
X2077587D01*
X2066108Y1500227D02*
X2077169D01*
X2072852Y1489427D02*
X2076299D01*
X2065786Y1501127D02*
X2076216D01*
X2068652Y1502027D02*
X2075263D01*
X2073414Y1488527D02*
X2074978D01*
X2072438Y1502927D02*
X2074310D01*
X2107969Y1556928D02*
X2127251D01*
X2108106Y1557828D02*
X2127161D01*
X2109445Y1556028D02*
X2126943D01*
X2111044Y1555128D02*
X2126627D01*
X2112643Y1554228D02*
X2126305D01*
X2114242Y1553328D02*
X2125975D01*
X2115841Y1552428D02*
X2125638D01*
X2117440Y1551528D02*
X2125293D01*
X2117614Y1550628D02*
X2124941D01*
X2117671Y1549728D02*
X2124582D01*
X2108466Y1558728D02*
X2124452D01*
X2117728Y1548828D02*
X2124215D01*
X2117906Y1547928D02*
X2123840D01*
X2118207Y1547028D02*
X2123458D01*
X2118240Y1546128D02*
X2123068D01*
X2118016Y1545228D02*
X2122670D01*
X2117464Y1544328D02*
X2122264D01*
X2116703Y1543428D02*
X2121851D01*
X2108826Y1559628D02*
X2121686D01*
X2116253Y1542528D02*
X2121429D01*
X2115803Y1541628D02*
X2120999D01*
X2115353Y1540728D02*
X2120560D01*
X2114903Y1539828D02*
X2120114D01*
X2114453Y1538928D02*
X2119659D01*
X2114003Y1538028D02*
X2119195D01*
X2109186Y1560528D02*
X2118919D01*
X2113553Y1537128D02*
X2118723D01*
X2113103Y1536228D02*
X2118242D01*
X2112653Y1535328D02*
X2117752D01*
X2112203Y1534428D02*
X2117253D01*
X2111753Y1533528D02*
X2116745D01*
X2110602Y1532628D02*
X2116228D01*
X2109547Y1561428D02*
X2116153D01*
X2108516Y1531728D02*
X2115702D01*
X2093769Y1530828D02*
X2115166D01*
X2094948Y1529928D02*
X2114621D01*
X2096127Y1529028D02*
X2114066D01*
X2097305Y1528128D02*
X2113501D01*
X2109907Y1562328D02*
X2113387D01*
X2098484Y1527228D02*
X2112926D01*
X2099663Y1526328D02*
X2112341D01*
X2100842Y1525428D02*
X2111745D01*
X2102020Y1524528D02*
X2111139D01*
X2103199Y1523628D02*
X2110523D01*
X2104378Y1522728D02*
X2109895D01*
X2105557Y1521828D02*
X2109257D01*
X2106736Y1520928D02*
X2108608D01*
X2093555Y1531728D02*
X2105632D01*
X2094161Y1532628D02*
X2104022D01*
X2094767Y1533528D02*
X2102413D01*
X2095373Y1534428D02*
X2100803D01*
X2095980Y1535328D02*
X2099194D01*
X2096586Y1536228D02*
X2097584D01*
X2121579Y1600275D02*
X2134342D01*
X2121574Y1599375D02*
X2134341D01*
X2121584Y1601175D02*
X2134337D01*
X2121569Y1598475D02*
X2134334D01*
X2121589Y1602075D02*
X2134326D01*
X2121564Y1597575D02*
X2134321D01*
X2121559Y1596675D02*
X2134301D01*
X2121554Y1595775D02*
X2134276D01*
X2121832Y1602975D02*
X2134258D01*
X2121549Y1594875D02*
X2134245D01*
X2121544Y1593975D02*
X2134207D01*
X2121539Y1593075D02*
X2134164D01*
X2121534Y1592175D02*
X2134114D01*
X2121528Y1591275D02*
X2134059D01*
X2121523Y1590375D02*
X2133997D01*
X2121518Y1589475D02*
X2133930D01*
X2121513Y1588575D02*
X2133856D01*
X2121508Y1587675D02*
X2133776D01*
X2121503Y1586775D02*
X2133690D01*
X2121498Y1585875D02*
X2133598D01*
X2121493Y1584975D02*
X2133500D01*
X2116004Y1584075D02*
X2133395D01*
X2114920Y1583175D02*
X2133285D01*
X2114730Y1582275D02*
X2133168D01*
X2114539Y1581375D02*
X2133045D01*
X2114349Y1580475D02*
X2132916D01*
X2114159Y1579575D02*
X2132781D01*
X2113968Y1578675D02*
X2132639D01*
X2113778Y1577775D02*
X2132491D01*
X2113588Y1576875D02*
X2132337D01*
X2113397Y1575975D02*
X2132177D01*
X2113207Y1575075D02*
X2132010D01*
X2113017Y1574175D02*
X2131837D01*
X2112826Y1573275D02*
X2131657D01*
X2112636Y1572375D02*
X2131471D01*
X2112445Y1571475D02*
X2131279D01*
X2112255Y1570575D02*
X2131080D01*
X2112065Y1569675D02*
X2130875D01*
X2111874Y1568775D02*
X2130663D01*
X2111684Y1567875D02*
X2130445D01*
X2111494Y1566975D02*
X2130220D01*
X2112236Y1566075D02*
X2129988D01*
X2115265Y1565175D02*
X2129750D01*
X2118293Y1564275D02*
X2129505D01*
X2121322Y1563375D02*
X2129254D01*
X2124350Y1562475D02*
X2128995D01*
X2127379Y1561575D02*
X2128715D01*
X2121241Y1607481D02*
X2134085D01*
X2121252Y1608381D02*
X2134081D01*
X2121262Y1609281D02*
X2134022D01*
X2121273Y1610181D02*
X2133956D01*
X2121284Y1611081D02*
X2133885D01*
X2121294Y1611981D02*
X2133807D01*
X2121305Y1612881D02*
X2133724D01*
X2121316Y1613781D02*
X2133634D01*
X2121326Y1614681D02*
X2133538D01*
X2121337Y1615581D02*
X2133436D01*
X2121348Y1616481D02*
X2133328D01*
X2121358Y1617381D02*
X2133213D01*
X2119196Y1618281D02*
X2133093D01*
X2116565Y1619181D02*
X2132966D01*
X2116006Y1620081D02*
X2132833D01*
X2115783Y1620981D02*
X2132694D01*
X2117400Y1621881D02*
X2132549D01*
X2118731Y1622781D02*
X2132397D01*
X2119607Y1623681D02*
X2132239D01*
X2120227Y1624581D02*
X2132075D01*
X2120665Y1625481D02*
X2131904D01*
X2120958Y1626381D02*
X2131727D01*
X2121123Y1627281D02*
X2131543D01*
X2121169Y1628181D02*
X2131353D01*
X2121099Y1629081D02*
X2131157D01*
X2120908Y1629981D02*
X2130954D01*
X2120588Y1630881D02*
X2130745D01*
X2120115Y1631781D02*
X2130529D01*
X2119451Y1632681D02*
X2130307D01*
X2118506Y1633581D02*
X2130078D01*
X2117016Y1634481D02*
X2129842D01*
X2111223Y1635381D02*
X2129600D01*
X2110942Y1636281D02*
X2129351D01*
X2110661Y1637181D02*
X2129095D01*
X2110380Y1638081D02*
X2128832D01*
X2110098Y1638981D02*
X2128563D01*
X2109817Y1639881D02*
X2128286D01*
X2109536Y1640781D02*
X2128003D01*
X2109254Y1641681D02*
X2127713D01*
X2109710Y1642581D02*
X2127416D01*
X2111897Y1643481D02*
X2127111D01*
X2114085Y1644381D02*
X2126800D01*
X2116272Y1645281D02*
X2126481D01*
X2118460Y1646181D02*
X2126156D01*
X2120647Y1647081D02*
X2125822D01*
X2122835Y1647981D02*
X2125482D01*
X2108510Y1652413D02*
X2123370D01*
X2110048Y1653313D02*
X2123311D01*
X2111586Y1654213D02*
X2122918D01*
X2113124Y1655113D02*
X2122517D01*
X2114654Y1656013D02*
X2122108D01*
X2114450Y1656913D02*
X2121691D01*
X2106972Y1651513D02*
X2121526D01*
X2114245Y1657813D02*
X2121266D01*
X2114041Y1658713D02*
X2120833D01*
X2113836Y1659613D02*
X2120392D01*
X2113632Y1660513D02*
X2119942D01*
X2105943Y1650613D02*
X2119599D01*
X2113427Y1661413D02*
X2119484D01*
X2113223Y1662313D02*
X2119017D01*
X2113018Y1663213D02*
X2118541D01*
X2112588Y1664113D02*
X2118057D01*
X2106264Y1649713D02*
X2117671D01*
X2111867Y1665013D02*
X2117564D01*
X2111145Y1665913D02*
X2117061D01*
X2110423Y1666813D02*
X2116550D01*
X2109701Y1667713D02*
X2116029D01*
X2106619Y1648813D02*
X2115744D01*
X2108980Y1668613D02*
X2115500D01*
X2108258Y1669513D02*
X2114960D01*
X2107536Y1670413D02*
X2114411D01*
X2106821Y1671313D02*
X2113852D01*
X2106973Y1647913D02*
X2113816D01*
X2105999Y1672213D02*
X2113284D01*
X2099865Y1673113D02*
X2112705D01*
X2090008Y1674013D02*
X2112116D01*
X2107328Y1647013D02*
X2111889D01*
X2089271Y1674913D02*
X2111516D01*
X2089637Y1675813D02*
X2110907D01*
X2090606Y1676713D02*
X2110286D01*
X2107682Y1646113D02*
X2109961D01*
X2091575Y1677613D02*
X2109654D01*
X2092545Y1678513D02*
X2109012D01*
X2093514Y1679413D02*
X2108358D01*
X2094483Y1680313D02*
X2107693D01*
X2095452Y1681213D02*
X2107016D01*
X2096421Y1682113D02*
X2106327D01*
X2097391Y1683013D02*
X2105625D01*
X2098360Y1683913D02*
X2104912D01*
X2099329Y1684813D02*
X2104186D01*
X2100298Y1685713D02*
X2103446D01*
X2101268Y1686613D02*
X2102694D01*
X2090750Y1673113D02*
X2098953D01*
X2091491Y1672213D02*
X2097324D01*
X2092233Y1671313D02*
X2095695D01*
X2092975Y1670413D02*
X2094066D01*
X2089005Y1690205D02*
X2099539D01*
X2088273Y1689305D02*
X2099160D01*
X2088799Y1691105D02*
X2098731D01*
X2087540Y1688405D02*
X2098257D01*
X2087647Y1692005D02*
X2097893D01*
X2086808Y1687505D02*
X2097355D01*
X2086495Y1692905D02*
X2097039D01*
X2086075Y1686605D02*
X2096452D01*
X2085342Y1693805D02*
X2096170D01*
X2086045Y1685705D02*
X2095550D01*
X2084190Y1694705D02*
X2095284D01*
X2086760Y1684805D02*
X2094648D01*
X2083038Y1695605D02*
X2094381D01*
X2087505Y1683905D02*
X2093745D01*
X2081886Y1696505D02*
X2093460D01*
X2088191Y1683005D02*
X2092843D01*
X2080734Y1697405D02*
X2092522D01*
X2088906Y1682105D02*
X2091940D01*
X2079582Y1698305D02*
X2091565D01*
X2088555Y1681205D02*
X2091038D01*
X2078430Y1699205D02*
X2090589D01*
X2087686Y1680305D02*
X2090136D01*
X2077278Y1700105D02*
X2089594D01*
X2086818Y1679405D02*
X2089233D01*
X2076125Y1701005D02*
X2088578D01*
X2086470Y1678505D02*
X2088331D01*
X2074973Y1701905D02*
X2087541D01*
X2073821Y1702805D02*
X2086482D01*
X2072669Y1703705D02*
X2085401D01*
X2062836Y1704605D02*
X2084296D01*
X2063410Y1705505D02*
X2083167D01*
X2063984Y1706405D02*
X2082012D01*
X2064558Y1707305D02*
X2080831D01*
X2065131Y1708205D02*
X2079622D01*
X2065705Y1709105D02*
X2078384D01*
X2066279Y1710005D02*
X2077116D01*
X2066853Y1710905D02*
X2075816D01*
X2067427Y1711805D02*
X2074483D01*
X2068000Y1712705D02*
X2073114D01*
X2068574Y1713605D02*
X2071707D01*
X2062263Y1703705D02*
X2070774D01*
X2069148Y1714505D02*
X2070261D01*
X2061689Y1702805D02*
X2069922D01*
X2061115Y1701905D02*
X2069071D01*
X2060541Y1701005D02*
X2068220D01*
X2059967Y1700105D02*
X2067369D01*
X2059394Y1699205D02*
X2066517D01*
X2059609Y1698305D02*
X2065666D01*
X2061140Y1697405D02*
X2064815D01*
X2062671Y1696505D02*
X2063964D01*
X2035911Y1716081D02*
X2066412D01*
X2034075Y1716981D02*
X2066056D01*
X2036580Y1715181D02*
X2065866D01*
X2037237Y1714281D02*
X2065320D01*
X2037895Y1713381D02*
X2064774D01*
X2030844Y1717881D02*
X2064436D01*
X2038325Y1712481D02*
X2064228D01*
X2049188Y1711581D02*
X2063682D01*
X2051126Y1710681D02*
X2063136D01*
X2025441Y1718781D02*
X2062762D01*
X2052217Y1709781D02*
X2062590D01*
X2052969Y1708881D02*
X2062044D01*
X2053506Y1707981D02*
X2061498D01*
X2025453Y1719681D02*
X2061028D01*
X2053878Y1707081D02*
X2060952D01*
X2054114Y1706181D02*
X2060406D01*
X2054228Y1705281D02*
X2059860D01*
X2054224Y1704381D02*
X2059314D01*
X2025655Y1720581D02*
X2059230D01*
X2054103Y1703481D02*
X2058768D01*
X2053887Y1702581D02*
X2058222D01*
X2055164Y1701681D02*
X2057676D01*
X2025858Y1721481D02*
X2057362D01*
X2026060Y1722381D02*
X2055416D01*
X2026263Y1723281D02*
X2053383D01*
X2026465Y1724181D02*
X2051255D01*
X2026668Y1725081D02*
X2049018D01*
X2026870Y1725981D02*
X2046656D01*
X2038460Y1711581D02*
X2045300D01*
X2027073Y1726881D02*
X2044150D01*
X2038594Y1710681D02*
X2043363D01*
X2038728Y1709781D02*
X2042271D01*
X2039413Y1708881D02*
X2041519D01*
X2027275Y1727781D02*
X2041473D01*
X2027478Y1728681D02*
X2038590D01*
X2027680Y1729581D02*
X2035451D01*
X2027883Y1730481D02*
X2031980D01*
X1936871Y1714116D02*
X1974090D01*
X1936349Y1715016D02*
X1973961D01*
X1935826Y1715916D02*
X1973831D01*
X1935304Y1716816D02*
X1973702D01*
X1935278Y1717716D02*
X1973573D01*
X1936928Y1718616D02*
X1973443D01*
X1938651Y1719516D02*
X1973314D01*
X1937394Y1713216D02*
X1973304D01*
X1940436Y1720416D02*
X1973185D01*
X1942292Y1721316D02*
X1973056D01*
X1944223Y1722216D02*
X1972926D01*
X1946239Y1723116D02*
X1972797D01*
X1948349Y1724016D02*
X1972668D01*
X1950565Y1724916D02*
X1972538D01*
X1952903Y1725816D02*
X1972409D01*
X1955381Y1726716D02*
X1972280D01*
X1958024Y1727616D02*
X1972151D01*
X1960866Y1728516D02*
X1972021D01*
X1963954Y1729416D02*
X1971892D01*
X1967357Y1730316D02*
X1971763D01*
X1937916Y1712316D02*
X1970205D01*
X1955197Y1711416D02*
X1967107D01*
X1956873Y1710516D02*
X1964008D01*
X1957887Y1709616D02*
X1960909D01*
X1938439Y1711416D02*
X1950314D01*
X1938962Y1710516D02*
X1948639D01*
X1939484Y1709616D02*
X1947625D01*
X1940007Y1708716D02*
X1946919D01*
X1940529Y1707816D02*
X1946415D01*
X1941052Y1706916D02*
X1946069D01*
X1943142Y1703316D02*
X1945932D01*
X1941575Y1706016D02*
X1945856D01*
X1942620Y1704216D02*
X1945790D01*
X1942097Y1705116D02*
X1945765D01*
X1943665Y1702416D02*
X1945684D01*
X2136220Y1600000D02*
G03X2136220I-136220J0D01*
G01X1940676Y1563249D02*
G03X1940676I-4331J0D01*
G01X2005118Y1629528D02*
G03X2005118I-5118J0D01*
G01X1890945Y1628088D02*
G03X1890945I-5118J0D01*
G01X2119291D02*
G03X2119291I-5118J0D01*
G01X2052362Y1704860D02*
G03X2052362I-5118J0D01*
G01X1957874D02*
G03X1957874I-5118J0D01*
G01X2004331Y1673502D02*
G03X2004331I-4331J0D01*
G01X2067985Y1563249D02*
G03X2067985I-4330J0D01*
G01X2078160Y1556579D02*
G03X2078160I-2952J0D01*
G01X1949652Y1569157D02*
G03X1949652I-3070J0D01*
G54D51*
G01X2009365Y1499629D02*
X2005320Y1502927D01*
X2000864Y1504142*
X2009365Y1499629D02*
X2038425Y1499681D01*
X2042375Y1499720*
X2048354Y1504713*
X2051089Y1506367*
X1960418Y1509074D02*
X1960869Y1510254D01*
X1968104*
X2000864Y1504142D02*
X1991878D01*
X1984064Y1506516*
X1978931Y1506514D02*
X1984062D01*
X1984064Y1506516*
X2057832Y1506272D02*
X2051089Y1506367D01*
X2057832Y1506272D02*
G03X2057867Y1506271I35J2490D01*
G01X2072361Y1517103*
X2083838Y1528938*
X2094729Y1545136*
X2102256Y1558922*
X2106300Y1571499*
X2109137Y1587756*
X2104833Y1591702*
X2104241Y1610991*
X2104049Y1615756*
X2098042Y1623557*
X2090843Y1625986*
X2088006Y1628605*
X2087299Y1629894*
X2092674Y1650649*
X2093466Y1653975*
X2090000Y1660023*
X2087864Y1664750*
X2085098Y1674580*
X2085495Y1676440*
X2089023Y1681133*
X2089969Y1684225*
X2092536Y1687733*
X1983275Y1495080D03*
X1878552Y1575819D03*
X1959648Y1518424D03*
Y1515718D03*
X1932156Y1573367D03*
X1951956Y1555873D03*
X1955578Y1559269D03*
Y1563770D03*
X1947566Y1554878D03*
Y1559927D03*
X1951856Y1563770D03*
X1942129Y1554878D03*
X1947566Y1547657D03*
X1933516Y1527458D03*
X1941463D03*
X1955502Y1533927D03*
X1947566Y1535227D03*
X1942542Y1534666D03*
X1926891Y1527353D03*
X1931223Y1519170D03*
X1935439Y1519108D03*
X1927547Y1521954D03*
X1972001Y1562077D03*
X1977153Y1565098D03*
X1981271Y1560029D03*
X1976629Y1555662D03*
X1971933Y1565098D03*
X2034206Y1508647D03*
X1967882Y1501671D03*
X1964651Y1516588D03*
X1966867Y1514580D03*
X1962492Y1518316D03*
X1966867Y1518689D03*
X1962423Y1514987D03*
X1993794Y1526670D03*
X1976391Y1543068D03*
X1965417Y1543776D03*
X2039088Y1561144D03*
X2032454Y1563370D03*
X2036916Y1551944D03*
X2039443Y1556345D03*
X2034271D03*
X2030002D03*
Y1551843D03*
Y1547794D03*
X2025777D03*
Y1551919D03*
Y1556320D03*
X2020948D03*
X2015918D03*
X2011391D03*
Y1551944D03*
Y1548171D03*
X2016044D03*
X2020952D03*
Y1551919D03*
X2037413Y1522901D03*
X2036704Y1528547D03*
X2010707Y1512311D03*
X2030338Y1519186D03*
X2023705Y1516086D03*
X2014402Y1516007D03*
X2015547Y1520611D03*
X1999458Y1530236D03*
X2009623D03*
Y1523449D03*
X2000767D03*
X1986456Y1530764D03*
X1983336Y1533919D03*
X1973417D03*
X1986456Y1523449D03*
X1964242Y1533927D03*
X1975029Y1559403D03*
X1961701Y1547066D03*
X1981271Y1555662D03*
X1982632Y1542210D03*
Y1547469D03*
X1981271Y1565098D03*
X1978112Y1561718D03*
X2031212Y1504099D03*
X1970849Y1555574D03*
X2034259Y1503335D03*
X2031327Y1510604D03*
X2031212Y1507265D03*
X2027585D03*
X2005996Y1515516D03*
X1976236Y1547764D03*
X2027470Y1504156D03*
X1968447Y1565098D03*
Y1559112D03*
Y1547066D03*
X1996341Y1519232D03*
Y1513006D03*
X1974204Y1510254D03*
X1985428Y1510259D03*
Y1516966D03*
X2048796Y1533029D03*
X2051920Y1536153D03*
X2061699Y1537511D03*
X2091852Y1553538D03*
X2082888Y1542400D03*
X2068898Y1524608D03*
X2098779Y1564132D03*
X2068355Y1538190D03*
X2077998Y1536017D03*
X2083473Y1514281D03*
X2087506Y1549056D03*
X2054149Y1502621D03*
X2056588Y1517128D03*
X2044379Y1561144D03*
Y1551944D03*
Y1556345D03*
X2060588Y1523047D03*
X2055131Y1550000D03*
X2067963D03*
Y1543429D03*
X2060028D03*
X2049304Y1539213D03*
Y1547582D03*
Y1554773D03*
Y1560972D03*
X2043572Y1522901D03*
Y1528547D03*
X2052845Y1523047D03*
X2049304Y1567014D03*
X2074602Y1530448D03*
X2054293Y1569958D03*
Y1558766D03*
X2073855Y1574922D03*
X2077336Y1548544D03*
X2082494Y1553702D03*
X2085998Y1561099D03*
X2070913Y1569418D03*
X2079283D03*
X2085998D03*
X2060888Y1554383D03*
X2093478Y1562723D03*
Y1569418D03*
X2066450Y1532077D03*
X2059729Y1532072D03*
X2052845Y1528593D03*
X1890562Y1616076D03*
X1957533Y1605500D03*
X1924379Y1635542D03*
Y1644034D03*
Y1652217D03*
X1958982Y1626029D03*
X1944772D03*
X1929339D03*
X1959135Y1617270D03*
X1946605D03*
X1934992D03*
X1925213D03*
X1909556Y1648414D03*
Y1639363D03*
X1896742Y1634711D03*
X1895941Y1621455D03*
X1900126Y1617270D03*
X1907425D03*
X1916021Y1651042D03*
Y1642964D03*
Y1634691D03*
Y1626029D03*
Y1617270D03*
Y1609484D03*
X1888384Y1599444D03*
X1888366Y1603176D03*
X1897911D03*
X1905226Y1603123D03*
X1910193D03*
X1949309D03*
X1942490D03*
X1935609D03*
X1927984D03*
X1921103D03*
X1911758Y1582383D03*
X1935749Y1577958D03*
X1929240D03*
X1923350Y1583178D03*
X1929240D03*
X1946163D03*
X1941514Y1578586D03*
X1946163D03*
X1941638Y1583178D03*
X2019568Y1591217D03*
X2013093D03*
X1965716Y1605500D03*
X1975758D03*
X1984995D03*
X1993116D03*
X2011412Y1622624D03*
X2016534Y1629218D03*
X2026169D03*
X2037654D03*
X2026110Y1594265D03*
X2034188D03*
X2007508Y1596989D03*
X2012444D03*
X2001292Y1605500D03*
X2009175D03*
X2018421D03*
X2030392D03*
X2016737Y1616061D03*
X2004863D03*
X1994741D03*
X1985884D03*
X2037108Y1617215D03*
X1972734Y1626029D03*
X2073855Y1582319D03*
Y1589229D03*
Y1595068D03*
X2074785Y1605249D03*
X2072313Y1652408D03*
Y1644038D03*
X2072272Y1636495D03*
X2093466Y1615512D03*
X2098555Y1610423D03*
X2088007Y1621188D03*
X2080723Y1628247D03*
X2079835Y1633917D03*
Y1640827D03*
Y1647737D03*
Y1653576D03*
X2054673Y1614707D03*
X2047094Y1625096D03*
X2049857Y1601217D03*
Y1594265D03*
X2042850Y1605500D03*
X2053458D03*
X2065149Y1605249D03*
Y1614707D03*
X2054673Y1625096D03*
X2046548Y1617215D03*
X1943296Y1685622D03*
X1933242Y1679298D03*
X1924379D03*
Y1670636D03*
Y1660400D03*
X1931756Y1667777D03*
X1937893Y1673914D03*
X1944099Y1680119D03*
X1939871Y1664925D03*
X1945016Y1670071D03*
X1950167Y1675221D03*
X1955065Y1680119D03*
X1916021Y1658147D03*
X1971865Y1699753D03*
X1962343Y1694189D03*
X1968354Y1697767D03*
X1966296Y1701607D03*
X1969837Y1704313D03*
X1963372Y1680119D03*
X1967152Y1683899D03*
X1972731Y1689479D03*
X1977629Y1694376D03*
X1985908Y1702655D03*
X1993402D03*
X2004789D03*
X2013845D03*
X2022947Y1693553D03*
X2028898Y1687602D03*
X2034407Y1682093D03*
X2045062D03*
X2050707Y1676448D03*
X2056935Y1670219D03*
X2062872Y1664282D03*
X2068468Y1659742D03*
X2079835Y1660588D03*
X2075752Y1664672D03*
X2070691Y1669732D03*
X2065647Y1674776D03*
X2060079Y1680364D03*
X2054240Y1686204D03*
G54D57*
X2011934Y1484008D02*
X2015058Y1484781D01*
X2009824Y1483487D02*
X2010982Y1483773D01*
X2011934Y1484008*
X2009824Y1483487D02*
X2009752Y1483469D01*
X2009824Y1481417*
X1878552Y1575819D02*
X1880844Y1580982D01*
X1901132Y1526812D02*
X1903658Y1529337D01*
X1903746*
X1908038Y1533630*
Y1536032*
X1893849Y1531134D02*
X1896227Y1534548D01*
Y1536032*
X2031212Y1504099D02*
Y1507265D01*
X2034259Y1503335D02*
X2034206Y1508647D01*
X2027585Y1507265D02*
X2031327Y1510604D01*
X2115001Y1546459D02*
X2115186Y1546644D01*
X2114679Y1547151*
X2113431*
X2107695Y1550200*
X1892589Y1649908D02*
X1895941Y1655714D01*
X1896271Y1655732*
X2110048Y1660287D02*
X2104071Y1656552D01*
X2103442Y1656159*
X2117337Y1589440D02*
X2113282Y1593495D01*
Y1598431*
Y1610242D02*
X2112061D01*
Y1615952*
X2103652Y1655822D02*
X2103442Y1656159D01*
X1933775Y1687257D02*
X1929955Y1693802D01*
X1928788Y1694499*
X2026641Y1712078D02*
X2034143Y1712114D01*
X2026641Y1700267D02*
X2035609D01*
X2079654Y1686197D02*
X2079343Y1686439D01*
X2079820Y1687157*
X2084696Y1682257D02*
X2082680Y1683833D01*
X2082497Y1684015*
X2082446*
X2079654Y1686197*
X2110130Y1660157D02*
X2110048Y1660287D01*
G54D60*
X1969292Y1472550D02*
X1972179Y1473061D01*
X1976066Y1474296*
X1969292Y1472550D02*
X1965741Y1472831D01*
X1961369Y1473944*
X1958241Y1474706*
X1955634Y1475789*
X1953348Y1476832*
X1951784Y1477835*
X1949177Y1478958*
X1946426Y1483872*
X2074006Y1495713D02*
X2078519Y1496018D01*
X2080765Y1496620*
X2084535Y1499147*
X2088465Y1502074*
X2093959Y1507097*
X2096325Y1510506*
X2096927Y1511188*
X2097381Y1511983*
Y1516861*
X2097986Y1517466*
X1878835Y1557236D02*
X1875168Y1559581D01*
X1901615Y1517886D02*
X1897628Y1518160D01*
X1895342Y1520245*
X1891887Y1524016*
X1889830Y1525725*
X1887399Y1529717*
X1885704Y1534995*
X1884955Y1542087*
X1883259Y1546285*
X2119599Y1555096D02*
X2119717Y1555460D01*
X2105258Y1526774D02*
X2109144Y1527756D01*
X2111265Y1529315*
X2113130Y1531588*
X2115061Y1533875*
X2116545Y1537124*
X2118236Y1540862*
X2119811Y1544136*
X2120629Y1546718*
Y1549050*
X2119599Y1555096*
X1940174Y1714190D02*
X1944990Y1716243D01*
X1947496Y1718299*
X1952188Y1720745*
X1956600Y1722109*
X1961092Y1723432*
X1963941Y1724554*
X1968407Y1725298*
X1906216Y1687524D02*
X1909533Y1690981D01*
X1910684Y1694322*
X1912319Y1697694*
X1915508Y1700593*
X1920883Y1704323*
X1924091Y1705366*
X1927011Y1705653*
X1929997Y1708195*
X2019340Y1727363D02*
X2019211Y1726697D01*
X2014163Y1727679*
X2007685Y1729946*
X2002168Y1730181*
X1980407Y1726954D02*
X1984866Y1727740D01*
X1989197Y1728739*
X1994107Y1729820*
X2002168Y1730181*
X1968776Y1724903D02*
X1968407Y1725298D01*
X2092536Y1687733D02*
X2090813Y1692090D01*
X2089208Y1694977*
X2086441Y1697464*
X2084155Y1699229*
X2080781Y1701537*
X2077091Y1704625*
X2074644Y1705949*
X2072745Y1706362*
X2069964Y1708032*
X1952758Y1492381D03*
X1992894Y1482686D03*
X2015058Y1484781D03*
X1975580Y1484881D03*
X2053543Y1489368D03*
X1886609Y1563292D03*
X1901132Y1526812D03*
X1893849Y1531134D03*
X1978679Y1520182D03*
X1978795Y1516451D03*
X1978705Y1524005D03*
X1978679Y1527702D03*
X2036261Y1534643D03*
X2050796Y1498055D03*
X2109041Y1535486D03*
X2115001Y1546459D03*
X2070188Y1505987D03*
X1892589Y1649908D03*
X2009752Y1577985D03*
X2117337Y1589440D03*
X2112061Y1615952D03*
X1915740Y1678536D03*
X1900162Y1663088D03*
X1933775Y1687257D03*
X2035609Y1700267D03*
X2034143Y1712114D03*
X2084696Y1682257D03*
X2110130Y1660157D03*
X2104049Y1669605D03*
X2066195Y1689123D03*
G54D61*
X1959544Y1493920D02*
X1959583Y1493929D01*
X1959702Y1493956*
X1959775Y1494268D02*
X1960296Y1494789D01*
X1961909*
X1959702Y1494195D02*
X1959775Y1494268D01*
X1959583Y1493956D02*
X1959702D01*
X1959531D02*
X1959544D01*
X1959583*
X1959544D02*
X1959583Y1494076D01*
X1956704Y1493276D02*
X1958618Y1493710D01*
X1958864Y1493956*
X1959531*
X1956005Y1493117D02*
X1956704Y1493276D01*
X1958613Y1491090D02*
X1959531Y1493917D01*
X1959702Y1493956D02*
X1959583Y1494076D01*
X1959544Y1493920D02*
X1959531Y1493917D01*
X1959544Y1493956*
X1959775Y1493859D02*
Y1493883D01*
X1959702Y1493956*
X1959583Y1494076D02*
X1959702Y1494195D01*
X1952758Y1492381D02*
X1956005Y1493117D01*
X1957636Y1488085D02*
X1958613Y1491090D01*
X1973555Y1492086D02*
X1984947D01*
X1987650Y1494789*
X2047530*
X2050796Y1498055*
X1973555Y1492086D02*
X1971916Y1493725D01*
X1970857*
X1969097Y1484435D02*
X1971475D01*
X1971921Y1484881*
X1975580*
X1962827Y1493871D02*
X1961909Y1494789D01*
X1977444Y1484881D02*
X1982783D01*
X1990053Y1492152*
X2049952*
X2057971Y1500170*
X2062738Y1503553*
X2065932Y1505987*
X2066285*
X2070188*
X2000779Y1486616D02*
X2001316Y1487192D01*
X2003491Y1489368*
X2053543*
X1997931Y1483562D02*
X2000779Y1486616D01*
X1970857Y1493725D02*
X1962973D01*
X1962827Y1493871*
X1975580Y1484881D02*
X1977444D01*
X1968869Y1484435D02*
X1969097D01*
X1997931Y1483562D02*
X1998020Y1481005D01*
X1996339Y1482686*
X1992894*
X1886609Y1563292D02*
Y1566132D01*
X1884028Y1568713*
X1882448*
X1978705Y1521101D02*
X1978679Y1521127D01*
X1978672Y1526319D02*
X1978671Y1526334D01*
X1978677Y1520510D02*
X1978674Y1521132D01*
X1978679Y1521127D02*
X1978677Y1521128D01*
X1978672Y1524025*
X1978677Y1521128D02*
X1978674Y1521132D01*
X1978672Y1521474*
X1978674Y1521132D02*
X1978672Y1521134D01*
Y1521474*
X1978705Y1521101D02*
X1978795Y1521011D01*
X1978932Y1520874*
X1978677Y1521128D02*
X1978679Y1520182D01*
X1978677Y1520510*
X1978672Y1526319D02*
X1978705Y1524005D01*
X1978672Y1524025*
X1978931Y1513994D02*
X1978932Y1520874D01*
X2077531Y1507910D02*
X2078059Y1508005D01*
X2077531Y1507487*
X2075389Y1505386*
X2074788Y1505987*
X2070188*
X2109041Y1535486D02*
X2107712Y1536814D01*
X2102150Y1539772*
X2077413Y1507889D02*
X2077531Y1507910D01*
X1919485Y1687202D02*
X1919881Y1687511D01*
X1915740Y1678536D02*
Y1684015D01*
X1916934Y1685208*
X1919485Y1687202*
X1919481Y1687228D02*
X1919485Y1687231D01*
X1919881Y1687511*
X2066195Y1689123D02*
Y1689142D01*
X2067439Y1690387*
X2070513Y1694429*
G54D64*
X1998768Y1551404D02*
X2009752Y1562388D01*
Y1577985*
X1998768Y1551404D02*
X1928197D01*
X1917217Y1562383*
X1905160*
X2036261Y1534643D02*
X2033281Y1537623D01*
X1965844*
X1961602Y1541864*
X1955440*
G54D71*
X1983275Y1495080D02*
X1985156Y1496961D01*
X2044034*
X2045479Y1498406*
X2045571*
X2049871Y1501590*
X2054149Y1502621*
X1892614Y1569705D02*
X1895160Y1572251D01*
Y1572383*
X1932156Y1573367D02*
Y1577958D01*
X1951956Y1555873D02*
X1955578Y1559269D01*
X1947566Y1559927D02*
X1951856Y1563770D01*
X1955502Y1533927D02*
X1964242D01*
X1947566Y1535227D02*
Y1541864D01*
X1926891Y1527353D02*
X1927547Y1521954D01*
X1926894Y1513537*
X1977091Y1501681D02*
X1973625Y1505147D01*
Y1508798*
X1974204Y1510254*
X1981271Y1560029D02*
Y1565098D01*
X1965417Y1547764D02*
X1976236D01*
X1967882Y1501671D02*
Y1506514D01*
X1968104*
X1967882Y1501671D02*
X1970891Y1501681D01*
X1965417Y1543776D02*
Y1547764D01*
X2039088Y1561144D02*
X2034681D01*
X2032454Y1563370*
X2034271Y1556345D02*
X2039443D01*
X2030002Y1551843D02*
Y1556345D01*
X2025777Y1547794D02*
X2030002D01*
X2025777Y1551919D02*
Y1556320D01*
X2015918D02*
X2020948D01*
X2011391Y1551944D02*
Y1556320D01*
Y1548171D02*
X2016044D01*
X2020952D02*
Y1551919D01*
X2037413Y1522901D02*
X2043572D01*
X2036704Y1528547D02*
X2043572D01*
X2010707Y1512311D02*
X2014402Y1516007D01*
X2023705Y1516086D02*
X2026804Y1519186D01*
X2026804D02*
X2030338D01*
X2014402Y1516007D02*
X2015547Y1520611D01*
X1999458Y1530236D02*
X2009623D01*
X2000767Y1523449D02*
X2009623D01*
X1973417Y1533919D02*
X1983336D01*
X1986456Y1523449D02*
Y1530764D01*
X1982632Y1542210D02*
Y1547469D01*
X1968447Y1559112D02*
Y1565098D01*
Y1547066D02*
X1965417Y1547764D01*
X1996341Y1513006D02*
Y1519232D01*
X1974204Y1510254D02*
X1978931D01*
X1985428Y1510259D02*
Y1516966D01*
X2000864Y1510342D02*
X2005996Y1515516D01*
X1991878Y1510342D02*
X1991876Y1519232D01*
X1996341*
X1968104Y1513994D02*
X1967320Y1514026D01*
X1966867Y1518689*
X1978931Y1510254D02*
X1985428Y1510259D01*
X2048796Y1533029D02*
X2051920Y1536153D01*
X2061699Y1537511D02*
X2068355Y1538190D01*
X2068898Y1524608D02*
X2074602Y1530448D01*
X2077998Y1536017D02*
X2082888Y1542400D01*
X2087506Y1549056D02*
X2091852Y1553538D01*
X2044379Y1551944D02*
Y1556345D01*
X2067963Y1543429D02*
Y1550000D01*
X2049304Y1539213D02*
X2053519Y1543429D01*
X2060028*
X2049304Y1547582D02*
Y1554773D01*
Y1560972D02*
Y1567014D01*
X2052845Y1523047D02*
Y1528593D01*
X2073855Y1574922D02*
Y1582319D01*
X2082494Y1553702D02*
X2085998Y1557206D01*
Y1561099*
X2079283Y1569418D02*
X2085998D01*
X2060888Y1554383D02*
X2054293D01*
Y1558766*
X2093478Y1562723D02*
Y1569418D01*
X2052845Y1528593D02*
X2056324Y1532072D01*
X2059729*
X1880844Y1580982D02*
X1881642D01*
X1932156Y1577958D02*
X1935749D01*
X1890562Y1616076D02*
X1895941Y1621455D01*
X1924379Y1635542D02*
Y1644034D01*
Y1652217D02*
Y1660400D01*
X1944772Y1626029D02*
X1958982D01*
X1946605Y1617270D02*
X1959135D01*
X1925213D02*
X1934992D01*
X1909556Y1639363D02*
Y1648414D01*
X1900126Y1617270D02*
X1907425D01*
X1916021Y1642964D02*
Y1651042D01*
X1929339Y1626029D02*
X1916021D01*
Y1634691*
Y1609484D02*
Y1617270D01*
X1888384Y1599444D02*
X1888366Y1603176D01*
X1897911*
X1905226Y1603123D02*
X1910193D01*
X1935609D02*
X1942490D01*
X1921103D02*
X1927984D01*
X1929240Y1577958D02*
X1932156D01*
X1923350Y1583178D02*
X1929240D01*
X1941514Y1578586D02*
X1946163D01*
X1941638Y1583178D02*
X1946163D01*
X1882448Y1580524D02*
X1881853Y1580771D01*
X1881642Y1580982*
X2013093Y1591217D02*
X2019568D01*
X1965716Y1605500D02*
X1975758D01*
X1984995D02*
X1993116D01*
X2016534Y1629218D02*
X2026169D01*
X2026110Y1594265D02*
X2034188D01*
X2001292Y1605500D02*
X2009175D01*
X2018421D02*
X2030392D01*
X2004863Y1616061D02*
X2016737D01*
X1985884D02*
X1994741D01*
X2037108Y1617215D02*
X2026360Y1618343D01*
X2073855Y1589229D02*
Y1595068D01*
X2072313Y1644038D02*
Y1652408D01*
X2098555Y1610423D02*
X2093466Y1615512D01*
X2088007Y1621188D02*
X2080723Y1628247D01*
X2072272Y1636495*
X2079835Y1633917D02*
Y1640827D01*
Y1647737D02*
Y1653576D01*
X2046548Y1617215D02*
X2054673Y1614707D01*
Y1625096*
X2047094D02*
X2037654Y1629218D01*
X2042850Y1605500D02*
X2053458D01*
X2074785Y1605249D02*
X2065149D01*
Y1614707*
X2043081Y1594265D02*
X2049857D01*
X1943296Y1685622D02*
X1951538Y1689090D01*
X1924379Y1670636D02*
Y1679298D01*
X1931756Y1667777D02*
X1937893Y1673914D01*
X1944099Y1680119D02*
X1955065D01*
X1945016Y1670071D02*
X1950167Y1675221D01*
X1955065Y1680119D02*
X1963372D01*
X1993225Y1716124D02*
X2000090D01*
X1971865Y1699753D02*
X1969837Y1704313D01*
X1962343Y1694189D02*
X1966296Y1701607D01*
X1968354Y1697767*
X1969837Y1704313D02*
X1980405D01*
X1967152Y1683899D02*
X1972731Y1689479D01*
X1977629Y1694376D02*
X1985908Y1702655D01*
X1993402*
X2004789D02*
X2013845D01*
X2028898Y1687602D02*
X2022947Y1693553D01*
X2034407Y1682093D02*
X2045062D01*
X2056935Y1670219D02*
X2050707Y1676448D01*
X2068468Y1659742D02*
X2062872Y1664282D01*
X2079835Y1660588D02*
X2075752Y1664672D01*
X2070691Y1669732D02*
X2065647Y1674776D01*
X2060079Y1680364*
X2054240Y1686204D02*
X2045069Y1688163D01*
X2009035Y1673477D02*
G03X2009035I-9127J0D01*
G01X2099016Y1582912D02*
G03X2099016I-4528J0D01*
G01X2047655Y1582454D02*
G03X2047655I-4574J0D01*
G01X1932693Y1537017D02*
G03X1932693I-7481J0D01*
G01X2067928Y1637370D02*
Y1652465D01*
G03X2067813Y1652744I-394J0*
G01X2045416Y1675141*
G03X2045137Y1675256I-279J-279*
G01X2027741Y1675252*
X2005808Y1697185*
G03X2005530Y1697301I-279J-278*
G01X1999786Y1697304*
G03X1999601Y1697258I-1J-394*
G01X1990136*
G03X1989857Y1697142I-0J-394*
G01X1967269Y1674554*
X1956719*
G03X1956440Y1674438I-0J-394*
G01X1932052Y1650050*
G03X1931936Y1649772I278J-278*
G01Y1637104*
G03X1932052Y1636825I394J-0*
G01X1933481Y1635396*
G03X1933759Y1635281I278J278*
G01X1992741*
G03X1993043Y1635422I-0J393*
G01X2007065D02*
G03X1993043I-7011J-5842D01*
G01X2007065D02*
G03X2007367Y1635281I302J252D01*
G01X2065839*
G03X2066117Y1635396I-0J393*
G01X2067813Y1637092*
G03X2067928Y1637370I-279J278*
G01X1939666Y1700373D02*
G03X1939770Y1700876I-241J312D01*
G01X1937703Y1704595*
G03X1937701Y1704599I-344J-191*
G01X1931597Y1715282*
G03X1931053Y1715424I-342J-196*
X1922264Y1709697I68947J-115424*
X1922239Y1709679I227J-321*
G01X1906075Y1696199*
G03X1906052Y1696178I252J-302*
X1898899Y1688629I93948J-96178*
X1898958Y1688055I296J-259*
G01X1908750Y1680664*
G03X1909308Y1680750I237J314*
G01X1913231Y1686283*
G03X1913257Y1686696I-321J227*
G01X1911535Y1689912*
X1912433Y1690629*
G03X1912502Y1690700I-246J308*
G01X1912791Y1690994D02*
G03X1912502Y1690700I969J-1241D01*
G01X1912791Y1690994D02*
X1917378Y1694578D01*
G03X1917382Y1694581I-242J311*
G01X1929354Y1704143*
X1934989Y1697243*
G03X1935535Y1697181I305J249*
G01X1939666Y1700373*
X2106125Y1586532D02*
G03X2106004Y1586890I-387J68D01*
G01X2102971Y1589670*
X2102078Y1591617D02*
G03X2102971Y1589670I2755J85D01*
G01X2102078Y1591617D02*
X2101487Y1610892D01*
G03Y1610896I-394J-12*
G01X2101336Y1614644*
G03X2101254Y1614868I-394J-16*
G01X2096441Y1621118*
G03X2096255Y1621251I-312J-240*
G01X2089962Y1623375*
X2088974Y1623961D02*
G03X2089962Y1623375I1869J2025D01*
G01X2088974Y1623961D02*
X2086136Y1626580D01*
X2085589Y1627280D02*
G03X2086136Y1626580I2417J1325D01*
G01X2085589Y1627280D02*
X2084882Y1628570D01*
X2084631Y1630585D02*
G03X2084882Y1628570I2668J-691D01*
G01X2084631Y1630585D02*
X2089999Y1651310D01*
G03X2090001Y1651317I-381J98*
G01X2090496Y1653400*
G03X2090455Y1653686I-383J91*
G01X2087609Y1658653*
X2087489Y1658888D02*
G03X2087609Y1658653I2511J1135D01*
G01X2087489Y1658888D02*
X2085353Y1663615D01*
X2085211Y1664003D02*
G03X2085353Y1663615I2653J747D01*
G01X2085211Y1664003D02*
X2082445Y1673833D01*
X2082403Y1675155D02*
G03X2082445Y1673833I2695J-575D01*
G01X2082403Y1675155D02*
X2082800Y1677016D01*
X2082829Y1677139D02*
G03X2082800Y1677016I2666J-699D01*
G01X2082829Y1677139D02*
G03X2082736Y1677508I-381J100D01*
X2080436Y1679893I-82736J-77485*
X2079876Y1679891I-279J-278*
G01X2077784Y1679755D02*
G03X2079876Y1679891I969J1241D01*
G01X2077784Y1679755D02*
X2073130Y1683391D01*
X2072859Y1685601D02*
G03X2073130Y1683391I1241J-969D01*
G01X2072859Y1685601D02*
X2073219Y1686061D01*
G03X2073162Y1686605I-311J243*
X2071642Y1687867I-73162J-86582*
X2071083Y1687804I-249J-305*
G01X2070687Y1687298*
X2068751Y1686854D02*
G03X2070687Y1687298I695J1413D01*
G01X2068751Y1686854D02*
G03X2068313Y1686792I-173J-353D01*
G01X2063457Y1690680D02*
G03X2068313Y1686792I2738J-1557D01*
G01X2063457Y1690680D02*
G03X2063450Y1691080I-343J194D01*
G01X2063552Y1692873D02*
G03X2063450Y1691080I1241J-970D01*
G01X2063552Y1692873D02*
X2063810Y1693203D01*
G03X2063721Y1693771I-310J243*
X2063562Y1693879I-63721J-93748*
X2063367Y1693946I-220J-326*
G01X2062450Y1694228D02*
G03X2063367Y1693946I1052J1788D01*
G01X2062450Y1694228D02*
X2057984Y1696853D01*
X2057193Y1697687D02*
G03X2057984Y1696853I1842J955D01*
G01X2057193Y1697687D02*
G03X2056576Y1697794I-349J-181D01*
G01X2053761Y1695180*
X2053534Y1695077D02*
G03X2053761Y1695180I-41J392D01*
G01X2053534Y1695077D02*
X2040666Y1693723D01*
X2040429Y1693773D02*
G03X2040666Y1693723I196J341D01*
G01X2040429Y1693773D02*
X2035205Y1696772D01*
X2035029Y1696983D02*
G03X2035205Y1696772I372J130D01*
G01X2035029Y1696983D02*
G03X2034763Y1697233I-371J-130D01*
G01X2034272Y1697415D02*
G03X2034763Y1697233I1337J2852D01*
G01X2034272Y1697415D02*
G03X2033714Y1697109I-167J-357D01*
G01X2032153Y1695739D02*
G03X2033714Y1697109I-0J1575D01*
G01X2032153Y1695739D02*
X2021129D01*
X2019555Y1697314D02*
G03X2021129Y1695739I1574J-0D01*
G01X2019555Y1697314D02*
Y1703219D01*
X2021129Y1704794D02*
G03X2019555Y1703219I0J-1575D01*
G01X2021129Y1704794D02*
X2032153D01*
X2033714Y1703424D02*
G03X2032153Y1704794I-1561J-205D01*
G01X2033714Y1703424D02*
G03X2034272Y1703118I391J51D01*
G01X2034586Y1703245D02*
G03X2034272Y1703118I1023J-2978D01*
G01X2034586Y1703245D02*
G03X2034852Y1703627I-128J373D01*
G01X2034756Y1707639*
G03X2034483Y1708005I-393J-9*
X2033773Y1708229I-34483J-107982*
X2033355Y1708107I-117J-376*
G01X2032153Y1707550D02*
G03X2033355Y1708107I-0J1575D01*
G01X2032153Y1707550D02*
X2021129D01*
X2019555Y1709125D02*
G03X2021129Y1707550I1574J-0D01*
G01X2019555Y1709125D02*
Y1711346D01*
G03X2019228Y1711734I-394J0*
X1964002Y1707509I-19228J-111711*
X1963736Y1707092I125J-373*
G01X1964454Y1700625*
X1964395Y1700369D02*
G03X1964454Y1700625I-332J212D01*
G01X1964395Y1700369D02*
X1961176Y1695335D01*
X1960959Y1695171D02*
G03X1961176Y1695335I-115J376D01*
G01X1960959Y1695171D02*
X1956090Y1693685D01*
X1955942Y1693669D02*
G03X1956090Y1693685I33J393D01*
G01X1955942Y1693669D02*
X1946204Y1694495D01*
X1945918Y1694655D02*
G03X1946204Y1694495I319J232D01*
G01X1945918Y1694655D02*
X1943549Y1697913D01*
G03X1943033Y1698022I-318J-231*
X1935857Y1693483I56967J-97999*
X1935766Y1692922I223J-324*
G01X1935478Y1690733D02*
G03X1935766Y1692922I-970J1241D01*
G01X1935478Y1690733D02*
X1935332Y1690620D01*
G03X1935375Y1689970I243J-311*
G01X1930713Y1686520D02*
G03X1935375Y1689970I3062J737D01*
G01X1930713Y1686520D02*
G03X1930235Y1686810I-383J-92D01*
G01X1928614Y1687369D02*
G03X1930235Y1686810I1241J969D01*
G01X1928614Y1687369D02*
X1928525Y1687482D01*
G03X1927964Y1687544I-311J-242*
X1926449Y1686275I72036J-87521*
X1926394Y1685733I256J-300*
G01X1926442Y1685672*
X1926170Y1683461D02*
G03X1926442Y1685672I-969J1241D01*
G01X1926170Y1683461D02*
X1921517Y1679826D01*
X1919775Y1679694D02*
G03X1921517Y1679826I772J1373D01*
G01X1919775Y1679694D02*
G03X1919302Y1679628I-193J-343D01*
X1918970Y1679290I80698J-79605*
X1918861Y1678961I281J-276*
G01X1915537Y1675393D02*
G03X1918861Y1678961I203J3143D01*
G01X1915537Y1675393D02*
G03X1915217Y1675262I-26J-393D01*
X1909076Y1667713I84783J-75239*
X1909195Y1667137I316J-235*
G01X1909214Y1667126*
X1909790Y1664974D02*
G03X1909214Y1667126I-1363J788D01*
G01X1909790Y1664974D02*
X1906838Y1659860D01*
X1904686Y1659284D02*
G03X1906838Y1659860I788J1363D01*
G01X1904686Y1659284D02*
X1904047Y1659653D01*
G03X1903515Y1659519I-197J-341*
X1902493Y1657828I96485J-59496*
X1902634Y1657286I338J-201*
G01X1903309Y1656897*
X1903885Y1654746D02*
G03X1903309Y1656897I-1364J787D01*
G01X1903885Y1654746D02*
X1900932Y1649631D01*
X1898781Y1649055D02*
G03X1900932Y1649631I787J1364D01*
G01X1898781Y1649055D02*
X1898380Y1649286D01*
G03X1897829Y1649116I-196J-341*
X1893033Y1637534I102171J-49093*
X1893055Y1637221I371J-131*
G01X1896079Y1631448*
X1896123Y1631241D02*
G03X1896079Y1631448I-393J24D01*
G01X1896123Y1631241D02*
X1895697Y1624412D01*
X1895644Y1624238D02*
G03X1895697Y1624412I-340J199D01*
G01X1895644Y1624238D02*
X1892898Y1619542D01*
X1892704Y1619376D02*
G03X1892898Y1619542I-146J365D01*
G01X1892704Y1619376D02*
X1888209Y1617578D01*
G03X1887966Y1617272I146J-366*
X1887594Y1585394I112034J-17249*
X1887980Y1585051I391J51*
G01X1889535Y1583477D02*
G03X1887980Y1585051I-1575J-0D01*
G01X1889535Y1583477D02*
Y1577571D01*
X1889223Y1576630D02*
G03X1889535Y1577571I-1263J941D01*
G01X1889223Y1576630D02*
G03X1889154Y1576313I316J-235D01*
X1889420Y1575099I110846J23710*
X1890198Y1575174I384J86*
G01X1892272Y1577189D02*
G03X1890198Y1575174I-0J-2075D01*
G01X1892272Y1577189D02*
X1908955D01*
X1911030Y1575114D02*
G03X1908955Y1577189I-2075J0D01*
G01X1911030Y1575114D02*
Y1569705D01*
X1908955Y1567630D02*
G03X1911030Y1569705I0J2075D01*
G01X1908955Y1567630D02*
X1906786D01*
G03X1906661Y1566863I-0J-394*
G01X1909252Y1564745D02*
G03X1906661Y1566863I-4092J-2362D01*
G01X1909252Y1564745D02*
G03X1909593Y1564549I341J197D01*
G01X1917217*
X1918748Y1563914D02*
G03X1917217Y1564549I-1531J-1531D01*
G01X1918748Y1563914D02*
X1928978Y1553684D01*
G03X1929257Y1553569I279J279*
G01X1997708*
G03X1997986Y1553684I-0J394*
G01X2007472Y1563170*
G03X2007587Y1563448I-279J278*
G01Y1575534*
G03X2007478Y1575806I-394J-0*
G01X2012027D02*
G03X2007478I-2275J2179D01*
G01X2012027D02*
G03X2011918Y1575534I284J-272D01*
G01Y1562388*
X2011283Y1560857D02*
G03X2011918Y1562388I-1531J1531D01*
G01X2011283Y1560857D02*
X2000299Y1549873D01*
X1998768Y1549238D02*
G03X2000299Y1549873I-0J2166D01*
G01X1998768Y1549238D02*
X1928197D01*
X1926666Y1549873D02*
G03X1928197Y1549238I1531J1531D01*
G01X1926666Y1549873D02*
X1916436Y1560103D01*
G03X1916157Y1560218I-279J-279*
G01X1909593*
G03X1909252Y1560021I-0J-394*
G01X1906170Y1557768D02*
G03X1909252Y1560021I-1010J4615D01*
G01X1906170Y1557768D02*
G03Y1556999I84J-385D01*
G01X1900545Y1551374D02*
G03X1906170Y1556999I4615J1009D01*
G01X1900545Y1551374D02*
G03X1899776I-385J-84D01*
G01X1898832Y1549410D02*
G03X1899776Y1551374I-3672J2973D01*
G01X1898832Y1549410D02*
G03X1898786Y1548985I306J-248D01*
X1902810Y1541687I101214J51038*
X1903535Y1541821I337J203*
G01X1905085Y1543119D02*
G03X1903535Y1541821I0J-1575D01*
G01X1905085Y1543119D02*
X1910991D01*
X1912566Y1541544D02*
G03X1910991Y1543119I-1575J0D01*
G01X1912566Y1541544D02*
Y1530521D01*
X1911952Y1529273D02*
G03X1912566Y1530521I-961J1248D01*
G01X1911952Y1529273D02*
G03X1911886Y1528714I240J-312D01*
X1931733Y1509532I88114J71309*
X1931966Y1509452I237J314*
G01X1942951Y1509330*
G03X1943194Y1509411I4J394*
G01X1946059Y1511600*
G03X1946214Y1511913I-239J313*
G01Y1512566*
X1947789Y1514141D02*
G03X1946214Y1512566I-0J-1575D01*
G01X1947789Y1514141D02*
X1954482D01*
X1956016Y1512922D02*
G03X1954482Y1514141I-1534J-356D01*
G01X1956016Y1512922D02*
G03X1956399Y1512617I383J89D01*
G01X1956442*
G03X1956806Y1513161I0J394*
G01X1956648Y1513955D02*
G03X1956806Y1513161I2075J-0D01*
G01X1956648Y1513955D02*
Y1519391D01*
X1958723Y1521466D02*
G03X1956648Y1519391I-0J-2075D01*
G01X1958723Y1521466D02*
X1970393D01*
X1972468Y1519391D02*
G03X1970393Y1521466I-2075J-0D01*
G01X1972468Y1519391D02*
Y1515765D01*
G03X1972501Y1515608I394J-0*
G01X1972632Y1514978D02*
G03X1972501Y1515608I-1575J0D01*
G01X1972632Y1514978D02*
Y1513010D01*
X1972464Y1512301D02*
G03X1972632Y1513010I-1407J709D01*
G01X1972464Y1512301D02*
G03Y1511947I351J-177D01*
G01X1972632Y1511238D02*
G03X1972464Y1511947I-1575J0D01*
G01X1972632Y1511238D02*
Y1509270D01*
X1972464Y1508561D02*
G03X1972632Y1509270I-1407J709D01*
G01X1972464Y1508561D02*
G03Y1508207I351J-177D01*
G01X1972632Y1507498D02*
G03X1972464Y1508207I-1575J-0D01*
G01X1972632Y1507498D02*
Y1505529D01*
X1972601Y1505218D02*
G03X1972632Y1505529I-1544J311D01*
G01X1972601Y1505218D02*
G03X1972948Y1504748I386J-78D01*
G01X1974366Y1503181D02*
G03X1972948Y1504748I-1575J0D01*
G01X1974366Y1503181D02*
Y1500181D01*
X1972791Y1498606D02*
G03X1974366Y1500181I0J1575D01*
G01X1972791Y1498606D02*
X1968991D01*
X1968144Y1498854D02*
G03X1968991Y1498606I847J1327D01*
G01X1968144Y1498854D02*
G03X1967926Y1498915I-212J-332D01*
G01X1965678Y1503325D02*
G03X1967926Y1498915I2204J-1654D01*
G01X1965678Y1503325D02*
G03X1965363Y1503955I-315J236D01*
G01X1965152*
X1963577Y1505529D02*
G03X1965152Y1503955I1575J0D01*
G01X1963577Y1505529D02*
Y1506271D01*
G03X1962907Y1506551I-394J0*
G01X1960418Y1505531D02*
G03X1962907Y1506551I0J3543D01*
G01X1960418Y1505531D02*
X1956450D01*
G03X1956057Y1505137I0J-394*
G01Y1504692*
X1955333Y1503367D02*
G03X1956057Y1504692I-851J1325D01*
G01X1955333Y1503367D02*
G03X1955152Y1503053I212J-331D01*
G01X1954976Y1499126*
X1954800Y1498378D02*
G03X1954976Y1499126I-1897J840D01*
G01X1954800Y1498378D02*
G03X1955295Y1497849I360J-159D01*
G01X1956005Y1497974D02*
G03X1955295Y1497849I0J-2075D01*
G01X1956005Y1497974D02*
X1962827D01*
X1964843Y1496388D02*
G03X1962827Y1497974I-2016J-489D01*
G01X1964843Y1496388D02*
G03X1965226Y1496087I383J93D01*
G01X1970857*
X1971916*
X1973586Y1495395D02*
G03X1971916Y1496087I-1670J-1670D01*
G01X1973586Y1495395D02*
X1974418Y1494563D01*
G03X1974697Y1494448I279J279*
G01X1980135*
G03X1980527Y1494872I-0J394*
G01X1983103Y1497831D02*
G03X1980527Y1494872I172J-2751D01*
G01X1983103Y1497831D02*
G03X1983357Y1497945I-25J393D01*
G01X1983764Y1498353*
X1985156Y1498930D02*
G03X1983764Y1498353I0J-1969D01*
G01X1985156Y1498930D02*
X2004756D01*
G03X2005004Y1499628I-0J393*
G01X2004096Y1500369*
G03X2003951Y1500443I-248J-305*
G01X2002956Y1500715*
G03X2002755Y1500716I-103J-380*
G01X2002364Y1500667D02*
G03X2002755Y1500716I0J1575D01*
G01X2002364Y1500667D02*
X1999364D01*
X1998148Y1501242D02*
G03X1999364Y1500667I1216J1000D01*
G01X1998148Y1501242D02*
G03X1997843Y1501386I-305J-250D01*
G01X1994899*
G03X1994595Y1501242I0J-394*
G01X1993378Y1500667D02*
G03X1994595Y1501242I0J1575D01*
G01X1993378Y1500667D02*
X1990378D01*
X1988828Y1501964D02*
G03X1990378Y1500667I1550J278D01*
G01X1988828Y1501964D02*
G03X1988555Y1502271I-388J-69D01*
G01X1983720Y1503741*
G03X1983605Y1503758I-115J-377*
G01X1978931*
X1977972Y1503930D02*
G03X1978931Y1503758I959J2584D01*
G01X1977972Y1503930D02*
G03X1977835Y1503955I-137J-369D01*
G01X1975979*
X1974404Y1505529D02*
G03X1975979Y1503955I1575J0D01*
G01X1974404Y1505529D02*
Y1507498D01*
X1975979Y1509073D02*
G03X1974404Y1507498I-0J-1575D01*
G01X1975979Y1509073D02*
X1977835D01*
G03X1977972Y1509097I0J393*
G01X1978931Y1509270D02*
G03X1977972Y1509097I0J-2756D01*
G01X1978931Y1509270D02*
X1983935D01*
G03X1983951I-0J393*
G01X1984866Y1509153D02*
G03X1983951Y1509270I-802J-2637D01*
G01X1984866Y1509153D02*
X1989949Y1507608D01*
G03X1990127Y1507596I115J377*
G01X1990378Y1507617D02*
G03X1990127Y1507596I0J-1575D01*
G01X1990378Y1507617D02*
X1993378D01*
X1994595Y1507042D02*
G03X1993378Y1507617I-1217J-1000D01*
G01X1994595Y1507042D02*
G03X1994899Y1506898I304J249D01*
G01X1997843*
G03X1998148Y1507042I0J393*
G01X1999364Y1507617D02*
G03X1998148Y1507042I0J-1575D01*
G01X1999364Y1507617D02*
X2002364D01*
X2003901Y1506387D02*
G03X2002364Y1507617I-1537J-345D01*
G01X2003901Y1506387D02*
G03X2004181Y1506094I384J87D01*
G01X2006045Y1505585*
X2007062Y1505063D02*
G03X2006045Y1505585I-1742J-2136D01*
G01X2007062Y1505063D02*
X2010235Y1502476D01*
G03X2010484Y1502387I248J305*
G01X2038407Y1502437*
G03X2038410I-1J394*
G01X2041224Y1502465*
G03X2041472Y1502556I-4J393*
G01X2046588Y1506828*
X2046928Y1507071D02*
G03X2046588Y1506828I1426J-2358D01*
G01X2046928Y1507071D02*
X2049663Y1508725D01*
X2051128Y1509123D02*
G03X2049663Y1508725I-39J-2756D01*
G01X2051128Y1509123D02*
X2056834Y1509042D01*
G03X2057075Y1509120I6J394*
G01X2070510Y1519160*
G03X2070557Y1519201I-236J315*
G01X2081663Y1530655*
G03X2081708Y1530709I-282J274*
G01X2092360Y1546553*
G03X2092379Y1546584I-326J220*
G01X2099694Y1559981*
G03X2099723Y1560049I-346J189*
G01X2103609Y1572135*
G03X2103622Y1572188I-374J120*
G01X2103622D02*
X2106125Y1586532D01*
X2104802Y1642961D02*
G03X2104793Y1643237I-373J126D01*
X2102199Y1649059I-104793J-43214*
X2101635Y1649223I-355J-170*
G01X2101377Y1649062*
X2099207Y1649563D02*
G03X2101377Y1649062I1336J834D01*
G01X2099207Y1649563D02*
X2096839Y1653352D01*
G03X2096122Y1653235I-334J-208*
G01X2095355Y1650011*
X2095342Y1649958D02*
G03X2095355Y1650011I-2668J691D01*
G01X2095342Y1649958D02*
X2090306Y1630514D01*
G03X2090421Y1630126I382J-98*
G01X2092219Y1628466*
G03X2092360Y1628383I267J290*
G01X2098731Y1626233*
G03X2099230Y1626480I126J373*
G01X2104802Y1642961*
X2009035Y1673477D02*
G03X2009035I-9127J0D01*
G01X2099016Y1582912D02*
G03X2099016I-4528J0D01*
G01X2069137Y1557202D02*
G03X2071633Y1561525I6071J-623D01*
G01X2069137Y1557202D02*
G03X2068491Y1557542I-392J40D01*
G01X2071015Y1561914D02*
G03X2068491Y1557542I-7360J1335D01*
G01X2071015Y1561914D02*
G03X2071633Y1561525I387J-70D01*
G01X1980900Y1511435D02*
G03X1983185Y1515145I-0J2559D01*
G01X1980900Y1511435D02*
X1976963D01*
X1975653Y1511796D02*
G03X1976963Y1511435I1310J2198D01*
G01X1975653Y1511796D02*
G03X1975564Y1511835I-202J-338D01*
G01X1974083Y1513823D02*
G03X1975564Y1511835I2075J-0D01*
G01X1974083Y1513823D02*
Y1522606D01*
G03X1973690Y1522999I-393J-0*
G01X1956411*
G03X1956025Y1522684I-0J-393*
G01X1954482Y1521425D02*
G03X1956025Y1522684I-0J1574D01*
G01X1954482Y1521425D02*
X1947789D01*
X1946214Y1522999D02*
G03X1947789Y1521425I1575J0D01*
G01X1946214Y1522999D02*
Y1530873D01*
X1947789Y1532448D02*
G03X1946214Y1530873I-0J-1575D01*
G01X1947789Y1532448D02*
X1954482D01*
X1956025Y1531188D02*
G03X1954482Y1532448I-1543J-315D01*
G01X1956025Y1531188D02*
G03X1956411Y1530873I386J79D01*
G01X1975084*
G03X1975255Y1530913I-0J394*
G01X1976158Y1531120D02*
G03X1975255Y1530913I0J-2075D01*
G01X1976158Y1531120D02*
X1981068D01*
X1983143Y1529045D02*
G03X1981068Y1531120I-2075J-0D01*
G01X1983143Y1529045D02*
Y1515322D01*
G03X1983185Y1515145I394J0*
G01X2033112Y1534575D02*
G03X2036329Y1537792I3149J68D01*
G01X2033112Y1534575D02*
G03X2032997Y1534845I-394J-8D01*
G01X2032500Y1535342*
G03X2032221Y1535457I-279J-278*
G01X1965844*
X1964312Y1536092D02*
G03X1965844Y1535457I1532J1531D01*
G01X1964312Y1536092D02*
X1960821Y1539583D01*
G03X1960542Y1539699I-279J-278*
G01X1959761*
G03X1959369Y1539344I-0J-394*
G01X1957802Y1537927D02*
G03X1959369Y1539344I-0J1575D01*
G01X1957802Y1537927D02*
X1953077D01*
X1951503Y1539502D02*
G03X1953077Y1537927I1574J-0D01*
G01X1951503Y1539502D02*
Y1544226D01*
X1953077Y1545801D02*
G03X1951503Y1544226I0J-1575D01*
G01X1953077Y1545801D02*
X1957802D01*
X1959369Y1544384D02*
G03X1957802Y1545801I-1567J-158D01*
G01X1959369Y1544384D02*
G03X1959761Y1544030I392J39D01*
G01X1961602*
X1963133Y1543395D02*
G03X1961602Y1544030I-1531J-1531D01*
G01X1963133Y1543395D02*
X1966625Y1539903D01*
G03X1966904Y1539788I279J279*
G01X2033281*
X2034812Y1539154D02*
G03X2033281Y1539788I-1531J-1531D01*
G01X2034812Y1539154D02*
X2036059Y1537907D01*
G03X2036329Y1537792I278J279*
G01X2047655Y1582454D02*
G03X2047655I-4574J0D01*
G01X1932693Y1537017D02*
G03X1932693I-7481J0D01*
G01X2099060Y1601798D02*
G03X2099051Y1604215I-4572J1193D01*
G01X2099060Y1601798D02*
G03X2099047Y1601699I381J-99D01*
G01Y1601697*
X2099047D02*
X2099050Y1600672D01*
X2098396Y1599069D02*
G03X2099050Y1600672I-1617J1595D01*
G01X2098396Y1599069D02*
X2094939Y1595564D01*
X2093329Y1594888D02*
G03X2094939Y1595564I-8J2271D01*
G01X2093329Y1594888D02*
X2087876Y1594869D01*
X2086262Y1595534D02*
G03X2087876Y1594869I1607J1607D01*
G01X2086262Y1595534D02*
X2050669Y1631128D01*
X2050003Y1632723D02*
G03X2050669Y1631128I2272J11D01*
G01X2050003Y1632723D02*
G03X2049610Y1633115I-393J-1D01*
G01X2009041*
G03X2008669Y1632592I-0J-393*
G01X1991439D02*
G03X2008669I8615J-3012D01*
G01X1991439D02*
G03X1991068Y1633115I-371J130D01*
G01X1933596*
X1932065Y1633749D02*
G03X1933596Y1633115I1531J1532D01*
G01X1932065Y1633749D02*
X1930405Y1635409D01*
X1929771Y1636941D02*
G03X1930405Y1635409I2165J-0D01*
G01X1929771Y1636941D02*
Y1649935D01*
X1930405Y1651466D02*
G03X1929771Y1649935I1531J-1531D01*
G01X1930405Y1651466D02*
X1955024Y1676085D01*
X1956556Y1676719D02*
G03X1955024Y1676085I-0J-2165D01*
G01X1956556Y1676719D02*
X1966209D01*
G03X1966487Y1676834I-0J394*
G01X1988441Y1698789*
X1989973Y1699423D02*
G03X1988441Y1698789I-0J-2165D01*
G01X1989973Y1699423D02*
X1999116D01*
G03X1999191Y1699430I0J394*
G01X1999602Y1699469D02*
G03X1999191Y1699430I-1J-2165D01*
G01X1999602Y1699469D02*
X2005694Y1699466D01*
X2007224Y1698832D02*
G03X2005694Y1699466I-1531J-1531D01*
G01X2007224Y1698832D02*
X2028522Y1677533D01*
G03X2028801Y1677418I278J279*
G01X2045300Y1677422*
X2046832Y1676787D02*
G03X2045300Y1677422I-1532J-1531D01*
G01X2046832Y1676787D02*
X2069459Y1654160D01*
X2070094Y1652628D02*
G03X2069459Y1654160I-2166J0D01*
G01X2070094Y1652628D02*
Y1637207D01*
X2070085Y1637010D02*
G03X2070094Y1637207I-2157J197D01*
G01X2070085Y1637010D02*
G03X2070198Y1636696I392J-36D01*
G01X2098364Y1608530*
X2099029Y1606932D02*
G03X2098364Y1608530I-2272J-8D01*
G01X2099029Y1606932D02*
X2099038Y1604316D01*
G03X2099051Y1604215I394J1*
G01X1910274Y1595937D02*
Y1589876D01*
X1908200Y1587801D02*
G03X1910274Y1589876I-0J2075D01*
G01X1908200Y1587801D02*
X1906360D01*
X1906360D02*
G03X1906268Y1587791I0J-393D01*
G01X1904053D02*
G03X1906268I1107J4592D01*
G01X1904053D02*
G03X1903960Y1587801I-93J-383D01*
G01X1903960D02*
X1899046D01*
X1899046D02*
G03X1898899Y1587773I-0J-393D01*
G01X1898310Y1587659D02*
G03X1898899Y1587773I-0J1575D01*
G01X1898310Y1587659D02*
X1892011D01*
X1890436Y1589234D02*
G03X1892011Y1587659I1575J-0D01*
G01X1890436Y1589234D02*
Y1595533D01*
X1891073Y1596798D02*
G03X1890436Y1595533I938J-1265D01*
G01X1891073Y1596798D02*
G03X1891185Y1596927I-234J316D01*
G01X1893008Y1598012D02*
G03X1891185Y1596927I0J-2075D01*
G01X1893008Y1598012D02*
X1908200D01*
X1910274Y1595937D02*
G03X1908200Y1598012I-2074J-0D01*
G01X1944356Y1563348D02*
G03X1940439Y1570135I2226J5809D01*
G01X1944356Y1563348D02*
G03X1943821Y1562994I-141J-367D01*
G01X1939865Y1569850D02*
G03X1943821Y1562994I-3520J-6601D01*
G01X1939865Y1569850D02*
G03X1940439Y1570135I185J347D01*
G01X1939420Y1593886D02*
Y1589162D01*
X1937846Y1587587D02*
G03X1939420Y1589162I-0J1575D01*
G01X1937846Y1587587D02*
X1933121D01*
X1931546Y1589162D02*
G03X1933121Y1587587I1575J0D01*
G01X1931546Y1589162D02*
Y1593886D01*
X1933121Y1595461D02*
G03X1931546Y1593886I0J-1575D01*
G01X1933121Y1595461D02*
X1937846D01*
X1939420Y1593886D02*
G03X1937846Y1595461I-1574J0D01*
G01X1934289Y1652287D02*
X2067928D01*
X1933580Y1651579D02*
X2067928D01*
X1932872Y1650870D02*
X2067928D01*
X1932163Y1650161D02*
X2067928D01*
X1931936Y1649453D02*
X2067928D01*
X1931936Y1648744D02*
X2067928D01*
X1931936Y1648035D02*
X2067928D01*
X1931936Y1647327D02*
X2067928D01*
X1931936Y1646618D02*
X2067928D01*
X1931936Y1645909D02*
X2067928D01*
X1931936Y1645201D02*
X2067928D01*
X1931936Y1644492D02*
X2067928D01*
X1931936Y1643783D02*
X2067928D01*
X1931936Y1643075D02*
X2067928D01*
X1931936Y1642366D02*
X2067928D01*
X1931936Y1641657D02*
X2067928D01*
X1931936Y1640949D02*
X2067928D01*
X1931936Y1640240D02*
X2067928D01*
X1931936Y1639531D02*
X2067928D01*
X1931936Y1638823D02*
X2067928D01*
X2003287Y1638114D02*
X2067928D01*
X2004750Y1637405D02*
X2067928D01*
X1934998Y1652996D02*
X2067561D01*
X2005767Y1636697D02*
X2067418D01*
X1935706Y1653705D02*
X2066852D01*
X2006552Y1635988D02*
X2066709D01*
X1936415Y1654413D02*
X2066143D01*
X1937124Y1655122D02*
X2065435D01*
X1937832Y1655830D02*
X2064726D01*
X1938541Y1656539D02*
X2064017D01*
X1939250Y1657248D02*
X2063309D01*
X1939958Y1657956D02*
X2062600D01*
X1940667Y1658665D02*
X2061891D01*
X1941376Y1659374D02*
X2061183D01*
X1942084Y1660082D02*
X2060474D01*
X1942793Y1660791D02*
X2059765D01*
X1943502Y1661500D02*
X2059057D01*
X1944210Y1662208D02*
X2058348D01*
X1944919Y1662917D02*
X2057639D01*
X1945628Y1663626D02*
X2056931D01*
X1946336Y1664334D02*
X2056222D01*
X2003396Y1665043D02*
X2055513D01*
X2004768Y1665752D02*
X2054805D01*
X2005745Y1666460D02*
X2054096D01*
X2006504Y1667169D02*
X2053387D01*
X2007115Y1667878D02*
X2052679D01*
X2007614Y1668586D02*
X2051970D01*
X2008020Y1669295D02*
X2051261D01*
X2008348Y1670004D02*
X2050553D01*
X2008606Y1670712D02*
X2049844D01*
X2008800Y1671421D02*
X2049135D01*
X2008935Y1672130D02*
X2048427D01*
X2009012Y1672838D02*
X2047718D01*
X2009034Y1673547D02*
X2047010D01*
X2009001Y1674256D02*
X2046301D01*
X2008913Y1674964D02*
X2045592D01*
X2008766Y1675673D02*
X2027320D01*
X2008560Y1676382D02*
X2026611D01*
X2008289Y1677090D02*
X2025903D01*
X2007946Y1677799D02*
X2025194D01*
X2007523Y1678508D02*
X2024485D01*
X2007004Y1679216D02*
X2023777D01*
X2006366Y1679925D02*
X2023068D01*
X2005571Y1680634D02*
X2022359D01*
X2004536Y1681342D02*
X2021651D01*
X2003034Y1682051D02*
X2020942D01*
X1975474Y1682760D02*
X2020234D01*
X1976183Y1683468D02*
X2019525D01*
X1976892Y1684177D02*
X2018816D01*
X1977600Y1684886D02*
X2018108D01*
X1978309Y1685594D02*
X2017399D01*
X1979018Y1686303D02*
X2016690D01*
X1979726Y1687012D02*
X2015982D01*
X1980435Y1687720D02*
X2015273D01*
X1981144Y1688429D02*
X2014564D01*
X1981852Y1689138D02*
X2013856D01*
X1982561Y1689846D02*
X2013147D01*
X1983270Y1690555D02*
X2012438D01*
X1983978Y1691264D02*
X2011730D01*
X1984687Y1691972D02*
X2011021D01*
X1985396Y1692681D02*
X2010312D01*
X1986104Y1693390D02*
X2009604D01*
X1986813Y1694098D02*
X2008895D01*
X1987522Y1694807D02*
X2008186D01*
X1988230Y1695516D02*
X2007478D01*
X1988939Y1696224D02*
X2006769D01*
X1989648Y1696933D02*
X2006060D01*
X1931936Y1638114D02*
X1996821D01*
X1974766Y1682051D02*
X1996783D01*
X1947045Y1665043D02*
X1996421D01*
X1931936Y1637405D02*
X1995359D01*
X1974057Y1681342D02*
X1995281D01*
X1947754Y1665752D02*
X1995049D01*
X1932180Y1636697D02*
X1994341D01*
X1973348Y1680634D02*
X1994246D01*
X1948462Y1666460D02*
X1994072D01*
X1932889Y1635988D02*
X1993556D01*
X1972640Y1679925D02*
X1993451D01*
X1949171Y1667169D02*
X1993313D01*
X1971931Y1679216D02*
X1992813D01*
X1949880Y1667878D02*
X1992702D01*
X1971222Y1678508D02*
X1992294D01*
X1950588Y1668586D02*
X1992203D01*
X1970514Y1677799D02*
X1991871D01*
X1951297Y1669295D02*
X1991797D01*
X1969805Y1677090D02*
X1991528D01*
X1952006Y1670004D02*
X1991469D01*
X1969096Y1676382D02*
X1991257D01*
X1952714Y1670712D02*
X1991211D01*
X1968388Y1675673D02*
X1991051D01*
X1953423Y1671421D02*
X1991017D01*
X1967679Y1674964D02*
X1990904D01*
X1954132Y1672130D02*
X1990882D01*
X1956258Y1674256D02*
X1990816D01*
X1954840Y1672838D02*
X1990805D01*
X1955549Y1673547D02*
X1990783D01*
X1931946Y1700969D02*
X1939718D01*
X1932525Y1700260D02*
X1939520D01*
X1931367Y1701678D02*
X1939324D01*
X1930789Y1702386D02*
X1938931D01*
X1933104Y1699552D02*
X1938603D01*
X1930210Y1703095D02*
X1938537D01*
X1929631Y1703804D02*
X1938143D01*
X1916044Y1704512D02*
X1937749D01*
X1933682Y1698843D02*
X1937686D01*
X1916894Y1705221D02*
X1937346D01*
X1917744Y1705930D02*
X1936941D01*
X1934261Y1698134D02*
X1936769D01*
X1918593Y1706638D02*
X1936536D01*
X1919443Y1707347D02*
X1936131D01*
X1934840Y1697426D02*
X1935851D01*
X1920293Y1708056D02*
X1935726D01*
X1921143Y1708764D02*
X1935321D01*
X1921993Y1709473D02*
X1934916D01*
X1922951Y1710182D02*
X1934511D01*
X1923975Y1710890D02*
X1934106D01*
X1925019Y1711599D02*
X1933701D01*
X1926085Y1712308D02*
X1933296D01*
X1927173Y1713016D02*
X1932891D01*
X1928284Y1713725D02*
X1932486D01*
X1929421Y1714434D02*
X1932082D01*
X1930583Y1715142D02*
X1931677D01*
X1915194Y1703804D02*
X1928930D01*
X1914344Y1703095D02*
X1928043D01*
X1913495Y1702386D02*
X1927155D01*
X1912645Y1701678D02*
X1926268D01*
X1911795Y1700969D02*
X1925381D01*
X1910945Y1700260D02*
X1924493D01*
X1910095Y1699552D02*
X1923606D01*
X1909246Y1698843D02*
X1922718D01*
X1908396Y1698134D02*
X1921831D01*
X1907546Y1697426D02*
X1920944D01*
X1906696Y1696717D02*
X1920056D01*
X1905878Y1696008D02*
X1919169D01*
X1905161Y1695300D02*
X1918282D01*
X1904454Y1694591D02*
X1917394D01*
X1903758Y1693882D02*
X1916488D01*
X1903072Y1693174D02*
X1915580D01*
X1902395Y1692465D02*
X1914673D01*
X1901729Y1691756D02*
X1913766D01*
X1900627Y1686796D02*
X1913204D01*
X1901565Y1686087D02*
X1913093D01*
X1901072Y1691048D02*
X1912859D01*
X1899688Y1687504D02*
X1912824D01*
X1902504Y1685378D02*
X1912590D01*
X1898834Y1688213D02*
X1912445D01*
X1903443Y1684670D02*
X1912088D01*
X1900424Y1690339D02*
X1912070D01*
X1899157Y1688922D02*
X1912065D01*
X1899786Y1689630D02*
X1911685D01*
X1904382Y1683961D02*
X1911585D01*
X1905320Y1683253D02*
X1911083D01*
X1906259Y1682544D02*
X1910580D01*
X1907198Y1681835D02*
X1910078D01*
X1908137Y1681127D02*
X1909575D01*
X2093613Y1643282D02*
X2104775D01*
X2093430Y1642574D02*
X2104671D01*
X2093797Y1643991D02*
X2104479D01*
X2093246Y1641865D02*
X2104432D01*
X2093063Y1641156D02*
X2104192D01*
X2093980Y1644700D02*
X2104178D01*
X2092879Y1640448D02*
X2103952D01*
X2094164Y1645408D02*
X2103871D01*
X2092696Y1639739D02*
X2103713D01*
X2094347Y1646117D02*
X2103559D01*
X2092512Y1639030D02*
X2103473D01*
X2094531Y1646826D02*
X2103241D01*
X2092329Y1638322D02*
X2103234D01*
X2092145Y1637613D02*
X2102994D01*
X2094715Y1647534D02*
X2102916D01*
X2091961Y1636904D02*
X2102754D01*
X2094898Y1648243D02*
X2102586D01*
X2091778Y1636196D02*
X2102515D01*
X2091594Y1635487D02*
X2102275D01*
X2101168Y1648952D02*
X2102250D01*
X2091411Y1634778D02*
X2102036D01*
X2091227Y1634070D02*
X2101796D01*
X2091044Y1633361D02*
X2101556D01*
X2090860Y1632652D02*
X2101317D01*
X2090677Y1631944D02*
X2101077D01*
X2090493Y1631235D02*
X2100838D01*
X2090310Y1630526D02*
X2100598D01*
X2090755Y1629818D02*
X2100358D01*
X2091523Y1629109D02*
X2100119D01*
X2095082Y1648952D02*
X2099918D01*
X2092316Y1628400D02*
X2099879D01*
X2094407Y1627692D02*
X2099640D01*
X2096507Y1626983D02*
X2099400D01*
X2095265Y1649660D02*
X2099146D01*
X2098608Y1626274D02*
X2099070D01*
X2095441Y1650369D02*
X2098704D01*
X2095609Y1651078D02*
X2098261D01*
X2095778Y1651786D02*
X2097818D01*
X2095946Y1652495D02*
X2097375D01*
X2096115Y1653204D02*
X2096932D01*
X2097130Y1586589D02*
X2106131D01*
X2097907Y1585881D02*
X2106012D01*
X2098412Y1585172D02*
X2105888D01*
X2098742Y1584463D02*
X2105764D01*
X2098937Y1583755D02*
X2105641D01*
X2095613Y1587298D02*
X2105558D01*
X2099014Y1583046D02*
X2105517D01*
X2098979Y1582337D02*
X2105393D01*
X2098830Y1581629D02*
X2105270D01*
X2098554Y1580920D02*
X2105146D01*
X2098122Y1580211D02*
X2105023D01*
X2097467Y1579503D02*
X2104899D01*
X1938916Y1588007D02*
X2104785D01*
X2096369Y1578794D02*
X2104775D01*
X2044440Y1578085D02*
X2104652D01*
X2012843Y1577377D02*
X2104528D01*
X2012614Y1576668D02*
X2104404D01*
X2012164Y1575959D02*
X2104281D01*
X2011918Y1575251D02*
X2104157D01*
X2011918Y1574542D02*
X2104033D01*
X1939356Y1588715D02*
X2104012D01*
X2011918Y1573833D02*
X2103910D01*
X2011918Y1573125D02*
X2103786D01*
X2011918Y1572416D02*
X2103662D01*
X2011918Y1571707D02*
X2103472D01*
X2011918Y1570999D02*
X2103244D01*
X1939420Y1589424D02*
X2103239D01*
X2066180Y1570290D02*
X2103016D01*
X2067636Y1569581D02*
X2102788D01*
X1939420Y1590133D02*
X2102567D01*
X2068587Y1568873D02*
X2102561D01*
X2069293Y1568164D02*
X2102333D01*
X1939420Y1590841D02*
X2102215D01*
X2069840Y1567455D02*
X2102105D01*
X1939420Y1591550D02*
X2102081D01*
X1939420Y1592259D02*
X2102058D01*
X1939420Y1592967D02*
X2102037D01*
X1939420Y1593676D02*
X2102015D01*
X1939340Y1594385D02*
X2101993D01*
X2094266Y1595093D02*
X2101971D01*
X2095173Y1595802D02*
X2101950D01*
X2095872Y1596511D02*
X2101928D01*
X2096572Y1597219D02*
X2101906D01*
X2097271Y1597928D02*
X2101885D01*
X2070267Y1566747D02*
X2101877D01*
X2097970Y1598637D02*
X2101863D01*
X2098628Y1599345D02*
X2101841D01*
X2098967Y1600054D02*
X2101819D01*
X2099050Y1600763D02*
X2101798D01*
X2099048Y1601471D02*
X2101776D01*
X2099142Y1602180D02*
X2101754D01*
X2099212Y1602889D02*
X2101732D01*
X2099174Y1603597D02*
X2101711D01*
X2099038Y1604306D02*
X2101689D01*
X2099035Y1605015D02*
X2101667D01*
X2070595Y1566038D02*
X2101649D01*
X2099033Y1605723D02*
X2101645D01*
X2099031Y1606432D02*
X2101624D01*
X2099019Y1607141D02*
X2101602D01*
X2098832Y1607849D02*
X2101580D01*
X2098336Y1608558D02*
X2101558D01*
X2097627Y1609267D02*
X2101537D01*
X2096919Y1609975D02*
X2101515D01*
X2096210Y1610684D02*
X2101493D01*
X2095501Y1611393D02*
X2101467D01*
X2094793Y1612101D02*
X2101438D01*
X2070840Y1565330D02*
X2101421D01*
X2094084Y1612810D02*
X2101410D01*
X2093375Y1613518D02*
X2101381D01*
X2092667Y1614227D02*
X2101352D01*
X2091958Y1614936D02*
X2101202D01*
X2071008Y1564621D02*
X2101193D01*
X2071105Y1563912D02*
X2100965D01*
X2071135Y1563204D02*
X2100737D01*
X2091249Y1615644D02*
X2100657D01*
X2076704Y1562495D02*
X2100510D01*
X2078389Y1561786D02*
X2100282D01*
X2090541Y1616353D02*
X2100111D01*
X2079331Y1561078D02*
X2100054D01*
X2079990Y1560369D02*
X2099826D01*
X2089832Y1617062D02*
X2099565D01*
X2080475Y1559660D02*
X2099519D01*
X2080830Y1558952D02*
X2099132D01*
X2089123Y1617770D02*
X2099019D01*
X2081079Y1558243D02*
X2098745D01*
X2088415Y1618479D02*
X2098474D01*
X2081235Y1557534D02*
X2098358D01*
X2081305Y1556826D02*
X2097971D01*
X2087706Y1619188D02*
X2097928D01*
X2081292Y1556117D02*
X2097584D01*
X2086997Y1619896D02*
X2097382D01*
X2081197Y1555408D02*
X2097197D01*
X2086289Y1620605D02*
X2096836D01*
X2081013Y1554700D02*
X2096810D01*
X2080734Y1553991D02*
X2096423D01*
X2085580Y1621314D02*
X2096069D01*
X2080343Y1553282D02*
X2096036D01*
X2079812Y1552574D02*
X2095650D01*
X2079083Y1551865D02*
X2095263D01*
X2078007Y1551156D02*
X2094876D01*
X2000874Y1550448D02*
X2094489D01*
X2000152Y1549739D02*
X2094102D01*
X2084871Y1622022D02*
X2093969D01*
X1908489Y1549030D02*
X2093715D01*
X1887363Y1587298D02*
X2093364D01*
X1907574Y1548322D02*
X2093328D01*
X1899490Y1547613D02*
X2092941D01*
X2045826Y1578794D02*
X2092607D01*
X1899863Y1546904D02*
X2092554D01*
X1900242Y1546196D02*
X2092120D01*
X2084163Y1622731D02*
X2091869D01*
X2045037Y1586589D02*
X2091847D01*
X1958746Y1545487D02*
X2091644D01*
X2046576Y1579503D02*
X2091509D01*
X1959277Y1544778D02*
X2091167D01*
X2046111Y1585881D02*
X2091069D01*
X2047068Y1580211D02*
X2090854D01*
X1959587Y1544070D02*
X2090691D01*
X2046760Y1585172D02*
X2090565D01*
X2070016Y1653204D02*
X2090449D01*
X2047391Y1580920D02*
X2090422D01*
X2069672Y1653912D02*
X2090325D01*
X2070094Y1652495D02*
X2090281D01*
X2047190Y1584463D02*
X2090235D01*
X1963168Y1543361D02*
X2090214D01*
X2047580Y1581629D02*
X2090146D01*
X2070094Y1651786D02*
X2090112D01*
X2047467Y1583755D02*
X2090040D01*
X2047654Y1582337D02*
X2089997D01*
X2047617Y1583046D02*
X2089963D01*
X2070094Y1651078D02*
X2089939D01*
X2068998Y1654621D02*
X2089919D01*
X2083454Y1623440D02*
X2089788D01*
X2070094Y1650369D02*
X2089755D01*
X1963876Y1542652D02*
X2089738D01*
X2070094Y1649660D02*
X2089571D01*
X2068289Y1655330D02*
X2089513D01*
X2070094Y1648952D02*
X2089388D01*
X1964585Y1541944D02*
X2089261D01*
X2070094Y1648243D02*
X2089204D01*
X2067581Y1656038D02*
X2089107D01*
X2070094Y1647534D02*
X2089021D01*
X2070094Y1646826D02*
X2088837D01*
X1965294Y1541235D02*
X2088785D01*
X2082746Y1624148D02*
X2088770D01*
X2066872Y1656747D02*
X2088701D01*
X2070094Y1646117D02*
X2088654D01*
X2070094Y1645408D02*
X2088470D01*
X1966002Y1540526D02*
X2088308D01*
X2066163Y1657455D02*
X2088295D01*
X2070094Y1644700D02*
X2088287D01*
X2070094Y1643991D02*
X2088103D01*
X2082037Y1624857D02*
X2088003D01*
X2070094Y1643282D02*
X2087920D01*
X2065455Y1658164D02*
X2087889D01*
X1966754Y1539818D02*
X2087832D01*
X2070094Y1642574D02*
X2087736D01*
X2070094Y1641865D02*
X2087552D01*
X2064746Y1658873D02*
X2087496D01*
X2070094Y1641156D02*
X2087369D01*
X2034857Y1539109D02*
X2087355D01*
X2081328Y1625566D02*
X2087235D01*
X2070094Y1640448D02*
X2087185D01*
X2064037Y1659581D02*
X2087175D01*
X2070094Y1639739D02*
X2087002D01*
X1938857Y1595093D02*
X2086884D01*
X2035566Y1538400D02*
X2086879D01*
X2063329Y1660290D02*
X2086855D01*
X2070094Y1639030D02*
X2086818D01*
X2070094Y1638322D02*
X2086635D01*
X2062620Y1660999D02*
X2086535D01*
X2080620Y1626274D02*
X2086467D01*
X2070094Y1637613D02*
X2086451D01*
X2037053Y1537692D02*
X2086402D01*
X2070089Y1636904D02*
X2086268D01*
X2061911Y1661707D02*
X2086215D01*
X2070698Y1636196D02*
X2086084D01*
X1910274Y1595802D02*
X2085995D01*
X2038369Y1536983D02*
X2085926D01*
X2071407Y1635487D02*
X2085901D01*
X2061203Y1662416D02*
X2085894D01*
X2079911Y1626983D02*
X2085777D01*
X2072116Y1634778D02*
X2085717D01*
X2060494Y1663125D02*
X2085574D01*
X2072824Y1634070D02*
X2085534D01*
X2038955Y1536274D02*
X2085449D01*
X2079202Y1627692D02*
X2085363D01*
X2073533Y1633361D02*
X2085350D01*
X1910193Y1596511D02*
X2085286D01*
X2059785Y1663833D02*
X2085265D01*
X2074242Y1632652D02*
X2085166D01*
X2059077Y1664542D02*
X2085060D01*
X2074950Y1631944D02*
X2084983D01*
X2078494Y1628400D02*
X2084975D01*
X2039272Y1535566D02*
X2084973D01*
X2058368Y1665251D02*
X2084860D01*
X2075659Y1631235D02*
X2084799D01*
X2057659Y1665959D02*
X2084661D01*
X2077785Y1629109D02*
X2084657D01*
X2076368Y1630526D02*
X2084617D01*
X1909831Y1597219D02*
X2084577D01*
X2077076Y1629818D02*
X2084544D01*
X2039403Y1534857D02*
X2084497D01*
X2056951Y1666668D02*
X2084461D01*
X2056242Y1667377D02*
X2084262D01*
X2055533Y1668085D02*
X2084062D01*
X2039371Y1534148D02*
X2084020D01*
X1908783Y1597928D02*
X2083869D01*
X2054825Y1668794D02*
X2083863D01*
X2054116Y1669503D02*
X2083664D01*
X2039171Y1533440D02*
X2083544D01*
X2053407Y1670211D02*
X2083464D01*
X2052699Y1670920D02*
X2083265D01*
X1886655Y1598637D02*
X2083160D01*
X2038763Y1532731D02*
X2083067D01*
X2051990Y1671629D02*
X2083065D01*
X2051281Y1672337D02*
X2082866D01*
X2046021Y1677298D02*
X2082837D01*
X2047029Y1676589D02*
X2082709D01*
X2050573Y1673046D02*
X2082666D01*
X2038007Y1532022D02*
X2082591D01*
X2047738Y1675881D02*
X2082558D01*
X2049864Y1673755D02*
X2082467D01*
X1886648Y1599345D02*
X2082451D01*
X2048447Y1675172D02*
X2082406D01*
X2049155Y1674463D02*
X2082344D01*
X2028049Y1678007D02*
X2082266D01*
X1955994Y1531314D02*
X2082114D01*
X1886646Y1600054D02*
X2081743D01*
X1982436Y1530605D02*
X2081615D01*
X2027340Y1678715D02*
X2081588D01*
X1886649Y1600763D02*
X2081034D01*
X1982960Y1529896D02*
X2080928D01*
X2078852Y1679424D02*
X2080899D01*
X1886656Y1601471D02*
X2080325D01*
X1983138Y1529188D02*
X2080241D01*
X1886667Y1602180D02*
X2079617D01*
X1983143Y1528479D02*
X2079554D01*
X1886682Y1602889D02*
X2078908D01*
X1983143Y1527770D02*
X2078867D01*
X2026631Y1679424D02*
X2078655D01*
X1886703Y1603597D02*
X2078199D01*
X1983143Y1527062D02*
X2078179D01*
X1983143Y1526353D02*
X2077492D01*
X1886727Y1604306D02*
X2077491D01*
X2025923Y1680133D02*
X2077300D01*
X1983143Y1525644D02*
X2076805D01*
X1886756Y1605015D02*
X2076782D01*
X2025214Y1680841D02*
X2076393D01*
X1983143Y1524936D02*
X2076118D01*
X1886790Y1605723D02*
X2076073D01*
X2024505Y1681550D02*
X2075486D01*
X1983143Y1524227D02*
X2075431D01*
X1886828Y1606432D02*
X2075365D01*
X1983143Y1523518D02*
X2074744D01*
X1886870Y1607141D02*
X2074656D01*
X2023797Y1682259D02*
X2074579D01*
X1983143Y1522810D02*
X2074056D01*
X1886917Y1607849D02*
X2073948D01*
X2071097Y1562495D02*
X2073711D01*
X2023088Y1682967D02*
X2073672D01*
X1983143Y1522101D02*
X2073369D01*
X2067954Y1686511D02*
X2073243D01*
X1886968Y1608558D02*
X2073239D01*
X2020253Y1685802D02*
X2073016D01*
X2022379Y1683676D02*
X2072848D01*
X1983143Y1521393D02*
X2072682D01*
X2020962Y1685093D02*
X2072594D01*
X2021671Y1684385D02*
X2072545D01*
X1887024Y1609267D02*
X2072530D01*
X2070622Y1687219D02*
X2072429D01*
X2001583Y1551156D02*
X2072409D01*
X2071013Y1561786D02*
X2072026D01*
X1983143Y1520684D02*
X2071995D01*
X1887084Y1609975D02*
X2071822D01*
X2071249Y1687928D02*
X2071538D01*
X2002291Y1551865D02*
X2071332D01*
X1983143Y1519975D02*
X2071308D01*
X1887149Y1610684D02*
X2071113D01*
X1983143Y1519267D02*
X2070620D01*
X2003000Y1552574D02*
X2070604D01*
X1887218Y1611393D02*
X2070404D01*
X2003709Y1553282D02*
X2070072D01*
X1983143Y1518558D02*
X2069704D01*
X1887292Y1612101D02*
X2069696D01*
X2004417Y1553991D02*
X2069681D01*
X2005126Y1554700D02*
X2069402D01*
X2005835Y1555408D02*
X2069218D01*
X2065911Y1556117D02*
X2069123D01*
X2067488Y1556826D02*
X2069110D01*
X2068481Y1557534D02*
X2069009D01*
X1887370Y1612810D02*
X2068987D01*
X1983143Y1517849D02*
X2068756D01*
X1887452Y1613518D02*
X2068278D01*
X1983143Y1517141D02*
X2067808D01*
X1887540Y1614227D02*
X2067570D01*
X1887631Y1614936D02*
X2066861D01*
X1983143Y1516432D02*
X2066860D01*
X1887728Y1615644D02*
X2066152D01*
X1983143Y1515723D02*
X2065911D01*
X1887829Y1616353D02*
X2065444D01*
X1983247Y1515015D02*
X2064963D01*
X1887934Y1617062D02*
X2064735D01*
X2019545Y1686511D02*
X2064436D01*
X1888691Y1617770D02*
X2064026D01*
X1983440Y1514306D02*
X2064015D01*
X2012458Y1693597D02*
X2063863D01*
X2018836Y1687219D02*
X2063686D01*
X2013167Y1692889D02*
X2063564D01*
X2015293Y1690763D02*
X2063492D01*
X1890463Y1618479D02*
X2063318D01*
X2018127Y1687928D02*
X2063281D01*
X2014584Y1691471D02*
X2063278D01*
X2013876Y1692180D02*
X2063242D01*
X2016002Y1690054D02*
X2063186D01*
X2017419Y1688637D02*
X2063083D01*
X1983428Y1513597D02*
X2063066D01*
X2016710Y1689345D02*
X2063053D01*
X1892235Y1619188D02*
X2062609D01*
X2046208Y1694306D02*
X2062317D01*
X1983208Y1512889D02*
X2062118D01*
X1893105Y1619896D02*
X2061900D01*
X2006543Y1556117D02*
X2061399D01*
X2001710Y1620605D02*
X2061192D01*
X1982705Y1512180D02*
X2061170D01*
X2011918Y1570290D02*
X2061129D01*
X2052941Y1695015D02*
X2061112D01*
X2003922Y1621314D02*
X2060483D01*
X1981329Y1511471D02*
X2060221D01*
X2054346Y1695723D02*
X2059906D01*
X2007252Y1556826D02*
X2059821D01*
X2005170Y1622022D02*
X2059774D01*
X2011918Y1569581D02*
X2059673D01*
X1972632Y1510763D02*
X2059273D01*
X2006086Y1622731D02*
X2059066D01*
X2007961Y1557534D02*
X2058828D01*
X2011918Y1568873D02*
X2058722D01*
X2055109Y1696432D02*
X2058701D01*
X2006806Y1623440D02*
X2058357D01*
X1972632Y1510054D02*
X2058325D01*
X2008669Y1558243D02*
X2058096D01*
X2011918Y1568164D02*
X2058016D01*
X2007388Y1624148D02*
X2057648D01*
X2055872Y1697141D02*
X2057603D01*
X2009378Y1558952D02*
X2057532D01*
X2011918Y1567455D02*
X2057469D01*
X1972632Y1509345D02*
X2057376D01*
X2010087Y1559660D02*
X2057091D01*
X2011918Y1566747D02*
X2057042D01*
X2056651Y1697849D02*
X2057036D01*
X2007863Y1624857D02*
X2056940D01*
X2010795Y1560369D02*
X2056751D01*
X2011918Y1566038D02*
X2056714D01*
X2011476Y1561078D02*
X2056496D01*
X2011918Y1565330D02*
X2056469D01*
X2011832Y1561786D02*
X2056319D01*
X2011918Y1564621D02*
X2056301D01*
X2008250Y1625566D02*
X2056231D01*
X2011918Y1562495D02*
X2056212D01*
X2011918Y1563912D02*
X2056204D01*
X2011918Y1563204D02*
X2056174D01*
X2008561Y1626274D02*
X2055522D01*
X2008803Y1626983D02*
X2054814D01*
X2008983Y1627692D02*
X2054105D01*
X2009104Y1628400D02*
X2053396D01*
X2009168Y1629109D02*
X2052688D01*
X2009177Y1629818D02*
X2051979D01*
X2009131Y1630526D02*
X2051270D01*
X2009029Y1631235D02*
X2050568D01*
X2008869Y1631944D02*
X2050145D01*
X2008653Y1632652D02*
X2050005D01*
X1986566Y1508637D02*
X2049517D01*
X1988898Y1507928D02*
X2048345D01*
X2003410Y1507219D02*
X2047173D01*
X2003868Y1506511D02*
X2046207D01*
X2005252Y1505802D02*
X2045359D01*
X2007023Y1505093D02*
X2044510D01*
X2007893Y1504385D02*
X2043661D01*
X2008763Y1503676D02*
X2042813D01*
X2009632Y1502967D02*
X2041964D01*
X2012900Y1578085D02*
X2041722D01*
X1887445Y1586589D02*
X2041125D01*
X2012796Y1578794D02*
X2040335D01*
X1887532Y1585881D02*
X2040050D01*
X2012512Y1579503D02*
X2039585D01*
X2011750Y1694306D02*
X2039500D01*
X1887701Y1585172D02*
X2039401D01*
X2011980Y1580211D02*
X2039093D01*
X1889187Y1584463D02*
X2038971D01*
X2010894Y1580920D02*
X2038771D01*
X1889510Y1583755D02*
X2038695D01*
X1889535Y1581629D02*
X2038581D01*
X1889535Y1583046D02*
X2038544D01*
X1889535Y1582337D02*
X2038507D01*
X2011041Y1695015D02*
X2038266D01*
X2010332Y1695723D02*
X2037031D01*
X2033458Y1696432D02*
X2035797D01*
X2033720Y1697141D02*
X2034927D01*
X2033699Y1703518D02*
X2034839D01*
X2033363Y1704227D02*
X2034838D01*
X1963975Y1704936D02*
X2034821D01*
X1963897Y1705644D02*
X2034804D01*
X1963818Y1706353D02*
X2034787D01*
X1963739Y1707062D02*
X2034770D01*
X2032957Y1707770D02*
X2034730D01*
X1955559Y1532022D02*
X2034514D01*
X1931343Y1532731D02*
X2033758D01*
X1931782Y1533440D02*
X2033350D01*
X1932121Y1534148D02*
X2033150D01*
X1932374Y1534857D02*
X2032985D01*
X1964792Y1707770D02*
X2020326D01*
X1964054Y1704227D02*
X2019919D01*
X2009624Y1696432D02*
X2019825D01*
X1967040Y1708479D02*
X2019693D01*
X1964133Y1703518D02*
X2019583D01*
X2008915Y1697141D02*
X2019564D01*
X1978472Y1711314D02*
X2019555D01*
X1975086Y1710605D02*
X2019555D01*
X1972127Y1709896D02*
X2019555D01*
X1969469Y1709188D02*
X2019555D01*
X1964212Y1702810D02*
X2019555D01*
X1964290Y1702101D02*
X2019555D01*
X1964369Y1701393D02*
X2019555D01*
X1964448Y1700684D02*
X2019555D01*
X1964143Y1699975D02*
X2019555D01*
X2006600Y1699267D02*
X2019555D01*
X2007498Y1698558D02*
X2019555D01*
X2008206Y1697849D02*
X2019555D01*
X1982529Y1712022D02*
X2017471D01*
X1987917Y1712731D02*
X2012083D01*
X1889535Y1580920D02*
X2008611D01*
X1947831Y1575251D02*
X2007587D01*
X1949695Y1574542D02*
X2007587D01*
X1950683Y1573833D02*
X2007587D01*
X1951372Y1573125D02*
X2007587D01*
X1951880Y1572416D02*
X2007587D01*
X1952255Y1571707D02*
X2007587D01*
X1952523Y1570999D02*
X2007587D01*
X1952698Y1570290D02*
X2007587D01*
X1952788Y1569581D02*
X2007587D01*
X1952796Y1568873D02*
X2007587D01*
X1952722Y1568164D02*
X2007587D01*
X1952565Y1567455D02*
X2007587D01*
X1952316Y1566747D02*
X2007587D01*
X1951964Y1566038D02*
X2007587D01*
X1951485Y1565330D02*
X2007587D01*
X1950838Y1564621D02*
X2007587D01*
X1949926Y1563912D02*
X2007587D01*
X1889535Y1580211D02*
X2007525D01*
X1948385Y1563204D02*
X2007502D01*
X1910850Y1575959D02*
X2007340D01*
X1889535Y1579503D02*
X2006993D01*
X1910330Y1576668D02*
X2006891D01*
X1943788Y1562495D02*
X2006797D01*
X1889535Y1578794D02*
X2006708D01*
X1889523Y1577377D02*
X2006662D01*
X1889535Y1578085D02*
X2006604D01*
X1943681Y1561786D02*
X2006088D01*
X1943504Y1561078D02*
X2005379D01*
X1974172Y1499424D02*
X2005136D01*
X1943249Y1560369D02*
X2004671D01*
X1974365Y1500133D02*
X2004386D01*
X1942909Y1559660D02*
X2003962D01*
X1942468Y1558952D02*
X2003253D01*
X1941904Y1558243D02*
X2002545D01*
X1941172Y1557534D02*
X2001836D01*
X1940179Y1556826D02*
X2001127D01*
X1938601Y1556117D02*
X2000419D01*
X1927255Y1555408D02*
X1999710D01*
X1927963Y1554700D02*
X1999001D01*
X1994098Y1500841D02*
X1998644D01*
X1893519Y1620605D02*
X1998398D01*
X1994424Y1507219D02*
X1998319D01*
X1928672Y1553991D02*
X1998293D01*
X1893934Y1621314D02*
X1996186D01*
X1894348Y1622022D02*
X1994938D01*
X1894762Y1622731D02*
X1994022D01*
X1895177Y1623440D02*
X1993302D01*
X1895591Y1624148D02*
X1992720D01*
X1895724Y1624857D02*
X1992245D01*
X1895769Y1625566D02*
X1991858D01*
X1895813Y1626274D02*
X1991548D01*
X1895448Y1632652D02*
X1991455D01*
X1895857Y1626983D02*
X1991305D01*
X1895819Y1631944D02*
X1991239D01*
X1895902Y1627692D02*
X1991125D01*
X1896123Y1631235D02*
X1991079D01*
X1895946Y1628400D02*
X1991005D01*
X1896079Y1630526D02*
X1990977D01*
X1895990Y1629109D02*
X1990940D01*
X1896034Y1629818D02*
X1990931D01*
X1974366Y1500841D02*
X1989658D01*
X1963690Y1699267D02*
X1989164D01*
X1974366Y1501550D02*
X1988963D01*
X1974366Y1502259D02*
X1988591D01*
X1963237Y1698558D02*
X1988210D01*
X1962783Y1697849D02*
X1987502D01*
X1962330Y1697141D02*
X1986793D01*
X1974366Y1502967D02*
X1986265D01*
X1961877Y1696432D02*
X1986084D01*
X1961424Y1695723D02*
X1985376D01*
X1960448Y1695015D02*
X1984667D01*
X1973367Y1498715D02*
X1984263D01*
X1958125Y1694306D02*
X1983958D01*
X1974286Y1503676D02*
X1983933D01*
X1954829Y1498007D02*
X1983418D01*
X1936024Y1693597D02*
X1983250D01*
X1935790Y1692889D02*
X1982541D01*
X1936069Y1692180D02*
X1981832D01*
X1964359Y1497298D02*
X1981639D01*
X1936001Y1691471D02*
X1981124D01*
X1964784Y1496589D02*
X1980969D01*
X1972881Y1495881D02*
X1980638D01*
X1973809Y1495172D02*
X1980521D01*
X1935514Y1690763D02*
X1980415D01*
X1974588Y1494463D02*
X1980244D01*
X1935275Y1690054D02*
X1979706D01*
X1936133Y1689345D02*
X1978998D01*
X1936607Y1688637D02*
X1978289D01*
X1936853Y1687928D02*
X1977580D01*
X1936925Y1687219D02*
X1976872D01*
X1972615Y1511471D02*
X1976533D01*
X1936835Y1686511D02*
X1976163D01*
X1936569Y1685802D02*
X1975454D01*
X1973807Y1504385D02*
X1974897D01*
X1972425Y1512180D02*
X1974891D01*
X1972499Y1508637D02*
X1974891D01*
X1936064Y1685093D02*
X1974746D01*
X1972596Y1505093D02*
X1974465D01*
X1972572Y1507928D02*
X1974464D01*
X1972632Y1507219D02*
X1974404D01*
X1972632Y1506511D02*
X1974404D01*
X1972632Y1505802D02*
X1974404D01*
X1972627Y1512889D02*
X1974306D01*
X1972632Y1513597D02*
X1974096D01*
X1955775Y1522101D02*
X1974083D01*
X1970940Y1521393D02*
X1974083D01*
X1972016Y1520684D02*
X1974083D01*
X1972384Y1519975D02*
X1974083D01*
X1972468Y1519267D02*
X1974083D01*
X1972468Y1518558D02*
X1974083D01*
X1972468Y1517849D02*
X1974083D01*
X1972468Y1517141D02*
X1974083D01*
X1972468Y1516432D02*
X1974083D01*
X1972470Y1515723D02*
X1974083D01*
X1972632Y1515015D02*
X1974083D01*
X1972632Y1514306D02*
X1974083D01*
X1935068Y1684385D02*
X1974037D01*
X1956074Y1522810D02*
X1974026D01*
X1926395Y1683676D02*
X1973328D01*
X1925538Y1682967D02*
X1972620D01*
X1924631Y1682259D02*
X1971911D01*
X1923724Y1681550D02*
X1971202D01*
X1922817Y1680841D02*
X1970494D01*
X1921910Y1680133D02*
X1969785D01*
X1919101Y1679424D02*
X1969076D01*
X1954916Y1498715D02*
X1968415D01*
X1918885Y1678715D02*
X1968368D01*
X1918845Y1678007D02*
X1967659D01*
X1918636Y1677298D02*
X1966951D01*
X1954989Y1499424D02*
X1966286D01*
X1955685Y1503676D02*
X1965739D01*
X1955021Y1500133D02*
X1965595D01*
X1955148Y1502967D02*
X1965450D01*
X1955053Y1500841D02*
X1965254D01*
X1955116Y1502259D02*
X1965190D01*
X1932551Y1535566D02*
X1965167D01*
X1955085Y1501550D02*
X1965129D01*
X1932656Y1536274D02*
X1964130D01*
X1956026Y1504385D02*
X1964070D01*
X1956057Y1505093D02*
X1963638D01*
X1961778Y1505802D02*
X1963577D01*
X1962865Y1506511D02*
X1963496D01*
X1932693Y1536983D02*
X1963421D01*
X1932662Y1537692D02*
X1962712D01*
X1958927Y1538400D02*
X1962004D01*
X1959327Y1539109D02*
X1961295D01*
X1918353Y1521393D02*
X1958177D01*
X1919041Y1520684D02*
X1957100D01*
X1956025Y1512889D02*
X1956816D01*
X1919742Y1519975D02*
X1956732D01*
X1955672Y1513597D02*
X1956679D01*
X1920455Y1519267D02*
X1956648D01*
X1921181Y1518558D02*
X1956648D01*
X1921920Y1517849D02*
X1956648D01*
X1922672Y1517141D02*
X1956648D01*
X1923439Y1516432D02*
X1956648D01*
X1924220Y1515723D02*
X1956648D01*
X1925016Y1515015D02*
X1956648D01*
X1925827Y1514306D02*
X1956648D01*
X1918216Y1676589D02*
X1955817D01*
X1917434Y1675881D02*
X1954820D01*
X1915137Y1675172D02*
X1954112D01*
X1914515Y1674463D02*
X1953403D01*
X1913903Y1673755D02*
X1952694D01*
X1900628Y1545487D02*
X1952134D01*
X1913301Y1673046D02*
X1951986D01*
X1932564Y1538400D02*
X1951952D01*
X1901020Y1544778D02*
X1951603D01*
X1932394Y1539109D02*
X1951552D01*
X1927705Y1544070D02*
X1951503D01*
X1929175Y1543361D02*
X1951503D01*
X1930131Y1542652D02*
X1951503D01*
X1930841Y1541944D02*
X1951503D01*
X1931390Y1541235D02*
X1951503D01*
X1931818Y1540526D02*
X1951503D01*
X1932149Y1539818D02*
X1951503D01*
X1912709Y1672337D02*
X1951277D01*
X1912127Y1671629D02*
X1950568D01*
X1911554Y1670920D02*
X1949860D01*
X1910991Y1670211D02*
X1949151D01*
X1910436Y1669503D02*
X1948442D01*
X1937073Y1694306D02*
X1948432D01*
X1909891Y1668794D02*
X1947734D01*
X1909355Y1668085D02*
X1947025D01*
X1930781Y1532022D02*
X1946712D01*
X1926654Y1513597D02*
X1946598D01*
X1917676Y1522101D02*
X1946495D01*
X1909011Y1667377D02*
X1946316D01*
X1930053Y1531314D02*
X1946277D01*
X1927497Y1512889D02*
X1946247D01*
X1917011Y1522810D02*
X1946226D01*
X1929066Y1530605D02*
X1946214D01*
X1927505Y1529896D02*
X1946214D01*
X1911870Y1529188D02*
X1946214D01*
X1912077Y1528479D02*
X1946214D01*
X1912658Y1527770D02*
X1946214D01*
X1913249Y1527062D02*
X1946214D01*
X1913850Y1526353D02*
X1946214D01*
X1914461Y1525644D02*
X1946214D01*
X1915083Y1524936D02*
X1946214D01*
X1915715Y1524227D02*
X1946214D01*
X1916357Y1523518D02*
X1946214D01*
X1928358Y1512180D02*
X1946214D01*
X1929235Y1511471D02*
X1945891D01*
X1938148Y1695015D02*
X1945657D01*
X1909714Y1666668D02*
X1945608D01*
X1911026Y1575251D02*
X1945332D01*
X1939250Y1695723D02*
X1945142D01*
X1930131Y1510763D02*
X1944963D01*
X1909989Y1665959D02*
X1944899D01*
X1943890Y1563204D02*
X1944779D01*
X1940381Y1696432D02*
X1944627D01*
X1909916Y1665251D02*
X1944190D01*
X1941542Y1697141D02*
X1944111D01*
X1931046Y1510054D02*
X1944036D01*
X1942736Y1697849D02*
X1943596D01*
X1909541Y1664542D02*
X1943482D01*
X1911030Y1574542D02*
X1943468D01*
X1941608Y1509345D02*
X1943063D01*
X1909132Y1663833D02*
X1942773D01*
X1911030Y1573833D02*
X1942480D01*
X1908723Y1663125D02*
X1942064D01*
X1911030Y1573125D02*
X1941791D01*
X1908314Y1662416D02*
X1941356D01*
X1911030Y1572416D02*
X1941283D01*
X1911030Y1571707D02*
X1940908D01*
X1907904Y1661707D02*
X1940647D01*
X1911030Y1570999D02*
X1940640D01*
X1938871Y1570290D02*
X1940465D01*
X1907495Y1660999D02*
X1939938D01*
X1907086Y1660290D02*
X1939230D01*
X1906633Y1659581D02*
X1938521D01*
X1903120Y1658873D02*
X1937812D01*
X1902693Y1658164D02*
X1937104D01*
X1902477Y1657455D02*
X1936395D01*
X1903525Y1656747D02*
X1935686D01*
X1904013Y1656038D02*
X1934978D01*
X1904083Y1655330D02*
X1934269D01*
X1926546Y1556117D02*
X1934089D01*
X1911030Y1570290D02*
X1933820D01*
X1903813Y1654621D02*
X1933560D01*
X1903404Y1653912D02*
X1932852D01*
X1895077Y1633361D02*
X1932594D01*
X1925837Y1556826D02*
X1932512D01*
X1926743Y1684385D02*
X1932483D01*
X1911027Y1569581D02*
X1932364D01*
X1902995Y1653204D02*
X1932143D01*
X1910274Y1595093D02*
X1932109D01*
X1909099Y1588007D02*
X1932051D01*
X1894706Y1634070D02*
X1931745D01*
X1910274Y1594385D02*
X1931627D01*
X1909919Y1588715D02*
X1931611D01*
X1910274Y1593676D02*
X1931546D01*
X1910274Y1592967D02*
X1931546D01*
X1910274Y1592259D02*
X1931546D01*
X1910274Y1591550D02*
X1931546D01*
X1910274Y1590841D02*
X1931546D01*
X1910274Y1590133D02*
X1931546D01*
X1910224Y1589424D02*
X1931546D01*
X1925129Y1557534D02*
X1931519D01*
X1926726Y1685093D02*
X1931486D01*
X1902585Y1652495D02*
X1931434D01*
X1910856Y1568873D02*
X1931413D01*
X1894335Y1634778D02*
X1931036D01*
X1926351Y1685802D02*
X1930982D01*
X1924420Y1558243D02*
X1930787D01*
X1902176Y1651786D02*
X1930726D01*
X1926727Y1686511D02*
X1930715D01*
X1910345Y1568164D02*
X1930707D01*
X1893963Y1635487D02*
X1930331D01*
X1923711Y1558952D02*
X1930223D01*
X1906459Y1567455D02*
X1930160D01*
X1901767Y1651078D02*
X1930097D01*
X1893592Y1636196D02*
X1929903D01*
X1901358Y1650369D02*
X1929815D01*
X1923003Y1559660D02*
X1929782D01*
X1893221Y1636904D02*
X1929771D01*
X1900949Y1649660D02*
X1929771D01*
X1900141Y1648952D02*
X1929771D01*
X1897414Y1648243D02*
X1929771D01*
X1897084Y1647534D02*
X1929771D01*
X1896759Y1646826D02*
X1929771D01*
X1896441Y1646117D02*
X1929771D01*
X1896129Y1645408D02*
X1929771D01*
X1895822Y1644700D02*
X1929771D01*
X1895521Y1643991D02*
X1929771D01*
X1895225Y1643282D02*
X1929771D01*
X1894936Y1642574D02*
X1929771D01*
X1894651Y1641865D02*
X1929771D01*
X1894373Y1641156D02*
X1929771D01*
X1894099Y1640448D02*
X1929771D01*
X1893832Y1639739D02*
X1929771D01*
X1893569Y1639030D02*
X1929771D01*
X1893312Y1638322D02*
X1929771D01*
X1893060Y1637613D02*
X1929771D01*
X1906971Y1566747D02*
X1929733D01*
X1922294Y1560369D02*
X1929442D01*
X1908154Y1566038D02*
X1929405D01*
X1921585Y1561078D02*
X1929187D01*
X1908854Y1565330D02*
X1929160D01*
X1920877Y1561786D02*
X1929009D01*
X1909365Y1564621D02*
X1928992D01*
X1920168Y1562495D02*
X1928903D01*
X1918751Y1563912D02*
X1928895D01*
X1919459Y1563204D02*
X1928865D01*
X1927571Y1687219D02*
X1928746D01*
X1909075Y1549739D02*
X1926812D01*
X1909470Y1550448D02*
X1926091D01*
X1909723Y1551156D02*
X1925382D01*
X1909856Y1551865D02*
X1924673D01*
X1909881Y1552574D02*
X1923965D01*
X1909798Y1553282D02*
X1923256D01*
X1912437Y1529896D02*
X1922920D01*
X1901419Y1544070D02*
X1922720D01*
X1909603Y1553991D02*
X1922547D01*
X1909278Y1554700D02*
X1921839D01*
X1912566Y1530605D02*
X1921359D01*
X1901824Y1543361D02*
X1921249D01*
X1908789Y1555408D02*
X1921130D01*
X1908055Y1556117D02*
X1920421D01*
X1912566Y1531314D02*
X1920372D01*
X1912110Y1542652D02*
X1920294D01*
X1906768Y1556826D02*
X1919713D01*
X1912566Y1532022D02*
X1919644D01*
X1912514Y1541944D02*
X1919584D01*
X1912566Y1532731D02*
X1919081D01*
X1912566Y1541235D02*
X1919035D01*
X1905890Y1557534D02*
X1919004D01*
X1912566Y1533440D02*
X1918643D01*
X1912566Y1540526D02*
X1918607D01*
X1912566Y1534148D02*
X1918304D01*
X1907436Y1558243D02*
X1918295D01*
X1912566Y1539818D02*
X1918276D01*
X1912566Y1534857D02*
X1918051D01*
X1912566Y1539109D02*
X1918031D01*
X1912566Y1535566D02*
X1917874D01*
X1912566Y1538400D02*
X1917861D01*
X1912566Y1536274D02*
X1917769D01*
X1912566Y1537692D02*
X1917763D01*
X1912566Y1536983D02*
X1917732D01*
X1908407Y1558952D02*
X1917587D01*
X1909021Y1559660D02*
X1916878D01*
X1903563Y1659581D02*
X1904170D01*
X1902237Y1542652D02*
X1903966D01*
X1902656Y1541944D02*
X1903562D01*
X1899124Y1548322D02*
X1902747D01*
X1898767Y1549030D02*
X1901832D01*
X1899075Y1549739D02*
X1901245D01*
X1899470Y1550448D02*
X1900851D01*
X1899723Y1551156D02*
X1900598D01*
X1897750Y1648952D02*
X1898996D01*
X1886666Y1597928D02*
X1892425D01*
X1886681Y1597219D02*
X1891377D01*
X1887285Y1588007D02*
X1891024D01*
X1889250Y1576668D02*
X1890897D01*
X1886701Y1596511D02*
X1890776D01*
X1887212Y1588715D02*
X1890524D01*
X1886725Y1595802D02*
X1890459D01*
X1886754Y1595093D02*
X1890436D01*
X1886787Y1594385D02*
X1890436D01*
X1886824Y1593676D02*
X1890436D01*
X1886866Y1592967D02*
X1890436D01*
X1886912Y1592259D02*
X1890436D01*
X1886963Y1591550D02*
X1890436D01*
X1887019Y1590841D02*
X1890436D01*
X1887079Y1590133D02*
X1890436D01*
X1887143Y1589424D02*
X1890436D01*
X1889230Y1575959D02*
X1890377D01*
X1889386Y1575251D02*
X1890202D01*
G54D110*
X1943573Y1604468D02*
X1943576D01*
X1901980Y1597425D02*
X1901982D01*
X1944068Y1647991D02*
X1944071D01*
X1910160Y1572383D02*
X1910163D01*
G54D111*
X1935483Y1591524D03*
X1955440Y1541864D03*
G54D135*
X1935483Y1583650D03*
X1947566Y1541864D03*
X1950027Y1509111D02*
X1950111Y1509074D01*
X1951135Y1508629*
Y1526936D02*
X1976158D01*
X1978069*
G54D529*
X1978931Y1513994D03*
G54D530*
Y1510254D03*
Y1506514D03*
X1968104D03*
Y1510254D03*
Y1513994D03*
G54D654*
X2097394Y1665838D02*
X2101160Y1669605D01*
X2104049*
G54D771*
X1936027Y1513537D03*
Y1504537D03*
X1926894Y1513537D03*
Y1504537D03*
G54D782*
X1991878Y1510342D03*
Y1504142D03*
X2000864Y1510342D03*
Y1504142D03*
G54D783*
X1977091Y1501681D03*
X1970891D03*
G54D792*
X1951135Y1526936D03*
Y1508629D03*
G54D818*
X2000090Y1692502D03*
Y1716124D03*
G54D819*
X1980405Y1704313D03*
G54D823*
X1908038Y1536032D03*
X1896227D03*
G54D824*
X2026641Y1700267D03*
Y1712078D03*
X1882448Y1568713D03*
Y1580524D03*
X2113282Y1598431D03*
Y1610242D03*
G74*
X0Y0D02*
M02*
