%
T1C.01575F095S3
X002689Y002733
X002755Y002193
X003122Y001915
X003352Y002743
X003544Y001909
X004146Y002743
X005965Y00184
X005965Y00157
X006242Y001496
X006249Y001829
X006465Y001657
X006687Y001456
X006687Y001867
X006788Y000165
X00742Y001023
X008328Y-000494
X008543Y001024
X008543Y001694
X008646Y003074
X008646Y002343
X009379Y002665
X009634Y001921
X009634Y001298
X009946Y003021
X010077Y002343
X0106Y001549
X010962Y003021
X010962Y002343
X011071Y001229
X01144Y001598
X011555Y002059
X01237Y001606
X012747Y000413
X012759Y000724
X013034Y001916
X013121Y000724
X013121Y000408
X013133Y001058
X013421Y000862
X013426Y000331
X01367Y002852
X013741Y002288
X014357Y002288
X014357Y002852
X015284Y002302
X015284Y002857
X015415Y00026
X015659Y00171
X015973Y003205
X016059Y002302
X016645Y003205
X01689Y002458
X01746Y003042
X018347Y001426
X019185Y005351
X018751Y004903
X018289Y004238
X018249Y005368
X0178Y003599
X017734Y004852
X016835Y003817
X016796Y004998
X016796Y004341
X01617Y003749
X016089Y005436
X016003Y004341
X015513Y004998
X015192Y003613
X01493Y003919
X01493Y004756
X01493Y005475
X01488Y003301
X014438Y005192
X014438Y005632
X013944Y005632
X013692Y005192
X013427Y005632
X013Y005632
X013Y005182
X013Y004777
X012578Y004777
X012578Y00519
X012578Y00563
X012095Y004815
X012095Y00519
X012095Y00563
X011604Y004815
X011592Y00563
X011139Y00563
X011139Y005192
X011139Y004815
X008334Y00339
X008263Y004219
X008263Y004745
X008127Y005564
X007663Y005564
X007639Y004304
X007624Y004774
X007342Y00339
X007085Y005555
X006845Y004704
X006542Y004375
X006424Y00339
X00617Y004704
X00555Y00339
X005196Y005585
X004757Y004763
X004757Y005485
X004757Y00352
X004254Y003464
X004213Y005485
X-002145Y00758
X001176Y008236
X002924Y007793
X003216Y007334
X003575Y007793
X004151Y007856
X004616Y007856
X004757Y00599
X005186Y006375
X005558Y005925
X005558Y006375
X006845Y006507
X006845Y005909
X007193Y006507
X0072Y006205
X007503Y005938
X007715Y006507
X007811Y006169
X008127Y006001
X008127Y006507
X013245Y006335
X013909Y006112
X014438Y006112
X01493Y006095
X01493Y006699
X015429Y005874
X015429Y006994
X017091Y00694
X017386Y00749
X017386Y00823
X017928Y00694
X0186Y00694
X0186Y006108
X019348Y00627
X019348Y00694
X019878Y006411
X017478Y010523
X017386Y008921
X017386Y009505
X016515Y010523
X015346Y010548
X014986Y010119
X014986Y009424
X014285Y010548
X013419Y009424
X013039Y010548
X012611Y009424
X011957Y009119
X011842Y010548
X011309Y009119
X011244Y009697
X010918Y010548
X010751Y009697
X010129Y010548
X009312Y010548
X008499Y010548
X007576Y010548
X006572Y010548
X005753Y010548
X004931Y01031
X004616Y008315
X004249Y01031
X004164Y008315
X003561Y01031
X002924Y008315
X002798Y01031
X002335Y008315
X00211Y01031
X001019Y01031
X000523Y01031
X-000209Y010315
X-001162Y009942
X-001163Y010315
X-000944Y011605
X-000406Y012143
X000013Y011725
X000742Y011725
X001602Y011725
X001602Y012601
X001602Y010946
X002521Y011725
X002934Y012601
X003499Y011725
X004477Y012601
X004661Y011725
X005898Y012601
X005913Y011725
X007273Y012601
X008588Y011604
X009474Y011604
X010486Y011604
X011141Y01226
X011653Y012919
X011674Y011604
X012617Y012919
X013711Y011719
X013765Y012919
X014655Y011719
X014709Y012507
X015467Y011468
X015467Y012507
X016515Y011468
X018072Y012822
X018801Y012117
X019347Y011549
X019855Y01104
X017983Y013389
X017983Y01408
X017983Y014771
X017983Y015355
X017231Y015239
X017231Y014402
X017227Y013647
X002438Y014401
X002438Y015219
X002438Y013552
X001602Y015102
X001602Y013467
X001602Y014294
X000956Y013934
X000956Y014839
X-000326Y013469
X001602Y015812
X002438Y017928
X002438Y017061
X002438Y016038
X003176Y016775
X003324Y017928
X003789Y017389
X003987Y01649
X00441Y01801
X004502Y017005
X005017Y01752
X005507Y01801
X006337Y01801
X013441Y018207
X014506Y018207
X015071Y017642
X015694Y01702
X016008Y018034
X016287Y016426
X016565Y017475
X016847Y015972
X017069Y016971
X017575Y016465
X017983Y016057
X015424Y018618
X01289Y018758
X012295Y019353
X011384Y020263
X010479Y020263
X00934Y020263
X008591Y020263
X007763Y019435
X007273Y018946
X007186Y019973
X006984Y020429
X006835Y019774
X006715Y018388
X00663Y020158
X006234Y019417
X00433Y01856
T2C.01969F095S3
X-000615Y003111
X000113Y002679
X005276Y-000764
X007558Y-001514
X007868Y002016
X007868Y002768
X00787Y002398
X00788Y001643
X009289Y-001734
X011506Y-001524
X01508Y-000197
X015354Y-001066
X017019Y000596
X0215Y004644
X020904Y003546
X013626Y003462
X010975Y007796
X-001339Y006327
X-000741Y014988
X000016Y016306
X001574Y017851
X01847Y018223
X020405Y016958
X021013Y016013
X021206Y011593
X021734Y008942
X016619Y01891
X013561Y020024
X013414Y021209
X003378Y018723
T3C.02756F197S55
X003548Y00915
X003548Y008363
X004757Y004184
X005544Y004184
X01948Y013189G85X019756Y014216
X013012Y011456G85X01226Y012208
X01502Y018952G85X013993Y018676
X000326Y013869G85X000689Y01287
X00463Y018999G85X005677Y018814
X007284Y011707G85X007968Y012521
T4C.03F197S55
X010409Y019248G85X009609Y019248
X010409Y02161G85X009609Y02161
X00804Y020039G85X00804Y020839
T5C.0315F197S55
X014308Y008243
X014308Y009424
X019449Y008289
X019449Y010297
T6C.03937F197S55
X-000484Y005236
X-000484Y007236
X-000484Y006236
X-000484Y008236
X000516Y008236
X000516Y007236
X000516Y006236
X000516Y005236
X000516Y009236
X-000484Y009236
T7C.05906F107S55
X-000503Y011025
X002521Y003699
T8C.10236F069S658
X004429Y014797
X015587Y014783
M30
