*
*
G04 PADS 9.5 Build Number: 522968 generated Gerber (RS-274-X) file*
G04 PC Version=2.1*
*
%IN "QCD_PowerBank_001B_V02_"*%
*
%MOIN*%
*
%FSLAX35Y35*%
*
*
*
*
G04 PC Standard Apertures*
*
*
G04 Thermal Relief Aperture macro.*
%AMTER*
1,1,$1,0,0*
1,0,$1-$2,0,0*
21,0,$3,$4,0,0,45*
21,0,$3,$4,0,0,135*
%
*
*
G04 Annular Aperture macro.*
%AMANN*
1,1,$1,0,0*
1,0,$2,0,0*
%
*
*
G04 Odd Aperture macro.*
%AMODD*
1,1,$1,0,0*
1,0,$1-0.005,0,0*
%
*
*
G04 PC Custom Aperture Macros*
*
*
*
*
*
*
G04 PC Aperture Table*
*
%ADD010C,0.00984*%
%ADD032C,0.05906*%
%ADD034C,0.07874*%
%ADD047C,0.01*%
%ADD076C,0.07299*%
%ADD086C,0.20685*%
%ADD088C,0.12811*%
%ADD089C,0.07*%
%ADD092C,0.06906*%
%ADD104R,0.07299X0.07299*%
%ADD110C,0.001*%
%ADD124R,0.05724X0.05724*%
%ADD138C,0.05724*%
%ADD564O,0.06905X0.02968*%
%ADD565R,0.06905X0.02968*%
%ADD797R,0.04X0.048*%
%ADD798R,0.048X0.04*%
%ADD807R,0.06X0.07*%
%ADD809R,0.07693X0.08874*%
%ADD827O,0.18X0.1*%
%ADD828O,0.1X0.18*%
%ADD832R,0.06906X0.12024*%
%ADD833R,0.12024X0.06906*%
%ADD839C,0.02126*%
*
*
*
*
G04 PC Circuitry*
G04 Layer Name QCD_PowerBank_001B_V02_ - circuitry*
%LPD*%
*
*
G04 PC Custom Flashes*
G04 Layer Name QCD_PowerBank_001B_V02_ - flashes*
%LPD*%
*
*
G04 PC Circuitry*
G04 Layer Name QCD_PowerBank_001B_V02_ - circuitry*
%LPD*%
*
G54D10*
G01X2010870Y1557770D02*
X2031563D01*
Y1547185*
X2010870*
Y1557770*
Y1557184D02*
X2031563D01*
X2010870Y1556184D02*
X2031563D01*
X2010870Y1555184D02*
X2031563D01*
X2010870Y1554184D02*
X2031563D01*
X2010870Y1553184D02*
X2031563D01*
X2010870Y1552184D02*
X2031563D01*
X2010870Y1551184D02*
X2031563D01*
X2010870Y1550184D02*
X2031563D01*
X2010870Y1549184D02*
X2031563D01*
X2010870Y1548184D02*
X2031563D01*
X2030870Y1547185D02*
Y1557770D01*
X2029870Y1547185D02*
Y1557770D01*
X2028870Y1547185D02*
Y1557770D01*
X2027870Y1547185D02*
Y1557770D01*
X2026870Y1547185D02*
Y1557770D01*
X2025870Y1547185D02*
Y1557770D01*
X2024870Y1547185D02*
Y1557770D01*
X2023870Y1547185D02*
Y1557770D01*
X2022870Y1547185D02*
Y1557770D01*
X2021870Y1547185D02*
Y1557770D01*
X2020870Y1547185D02*
Y1557770D01*
X2019870Y1547185D02*
Y1557770D01*
X2018870Y1547185D02*
Y1557770D01*
X2017870Y1547185D02*
Y1557770D01*
X2016870Y1547185D02*
Y1557770D01*
X2015870Y1547185D02*
Y1557770D01*
X2014870Y1547185D02*
Y1557770D01*
X2013870Y1547185D02*
Y1557770D01*
X2012870Y1547185D02*
Y1557770D01*
X2011870Y1547185D02*
Y1557770D01*
G54D32*
X1999840Y1709252D02*
X2012098Y1703123D01*
X2010012Y1703384*
X2009881Y1701558*
X2022792Y1688648*
X2044309Y1687865*
G54D34*
X2000841Y1692058D02*
X1944720Y1647284D01*
X2053294Y1646092*
X2002080Y1689640*
X2092738Y1603139D02*
X2002577Y1689927D01*
X2000101Y1714729D02*
Y1708991D01*
X1980800Y1704949*
G54D47*
X1904704Y1677201D02*
X1896287Y1684319D01*
X1892474Y1679810*
X1900891Y1672692*
X1904704Y1677201*
X1900499Y1673023D02*
X1901171D01*
X1899317Y1674023D02*
X1902017D01*
X1898134Y1675023D02*
X1902863D01*
X1896952Y1676023D02*
X1903708D01*
X1895769Y1677023D02*
X1904554D01*
X1894586Y1678023D02*
X1903732D01*
X1893404Y1679023D02*
X1902550D01*
X1892654Y1680023D02*
X1901367D01*
X1893500Y1681023D02*
X1900185D01*
X1894345Y1682023D02*
X1899002D01*
X1895191Y1683023D02*
X1897819D01*
X1896037Y1684023D02*
X1896637D01*
X1892474Y1679810D02*
X1892474D01*
X1893474Y1678964D02*
Y1680992D01*
X1894474Y1678119D02*
Y1682175D01*
X1895474Y1677273D02*
Y1683357D01*
X1896474Y1676427D02*
Y1684161D01*
X1897474Y1675582D02*
Y1683316D01*
X1898474Y1674736D02*
Y1682470D01*
X1899474Y1673890D02*
Y1681624D01*
X1900474Y1673045D02*
Y1680779D01*
X1901474Y1673381D02*
Y1679933D01*
X1902474Y1674563D02*
Y1679087D01*
X1903474Y1675746D02*
Y1678242D01*
X1904474Y1676928D02*
Y1677396D01*
X1912331Y1686220D02*
X1903913Y1693338D01*
X1900100Y1688828*
X1908518Y1681710*
X1912331Y1686220*
X1908148Y1682023D02*
X1908782D01*
X1906965Y1683023D02*
X1909628D01*
X1905783Y1684023D02*
X1910473D01*
X1904600Y1685023D02*
X1911319D01*
X1903418Y1686023D02*
X1912165D01*
X1902235Y1687023D02*
X1911381D01*
X1901053Y1688023D02*
X1910198D01*
X1900265Y1689023D02*
X1909016D01*
X1901110Y1690023D02*
X1907833D01*
X1901956Y1691023D02*
X1906651D01*
X1902802Y1692023D02*
X1905468D01*
X1903647Y1693023D02*
X1904286D01*
X1900100Y1688828D02*
X1900100D01*
X1901100Y1687983D02*
Y1690011D01*
X1902100Y1687137D02*
Y1691194D01*
X1903100Y1686292D02*
Y1692376D01*
X1904100Y1685446D02*
Y1693180D01*
X1905100Y1684600D02*
Y1692334D01*
X1906100Y1683755D02*
Y1691489D01*
X1907100Y1682909D02*
Y1690643D01*
X1908100Y1682063D02*
Y1689797D01*
X1909100Y1682399D02*
Y1688952D01*
X1910100Y1683582D02*
Y1688106D01*
X1911100Y1684764D02*
Y1687260D01*
X1912100Y1685947D02*
Y1686415D01*
X2102559Y1684838D02*
X2094367Y1677461D01*
X2098319Y1673073*
X2106511Y1680449*
X2102559Y1684838*
X2097463Y1674023D02*
X2099374D01*
X2096563Y1675023D02*
X2100485D01*
X2095662Y1676023D02*
X2101595D01*
X2094762Y1677023D02*
X2102706D01*
X2094991Y1678023D02*
X2103817D01*
X2096102Y1679023D02*
X2104927D01*
X2097212Y1680023D02*
X2106038D01*
X2098323Y1681023D02*
X2105994D01*
X2099433Y1682023D02*
X2105093D01*
X2100544Y1683023D02*
X2104193D01*
X2101655Y1684023D02*
X2103293D01*
X2095000Y1676759D02*
Y1678031D01*
X2096000Y1675648D02*
Y1678932D01*
X2097000Y1674537D02*
Y1679832D01*
X2098000Y1673427D02*
Y1680732D01*
X2099000Y1673686D02*
Y1681633D01*
X2100000Y1674587D02*
Y1682533D01*
X2101000Y1675487D02*
Y1683434D01*
X2102000Y1676387D02*
Y1684334D01*
X2103000Y1677288D02*
Y1684348D01*
X2104000Y1678188D02*
Y1683238D01*
X2105000Y1679089D02*
Y1682127D01*
X2106000Y1679989D02*
Y1681016D01*
X2094656Y1693615D02*
X2086464Y1686239D01*
X2090416Y1681850*
X2098608Y1689226*
X2094656Y1693615*
X2090260Y1682023D02*
X2090608D01*
X2089359Y1683023D02*
X2091718D01*
X2088459Y1684023D02*
X2092829D01*
X2087559Y1685023D02*
X2093940D01*
X2086658Y1686023D02*
X2095050D01*
X2087335Y1687023D02*
X2096161D01*
X2088446Y1688023D02*
X2097271D01*
X2089556Y1689023D02*
X2098382D01*
X2090667Y1690023D02*
X2097890D01*
X2091778Y1691023D02*
X2096990D01*
X2092888Y1692023D02*
X2096089D01*
X2093999Y1693023D02*
X2095189D01*
X2087000Y1685643D02*
Y1686721D01*
X2088000Y1684533D02*
Y1687622D01*
X2089000Y1683422D02*
Y1688522D01*
X2090000Y1682312D02*
Y1689423D01*
X2091000Y1682376D02*
Y1690323D01*
X2092000Y1683277D02*
Y1691223D01*
X2093000Y1684177D02*
Y1692124D01*
X2094000Y1685077D02*
Y1693024D01*
X2095000Y1685978D02*
Y1693233D01*
X2096000Y1686878D02*
Y1692122D01*
X2097000Y1687779D02*
Y1691012D01*
X2098000Y1688679D02*
Y1689901D01*
X2132796Y1601579D02*
X2121779Y1601194D01*
X2121986Y1595292*
X2133002Y1595677*
X2132796Y1601579*
X2121986Y1595292D02*
X2121986D01*
X2121951Y1596292D02*
X2132981D01*
X2121916Y1597292D02*
X2132946D01*
X2121881Y1598292D02*
X2132911D01*
X2121846Y1599292D02*
X2132876D01*
X2121811Y1600292D02*
X2132841D01*
X2124588Y1601292D02*
X2132806D01*
X2122000Y1595293D02*
Y1601202D01*
X2123000Y1595328D02*
Y1601237D01*
X2124000Y1595362D02*
Y1601272D01*
X2125000Y1595397D02*
Y1601306D01*
X2126000Y1595432D02*
Y1601341D01*
X2127000Y1595467D02*
Y1601376D01*
X2128000Y1595502D02*
Y1601411D01*
X2129000Y1595537D02*
Y1601446D01*
X2130000Y1595572D02*
Y1601481D01*
X2131000Y1595607D02*
Y1601516D01*
X2132000Y1595642D02*
Y1601551D01*
X2133000Y1595677D02*
Y1595746D01*
X2132384Y1613383D02*
X2121367Y1612998D01*
X2121573Y1607096*
X2132590Y1607481*
X2132384Y1613383*
X2121541Y1608023D02*
X2132571D01*
X2121506Y1609023D02*
X2132536D01*
X2121471Y1610023D02*
X2132501D01*
X2121436Y1611023D02*
X2132467D01*
X2121401Y1612023D02*
X2132432D01*
X2122093Y1613023D02*
X2132397D01*
X2122000Y1607111D02*
Y1613020D01*
X2123000Y1607146D02*
Y1613055D01*
X2124000Y1607181D02*
Y1613090D01*
X2125000Y1607216D02*
Y1613125D01*
X2126000Y1607250D02*
Y1613160D01*
X2127000Y1607285D02*
Y1613195D01*
X2128000Y1607320D02*
Y1613229D01*
X2129000Y1607355D02*
Y1613264D01*
X2130000Y1607390D02*
Y1613299D01*
X2131000Y1607425D02*
Y1613334D01*
X2132000Y1607460D02*
Y1613369D01*
X1884438Y1642457D02*
X1874198Y1646540D01*
X1872011Y1641054*
X1882250Y1636971*
X1884438Y1642457*
X1882120Y1637023D02*
X1882271D01*
X1879612Y1638023D02*
X1882670D01*
X1877105Y1639023D02*
X1883069D01*
X1874597Y1640023D02*
X1883468D01*
X1872089Y1641023D02*
X1883866D01*
X1872397Y1642023D02*
X1884265D01*
X1872796Y1643023D02*
X1883017D01*
X1873195Y1644023D02*
X1880509D01*
X1873594Y1645023D02*
X1878002D01*
X1873992Y1646023D02*
X1875494D01*
X1872011Y1641054D02*
X1872011D01*
X1873011Y1640656D02*
Y1643562D01*
X1874011Y1640257D02*
Y1646070D01*
X1875011Y1639858D02*
Y1646216D01*
X1876011Y1639459D02*
Y1645817D01*
X1877011Y1639060D02*
Y1645418D01*
X1878011Y1638662D02*
Y1645019D01*
X1879011Y1638263D02*
Y1644621D01*
X1880011Y1637864D02*
Y1644222D01*
X1881011Y1637465D02*
Y1643823D01*
X1882011Y1637067D02*
Y1643424D01*
X1883011Y1638878D02*
Y1643026D01*
X1884011Y1641386D02*
Y1642627D01*
X1888813Y1653427D02*
X1878573Y1657511D01*
X1876386Y1652025*
X1886625Y1647942*
X1888813Y1653427*
X1886422Y1648023D02*
X1886658D01*
X1883914Y1649023D02*
X1887057D01*
X1881406Y1650023D02*
X1887455D01*
X1878899Y1651023D02*
X1887854D01*
X1876391Y1652023D02*
X1888253D01*
X1876784Y1653023D02*
X1888652D01*
X1877183Y1654023D02*
X1887319D01*
X1877581Y1655023D02*
X1884811D01*
X1877980Y1656023D02*
X1882304D01*
X1878379Y1657023D02*
X1879796D01*
X1876386Y1652025D02*
X1876386D01*
X1877386Y1651626D02*
Y1654533D01*
X1878386Y1651228D02*
Y1657041D01*
X1879386Y1650829D02*
Y1657187D01*
X1880386Y1650430D02*
Y1656788D01*
X1881386Y1650031D02*
Y1656389D01*
X1882386Y1649633D02*
Y1655990D01*
X1883386Y1649234D02*
Y1655592D01*
X1884386Y1648835D02*
Y1655193D01*
X1885386Y1648436D02*
Y1654794D01*
X1886386Y1648037D02*
Y1654395D01*
X1887386Y1649849D02*
Y1653996D01*
X1888386Y1652357D02*
Y1653598D01*
X1877218Y1593358D02*
X1866201Y1592974D01*
X1866407Y1587072*
X1877424Y1587456*
X1877218Y1593358*
X1866407Y1587072D02*
X1866407D01*
X1866372Y1588072D02*
X1877402D01*
X1866337Y1589072D02*
X1877367D01*
X1866302Y1590072D02*
X1877332D01*
X1866267Y1591072D02*
X1877297D01*
X1866232Y1592072D02*
X1877262D01*
X1869010Y1593072D02*
X1877228D01*
X1866201Y1592974D02*
X1866201D01*
X1867201Y1587099D02*
Y1593009D01*
X1868201Y1587134D02*
Y1593044D01*
X1869201Y1587169D02*
Y1593078D01*
X1870201Y1587204D02*
Y1593113D01*
X1871201Y1587239D02*
Y1593148D01*
X1872201Y1587274D02*
Y1593183D01*
X1873201Y1587309D02*
Y1593218D01*
X1874201Y1587344D02*
Y1593253D01*
X1875201Y1587379D02*
Y1593288D01*
X1876201Y1587414D02*
Y1593323D01*
X1877201Y1587449D02*
Y1593358D01*
X1876805Y1605162D02*
X1865788Y1604777D01*
X1865788D02*
X1865995Y1598876D01*
X1877011Y1599260*
X1876805Y1605162*
X1865995Y1598876D02*
X1865995D01*
X1865960Y1599876D02*
X1876990D01*
X1865925Y1600876D02*
X1876955D01*
X1865890Y1601876D02*
X1876920D01*
X1865855Y1602876D02*
X1876885D01*
X1865820Y1603876D02*
X1876850D01*
X1868597Y1604876D02*
X1876815D01*
X1865788Y1604777D02*
X1865788D01*
X1866788Y1598903D02*
Y1604812D01*
X1867788Y1598938D02*
Y1604847D01*
X1868788Y1598973D02*
Y1604882D01*
X1869788Y1599008D02*
Y1604917D01*
X1870788Y1599043D02*
Y1604952D01*
X1871788Y1599078D02*
Y1604987D01*
X1872788Y1599113D02*
Y1605022D01*
X1873788Y1599148D02*
Y1605057D01*
X1874788Y1599183D02*
Y1605092D01*
X1875788Y1599218D02*
Y1605127D01*
X1876788Y1599253D02*
Y1605162D01*
X1911638Y1514991D02*
X1903446Y1507615D01*
X1907397Y1503226*
X1915590Y1510603*
X1911638Y1514991*
X1907397Y1503226D02*
X1907397D01*
X1906497Y1504226D02*
X1908508D01*
X1905597Y1505226D02*
X1909619D01*
X1904696Y1506226D02*
X1910729D01*
X1903796Y1507226D02*
X1911840D01*
X1904125Y1508226D02*
X1912950D01*
X1905235Y1509226D02*
X1914061D01*
X1906346Y1510226D02*
X1915172D01*
X1907457Y1511226D02*
X1915028D01*
X1908567Y1512226D02*
X1914128D01*
X1909678Y1513226D02*
X1913227D01*
X1910789Y1514226D02*
X1912327D01*
X1903446Y1507615D02*
X1903446D01*
X1904446Y1506504D02*
Y1508515D01*
X1905446Y1505394D02*
Y1509416D01*
X1906446Y1504283D02*
Y1510316D01*
X1907446Y1503270D02*
Y1511217D01*
X1908446Y1504170D02*
Y1512117D01*
X1909446Y1505071D02*
Y1513017D01*
X1910446Y1505971D02*
Y1513918D01*
X1911446Y1506872D02*
Y1514818D01*
X1912446Y1507772D02*
Y1514094D01*
X1913446Y1508672D02*
Y1512983D01*
X1914446Y1509573D02*
Y1511873D01*
X1915446Y1510473D02*
Y1510762D01*
X1903735Y1523769D02*
X1895543Y1516392D01*
X1899494Y1512004*
X1907686Y1519380*
X1903735Y1523769*
X1899494Y1512004D02*
X1899494D01*
X1898594Y1513004D02*
X1900605D01*
X1897694Y1514004D02*
X1901716D01*
X1896793Y1515004D02*
X1902826D01*
X1895893Y1516004D02*
X1903937D01*
X1896222Y1517004D02*
X1905047D01*
X1897332Y1518004D02*
X1906158D01*
X1898443Y1519004D02*
X1907269D01*
X1899554Y1520004D02*
X1907125D01*
X1900664Y1521004D02*
X1906224D01*
X1901775Y1522004D02*
X1905324D01*
X1902885Y1523004D02*
X1904424D01*
X1895543Y1516392D02*
X1895543D01*
X1896543Y1515282D02*
Y1517293D01*
X1897543Y1514171D02*
Y1518193D01*
X1898543Y1513060D02*
Y1519094D01*
X1899543Y1512047D02*
Y1519994D01*
X1900543Y1512948D02*
Y1520894D01*
X1901543Y1513848D02*
Y1521795D01*
X1902543Y1514749D02*
Y1522695D01*
X1903543Y1515649D02*
Y1523596D01*
X1904543Y1516549D02*
Y1522871D01*
X1905543Y1517450D02*
Y1521761D01*
X1906543Y1518350D02*
Y1520650D01*
X1907543Y1519251D02*
Y1519540D01*
X2001164Y1475599D02*
X2000779Y1486616D01*
X1994877Y1486410*
X1995262Y1475393*
X2001164Y1475599*
X1995262Y1475393D02*
X1995262D01*
X1995227Y1476393D02*
X2001136D01*
X1995192Y1477393D02*
X2001101D01*
X1995157Y1478393D02*
X2001066D01*
X1995122Y1479393D02*
X2001031D01*
X1995087Y1480393D02*
X2000996D01*
X1995052Y1481393D02*
X2000961D01*
X1995017Y1482393D02*
X2000926D01*
X1994982Y1483393D02*
X2000891D01*
X1994947Y1484393D02*
X2000857D01*
X1994913Y1485393D02*
X2000822D01*
X1994878Y1486393D02*
X2000787D01*
X1994877Y1486410D02*
X1994877D01*
X1995877Y1475415D02*
Y1486445D01*
X1996877Y1475450D02*
Y1486480D01*
X1997877Y1475485D02*
Y1486515D01*
X1998877Y1475520D02*
Y1486550D01*
X1999877Y1475554D02*
Y1486585D01*
X2000877Y1475589D02*
Y1483807D01*
X2012967Y1476012D02*
X2012583Y1487028D01*
X2006681Y1486822*
X2007066Y1475805*
X2012967Y1476012*
X2007066Y1475805D02*
X2007066D01*
X2007031Y1476805D02*
X2012940D01*
X2006996Y1477805D02*
X2012905D01*
X2006961Y1478805D02*
X2012870D01*
X2006926Y1479805D02*
X2012835D01*
X2006891Y1480805D02*
X2012800D01*
X2006856Y1481805D02*
X2012765D01*
X2006821Y1482805D02*
X2012730D01*
X2006786Y1483805D02*
X2012695D01*
X2006751Y1484805D02*
X2012660D01*
X2006716Y1485805D02*
X2012625D01*
X2006681Y1486805D02*
X2012591D01*
X2007000Y1477682D02*
Y1486834D01*
X2008000Y1475838D02*
Y1486868D01*
X2009000Y1475873D02*
Y1486903D01*
X2010000Y1475908D02*
Y1486938D01*
X2011000Y1475943D02*
Y1486973D01*
X2012000Y1475978D02*
Y1487008D01*
X2079878Y1518027D02*
X2087597Y1510157D01*
X2091813Y1514292*
X2084094Y1522162*
X2079878Y1518027*
X2087597Y1510157D02*
X2087597D01*
X2086616Y1511157D02*
X2088617D01*
X2085635Y1512157D02*
X2089636D01*
X2084655Y1513157D02*
X2090656D01*
X2083674Y1514157D02*
X2091675D01*
X2082693Y1515157D02*
X2090965D01*
X2081712Y1516157D02*
X2089984D01*
X2080731Y1517157D02*
X2089003D01*
X2080010Y1518157D02*
X2088022D01*
X2081030Y1519157D02*
X2087042D01*
X2082050Y1520157D02*
X2086061D01*
X2083069Y1521157D02*
X2085080D01*
X2084089Y1522157D02*
X2084099D01*
X2080000Y1517902D02*
Y1518146D01*
X2081000Y1516883D02*
Y1519127D01*
X2082000Y1515863D02*
Y1520108D01*
X2083000Y1514844D02*
Y1521089D01*
X2084000Y1513824D02*
Y1522070D01*
X2085000Y1512804D02*
Y1521238D01*
X2086000Y1511785D02*
Y1520219D01*
X2087000Y1510765D02*
Y1519199D01*
X2088000Y1510552D02*
Y1518180D01*
X2089000Y1511533D02*
Y1517160D01*
X2090000Y1512514D02*
Y1516140D01*
X2091000Y1513494D02*
Y1515121D01*
X2071446Y1509757D02*
X2079165Y1501886D01*
X2083381Y1506022*
X2075662Y1513892*
X2071446Y1509757*
X2079165Y1501886D02*
X2079165D01*
X2078184Y1502886D02*
X2080184D01*
X2077203Y1503886D02*
X2081204D01*
X2076222Y1504886D02*
X2082223D01*
X2075241Y1505886D02*
X2083243D01*
X2074261Y1506886D02*
X2082532D01*
X2073280Y1507886D02*
X2081552D01*
X2072299Y1508886D02*
X2080571D01*
X2071578Y1509886D02*
X2079590D01*
X2072598Y1510886D02*
X2078609D01*
X2073617Y1511886D02*
X2077629D01*
X2074637Y1512886D02*
X2076648D01*
X2075657Y1513886D02*
X2075667D01*
X2072000Y1509191D02*
Y1510300D01*
X2073000Y1508172D02*
Y1511281D01*
X2074000Y1507152D02*
Y1512262D01*
X2075000Y1506133D02*
Y1513243D01*
X2076000Y1505113D02*
Y1513547D01*
X2077000Y1504093D02*
Y1512527D01*
X2078000Y1503074D02*
Y1511508D01*
X2079000Y1502054D02*
Y1510488D01*
X2080000Y1502706D02*
Y1509469D01*
X2081000Y1503687D02*
Y1508449D01*
X2082000Y1504667D02*
Y1507429D01*
X2083000Y1505648D02*
Y1506410D01*
X1935339Y1704945D02*
X1929744Y1714443D01*
X1924655Y1711446*
X1930250Y1701948*
X1935339Y1704945*
X1930206Y1702023D02*
X1930379D01*
X1929617Y1703023D02*
X1932076D01*
X1929028Y1704023D02*
X1933774D01*
X1928439Y1705023D02*
X1935293D01*
X1927850Y1706023D02*
X1934704D01*
X1927261Y1707023D02*
X1934114D01*
X1926672Y1708023D02*
X1933525D01*
X1926082Y1709023D02*
X1932936D01*
X1925493Y1710023D02*
X1932347D01*
X1924904Y1711023D02*
X1931758D01*
X1925635Y1712023D02*
X1931169D01*
X1927333Y1713023D02*
X1930580D01*
X1929031Y1714023D02*
X1929991D01*
X1924655Y1711446D02*
X1924655D01*
X1925655Y1709748D02*
Y1712035D01*
X1926655Y1708051D02*
Y1712624D01*
X1927655Y1706353D02*
Y1713213D01*
X1928655Y1704655D02*
Y1713802D01*
X1929655Y1702958D02*
Y1714391D01*
X1930655Y1702186D02*
Y1712896D01*
X1931655Y1702775D02*
Y1711198D01*
X1932655Y1703364D02*
Y1709500D01*
X1933655Y1703953D02*
Y1707803D01*
X1934655Y1704542D02*
Y1706105D01*
X1945515Y1710939D02*
X1939920Y1720438D01*
X1934832Y1717440*
X1940427Y1707942*
X1945515Y1710939*
X1940379Y1708023D02*
X1940564D01*
X1939790Y1709023D02*
X1942262D01*
X1939201Y1710023D02*
X1943960D01*
X1938612Y1711023D02*
X1945466D01*
X1938023Y1712023D02*
X1944877D01*
X1937434Y1713023D02*
X1944288D01*
X1936845Y1714023D02*
X1943699D01*
X1936256Y1715023D02*
X1943110D01*
X1935667Y1716023D02*
X1942521D01*
X1935078Y1717023D02*
X1941932D01*
X1935821Y1718023D02*
X1941343D01*
X1937519Y1719023D02*
X1940754D01*
X1939217Y1720023D02*
X1940165D01*
X1934832Y1717440D02*
X1934832D01*
X1935832Y1715743D02*
Y1718029D01*
X1936832Y1714045D02*
Y1718619D01*
X1937832Y1712347D02*
Y1719208D01*
X1938832Y1710650D02*
Y1719797D01*
X1939832Y1708952D02*
Y1720386D01*
X1940832Y1708181D02*
Y1718890D01*
X1941832Y1708770D02*
Y1717192D01*
X1942832Y1709359D02*
Y1715495D01*
X1943832Y1709948D02*
Y1713797D01*
X1944832Y1710537D02*
Y1712099D01*
X1887264Y1551087D02*
X1877043Y1546958D01*
X1879255Y1541482*
X1889476Y1545612*
X1887264Y1551087*
X1879255Y1541482D02*
X1879255D01*
X1878851Y1542482D02*
X1881730D01*
X1878447Y1543482D02*
X1884205D01*
X1878043Y1544482D02*
X1886680D01*
X1877639Y1545482D02*
X1889155D01*
X1877235Y1546482D02*
X1889124D01*
X1878341Y1547482D02*
X1888720D01*
X1880816Y1548482D02*
X1888316D01*
X1883291Y1549482D02*
X1887912D01*
X1885766Y1550482D02*
X1887508D01*
X1877043Y1546958D02*
X1877043D01*
X1878043Y1544483D02*
Y1547362D01*
X1879043Y1542008D02*
Y1547766D01*
X1880043Y1541801D02*
Y1548170D01*
X1881043Y1542205D02*
Y1548574D01*
X1882043Y1542609D02*
Y1548978D01*
X1883043Y1543013D02*
Y1549382D01*
X1884043Y1543417D02*
Y1549786D01*
X1885043Y1543821D02*
Y1550190D01*
X1886043Y1544225D02*
Y1550594D01*
X1887043Y1544629D02*
Y1550998D01*
X1888043Y1545033D02*
Y1549159D01*
X1889043Y1545437D02*
Y1546684D01*
X1882839Y1562038D02*
X1872618Y1557909D01*
X1874830Y1552433*
X1885051Y1556563*
X1882839Y1562038*
X1874830Y1552433D02*
X1874830D01*
X1874426Y1553433D02*
X1877305D01*
X1874022Y1554433D02*
X1879781D01*
X1873618Y1555433D02*
X1882256D01*
X1873214Y1556433D02*
X1884731D01*
X1872810Y1557433D02*
X1884700D01*
X1873916Y1558433D02*
X1884296D01*
X1876391Y1559433D02*
X1883892D01*
X1878866Y1560433D02*
X1883487D01*
X1881342Y1561433D02*
X1883083D01*
X1872618Y1557909D02*
X1872618D01*
X1873618Y1555434D02*
Y1558313D01*
X1874618Y1552959D02*
Y1558717D01*
X1875618Y1552752D02*
Y1559121D01*
X1876618Y1553156D02*
Y1559525D01*
X1877618Y1553560D02*
Y1559929D01*
X1878618Y1553964D02*
Y1560333D01*
X1879618Y1554368D02*
Y1560737D01*
X1880618Y1554772D02*
Y1561141D01*
X1881618Y1555176D02*
Y1561545D01*
X1882618Y1555580D02*
Y1561949D01*
X1883618Y1555984D02*
Y1560110D01*
X1884618Y1556388D02*
Y1557635D01*
X1958741Y1481930D02*
X1962148Y1492414D01*
X1956531Y1494239*
X1953125Y1483755*
X1958741Y1481930*
X1958741*
X1955664Y1482930D02*
X1959066D01*
X1953182Y1483930D02*
X1959391D01*
X1953507Y1484930D02*
X1959716D01*
X1953832Y1485930D02*
X1960041D01*
X1954156Y1486930D02*
X1960366D01*
X1954481Y1487930D02*
X1960691D01*
X1954806Y1488930D02*
X1961016D01*
X1955131Y1489930D02*
X1961341D01*
X1955456Y1490930D02*
X1961666D01*
X1955781Y1491930D02*
X1961990D01*
X1956106Y1492930D02*
X1960560D01*
X1956431Y1493930D02*
X1957482D01*
X1953125Y1483755D02*
X1953125D01*
X1954125Y1483430D02*
Y1486833D01*
X1955125Y1483105D02*
Y1489911D01*
X1956125Y1482780D02*
Y1492988D01*
X1957125Y1482455D02*
Y1494046D01*
X1958125Y1482131D02*
Y1493721D01*
X1959125Y1483111D02*
Y1493397D01*
X1960125Y1486188D02*
Y1493072D01*
X1961125Y1489266D02*
Y1492747D01*
X1962125Y1492344D02*
Y1492422D01*
X1969974Y1478280D02*
X1973381Y1488765D01*
X1967764Y1490589*
X1964358Y1480105*
X1969974Y1478280*
X1969974*
X1966897Y1479280D02*
X1970299D01*
X1964415Y1480280D02*
X1970624D01*
X1964740Y1481280D02*
X1970949D01*
X1965064Y1482280D02*
X1971274D01*
X1965389Y1483280D02*
X1971599D01*
X1965714Y1484280D02*
X1971924D01*
X1966039Y1485280D02*
X1972249D01*
X1966364Y1486280D02*
X1972574D01*
X1966689Y1487280D02*
X1972898D01*
X1967014Y1488280D02*
X1973223D01*
X1967339Y1489280D02*
X1971793D01*
X1967664Y1490280D02*
X1968715D01*
X1964358Y1480105D02*
X1964358D01*
X1965358Y1479780D02*
Y1483183D01*
X1966358Y1479456D02*
Y1486261D01*
X1967358Y1479131D02*
Y1489338D01*
X1968358Y1478806D02*
Y1490397D01*
X1969358Y1478481D02*
Y1490072D01*
X1970358Y1479461D02*
Y1489747D01*
X1971358Y1482539D02*
Y1489422D01*
X1972358Y1485616D02*
Y1489097D01*
X1973358Y1488694D02*
Y1488772D01*
X2069414Y1486345D02*
X2063573Y1495694D01*
X2058564Y1492564*
X2064406Y1483216*
X2069414Y1486345*
X2064406Y1483216D02*
X2064406D01*
X2063781Y1484216D02*
X2066006D01*
X2063156Y1485216D02*
X2067607D01*
X2062532Y1486216D02*
X2069207D01*
X2061907Y1487216D02*
X2068870D01*
X2061282Y1488216D02*
X2068245D01*
X2060657Y1489216D02*
X2067621D01*
X2060032Y1490216D02*
X2066996D01*
X2059407Y1491216D02*
X2066371D01*
X2058782Y1492216D02*
X2065746D01*
X2059607Y1493216D02*
X2065121D01*
X2061207Y1494216D02*
X2064496D01*
X2062808Y1495216D02*
X2063871D01*
X2059000Y1491867D02*
Y1492836D01*
X2060000Y1490267D02*
Y1493461D01*
X2061000Y1488667D02*
Y1494086D01*
X2062000Y1487066D02*
Y1494711D01*
X2063000Y1485466D02*
Y1495336D01*
X2064000Y1483866D02*
Y1495010D01*
X2065000Y1483587D02*
Y1493409D01*
X2066000Y1484212D02*
Y1491809D01*
X2067000Y1484836D02*
Y1490209D01*
X2068000Y1485461D02*
Y1488608D01*
X2069000Y1486086D02*
Y1487008D01*
X2079431Y1492604D02*
X2073589Y1501952D01*
X2068581Y1498823*
X2074422Y1489474*
X2079431Y1492604*
X2074422Y1489474D02*
X2074422D01*
X2073798Y1490474D02*
X2076023D01*
X2073173Y1491474D02*
X2077623D01*
X2072548Y1492474D02*
X2079223D01*
X2071923Y1493474D02*
X2078887D01*
X2071298Y1494474D02*
X2078262D01*
X2070673Y1495474D02*
X2077637D01*
X2070048Y1496474D02*
X2077012D01*
X2069423Y1497474D02*
X2076387D01*
X2068799Y1498474D02*
X2075762D01*
X2069623Y1499474D02*
X2075137D01*
X2071224Y1500474D02*
X2074513D01*
X2072824Y1501474D02*
X2073888D01*
X2069000Y1498152D02*
Y1499085D01*
X2070000Y1496552D02*
Y1499710D01*
X2071000Y1494952D02*
Y1500335D01*
X2072000Y1493351D02*
Y1500960D01*
X2073000Y1491751D02*
Y1501584D01*
X2074000Y1490151D02*
Y1501295D01*
X2075000Y1489835D02*
Y1499694D01*
X2076000Y1490460D02*
Y1498094D01*
X2077000Y1491085D02*
Y1496494D01*
X2078000Y1491710D02*
Y1494893D01*
X2079000Y1492335D02*
Y1493293D01*
X2104147Y1516400D02*
X2095460Y1523187D01*
X2091825Y1518533*
X2100511Y1511746*
X2104147Y1516400*
X2100511Y1511746D02*
X2100511D01*
X2099231Y1512746D02*
X2101293D01*
X2097952Y1513746D02*
X2102074D01*
X2096672Y1514746D02*
X2102855D01*
X2095392Y1515746D02*
X2103637D01*
X2094112Y1516746D02*
X2103704D01*
X2092832Y1517746D02*
X2102424D01*
X2091991Y1518746D02*
X2101144D01*
X2092773Y1519746D02*
X2099864D01*
X2093554Y1520746D02*
X2098584D01*
X2094335Y1521746D02*
X2097304D01*
X2095116Y1522746D02*
X2096024D01*
X2092000Y1518396D02*
Y1518757D01*
X2093000Y1517615D02*
Y1520037D01*
X2094000Y1516833D02*
Y1521317D01*
X2095000Y1516052D02*
Y1522597D01*
X2096000Y1515271D02*
Y1522765D01*
X2097000Y1514489D02*
Y1521984D01*
X2098000Y1513708D02*
Y1521202D01*
X2099000Y1512927D02*
Y1520421D01*
X2100000Y1512146D02*
Y1519640D01*
X2101000Y1512371D02*
Y1518859D01*
X2102000Y1513651D02*
Y1518077D01*
X2103000Y1514931D02*
Y1517296D01*
X2104000Y1516211D02*
Y1516515D01*
X2111419Y1525707D02*
X2102732Y1532494D01*
X2099096Y1527840*
X2107783Y1521053*
X2111419Y1525707*
X2107783Y1521053D02*
X2107783D01*
X2106503Y1522053D02*
X2108564D01*
X2105223Y1523053D02*
X2109346D01*
X2103943Y1524053D02*
X2110127D01*
X2102663Y1525053D02*
X2110908D01*
X2101383Y1526053D02*
X2110975D01*
X2100103Y1527053D02*
X2109695D01*
X2099263Y1528053D02*
X2108416D01*
X2100044Y1529053D02*
X2107136D01*
X2100825Y1530053D02*
X2105856D01*
X2101607Y1531053D02*
X2104576D01*
X2102388Y1532053D02*
X2103296D01*
X2100000Y1527134D02*
Y1528997D01*
X2101000Y1526353D02*
Y1530277D01*
X2102000Y1525571D02*
Y1531557D01*
X2103000Y1524790D02*
Y1532284D01*
X2104000Y1524009D02*
Y1531503D01*
X2105000Y1523228D02*
Y1530722D01*
X2106000Y1522446D02*
Y1529941D01*
X2107000Y1521665D02*
Y1529159D01*
X2108000Y1521331D02*
Y1528378D01*
X2109000Y1522611D02*
Y1527597D01*
X2110000Y1523891D02*
Y1526815D01*
X2111000Y1525171D02*
Y1526034D01*
X2080887Y1693318D02*
X2074100Y1684632D01*
X2078753Y1680996*
X2085540Y1689682*
X2080887Y1693318*
X2078718Y1681023D02*
X2078775D01*
X2077438Y1682023D02*
X2079556D01*
X2076159Y1683023D02*
X2080337D01*
X2074879Y1684023D02*
X2081119D01*
X2074406Y1685023D02*
X2081900D01*
X2075187Y1686023D02*
X2082681D01*
X2075968Y1687023D02*
X2083463D01*
X2076750Y1688023D02*
X2084244D01*
X2077531Y1689023D02*
X2085025D01*
X2078312Y1690023D02*
X2085104D01*
X2079094Y1691023D02*
X2083824D01*
X2079875Y1692023D02*
X2082544D01*
X2080656Y1693023D02*
X2081264D01*
X2075000Y1683928D02*
Y1685784D01*
X2076000Y1683147D02*
Y1687064D01*
X2077000Y1682366D02*
Y1688344D01*
X2078000Y1681584D02*
Y1689623D01*
X2079000Y1681311D02*
Y1690903D01*
X2080000Y1682591D02*
Y1692183D01*
X2081000Y1683871D02*
Y1693230D01*
X2082000Y1685151D02*
Y1692448D01*
X2083000Y1686431D02*
Y1691667D01*
X2084000Y1687711D02*
Y1690886D01*
X2085000Y1688991D02*
Y1690105D01*
X2071579Y1700590D02*
X2064793Y1691903D01*
X2069446Y1688267*
X2076233Y1696954*
X2071579Y1700590*
X2068479Y1689023D02*
X2070037D01*
X2067199Y1690023D02*
X2070818D01*
X2065919Y1691023D02*
X2071599D01*
X2064886Y1692023D02*
X2072381D01*
X2065668Y1693023D02*
X2073162D01*
X2066449Y1694023D02*
X2073943D01*
X2067230Y1695023D02*
X2074724D01*
X2068012Y1696023D02*
X2075506D01*
X2068793Y1697023D02*
X2076145D01*
X2069574Y1698023D02*
X2074865D01*
X2070355Y1699023D02*
X2073585D01*
X2071137Y1700023D02*
X2072305D01*
X2065000Y1691741D02*
Y1692169D01*
X2066000Y1690960D02*
Y1693448D01*
X2067000Y1690179D02*
Y1694728D01*
X2068000Y1689397D02*
Y1696008D01*
X2069000Y1688616D02*
Y1697288D01*
X2070000Y1688976D02*
Y1698568D01*
X2071000Y1690256D02*
Y1699848D01*
X2072000Y1691536D02*
Y1700261D01*
X2073000Y1692816D02*
Y1699480D01*
X2074000Y1694096D02*
Y1698699D01*
X2075000Y1695376D02*
Y1697917D01*
X2076000Y1696656D02*
Y1697136D01*
X2106762Y1661247D02*
X2097413Y1655405D01*
X2100543Y1650397*
X2109891Y1656239*
X2106762Y1661247*
X2100152Y1651023D02*
X2101545D01*
X2099527Y1652023D02*
X2103145D01*
X2098902Y1653023D02*
X2104745D01*
X2098277Y1654023D02*
X2106346D01*
X2097652Y1655023D02*
X2107946D01*
X2098402Y1656023D02*
X2109546D01*
X2100003Y1657023D02*
X2109401D01*
X2101603Y1658023D02*
X2108776D01*
X2103203Y1659023D02*
X2108152D01*
X2104804Y1660023D02*
X2107527D01*
X2106404Y1661023D02*
X2106902D01*
X2098000Y1654467D02*
Y1655772D01*
X2099000Y1652866D02*
Y1656397D01*
X2100000Y1651266D02*
Y1657022D01*
X2101000Y1650683D02*
Y1657646D01*
X2102000Y1651308D02*
Y1658271D01*
X2103000Y1651933D02*
Y1658896D01*
X2104000Y1652557D02*
Y1659521D01*
X2105000Y1653182D02*
Y1660146D01*
X2106000Y1653807D02*
Y1660771D01*
X2107000Y1654432D02*
Y1660866D01*
X2108000Y1655057D02*
Y1659266D01*
X2109000Y1655682D02*
Y1657665D01*
X2100503Y1671263D02*
X2091155Y1665422D01*
X2094284Y1660413*
X2103633Y1666255*
X2100503Y1671263*
X2093903Y1661023D02*
X2095260D01*
X2093278Y1662023D02*
X2096860D01*
X2092653Y1663023D02*
X2098460D01*
X2092028Y1664023D02*
X2100061D01*
X2091404Y1665023D02*
X2101661D01*
X2092117Y1666023D02*
X2103261D01*
X2093718Y1667023D02*
X2103153D01*
X2095318Y1668023D02*
X2102528D01*
X2096918Y1669023D02*
X2101903D01*
X2098519Y1670023D02*
X2101278D01*
X2100119Y1671023D02*
X2100653D01*
X2092000Y1664069D02*
Y1665950D01*
X2093000Y1662468D02*
Y1666575D01*
X2094000Y1660868D02*
Y1667200D01*
X2095000Y1660861D02*
Y1667825D01*
X2096000Y1661486D02*
Y1668449D01*
X2097000Y1662111D02*
Y1669074D01*
X2098000Y1662735D02*
Y1669699D01*
X2099000Y1663360D02*
Y1670324D01*
X2100000Y1663985D02*
Y1670949D01*
X2101000Y1664610D02*
Y1670468D01*
X2102000Y1665235D02*
Y1668868D01*
X2103000Y1665860D02*
Y1667267D01*
X2125354Y1647174D02*
X2115133Y1643045D01*
X2117345Y1637569*
X2127566Y1641699*
X2125354Y1647174*
X2117162Y1638023D02*
X2118469D01*
X2116758Y1639023D02*
X2120944D01*
X2116354Y1640023D02*
X2123419D01*
X2115950Y1641023D02*
X2125894D01*
X2115546Y1642023D02*
X2127435D01*
X2115142Y1643023D02*
X2127031D01*
X2117555Y1644023D02*
X2126627D01*
X2120030Y1645023D02*
X2126223D01*
X2122505Y1646023D02*
X2125819D01*
X2124980Y1647023D02*
X2125415D01*
X2116000Y1640899D02*
Y1643395D01*
X2117000Y1638424D02*
Y1643799D01*
X2118000Y1637834D02*
Y1644203D01*
X2119000Y1638238D02*
Y1644607D01*
X2120000Y1638642D02*
Y1645011D01*
X2121000Y1639046D02*
Y1645415D01*
X2122000Y1639450D02*
Y1645819D01*
X2123000Y1639854D02*
Y1646223D01*
X2124000Y1640258D02*
Y1646627D01*
X2125000Y1640662D02*
Y1647031D01*
X2126000Y1641066D02*
Y1645575D01*
X2127000Y1641470D02*
Y1643100D01*
X2120930Y1658125D02*
X2110709Y1653996D01*
X2112921Y1648520*
X2123142Y1652650*
X2120930Y1658125*
X2112718Y1649023D02*
X2114166D01*
X2112314Y1650023D02*
X2116641D01*
X2111910Y1651023D02*
X2119116D01*
X2111506Y1652023D02*
X2121591D01*
X2111102Y1653023D02*
X2122991D01*
X2110776Y1654023D02*
X2122587D01*
X2113252Y1655023D02*
X2122183D01*
X2115727Y1656023D02*
X2121779D01*
X2118202Y1657023D02*
X2121375D01*
X2120677Y1658023D02*
X2120971D01*
X2111000Y1653275D02*
Y1654113D01*
X2112000Y1650799D02*
Y1654517D01*
X2113000Y1648552D02*
Y1654922D01*
X2114000Y1648956D02*
Y1655326D01*
X2115000Y1649360D02*
Y1655730D01*
X2116000Y1649764D02*
Y1656134D01*
X2117000Y1650168D02*
Y1656538D01*
X2118000Y1650572D02*
Y1656942D01*
X2119000Y1650976D02*
Y1657346D01*
X2120000Y1651380D02*
Y1657750D01*
X2121000Y1651784D02*
Y1657951D01*
X2122000Y1652188D02*
Y1655476D01*
X2123000Y1652592D02*
Y1653001D01*
X2108403Y1539791D02*
X2098670Y1544967D01*
X2095897Y1539752*
X2105631Y1534577*
X2108403Y1539791*
X2105631Y1534577D02*
X2105631D01*
X2103750Y1535577D02*
X2106162D01*
X2101869Y1536577D02*
X2106694D01*
X2099988Y1537577D02*
X2107226D01*
X2098108Y1538577D02*
X2107757D01*
X2096227Y1539577D02*
X2108289D01*
X2096336Y1540577D02*
X2106925D01*
X2096868Y1541577D02*
X2105045D01*
X2097399Y1542577D02*
X2103164D01*
X2097931Y1543577D02*
X2101283D01*
X2098463Y1544577D02*
X2099402D01*
X2096000Y1539698D02*
Y1539945D01*
X2097000Y1539166D02*
Y1541826D01*
X2098000Y1538634D02*
Y1543707D01*
X2099000Y1538103D02*
Y1544791D01*
X2100000Y1537571D02*
Y1544259D01*
X2101000Y1537039D02*
Y1543728D01*
X2102000Y1536507D02*
Y1543196D01*
X2103000Y1535976D02*
Y1542664D01*
X2104000Y1535444D02*
Y1542132D01*
X2105000Y1534912D02*
Y1541601D01*
X2106000Y1535272D02*
Y1541069D01*
X2107000Y1537152D02*
Y1540537D01*
X2108000Y1539033D02*
Y1540006D01*
X2113948Y1550220D02*
X2104215Y1555395D01*
X2101442Y1550181*
X2111176Y1545006*
X2113948Y1550220*
X2111176Y1545006D02*
X2111176D01*
X2109295Y1546006D02*
X2111707D01*
X2107414Y1547006D02*
X2112239D01*
X2105533Y1548006D02*
X2112771D01*
X2103653Y1549006D02*
X2113302D01*
X2101772Y1550006D02*
X2113834D01*
X2101881Y1551006D02*
X2112470D01*
X2102412Y1552006D02*
X2110590D01*
X2102944Y1553006D02*
X2108709D01*
X2103476Y1554006D02*
X2106828D01*
X2104008Y1555006D02*
X2104947D01*
X2102000Y1549884D02*
Y1551230D01*
X2103000Y1549353D02*
Y1553110D01*
X2104000Y1548821D02*
Y1554991D01*
X2105000Y1548289D02*
Y1554977D01*
X2106000Y1547757D02*
Y1554446D01*
X2107000Y1547226D02*
Y1553914D01*
X2108000Y1546694D02*
Y1553382D01*
X2109000Y1546162D02*
Y1552851D01*
X2110000Y1545631D02*
Y1552319D01*
X2111000Y1545099D02*
Y1551787D01*
X2112000Y1546556D02*
Y1551256D01*
X2113000Y1548437D02*
Y1550724D01*
X2095277Y1645852D02*
X2090998Y1629880D01*
X2097082Y1628250*
X2101362Y1644222*
X2095277Y1645852*
X2094197Y1629023D02*
X2097289D01*
X2091036Y1630023D02*
X2097557D01*
X2091304Y1631023D02*
X2097825D01*
X2091572Y1632023D02*
X2098093D01*
X2091840Y1633023D02*
X2098361D01*
X2092108Y1634023D02*
X2098629D01*
X2092376Y1635023D02*
X2098897D01*
X2092644Y1636023D02*
X2099165D01*
X2092912Y1637023D02*
X2099433D01*
X2093180Y1638023D02*
X2099701D01*
X2093447Y1639023D02*
X2099969D01*
X2093715Y1640023D02*
X2100237D01*
X2093983Y1641023D02*
X2100505D01*
X2094251Y1642023D02*
X2100773D01*
X2094519Y1643023D02*
X2101041D01*
X2094787Y1644023D02*
X2101309D01*
X2095055Y1645023D02*
X2098372D01*
X2091000Y1629880D02*
Y1629889D01*
X2092000Y1629612D02*
Y1633621D01*
X2093000Y1629344D02*
Y1637353D01*
X2094000Y1629076D02*
Y1641085D01*
X2095000Y1628808D02*
Y1644817D01*
X2096000Y1628540D02*
Y1645659D01*
X2097000Y1628272D02*
Y1645391D01*
X2098000Y1631675D02*
Y1645123D01*
X2099000Y1635407D02*
Y1644855D01*
X2100000Y1639139D02*
Y1644587D01*
X2101000Y1642871D02*
Y1644319D01*
X2018287Y1621962D02*
X2029979Y1610269D01*
X2034433Y1614724*
X2022741Y1626416*
X2018287Y1621962*
X2029226Y1611023D02*
X2030733D01*
X2028226Y1612023D02*
X2031733D01*
X2027226Y1613023D02*
X2032733D01*
X2026226Y1614023D02*
X2033733D01*
X2025226Y1615023D02*
X2034134D01*
X2024226Y1616023D02*
X2033134D01*
X2023226Y1617023D02*
X2032134D01*
X2022226Y1618023D02*
X2031134D01*
X2021226Y1619023D02*
X2030134D01*
X2020226Y1620023D02*
X2029134D01*
X2019226Y1621023D02*
X2028134D01*
X2018348Y1622023D02*
X2027134D01*
X2019348Y1623023D02*
X2026134D01*
X2020348Y1624023D02*
X2025134D01*
X2021348Y1625023D02*
X2024134D01*
X2022348Y1626023D02*
X2023134D01*
X2019000Y1621249D02*
Y1622675D01*
X2020000Y1620249D02*
Y1623675D01*
X2021000Y1619249D02*
Y1624675D01*
X2022000Y1618249D02*
Y1625675D01*
X2023000Y1617249D02*
Y1626157D01*
X2024000Y1616249D02*
Y1625157D01*
X2025000Y1615249D02*
Y1624157D01*
X2026000Y1614249D02*
Y1623157D01*
X2027000Y1613249D02*
Y1622157D01*
X2028000Y1612249D02*
Y1621157D01*
X2029000Y1611249D02*
Y1620157D01*
X2030000Y1610290D02*
Y1619157D01*
X2031000Y1611290D02*
Y1618157D01*
X2032000Y1612290D02*
Y1617157D01*
X2033000Y1613290D02*
Y1616157D01*
X2034000Y1614290D02*
Y1615157D01*
X2037898Y1682981D02*
X2053870Y1687261D01*
X2052239Y1693345*
X2036267Y1689066*
X2037898Y1682981*
X2037886Y1683023D02*
X2038055D01*
X2037618Y1684023D02*
X2041787D01*
X2037351Y1685023D02*
X2045519D01*
X2037083Y1686023D02*
X2049251D01*
X2036815Y1687023D02*
X2052983D01*
X2036547Y1688023D02*
X2053665D01*
X2036279Y1689023D02*
X2053397D01*
X2039841Y1690023D02*
X2053130D01*
X2043573Y1691023D02*
X2052862D01*
X2047305Y1692023D02*
X2052594D01*
X2051037Y1693023D02*
X2052326D01*
X2037000Y1686331D02*
Y1689262D01*
X2038000Y1683008D02*
Y1689530D01*
X2039000Y1683276D02*
Y1689798D01*
X2040000Y1683544D02*
Y1690066D01*
X2041000Y1683812D02*
Y1690334D01*
X2042000Y1684080D02*
Y1690602D01*
X2043000Y1684348D02*
Y1690870D01*
X2044000Y1684616D02*
Y1691138D01*
X2045000Y1684884D02*
Y1691406D01*
X2046000Y1685152D02*
Y1691673D01*
X2047000Y1685420D02*
Y1691941D01*
X2048000Y1685688D02*
Y1692209D01*
X2049000Y1685956D02*
Y1692477D01*
X2050000Y1686224D02*
Y1692745D01*
X2051000Y1686492D02*
Y1693013D01*
X2052000Y1686760D02*
Y1693281D01*
X2053000Y1687028D02*
Y1690507D01*
X1910863Y1627026D02*
X1905208Y1642565D01*
X1899288Y1640410*
X1904944Y1624872*
X1910863Y1627026*
X1904889Y1625023D02*
X1905360D01*
X1904525Y1626023D02*
X1908107D01*
X1904161Y1627023D02*
X1910855D01*
X1903797Y1628023D02*
X1910500D01*
X1903433Y1629023D02*
X1910136D01*
X1903069Y1630023D02*
X1909772D01*
X1902705Y1631023D02*
X1909408D01*
X1902341Y1632023D02*
X1909044D01*
X1901977Y1633023D02*
X1908681D01*
X1901613Y1634023D02*
X1908317D01*
X1901249Y1635023D02*
X1907953D01*
X1900885Y1636023D02*
X1907589D01*
X1900521Y1637023D02*
X1907225D01*
X1900157Y1638023D02*
X1906861D01*
X1899793Y1639023D02*
X1906497D01*
X1899429Y1640023D02*
X1906133D01*
X1900973Y1641023D02*
X1905769D01*
X1903720Y1642023D02*
X1905405D01*
X1899288Y1640410D02*
X1899288D01*
X1900288Y1637663D02*
Y1640774D01*
X1901288Y1634915D02*
Y1641138D01*
X1902288Y1632168D02*
Y1641502D01*
X1903288Y1629420D02*
Y1641866D01*
X1904288Y1626673D02*
Y1642230D01*
X1905288Y1624997D02*
Y1642343D01*
X1906288Y1625361D02*
Y1639595D01*
X1907288Y1625725D02*
Y1636848D01*
X1908288Y1626089D02*
Y1634100D01*
X1909288Y1626453D02*
Y1631353D01*
X1910288Y1626817D02*
Y1628605D01*
X1960227Y1690756D02*
X1943943Y1693628D01*
X1942849Y1687424*
X1959133Y1684553*
X1960227Y1690756*
X1956466Y1685023D02*
X1959216D01*
X1950794Y1686023D02*
X1959392D01*
X1945123Y1687023D02*
X1959569D01*
X1942954Y1688023D02*
X1959745D01*
X1943131Y1689023D02*
X1959921D01*
X1943307Y1690023D02*
X1960098D01*
X1943483Y1691023D02*
X1958714D01*
X1943660Y1692023D02*
X1953042D01*
X1943836Y1693023D02*
X1947371D01*
X1942849Y1687424D02*
X1942849D01*
X1943849Y1687248D02*
Y1693095D01*
X1944849Y1687071D02*
Y1693468D01*
X1945849Y1686895D02*
Y1693292D01*
X1946849Y1686719D02*
Y1693115D01*
X1947849Y1686542D02*
Y1692939D01*
X1948849Y1686366D02*
Y1692763D01*
X1949849Y1686190D02*
Y1692586D01*
X1950849Y1686014D02*
Y1692410D01*
X1951849Y1685837D02*
Y1692234D01*
X1952849Y1685661D02*
Y1692057D01*
X1953849Y1685485D02*
Y1691881D01*
X1954849Y1685308D02*
Y1691705D01*
X1955849Y1685132D02*
Y1691528D01*
X1956849Y1684956D02*
Y1691352D01*
X1957849Y1684779D02*
Y1691176D01*
X1958849Y1684603D02*
Y1690999D01*
X1959849Y1688612D02*
Y1690823D01*
X1979162Y1629524D02*
X1968533Y1616857D01*
X1973359Y1612808*
X1983987Y1625475*
X1979162Y1629524*
X1973102Y1613023D02*
X1973539D01*
X1971911Y1614023D02*
X1974378D01*
X1970719Y1615023D02*
X1975217D01*
X1969527Y1616023D02*
X1976056D01*
X1968673Y1617023D02*
X1976896D01*
X1969512Y1618023D02*
X1977735D01*
X1970351Y1619023D02*
X1978574D01*
X1971190Y1620023D02*
X1979413D01*
X1972029Y1621023D02*
X1980252D01*
X1972868Y1622023D02*
X1981091D01*
X1973707Y1623023D02*
X1981930D01*
X1974546Y1624023D02*
X1982769D01*
X1975385Y1625023D02*
X1983608D01*
X1976224Y1626023D02*
X1983334D01*
X1977064Y1627023D02*
X1982142D01*
X1977903Y1628023D02*
X1980951D01*
X1978742Y1629023D02*
X1979759D01*
X1968533Y1616857D02*
X1968533D01*
X1969533Y1616018D02*
Y1618049D01*
X1970533Y1615179D02*
Y1619241D01*
X1971533Y1614340D02*
Y1620432D01*
X1972533Y1613501D02*
Y1621624D01*
X1973533Y1613016D02*
Y1622816D01*
X1974533Y1614208D02*
Y1624008D01*
X1975533Y1615400D02*
Y1625199D01*
X1976533Y1616591D02*
Y1626391D01*
X1977533Y1617783D02*
Y1627583D01*
X1978533Y1618975D02*
Y1628775D01*
X1979533Y1620167D02*
Y1629212D01*
X1980533Y1621358D02*
Y1628373D01*
X1981533Y1622550D02*
Y1627534D01*
X1982533Y1623742D02*
Y1626695D01*
X1983533Y1624934D02*
Y1625856D01*
X2021187Y1721389D02*
X2023290Y1732210D01*
X2017493Y1733337*
X2015390Y1722516*
X2021187Y1721389*
X2017923Y1722023D02*
X2021310D01*
X2015489Y1723023D02*
X2021505D01*
X2015683Y1724023D02*
X2021699D01*
X2015877Y1725023D02*
X2021893D01*
X2016072Y1726023D02*
X2022088D01*
X2016266Y1727023D02*
X2022282D01*
X2016461Y1728023D02*
X2022477D01*
X2016655Y1729023D02*
X2022671D01*
X2016849Y1730023D02*
X2022865D01*
X2017044Y1731023D02*
X2023060D01*
X2017238Y1732023D02*
X2023254D01*
X2017432Y1733023D02*
X2019106D01*
X2016000Y1722397D02*
Y1725654D01*
X2017000Y1722203D02*
Y1730799D01*
X2018000Y1722008D02*
Y1733238D01*
X2019000Y1721814D02*
Y1733044D01*
X2020000Y1721619D02*
Y1732849D01*
X2021000Y1721425D02*
Y1732655D01*
X2022000Y1725571D02*
Y1732461D01*
X2023000Y1730716D02*
Y1732266D01*
X2032781Y1719135D02*
X2034884Y1729956D01*
X2029087Y1731083*
X2026984Y1720262*
X2032781Y1719135*
X2028212Y1720023D02*
X2032954D01*
X2027132Y1721023D02*
X2033148D01*
X2027326Y1722023D02*
X2033342D01*
X2027521Y1723023D02*
X2033537D01*
X2027715Y1724023D02*
X2033731D01*
X2027909Y1725023D02*
X2033926D01*
X2028104Y1726023D02*
X2034120D01*
X2028298Y1727023D02*
X2034314D01*
X2028493Y1728023D02*
X2034509D01*
X2028687Y1729023D02*
X2034703D01*
X2028881Y1730023D02*
X2034540D01*
X2029076Y1731023D02*
X2029395D01*
X2027000Y1720259D02*
Y1720344D01*
X2028000Y1720064D02*
Y1725489D01*
X2029000Y1719870D02*
Y1730633D01*
X2030000Y1719676D02*
Y1730906D01*
X2031000Y1719481D02*
Y1730711D01*
X2032000Y1719287D02*
Y1730517D01*
X2033000Y1720262D02*
Y1730322D01*
X2034000Y1725406D02*
Y1730128D01*
X1902521Y1655533D02*
X1892974Y1661045D01*
X1890022Y1655931*
X1899568Y1650419*
X1902521Y1655533*
X1898522Y1651023D02*
X1899917D01*
X1896789Y1652023D02*
X1900495D01*
X1895057Y1653023D02*
X1901072D01*
X1893325Y1654023D02*
X1901649D01*
X1891593Y1655023D02*
X1902227D01*
X1890075Y1656023D02*
X1901672D01*
X1890652Y1657023D02*
X1899940D01*
X1891230Y1658023D02*
X1898208D01*
X1891807Y1659023D02*
X1896476D01*
X1892384Y1660023D02*
X1894744D01*
X1892962Y1661023D02*
X1893012D01*
X1890022Y1655931D02*
X1890022D01*
X1891022Y1655353D02*
Y1657663D01*
X1892022Y1654776D02*
Y1659395D01*
X1893022Y1654199D02*
Y1661018D01*
X1894022Y1653621D02*
Y1660440D01*
X1895022Y1653044D02*
Y1659863D01*
X1896022Y1652466D02*
Y1659286D01*
X1897022Y1651889D02*
Y1658708D01*
X1898022Y1651312D02*
Y1658131D01*
X1899022Y1650734D02*
Y1657553D01*
X1900022Y1651204D02*
Y1656976D01*
X1901022Y1652936D02*
Y1656399D01*
X1902022Y1654668D02*
Y1655821D01*
X1908427Y1665762D02*
X1898880Y1671274D01*
X1895927Y1666159*
X1905474Y1660647*
X1908427Y1665762*
X1904823Y1661023D02*
X1905691D01*
X1903091Y1662023D02*
X1906268D01*
X1901359Y1663023D02*
X1906846D01*
X1899627Y1664023D02*
X1907423D01*
X1897895Y1665023D02*
X1908000D01*
X1896163Y1666023D02*
X1907974D01*
X1896426Y1667023D02*
X1906242D01*
X1897003Y1668023D02*
X1904510D01*
X1897581Y1669023D02*
X1902778D01*
X1898158Y1670023D02*
X1901046D01*
X1898735Y1671023D02*
X1899314D01*
X1895927Y1666159D02*
X1895927D01*
X1896927Y1665582D02*
Y1667891D01*
X1897927Y1665004D02*
Y1669623D01*
X1898927Y1664427D02*
Y1671246D01*
X1899927Y1663850D02*
Y1670669D01*
X1900927Y1663272D02*
Y1670092D01*
X1901927Y1662695D02*
Y1669514D01*
X1902927Y1662118D02*
Y1668937D01*
X1903927Y1661540D02*
Y1668359D01*
X1904927Y1660963D02*
Y1667782D01*
X1905927Y1661432D02*
Y1667205D01*
X1906927Y1663165D02*
Y1666627D01*
X1907927Y1664897D02*
Y1666050D01*
X1925201Y1684702D02*
X1918414Y1693389D01*
X1913760Y1689753*
X1920547Y1681067*
X1925201Y1684702*
X1919800Y1682023D02*
X1921772D01*
X1919019Y1683023D02*
X1923052D01*
X1918237Y1684023D02*
X1924332D01*
X1917456Y1685023D02*
X1924950D01*
X1916675Y1686023D02*
X1924169D01*
X1915894Y1687023D02*
X1923388D01*
X1915112Y1688023D02*
X1922606D01*
X1914331Y1689023D02*
X1921825D01*
X1914106Y1690023D02*
X1921044D01*
X1915386Y1691023D02*
X1920263D01*
X1916666Y1692023D02*
X1919481D01*
X1917946Y1693023D02*
X1918700D01*
X1913760Y1689753D02*
X1913760D01*
X1914760Y1688473D02*
Y1690535D01*
X1915760Y1687193D02*
Y1691316D01*
X1916760Y1685914D02*
Y1692097D01*
X1917760Y1684634D02*
Y1692878D01*
X1918760Y1683354D02*
Y1692946D01*
X1919760Y1682074D02*
Y1691666D01*
X1920760Y1681233D02*
Y1690386D01*
X1921760Y1682014D02*
Y1689106D01*
X1922760Y1682796D02*
Y1687826D01*
X1923760Y1683577D02*
Y1686546D01*
X1924760Y1684358D02*
Y1685266D01*
X1934508Y1691974D02*
X1927721Y1700661D01*
X1923068Y1697025*
X1929855Y1688338*
X1934508Y1691974*
X1929319Y1689023D02*
X1930731D01*
X1928538Y1690023D02*
X1932011D01*
X1927757Y1691023D02*
X1933291D01*
X1926976Y1692023D02*
X1934470D01*
X1926194Y1693023D02*
X1933688D01*
X1925413Y1694023D02*
X1932907D01*
X1924632Y1695023D02*
X1932126D01*
X1923850Y1696023D02*
X1931345D01*
X1923069Y1697023D02*
X1930563D01*
X1924345Y1698023D02*
X1929782D01*
X1925625Y1699023D02*
X1929001D01*
X1926905Y1700023D02*
X1928219D01*
X1923068Y1697025D02*
X1923068D01*
X1924068Y1695745D02*
Y1697806D01*
X1925068Y1694465D02*
Y1698588D01*
X1926068Y1693185D02*
Y1699369D01*
X1927068Y1691905D02*
Y1700150D01*
X1928068Y1690625D02*
Y1700217D01*
X1929068Y1689345D02*
Y1698937D01*
X1930068Y1688505D02*
Y1697657D01*
X1931068Y1689286D02*
Y1696378D01*
X1932068Y1690067D02*
Y1695098D01*
X1933068Y1690849D02*
Y1693818D01*
X1934068Y1691630D02*
Y1692538D01*
X1936017Y1483164D02*
X1941192Y1492897D01*
X1935978Y1495670*
X1930803Y1485937*
X1936017Y1483164*
X1936017*
X1934136Y1484164D02*
X1936549D01*
X1932255Y1485164D02*
X1937080D01*
X1930924Y1486164D02*
X1937612D01*
X1931455Y1487164D02*
X1938144D01*
X1931987Y1488164D02*
X1938675D01*
X1932519Y1489164D02*
X1939207D01*
X1933050Y1490164D02*
X1939739D01*
X1933582Y1491164D02*
X1940270D01*
X1934114Y1492164D02*
X1940802D01*
X1934645Y1493164D02*
X1940690D01*
X1935177Y1494164D02*
X1938810D01*
X1935709Y1495164D02*
X1936929D01*
X1930803Y1485937D02*
X1930803D01*
X1931803Y1485405D02*
Y1487817D01*
X1932803Y1484873D02*
Y1489698D01*
X1933803Y1484341D02*
Y1491579D01*
X1934803Y1483810D02*
Y1493459D01*
X1935803Y1483278D02*
Y1495340D01*
X1936803Y1484642D02*
Y1495231D01*
X1937803Y1486523D02*
Y1494700D01*
X1938803Y1488403D02*
Y1494168D01*
X1939803Y1490284D02*
Y1493636D01*
X1940803Y1492165D02*
Y1493104D01*
X1946445Y1477619D02*
X1951621Y1487352D01*
X1946406Y1490125*
X1941231Y1480392*
X1946445Y1477619*
X1946445*
X1944565Y1478619D02*
X1946977D01*
X1942684Y1479619D02*
X1947509D01*
X1941352Y1480619D02*
X1948040D01*
X1941884Y1481619D02*
X1948572D01*
X1942415Y1482619D02*
X1949104D01*
X1942947Y1483619D02*
X1949636D01*
X1943479Y1484619D02*
X1950167D01*
X1944011Y1485619D02*
X1950699D01*
X1944542Y1486619D02*
X1951231D01*
X1945074Y1487619D02*
X1951119D01*
X1945606Y1488619D02*
X1949238D01*
X1946137Y1489619D02*
X1947358D01*
X1941231Y1480392D02*
X1941231D01*
X1942231Y1479860D02*
Y1482272D01*
X1943231Y1479328D02*
Y1484153D01*
X1944231Y1478796D02*
Y1486034D01*
X1945231Y1478265D02*
Y1487915D01*
X1946231Y1477733D02*
Y1489795D01*
X1947231Y1479097D02*
Y1489686D01*
X1948231Y1480978D02*
Y1489155D01*
X1949231Y1482858D02*
Y1488623D01*
X1950231Y1484739D02*
Y1488091D01*
X1951231Y1486620D02*
Y1487560D01*
X1972641Y1719987D02*
X1970727Y1730844D01*
X1964911Y1729818*
X1966825Y1718962*
X1972641Y1719987*
X1966814Y1719023D02*
X1967172D01*
X1966638Y1720023D02*
X1972635D01*
X1966462Y1721023D02*
X1972458D01*
X1966285Y1722023D02*
X1972282D01*
X1966109Y1723023D02*
X1972106D01*
X1965933Y1724023D02*
X1971929D01*
X1965756Y1725023D02*
X1971753D01*
X1965580Y1726023D02*
X1971577D01*
X1965404Y1727023D02*
X1971400D01*
X1965227Y1728023D02*
X1971224D01*
X1965051Y1729023D02*
X1971048D01*
X1966073Y1730023D02*
X1970871D01*
X1964911Y1729818D02*
X1964911D01*
X1965911Y1724147D02*
Y1729994D01*
X1966911Y1718977D02*
Y1730171D01*
X1967911Y1719153D02*
Y1730347D01*
X1968911Y1719330D02*
Y1730523D01*
X1969911Y1719506D02*
Y1730700D01*
X1970911Y1719682D02*
Y1729799D01*
X1971911Y1719859D02*
Y1724128D01*
X1984272Y1722038D02*
X1982358Y1732895D01*
X1976542Y1731869*
X1978457Y1721013*
X1984272Y1722038*
X1978455Y1721023D02*
X1978514D01*
X1978279Y1722023D02*
X1984186D01*
X1978102Y1723023D02*
X1984099D01*
X1977926Y1724023D02*
X1983923D01*
X1977750Y1725023D02*
X1983746D01*
X1977573Y1726023D02*
X1983570D01*
X1977397Y1727023D02*
X1983394D01*
X1977221Y1728023D02*
X1983217D01*
X1977044Y1729023D02*
X1983041D01*
X1976868Y1730023D02*
X1982865D01*
X1976692Y1731023D02*
X1982688D01*
X1977416Y1732023D02*
X1982512D01*
X1976542Y1731869D02*
X1976542D01*
X1977542Y1726198D02*
Y1732045D01*
X1978542Y1721028D02*
Y1732222D01*
X1979542Y1721204D02*
Y1732398D01*
X1980542Y1721381D02*
Y1732574D01*
X1981542Y1721557D02*
Y1732751D01*
X1982542Y1721733D02*
Y1731850D01*
X1983542Y1721910D02*
Y1726179D01*
X1978223Y1468427D02*
X1979757Y1479343D01*
X1973909Y1480165*
X1972375Y1469249*
X1978223Y1468427*
X1978223*
X1972400Y1469427D02*
X1978363D01*
X1972540Y1470427D02*
X1978504D01*
X1972681Y1471427D02*
X1978644D01*
X1972821Y1472427D02*
X1978785D01*
X1972962Y1473427D02*
X1978926D01*
X1973103Y1474427D02*
X1979066D01*
X1973243Y1475427D02*
X1979207D01*
X1973384Y1476427D02*
X1979347D01*
X1973524Y1477427D02*
X1979488D01*
X1973665Y1478427D02*
X1979628D01*
X1973805Y1479427D02*
X1979162D01*
X1972375Y1469249D02*
X1972375D01*
X1973375Y1469108D02*
Y1476364D01*
X1974375Y1468968D02*
Y1480100D01*
X1975375Y1468827D02*
Y1479959D01*
X1976375Y1468687D02*
Y1479819D01*
X1977375Y1468546D02*
Y1479678D01*
X1978375Y1469508D02*
Y1479538D01*
X1979375Y1476624D02*
Y1479397D01*
X1989919Y1466783D02*
X1991453Y1477700D01*
X1985605Y1478521*
X1984071Y1467605*
X1989919Y1466783*
X1989919*
X1984096Y1467783D02*
X1990059D01*
X1984236Y1468783D02*
X1990200D01*
X1984377Y1469783D02*
X1990341D01*
X1984518Y1470783D02*
X1990481D01*
X1984658Y1471783D02*
X1990622D01*
X1984799Y1472783D02*
X1990762D01*
X1984939Y1473783D02*
X1990903D01*
X1985080Y1474783D02*
X1991043D01*
X1985220Y1475783D02*
X1991184D01*
X1985361Y1476783D02*
X1991324D01*
X1985501Y1477783D02*
X1990858D01*
X1984071Y1467605D02*
X1984071D01*
X1985071Y1467465D02*
Y1474720D01*
X1986071Y1467324D02*
Y1478456D01*
X1987071Y1467183D02*
Y1478315D01*
X1988071Y1467043D02*
Y1478175D01*
X1989071Y1466902D02*
Y1478034D01*
X1990071Y1467864D02*
Y1477894D01*
X1991071Y1474980D02*
Y1477753D01*
X2024420Y1469543D02*
X2022128Y1480326D01*
X2016352Y1479098*
X2018644Y1468315*
X2024420Y1469543*
X2018644Y1468315D02*
X2018644D01*
X2018431Y1469315D02*
X2023349D01*
X2018219Y1470315D02*
X2024256D01*
X2018006Y1471315D02*
X2024044D01*
X2017794Y1472315D02*
X2023831D01*
X2017581Y1473315D02*
X2023619D01*
X2017369Y1474315D02*
X2023406D01*
X2017156Y1475315D02*
X2023193D01*
X2016943Y1476315D02*
X2022981D01*
X2016731Y1477315D02*
X2022768D01*
X2016518Y1478315D02*
X2022556D01*
X2017374Y1479315D02*
X2022343D01*
X2022079Y1480315D02*
X2022131D01*
X2017000Y1476049D02*
Y1479235D01*
X2018000Y1471344D02*
Y1479448D01*
X2019000Y1468391D02*
Y1479661D01*
X2020000Y1468603D02*
Y1479873D01*
X2021000Y1468816D02*
Y1480086D01*
X2022000Y1469028D02*
Y1480298D01*
X2023000Y1469241D02*
Y1476225D01*
X2024000Y1469453D02*
Y1471521D01*
X2035973Y1471998D02*
X2033681Y1482781D01*
X2027905Y1481553*
X2030197Y1470771*
X2035973Y1471998*
X2030197Y1470771D02*
X2030197D01*
X2029984Y1471771D02*
X2034901D01*
X2029772Y1472771D02*
X2035809D01*
X2029559Y1473771D02*
X2035597D01*
X2029347Y1474771D02*
X2035384D01*
X2029134Y1475771D02*
X2035172D01*
X2028922Y1476771D02*
X2034959D01*
X2028709Y1477771D02*
X2034746D01*
X2028496Y1478771D02*
X2034534D01*
X2028284Y1479771D02*
X2034321D01*
X2028071Y1480771D02*
X2034109D01*
X2028927Y1481771D02*
X2033896D01*
X2033632Y1482771D02*
X2033684D01*
X2028000Y1481106D02*
Y1481574D01*
X2029000Y1476401D02*
Y1481786D01*
X2030000Y1471697D02*
Y1481999D01*
X2031000Y1470941D02*
Y1482211D01*
X2032000Y1471154D02*
Y1482424D01*
X2033000Y1471366D02*
Y1482636D01*
X2034000Y1471579D02*
Y1481282D01*
X2035000Y1471792D02*
Y1476578D01*
X2125872Y1556565D02*
X2115388Y1559971D01*
X2113563Y1554355*
X2124047Y1550948*
X2125872Y1556565*
X2124047Y1550948D02*
X2124047D01*
X2120969Y1551948D02*
X2124372D01*
X2117892Y1552948D02*
X2124697D01*
X2114814Y1553948D02*
X2125022D01*
X2113756Y1554948D02*
X2125347D01*
X2114081Y1555948D02*
X2125672D01*
X2114406Y1556948D02*
X2124692D01*
X2114730Y1557948D02*
X2121614D01*
X2115055Y1558948D02*
X2118536D01*
X2115380Y1559948D02*
X2115458D01*
X2114000Y1554213D02*
Y1555700D01*
X2115000Y1553888D02*
Y1558778D01*
X2116000Y1553563D02*
Y1559772D01*
X2117000Y1553238D02*
Y1559447D01*
X2118000Y1552913D02*
Y1559122D01*
X2119000Y1552588D02*
Y1558798D01*
X2120000Y1552263D02*
Y1558473D01*
X2121000Y1551938D02*
Y1558148D01*
X2122000Y1551613D02*
Y1557823D01*
X2123000Y1551288D02*
Y1557498D01*
X2124000Y1550963D02*
Y1557173D01*
X2125000Y1553881D02*
Y1556848D01*
X2129522Y1567798D02*
X2119038Y1571204D01*
X2117213Y1565588*
X2127697Y1562181*
X2129522Y1567798*
X2127697Y1562181D02*
X2127697D01*
X2124619Y1563181D02*
X2128022D01*
X2121541Y1564181D02*
X2128347D01*
X2118464Y1565181D02*
X2128672D01*
X2117406Y1566181D02*
X2128996D01*
X2117730Y1567181D02*
X2129321D01*
X2118055Y1568181D02*
X2128341D01*
X2118380Y1569181D02*
X2125264D01*
X2118705Y1570181D02*
X2122186D01*
X2119030Y1571181D02*
X2119108D01*
X2118000Y1565332D02*
Y1568011D01*
X2119000Y1565007D02*
Y1571088D01*
X2120000Y1564682D02*
Y1570891D01*
X2121000Y1564357D02*
Y1570567D01*
X2122000Y1564032D02*
Y1570242D01*
X2123000Y1563707D02*
Y1569917D01*
X2124000Y1563382D02*
Y1569592D01*
X2125000Y1563057D02*
Y1569267D01*
X2126000Y1562732D02*
Y1568942D01*
X2127000Y1562408D02*
Y1568617D01*
X2128000Y1563114D02*
Y1568292D01*
X2129000Y1566192D02*
Y1567967D01*
X2059536Y1707687D02*
X2065048Y1717234D01*
X2059934Y1720187*
X2054422Y1710640*
X2059536Y1707687*
X2058955Y1708023D02*
X2059730D01*
X2057223Y1709023D02*
X2060307D01*
X2055491Y1710023D02*
X2060885D01*
X2054643Y1711023D02*
X2061462D01*
X2055220Y1712023D02*
X2062040D01*
X2055798Y1713023D02*
X2062617D01*
X2056375Y1714023D02*
X2063194D01*
X2056952Y1715023D02*
X2063772D01*
X2057530Y1716023D02*
X2064349D01*
X2058107Y1717023D02*
X2064926D01*
X2058685Y1718023D02*
X2063681D01*
X2059262Y1719023D02*
X2061949D01*
X2059839Y1720023D02*
X2060217D01*
X2055000Y1710306D02*
Y1711641D01*
X2056000Y1709729D02*
Y1713373D01*
X2057000Y1709152D02*
Y1715105D01*
X2058000Y1708574D02*
Y1716837D01*
X2059000Y1707997D02*
Y1718570D01*
X2060000Y1708491D02*
Y1720149D01*
X2061000Y1710223D02*
Y1719571D01*
X2062000Y1711955D02*
Y1718994D01*
X2063000Y1713687D02*
Y1718417D01*
X2064000Y1715419D02*
Y1717839D01*
X2065000Y1717151D02*
Y1717262D01*
X2069765Y1701782D02*
X2075277Y1711329D01*
X2070162Y1714281*
X2064651Y1704735*
X2069765Y1701782*
X2069347Y1702023D02*
X2069904D01*
X2067615Y1703023D02*
X2070482D01*
X2065883Y1704023D02*
X2071059D01*
X2064817Y1705023D02*
X2071636D01*
X2065395Y1706023D02*
X2072214D01*
X2065972Y1707023D02*
X2072791D01*
X2066549Y1708023D02*
X2073368D01*
X2067127Y1709023D02*
X2073946D01*
X2067704Y1710023D02*
X2074523D01*
X2068281Y1711023D02*
X2075100D01*
X2068859Y1712023D02*
X2074074D01*
X2069436Y1713023D02*
X2072342D01*
X2070013Y1714023D02*
X2070610D01*
X2065000Y1704533D02*
Y1705340D01*
X2066000Y1703956D02*
Y1707072D01*
X2067000Y1703378D02*
Y1708804D01*
X2068000Y1702801D02*
Y1710536D01*
X2069000Y1702223D02*
Y1712268D01*
X2070000Y1702189D02*
Y1714000D01*
X2071000Y1703921D02*
Y1713798D01*
X2072000Y1705653D02*
Y1713220D01*
X2073000Y1707385D02*
Y1712643D01*
X2074000Y1709117D02*
Y1712066D01*
X2075000Y1710849D02*
Y1711488D01*
X2136220Y1600000D02*
G75*
G03X2136220I-136220J0D01*
G01X1940676Y1563249D02*
G03X1940676I-4331J0D01*
G01X2005118Y1629528D02*
G03X2005118I-5118J0D01*
G01X1890945Y1628088D02*
G03X1890945I-5118J0D01*
G01X2119291D02*
G03X2119291I-5118J0D01*
G01X2052362Y1704860D02*
G03X2052362I-5118J0D01*
G01X1957874D02*
G03X1957874I-5118J0D01*
G01X2004331Y1673502D02*
G03X2004331I-4331J0D01*
G01X2067985Y1563249D02*
G03X2067985I-4330J0D01*
G01X2078160Y1556579D02*
G03X2078160I-2952J0D01*
G01X1949652Y1569157D02*
G03X1949652I-3070J0D01*
G54D76*
G01X1895160Y1582383D03*
Y1572383D03*
Y1562383D03*
Y1552383D03*
X1905160Y1592383D03*
Y1582383D03*
Y1572383D03*
Y1562383D03*
Y1552383D03*
G54D86*
X2055870Y1647852D03*
X1944291Y1647991D03*
G54D88*
X1925212Y1537017D03*
X1894966Y1610273D03*
G54D89*
X2043081Y1582454D03*
Y1594265D03*
G54D92*
X2094488Y1582912D03*
Y1602991D03*
G54D104*
X1895160Y1592383D03*
G54D110*
X1943573Y1604468D02*
X1943576D01*
X1901980Y1597425D02*
X1901982D01*
X1944068Y1647991D02*
X1944071D01*
X1910160Y1572383D02*
X1910163D01*
G54D124*
X1935483Y1591524D03*
X1955440Y1541864D03*
G54D138*
X1935483Y1583650D03*
X1947566Y1541864D03*
G54D564*
X1978931Y1513994D03*
G54D565*
Y1510254D03*
Y1506514D03*
X1968104D03*
Y1510254D03*
Y1513994D03*
G54D797*
X1991878Y1510342D03*
Y1504142D03*
X2000864Y1510342D03*
Y1504142D03*
G54D798*
X1977091Y1501681D03*
X1970891D03*
G54D807*
X1936027Y1513537D03*
Y1504537D03*
X1926894Y1513537D03*
Y1504537D03*
G54D809*
X1951135Y1526936D03*
Y1508629D03*
G54D827*
X2000090Y1692502D03*
Y1716124D03*
G54D828*
X1980405Y1704313D03*
G54D832*
X1908038Y1536032D03*
X1896227D03*
G54D833*
X2026641Y1700267D03*
Y1712078D03*
X1882448Y1568713D03*
Y1580524D03*
X2113282Y1598431D03*
Y1610242D03*
G54D839*
X2033465Y1662671D02*
X2050512Y1647670D01*
G74*
X0Y0D02*
M02*
