*
*
G04 PADS 9.5 Build Number: 522968 generated Gerber (RS-274-X) file*
G04 PC Version=2.1*
*
%IN "QCD_PowerBank_001B_V02_"*%
*
%MOIN*%
*
%FSLAX35Y35*%
*
*
*
*
G04 PC Standard Apertures*
*
*
G04 Thermal Relief Aperture macro.*
%AMTER*
1,1,$1,0,0*
1,0,$1-$2,0,0*
21,0,$3,$4,0,0,45*
21,0,$3,$4,0,0,135*
%
*
*
G04 Annular Aperture macro.*
%AMANN*
1,1,$1,0,0*
1,0,$2,0,0*
%
*
*
G04 Odd Aperture macro.*
%AMODD*
1,1,$1,0,0*
1,0,$1-0.005,0,0*
%
*
*
G04 PC Custom Aperture Macros*
*
*
*
*
*
*
G04 PC Aperture Table*
*
%ADD046R,0.036X0.036*%
%ADD047C,0.01*%
%ADD110C,0.001*%
%ADD276R,0.17717X0.17717*%
%ADD342R,0.06X0.15748*%
%ADD364R,0.036X0.05*%
%ADD598R,0.07874X0.11811*%
%ADD770R,0.06X0.05*%
%ADD771R,0.05X0.06*%
%ADD782R,0.03X0.038*%
%ADD783R,0.038X0.03*%
%ADD817R,0.07874X0.06693*%
%ADD822R,0.08661X0.05906*%
%ADD834R,0.024X0.074*%
%ADD835R,0.13819X0.10315*%
*
*
*
*
G04 PC Circuitry*
G04 Layer Name QCD_PowerBank_001B_V02_ - circuitry*
%LPD*%
*
*
G04 PC Custom Flashes*
G04 Layer Name QCD_PowerBank_001B_V02_ - flashes*
%LPD*%
*
*
G04 PC Circuitry*
G04 Layer Name QCD_PowerBank_001B_V02_ - circuitry*
%LPD*%
*
G54D46*
G01X2070779Y1513857D03*
X2063279D03*
X2038694Y1492780D03*
X2031194D03*
G54D47*
X2136220Y1600000D02*
G75*
G03X2136220I-136220J0D01*
G01X1940676Y1563249D02*
G03X1940676I-4331J0D01*
G01X2005118Y1629528D02*
G03X2005118I-5118J0D01*
G01X1890945Y1628088D02*
G03X1890945I-5118J0D01*
G01X2119291D02*
G03X2119291I-5118J0D01*
G01X2052362Y1704860D02*
G03X2052362I-5118J0D01*
G01X1957874D02*
G03X1957874I-5118J0D01*
G01X2004331Y1673502D02*
G03X2004331I-4331J0D01*
G01X2067985Y1563249D02*
G03X2067985I-4330J0D01*
G01X2078160Y1556579D02*
G03X2078160I-2952J0D01*
G01X1949652Y1569157D02*
G03X1949652I-3070J0D01*
G54D110*
G54D276*
G01X1961024Y1579912D03*
X1992913D03*
G54D342*
X1975236Y1521405D03*
X1964846Y1521322D03*
G54D364*
X2067029Y1505857D03*
X2034944Y1484780D03*
G54D598*
X1970077Y1543068D03*
X1996455D03*
G54D770*
X1946247Y1517019D03*
X1955247D03*
G54D771*
X2013106Y1501103D03*
Y1492103D03*
X2047482Y1515867D03*
Y1506867D03*
X2039902Y1515867D03*
Y1506867D03*
X2021205Y1501103D03*
Y1492103D03*
X2094479Y1588335D03*
Y1597335D03*
G54D782*
X2007144Y1552077D03*
Y1558277D03*
X2030437Y1531544D03*
Y1525344D03*
X2023450Y1531548D03*
Y1525348D03*
X2015547Y1531548D03*
Y1525348D03*
X2007657Y1585017D03*
Y1591217D03*
X2044237Y1488449D03*
Y1494649D03*
X2057879Y1504318D03*
Y1510518D03*
X1916515Y1597317D03*
Y1603517D03*
G54D783*
X1962596Y1501522D03*
X1956396D03*
X2043526Y1547661D03*
X2037326D03*
Y1540735D03*
X2043526D03*
Y1567014D03*
X2037326D03*
X2069859Y1519549D03*
X2063659D03*
X2038077Y1498201D03*
X2031877D03*
G54D817*
X2082577Y1592871D03*
X2064270D03*
X2082577Y1578698D03*
X2064270D03*
G54D822*
X2019399Y1598597D03*
Y1582849D03*
G54D834*
X2013464Y1540770D03*
X2018464D03*
X2023464D03*
X2028464D03*
Y1563370D03*
X2023464D03*
X2018464D03*
X2013464D03*
G54D835*
X2021020Y1551987D03*
G74*
X0Y0D02*
M02*
