*
*
G04 PADS 9.5 Build Number: 522968 generated Gerber (RS-274-X) file*
G04 PC Version=2.1*
*
%IN "QCD_PowerBank_001B_V02_"*%
*
%MOIN*%
*
%FSLAX35Y35*%
*
*
*
*
G04 PC Standard Apertures*
*
*
G04 Thermal Relief Aperture macro.*
%AMTER*
1,1,$1,0,0*
1,0,$1-$2,0,0*
21,0,$3,$4,0,0,45*
21,0,$3,$4,0,0,135*
%
*
*
G04 Annular Aperture macro.*
%AMANN*
1,1,$1,0,0*
1,0,$2,0,0*
%
*
*
G04 Odd Aperture macro.*
%AMODD*
1,1,$1,0,0*
1,0,$1-0.005,0,0*
%
*
*
G04 PC Custom Aperture Macros*
*
*
*
*
*
*
G04 PC Aperture Table*
*
%ADD047C,0.01*%
%ADD110C,0.001*%
%ADD529O,0.05905X0.01968*%
%ADD530R,0.05905X0.01968*%
%ADD771R,0.05X0.06*%
%ADD782R,0.03X0.038*%
%ADD783R,0.038X0.03*%
%ADD792R,0.06693X0.07874*%
%ADD823R,0.05906X0.11024*%
%ADD824R,0.11024X0.05906*%
*
*
*
*
G04 PC Circuitry*
G04 Layer Name QCD_PowerBank_001B_V02_ - circuitry*
%LPD*%
*
*
G04 PC Custom Flashes*
G04 Layer Name QCD_PowerBank_001B_V02_ - flashes*
%LPD*%
*
*
G04 PC Circuitry*
G04 Layer Name QCD_PowerBank_001B_V02_ - circuitry*
%LPD*%
*
G54D47*
G01X1904000Y1677142D02*
X1896346Y1683614D01*
X1893178Y1679869*
X1900832Y1673396*
X1904000Y1677142*
X1900091Y1674023D02*
X1901362D01*
X1898908Y1675023D02*
X1902208D01*
X1897726Y1676023D02*
X1903053D01*
X1896543Y1677023D02*
X1903899D01*
X1895361Y1678023D02*
X1902958D01*
X1894178Y1679023D02*
X1901775D01*
X1893309Y1680023D02*
X1900593D01*
X1894155Y1681023D02*
X1899410D01*
X1895000Y1682023D02*
X1898228D01*
X1895846Y1683023D02*
X1897045D01*
X1893178Y1679869D02*
X1893178D01*
X1894178Y1679023D02*
Y1681051D01*
X1895178Y1678177D02*
Y1682234D01*
X1896178Y1677332D02*
Y1683416D01*
X1897178Y1676486D02*
Y1682911D01*
X1898178Y1675641D02*
Y1682065D01*
X1899178Y1674795D02*
Y1681219D01*
X1900178Y1673949D02*
Y1680374D01*
X1901178Y1673806D02*
Y1679528D01*
X1902178Y1674988D02*
Y1678682D01*
X1903178Y1676171D02*
Y1677837D01*
X1911626Y1686161D02*
X1903972Y1692633D01*
X1900805Y1688887*
X1908459Y1682415*
X1911626Y1686161*
X1907740Y1683023D02*
X1908973D01*
X1906557Y1684023D02*
X1909819D01*
X1905374Y1685023D02*
X1910664D01*
X1904192Y1686023D02*
X1911510D01*
X1903009Y1687023D02*
X1910606D01*
X1901827Y1688023D02*
X1909424D01*
X1900920Y1689023D02*
X1908241D01*
X1901765Y1690023D02*
X1907059D01*
X1902611Y1691023D02*
X1905876D01*
X1903457Y1692023D02*
X1904694D01*
X1900805Y1688887D02*
X1900805D01*
X1901805Y1688042D02*
Y1690070D01*
X1902805Y1687196D02*
Y1691253D01*
X1903805Y1686351D02*
Y1692435D01*
X1904805Y1685505D02*
Y1691929D01*
X1905805Y1684659D02*
Y1691084D01*
X1906805Y1683814D02*
Y1690238D01*
X1907805Y1682968D02*
Y1689392D01*
X1908805Y1682824D02*
Y1688547D01*
X1909805Y1684007D02*
Y1687701D01*
X1910805Y1685189D02*
Y1686855D01*
X2102522Y1684132D02*
X2095073Y1677424D01*
X2098356Y1673779*
X2105805Y1680486*
X2102522Y1684132*
X2098136Y1674023D02*
X2098627D01*
X2097235Y1675023D02*
X2099738D01*
X2096335Y1676023D02*
X2100848D01*
X2095435Y1677023D02*
X2101959D01*
X2095738Y1678023D02*
X2103069D01*
X2096849Y1679023D02*
X2104180D01*
X2097959Y1680023D02*
X2105291D01*
X2099070Y1681023D02*
X2105321D01*
X2100181Y1682023D02*
X2104421D01*
X2101291Y1683023D02*
X2103520D01*
X2102402Y1684023D02*
X2102620D01*
X2096000Y1676395D02*
Y1678259D01*
X2097000Y1675285D02*
Y1679159D01*
X2098000Y1674174D02*
Y1680060D01*
X2099000Y1674359D02*
Y1680960D01*
X2100000Y1675259D02*
Y1681860D01*
X2101000Y1676160D02*
Y1682761D01*
X2102000Y1677060D02*
Y1683661D01*
X2103000Y1677961D02*
Y1683601D01*
X2104000Y1678861D02*
Y1682490D01*
X2105000Y1679761D02*
Y1681380D01*
X2094619Y1692909D02*
X2087170Y1686202D01*
X2090453Y1682556*
X2097902Y1689263*
X2094619Y1692909*
X2090032Y1683023D02*
X2090971D01*
X2089132Y1684023D02*
X2092082D01*
X2088231Y1685023D02*
X2093192D01*
X2087331Y1686023D02*
X2094303D01*
X2088082Y1687023D02*
X2095414D01*
X2089193Y1688023D02*
X2096524D01*
X2090304Y1689023D02*
X2097635D01*
X2091414Y1690023D02*
X2097217D01*
X2092525Y1691023D02*
X2096317D01*
X2093636Y1692023D02*
X2095417D01*
X2088000Y1685280D02*
Y1686949D01*
X2089000Y1684169D02*
Y1687849D01*
X2090000Y1683059D02*
Y1688750D01*
X2091000Y1683049D02*
Y1689650D01*
X2092000Y1683949D02*
Y1690551D01*
X2093000Y1684850D02*
Y1691451D01*
X2094000Y1685750D02*
Y1692351D01*
X2095000Y1686651D02*
Y1692486D01*
X2096000Y1687551D02*
Y1691375D01*
X2097000Y1688452D02*
Y1690265D01*
X2132314Y1601062D02*
X2122297Y1600712D01*
X2122468Y1595809*
X2132485Y1596159*
X2132314Y1601062*
X2122468Y1595809D02*
X2122468D01*
X2122433Y1596809D02*
X2132463D01*
X2122398Y1597809D02*
X2132428D01*
X2122363Y1598809D02*
X2132393D01*
X2122328Y1599809D02*
X2132358D01*
X2125088Y1600809D02*
X2132323D01*
X2123000Y1595828D02*
Y1600736D01*
X2124000Y1595863D02*
Y1600771D01*
X2125000Y1595898D02*
Y1600806D01*
X2126000Y1595933D02*
Y1600841D01*
X2127000Y1595967D02*
Y1600876D01*
X2128000Y1596002D02*
Y1600911D01*
X2129000Y1596037D02*
Y1600946D01*
X2130000Y1596072D02*
Y1600981D01*
X2131000Y1596107D02*
Y1601016D01*
X2132000Y1596142D02*
Y1601051D01*
X2131902Y1612865D02*
X2121884Y1612516D01*
X2122056Y1607613*
X2132073Y1607963*
X2131902Y1612865*
X2122041Y1608023D02*
X2132071D01*
X2122006Y1609023D02*
X2132036D01*
X2121971Y1610023D02*
X2132001D01*
X2121936Y1611023D02*
X2131966D01*
X2121902Y1612023D02*
X2131931D01*
X2122000Y1609204D02*
Y1612520D01*
X2123000Y1607646D02*
Y1612555D01*
X2124000Y1607681D02*
Y1612589D01*
X2125000Y1607716D02*
Y1612624D01*
X2126000Y1607751D02*
Y1612659D01*
X2127000Y1607786D02*
Y1612694D01*
X2128000Y1607821D02*
Y1612729D01*
X2129000Y1607856D02*
Y1612764D01*
X2130000Y1607890D02*
Y1612799D01*
X2131000Y1607925D02*
Y1612834D01*
X2132000Y1607960D02*
Y1610056D01*
X1883788Y1642177D02*
X1874478Y1645890D01*
X1872661Y1641334*
X1881971Y1637621*
X1883788Y1642177*
X1880962Y1638023D02*
X1882132D01*
X1878454Y1639023D02*
X1882530D01*
X1875947Y1640023D02*
X1882929D01*
X1873439Y1641023D02*
X1883328D01*
X1872936Y1642023D02*
X1883727D01*
X1873334Y1643023D02*
X1881667D01*
X1873733Y1644023D02*
X1879159D01*
X1874132Y1645023D02*
X1876652D01*
X1872661Y1641334D02*
X1872661D01*
X1873661Y1640935D02*
Y1643841D01*
X1874661Y1640536D02*
Y1645817D01*
X1875661Y1640137D02*
Y1645418D01*
X1876661Y1639738D02*
Y1645020D01*
X1877661Y1639340D02*
Y1644621D01*
X1878661Y1638941D02*
Y1644222D01*
X1879661Y1638542D02*
Y1643823D01*
X1880661Y1638143D02*
Y1643425D01*
X1881661Y1637745D02*
Y1643026D01*
X1882661Y1639349D02*
Y1642627D01*
X1883661Y1641857D02*
Y1642228D01*
X1888163Y1653148D02*
X1878853Y1656861D01*
X1877036Y1652304*
X1886346Y1648592*
X1888163Y1653148*
X1885264Y1649023D02*
X1886518D01*
X1882756Y1650023D02*
X1886917D01*
X1880249Y1651023D02*
X1887316D01*
X1877741Y1652023D02*
X1887715D01*
X1877322Y1653023D02*
X1888113D01*
X1877721Y1654023D02*
X1885969D01*
X1878120Y1655023D02*
X1883461D01*
X1878518Y1656023D02*
X1880954D01*
X1877036Y1652304D02*
X1877036D01*
X1878036Y1651906D02*
Y1654812D01*
X1879036Y1651507D02*
Y1656788D01*
X1880036Y1651108D02*
Y1656389D01*
X1881036Y1650709D02*
Y1655991D01*
X1882036Y1650311D02*
Y1655592D01*
X1883036Y1649912D02*
Y1655193D01*
X1884036Y1649513D02*
Y1654794D01*
X1885036Y1649114D02*
Y1654395D01*
X1886036Y1648715D02*
Y1653997D01*
X1887036Y1650320D02*
Y1653598D01*
X1888036Y1652828D02*
Y1653199D01*
X1876735Y1592841D02*
X1866718Y1592491D01*
X1866889Y1587589*
X1876906Y1587939*
X1876735Y1592841*
X1866889Y1587589D02*
X1866889D01*
X1866854Y1588589D02*
X1876884D01*
X1866819Y1589589D02*
X1876849D01*
X1866784Y1590589D02*
X1876814D01*
X1866749Y1591589D02*
X1876779D01*
X1869509Y1592589D02*
X1876744D01*
X1866718Y1592491D02*
X1866718D01*
X1867718Y1587618D02*
Y1592526D01*
X1868718Y1587653D02*
Y1592561D01*
X1869718Y1587688D02*
Y1592596D01*
X1870718Y1587723D02*
Y1592631D01*
X1871718Y1587758D02*
Y1592666D01*
X1872718Y1587792D02*
Y1592701D01*
X1873718Y1587827D02*
Y1592736D01*
X1874718Y1587862D02*
Y1592771D01*
X1875718Y1587897D02*
Y1592806D01*
X1876718Y1587932D02*
Y1592841D01*
X1876323Y1604645D02*
X1866306Y1604295D01*
X1866477Y1599393*
X1876494Y1599743*
X1876323Y1604645*
X1866477Y1599393D02*
X1866477D01*
X1866442Y1600393D02*
X1876472D01*
X1866407Y1601393D02*
X1876437D01*
X1866372Y1602393D02*
X1876402D01*
X1866337Y1603393D02*
X1876367D01*
X1869097Y1604393D02*
X1876332D01*
X1866306Y1604295D02*
X1866306D01*
X1867306Y1599422D02*
Y1604330D01*
X1868306Y1599457D02*
Y1604365D01*
X1869306Y1599492D02*
Y1604400D01*
X1870306Y1599526D02*
Y1604435D01*
X1871306Y1599561D02*
Y1604470D01*
X1872306Y1599596D02*
Y1604505D01*
X1873306Y1599631D02*
Y1604540D01*
X1874306Y1599666D02*
Y1604575D01*
X1875306Y1599701D02*
Y1604610D01*
X1876306Y1599736D02*
Y1604644D01*
X1911601Y1514285D02*
X1904152Y1507578D01*
X1907434Y1503933*
X1914883Y1510640*
X1911601Y1514285*
X1907434Y1503933D02*
X1907434D01*
X1906534Y1504933D02*
X1908545D01*
X1905634Y1505933D02*
X1909656D01*
X1904733Y1506933D02*
X1910766D01*
X1904546Y1507933D02*
X1911877D01*
X1905656Y1508933D02*
X1912988D01*
X1906767Y1509933D02*
X1914098D01*
X1907878Y1510933D02*
X1914620D01*
X1908988Y1511933D02*
X1913719D01*
X1910099Y1512933D02*
X1912819D01*
X1911209Y1513933D02*
X1911919D01*
X1904152Y1507578D02*
X1904152D01*
X1905152Y1506467D02*
Y1508478D01*
X1906152Y1505357D02*
Y1509379D01*
X1907152Y1504246D02*
Y1510279D01*
X1908152Y1504579D02*
Y1511180D01*
X1909152Y1505479D02*
Y1512080D01*
X1910152Y1506379D02*
Y1512980D01*
X1911152Y1507280D02*
Y1513881D01*
X1912152Y1508180D02*
Y1513673D01*
X1913152Y1509081D02*
Y1512563D01*
X1914152Y1509981D02*
Y1511452D01*
X1903698Y1523062D02*
X1896249Y1516355D01*
X1899531Y1512710*
X1906980Y1519417*
X1903698Y1523062*
X1899531Y1512710D02*
X1899531D01*
X1898631Y1513710D02*
X1900642D01*
X1897731Y1514710D02*
X1901753D01*
X1896830Y1515710D02*
X1902863D01*
X1896643Y1516710D02*
X1903974D01*
X1897753Y1517710D02*
X1905084D01*
X1898864Y1518710D02*
X1906195D01*
X1899974Y1519710D02*
X1906717D01*
X1901085Y1520710D02*
X1905816D01*
X1902196Y1521710D02*
X1904916D01*
X1903306Y1522710D02*
X1904015D01*
X1896249Y1516355D02*
X1896249D01*
X1897249Y1515245D02*
Y1517256D01*
X1898249Y1514134D02*
Y1518156D01*
X1899249Y1513023D02*
Y1519057D01*
X1900249Y1513356D02*
Y1519957D01*
X1901249Y1514256D02*
Y1520857D01*
X1902249Y1515157D02*
Y1521758D01*
X1903249Y1516057D02*
Y1522658D01*
X1904249Y1516958D02*
Y1522450D01*
X1905249Y1517858D02*
Y1521340D01*
X1906249Y1518758D02*
Y1520229D01*
X2000646Y1476082D02*
X2000297Y1486099D01*
X1995394Y1485928*
X1995744Y1475910*
X2000646Y1476082*
X1995744Y1475910D02*
X1995744D01*
X1995709Y1476910D02*
X2000618D01*
X1995674Y1477910D02*
X2000583D01*
X1995639Y1478910D02*
X2000548D01*
X1995604Y1479910D02*
X2000513D01*
X1995569Y1480910D02*
X2000478D01*
X1995534Y1481910D02*
X2000443D01*
X1995500Y1482910D02*
X2000408D01*
X1995465Y1483910D02*
X2000373D01*
X1995430Y1484910D02*
X2000338D01*
X1995395Y1485910D02*
X2000303D01*
X1995394Y1485928D02*
X1995394D01*
X1996394Y1475933D02*
Y1485963D01*
X1997394Y1475968D02*
Y1485998D01*
X1998394Y1476003D02*
Y1486033D01*
X1999394Y1476038D02*
Y1486068D01*
X2000394Y1476073D02*
Y1483308D01*
X2012450Y1476494D02*
X2012100Y1486511D01*
X2007198Y1486340*
X2007548Y1476323*
X2012450Y1476494*
X2007548Y1476323D02*
X2007548D01*
X2007513Y1477323D02*
X2012421D01*
X2007478Y1478323D02*
X2012386D01*
X2007443Y1479323D02*
X2012352D01*
X2007408Y1480323D02*
X2012317D01*
X2007373Y1481323D02*
X2012282D01*
X2007338Y1482323D02*
X2012247D01*
X2007303Y1483323D02*
X2012212D01*
X2007268Y1484323D02*
X2012177D01*
X2007233Y1485323D02*
X2012142D01*
X2007199Y1486323D02*
X2012107D01*
X2008000Y1476338D02*
Y1486368D01*
X2009000Y1476373D02*
Y1486403D01*
X2010000Y1476408D02*
Y1486438D01*
X2011000Y1476443D02*
Y1486473D01*
X2012000Y1476478D02*
Y1486508D01*
X2080585Y1518020D02*
X2087604Y1510864D01*
X2091106Y1514299*
X2084087Y1521455*
X2080585Y1518020*
X2087604Y1510864D02*
X2087604D01*
X2086623Y1511864D02*
X2088623D01*
X2085642Y1512864D02*
X2089643D01*
X2084661Y1513864D02*
X2090663D01*
X2083681Y1514864D02*
X2090552D01*
X2082700Y1515864D02*
X2089571D01*
X2081719Y1516864D02*
X2088590D01*
X2080738Y1517864D02*
X2087609D01*
X2081445Y1518864D02*
X2086629D01*
X2082465Y1519864D02*
X2085648D01*
X2083485Y1520864D02*
X2084667D01*
X2081000Y1517597D02*
Y1518427D01*
X2082000Y1516577D02*
Y1519408D01*
X2083000Y1515558D02*
Y1520388D01*
X2084000Y1514538D02*
Y1521369D01*
X2085000Y1513519D02*
Y1520524D01*
X2086000Y1512499D02*
Y1519505D01*
X2087000Y1511479D02*
Y1518485D01*
X2088000Y1511252D02*
Y1517465D01*
X2089000Y1512233D02*
Y1516446D01*
X2090000Y1513214D02*
Y1515426D01*
X2091000Y1514195D02*
Y1514407D01*
X2072153Y1509750D02*
X2079171Y1502593D01*
X2079171D02*
X2082674Y1506028D01*
X2075655Y1513185*
X2072153Y1509750*
X2079171Y1502593D02*
X2079171D01*
X2078191Y1503593D02*
X2080191D01*
X2077210Y1504593D02*
X2081211D01*
X2076229Y1505593D02*
X2082230D01*
X2075248Y1506593D02*
X2082119D01*
X2074268Y1507593D02*
X2081139D01*
X2073287Y1508593D02*
X2080158D01*
X2072306Y1509593D02*
X2079177D01*
X2073013Y1510593D02*
X2078196D01*
X2074033Y1511593D02*
X2077216D01*
X2075052Y1512593D02*
X2076235D01*
X2073000Y1508886D02*
Y1510581D01*
X2074000Y1507866D02*
Y1511561D01*
X2075000Y1506847D02*
Y1512542D01*
X2076000Y1505827D02*
Y1512833D01*
X2077000Y1504808D02*
Y1511813D01*
X2078000Y1503788D02*
Y1510794D01*
X2079000Y1502768D02*
Y1509774D01*
X2080000Y1503406D02*
Y1508754D01*
X2081000Y1504387D02*
Y1507735D01*
X2082000Y1505368D02*
Y1506715D01*
X1934654Y1705122D02*
X1929567Y1713759D01*
X1925340Y1711269*
X1930427Y1702632*
X1934654Y1705122*
X1930197Y1703023D02*
X1931091D01*
X1929608Y1704023D02*
X1932789D01*
X1929019Y1705023D02*
X1934486D01*
X1928430Y1706023D02*
X1934123D01*
X1927841Y1707023D02*
X1933534D01*
X1927252Y1708023D02*
X1932945D01*
X1926663Y1709023D02*
X1932356D01*
X1926074Y1710023D02*
X1931767D01*
X1925485Y1711023D02*
X1931178D01*
X1926621Y1712023D02*
X1930589D01*
X1928318Y1713023D02*
X1930000D01*
X1925340Y1711269D02*
X1925340D01*
X1926340Y1709571D02*
Y1711858D01*
X1927340Y1707874D02*
Y1712447D01*
X1928340Y1706176D02*
Y1713036D01*
X1929340Y1704478D02*
Y1713625D01*
X1930340Y1702781D02*
Y1712446D01*
X1931340Y1703170D02*
Y1710748D01*
X1932340Y1703759D02*
Y1709050D01*
X1933340Y1704348D02*
Y1707353D01*
X1934340Y1704937D02*
Y1705655D01*
X1944831Y1711116D02*
X1939743Y1719753D01*
X1935517Y1717263*
X1940604Y1708627*
X1944831Y1711116*
X1940371Y1709023D02*
X1941277D01*
X1939782Y1710023D02*
X1942975D01*
X1939192Y1711023D02*
X1944672D01*
X1938603Y1712023D02*
X1944297D01*
X1938014Y1713023D02*
X1943708D01*
X1937425Y1714023D02*
X1943119D01*
X1936836Y1715023D02*
X1942530D01*
X1936247Y1716023D02*
X1941941D01*
X1935658Y1717023D02*
X1941351D01*
X1936807Y1718023D02*
X1940762D01*
X1938504Y1719023D02*
X1940173D01*
X1935517Y1717263D02*
X1935517D01*
X1936517Y1715566D02*
Y1717852D01*
X1937517Y1713868D02*
Y1718441D01*
X1938517Y1712170D02*
Y1719031D01*
X1939517Y1710473D02*
Y1719620D01*
X1940517Y1708775D02*
Y1718440D01*
X1941517Y1709164D02*
Y1716743D01*
X1942517Y1709753D02*
Y1715045D01*
X1943517Y1710342D02*
Y1713347D01*
X1944517Y1710931D02*
Y1711650D01*
X1886987Y1550437D02*
X1877693Y1546682D01*
X1879531Y1542133*
X1888825Y1545888*
X1886987Y1550437*
X1879531Y1542133D02*
X1879531D01*
X1879127Y1543133D02*
X1882006D01*
X1878723Y1544133D02*
X1884481D01*
X1878319Y1545133D02*
X1886956D01*
X1877915Y1546133D02*
X1888726D01*
X1878811Y1547133D02*
X1888322D01*
X1881287Y1548133D02*
X1887918D01*
X1883762Y1549133D02*
X1887514D01*
X1886237Y1550133D02*
X1887110D01*
X1877693Y1546682D02*
X1877693D01*
X1878693Y1544207D02*
Y1547086D01*
X1879693Y1542199D02*
Y1547490D01*
X1880693Y1542603D02*
Y1547894D01*
X1881693Y1543007D02*
Y1548298D01*
X1882693Y1543411D02*
Y1548702D01*
X1883693Y1543815D02*
Y1549106D01*
X1884693Y1544219D02*
Y1549510D01*
X1885693Y1544623D02*
Y1549914D01*
X1886693Y1545027D02*
Y1550318D01*
X1887693Y1545431D02*
Y1548688D01*
X1888693Y1545835D02*
Y1546213D01*
X1882563Y1561388D02*
X1873269Y1557633D01*
X1875107Y1553084*
X1884400Y1556839*
X1882563Y1561388*
X1875107Y1553084D02*
X1875107D01*
X1874703Y1554084D02*
X1877582D01*
X1874299Y1555084D02*
X1880057D01*
X1873895Y1556084D02*
X1882532D01*
X1873491Y1557084D02*
X1884301D01*
X1874387Y1558084D02*
X1883897D01*
X1876862Y1559084D02*
X1883493D01*
X1879337Y1560084D02*
X1883089D01*
X1881812Y1561084D02*
X1882685D01*
X1873269Y1557633D02*
X1873269D01*
X1874269Y1555158D02*
Y1558037D01*
X1875269Y1553150D02*
Y1558441D01*
X1876269Y1553554D02*
Y1558845D01*
X1877269Y1553958D02*
Y1559249D01*
X1878269Y1554362D02*
Y1559653D01*
X1879269Y1554766D02*
Y1560057D01*
X1880269Y1555170D02*
Y1560461D01*
X1881269Y1555574D02*
Y1560865D01*
X1882269Y1555978D02*
Y1561269D01*
X1883269Y1556382D02*
Y1559639D01*
X1884269Y1556786D02*
Y1557164D01*
X1958420Y1482560D02*
X1961518Y1492093D01*
X1956852Y1493609*
X1953755Y1484076*
X1958420Y1482560*
X1958420*
X1955343Y1483560D02*
X1958745D01*
X1953912Y1484560D02*
X1959070D01*
X1954237Y1485560D02*
X1959395D01*
X1954562Y1486560D02*
X1959720D01*
X1954887Y1487560D02*
X1960045D01*
X1955212Y1488560D02*
X1960370D01*
X1955537Y1489560D02*
X1960695D01*
X1955862Y1490560D02*
X1961020D01*
X1956187Y1491560D02*
X1961345D01*
X1956511Y1492560D02*
X1960081D01*
X1956836Y1493560D02*
X1957003D01*
X1953755Y1484076D02*
X1953755D01*
X1954755Y1483751D02*
Y1487154D01*
X1955755Y1483426D02*
Y1490232D01*
X1956755Y1483101D02*
Y1493309D01*
X1957755Y1482777D02*
Y1493316D01*
X1958755Y1483590D02*
Y1492991D01*
X1959755Y1486668D02*
Y1492666D01*
X1960755Y1489745D02*
Y1492341D01*
X1969653Y1478910D02*
X1972751Y1488444D01*
X1968085Y1489959*
X1964988Y1480426*
X1969653Y1478910*
X1969653*
X1966575Y1479910D02*
X1969978D01*
X1965145Y1480910D02*
X1970303D01*
X1965470Y1481910D02*
X1970628D01*
X1965795Y1482910D02*
X1970953D01*
X1966120Y1483910D02*
X1971278D01*
X1966445Y1484910D02*
X1971603D01*
X1966770Y1485910D02*
X1971928D01*
X1967095Y1486910D02*
X1972253D01*
X1967419Y1487910D02*
X1972577D01*
X1967744Y1488910D02*
X1971313D01*
X1968069Y1489910D02*
X1968236D01*
X1964988Y1480426D02*
X1964988D01*
X1965988Y1480101D02*
Y1483504D01*
X1966988Y1479777D02*
Y1486582D01*
X1967988Y1479452D02*
Y1489659D01*
X1968988Y1479127D02*
Y1489666D01*
X1969988Y1479940D02*
Y1489341D01*
X1970988Y1483018D02*
Y1489016D01*
X1971988Y1486096D02*
Y1488691D01*
X2068725Y1486504D02*
X2063414Y1495005D01*
X2059253Y1492405*
X2064565Y1483905*
X2068725Y1486504*
X2064565Y1483905D02*
X2064565D01*
X2063940Y1484905D02*
X2066166D01*
X2063315Y1485905D02*
X2067766D01*
X2062691Y1486905D02*
X2068475D01*
X2062066Y1487905D02*
X2067850D01*
X2061441Y1488905D02*
X2067225D01*
X2060816Y1489905D02*
X2066600D01*
X2060191Y1490905D02*
X2065976D01*
X2059566Y1491905D02*
X2065351D01*
X2060053Y1492905D02*
X2064726D01*
X2061653Y1493905D02*
X2064101D01*
X2063253Y1494905D02*
X2063476D01*
X2060000Y1491210D02*
Y1492872D01*
X2061000Y1489610D02*
Y1493496D01*
X2062000Y1488010D02*
Y1494121D01*
X2063000Y1486409D02*
Y1494746D01*
X2064000Y1484809D02*
Y1494066D01*
X2065000Y1484176D02*
Y1492466D01*
X2066000Y1484801D02*
Y1490865D01*
X2067000Y1485426D02*
Y1489265D01*
X2068000Y1486051D02*
Y1487665D01*
X2078742Y1492763D02*
X2073430Y1501264D01*
X2069270Y1498664*
X2074581Y1490163*
X2078742Y1492763*
X2074581Y1490163D02*
X2074581D01*
X2073957Y1491163D02*
X2076182D01*
X2073332Y1492163D02*
X2077782D01*
X2072707Y1493163D02*
X2078491D01*
X2072082Y1494163D02*
X2077866D01*
X2071457Y1495163D02*
X2077242D01*
X2070832Y1496163D02*
X2076617D01*
X2070207Y1497163D02*
X2075992D01*
X2069583Y1498163D02*
X2075367D01*
X2070069Y1499163D02*
X2074742D01*
X2071669Y1500163D02*
X2074117D01*
X2073270Y1501163D02*
X2073492D01*
X2070000Y1497495D02*
Y1499120D01*
X2071000Y1495895D02*
Y1499745D01*
X2072000Y1494295D02*
Y1500370D01*
X2073000Y1492694D02*
Y1500995D01*
X2074000Y1491094D02*
Y1500351D01*
X2075000Y1490425D02*
Y1498751D01*
X2076000Y1491050D02*
Y1497150D01*
X2077000Y1491675D02*
Y1495550D01*
X2078000Y1492300D02*
Y1493950D01*
X2103445Y1516314D02*
X2095547Y1522485D01*
X2092526Y1518619*
X2100425Y1512448*
X2103445Y1516314*
X2100425Y1512448D02*
X2100425D01*
X2099145Y1513448D02*
X2101207D01*
X2097865Y1514448D02*
X2101988D01*
X2096585Y1515448D02*
X2102769D01*
X2095305Y1516448D02*
X2103273D01*
X2094025Y1517448D02*
X2101993D01*
X2092746Y1518448D02*
X2100713D01*
X2093174Y1519448D02*
X2099433D01*
X2093955Y1520448D02*
X2098154D01*
X2094737Y1521448D02*
X2096874D01*
X2095518Y1522448D02*
X2095594D01*
X2093000Y1518249D02*
Y1519225D01*
X2094000Y1517468D02*
Y1520505D01*
X2095000Y1516687D02*
Y1521785D01*
X2096000Y1515905D02*
Y1522130D01*
X2097000Y1515124D02*
Y1521349D01*
X2098000Y1514343D02*
Y1520568D01*
X2099000Y1513561D02*
Y1519787D01*
X2100000Y1512780D02*
Y1519005D01*
X2101000Y1513184D02*
Y1518224D01*
X2102000Y1514464D02*
Y1517443D01*
X2103000Y1515744D02*
Y1516661D01*
X2110717Y1525621D02*
X2102818Y1531792D01*
X2099798Y1527926*
X2107697Y1521755*
X2110717Y1525621*
X2107697Y1521755D02*
X2107697D01*
X2106417Y1522755D02*
X2108478D01*
X2105137Y1523755D02*
X2109259D01*
X2103857Y1524755D02*
X2110041D01*
X2102577Y1525755D02*
X2110545D01*
X2101297Y1526755D02*
X2109265D01*
X2100017Y1527755D02*
X2107985D01*
X2100446Y1528755D02*
X2106705D01*
X2101227Y1529755D02*
X2105425D01*
X2102008Y1530755D02*
X2104145D01*
X2102790Y1531755D02*
X2102865D01*
X2100000Y1527769D02*
Y1528185D01*
X2101000Y1526987D02*
Y1529465D01*
X2102000Y1526206D02*
Y1530745D01*
X2103000Y1525425D02*
Y1531650D01*
X2104000Y1524643D02*
Y1530869D01*
X2105000Y1523862D02*
Y1530087D01*
X2106000Y1523081D02*
Y1529306D01*
X2107000Y1522300D02*
Y1528525D01*
X2108000Y1522143D02*
Y1527743D01*
X2109000Y1523423D02*
Y1526962D01*
X2110000Y1524703D02*
Y1526181D01*
X2080973Y1692616D02*
X2074802Y1684718D01*
X2078667Y1681698*
X2084838Y1689596*
X2080973Y1692616*
X2078251Y1682023D02*
X2078922D01*
X2076971Y1683023D02*
X2079703D01*
X2075691Y1684023D02*
X2080484D01*
X2075040Y1685023D02*
X2081266D01*
X2075822Y1686023D02*
X2082047D01*
X2076603Y1687023D02*
X2082828D01*
X2077384Y1688023D02*
X2083609D01*
X2078165Y1689023D02*
X2084391D01*
X2078947Y1690023D02*
X2084292D01*
X2079728Y1691023D02*
X2083012D01*
X2080509Y1692023D02*
X2081732D01*
X2075000Y1684563D02*
Y1684972D01*
X2076000Y1683782D02*
Y1686251D01*
X2077000Y1683000D02*
Y1687531D01*
X2078000Y1682219D02*
Y1688811D01*
X2079000Y1682123D02*
Y1690091D01*
X2080000Y1683403D02*
Y1691371D01*
X2081000Y1684683D02*
Y1692595D01*
X2082000Y1685963D02*
Y1691814D01*
X2083000Y1687243D02*
Y1691033D01*
X2084000Y1688523D02*
Y1690251D01*
X2071666Y1699888D02*
X2065495Y1691989D01*
X2069360Y1688969*
X2075531Y1696868*
X2071666Y1699888*
X2069291Y1689023D02*
X2069402D01*
X2068011Y1690023D02*
X2070184D01*
X2066731Y1691023D02*
X2070965D01*
X2065521Y1692023D02*
X2071746D01*
X2066302Y1693023D02*
X2072527D01*
X2067084Y1694023D02*
X2073309D01*
X2067865Y1695023D02*
X2074090D01*
X2068646Y1696023D02*
X2074871D01*
X2069427Y1697023D02*
X2075333D01*
X2070209Y1698023D02*
X2074053D01*
X2070990Y1699023D02*
X2072773D01*
X2066000Y1691594D02*
Y1692636D01*
X2067000Y1690813D02*
Y1693916D01*
X2068000Y1690032D02*
Y1695196D01*
X2069000Y1689251D02*
Y1696476D01*
X2070000Y1689788D02*
Y1697756D01*
X2071000Y1691068D02*
Y1699036D01*
X2072000Y1692348D02*
Y1699627D01*
X2073000Y1693628D02*
Y1698846D01*
X2074000Y1694908D02*
Y1698064D01*
X2075000Y1696188D02*
Y1697283D01*
X2106603Y1660558D02*
X2098102Y1655246D01*
X2100702Y1651086*
X2109202Y1656398*
X2106603Y1660558*
X2100116Y1652023D02*
X2102201D01*
X2099492Y1653023D02*
X2103802D01*
X2098867Y1654023D02*
X2105402D01*
X2098242Y1655023D02*
X2107002D01*
X2099346Y1656023D02*
X2108603D01*
X2100946Y1657023D02*
X2108812D01*
X2102546Y1658023D02*
X2108187D01*
X2104147Y1659023D02*
X2107562D01*
X2105747Y1660023D02*
X2106937D01*
X2099000Y1653810D02*
Y1655807D01*
X2100000Y1652209D02*
Y1656432D01*
X2101000Y1651272D02*
Y1657057D01*
X2102000Y1651897D02*
Y1657682D01*
X2103000Y1652522D02*
Y1658307D01*
X2104000Y1653147D02*
Y1658931D01*
X2105000Y1653772D02*
Y1659556D01*
X2106000Y1654397D02*
Y1660181D01*
X2107000Y1655022D02*
Y1659923D01*
X2108000Y1655646D02*
Y1658322D01*
X2109000Y1656271D02*
Y1656722D01*
X2100344Y1670574D02*
X2091844Y1665263D01*
X2094443Y1661102*
X2102944Y1666414*
X2100344Y1670574*
X2093868Y1662023D02*
X2095916D01*
X2093243Y1663023D02*
X2097517D01*
X2092618Y1664023D02*
X2099117D01*
X2091993Y1665023D02*
X2100717D01*
X2093061Y1666023D02*
X2102318D01*
X2094661Y1667023D02*
X2102563D01*
X2096261Y1668023D02*
X2101938D01*
X2097862Y1669023D02*
X2101313D01*
X2099462Y1670023D02*
X2100688D01*
X2092000Y1665012D02*
Y1665360D01*
X2093000Y1663412D02*
Y1665985D01*
X2094000Y1661811D02*
Y1666610D01*
X2095000Y1661450D02*
Y1667235D01*
X2096000Y1662075D02*
Y1667860D01*
X2097000Y1662700D02*
Y1668485D01*
X2098000Y1663325D02*
Y1669110D01*
X2099000Y1663950D02*
Y1669734D01*
X2100000Y1664575D02*
Y1670359D01*
X2101000Y1665200D02*
Y1669525D01*
X2102000Y1665825D02*
Y1667924D01*
X2125078Y1646523D02*
X2115784Y1642768D01*
X2117622Y1638220*
X2126915Y1641975*
X2125078Y1646523*
X2117297Y1639023D02*
X2119609D01*
X2116893Y1640023D02*
X2122084D01*
X2116489Y1641023D02*
X2124559D01*
X2116085Y1642023D02*
X2126896D01*
X2116414Y1643023D02*
X2126492D01*
X2118889Y1644023D02*
X2126088D01*
X2121365Y1645023D02*
X2125684D01*
X2123840Y1646023D02*
X2125280D01*
X2116000Y1642234D02*
Y1642856D01*
X2117000Y1639759D02*
Y1643260D01*
X2118000Y1638373D02*
Y1643664D01*
X2119000Y1638777D02*
Y1644068D01*
X2120000Y1639181D02*
Y1644472D01*
X2121000Y1639585D02*
Y1644876D01*
X2122000Y1639989D02*
Y1645280D01*
X2123000Y1640393D02*
Y1645684D01*
X2124000Y1640797D02*
Y1646088D01*
X2125000Y1641201D02*
Y1646492D01*
X2126000Y1641605D02*
Y1644241D01*
X2120653Y1657474D02*
X2111360Y1653719D01*
X2113197Y1649171*
X2122491Y1652926*
X2120653Y1657474*
X2112853Y1650023D02*
X2115306D01*
X2112449Y1651023D02*
X2117781D01*
X2112045Y1652023D02*
X2120256D01*
X2111641Y1653023D02*
X2122452D01*
X2112111Y1654023D02*
X2122048D01*
X2114586Y1655023D02*
X2121644D01*
X2117061Y1656023D02*
X2121240D01*
X2119536Y1657023D02*
X2120836D01*
X2112000Y1652134D02*
Y1653978D01*
X2113000Y1649659D02*
Y1654382D01*
X2114000Y1649496D02*
Y1654786D01*
X2115000Y1649900D02*
Y1655190D01*
X2116000Y1650304D02*
Y1655594D01*
X2117000Y1650708D02*
Y1655998D01*
X2118000Y1651112D02*
Y1656402D01*
X2119000Y1651516D02*
Y1656806D01*
X2120000Y1651920D02*
Y1657210D01*
X2121000Y1652324D02*
Y1656616D01*
X2122000Y1652728D02*
Y1654141D01*
X2107727Y1539585D02*
X2098877Y1544290D01*
X2096574Y1539959*
X2105424Y1535253*
X2107727Y1539585*
X2105424Y1535253D02*
X2105424D01*
X2103543Y1536253D02*
X2105956D01*
X2101662Y1537253D02*
X2106487D01*
X2099782Y1538253D02*
X2107019D01*
X2097901Y1539253D02*
X2107551D01*
X2096730Y1540253D02*
X2106469D01*
X2097262Y1541253D02*
X2104588D01*
X2097793Y1542253D02*
X2102708D01*
X2098325Y1543253D02*
X2100827D01*
X2098857Y1544253D02*
X2098946D01*
X2097000Y1539732D02*
Y1540761D01*
X2098000Y1539201D02*
Y1542642D01*
X2099000Y1538669D02*
Y1544225D01*
X2100000Y1538137D02*
Y1543693D01*
X2101000Y1537605D02*
Y1543161D01*
X2102000Y1537074D02*
Y1542630D01*
X2103000Y1536542D02*
Y1542098D01*
X2104000Y1536010D02*
Y1541566D01*
X2105000Y1535479D02*
Y1541034D01*
X2106000Y1536337D02*
Y1540503D01*
X2107000Y1538218D02*
Y1539971D01*
X2113272Y1550013D02*
X2104421Y1554719D01*
X2102118Y1550388*
X2110969Y1545682*
X2113272Y1550013*
X2110969Y1545682D02*
X2110969D01*
X2109088Y1546682D02*
X2111501D01*
X2107207Y1547682D02*
X2112032D01*
X2105327Y1548682D02*
X2112564D01*
X2103446Y1549682D02*
X2113096D01*
X2102275Y1550682D02*
X2112014D01*
X2102807Y1551682D02*
X2110133D01*
X2103338Y1552682D02*
X2108253D01*
X2103870Y1553682D02*
X2106372D01*
X2104402Y1554682D02*
X2104491D01*
X2103000Y1549919D02*
Y1552045D01*
X2104000Y1549387D02*
Y1553926D01*
X2105000Y1548855D02*
Y1554411D01*
X2106000Y1548324D02*
Y1553880D01*
X2107000Y1547792D02*
Y1553348D01*
X2108000Y1547260D02*
Y1552816D01*
X2109000Y1546729D02*
Y1552284D01*
X2110000Y1546197D02*
Y1551753D01*
X2111000Y1545740D02*
Y1551221D01*
X2112000Y1547621D02*
Y1550689D01*
X2113000Y1549502D02*
Y1550158D01*
X2020792Y1721975D02*
X2022704Y1731814D01*
X2017889Y1732750*
X2015976Y1722911*
X2020792Y1721975*
X2020543Y1722023D02*
X2020801D01*
X2015998Y1723023D02*
X2020995D01*
X2016192Y1724023D02*
X2021190D01*
X2016387Y1725023D02*
X2021384D01*
X2016581Y1726023D02*
X2021578D01*
X2016776Y1727023D02*
X2021773D01*
X2016970Y1728023D02*
X2021967D01*
X2017164Y1729023D02*
X2022162D01*
X2017359Y1730023D02*
X2022356D01*
X2017553Y1731023D02*
X2022550D01*
X2017747Y1732023D02*
X2021630D01*
X2016000Y1722906D02*
Y1723034D01*
X2017000Y1722712D02*
Y1728178D01*
X2018000Y1722518D02*
Y1732729D01*
X2019000Y1722323D02*
Y1732534D01*
X2020000Y1722129D02*
Y1732340D01*
X2021000Y1723047D02*
Y1732146D01*
X2022000Y1728192D02*
Y1731951D01*
X2032386Y1719721D02*
X2034298Y1729561D01*
X2029483Y1730497*
X2027570Y1720657*
X2032386Y1719721*
X2030832Y1720023D02*
X2032444D01*
X2027641Y1721023D02*
X2032639D01*
X2027836Y1722023D02*
X2032833D01*
X2028030Y1723023D02*
X2033027D01*
X2028224Y1724023D02*
X2033222D01*
X2028419Y1725023D02*
X2033416D01*
X2028613Y1726023D02*
X2033611D01*
X2028808Y1727023D02*
X2033805D01*
X2029002Y1728023D02*
X2033999D01*
X2029196Y1729023D02*
X2034194D01*
X2029391Y1730023D02*
X2031919D01*
X2028000Y1720574D02*
Y1722868D01*
X2029000Y1720379D02*
Y1728013D01*
X2030000Y1720185D02*
Y1730396D01*
X2031000Y1719991D02*
Y1730202D01*
X2032000Y1719796D02*
Y1730007D01*
X2033000Y1722882D02*
Y1729813D01*
X2034000Y1728027D02*
Y1729619D01*
X1901838Y1655350D02*
X1893157Y1660362D01*
X1890705Y1656114*
X1899385Y1651102*
X1901838Y1655350*
X1897789Y1652023D02*
X1899917D01*
X1896057Y1653023D02*
X1900495D01*
X1894325Y1654023D02*
X1901072D01*
X1892593Y1655023D02*
X1901649D01*
X1890861Y1656023D02*
X1900672D01*
X1891230Y1657023D02*
X1898940D01*
X1891807Y1658023D02*
X1897208D01*
X1892384Y1659023D02*
X1895476D01*
X1892962Y1660023D02*
X1893744D01*
X1890705Y1656114D02*
X1890705D01*
X1891705Y1655536D02*
Y1657846D01*
X1892705Y1654959D02*
Y1659578D01*
X1893705Y1654382D02*
Y1660046D01*
X1894705Y1653804D02*
Y1659469D01*
X1895705Y1653227D02*
Y1658891D01*
X1896705Y1652649D02*
Y1658314D01*
X1897705Y1652072D02*
Y1657737D01*
X1898705Y1651495D02*
Y1657159D01*
X1899705Y1651655D02*
Y1656582D01*
X1900705Y1653387D02*
Y1656004D01*
X1901705Y1655119D02*
Y1655427D01*
X1907744Y1665579D02*
X1899063Y1670591D01*
X1896610Y1666342*
X1905291Y1661330*
X1907744Y1665579*
X1904091Y1662023D02*
X1905691D01*
X1902359Y1663023D02*
X1906268D01*
X1900627Y1664023D02*
X1906846D01*
X1898895Y1665023D02*
X1907423D01*
X1897163Y1666023D02*
X1906974D01*
X1897003Y1667023D02*
X1905242D01*
X1897581Y1668023D02*
X1903510D01*
X1898158Y1669023D02*
X1901778D01*
X1898735Y1670023D02*
X1900046D01*
X1896610Y1666342D02*
X1896610D01*
X1897610Y1665765D02*
Y1668074D01*
X1898610Y1665188D02*
Y1669806D01*
X1899610Y1664610D02*
Y1670275D01*
X1900610Y1664033D02*
Y1669697D01*
X1901610Y1663455D02*
Y1669120D01*
X1902610Y1662878D02*
Y1668543D01*
X1903610Y1662301D02*
Y1667965D01*
X1904610Y1661723D02*
Y1667388D01*
X1905610Y1661883D02*
Y1666810D01*
X1906610Y1663615D02*
Y1666233D01*
X1907610Y1665348D02*
Y1665656D01*
X1924499Y1684789D02*
X1918328Y1692687D01*
X1914462Y1689667*
X1920633Y1681768*
X1924499Y1684789*
X1920434Y1682023D02*
X1920959D01*
X1919653Y1683023D02*
X1922239D01*
X1918872Y1684023D02*
X1923519D01*
X1918091Y1685023D02*
X1924316D01*
X1917309Y1686023D02*
X1923535D01*
X1916528Y1687023D02*
X1922753D01*
X1915747Y1688023D02*
X1921972D01*
X1914965Y1689023D02*
X1921191D01*
X1914918Y1690023D02*
X1920409D01*
X1916198Y1691023D02*
X1919628D01*
X1917478Y1692023D02*
X1918847D01*
X1914462Y1689667D02*
X1914462D01*
X1915462Y1688387D02*
Y1690448D01*
X1916462Y1687107D02*
Y1691230D01*
X1917462Y1685827D02*
Y1692011D01*
X1918462Y1684547D02*
Y1692515D01*
X1919462Y1683267D02*
Y1691235D01*
X1920462Y1681988D02*
Y1689955D01*
X1921462Y1682416D02*
Y1688675D01*
X1922462Y1683197D02*
Y1687396D01*
X1923462Y1683979D02*
Y1686116D01*
X1924462Y1684760D02*
Y1684836D01*
X1933806Y1692060D02*
X1927635Y1699959D01*
X1923770Y1696939*
X1929941Y1689040*
X1933806Y1692060*
X1929173Y1690023D02*
X1931199D01*
X1928391Y1691023D02*
X1932479D01*
X1927610Y1692023D02*
X1933759D01*
X1926829Y1693023D02*
X1933054D01*
X1926047Y1694023D02*
X1932273D01*
X1925266Y1695023D02*
X1931491D01*
X1924485Y1696023D02*
X1930710D01*
X1923878Y1697023D02*
X1929929D01*
X1925158Y1698023D02*
X1929148D01*
X1926437Y1699023D02*
X1928366D01*
X1923770Y1696939D02*
X1923770D01*
X1924770Y1695659D02*
Y1697720D01*
X1925770Y1694379D02*
Y1698501D01*
X1926770Y1693099D02*
Y1699283D01*
X1927770Y1691819D02*
Y1699787D01*
X1928770Y1690539D02*
Y1698507D01*
X1929770Y1689259D02*
Y1697227D01*
X1930770Y1689688D02*
Y1695947D01*
X1931770Y1690469D02*
Y1694667D01*
X1932770Y1691250D02*
Y1693387D01*
X1933770Y1692031D02*
Y1692107D01*
X1935810Y1483840D02*
X1940516Y1492691D01*
X1936185Y1494994*
X1931479Y1486143*
X1935810Y1483840*
X1935810*
X1933929Y1484840D02*
X1936342D01*
X1932049Y1485840D02*
X1936873D01*
X1931849Y1486840D02*
X1937405D01*
X1932381Y1487840D02*
X1937937D01*
X1932913Y1488840D02*
X1938469D01*
X1933444Y1489840D02*
X1939000D01*
X1933976Y1490840D02*
X1939532D01*
X1934508Y1491840D02*
X1940064D01*
X1935040Y1492840D02*
X1940234D01*
X1935571Y1493840D02*
X1938354D01*
X1936103Y1494840D02*
X1936473D01*
X1931479Y1486143D02*
X1931479D01*
X1932479Y1485612D02*
Y1488024D01*
X1933479Y1485080D02*
Y1489905D01*
X1934479Y1484548D02*
Y1491785D01*
X1935479Y1484016D02*
Y1493666D01*
X1936479Y1485098D02*
Y1494837D01*
X1937479Y1486979D02*
Y1494305D01*
X1938479Y1488859D02*
Y1493774D01*
X1939479Y1490740D02*
Y1493242D01*
X1940479Y1492621D02*
Y1492710D01*
X1946239Y1478295D02*
X1950944Y1487146D01*
X1946613Y1489449*
X1941907Y1480598*
X1946239Y1478295*
X1946239*
X1944358Y1479295D02*
X1946770D01*
X1942477Y1480295D02*
X1947302D01*
X1942278Y1481295D02*
X1947834D01*
X1942810Y1482295D02*
X1948365D01*
X1943341Y1483295D02*
X1948897D01*
X1943873Y1484295D02*
X1949429D01*
X1944405Y1485295D02*
X1949961D01*
X1944936Y1486295D02*
X1950492D01*
X1945468Y1487295D02*
X1950663D01*
X1946000Y1488295D02*
X1948782D01*
X1946532Y1489295D02*
X1946901D01*
X1941907Y1480598D02*
X1941907D01*
X1942907Y1480067D02*
Y1482479D01*
X1943907Y1479535D02*
Y1484360D01*
X1944907Y1479003D02*
Y1486241D01*
X1945907Y1478472D02*
Y1488121D01*
X1946907Y1479553D02*
Y1489292D01*
X1947907Y1481434D02*
Y1488761D01*
X1948907Y1483314D02*
Y1488229D01*
X1949907Y1485195D02*
Y1487697D01*
X1950907Y1487076D02*
Y1487165D01*
X1972062Y1720393D02*
X1970321Y1730264D01*
X1965490Y1729413*
X1967231Y1719541*
X1972062Y1720393*
X1967146Y1720023D02*
X1969964D01*
X1966969Y1721023D02*
X1971951D01*
X1966793Y1722023D02*
X1971774D01*
X1966617Y1723023D02*
X1971598D01*
X1966440Y1724023D02*
X1971422D01*
X1966264Y1725023D02*
X1971245D01*
X1966088Y1726023D02*
X1971069D01*
X1965911Y1727023D02*
X1970893D01*
X1965735Y1728023D02*
X1970716D01*
X1965559Y1729023D02*
X1970540D01*
X1968953Y1730023D02*
X1970364D01*
X1965490Y1729413D02*
X1965490D01*
X1966490Y1723741D02*
Y1729589D01*
X1967490Y1719587D02*
Y1729765D01*
X1968490Y1719763D02*
Y1729942D01*
X1969490Y1719940D02*
Y1730118D01*
X1970490Y1720116D02*
Y1729306D01*
X1971490Y1720292D02*
Y1723635D01*
X1983693Y1722444D02*
X1981953Y1732315D01*
X1977122Y1731464*
X1978862Y1721592*
X1983693Y1722444*
X1978786Y1722023D02*
X1981306D01*
X1978610Y1723023D02*
X1983591D01*
X1978434Y1724023D02*
X1983415D01*
X1978257Y1725023D02*
X1983238D01*
X1978081Y1726023D02*
X1983062D01*
X1977905Y1727023D02*
X1982886D01*
X1977728Y1728023D02*
X1982709D01*
X1977552Y1729023D02*
X1982533D01*
X1977376Y1730023D02*
X1982357D01*
X1977199Y1731023D02*
X1982181D01*
X1980295Y1732023D02*
X1982004D01*
X1977122Y1731464D02*
X1977122D01*
X1978122Y1725792D02*
Y1731640D01*
X1979122Y1721638D02*
Y1731816D01*
X1980122Y1721814D02*
Y1731993D01*
X1981122Y1721991D02*
Y1732169D01*
X1982122Y1722167D02*
Y1731357D01*
X1983122Y1722343D02*
Y1725686D01*
X1977797Y1468992D02*
X1979192Y1478918D01*
X1974335Y1479600*
X1972940Y1469674*
X1977797Y1468992*
X1977797*
X1972984Y1469992D02*
X1977938D01*
X1973125Y1470992D02*
X1978078D01*
X1973265Y1471992D02*
X1978219D01*
X1973406Y1472992D02*
X1978359D01*
X1973546Y1473992D02*
X1978500D01*
X1973687Y1474992D02*
X1978641D01*
X1973827Y1475992D02*
X1978781D01*
X1973968Y1476992D02*
X1978922D01*
X1974108Y1477992D02*
X1979062D01*
X1974249Y1478992D02*
X1978666D01*
X1972940Y1469674D02*
X1972940D01*
X1973940Y1469534D02*
Y1476790D01*
X1974940Y1469393D02*
Y1479515D01*
X1975940Y1469253D02*
Y1479375D01*
X1976940Y1469112D02*
Y1479234D01*
X1977940Y1470004D02*
Y1479094D01*
X1978940Y1477119D02*
Y1478953D01*
X1989493Y1467348D02*
X1990888Y1477274D01*
X1986031Y1477957*
X1984636Y1468031*
X1989493Y1467348*
X1989493*
X1984680Y1468348D02*
X1989634D01*
X1984821Y1469348D02*
X1989774D01*
X1984961Y1470348D02*
X1989915D01*
X1985102Y1471348D02*
X1990056D01*
X1985242Y1472348D02*
X1990196D01*
X1985383Y1473348D02*
X1990337D01*
X1985523Y1474348D02*
X1990477D01*
X1985664Y1475348D02*
X1990618D01*
X1985805Y1476348D02*
X1990758D01*
X1985945Y1477348D02*
X1990362D01*
X1984636Y1468031D02*
X1984636D01*
X1985636Y1467890D02*
Y1475146D01*
X1986636Y1467750D02*
Y1477872D01*
X1987636Y1467609D02*
Y1477731D01*
X1988636Y1467468D02*
Y1477591D01*
X1989636Y1468360D02*
Y1477450D01*
X1990636Y1475475D02*
Y1477310D01*
X2023827Y1469928D02*
X2021743Y1479733D01*
X2016945Y1478713*
X2019029Y1468908*
X2023827Y1469928*
X2019029Y1468908D02*
X2019029D01*
X2018816Y1469908D02*
X2023734D01*
X2018604Y1470908D02*
X2023619D01*
X2018391Y1471908D02*
X2023406D01*
X2018179Y1472908D02*
X2023194D01*
X2017966Y1473908D02*
X2022981D01*
X2017754Y1474908D02*
X2022769D01*
X2017541Y1475908D02*
X2022556D01*
X2017329Y1476908D02*
X2022344D01*
X2017116Y1477908D02*
X2022131D01*
X2017864Y1478908D02*
X2021919D01*
X2017000Y1478454D02*
Y1478724D01*
X2018000Y1473749D02*
Y1478937D01*
X2019000Y1469045D02*
Y1479149D01*
X2020000Y1469114D02*
Y1479362D01*
X2021000Y1469327D02*
Y1479575D01*
X2022000Y1469540D02*
Y1478525D01*
X2023000Y1469752D02*
Y1473820D01*
X2035380Y1472384D02*
X2033296Y1482188D01*
X2028498Y1481168*
X2030582Y1471364*
X2035380Y1472384*
X2030582Y1471364D02*
X2030582D01*
X2030369Y1472364D02*
X2035287D01*
X2030157Y1473364D02*
X2035172D01*
X2029944Y1474364D02*
X2034959D01*
X2029732Y1475364D02*
X2034747D01*
X2029519Y1476364D02*
X2034534D01*
X2029307Y1477364D02*
X2034322D01*
X2029094Y1478364D02*
X2034109D01*
X2028882Y1479364D02*
X2033897D01*
X2028669Y1480364D02*
X2033684D01*
X2029417Y1481364D02*
X2033472D01*
X2029000Y1478806D02*
Y1481275D01*
X2030000Y1474102D02*
Y1481488D01*
X2031000Y1471453D02*
Y1481700D01*
X2032000Y1471665D02*
Y1481913D01*
X2033000Y1471878D02*
Y1482125D01*
X2034000Y1472090D02*
Y1478877D01*
X2035000Y1472303D02*
Y1474173D01*
X2125242Y1556244D02*
X2115709Y1559341D01*
X2114193Y1554676*
X2123726Y1551578*
X2125242Y1556244*
X2123726Y1551578D02*
X2123726D01*
X2120648Y1552578D02*
X2124051D01*
X2117571Y1553578D02*
X2124376D01*
X2114493Y1554578D02*
X2124701D01*
X2114486Y1555578D02*
X2125026D01*
X2114811Y1556578D02*
X2124212D01*
X2115136Y1557578D02*
X2121134D01*
X2115461Y1558578D02*
X2118057D01*
X2115000Y1554413D02*
Y1557160D01*
X2116000Y1554089D02*
Y1559247D01*
X2117000Y1553764D02*
Y1558922D01*
X2118000Y1553439D02*
Y1558597D01*
X2119000Y1553114D02*
Y1558272D01*
X2120000Y1552789D02*
Y1557947D01*
X2121000Y1552464D02*
Y1557622D01*
X2122000Y1552139D02*
Y1557297D01*
X2123000Y1551814D02*
Y1556972D01*
X2124000Y1552422D02*
Y1556647D01*
X2125000Y1555499D02*
Y1556322D01*
X2128892Y1567477D02*
X2119359Y1570574D01*
X2117843Y1565909*
X2127376Y1562811*
X2128892Y1567477*
X2127376Y1562811D02*
X2127376D01*
X2124298Y1563811D02*
X2127701D01*
X2121220Y1564811D02*
X2128026D01*
X2118143Y1565811D02*
X2128351D01*
X2118136Y1566811D02*
X2128675D01*
X2118461Y1567811D02*
X2127862D01*
X2118786Y1568811D02*
X2124784D01*
X2119111Y1569811D02*
X2121707D01*
X2118000Y1565858D02*
Y1566393D01*
X2119000Y1565533D02*
Y1569470D01*
X2120000Y1565208D02*
Y1570366D01*
X2121000Y1564883D02*
Y1570041D01*
X2122000Y1564558D02*
Y1569716D01*
X2123000Y1564233D02*
Y1569391D01*
X2124000Y1563908D02*
Y1569066D01*
X2125000Y1563583D02*
Y1568741D01*
X2126000Y1563258D02*
Y1568416D01*
X2127000Y1562933D02*
Y1568091D01*
X2128000Y1564732D02*
Y1567766D01*
X2059353Y1708370D02*
X2064365Y1717051D01*
X2060117Y1719504*
X2055105Y1710823*
X2059353Y1708370*
X2058223Y1709023D02*
X2059730D01*
X2056491Y1710023D02*
X2060307D01*
X2055220Y1711023D02*
X2060885D01*
X2055798Y1712023D02*
X2061462D01*
X2056375Y1713023D02*
X2062040D01*
X2056953Y1714023D02*
X2062617D01*
X2057530Y1715023D02*
X2063194D01*
X2058107Y1716023D02*
X2063772D01*
X2058685Y1717023D02*
X2064349D01*
X2059262Y1718023D02*
X2062681D01*
X2059839Y1719023D02*
X2060949D01*
X2056000Y1710306D02*
Y1712373D01*
X2057000Y1709729D02*
Y1714105D01*
X2058000Y1709152D02*
Y1715837D01*
X2059000Y1708574D02*
Y1717570D01*
X2060000Y1709491D02*
Y1719302D01*
X2061000Y1711223D02*
Y1718994D01*
X2062000Y1712955D02*
Y1718417D01*
X2063000Y1714687D02*
Y1717839D01*
X2064000Y1716419D02*
Y1717262D01*
X2069582Y1702465D02*
X2074594Y1711146D01*
X2070345Y1713598*
X2065334Y1704918*
X2069582Y1702465*
X2068615Y1703023D02*
X2069904D01*
X2066883Y1704023D02*
X2070482D01*
X2065395Y1705023D02*
X2071059D01*
X2065972Y1706023D02*
X2071636D01*
X2066549Y1707023D02*
X2072214D01*
X2067127Y1708023D02*
X2072791D01*
X2067704Y1709023D02*
X2073368D01*
X2068281Y1710023D02*
X2073946D01*
X2068859Y1711023D02*
X2074523D01*
X2069436Y1712023D02*
X2073074D01*
X2070013Y1713023D02*
X2071342D01*
X2066000Y1704533D02*
Y1706072D01*
X2067000Y1703956D02*
Y1707804D01*
X2068000Y1703378D02*
Y1709536D01*
X2069000Y1702801D02*
Y1711268D01*
X2070000Y1703189D02*
Y1713000D01*
X2071000Y1704921D02*
Y1713220D01*
X2072000Y1706653D02*
Y1712643D01*
X2073000Y1708385D02*
Y1712066D01*
X2074000Y1710117D02*
Y1711488D01*
X2136220Y1600000D02*
G75*
G03X2136220I-136220J0D01*
G01X1940676Y1563249D02*
G03X1940676I-4331J0D01*
G01X2005118Y1629528D02*
G03X2005118I-5118J0D01*
G01X1890945Y1628088D02*
G03X1890945I-5118J0D01*
G01X2119291D02*
G03X2119291I-5118J0D01*
G01X2052362Y1704860D02*
G03X2052362I-5118J0D01*
G01X1957874D02*
G03X1957874I-5118J0D01*
G01X2004331Y1673502D02*
G03X2004331I-4331J0D01*
G01X2067985Y1563249D02*
G03X2067985I-4330J0D01*
G01X2078160Y1556579D02*
G03X2078160I-2952J0D01*
G01X1949652Y1569157D02*
G03X1949652I-3070J0D01*
G54D110*
G54D529*
G01X1978931Y1513994D03*
G54D530*
Y1510254D03*
Y1506514D03*
X1968104D03*
Y1510254D03*
Y1513994D03*
G54D771*
X1936027Y1513537D03*
Y1504537D03*
X1926894Y1513537D03*
Y1504537D03*
G54D782*
X1991878Y1510342D03*
Y1504142D03*
X2000864Y1510342D03*
Y1504142D03*
G54D783*
X1977091Y1501681D03*
X1970891D03*
G54D792*
X1951135Y1526936D03*
Y1508629D03*
G54D823*
X1908038Y1536032D03*
X1896227D03*
G54D824*
X2026641Y1700267D03*
Y1712078D03*
X1882448Y1568713D03*
Y1580524D03*
X2113282Y1598431D03*
Y1610242D03*
G74*
X0Y0D02*
M02*
