*
*
G04 PADS 9.5 Build Number: 522968 generated Gerber (RS-274-X) file*
G04 PC Version=2.1*
*
%IN "QCD_PowerBank_001A_V02_"*%
*
%MOIN*%
*
%FSLAX35Y35*%
*
*
*
*
G04 PC Standard Apertures*
*
*
G04 Thermal Relief Aperture macro.*
%AMTER*
1,1,$1,0,0*
1,0,$1-$2,0,0*
21,0,$3,$4,0,0,45*
21,0,$3,$4,0,0,135*
%
*
*
G04 Annular Aperture macro.*
%AMANN*
1,1,$1,0,0*
1,0,$2,0,0*
%
*
*
G04 Odd Aperture macro.*
%AMODD*
1,1,$1,0,0*
1,0,$1-0.005,0,0*
%
*
*
G04 PC Custom Aperture Macros*
*
*
*
*
*
*
G04 PC Aperture Table*
*
%ADD010C,0.00984*%
%ADD014C,0.06299*%
%ADD029C,0.06*%
%ADD035R,0.03937X0.03937*%
%ADD036R,0.06X0.06*%
%ADD044R,0.06299X0.06299*%
%ADD047C,0.01*%
%ADD051C,0.02362*%
%ADD057C,0.01969*%
%ADD060C,0.0315*%
%ADD061C,0.01575*%
%ADD064C,0.01181*%
%ADD071C,0.00787*%
%ADD110C,0.001*%
%ADD111R,0.04724X0.04724*%
%ADD113C,0.07087*%
%ADD117C,0.02756*%
%ADD135C,0.04724*%
%ADD289R,0.05118X0.05118*%
%ADD290C,0.05118*%
%ADD337R,0.03937X0.05*%
%ADD770R,0.06X0.05*%
%ADD782R,0.03X0.038*%
%ADD783R,0.038X0.03*%
%ADD817O,0.07087X0.12598*%
%ADD818O,0.03937X0.01378*%
%ADD819R,0.03937X0.01378*%
*
*
*
*
G04 PC Circuitry*
G04 Layer Name QCD_PowerBank_001A_V02_ - circuitry*
%LPD*%
*
*
G04 PC Custom Flashes*
G04 Layer Name QCD_PowerBank_001A_V02_ - flashes*
%LPD*%
*
*
G04 PC Circuitry*
G04 Layer Name QCD_PowerBank_001A_V02_ - circuitry*
%LPD*%
*
G54D10*
G01X1960959Y1547859D02*
X1969371D01*
X1971789Y1545440*
X1998949Y1591378D02*
Y1591379D01*
X1905329Y1615005D02*
X1910273Y1610060D01*
Y1586725*
X1926804Y1570194*
X1937228*
X1937239Y1570205*
X1995205Y1598065D02*
Y1597665D01*
X1998949Y1593922*
Y1591379*
X2029872Y1598065D02*
Y1610845D01*
X2033277Y1614250*
X2091462*
X2093751Y1616539*
X2093735Y1649294D02*
X2093751D01*
Y1616539*
G54D14*
X1895329Y1635005D03*
Y1625005D03*
Y1615005D03*
Y1605005D03*
X1905329Y1645005D03*
Y1635005D03*
Y1625005D03*
Y1615005D03*
Y1605005D03*
G54D29*
X2016943Y1557843D03*
X2026943D03*
X2036943D03*
X2046943D03*
X1958479Y1628863D03*
X1948636D03*
X1940762D03*
X1930919D03*
X2069856D03*
X2060014D03*
X2052140D03*
X2042297D03*
G54D35*
X1959965Y1580541D03*
X1967465D03*
G54D36*
X2006943Y1557843D03*
G54D44*
X1895329Y1645005D03*
G54D47*
X2048176Y1545257D02*
G75*
G03X2048176I-7193J0D01*
G01X2129777Y1654502D02*
Y1663360D01*
G03X2129277Y1663860I-500J-0*
G01X2083719*
G03X2083433Y1663770I-0J-500*
G01X2027938Y1663772D02*
G03X2083433Y1663770I27749J39923D01*
G01X2027938Y1663772D02*
G03X2027653Y1663862I-285J-410D01*
G01X1972281*
G03X1971993Y1663771I-0J-500*
G01X1916506Y1663808D02*
G03X1971993Y1663771I27770J39439D01*
G01X1916506Y1663808D02*
G03X1916218Y1663900I-288J-408D01*
G01X1870723*
G03X1870223Y1663400I0J-500*
G01Y1654491*
G03X1871193Y1654321I500J0*
G01X1871300Y1649138D02*
G03X1871193Y1654321I6655J2729D01*
G01X1871300Y1649138D02*
G03X1870338Y1648921I-463J-190D01*
X1885138Y1595347I129668J6990*
X1885934Y1595227I442J233*
G01X1887953Y1597246*
G03X1887956Y1597249I-353J354*
G01X1888560Y1597777D02*
G03X1887956Y1597249I3258J-4337D01*
G01X1888560Y1597777D02*
G03X1888613Y1598530I-301J400D01*
G01X1887617Y1599526*
X1886837Y1601410D02*
G03X1887617Y1599526I2665J0D01*
G01X1886837Y1601410D02*
Y1621466D01*
X1887617Y1623350D02*
G03X1886837Y1621466I1885J-1884D01*
G01X1887617Y1623350D02*
X1889043Y1624776D01*
G03X1889190Y1625130I-353J354*
G01Y1628379*
X1890921Y1630110D02*
G03X1889190Y1628379I-0J-1731D01*
G01X1890921Y1630110D02*
X1911029D01*
X1912253Y1629602D02*
G03X1911029Y1630110I-1224J-1223D01*
G01X1912253Y1629602D02*
X1920401Y1621453D01*
X1920908Y1620229D02*
G03X1920401Y1621453I-1731J-0D01*
G01X1920908Y1620229D02*
Y1596036D01*
G03X1921246Y1595563I500J-0*
G01X1922384Y1593972D02*
G03X1921246Y1595563I-1681J-0D01*
G01X1922384Y1593972D02*
Y1588972D01*
X1922333Y1588559D02*
G03X1922384Y1588972I-1630J413D01*
G01X1922333Y1588559D02*
G03X1922321Y1588375I484J-122D01*
G01X1922340Y1588072D02*
G03X1922321Y1588375I-2469J0D01*
G01X1922340Y1588072D02*
Y1587847D01*
G03X1922398Y1587613I500J0*
G01X1917013Y1586115D02*
G03X1922398Y1587613I2858J154D01*
G01X1917013Y1586115D02*
G03X1916514Y1586588I-499J-27D01*
G01X1914691*
G03X1914337Y1585735I-0J-500*
G01X1927558Y1572514*
G03X1927911Y1572367I353J353*
G01X1933493*
G03X1933916Y1572601I0J500*
G01X1935339Y1573386D02*
G03X1933916Y1572601I0J-1681D01*
G01X1935339Y1573386D02*
X1939139D01*
X1940064Y1573109D02*
G03X1939139Y1573386I-925J-1404D01*
G01X1940064Y1573109D02*
G03X1940614I275J418D01*
G01X1941539Y1573386D02*
G03X1940614Y1573109I0J-1681D01*
G01X1941539Y1573386D02*
X1945339D01*
X1946802Y1572534D02*
G03X1945339Y1573386I-1463J-829D01*
G01X1946802Y1572534D02*
G03X1947237Y1572280I435J246D01*
G01X1947599*
G03X1948096Y1572728I-0J500*
G01X1949768Y1574235D02*
G03X1948096Y1572728I0J-1681D01*
G01X1949768Y1574235D02*
X1952768D01*
X1954449Y1572554D02*
G03X1952768Y1574235I-1681J-0D01*
G01X1954449Y1572554D02*
Y1572185D01*
G03X1954949Y1571685I500J-0*
G01X1956534*
G03X1957034Y1572185I-0J500*
G01Y1574812*
X1957586Y1576057D02*
G03X1957034Y1574812I1129J-1245D01*
G01X1957586Y1576057D02*
G03X1957739Y1576528I-336J370D01*
G01X1957724Y1576612D02*
G03X1957739Y1576528I2241J373D01*
G01X1957724Y1576612D02*
G03X1957406Y1576999I-493J-82D01*
G01X1956315Y1578573D02*
G03X1957406Y1576999I1681J-0D01*
G01X1956315Y1578573D02*
Y1582510D01*
X1957996Y1584191D02*
G03X1956315Y1582510I0J-1681D01*
G01X1957996Y1584191D02*
X1960083D01*
G03X1960476Y1585000I0J500*
G01X1960115Y1586041D02*
G03X1960476Y1585000I1681J0D01*
G01X1960115Y1586041D02*
Y1591041D01*
X1961796Y1592722D02*
G03X1960115Y1591041I0J-1681D01*
G01X1961796Y1592722D02*
X1965733D01*
X1966620Y1592470D02*
G03X1965733Y1592722I-887J-1429D01*
G01X1966620Y1592470D02*
G03X1966884Y1592394I264J424D01*
G01X1966930*
G03X1967213Y1592482I-0J500*
G01X1968051Y1587369D02*
G03X1967213Y1592482I782J2754D01*
G01X1968051Y1587369D02*
G03X1967414Y1586888I-137J-481D01*
G01Y1586041*
X1965733Y1584360D02*
G03X1967414Y1586041I0J1681D01*
G01X1965733Y1584360D02*
X1963646D01*
G03X1963253Y1583551I0J-500*
G01X1963614Y1582510D02*
G03X1963253Y1583551I-1681J-0D01*
G01X1963614Y1582510D02*
Y1578573D01*
X1963009Y1577281D02*
G03X1963614Y1578573I-1076J1292D01*
G01X1963009Y1577281D02*
G03X1962839Y1576795I320J-384D01*
G01X1962850Y1576740D02*
G03X1962839Y1576795I-2235J-405D01*
G01X1962850Y1576741D02*
G03X1963152Y1576367I492J89D01*
G01X1963440Y1576215D02*
G03X1963152Y1576367I-925J-1403D01*
G01X1963440Y1576215D02*
G03X1963990I275J418D01*
G01X1964915Y1576493D02*
G03X1963990Y1576215I-0J-1681D01*
G01X1964915Y1576493D02*
X1968715D01*
X1969683Y1576186D02*
G03X1968715Y1576493I-968J-1374D01*
G01X1969683Y1576186D02*
G03X1969923Y1576097I288J408D01*
G01X1972358Y1572343D02*
G03X1969923Y1576097I-2715J905D01*
G01X1972358Y1572343D02*
G03X1972832Y1571685I474J-158D01*
G01X1975054*
G03X1975550Y1572246I0J500*
G01X1975538Y1572453D02*
G03X1975550Y1572246I1681J0D01*
G01X1975538Y1572453D02*
Y1575453D01*
X1976376Y1576908D02*
G03X1975538Y1575453I843J-1455D01*
G01X1976376Y1576908D02*
G03X1976479Y1577694I-250J433D01*
G01X1976345Y1577829*
G03X1975886Y1577965I-354J-353*
G01X1979144Y1581222D02*
G03X1975886Y1577965I-4146J889D01*
G01X1979144Y1581222D02*
G03X1979279Y1580763I488J-105D01*
G01X1980403Y1579639*
G03X1981204Y1580216I354J354*
G01X1989150Y1581255D02*
G03X1981204Y1580216I-4152J856D01*
G01X1989150Y1581255D02*
G03X1989640Y1580654I490J-101D01*
G01X1990355*
G03X1990845Y1581255I-0J500*
G01X1991548Y1584576D02*
G03X1990845Y1581255I3450J-2465D01*
G01X1991548Y1584576D02*
G03X1991494Y1585222I-407J291D01*
G01X1991489Y1585226D02*
G03X1991494Y1585222I1467J1468D01*
G01X1991489Y1585226D02*
X1989841Y1586875D01*
X1989233Y1588342D02*
G03X1989841Y1586875I2075J-0D01*
G01X1989233Y1588342D02*
Y1593984D01*
G03X1988733Y1594484I-500J0*
G01X1986740*
X1985184Y1595527D02*
G03X1986740Y1594484I1556J638D01*
G01X1985184Y1595527D02*
G03X1984259I-462J-190D01*
G01X1982704Y1594484D02*
G03X1984259Y1595527I-0J1681D01*
G01X1982704Y1594484D02*
X1979704D01*
X1978023Y1596165D02*
G03X1979704Y1594484I1681J0D01*
G01X1978023Y1596165D02*
Y1599965D01*
X1979704Y1601646D02*
G03X1978023Y1599965I-0J-1681D01*
G01X1979704Y1601646D02*
X1982704D01*
X1983318Y1601530D02*
G03X1982704Y1601646I-614J-1565D01*
G01X1983318Y1601530D02*
G03X1983588Y1601504I182J466D01*
G01X1985277Y1601293D02*
G03X1983588Y1601504I-1182J-2606D01*
G01X1985277Y1601293D02*
G03X1985772Y1601340I207J455D01*
G01X1986740Y1601646D02*
G03X1985772Y1601340I-0J-1681D01*
G01X1986740Y1601646D02*
X1989740D01*
X1991219Y1600763D02*
G03X1989740Y1601646I-1479J-798D01*
G01X1991219Y1600763D02*
G03X1991607Y1600503I440J238D01*
G01X1991708Y1600491D02*
G03X1991607Y1600503I-400J-2834D01*
G01X1991708Y1600491D02*
G03X1992219Y1600752I70J495D01*
G01X1993705Y1601646D02*
G03X1992220Y1600752I0J-1681D01*
G01X1993705Y1601646D02*
X1996705D01*
X1998386Y1599965D02*
G03X1996705Y1601646I-1681J0D01*
G01X1998386Y1599965D02*
Y1597765D01*
G03X1998533Y1597411I500J-0*
G01X2000351Y1595593*
G03X2000705Y1595446I354J353*
G01X2003404*
X2004849Y1594624D02*
G03X2003404Y1595446I-1445J-859D01*
G01X2004849Y1594624D02*
G03X2005708I430J256D01*
G01X2007154Y1595446D02*
G03X2005708Y1594624I-0J-1681D01*
G01X2007154Y1595446D02*
X2010154D01*
X2011792Y1594142D02*
G03X2010154Y1595446I-1638J-377D01*
G01X2011792Y1594142D02*
G03X2012766I487J112D01*
G01X2014405Y1595446D02*
G03X2012767Y1594142I-0J-1681D01*
G01X2014405Y1595446D02*
X2017405D01*
X2018578Y1594969D02*
G03X2017405Y1595446I-1173J-1204D01*
G01X2018578Y1594969D02*
G03X2019090Y1594854I350J358D01*
G01X2020174Y1595004D02*
G03X2019090Y1594854I-156J-2858D01*
G01X2020174Y1595004D02*
G03X2020503Y1595105I27J500D01*
G01X2021518Y1595446D02*
G03X2020503Y1595105I0J-1681D01*
G01X2021518Y1595446D02*
X2024518D01*
X2026003Y1594553D02*
G03X2024518Y1595446I-1485J-788D01*
G01X2026003Y1594553D02*
G03X2026887I442J235D01*
G01X2026968Y1594690D02*
G03X2026887Y1594553I1404J-925D01*
G01X2026968Y1594690D02*
G03Y1595240I-418J275D01*
G01X2026691Y1596165D02*
G03X2026968Y1595240I1681J0D01*
G01X2026691Y1596165D02*
Y1599965D01*
X2027467Y1601382D02*
G03X2026691Y1599965I905J-1417D01*
G01X2027467Y1601382D02*
G03X2027698Y1601804I-269J422D01*
G01Y1610845*
X2028335Y1612382D02*
G03X2027698Y1610845I1537J-1537D01*
G01X2028335Y1612382D02*
X2031740Y1615787D01*
X2033277Y1616423D02*
G03X2031740Y1615787I-0J-2173D01*
G01X2033277Y1616423D02*
X2090355D01*
G03X2090709Y1616570I-0J500*
G01X2091431Y1617292*
G03X2091577Y1617646I-354J354*
G01Y1647234*
G03X2091473Y1647541I-500J0*
G01X2096581Y1649594D02*
G03X2091473Y1647541I-2846J-300D01*
G01X2096581Y1649594D02*
G03X2096985Y1649155I497J52D01*
G01X2098641Y1644503D02*
G03X2096985Y1649155I-2192J1840D01*
G01X2098641Y1644503D02*
G03X2098524Y1644181I383J-322D01*
G01Y1616132*
X2097916Y1614665D02*
G03X2098524Y1616132I-1467J1467D01*
G01X2097916Y1614665D02*
X2094068Y1610817D01*
X2092601Y1610209D02*
G03X2094068Y1610817I-0J2075D01*
G01X2092601Y1610209D02*
X2042482D01*
G03X2042129Y1610062I0J-500*
G01X2041131Y1609065*
G03X2040985Y1608711I354J-354*
G01Y1604798*
G03X2041552Y1604302I500J-0*
G01X2042508Y1598661D02*
G03X2041552Y1604302I-570J2805D01*
G01X2042508Y1598661D02*
G03X2042108Y1598171I100J-490D01*
G01Y1589011*
X2041500Y1587544D02*
G03X2042108Y1589011I-1467J1467D01*
G01X2041500Y1587544D02*
X2027648Y1573692D01*
G03X2027503Y1573382I354J-354*
G01X2022798Y1571450D02*
G03X2027503Y1573382I1854J2180D01*
G01X2022798Y1571450D02*
G03X2021992Y1571203I-324J-381D01*
G01X2021776Y1570728D02*
G03X2021992Y1571203I-1404J925D01*
G01X2021776Y1570728D02*
G03Y1570178I418J-275D01*
G01X2022053Y1569253D02*
G03X2021776Y1570178I-1681J0D01*
G01X2022053Y1569253D02*
Y1565453D01*
X2020372Y1563772D02*
G03X2022053Y1565453I0J1681D01*
G01X2020372Y1563772D02*
X2018832D01*
G03X2018479Y1563626I0J-500*
G01X2018027Y1563174*
G03X2018242Y1562340I354J-353*
G01X2021461Y1559070D02*
G03X2018242Y1562340I-4518J-1227D01*
G01X2021461Y1559070D02*
G03X2022426I482J131D01*
G01X2031461D02*
G03X2022426I-4518J-1227D01*
G01X2031461D02*
G03X2032426I482J131D01*
G01Y1556616D02*
G03Y1559070I4517J1227D01*
G01Y1556616D02*
G03X2031461I-483J-131D01*
G01X2022426D02*
G03X2031461I4517J1227D01*
G01X2022426D02*
G03X2021461I-483J-131D01*
G01X2014820Y1553671D02*
G03X2021461Y1556616I2123J4172D01*
G01X2014820Y1553671D02*
G03X2014094Y1553225I-226J-446D01*
G01Y1552839*
X2013486Y1551372D02*
G03X2014094Y1552839I-1467J1467D01*
G01X2013486Y1551372D02*
X2009559Y1547444D01*
X2008091Y1546836D02*
G03X2009559Y1547444I0J2075D01*
G01X2008091Y1546836D02*
X1998293D01*
G03X1997850Y1546105I-0J-500*
G01X1990921Y1541325D02*
G03X1997850Y1546105I3172J2814D01*
G01X1990921Y1541325D02*
G03X1990194Y1541346I-374J-332D01*
G01X1990121Y1541274*
X1988654Y1540666D02*
G03X1990121Y1541274I-0J2075D01*
G01X1988654Y1540666D02*
X1988433D01*
G03X1988181Y1540598I-0J-500*
G01X1987337Y1540371D02*
G03X1988181Y1540598I-0J1681D01*
G01X1987337Y1540371D02*
X1983400D01*
X1982555Y1540598D02*
G03X1983400Y1540371I845J1454D01*
G01X1982555Y1540598D02*
G03X1982304Y1540666I-251J-432D01*
G01X1980373*
X1978906Y1541274D02*
G03X1980373Y1540666I1467J1467D01*
G01X1978906Y1541274D02*
X1977829Y1542350D01*
X1977221Y1543817D02*
G03X1977829Y1542350I2075J0D01*
G01X1977221Y1543817D02*
Y1545313D01*
G03X1977104Y1545635I-500J0*
G01X1980933Y1549824D02*
G03X1977104Y1545635I-1637J-2349D01*
G01X1980933Y1549824D02*
G03X1981719Y1550234I286J410D01*
G01Y1551107*
X1981781Y1551562D02*
G03X1981719Y1551107I1619J-455D01*
G01X1981781Y1551562D02*
G03Y1551833I-481J135D01*
G01X1981719Y1552288D02*
G03X1981781Y1551833I1681J-0D01*
G01X1981719Y1552288D02*
Y1553666D01*
X1981781Y1554121D02*
G03X1981719Y1553666I1619J-455D01*
G01X1981781Y1554121D02*
G03Y1554392I-481J135D01*
G01X1981719Y1554847D02*
G03X1981781Y1554392I1681J0D01*
G01X1981719Y1554847D02*
Y1556225D01*
X1981781Y1556680D02*
G03X1981719Y1556225I1619J-455D01*
G01X1981781Y1556680D02*
G03Y1556951I-481J136D01*
G01X1981719Y1557406D02*
G03X1981781Y1556951I1681J0D01*
G01X1981719Y1557406D02*
Y1558784D01*
X1981781Y1559239D02*
G03X1981719Y1558784I1619J-455D01*
G01X1981781Y1559239D02*
G03Y1559510I-481J136D01*
G01X1981719Y1559965D02*
G03X1981781Y1559510I1681J0D01*
G01X1981719Y1559965D02*
Y1560805D01*
G03X1981396Y1561273I-500J0*
G01X1980663Y1561746D02*
G03X1981396Y1561273I1467J1467D01*
G01X1980663Y1561746D02*
X1979849Y1562560D01*
G03X1979481Y1562706I-353J-353*
G01X1976128Y1566059D02*
G03X1979481Y1562706I3255J-98D01*
G01X1976128Y1566059D02*
G03X1975982Y1566427I-500J15D01*
G01X1975021Y1567389*
G03X1974667Y1567535I-354J-354*
G01X1973673*
G03X1973266Y1566745I0J-500*
G01X1973126Y1563244D02*
G03X1973266Y1566745I-2192J1841D01*
G01X1973126Y1563244D02*
G03X1973009Y1562927I383J-321D01*
G01X1972402Y1561480D02*
G03X1973009Y1562927I-1468J1467D01*
G01X1972402Y1561480D02*
X1971777Y1560855D01*
G03X1971630Y1560501I353J-354*
G01Y1555964*
X1971022Y1554497D02*
G03X1971630Y1555964I-1467J1467D01*
G01X1971022Y1554497D02*
X1968035Y1551510D01*
X1967219Y1551007D02*
G03X1968035Y1551510I-651J1970D01*
G01X1967219Y1551007D02*
G03X1967376Y1550032I157J-475D01*
G01X1969371*
X1970907Y1549396D02*
G03X1969371Y1550032I-1536J-1537D01*
G01X1970907Y1549396D02*
X1971884Y1548419D01*
G03X1972171Y1548277I354J353*
G01X1972766Y1542750D02*
G03X1972171Y1548277I-977J2690D01*
G01X1972766Y1542750D02*
G03X1972443Y1542355I171J-470D01*
G01X1967819Y1540555D02*
G03X1972443Y1542355I1794J2230D01*
G01X1967819Y1540555D02*
G03X1967505Y1540666I-314J-389D01*
G01X1964023*
G03X1963772Y1540598I0J-500*
G01X1962927Y1540371D02*
G03X1963772Y1540598I0J1681D01*
G01X1962927Y1540371D02*
X1958990D01*
X1957309Y1542032D02*
G03X1958990Y1540371I1681J20D01*
G01X1957309Y1542032D02*
G03X1956515Y1542430I-500J-6D01*
G01X1955526Y1542108D02*
G03X1956515Y1542430I-0J1681D01*
G01X1955526Y1542108D02*
X1951726D01*
X1950045Y1543789D02*
G03X1951726Y1542108I1681J0D01*
G01X1950045Y1543789D02*
Y1546789D01*
X1950750Y1548159D02*
G03X1950045Y1546789I976J-1370D01*
G01X1950750Y1548159D02*
G03X1950960Y1548566I-290J407D01*
G01Y1550880*
G03X1950460Y1551380I-500J-0*
G01X1949061*
X1947380Y1553061D02*
G03X1949061Y1551380I1681J-0D01*
G01X1947380Y1553061D02*
Y1557381D01*
G03X1946880Y1557881I-500J0*
G01X1924063*
X1922178Y1558662D02*
G03X1924063Y1557881I1885J1884D01*
G01X1922178Y1558662D02*
X1899319Y1581521D01*
X1898538Y1583406D02*
G03X1899319Y1581521I2665J0D01*
G01X1898538Y1583406D02*
Y1593754D01*
G03X1898392Y1594108I-500J0*
G01X1898060Y1594439*
G03X1897210Y1594031I-353J-354*
G01X1895615Y1589567D02*
G03X1897210Y1594031I-3797J3873D01*
G01X1895615Y1589567D02*
G03X1895612Y1589564I350J-357D01*
G01X1891419Y1585392*
G03X1891353Y1584764I353J-354*
X1929028Y1547185I108599J71198*
X1929656Y1547252I273J418*
G01X1933986Y1551623*
X1934101Y1551730D02*
G03X1933986Y1551623I1359J-1567D01*
G01X1941600Y1543957D02*
G03X1934101Y1551730I-3957J3687D01*
G01X1941548Y1543904D02*
G03X1941600Y1543957I-1466J1467D01*
G01X1941548Y1543904D02*
X1939387Y1541743D01*
G03X1939507Y1540947I353J-353*
X1949664Y1536140I60564J114817*
X1949858Y1536100I194J460*
G01X2050178*
G03X2050371Y1536139I-0J500*
X2060494Y1540906I-50024J119369*
X2060615Y1541702I-232J443*
G01X2058432Y1543886*
X2058374Y1543945D02*
G03X2058432Y1543886I1525J1408D01*
G01X2066171Y1551483D02*
G03X2058374Y1543945I-3812J-3858D01*
G01X2066181Y1551473D02*
G03X2066171Y1551483I-1468J-1466D01*
G01X2066181Y1551473D02*
X2070440Y1547209D01*
G03X2071067Y1547145I354J354*
G01X2071067D02*
G03X2108633Y1584753I-71147J108631D01*
X2108568Y1585380I-418J274*
G01X2104338Y1589610*
X2104332Y1589616D02*
G03X2104338Y1589610I1473J1461D01*
G01X2112045Y1597237D02*
G03X2104332Y1589616I-3864J-3803D01*
G01X2112045Y1597237D02*
G03X2112048Y1597234I357J351D01*
G01X2114078Y1595204*
G03X2114874Y1595324I354J353*
X2129663Y1648913I-114882J60539*
X2128701Y1649130I-500J27*
G01X2128807Y1654331D02*
G03X2128701Y1649130I-6758J-2464D01*
G01X2128807Y1654331D02*
G03X2129777Y1654502I470J171D01*
G01X1983437Y1577134D02*
G03X1983602Y1578107I0J500D01*
G01X1981903Y1579212D02*
G03X1983602Y1578107I3095J2899D01*
G01X1981903Y1579212D02*
G03X1981069Y1578699I-365J-342D01*
G01X1981194Y1577989D02*
G03X1981069Y1578699I-2075J0D01*
G01X1981194Y1577989D02*
Y1577527D01*
G03X1981539Y1577052I500J0*
G01X1981944Y1576857D02*
G03X1981539Y1577052I-925J-1404D01*
G01X1981944Y1576857D02*
G03X1982494I275J418D01*
G01X1983419Y1577134D02*
G03X1982494Y1576857I-0J-1681D01*
G01X1983419Y1577134D02*
X1983437D01*
X2048176Y1545257D02*
G03X2048176I-7193J0D01*
G01X2065410Y1627399D02*
G03Y1630327I4446J1464D01*
G01Y1627399D02*
G03X2064460I-475J-156D01*
G01X2056457Y1625820D02*
G03X2064460Y1627399I3557J3043D01*
G01X2056457Y1625820D02*
G03X2055697I-380J-325D01*
G01Y1631906D02*
G03Y1625820I-3557J-3043D01*
G01Y1631906D02*
G03X2056457I380J325D01*
G01X2064460Y1630327D02*
G03X2056457Y1631906I-4446J-1464D01*
G01X2064460Y1630327D02*
G03X2065410I475J156D01*
G01X2006727Y1618059D02*
G03X2002605Y1622181I-1035J3087D01*
G01X2006727Y1618059D02*
G03X2006532Y1617939I158J-474D01*
G01X2001136Y1612543*
X1999113Y1611705D02*
G03X2001136Y1612543I-0J2862D01*
G01X1999113Y1611705D02*
X1994423D01*
G03X1994200Y1611652I-0J-500*
G01Y1617482D02*
G03Y1611653I-1451J-2915D01*
G01Y1617482D02*
G03X1994423Y1617429I223J447D01*
G01X1997720*
G03X1998073Y1617576I-0J500*
G01X2002484Y1621986*
G03X2002605Y1622181I-353J354*
G01X1983792Y1652249D02*
Y1647524D01*
X1982111Y1645843D02*
G03X1983792Y1647524I0J1681D01*
G01X1982111Y1645843D02*
X1977387D01*
X1975706Y1647524D02*
G03X1977387Y1645843I1681J0D01*
G01X1975706Y1647524D02*
Y1652249D01*
X1977387Y1653930D02*
G03X1975706Y1652249I-0J-1681D01*
G01X1977387Y1653930D02*
X1982111D01*
X1983792Y1652249D02*
G03X1982111Y1653930I-1681J-0D01*
G01X1963175Y1615336D02*
Y1610336D01*
X1961494Y1608655D02*
G03X1963175Y1610336I0J1681D01*
G01X1961494Y1608655D02*
X1955494D01*
X1953813Y1610336D02*
G03X1955494Y1608655I1681J-0D01*
G01X1953813Y1610336D02*
Y1615336D01*
X1954305Y1616524D02*
G03X1953813Y1615336I1189J-1188D01*
G01X1954305Y1616524D02*
G03X1954451Y1616877I-354J353D01*
G01Y1626344*
G03X1954388Y1626587I-500J0*
G01X1954032Y1627399D02*
G03X1954388Y1626587I4447J1464D01*
G01X1954032Y1627399D02*
G03X1953082I-475J-156D01*
G01X1945079Y1625820D02*
G03X1953082Y1627399I3557J3043D01*
G01X1945079Y1625820D02*
G03X1944319I-380J-325D01*
G01Y1631906D02*
G03Y1625820I-3557J-3043D01*
G01Y1631906D02*
G03X1945079I380J325D01*
G01X1953082Y1630327D02*
G03X1945079Y1631906I-4446J-1464D01*
G01X1953082Y1630327D02*
G03X1954032I475J156D01*
G01X1962598Y1626639D02*
G03X1954032Y1630327I-4119J2224D01*
G01X1962598Y1626639D02*
G03X1962538Y1626401I440J-238D01*
G01Y1616877*
G03X1962684Y1616524I500J0*
G01X1963175Y1615336D02*
G03X1962684Y1616524I-1681J-0D01*
G01X1913281Y1656686D02*
Y1653686D01*
X1911599Y1652005D02*
G03X1913281Y1653686I0J1681D01*
G01X1911599Y1652005D02*
X1910715D01*
G03X1910215Y1651505I0J-500*
G01Y1647779*
G03X1910217Y1647744I500J0*
G01X1910224Y1647532D02*
G03X1910217Y1647744I-3059J0D01*
G01X1910224Y1647532D02*
Y1643291D01*
X1907165Y1640232D02*
G03X1910224Y1643291I-0J3059D01*
G01X1907165Y1640232D02*
X1906114D01*
G03X1906041Y1640227I0J-500*
G01X1904617D02*
G03X1906041I712J4778D01*
G01X1904617D02*
G03X1904543Y1640232I-74J-495D01*
G01X1898979*
G03X1898864Y1640219I0J-500*
G01X1898479Y1640174D02*
G03X1898864Y1640219I-0J1681D01*
G01X1898479Y1640174D02*
X1892179D01*
X1890498Y1641855D02*
G03X1892179Y1640174I1681J-0D01*
G01X1890498Y1641855D02*
Y1648154D01*
X1891626Y1649742D02*
G03X1890498Y1648154I553J-1588D01*
G01X1891626Y1649742D02*
G03X1891791Y1649837I-164J472D01*
G01X1893802Y1650591D02*
G03X1891791Y1649837I-0J-3059D01*
G01X1893802Y1650591D02*
X1900423D01*
G03X1900923Y1651091I-0J500*
G01Y1651505*
G03X1900423Y1652005I-500J-0*
G01X1899954*
X1898273Y1653686D02*
G03X1899954Y1652005I1681J-0D01*
G01X1898273Y1653686D02*
Y1656686D01*
X1899954Y1658367D02*
G03X1898273Y1656686I0J-1681D01*
G01X1899954Y1658367D02*
X1903754D01*
X1904774Y1658022D02*
G03X1903754Y1658367I-1020J-1336D01*
G01X1904774Y1658022D02*
G03X1905077Y1657920I303J398D01*
G01X1906476*
G03X1906780Y1658022I0J500*
G01X1907799Y1658367D02*
G03X1906780Y1658022I0J-1681D01*
G01X1907799Y1658367D02*
X1911599D01*
X1913281Y1656686D02*
G03X1911599Y1658367I-1682J-0D01*
G01X1981195Y1577495D02*
X1983918D01*
X1981153Y1578395D02*
X1982954D01*
X1981276Y1579295D02*
X1981801D01*
X2082284Y1662995D02*
X2129777D01*
X2080853Y1662095D02*
X2129777D01*
X2079301Y1661195D02*
X2129777D01*
X2077603Y1660295D02*
X2129777D01*
X2075722Y1659395D02*
X2129777D01*
X2124842Y1658495D02*
X2129777D01*
X2126399Y1657595D02*
X2129777D01*
X2127381Y1656695D02*
X2129777D01*
X2128075Y1655795D02*
X2129777D01*
X2128573Y1654895D02*
X2129777D01*
X2128455Y1648595D02*
X2129645D01*
X2127909Y1647695D02*
X2129592D01*
X2127150Y1646795D02*
X2129532D01*
X2126059Y1645895D02*
X2129466D01*
X2124175Y1644995D02*
X2129393D01*
X2098524Y1644095D02*
X2129315D01*
X2098524Y1643195D02*
X2129230D01*
X2098524Y1642295D02*
X2129138D01*
X2098524Y1641395D02*
X2129040D01*
X2098524Y1640495D02*
X2128936D01*
X2098524Y1639595D02*
X2128826D01*
X2098524Y1638695D02*
X2128709D01*
X2098524Y1637795D02*
X2128586D01*
X2098524Y1636895D02*
X2128456D01*
X2098524Y1635995D02*
X2128320D01*
X2098524Y1635095D02*
X2128178D01*
X2098524Y1634195D02*
X2128028D01*
X2098524Y1633295D02*
X2127873D01*
X2098524Y1632395D02*
X2127711D01*
X2098524Y1631495D02*
X2127542D01*
X2098524Y1630595D02*
X2127367D01*
X2098524Y1629695D02*
X2127185D01*
X2098524Y1628795D02*
X2126997D01*
X2098524Y1627895D02*
X2126801D01*
X2098524Y1626995D02*
X2126600D01*
X2098524Y1626095D02*
X2126391D01*
X2098524Y1625195D02*
X2126176D01*
X2098524Y1624295D02*
X2125954D01*
X2098524Y1623395D02*
X2125725D01*
X2098524Y1622495D02*
X2125489D01*
X2098524Y1621595D02*
X2125246D01*
X2098524Y1620695D02*
X2124996D01*
X2098524Y1619795D02*
X2124740D01*
X2098524Y1618895D02*
X2124476D01*
X2098524Y1617995D02*
X2124205D01*
X2098524Y1617095D02*
X2123927D01*
X2098524Y1616195D02*
X2123642D01*
X2098348Y1615295D02*
X2123350D01*
X2097647Y1614395D02*
X2123050D01*
X2096747Y1613495D02*
X2122743D01*
X2095847Y1612595D02*
X2122429D01*
X2094947Y1611695D02*
X2122107D01*
X2094046Y1610795D02*
X2121778D01*
X2041962Y1609895D02*
X2121441D01*
X2041073Y1608995D02*
X2121096D01*
X2040985Y1608095D02*
X2120744D01*
X2040985Y1607195D02*
X2120384D01*
X2040985Y1606295D02*
X2120017D01*
X2098974Y1644995D02*
X2119923D01*
X2040985Y1605395D02*
X2119641D01*
X2041087Y1604495D02*
X2119257D01*
X2073599Y1658495D02*
X2119256D01*
X2043851Y1603595D02*
X2118866D01*
X2044523Y1602695D02*
X2118466D01*
X2044782Y1601795D02*
X2118058D01*
X2099276Y1645895D02*
X2118039D01*
X2071136Y1657595D02*
X2117699D01*
X2044743Y1600895D02*
X2117642D01*
X2044394Y1599995D02*
X2117217D01*
X2099275Y1646795D02*
X2116948D01*
X2043542Y1599095D02*
X2116784D01*
X2068132Y1656695D02*
X2116718D01*
X2110774Y1598195D02*
X2116342D01*
X2098972Y1647695D02*
X2116189D01*
X2064021Y1655795D02*
X2116024D01*
X2111987Y1597295D02*
X2115892D01*
X2098215Y1648595D02*
X2115643D01*
X1913281Y1654895D02*
X2115525D01*
X2112887Y1596395D02*
X2115432D01*
X2096602Y1649495D02*
X2115258D01*
X1913281Y1653995D02*
X2115178D01*
X2096377Y1650395D02*
X2115008D01*
X2113787Y1595495D02*
X2114964D01*
X1983564Y1653095D02*
X2114962D01*
X2095781Y1651295D02*
X2114879D01*
X1983792Y1652195D02*
X2114864D01*
X2038651Y1584695D02*
X2108596D01*
X2039551Y1585595D02*
X2108353D01*
X2037751Y1583795D02*
X2108002D01*
X2040451Y1586495D02*
X2107453D01*
X2036851Y1582895D02*
X2107397D01*
X2035951Y1581995D02*
X2106781D01*
X2041351Y1587395D02*
X2106553D01*
X2035051Y1581095D02*
X2106154D01*
X2041980Y1588295D02*
X2105653D01*
X2042108Y1598195D02*
X2105588D01*
X2034151Y1580195D02*
X2105515D01*
X2033251Y1579295D02*
X2104865D01*
X2042108Y1589195D02*
X2104753D01*
X2042108Y1597295D02*
X2104375D01*
X2032351Y1578395D02*
X2104204D01*
X2042108Y1590095D02*
X2103910D01*
X2042108Y1596395D02*
X2103640D01*
X2031451Y1577495D02*
X2103530D01*
X2042108Y1590995D02*
X2103339D01*
X2042108Y1595495D02*
X2103167D01*
X2042108Y1591895D02*
X2102982D01*
X2042108Y1594595D02*
X2102885D01*
X2030551Y1576595D02*
X2102844D01*
X2042108Y1592795D02*
X2102797D01*
X2042108Y1593695D02*
X2102766D01*
X2029651Y1575695D02*
X2102145D01*
X2028751Y1574795D02*
X2101433D01*
X2027851Y1573895D02*
X2100709D01*
X2027443Y1572995D02*
X2099971D01*
X2027068Y1572095D02*
X2099219D01*
X2026157Y1571195D02*
X2098454D01*
X2021719Y1570295D02*
X2097674D01*
X2022047Y1569395D02*
X2096880D01*
X2022053Y1568495D02*
X2096070D01*
X2022053Y1567595D02*
X2095246D01*
X2022053Y1566695D02*
X2094405D01*
X2022053Y1565795D02*
X2093548D01*
X2021958Y1564895D02*
X2092675D01*
X2021209Y1563995D02*
X2091785D01*
X1983792Y1651295D02*
X2091688D01*
X1983626Y1646795D02*
X2091577D01*
X1982528Y1645895D02*
X2091577D01*
X1910224Y1644995D02*
X2091577D01*
X1910224Y1644095D02*
X2091577D01*
X1910223Y1643195D02*
X2091577D01*
X1910057Y1642295D02*
X2091577D01*
X1909566Y1641395D02*
X2091577D01*
X1908407Y1640495D02*
X2091577D01*
X1871179Y1639595D02*
X2091577D01*
X1871296Y1638695D02*
X2091577D01*
X1871419Y1637795D02*
X2091577D01*
X1871549Y1636895D02*
X2091577D01*
X1871686Y1635995D02*
X2091577D01*
X1871829Y1635095D02*
X2091577D01*
X1871978Y1634195D02*
X2091577D01*
X2071361Y1633295D02*
X2091577D01*
X2072928Y1632395D02*
X2091577D01*
X2073727Y1631495D02*
X2091577D01*
X2074205Y1630595D02*
X2091577D01*
X2074463Y1629695D02*
X2091577D01*
X2074537Y1628795D02*
X2091577D01*
X2074437Y1627895D02*
X2091577D01*
X2074149Y1626995D02*
X2091577D01*
X2073632Y1626095D02*
X2091577D01*
X2072766Y1625195D02*
X2091577D01*
X2070882Y1624295D02*
X2091577D01*
X2008046Y1623395D02*
X2091577D01*
X2008655Y1622495D02*
X2091577D01*
X2008917Y1621595D02*
X2091577D01*
X2008916Y1620695D02*
X2091577D01*
X2008654Y1619795D02*
X2091577D01*
X2008044Y1618895D02*
X2091577D01*
X2006600Y1617995D02*
X2091577D01*
X1983792Y1647695D02*
X2091361D01*
X2005689Y1617095D02*
X2091234D01*
X1983792Y1650395D02*
X2091093D01*
X1983792Y1648595D02*
X2090959D01*
X1983792Y1649495D02*
X2090880D01*
X2017963Y1563095D02*
X2090877D01*
X2038666Y1562195D02*
X2089950D01*
X2040104Y1561295D02*
X2089005D01*
X2040867Y1560395D02*
X2088041D01*
X2041323Y1559495D02*
X2087057D01*
X2041563Y1558595D02*
X2086052D01*
X2041622Y1557695D02*
X2085026D01*
X2041505Y1556795D02*
X2083977D01*
X2041200Y1555895D02*
X2082906D01*
X2040658Y1554995D02*
X2081810D01*
X2039748Y1554095D02*
X2080690D01*
X2037502Y1553195D02*
X2079544D01*
X2065116Y1552295D02*
X2078371D01*
X2066259Y1551395D02*
X2077169D01*
X2067158Y1550495D02*
X2075938D01*
X2068057Y1549595D02*
X2074676D01*
X2068956Y1548695D02*
X2073381D01*
X2069854Y1547795D02*
X2072052D01*
X2061040Y1624295D02*
X2068831D01*
X2061519Y1633295D02*
X2068352D01*
X2062923Y1625195D02*
X2066947D01*
X2063085Y1632395D02*
X2066785D01*
X2063789Y1626095D02*
X2066081D01*
X2063885Y1631495D02*
X2065986D01*
X2064306Y1626995D02*
X2065564D01*
X2064363Y1630595D02*
X2065508D01*
X2047114Y1541495D02*
X2060740D01*
X2047583Y1542395D02*
X2059922D01*
X2046461Y1540595D02*
X2059898D01*
X2042465Y1552295D02*
X2059602D01*
X2047904Y1543295D02*
X2059022D01*
X2053166Y1624295D02*
X2058988D01*
X2053645Y1633295D02*
X2058509D01*
X2044732Y1551395D02*
X2058461D01*
X2048097Y1544195D02*
X2058157D01*
X2045545Y1539695D02*
X2058129D01*
X2045912Y1550495D02*
X2057758D01*
X2048174Y1545095D02*
X2057561D01*
X2046720Y1549595D02*
X2057306D01*
X2048138Y1545995D02*
X2057186D01*
X2055049Y1625195D02*
X2057105D01*
X2047301Y1548695D02*
X2057042D01*
X2047987Y1546895D02*
X2056985D01*
X2055211Y1632395D02*
X2056943D01*
X2047713Y1547795D02*
X2056938D01*
X2044144Y1538795D02*
X2056288D01*
X1945685Y1537895D02*
X2054371D01*
X1947679Y1536995D02*
X2052367D01*
X2006519Y1624295D02*
X2051114D01*
X1959983Y1633295D02*
X2050635D01*
X1962538Y1625195D02*
X2049231D01*
X1961550Y1632395D02*
X2049069D01*
X1962538Y1626095D02*
X2048364D01*
X1962349Y1631495D02*
X2048269D01*
X1962771Y1626995D02*
X2047847D01*
X1962827Y1630595D02*
X2047791D01*
X1963059Y1627895D02*
X2047560D01*
X1963085Y1629695D02*
X2047533D01*
X1963159Y1628795D02*
X2047459D01*
X1952932Y1655795D02*
X2047354D01*
X1956907Y1656695D02*
X2043243D01*
X1959849Y1657595D02*
X2040239D01*
X2014021Y1552295D02*
X2039501D01*
X1943775Y1538795D02*
X2037823D01*
X1962273Y1658495D02*
X2037776D01*
X2013509Y1551395D02*
X2037234D01*
X1941942Y1539695D02*
X2036421D01*
X2027502Y1553195D02*
X2036384D01*
X2012610Y1550495D02*
X2036054D01*
X1964366Y1659395D02*
X2035653D01*
X1996421Y1540595D02*
X2035505D01*
X2011710Y1549595D02*
X2035246D01*
X2028666Y1562195D02*
X2035220D01*
X1997408Y1541495D02*
X2034852D01*
X2010810Y1548695D02*
X2034665D01*
X1997958Y1542395D02*
X2034384D01*
X2009910Y1547795D02*
X2034253D01*
X2029748Y1554095D02*
X2034138D01*
X1998248Y1543295D02*
X2034063D01*
X2008582Y1546895D02*
X2033979D01*
X1998333Y1544195D02*
X2033869D01*
X1997905Y1545995D02*
X2033828D01*
X1998224Y1545095D02*
X2033792D01*
X2030104Y1561295D02*
X2033782D01*
X1966225Y1660295D02*
X2033772D01*
X2030658Y1554995D02*
X2033228D01*
X2030867Y1560395D02*
X2033019D01*
X2031200Y1555895D02*
X2032686D01*
X2031323Y1559495D02*
X2032563D01*
X2031551Y1556795D02*
X2032335D01*
X2004789Y1616195D02*
X2032308D01*
X1967903Y1661195D02*
X2032074D01*
X2003889Y1615295D02*
X2031248D01*
X1969438Y1662095D02*
X2030522D01*
X2002989Y1614395D02*
X2030348D01*
X2002089Y1613495D02*
X2029448D01*
X1970854Y1662995D02*
X2029091D01*
X2001189Y1612595D02*
X2028548D01*
X1994326Y1611695D02*
X2027872D01*
X1963175Y1610795D02*
X2027698D01*
X1963117Y1609895D02*
X2027698D01*
X1962509Y1608995D02*
X2027698D01*
X1920908Y1608095D02*
X2027698D01*
X1920908Y1607195D02*
X2027698D01*
X1920908Y1606295D02*
X2027698D01*
X1920908Y1605395D02*
X2027698D01*
X1920908Y1604495D02*
X2027698D01*
X1920908Y1603595D02*
X2027698D01*
X1920908Y1602695D02*
X2027698D01*
X1920908Y1601795D02*
X2027698D01*
X1998105Y1600895D02*
X2026971D01*
X2025980Y1594595D02*
X2026910D01*
X2000488Y1595495D02*
X2026830D01*
X1998386Y1599995D02*
X2026691D01*
X1998386Y1599095D02*
X2026691D01*
X1998386Y1598195D02*
X2026691D01*
X1998648Y1597295D02*
X2026691D01*
X1999548Y1596395D02*
X2026691D01*
X2017502Y1553195D02*
X2026384D01*
X2018666Y1562195D02*
X2025220D01*
X2019748Y1554095D02*
X2024138D01*
X2020104Y1561295D02*
X2023782D01*
X2020658Y1554995D02*
X2023228D01*
X2021990Y1571195D02*
X2023147D01*
X2020867Y1560395D02*
X2023019D01*
X2021200Y1555895D02*
X2022686D01*
X2021323Y1559495D02*
X2022563D01*
X2021551Y1556795D02*
X2022335D01*
X2014094Y1553195D02*
X2016384D01*
X2011615Y1594595D02*
X2012943D01*
X2004867D02*
X2005690D01*
X1962538Y1624295D02*
X2004865D01*
X1962538Y1623395D02*
X2003337D01*
X1962538Y1622495D02*
X2002728D01*
X1962538Y1621595D02*
X2002093D01*
X1962538Y1620695D02*
X2001193D01*
X1962538Y1619795D02*
X2000293D01*
X1962538Y1618895D02*
X1999393D01*
X1962538Y1617995D02*
X1998493D01*
X1991140Y1600895D02*
X1992305D01*
X1988177Y1540595D02*
X1991765D01*
X1988359Y1584695D02*
X1991611D01*
X1963175Y1611695D02*
X1991214D01*
X1987413Y1585595D02*
X1991120D01*
X1988889Y1583795D02*
X1991106D01*
X1989144Y1581095D02*
X1990852D01*
X1989164Y1582895D02*
X1990831D01*
X1989236Y1581995D02*
X1990759D01*
X1962538Y1617095D02*
X1990697D01*
X1967414Y1586495D02*
X1990220D01*
X1963175Y1612595D02*
X1990158D01*
X1962939Y1616195D02*
X1989929D01*
X1963175Y1613495D02*
X1989674D01*
X1963175Y1615295D02*
X1989575D01*
X1963175Y1614395D02*
X1989497D01*
X1969702Y1587395D02*
X1989461D01*
X1971036Y1588295D02*
X1989233D01*
X1922384Y1593695D02*
X1989233D01*
X1969857Y1592795D02*
X1989233D01*
X1971080Y1591895D02*
X1989233D01*
X1971559Y1590995D02*
X1989233D01*
X1971695Y1590095D02*
X1989233D01*
X1971541Y1589195D02*
X1989233D01*
X1983306Y1594595D02*
X1986138D01*
X1984246Y1595495D02*
X1985198D01*
X1977413Y1585595D02*
X1982582D01*
X1971456Y1540595D02*
X1982560D01*
X1971630Y1556795D02*
X1981800D01*
X1971630Y1559495D02*
X1981785D01*
X1970621Y1554095D02*
X1981774D01*
X1967911Y1551395D02*
X1981744D01*
X1971630Y1560395D02*
X1981719D01*
X1971630Y1558595D02*
X1981719D01*
X1971630Y1557695D02*
X1981719D01*
X1971629Y1555895D02*
X1981719D01*
X1971390Y1554995D02*
X1981719D01*
X1969721Y1553195D02*
X1981719D01*
X1968821Y1552295D02*
X1981719D01*
X1966877Y1550495D02*
X1981719D01*
X1978359Y1584695D02*
X1981636D01*
X1972217Y1561295D02*
X1981338D01*
X1979847Y1580195D02*
X1981214D01*
X1978889Y1583795D02*
X1981106D01*
X1979133Y1581095D02*
X1980881D01*
X1979164Y1582895D02*
X1980831D01*
X1979236Y1581995D02*
X1980759D01*
X1972868Y1562195D02*
X1980214D01*
X1922264Y1594595D02*
X1979102D01*
X1972168Y1541495D02*
X1978684D01*
X1920908Y1600895D02*
X1978304D01*
X1921414Y1595495D02*
X1978162D01*
X1920908Y1599995D02*
X1978023D01*
X1920908Y1599095D02*
X1978023D01*
X1920908Y1598195D02*
X1978023D01*
X1920908Y1597295D02*
X1978023D01*
X1920908Y1596395D02*
X1978023D01*
X1973040Y1563095D02*
X1977836D01*
X1972451Y1542395D02*
X1977785D01*
X1970677Y1549595D02*
X1977373D01*
X1973684Y1543295D02*
X1977288D01*
X1974631Y1545095D02*
X1977221D01*
X1974367Y1544195D02*
X1977221D01*
X1910224Y1645895D02*
X1976971D01*
X1974597Y1545995D02*
X1976846D01*
X1973581Y1563995D02*
X1976787D01*
X1971607Y1548695D02*
X1976707D01*
X1963224Y1577495D02*
X1976601D01*
X1974254Y1546895D02*
X1976493D01*
X1973416Y1547795D02*
X1976452D01*
X1973790Y1564895D02*
X1976306D01*
X1973707Y1565795D02*
X1976131D01*
X1962900Y1576595D02*
X1975985D01*
X1913173Y1653095D02*
X1975935D01*
X1910224Y1646795D02*
X1975872D01*
X1973300Y1566695D02*
X1975714D01*
X1912377Y1652195D02*
X1975706D01*
X1910215Y1651295D02*
X1975706D01*
X1910215Y1650395D02*
X1975706D01*
X1910215Y1649495D02*
X1975706D01*
X1910215Y1648595D02*
X1975706D01*
X1910220Y1647695D02*
X1975706D01*
X1971127Y1575695D02*
X1975555D01*
X1972341Y1572095D02*
X1975546D01*
X1972051Y1574795D02*
X1975538D01*
X1972431Y1573895D02*
X1975538D01*
X1972494Y1572995D02*
X1975538D01*
X1963605Y1578395D02*
X1972954D01*
X1967354Y1585595D02*
X1972582D01*
X1963614Y1579295D02*
X1971827D01*
X1966741Y1584695D02*
X1971636D01*
X1963614Y1580195D02*
X1971215D01*
X1963150Y1583795D02*
X1971106D01*
X1963614Y1581095D02*
X1970881D01*
X1963570Y1582895D02*
X1970831D01*
X1963614Y1581995D02*
X1970759D01*
X1922384Y1592795D02*
X1967809D01*
X1963767Y1540595D02*
X1967761D01*
X1922262Y1584695D02*
X1960583D01*
X1922384Y1591895D02*
X1960348D01*
X1922653Y1585595D02*
X1960175D01*
X1922384Y1590995D02*
X1960115D01*
X1922384Y1590095D02*
X1960115D01*
X1922384Y1589195D02*
X1960115D01*
X1922330Y1588295D02*
X1960115D01*
X1922502Y1587395D02*
X1960115D01*
X1922725Y1586495D02*
X1960115D01*
X1940179Y1540595D02*
X1958151D01*
X1923476Y1576595D02*
X1957727D01*
X1939251Y1541495D02*
X1957404D01*
X1924376Y1575695D02*
X1957285D01*
X1956466Y1542395D02*
X1957146D01*
X1925276Y1574795D02*
X1957034D01*
X1953781Y1573895D02*
X1957034D01*
X1954390Y1572995D02*
X1957034D01*
X1954457Y1572095D02*
X1957026D01*
X1950141Y1633295D02*
X1956974D01*
X1921312Y1583795D02*
X1956913D01*
X1922576Y1577495D02*
X1956706D01*
X1917176Y1582895D02*
X1956360D01*
X1921676Y1578395D02*
X1956324D01*
X1918076Y1581995D02*
X1956315D01*
X1918976Y1581095D02*
X1956315D01*
X1919876Y1580195D02*
X1956315D01*
X1920776Y1579295D02*
X1956315D01*
X1951707Y1632395D02*
X1955407D01*
X1952507Y1631495D02*
X1954608D01*
X1920908Y1608995D02*
X1954479D01*
X1952412Y1626095D02*
X1954451D01*
X1951545Y1625195D02*
X1954451D01*
X1949662Y1624295D02*
X1954451D01*
X1918459Y1623395D02*
X1954451D01*
X1919359Y1622495D02*
X1954451D01*
X1920258Y1621595D02*
X1954451D01*
X1920844Y1620695D02*
X1954451D01*
X1920908Y1619795D02*
X1954451D01*
X1920908Y1618895D02*
X1954451D01*
X1920908Y1617995D02*
X1954451D01*
X1920908Y1617095D02*
X1954451D01*
X1952929Y1626995D02*
X1954186D01*
X1952985Y1630595D02*
X1954130D01*
X1920908Y1616195D02*
X1954049D01*
X1920908Y1609895D02*
X1953872D01*
X1920908Y1615295D02*
X1953813D01*
X1920908Y1614395D02*
X1953813D01*
X1920908Y1613495D02*
X1953813D01*
X1920908Y1612595D02*
X1953813D01*
X1920908Y1611695D02*
X1953813D01*
X1920908Y1610795D02*
X1953813D01*
X1942239Y1550495D02*
X1950960D01*
X1942687Y1549595D02*
X1950960D01*
X1942948Y1548695D02*
X1950960D01*
X1940039Y1542395D02*
X1950786D01*
X1943049Y1547795D02*
X1950379D01*
X1940940Y1543295D02*
X1950119D01*
X1942999Y1546895D02*
X1950048D01*
X1942794Y1545995D02*
X1950045D01*
X1942413Y1545095D02*
X1950045D01*
X1941809Y1544195D02*
X1950045D01*
X1941539Y1551395D02*
X1948832D01*
X1926176Y1573895D02*
X1948755D01*
X1946417Y1572995D02*
X1948146D01*
X1941788Y1624295D02*
X1947610D01*
X1940402Y1552295D02*
X1947564D01*
X1916114Y1556795D02*
X1947380D01*
X1917191Y1555895D02*
X1947380D01*
X1918291Y1554995D02*
X1947380D01*
X1919416Y1554095D02*
X1947380D01*
X1920568Y1553195D02*
X1947380D01*
X1915061Y1557695D02*
X1947269D01*
X1942267Y1633295D02*
X1947131D01*
X1943671Y1625195D02*
X1945727D01*
X1943833Y1632395D02*
X1945565D01*
X1917559Y1624295D02*
X1939736D01*
X1872134Y1633295D02*
X1939257D01*
X1916659Y1625195D02*
X1937853D01*
X1872296Y1632395D02*
X1937691D01*
X1915759Y1626095D02*
X1936986D01*
X1872465Y1631495D02*
X1936891D01*
X1914860Y1626995D02*
X1936469D01*
X1872641Y1630595D02*
X1936413D01*
X1913960Y1627895D02*
X1936182D01*
X1912152Y1629695D02*
X1936156D01*
X1913060Y1628795D02*
X1936081D01*
X1913281Y1655795D02*
X1935620D01*
X1921747Y1552295D02*
X1934884D01*
X1927076Y1572995D02*
X1934261D01*
X1922955Y1551395D02*
X1933761D01*
X1924192Y1550495D02*
X1932869D01*
X1925461Y1549595D02*
X1931978D01*
X1913280Y1656695D02*
X1931646D01*
X1926763Y1548695D02*
X1931086D01*
X1928100Y1547795D02*
X1930195D01*
X1913013Y1657595D02*
X1928703D01*
X1880748Y1658495D02*
X1926280D01*
X1870223Y1659395D02*
X1924186D01*
X1870223Y1660295D02*
X1922327D01*
X1914030Y1558595D02*
X1922247D01*
X1913021Y1559495D02*
X1921345D01*
X1870223Y1661195D02*
X1920649D01*
X1912033Y1560395D02*
X1920445D01*
X1911064Y1561295D02*
X1919545D01*
X1870223Y1662095D02*
X1919114D01*
X1910115Y1562195D02*
X1918645D01*
X1916276Y1583795D02*
X1918431D01*
X1909185Y1563095D02*
X1917745D01*
X1870223Y1662995D02*
X1917698D01*
X1915376Y1584695D02*
X1917480D01*
X1914476Y1585595D02*
X1917089D01*
X1908274Y1563995D02*
X1916845D01*
X1914401Y1586495D02*
X1916804D01*
X1870659Y1663895D02*
X1916282D01*
X1907379Y1564895D02*
X1915945D01*
X1906503Y1565795D02*
X1915045D01*
X1905643Y1566695D02*
X1914145D01*
X1904799Y1567595D02*
X1913245D01*
X1903971Y1568495D02*
X1912345D01*
X1903158Y1569395D02*
X1911445D01*
X1902361Y1570295D02*
X1910545D01*
X1901578Y1571195D02*
X1909645D01*
X1900810Y1572095D02*
X1908745D01*
X1900055Y1572995D02*
X1907845D01*
X1899315Y1573895D02*
X1906945D01*
X1898587Y1574795D02*
X1906045D01*
X1897873Y1575695D02*
X1905145D01*
X1897172Y1576595D02*
X1904245D01*
X1896483Y1577495D02*
X1903345D01*
X1895807Y1578395D02*
X1902445D01*
X1895142Y1579295D02*
X1901545D01*
X1885125Y1651295D02*
X1900923D01*
X1894490Y1580195D02*
X1900645D01*
X1893849Y1581095D02*
X1899745D01*
X1885140Y1652195D02*
X1899176D01*
X1893220Y1581995D02*
X1898942D01*
X1892602Y1582895D02*
X1898587D01*
X1882305Y1657595D02*
X1898540D01*
X1897236Y1593695D02*
X1898538D01*
X1897204Y1592795D02*
X1898538D01*
X1897017Y1591895D02*
X1898538D01*
X1896660Y1590995D02*
X1898538D01*
X1896088Y1590095D02*
X1898538D01*
X1895242Y1589195D02*
X1898538D01*
X1894337Y1588295D02*
X1898538D01*
X1893432Y1587395D02*
X1898538D01*
X1892528Y1586495D02*
X1898538D01*
X1891623Y1585595D02*
X1898538D01*
X1891398Y1584695D02*
X1898538D01*
X1891995Y1583795D02*
X1898538D01*
X1885042Y1653095D02*
X1898380D01*
X1883286Y1656695D02*
X1898273D01*
X1883980Y1655795D02*
X1898273D01*
X1884479Y1654895D02*
X1898273D01*
X1884825Y1653995D02*
X1898273D01*
X1884995Y1650395D02*
X1892725D01*
X1871068Y1640495D02*
X1891190D01*
X1884745Y1649495D02*
X1891166D01*
X1870963Y1641395D02*
X1890562D01*
X1884361Y1648595D02*
X1890557D01*
X1883814Y1647695D02*
X1890498D01*
X1883055Y1646795D02*
X1890498D01*
X1881965Y1645895D02*
X1890498D01*
X1880081Y1644995D02*
X1890498D01*
X1870688Y1644095D02*
X1890498D01*
X1870774Y1643195D02*
X1890498D01*
X1870865Y1642295D02*
X1890498D01*
X1872823Y1629695D02*
X1889797D01*
X1873012Y1628795D02*
X1889241D01*
X1873208Y1627895D02*
X1889190D01*
X1873410Y1626995D02*
X1889190D01*
X1873619Y1626095D02*
X1889190D01*
X1873834Y1625195D02*
X1889190D01*
X1883681Y1598195D02*
X1888759D01*
X1874057Y1624295D02*
X1888562D01*
X1883238Y1599095D02*
X1888047D01*
X1884131Y1597295D02*
X1888002D01*
X1874286Y1623395D02*
X1887662D01*
X1882805Y1599995D02*
X1887243D01*
X1884591Y1596395D02*
X1887102D01*
X1874523Y1622495D02*
X1887044D01*
X1882380Y1600895D02*
X1886887D01*
X1874766Y1621595D02*
X1886840D01*
X1875016Y1620695D02*
X1886837D01*
X1875273Y1619795D02*
X1886837D01*
X1875537Y1618895D02*
X1886837D01*
X1875808Y1617995D02*
X1886837D01*
X1876086Y1617095D02*
X1886837D01*
X1876372Y1616195D02*
X1886837D01*
X1876665Y1615295D02*
X1886837D01*
X1876965Y1614395D02*
X1886837D01*
X1877272Y1613495D02*
X1886837D01*
X1877587Y1612595D02*
X1886837D01*
X1877909Y1611695D02*
X1886837D01*
X1878239Y1610795D02*
X1886837D01*
X1878576Y1609895D02*
X1886837D01*
X1878921Y1608995D02*
X1886837D01*
X1879273Y1608095D02*
X1886837D01*
X1879634Y1607195D02*
X1886837D01*
X1880002Y1606295D02*
X1886837D01*
X1880378Y1605395D02*
X1886837D01*
X1880762Y1604495D02*
X1886837D01*
X1881154Y1603595D02*
X1886837D01*
X1881554Y1602695D02*
X1886837D01*
X1881963Y1601795D02*
X1886837D01*
X1885060Y1595495D02*
X1886202D01*
X1870609Y1644995D02*
X1875829D01*
X1870223Y1658495D02*
X1875162D01*
X1870536Y1645895D02*
X1873945D01*
X1870223Y1657595D02*
X1873605D01*
X1870470Y1646795D02*
X1872854D01*
X1870223Y1656695D02*
X1872623D01*
X1870410Y1647695D02*
X1872095D01*
X1870223Y1655795D02*
X1871929D01*
X1870356Y1648595D02*
X1871549D01*
X1870223Y1654895D02*
X1871430D01*
X1870659Y1653995D02*
X1870788D01*
X1868148Y1665974D02*
X1917081D01*
Y1665949*
X1917079Y1665950D02*
G03X1971473I27197J37297D01*
G01X1971471Y1665949D02*
Y1665937D01*
X2028477*
Y1665933*
X2028461Y1665945D02*
G03X2082914I27226J37750D01*
G01X2082898Y1665933D02*
Y1665935D01*
X2131852*
Y1651502*
X2115046Y1591297D02*
G03X2131851Y1651488I-115054J64566D01*
G01X2115047Y1591301D02*
X2110573Y1595775D01*
X2110572Y1595776D02*
G03X2105806Y1591076I-2391J-2342D01*
G01X2105805Y1591077D02*
X2111502Y1585381D01*
X2070613Y1544383D02*
G03X2111560Y1585473I-70693J111393D01*
G01X2070440Y1544273D02*
X2064713Y1550007D01*
X2064715Y1550005D02*
G03X2059898Y1545354I-2356J-2380D01*
G01X2059899Y1545353D02*
X2064522Y1540729D01*
X2050670Y1534016D02*
G03X2064501Y1540717I-50323J121492D01*
G01X2050693Y1534026D02*
X1949340D01*
X1935529Y1540750D02*
G03X1949388Y1534006I64542J115014D01*
G01X1935483Y1540776D02*
X1940082Y1545371D01*
X1940081D02*
G03X1935461Y1550163I-2438J2273D01*
G01X1935460D02*
X1929665Y1544312D01*
X1888435Y1585464D02*
G03X1929648Y1544323I111517J70498D01*
G01X1888479Y1585394D02*
X1894157Y1591043D01*
G03X1889425Y1595784I-2339J2397*
G01X1889427Y1595786D02*
X1884965Y1591324D01*
X1868147Y1651537D02*
G03X1884953Y1591346I131859J4374D01*
G01X1868148Y1651502D02*
Y1665974D01*
X2127167Y1651867D02*
G03X2127167I-5118J0D01*
G01X2046101Y1545257D02*
G03X2046101I-5118J0D01*
G01X1883073Y1651867D02*
G03X1883073I-5118J0D01*
G54D51*
G01X1949043Y1538757D02*
X1950179Y1537621D01*
X1954783*
Y1537486*
X1961557Y1537007*
X1954783Y1537621D02*
X1961557Y1537007D01*
X1944976Y1541676D02*
Y1540108D01*
X1946112Y1538972*
X1947900*
X1949043Y1537829*
Y1538757*
X1942847Y1541676D02*
X1944976D01*
X1944513Y1551502D02*
Y1545289D01*
X1944976Y1541676*
X1992749Y1614567D02*
X1999113D01*
X2005692Y1621146*
X1940762Y1628863D02*
X1948636D01*
X2052140D02*
X2060014D01*
X1897113Y1588223D03*
X1913340Y1591472D03*
X1897462Y1579602D03*
X1902912Y1572293D03*
X1915641Y1559198D03*
X1909490Y1565716D03*
X1988087Y1538125D03*
X1981366D03*
X1976716D03*
X1971775D03*
X1949043Y1538757D03*
X1954783Y1537486D03*
X1927831Y1551364D03*
X1923097Y1555561D03*
X1929828D03*
X1935189D03*
X1971789Y1545440D03*
X1979296Y1547475D03*
X1969613Y1542785D03*
X1967591Y1565142D03*
X1969643Y1573248D03*
X1970934Y1565085D03*
X1990094Y1562282D03*
X1964981Y1558092D03*
X1919871Y1586269D03*
X1968833Y1590123D03*
X1949337Y1585353D03*
X1974541Y1563866D03*
X1972945Y1560834D03*
X1976634D03*
X1967259Y1537007D03*
X1954194Y1582937D03*
X1975698Y1592997D03*
X1942847Y1541676D03*
X1973590Y1572941D03*
Y1576929D03*
X1957972Y1585323D03*
X1961557Y1537007D03*
X1944513Y1551502D03*
X1966140Y1545255D03*
X2056692Y1575310D03*
X2044860Y1579692D03*
X2013969Y1539139D03*
X2023152D03*
X2028057D03*
Y1544139D03*
X2020243D03*
X2014140D03*
X2045367Y1567953D03*
X2064374D03*
Y1578780D03*
X1996042Y1548911D03*
X2033766Y1567953D03*
X2020018Y1592146D03*
X2005708Y1590804D03*
X2012603Y1590793D03*
X2064374Y1558878D03*
X2024652Y1573630D03*
X2000337Y1544180D03*
X2048343Y1586516D03*
X2052310Y1579692D03*
X2053214Y1592553D03*
X2036955Y1577444D03*
X1998949Y1591378D03*
X2056006Y1567953D03*
X2090420Y1586637D03*
X2077733D03*
Y1558878D03*
X2090420Y1574445D03*
X2077733Y1572186D03*
X1914732Y1610151D03*
Y1600999D03*
Y1619573D03*
X1911884Y1622422D03*
X1914732Y1614376D03*
Y1605827D03*
X1913226Y1596056D03*
X1885166Y1600710D03*
Y1610377D03*
Y1620043D03*
Y1625828D03*
X1879001Y1615476D03*
Y1625980D03*
X1873216Y1642650D03*
Y1635005D03*
X1879001D03*
X1885166Y1643335D03*
Y1635005D03*
X1872302Y1661602D03*
X1880142D03*
X1888591D03*
X1898334D03*
X1907544D03*
X1915899D03*
X1888924Y1655186D03*
X1959498Y1597568D03*
X1959368Y1606412D03*
X1984095Y1598687D03*
X1917107Y1596056D03*
X1991308Y1597657D03*
X1976211Y1636252D03*
X1927867Y1655186D03*
X1965028Y1656320D03*
X1972542Y1662234D03*
Y1657760D03*
X1987298Y1663075D03*
X1919874Y1655186D03*
X1985037Y1634602D03*
X2064374Y1595272D03*
X2002864Y1644866D03*
X2009373Y1644958D03*
X2006119Y1641366D03*
X2000009D03*
X2018775Y1663075D03*
X2027604Y1661449D03*
X1999933Y1663075D03*
X2033733Y1655563D03*
X2040649Y1652376D03*
X2049783D03*
X2060820D03*
X2024662Y1608813D03*
X2009372Y1663075D03*
X2071940Y1652376D03*
X2012780Y1598065D03*
X2072699Y1607666D03*
X2064374D03*
X2056125D03*
X2019168Y1598065D03*
X2020981Y1611783D03*
X2012229Y1641366D03*
X2019231Y1643475D03*
X2017495Y1606416D03*
Y1602510D03*
X2036270Y1604209D03*
Y1611315D03*
X2041938Y1601466D03*
X2093735Y1649294D03*
X2096449Y1646343D03*
X2083963Y1652376D03*
Y1662637D03*
X2092787D03*
X2126323D03*
X2110470D03*
X2100822D03*
Y1654929D03*
X2110470D03*
Y1644554D03*
X2100919D03*
Y1636118D03*
X2110470D03*
Y1625840D03*
X2101016D03*
Y1617011D03*
X2110470D03*
X2126604Y1643953D03*
Y1636006D03*
X2118582Y1644482D03*
Y1636006D03*
Y1625790D03*
Y1617011D03*
Y1607666D03*
X2110560D03*
X2101024D03*
X2090862D03*
X2082007D03*
X2099307Y1594573D03*
X2092992D03*
X2084557D03*
X2077808D03*
G54D57*
X1952061Y1555561D02*
X1953626D01*
Y1545289*
X1889502Y1601410D02*
Y1621466D01*
X1893041Y1625005*
X1895329*
X1889502Y1601410D02*
X1891409Y1599503D01*
X1896766*
X1901203Y1595065*
Y1583406*
X1924063Y1560546*
X1949915*
X1952002Y1558460*
Y1555620*
X1952061Y1555561*
G54D60*
X1979383Y1565961D03*
X1992749Y1614567D03*
X1972444Y1594839D03*
X1963050Y1606412D03*
X1976380Y1603305D03*
X1962234Y1594831D03*
X1972799Y1606412D03*
X1968202D03*
Y1602282D03*
X1972799Y1602243D03*
X1989085Y1606456D03*
X1982163Y1606403D03*
X1968252Y1594831D03*
X1978153Y1606409D03*
X2005692Y1621146D03*
G54D61*
X1919177Y1589727D02*
X1919871Y1588072D01*
Y1586269*
X1917703Y1591472D02*
X1917431D01*
X1919177Y1589727*
G54D64*
X1963765Y1588541D02*
X1965346Y1590123D01*
X1968833*
X1959965Y1580541D02*
Y1576985D01*
X1960615Y1576335*
Y1573312*
X1953626Y1545289D02*
Y1545300D01*
X1960959*
X1966815Y1573312D02*
Y1573248D01*
X1969643*
X1960959Y1545300D02*
Y1545314D01*
X1966138*
X1966140Y1545255*
X1960959Y1550418D02*
X1968093D01*
X1970617Y1552942*
X1972998*
X1976634Y1555444*
Y1560834*
X1998949Y1591379D02*
X2001707D01*
X2001904Y1591865*
X2020018Y1592146D02*
X2023018D01*
Y1591865*
X2005708Y1590804D02*
X2005710Y1590565D01*
X2007353*
X2008654Y1591865*
X2012603Y1590793D02*
X2012684Y1590602D01*
X2014625*
X2015897Y1591873*
X2015905Y1591865*
X2023018D02*
X2029872D01*
X1905329Y1654860D02*
Y1655165D01*
X1905340Y1655175*
X1905329Y1654860D02*
Y1647532D01*
Y1646358*
X1902133Y1655184D02*
X1903754Y1655175D01*
X1905340*
X1906067*
X1906077Y1655186*
X1909699*
X1901854D02*
X1902133Y1655184D01*
X1905329Y1645005D02*
Y1646358D01*
X1988240Y1598065D02*
Y1597657D01*
X1991308*
X1981204Y1598065D02*
Y1598698D01*
X1984095*
Y1598687*
X2036270Y1604209D02*
Y1611315D01*
G54D71*
X1913340Y1591472D02*
X1917107D01*
X1909490Y1565716D02*
X1915641Y1559198D01*
X1988087Y1538125D02*
X1981366D01*
X1976716*
X1971775D02*
X1976716D01*
X1927831Y1551364D02*
Y1555561D01*
X1929828*
X1923097D02*
X1927831D01*
X1929828D02*
X1935189D01*
X1943061*
X1951268Y1570205D02*
X1951864Y1569610D01*
X1975733*
X1979383Y1565961*
X1951268Y1570205D02*
Y1570654D01*
X1917107Y1596056D02*
Y1591472D01*
X1917431*
X1979296Y1547475D02*
Y1543817D01*
X1980373Y1542741*
X1985368*
X1974541Y1563866D02*
Y1562986D01*
X1976634Y1560834*
X1972945D02*
X1976634D01*
X1967259Y1537007D02*
X1968377Y1538125D01*
X1971775*
X1973590Y1572941D02*
Y1576929D01*
X1957972Y1585323D02*
X1959724D01*
X1960716Y1584333*
X1964419*
X1965848Y1582903*
X1965974Y1580541*
X1967465*
X1970209Y1576929*
X1973590*
X1995205Y1591865D02*
Y1589150D01*
X1996026Y1588329*
X2033657*
X2036270Y1590942*
Y1604209*
X1943439Y1570205D02*
X1951268D01*
X1979383Y1565961D02*
X1982130Y1563213D01*
X1985368*
X1992612Y1567353D02*
Y1564194D01*
X1993252Y1563554*
X1985319Y1573953D02*
Y1571000D01*
X1985368Y1570950*
Y1565772*
X1974998Y1582111D02*
X1979119Y1577989D01*
Y1573953*
X1984998Y1582111D02*
X1988529Y1578579D01*
X1990879*
X1992612Y1576846*
Y1573553*
X1994998Y1582111D02*
X1999345Y1577763D01*
X1985368Y1560654D02*
X1988466D01*
X1990094Y1562282*
X1985368Y1558095D02*
X1990137D01*
X1993252Y1561210*
Y1563554*
X1985368Y1555536D02*
X1990002D01*
X1998951Y1564485*
Y1567353*
X1985368Y1552977D02*
X1990070D01*
X2001822Y1564729*
X2003616*
X2005841Y1566953*
X1985368Y1547859D02*
X1988328D01*
X1990102Y1549633*
Y1550783*
X2002375Y1563055*
X2008045*
X2011943Y1566953*
Y1567353*
X1985368Y1542741D02*
X1988654D01*
X1990052Y1544139*
X1994093*
X1960959Y1542741D02*
X1969569D01*
X1969613Y1542785*
X1960959Y1552977D02*
X1966568D01*
X1969555Y1555964*
Y1561568*
X1970934Y1562947*
Y1565085*
X1960959Y1555536D02*
X1966465D01*
X1967591Y1556662*
Y1565142*
X1960959Y1558095D02*
X1963003D01*
X1963006Y1558092*
X1964981*
X2023152Y1539139D02*
X2028057D01*
X2020243Y1544139D02*
X2028057D01*
X2064374Y1578780D02*
Y1595272D01*
X2053214Y1586516D02*
Y1592553D01*
X1996042Y1548911D02*
X2008091D01*
X2012019Y1552839*
Y1561950*
X2013437Y1563368*
X2015287*
X2018872Y1566953*
Y1567353*
X2064374Y1558878D02*
X2077733D01*
X2024652Y1573630D02*
X2040033Y1589011D01*
Y1599561*
X2041938Y1601466*
X2048343Y1586516D02*
X2053214D01*
X2052310Y1579692*
X2005904Y1544139D02*
X2014140D01*
X2011943Y1573553D02*
X2012534Y1576290D01*
X2014998Y1578754*
Y1582111*
X2056006Y1567953D02*
X2064374D01*
X1998951Y1573553D02*
X1999345Y1577763D01*
X2005447Y1567353D02*
X2005841Y1566953D01*
X2005447Y1573553D02*
X2005841Y1577386D01*
X2018872Y1573553D02*
X2019269Y1576382D01*
X2024998Y1582111*
X2004998D02*
Y1578229D01*
X2005841Y1577386*
X2090420Y1574445D02*
Y1586637D01*
X2077733Y1572186D02*
Y1586637D01*
X1914732Y1614376D02*
Y1619573D01*
Y1605827D02*
Y1610151D01*
X1902133Y1655184D02*
X1902457Y1654860D01*
X1903982*
X1885166Y1610377D02*
Y1620043D01*
Y1625828D02*
Y1635005D01*
X1879001Y1615476D02*
Y1625980D01*
X1873216Y1635005D02*
X1879001D01*
X1885166D02*
X1895329D01*
X1880142Y1661602D02*
X1888591D01*
X1898334D02*
X1907544D01*
X1888924Y1655186D02*
X1895654D01*
X1915899Y1661602D02*
Y1655186D01*
X1919874*
X1905329Y1605005D02*
Y1600320D01*
X1907748Y1597900*
Y1585927*
X1927069Y1566607*
X1956887*
X1957737Y1565757*
X1960944*
X1960959Y1565772*
X1905329Y1625005D02*
X1909301D01*
X1911884Y1622422*
X1905329Y1645005D02*
Y1644985D01*
X1906856Y1643457*
X1895329Y1605005D02*
X1904204Y1596130D01*
Y1583937*
X1924703Y1563437*
X1953998*
X1956781Y1560654*
X1960959*
X1895329Y1615005D02*
X1900328Y1610006D01*
Y1602670*
X1906024Y1596974*
Y1585395*
X1926395Y1565024*
X1955450*
X1957260Y1563213*
X1960959*
X1991308Y1597657D02*
Y1588342D01*
X1992956Y1586694*
X2034822*
X2038045Y1589917*
Y1600797*
X2038910Y1601661*
Y1609778*
X2041416Y1612284*
X2092601*
X2096449Y1616132*
Y1646343*
X1972444Y1594839D02*
X1973856D01*
X1975698Y1592997*
X1965028Y1656320D02*
X1971102D01*
X1972542Y1657760*
Y1662234*
X1962234Y1594831D02*
X1968252D01*
X1972799Y1606412D02*
X1968202D01*
Y1602282*
X1972799Y1602243D02*
Y1606412D01*
X2002864Y1644866D02*
Y1641366D01*
X2006119*
X2000009D02*
X2002864D01*
X2018775Y1663075D02*
X2027604Y1661449D01*
X1999933Y1663075D02*
X2009372D01*
X2033733Y1655563D02*
X2036919Y1652376D01*
X2040649*
X2049783D02*
X2060820D01*
X2071940D02*
X2083963D01*
X2012780Y1598065D02*
X2015905D01*
X2072699Y1607666D02*
X2082007D01*
X2056125D02*
X2064374D01*
X2015905Y1598065D02*
Y1600920D01*
X2017495Y1602510*
X2015905Y1598065D02*
X2019168D01*
X2083963Y1662637D02*
X2092787D01*
X2100822D02*
X2110470D01*
X2100822Y1654929D02*
X2110470D01*
X2100919Y1644554D02*
X2110470D01*
X2100919Y1636118D02*
X2110470D01*
X2101016Y1625840D02*
X2110470D01*
X2101016Y1617011D02*
X2110470D01*
X2118582Y1644482D02*
Y1636006D01*
X2126604*
X2118582Y1617011D02*
Y1625790D01*
X2110560Y1607666D02*
X2118582D01*
X2090862D02*
X2101024D01*
X2084557Y1594573D02*
X2092992D01*
G54D110*
X1890921Y1621698D02*
X1906980D01*
X1912032Y1616602*
Y1588319*
X1919177*
Y1620229*
X1911029Y1628379*
X1890921*
Y1621698*
Y1628298D02*
X1911109D01*
X1890921Y1628198D02*
X1911209D01*
X1890921Y1628098D02*
X1911309D01*
X1890921Y1627998D02*
X1911409D01*
X1890921Y1627898D02*
X1911509D01*
X1890921Y1627798D02*
X1911609D01*
X1890921Y1627698D02*
X1911709D01*
X1890921Y1627598D02*
X1911809D01*
X1890921Y1627498D02*
X1911909D01*
X1890921Y1627398D02*
X1912009D01*
X1890921Y1627298D02*
X1912109D01*
X1890921Y1627198D02*
X1912209D01*
X1890921Y1627098D02*
X1912309D01*
X1890921Y1626998D02*
X1912409D01*
X1890921Y1626898D02*
X1912509D01*
X1890921Y1626798D02*
X1912609D01*
X1890921Y1626698D02*
X1912709D01*
X1890921Y1626598D02*
X1912809D01*
X1890921Y1626498D02*
X1912909D01*
X1890921Y1626398D02*
X1913009D01*
X1890921Y1626298D02*
X1913109D01*
X1890921Y1626198D02*
X1913209D01*
X1890921Y1626098D02*
X1913309D01*
X1890921Y1625998D02*
X1913409D01*
X1890921Y1625898D02*
X1913509D01*
X1890921Y1625798D02*
X1913609D01*
X1890921Y1625698D02*
X1913709D01*
X1890921Y1625598D02*
X1913809D01*
X1890921Y1625498D02*
X1913909D01*
X1890921Y1625398D02*
X1914009D01*
X1890921Y1625298D02*
X1914109D01*
X1890921Y1625198D02*
X1914209D01*
X1890921Y1625098D02*
X1914309D01*
X1890921Y1624998D02*
X1914409D01*
X1890921Y1624898D02*
X1914509D01*
X1890921Y1624798D02*
X1914609D01*
X1890921Y1624698D02*
X1914709D01*
X1890921Y1624598D02*
X1914809D01*
X1890921Y1624498D02*
X1914909D01*
X1890921Y1624398D02*
X1915009D01*
X1890921Y1624298D02*
X1915109D01*
X1890921Y1624198D02*
X1915208D01*
X1890921Y1624098D02*
X1915308D01*
X1890921Y1623998D02*
X1915408D01*
X1890921Y1623898D02*
X1915508D01*
X1890921Y1623798D02*
X1915608D01*
X1890921Y1623698D02*
X1915708D01*
X1890921Y1623598D02*
X1915808D01*
X1890921Y1623498D02*
X1915908D01*
X1890921Y1623398D02*
X1916008D01*
X1890921Y1623298D02*
X1916108D01*
X1890921Y1623198D02*
X1916208D01*
X1890921Y1623098D02*
X1916308D01*
X1890921Y1622998D02*
X1916408D01*
X1890921Y1622898D02*
X1916508D01*
X1890921Y1622798D02*
X1916608D01*
X1890921Y1622698D02*
X1916708D01*
X1890921Y1622598D02*
X1916808D01*
X1890921Y1622498D02*
X1916908D01*
X1890921Y1622398D02*
X1917008D01*
X1890921Y1622298D02*
X1917108D01*
X1890921Y1622198D02*
X1917208D01*
X1890921Y1622098D02*
X1917308D01*
X1890921Y1621998D02*
X1917408D01*
X1890921Y1621898D02*
X1917508D01*
X1890921Y1621798D02*
X1917608D01*
X1906980Y1621698D02*
X1917708D01*
X1907079Y1621598D02*
X1917808D01*
X1907178Y1621498D02*
X1917908D01*
X1907277Y1621398D02*
X1918008D01*
X1907376Y1621298D02*
X1918108D01*
X1907475Y1621198D02*
X1918208D01*
X1907575Y1621098D02*
X1918308D01*
X1907674Y1620998D02*
X1918408D01*
X1907773Y1620898D02*
X1918508D01*
X1907872Y1620798D02*
X1918608D01*
X1907971Y1620698D02*
X1918708D01*
X1908070Y1620598D02*
X1918808D01*
X1908169Y1620498D02*
X1918908D01*
X1908269Y1620398D02*
X1919008D01*
X1908368Y1620298D02*
X1919108D01*
X1908467Y1620198D02*
X1919177D01*
X1908566Y1620098D02*
X1919177D01*
X1908665Y1619998D02*
X1919177D01*
X1908764Y1619898D02*
X1919177D01*
X1908863Y1619798D02*
X1919177D01*
X1908963Y1619698D02*
X1919177D01*
X1909062Y1619598D02*
X1919177D01*
X1909161Y1619498D02*
X1919177D01*
X1909260Y1619398D02*
X1919177D01*
X1909359Y1619298D02*
X1919177D01*
X1909458Y1619198D02*
X1919177D01*
X1909557Y1619098D02*
X1919177D01*
X1909657Y1618998D02*
X1919177D01*
X1909756Y1618898D02*
X1919177D01*
X1909855Y1618798D02*
X1919177D01*
X1909954Y1618698D02*
X1919177D01*
X1910053Y1618598D02*
X1919177D01*
X1910152Y1618498D02*
X1919177D01*
X1910251Y1618398D02*
X1919177D01*
X1910351Y1618298D02*
X1919177D01*
X1910450Y1618198D02*
X1919177D01*
X1910549Y1618098D02*
X1919177D01*
X1910648Y1617998D02*
X1919177D01*
X1910747Y1617898D02*
X1919177D01*
X1910846Y1617798D02*
X1919177D01*
X1910945Y1617698D02*
X1919177D01*
X1911045Y1617598D02*
X1919177D01*
X1911144Y1617498D02*
X1919177D01*
X1911243Y1617398D02*
X1919177D01*
X1911342Y1617298D02*
X1919177D01*
X1911441Y1617198D02*
X1919177D01*
X1911540Y1617098D02*
X1919177D01*
X1911639Y1616998D02*
X1919177D01*
X1911739Y1616898D02*
X1919177D01*
X1911838Y1616798D02*
X1919177D01*
X1911937Y1616698D02*
X1919177D01*
X1912032Y1616598D02*
X1919177D01*
X1912032Y1616498D02*
X1919177D01*
X1912032Y1616398D02*
X1919177D01*
X1912032Y1616298D02*
X1919177D01*
X1912032Y1616198D02*
X1919177D01*
X1912032Y1616098D02*
X1919177D01*
X1912032Y1615998D02*
X1919177D01*
X1912032Y1615898D02*
X1919177D01*
X1912032Y1615798D02*
X1919177D01*
X1912032Y1615698D02*
X1919177D01*
X1912032Y1615598D02*
X1919177D01*
X1912032Y1615498D02*
X1919177D01*
X1912032Y1615398D02*
X1919177D01*
X1912032Y1615298D02*
X1919177D01*
X1912032Y1615198D02*
X1919177D01*
X1912032Y1615098D02*
X1919177D01*
X1912032Y1614998D02*
X1919177D01*
X1912032Y1614898D02*
X1919177D01*
X1912032Y1614798D02*
X1919177D01*
X1912032Y1614698D02*
X1919177D01*
X1912032Y1614598D02*
X1919177D01*
X1912032Y1614498D02*
X1919177D01*
X1912032Y1614398D02*
X1919177D01*
X1912032Y1614298D02*
X1919177D01*
X1912032Y1614198D02*
X1919177D01*
X1912032Y1614098D02*
X1919177D01*
X1912032Y1613998D02*
X1919177D01*
X1912032Y1613898D02*
X1919177D01*
X1912032Y1613798D02*
X1919177D01*
X1912032Y1613698D02*
X1919177D01*
X1912032Y1613598D02*
X1919177D01*
X1912032Y1613498D02*
X1919177D01*
X1912032Y1613398D02*
X1919177D01*
X1912032Y1613298D02*
X1919177D01*
X1912032Y1613198D02*
X1919177D01*
X1912032Y1613098D02*
X1919177D01*
X1912032Y1612998D02*
X1919177D01*
X1912032Y1612898D02*
X1919177D01*
X1912032Y1612798D02*
X1919177D01*
X1912032Y1612698D02*
X1919177D01*
X1912032Y1612598D02*
X1919177D01*
X1912032Y1612498D02*
X1919177D01*
X1912032Y1612398D02*
X1919177D01*
X1912032Y1612298D02*
X1919177D01*
X1912032Y1612198D02*
X1919177D01*
X1912032Y1612098D02*
X1919177D01*
X1912032Y1611998D02*
X1919177D01*
X1912032Y1611898D02*
X1919177D01*
X1912032Y1611798D02*
X1919177D01*
X1912032Y1611698D02*
X1919177D01*
X1912032Y1611598D02*
X1919177D01*
X1912032Y1611498D02*
X1919177D01*
X1912032Y1611398D02*
X1919177D01*
X1912032Y1611298D02*
X1919177D01*
X1912032Y1611198D02*
X1919177D01*
X1912032Y1611098D02*
X1919177D01*
X1912032Y1610998D02*
X1919177D01*
X1912032Y1610898D02*
X1919177D01*
X1912032Y1610798D02*
X1919177D01*
X1912032Y1610698D02*
X1919177D01*
X1912032Y1610598D02*
X1919177D01*
X1912032Y1610498D02*
X1919177D01*
X1912032Y1610398D02*
X1919177D01*
X1912032Y1610298D02*
X1919177D01*
X1912032Y1610198D02*
X1919177D01*
X1912032Y1610098D02*
X1919177D01*
X1912032Y1609998D02*
X1919177D01*
X1912032Y1609898D02*
X1919177D01*
X1912032Y1609798D02*
X1919177D01*
X1912032Y1609698D02*
X1919177D01*
X1912032Y1609598D02*
X1919177D01*
X1912032Y1609498D02*
X1919177D01*
X1912032Y1609398D02*
X1919177D01*
X1912032Y1609298D02*
X1919177D01*
X1912032Y1609198D02*
X1919177D01*
X1912032Y1609098D02*
X1919177D01*
X1912032Y1608998D02*
X1919177D01*
X1912032Y1608898D02*
X1919177D01*
X1912032Y1608798D02*
X1919177D01*
X1912032Y1608698D02*
X1919177D01*
X1912032Y1608598D02*
X1919177D01*
X1912032Y1608498D02*
X1919177D01*
X1912032Y1608398D02*
X1919177D01*
X1912032Y1608298D02*
X1919177D01*
X1912032Y1608198D02*
X1919177D01*
X1912032Y1608098D02*
X1919177D01*
X1912032Y1607998D02*
X1919177D01*
X1912032Y1607898D02*
X1919177D01*
X1912032Y1607798D02*
X1919177D01*
X1912032Y1607698D02*
X1919177D01*
X1912032Y1607598D02*
X1919177D01*
X1912032Y1607498D02*
X1919177D01*
X1912032Y1607398D02*
X1919177D01*
X1912032Y1607298D02*
X1919177D01*
X1912032Y1607198D02*
X1919177D01*
X1912032Y1607098D02*
X1919177D01*
X1912032Y1606998D02*
X1919177D01*
X1912032Y1606898D02*
X1919177D01*
X1912032Y1606798D02*
X1919177D01*
X1912032Y1606698D02*
X1919177D01*
X1912032Y1606598D02*
X1919177D01*
X1912032Y1606498D02*
X1919177D01*
X1912032Y1606398D02*
X1919177D01*
X1912032Y1606298D02*
X1919177D01*
X1912032Y1606198D02*
X1919177D01*
X1912032Y1606098D02*
X1919177D01*
X1912032Y1605998D02*
X1919177D01*
X1912032Y1605898D02*
X1919177D01*
X1912032Y1605798D02*
X1919177D01*
X1912032Y1605698D02*
X1919177D01*
X1912032Y1605598D02*
X1919177D01*
X1912032Y1605498D02*
X1919177D01*
X1912032Y1605398D02*
X1919177D01*
X1912032Y1605298D02*
X1919177D01*
X1912032Y1605198D02*
X1919177D01*
X1912032Y1605098D02*
X1919177D01*
X1912032Y1604998D02*
X1919177D01*
X1912032Y1604898D02*
X1919177D01*
X1912032Y1604798D02*
X1919177D01*
X1912032Y1604698D02*
X1919177D01*
X1912032Y1604598D02*
X1919177D01*
X1912032Y1604498D02*
X1919177D01*
X1912032Y1604398D02*
X1919177D01*
X1912032Y1604298D02*
X1919177D01*
X1912032Y1604198D02*
X1919177D01*
X1912032Y1604098D02*
X1919177D01*
X1912032Y1603998D02*
X1919177D01*
X1912032Y1603898D02*
X1919177D01*
X1912032Y1603798D02*
X1919177D01*
X1912032Y1603698D02*
X1919177D01*
X1912032Y1603598D02*
X1919177D01*
X1912032Y1603498D02*
X1919177D01*
X1912032Y1603398D02*
X1919177D01*
X1912032Y1603298D02*
X1919177D01*
X1912032Y1603198D02*
X1919177D01*
X1912032Y1603098D02*
X1919177D01*
X1912032Y1602998D02*
X1919177D01*
X1912032Y1602898D02*
X1919177D01*
X1912032Y1602798D02*
X1919177D01*
X1912032Y1602698D02*
X1919177D01*
X1912032Y1602598D02*
X1919177D01*
X1912032Y1602498D02*
X1919177D01*
X1912032Y1602398D02*
X1919177D01*
X1912032Y1602298D02*
X1919177D01*
X1912032Y1602198D02*
X1919177D01*
X1912032Y1602098D02*
X1919177D01*
X1912032Y1601998D02*
X1919177D01*
X1912032Y1601898D02*
X1919177D01*
X1912032Y1601798D02*
X1919177D01*
X1912032Y1601698D02*
X1919177D01*
X1912032Y1601598D02*
X1919177D01*
X1912032Y1601498D02*
X1919177D01*
X1912032Y1601398D02*
X1919177D01*
X1912032Y1601298D02*
X1919177D01*
X1912032Y1601198D02*
X1919177D01*
X1912032Y1601098D02*
X1919177D01*
X1912032Y1600998D02*
X1919177D01*
X1912032Y1600898D02*
X1919177D01*
X1912032Y1600798D02*
X1919177D01*
X1912032Y1600698D02*
X1919177D01*
X1912032Y1600598D02*
X1919177D01*
X1912032Y1600498D02*
X1919177D01*
X1912032Y1600398D02*
X1919177D01*
X1912032Y1600298D02*
X1919177D01*
X1912032Y1600198D02*
X1919177D01*
X1912032Y1600098D02*
X1919177D01*
X1912032Y1599998D02*
X1919177D01*
X1912032Y1599898D02*
X1919177D01*
X1912032Y1599798D02*
X1919177D01*
X1912032Y1599698D02*
X1919177D01*
X1912032Y1599598D02*
X1919177D01*
X1912032Y1599498D02*
X1919177D01*
X1912032Y1599398D02*
X1919177D01*
X1912032Y1599298D02*
X1919177D01*
X1912032Y1599198D02*
X1919177D01*
X1912032Y1599098D02*
X1919177D01*
X1912032Y1598998D02*
X1919177D01*
X1912032Y1598898D02*
X1919177D01*
X1912032Y1598798D02*
X1919177D01*
X1912032Y1598698D02*
X1919177D01*
X1912032Y1598598D02*
X1919177D01*
X1912032Y1598498D02*
X1919177D01*
X1912032Y1598398D02*
X1919177D01*
X1912032Y1598298D02*
X1919177D01*
X1912032Y1598198D02*
X1919177D01*
X1912032Y1598098D02*
X1919177D01*
X1912032Y1597998D02*
X1919177D01*
X1912032Y1597898D02*
X1919177D01*
X1912032Y1597798D02*
X1919177D01*
X1912032Y1597698D02*
X1919177D01*
X1912032Y1597598D02*
X1919177D01*
X1912032Y1597498D02*
X1919177D01*
X1912032Y1597398D02*
X1919177D01*
X1912032Y1597298D02*
X1919177D01*
X1912032Y1597198D02*
X1919177D01*
X1912032Y1597098D02*
X1919177D01*
X1912032Y1596998D02*
X1919177D01*
X1912032Y1596898D02*
X1919177D01*
X1912032Y1596798D02*
X1919177D01*
X1912032Y1596698D02*
X1919177D01*
X1912032Y1596598D02*
X1919177D01*
X1912032Y1596498D02*
X1919177D01*
X1912032Y1596398D02*
X1919177D01*
X1912032Y1596298D02*
X1919177D01*
X1912032Y1596198D02*
X1919177D01*
X1912032Y1596098D02*
X1919177D01*
X1912032Y1595998D02*
X1919177D01*
X1912032Y1595898D02*
X1919177D01*
X1912032Y1595798D02*
X1919177D01*
X1912032Y1595698D02*
X1919177D01*
X1912032Y1595598D02*
X1919177D01*
X1912032Y1595498D02*
X1919177D01*
X1912032Y1595398D02*
X1919177D01*
X1912032Y1595298D02*
X1919177D01*
X1912032Y1595198D02*
X1919177D01*
X1912032Y1595098D02*
X1919177D01*
X1912032Y1594998D02*
X1919177D01*
X1912032Y1594898D02*
X1919177D01*
X1912032Y1594798D02*
X1919177D01*
X1912032Y1594698D02*
X1919177D01*
X1912032Y1594598D02*
X1919177D01*
X1912032Y1594498D02*
X1919177D01*
X1912032Y1594398D02*
X1919177D01*
X1912032Y1594298D02*
X1919177D01*
X1912032Y1594198D02*
X1919177D01*
X1912032Y1594098D02*
X1919177D01*
X1912032Y1593998D02*
X1919177D01*
X1912032Y1593898D02*
X1919177D01*
X1912032Y1593798D02*
X1919177D01*
X1912032Y1593698D02*
X1919177D01*
X1912032Y1593598D02*
X1919177D01*
X1912032Y1593498D02*
X1919177D01*
X1912032Y1593398D02*
X1919177D01*
X1912032Y1593298D02*
X1919177D01*
X1912032Y1593198D02*
X1919177D01*
X1912032Y1593098D02*
X1919177D01*
X1912032Y1592998D02*
X1919177D01*
X1912032Y1592898D02*
X1919177D01*
X1912032Y1592798D02*
X1919177D01*
X1912032Y1592698D02*
X1919177D01*
X1912032Y1592598D02*
X1919177D01*
X1912032Y1592498D02*
X1919177D01*
X1912032Y1592398D02*
X1919177D01*
X1912032Y1592298D02*
X1919177D01*
X1912032Y1592198D02*
X1919177D01*
X1912032Y1592098D02*
X1919177D01*
X1912032Y1591998D02*
X1919177D01*
X1912032Y1591898D02*
X1919177D01*
X1912032Y1591798D02*
X1919177D01*
X1912032Y1591698D02*
X1919177D01*
X1912032Y1591598D02*
X1919177D01*
X1912032Y1591498D02*
X1919177D01*
X1912032Y1591398D02*
X1919177D01*
X1912032Y1591298D02*
X1919177D01*
X1912032Y1591198D02*
X1919177D01*
X1912032Y1591098D02*
X1919177D01*
X1912032Y1590998D02*
X1919177D01*
X1912032Y1590898D02*
X1919177D01*
X1912032Y1590798D02*
X1919177D01*
X1912032Y1590698D02*
X1919177D01*
X1912032Y1590598D02*
X1919177D01*
X1912032Y1590498D02*
X1919177D01*
X1912032Y1590398D02*
X1919177D01*
X1912032Y1590298D02*
X1919177D01*
X1912032Y1590198D02*
X1919177D01*
X1912032Y1590098D02*
X1919177D01*
X1912032Y1589998D02*
X1919177D01*
X1912032Y1589898D02*
X1919177D01*
X1912032Y1589798D02*
X1919177D01*
X1912032Y1589698D02*
X1919177D01*
X1912032Y1589598D02*
X1919177D01*
X1912032Y1589498D02*
X1919177D01*
X1912032Y1589398D02*
X1919177D01*
X1912032Y1589298D02*
X1919177D01*
X1912032Y1589198D02*
X1919177D01*
X1912032Y1589098D02*
X1919177D01*
X1912032Y1588998D02*
X1919177D01*
X1912032Y1588898D02*
X1919177D01*
X1912032Y1588798D02*
X1919177D01*
X1912032Y1588698D02*
X1919177D01*
X1912032Y1588598D02*
X1919177D01*
X1912032Y1588498D02*
X1919177D01*
X1912032Y1588398D02*
X1919177D01*
X1890921Y1621698D02*
Y1628379D01*
X1891021Y1621698D02*
Y1628379D01*
X1891121Y1621698D02*
Y1628379D01*
X1891221Y1621698D02*
Y1628379D01*
X1891321Y1621698D02*
Y1628379D01*
X1891421Y1621698D02*
Y1628379D01*
X1891521Y1621698D02*
Y1628379D01*
X1891621Y1621698D02*
Y1628379D01*
X1891721Y1621698D02*
Y1628379D01*
X1891821Y1621698D02*
Y1628379D01*
X1891921Y1621698D02*
Y1628379D01*
X1892021Y1621698D02*
Y1628379D01*
X1892121Y1621698D02*
Y1628379D01*
X1892221Y1621698D02*
Y1628379D01*
X1892321Y1621698D02*
Y1628379D01*
X1892421Y1621698D02*
Y1628379D01*
X1892521Y1621698D02*
Y1628379D01*
X1892621Y1621698D02*
Y1628379D01*
X1892721Y1621698D02*
Y1628379D01*
X1892821Y1621698D02*
Y1628379D01*
X1892921Y1621698D02*
Y1628379D01*
X1893021Y1621698D02*
Y1628379D01*
X1893121Y1621698D02*
Y1628379D01*
X1893221Y1621698D02*
Y1628379D01*
X1893321Y1621698D02*
Y1628379D01*
X1893421Y1621698D02*
Y1628379D01*
X1893521Y1621698D02*
Y1628379D01*
X1893621Y1621698D02*
Y1628379D01*
X1893721Y1621698D02*
Y1628379D01*
X1893821Y1621698D02*
Y1628379D01*
X1893921Y1621698D02*
Y1628379D01*
X1894021Y1621698D02*
Y1628379D01*
X1894121Y1621698D02*
Y1628379D01*
X1894221Y1621698D02*
Y1628379D01*
X1894321Y1621698D02*
Y1628379D01*
X1894421Y1621698D02*
Y1628379D01*
X1894521Y1621698D02*
Y1628379D01*
X1894621Y1621698D02*
Y1628379D01*
X1894721Y1621698D02*
Y1628379D01*
X1894821Y1621698D02*
Y1628379D01*
X1894921Y1621698D02*
Y1628379D01*
X1895021Y1621698D02*
Y1628379D01*
X1895121Y1621698D02*
Y1628379D01*
X1895221Y1621698D02*
Y1628379D01*
X1895321Y1621698D02*
Y1628379D01*
X1895421Y1621698D02*
Y1628379D01*
X1895521Y1621698D02*
Y1628379D01*
X1895621Y1621698D02*
Y1628379D01*
X1895721Y1621698D02*
Y1628379D01*
X1895821Y1621698D02*
Y1628379D01*
X1895921Y1621698D02*
Y1628379D01*
X1896021Y1621698D02*
Y1628379D01*
X1896121Y1621698D02*
Y1628379D01*
X1896221Y1621698D02*
Y1628379D01*
X1896321Y1621698D02*
Y1628379D01*
X1896421Y1621698D02*
Y1628379D01*
X1896521Y1621698D02*
Y1628379D01*
X1896621Y1621698D02*
Y1628379D01*
X1896721Y1621698D02*
Y1628379D01*
X1896821Y1621698D02*
Y1628379D01*
X1896921Y1621698D02*
Y1628379D01*
X1897021Y1621698D02*
Y1628379D01*
X1897121Y1621698D02*
Y1628379D01*
X1897221Y1621698D02*
Y1628379D01*
X1897321Y1621698D02*
Y1628379D01*
X1897421Y1621698D02*
Y1628379D01*
X1897521Y1621698D02*
Y1628379D01*
X1897621Y1621698D02*
Y1628379D01*
X1897721Y1621698D02*
Y1628379D01*
X1897821Y1621698D02*
Y1628379D01*
X1897921Y1621698D02*
Y1628379D01*
X1898021Y1621698D02*
Y1628379D01*
X1898121Y1621698D02*
Y1628379D01*
X1898221Y1621698D02*
Y1628379D01*
X1898321Y1621698D02*
Y1628379D01*
X1898421Y1621698D02*
Y1628379D01*
X1898521Y1621698D02*
Y1628379D01*
X1898621Y1621698D02*
Y1628379D01*
X1898721Y1621698D02*
Y1628379D01*
X1898821Y1621698D02*
Y1628379D01*
X1898921Y1621698D02*
Y1628379D01*
X1899021Y1621698D02*
Y1628379D01*
X1899121Y1621698D02*
Y1628379D01*
X1899221Y1621698D02*
Y1628379D01*
X1899321Y1621698D02*
Y1628379D01*
X1899421Y1621698D02*
Y1628379D01*
X1899521Y1621698D02*
Y1628379D01*
X1899621Y1621698D02*
Y1628379D01*
X1899721Y1621698D02*
Y1628379D01*
X1899821Y1621698D02*
Y1628379D01*
X1899921Y1621698D02*
Y1628379D01*
X1900021Y1621698D02*
Y1628379D01*
X1900121Y1621698D02*
Y1628379D01*
X1900221Y1621698D02*
Y1628379D01*
X1900321Y1621698D02*
Y1628379D01*
X1900421Y1621698D02*
Y1628379D01*
X1900521Y1621698D02*
Y1628379D01*
X1900621Y1621698D02*
Y1628379D01*
X1900721Y1621698D02*
Y1628379D01*
X1900821Y1621698D02*
Y1628379D01*
X1900921Y1621698D02*
Y1628379D01*
X1901021Y1621698D02*
Y1628379D01*
X1901121Y1621698D02*
Y1628379D01*
X1901221Y1621698D02*
Y1628379D01*
X1901321Y1621698D02*
Y1628379D01*
X1901421Y1621698D02*
Y1628379D01*
X1901521Y1621698D02*
Y1628379D01*
X1901621Y1621698D02*
Y1628379D01*
X1901721Y1621698D02*
Y1628379D01*
X1901821Y1621698D02*
Y1628379D01*
X1901921Y1621698D02*
Y1628379D01*
X1902021Y1621698D02*
Y1628379D01*
X1902121Y1621698D02*
Y1628379D01*
X1902221Y1621698D02*
Y1628379D01*
X1902321Y1621698D02*
Y1628379D01*
X1902421Y1621698D02*
Y1628379D01*
X1902521Y1621698D02*
Y1628379D01*
X1902621Y1621698D02*
Y1628379D01*
X1902721Y1621698D02*
Y1628379D01*
X1902821Y1621698D02*
Y1628379D01*
X1902921Y1621698D02*
Y1628379D01*
X1903021Y1621698D02*
Y1628379D01*
X1903121Y1621698D02*
Y1628379D01*
X1903221Y1621698D02*
Y1628379D01*
X1903321Y1621698D02*
Y1628379D01*
X1903421Y1621698D02*
Y1628379D01*
X1903521Y1621698D02*
Y1628379D01*
X1903621Y1621698D02*
Y1628379D01*
X1903721Y1621698D02*
Y1628379D01*
X1903821Y1621698D02*
Y1628379D01*
X1903921Y1621698D02*
Y1628379D01*
X1904021Y1621698D02*
Y1628379D01*
X1904121Y1621698D02*
Y1628379D01*
X1904221Y1621698D02*
Y1628379D01*
X1904321Y1621698D02*
Y1628379D01*
X1904421Y1621698D02*
Y1628379D01*
X1904521Y1621698D02*
Y1628379D01*
X1904621Y1621698D02*
Y1628379D01*
X1904721Y1621698D02*
Y1628379D01*
X1904821Y1621698D02*
Y1628379D01*
X1904921Y1621698D02*
Y1628379D01*
X1905021Y1621698D02*
Y1628379D01*
X1905121Y1621698D02*
Y1628379D01*
X1905221Y1621698D02*
Y1628379D01*
X1905321Y1621698D02*
Y1628379D01*
X1905421Y1621698D02*
Y1628379D01*
X1905521Y1621698D02*
Y1628379D01*
X1905621Y1621698D02*
Y1628379D01*
X1905721Y1621698D02*
Y1628379D01*
X1905821Y1621698D02*
Y1628379D01*
X1905921Y1621698D02*
Y1628379D01*
X1906021Y1621698D02*
Y1628379D01*
X1906121Y1621698D02*
Y1628379D01*
X1906221Y1621698D02*
Y1628379D01*
X1906321Y1621698D02*
Y1628379D01*
X1906421Y1621698D02*
Y1628379D01*
X1906521Y1621698D02*
Y1628379D01*
X1906621Y1621698D02*
Y1628379D01*
X1906721Y1621698D02*
Y1628379D01*
X1906821Y1621698D02*
Y1628379D01*
X1906921Y1621698D02*
Y1628379D01*
X1907021Y1621657D02*
Y1628379D01*
X1907121Y1621556D02*
Y1628379D01*
X1907221Y1621455D02*
Y1628379D01*
X1907321Y1621354D02*
Y1628379D01*
X1907421Y1621253D02*
Y1628379D01*
X1907521Y1621152D02*
Y1628379D01*
X1907621Y1621051D02*
Y1628379D01*
X1907721Y1620950D02*
Y1628379D01*
X1907821Y1620850D02*
Y1628379D01*
X1907921Y1620749D02*
Y1628379D01*
X1908021Y1620648D02*
Y1628379D01*
X1908121Y1620547D02*
Y1628379D01*
X1908221Y1620446D02*
Y1628379D01*
X1908321Y1620345D02*
Y1628379D01*
X1908421Y1620244D02*
Y1628379D01*
X1908521Y1620144D02*
Y1628379D01*
X1908621Y1620043D02*
Y1628379D01*
X1908721Y1619942D02*
Y1628379D01*
X1908821Y1619841D02*
Y1628379D01*
X1908921Y1619740D02*
Y1628379D01*
X1909021Y1619639D02*
Y1628379D01*
X1909121Y1619538D02*
Y1628379D01*
X1909221Y1619438D02*
Y1628379D01*
X1909321Y1619337D02*
Y1628379D01*
X1909421Y1619236D02*
Y1628379D01*
X1909521Y1619135D02*
Y1628379D01*
X1909621Y1619034D02*
Y1628379D01*
X1909721Y1618933D02*
Y1628379D01*
X1909821Y1618832D02*
Y1628379D01*
X1909921Y1618731D02*
Y1628379D01*
X1910021Y1618631D02*
Y1628379D01*
X1910121Y1618530D02*
Y1628379D01*
X1910221Y1618429D02*
Y1628379D01*
X1910321Y1618328D02*
Y1628379D01*
X1910421Y1618227D02*
Y1628379D01*
X1910521Y1618126D02*
Y1628379D01*
X1910621Y1618025D02*
Y1628379D01*
X1910721Y1617925D02*
Y1628379D01*
X1910821Y1617824D02*
Y1628379D01*
X1910921Y1617723D02*
Y1628379D01*
X1911021Y1617622D02*
Y1628379D01*
X1911121Y1617521D02*
Y1628287D01*
X1911221Y1617420D02*
Y1628187D01*
X1911321Y1617319D02*
Y1628087D01*
X1911421Y1617219D02*
Y1627987D01*
X1911521Y1617118D02*
Y1627886D01*
X1911621Y1617017D02*
Y1627786D01*
X1911721Y1616916D02*
Y1627686D01*
X1911821Y1616815D02*
Y1627586D01*
X1911921Y1616714D02*
Y1627486D01*
X1912021Y1616613D02*
Y1627386D01*
X1912121Y1588319D02*
Y1627286D01*
X1912221Y1588319D02*
Y1627186D01*
X1912321Y1588319D02*
Y1627086D01*
X1912421Y1588319D02*
Y1626986D01*
X1912521Y1588319D02*
Y1626886D01*
X1912621Y1588319D02*
Y1626786D01*
X1912721Y1588319D02*
Y1626686D01*
X1912821Y1588319D02*
Y1626586D01*
X1912921Y1588319D02*
Y1626486D01*
X1913021Y1588319D02*
Y1626386D01*
X1913121Y1588319D02*
Y1626286D01*
X1913221Y1588319D02*
Y1626186D01*
X1913321Y1588319D02*
Y1626086D01*
X1913421Y1588319D02*
Y1625986D01*
X1913521Y1588319D02*
Y1625886D01*
X1913621Y1588319D02*
Y1625786D01*
X1913721Y1588319D02*
Y1625686D01*
X1913821Y1588319D02*
Y1625586D01*
X1913921Y1588319D02*
Y1625486D01*
X1914021Y1588319D02*
Y1625386D01*
X1914121Y1588319D02*
Y1625286D01*
X1914221Y1588319D02*
Y1625186D01*
X1914321Y1588319D02*
Y1625086D01*
X1914421Y1588319D02*
Y1624986D01*
X1914521Y1588319D02*
Y1624886D01*
X1914621Y1588319D02*
Y1624786D01*
X1914721Y1588319D02*
Y1624686D01*
X1914821Y1588319D02*
Y1624586D01*
X1914921Y1588319D02*
Y1624486D01*
X1915021Y1588319D02*
Y1624386D01*
X1915121Y1588319D02*
Y1624286D01*
X1915221Y1588319D02*
Y1624186D01*
X1915321Y1588319D02*
Y1624086D01*
X1915421Y1588319D02*
Y1623986D01*
X1915521Y1588319D02*
Y1623886D01*
X1915621Y1588319D02*
Y1623786D01*
X1915721Y1588319D02*
Y1623686D01*
X1915821Y1588319D02*
Y1623586D01*
X1915921Y1588319D02*
Y1623486D01*
X1916021Y1588319D02*
Y1623385D01*
X1916121Y1588319D02*
Y1623285D01*
X1916221Y1588319D02*
Y1623185D01*
X1916321Y1588319D02*
Y1623085D01*
X1916421Y1588319D02*
Y1622985D01*
X1916521Y1588319D02*
Y1622885D01*
X1916621Y1588319D02*
Y1622785D01*
X1916721Y1588319D02*
Y1622685D01*
X1916821Y1588319D02*
Y1622585D01*
X1916921Y1588319D02*
Y1622485D01*
X1917021Y1588319D02*
Y1622385D01*
X1917121Y1588319D02*
Y1622285D01*
X1917221Y1588319D02*
Y1622185D01*
X1917321Y1588319D02*
Y1622085D01*
X1917421Y1588319D02*
Y1621985D01*
X1917521Y1588319D02*
Y1621885D01*
X1917621Y1588319D02*
Y1621785D01*
X1917721Y1588319D02*
Y1621685D01*
X1917821Y1588319D02*
Y1621585D01*
X1917921Y1588319D02*
Y1621485D01*
X1918021Y1588319D02*
Y1621385D01*
X1918121Y1588319D02*
Y1621285D01*
X1918221Y1588319D02*
Y1621185D01*
X1918321Y1588319D02*
Y1621085D01*
X1918421Y1588319D02*
Y1620985D01*
X1918521Y1588319D02*
Y1620885D01*
X1918621Y1588319D02*
Y1620785D01*
X1918721Y1588319D02*
Y1620685D01*
X1918821Y1588319D02*
Y1620585D01*
X1918921Y1588319D02*
Y1620485D01*
X1919021Y1588319D02*
Y1620385D01*
X1919121Y1588319D02*
Y1620285D01*
X1893725Y1650005D02*
X1893727D01*
X1944276Y1657087D02*
X1944279D01*
X1944276D02*
X1944279D01*
X1910329Y1625005D02*
X1910332D01*
G54D111*
X1979749Y1649886D03*
G54D113*
X2004598Y1606943D03*
G54D117*
X1893802Y1647532D02*
X1907165D01*
Y1643291*
X1893802*
Y1647532*
X1903982Y1654860D02*
X1907156D01*
Y1646358*
X1903982*
Y1654860*
X1893802Y1645770D02*
X1907165D01*
X1903982Y1653798D02*
X1907156D01*
X1903982Y1651318D02*
X1907156D01*
X1903982Y1648837D02*
X1907156D01*
G54D135*
X1979749Y1657760D03*
X1958479Y1628863D02*
X1958494Y1628847D01*
Y1612836*
G54D289*
X2024998Y1582111D03*
G54D290*
X2014998D03*
X2004998D03*
X1994998D03*
X1984998D03*
X1974998D03*
X1999998Y1536659D03*
X2005904Y1544139D03*
X1994093D03*
G54D337*
X1963765Y1588541D03*
G54D770*
X1952061Y1555561D03*
X1943061D03*
X1917703Y1591472D03*
X1926703D03*
X1958494Y1612836D03*
X1949494D03*
G54D782*
X1981204Y1598065D03*
Y1591865D03*
X2008654D03*
Y1598065D03*
X2023018Y1591865D03*
Y1598065D03*
X2018872Y1573553D03*
Y1567353D03*
X2005447Y1573553D03*
Y1567353D03*
X1998951Y1573553D03*
Y1567353D03*
X1992612Y1573553D03*
Y1567353D03*
X2029872Y1591865D03*
Y1598065D03*
X2015905Y1591865D03*
Y1598065D03*
X1988240D03*
Y1591865D03*
X2001904Y1598065D03*
Y1591865D03*
X1995205Y1598065D03*
Y1591865D03*
X1951268Y1576854D03*
Y1570654D03*
X2011943Y1573553D03*
Y1567353D03*
G54D783*
X1979119Y1573953D03*
X1985319D03*
X1966815Y1573312D03*
X1960615D03*
X1901854Y1655186D03*
X1895654D03*
X1915899D03*
X1909699D03*
X1943439Y1570205D03*
X1937239D03*
X1953626Y1545289D03*
X1947426D03*
G54D817*
X1919108Y1632800D03*
X1969502D03*
X2030486D03*
X2080880D03*
G54D818*
X1960959Y1565772D03*
G54D819*
Y1563213D03*
Y1560654D03*
Y1558095D03*
Y1555536D03*
Y1552977D03*
Y1550418D03*
Y1547859D03*
Y1545300D03*
Y1542741D03*
X1985368D03*
Y1545300D03*
Y1547859D03*
Y1550418D03*
Y1552977D03*
Y1555536D03*
Y1558095D03*
Y1560654D03*
Y1563213D03*
Y1565772D03*
G74*
X0Y0D02*
M02*
