%
T1C.01575F095S3
X012907Y015428
X011712Y016677
X011712Y017644
X011096Y018153
X011712Y01861
X011712Y019189
X011096Y019204
X010517Y020106
X011096Y020106
X011712Y020106
X010517Y020871
X011712Y020939
X012088Y022124
X01121Y022766
X012055Y022766
X010426Y022766
X013029Y022766
X01395Y022766
X014785Y022766
X015183Y022124
X014384Y018848
X014669Y018563
X014669Y018043
X014669Y017621
X014669Y017189
X014669Y016706
X014518Y016211
X014906Y016211
X014529Y015753
X015183Y015233
X012942Y014566
X013487Y013835
X014144Y013177
X01476Y012526
X01748Y010773
X015979Y011742
X017647Y011756
X016178Y012162
X016714Y012162
X015505Y012162
X015982Y022124
X019698Y022238
X019132Y017247
X019145Y016363
X020079Y015618
X018129Y015141
X018993Y015138
X018615Y0149
X02016Y013931
X019955Y01312
X020289Y013114
X019694Y012415
X020374Y01115
X019809Y011131
X020157Y010884
X0181Y010482
X020373Y010418
X018674Y010354
X019351Y010307
X019921Y010307
X022004Y010418
X021332Y010418
X020867Y010418
X021125Y011353
X0228Y011497
X02049Y012689
X020859Y012689
X022205Y012834
X02065Y012992
X020554Y0139
X020554Y014299
X020765Y015906
X022326Y016372
X021605Y016475
X021699Y020066
X020817Y020231
X02045Y022382
X02045Y022829
X021925Y022913
X025073Y022913
X023189Y022913
X024133Y022913
X024133Y021102
X023482Y021092
X025119Y020953
X023807Y020742
X023196Y020742
X024418Y020742
X025294Y017784
X024945Y017247
X024945Y016857
X024473Y016412
X025112Y016412
X025197Y01582
X02309Y015744
X023766Y015686
X024456Y015685
X023229Y011024
X02522Y01102
X024609Y01102
X024592Y01052
X025511Y01052
X026001Y01052
X026001Y01102
X027732Y013401
X026572Y013401
X025661Y013969
X026891Y01435
X027681Y014575
X027389Y016752
X026822Y017027
X025662Y017487
X026822Y017737
X02726Y021843
X026569Y022162
X025956Y022751
X028174Y021843
X029277Y021843
X030389Y021843
X029633Y017372
X028808Y017372
X029633Y016133
X028517Y015861
X02803Y015257
X028426Y014575
X029633Y014484
X028865Y014137
X028796Y013401
X029633Y013401
X029633Y012494
X030969Y012494
X030969Y013824
X032237Y01405
X030969Y01527
X032237Y01527
X032495Y016063
X031651Y016063
X030976Y016063
X032282Y017372
X031396Y017372
X030465Y017372
X03284Y02124
X032569Y021535
X031592Y021843
X031592Y02287
X032474Y02287
X034242Y02287
X033278Y02287
X033278Y022099
X034242Y022099
X034242Y021061
X033287Y021061
X035054Y021054
X033287Y020218
X034242Y020218
X035054Y020206
X034242Y01919
X033297Y01919
X035054Y019185
X035054Y018307
X034242Y018307
X033297Y018307
X034251Y017372
X033298Y017372
X035054Y017372
X033126Y016063
X035856Y020206
X035856Y021001
X035828Y02287
T2C.01969F095S3
X019419Y016089
X020021Y016089
X020016Y016834
X020016Y017247
X0195Y017247
X02247Y018063
X022104Y017251
X020475Y017247
X021011Y017247
X021412Y017246
X020833Y016936
X020475Y01683
X02044Y01609
X021134Y013202
X023765Y01872
T3C.02756F197S55
X02117Y021594
X02117Y022382
X015106Y019571G85X015106Y020201
X020146Y019571G85X020146Y020201
X026244Y019571G85X026244Y020201
X031283Y019571G85X031283Y020201
T4C.0315F197S55
X022695Y014817
X021695Y014817
X020695Y014817
X024695Y014817
X023695Y014817
X025695Y014817
T5C.03346F197S55
X023195Y010272
X023786Y01102
X022605Y01102
T6C.035F197S55
X017272Y019492
X016287Y019492
X019043Y019492
X018059Y019492
X02389Y01239
X02489Y01239
X02689Y01239
X02789Y01239
X02589Y01239
X027425Y019492
X029197Y019492
X028409Y019492
X030181Y019492
T7C.03937F197S55
X012728Y017106
X013728Y017106
X012728Y018106
X013728Y018106
X013728Y019106
X012728Y019106
X013728Y020106
X012728Y020106
X013728Y021106
X012728Y021106
T8C.04724F139S55
X023655Y0173
M30
