*
*
G04 PADS 9.5 Build Number: 522968 generated Gerber (RS-274-X) file*
G04 PC Version=2.1*
*
%IN "QCD_PowerBank_001A_V02_"*%
*
%MOIN*%
*
%FSLAX35Y35*%
*
*
*
*
G04 PC Standard Apertures*
*
*
G04 Thermal Relief Aperture macro.*
%AMTER*
1,1,$1,0,0*
1,0,$1-$2,0,0*
21,0,$3,$4,0,0,45*
21,0,$3,$4,0,0,135*
%
*
*
G04 Annular Aperture macro.*
%AMANN*
1,1,$1,0,0*
1,0,$2,0,0*
%
*
*
G04 Odd Aperture macro.*
%AMODD*
1,1,$1,0,0*
1,0,$1-0.005,0,0*
%
*
*
G04 PC Custom Aperture Macros*
*
*
*
*
*
*
G04 PC Aperture Table*
*
%ADD047C,0.01*%
%ADD076C,0.07299*%
%ADD089C,0.07*%
%ADD095R,0.04937X0.04937*%
%ADD096R,0.07X0.07*%
%ADD104R,0.07299X0.07299*%
%ADD110C,0.001*%
%ADD124R,0.05724X0.05724*%
%ADD138C,0.05724*%
%ADD293R,0.06118X0.06118*%
%ADD294C,0.06118*%
%ADD401R,0.04937X0.06*%
%ADD797R,0.04X0.048*%
%ADD798R,0.048X0.04*%
%ADD805R,0.07X0.06*%
%ADD822O,0.08087X0.13598*%
%ADD823O,0.04937X0.02378*%
%ADD824R,0.04937X0.02378*%
*
*
*
*
G04 PC Circuitry*
G04 Layer Name QCD_PowerBank_001A_V02_ - circuitry*
%LPD*%
*
*
G04 PC Custom Flashes*
G04 Layer Name QCD_PowerBank_001A_V02_ - flashes*
%LPD*%
*
*
G04 PC Circuitry*
G04 Layer Name QCD_PowerBank_001A_V02_ - circuitry*
%LPD*%
*
G54D47*
G01X2000780Y1610789D02*
X2008961D01*
Y1601376*
X2000780*
Y1610789*
Y1610375D02*
X2008961D01*
X2000780Y1609475D02*
X2008961D01*
X2000780Y1608575D02*
X2008961D01*
X2000780Y1607675D02*
X2008961D01*
X2000780Y1606775D02*
X2008961D01*
X2000780Y1605875D02*
X2008961D01*
X2000780Y1604975D02*
X2008961D01*
X2000780Y1604075D02*
X2008961D01*
X2000780Y1603175D02*
X2008961D01*
X2000780Y1602275D02*
X2008961D01*
X1868148Y1665974D02*
X1917081D01*
Y1665949*
X1917079Y1665950D02*
G75*
G03X1971473I27197J37297D01*
G01X1971471Y1665949D02*
Y1665937D01*
X2028477*
Y1665933*
X2028461Y1665945D02*
G03X2082914I27226J37750D01*
G01X2082898Y1665933D02*
Y1665935D01*
X2131852*
Y1651502*
X2115046Y1591297D02*
G03X2131851Y1651488I-115054J64566D01*
G01X2115047Y1591301D02*
X2110573Y1595775D01*
X2110572Y1595776D02*
G03X2105806Y1591076I-2391J-2342D01*
G01X2105805Y1591077D02*
X2111502Y1585381D01*
X2070613Y1544383D02*
G03X2111560Y1585473I-70693J111393D01*
G01X2070440Y1544273D02*
X2064713Y1550007D01*
X2064715Y1550005D02*
G03X2059898Y1545354I-2356J-2380D01*
G01X2059899Y1545353D02*
X2064522Y1540729D01*
X2050670Y1534016D02*
G03X2064501Y1540717I-50323J121492D01*
G01X2050693Y1534026D02*
X1949340D01*
X1935529Y1540750D02*
G03X1949388Y1534006I64542J115014D01*
G01X1935483Y1540776D02*
X1940082Y1545371D01*
X1940081D02*
G03X1935461Y1550163I-2438J2273D01*
G01X1935460D02*
X1929665Y1544312D01*
X1888435Y1585464D02*
G03X1929648Y1544323I111517J70498D01*
G01X1888479Y1585394D02*
X1894157Y1591043D01*
G03X1889425Y1595784I-2339J2397*
G01X1889427Y1595786D02*
X1884965Y1591324D01*
X1868147Y1651537D02*
G03X1884953Y1591346I131859J4374D01*
G01X1868148Y1651502D02*
Y1665974D01*
X2127167Y1651867D02*
G03X2127167I-5118J0D01*
G01X2046101Y1545257D02*
G03X2046101I-5118J0D01*
G01X1883073Y1651867D02*
G03X1883073I-5118J0D01*
G54D76*
G01X1895329Y1635005D03*
Y1625005D03*
Y1615005D03*
Y1605005D03*
X1905329Y1645005D03*
Y1635005D03*
Y1625005D03*
Y1615005D03*
Y1605005D03*
G54D89*
X2016943Y1557843D03*
X2026943D03*
X2036943D03*
X2046943D03*
X1958479Y1628863D03*
X1948636D03*
X1940762D03*
X1930919D03*
X2069856D03*
X2060014D03*
X2052140D03*
X2042297D03*
G54D95*
X1959965Y1580541D03*
X1967465D03*
G54D96*
X2006943Y1557843D03*
G54D104*
X1895329Y1645005D03*
G54D110*
X1893725Y1650005D02*
X1893727D01*
X1944276Y1657087D02*
X1944279D01*
X1944276D02*
X1944279D01*
X1910329Y1625005D02*
X1910332D01*
G54D124*
X1979749Y1649886D03*
G54D138*
Y1657760D03*
G54D293*
X2024998Y1582111D03*
G54D294*
X1999998Y1536659D03*
X2005904Y1544139D03*
X1994093D03*
X2014998Y1582111D03*
X2004998D03*
X1994998D03*
X1984998D03*
X1974998D03*
G54D401*
X1963765Y1588541D03*
G54D797*
X1981204Y1598065D03*
Y1591865D03*
X2008654D03*
Y1598065D03*
X2023018Y1591865D03*
Y1598065D03*
X2018872Y1573553D03*
Y1567353D03*
X2005447Y1573553D03*
Y1567353D03*
X1998951Y1573553D03*
Y1567353D03*
X1992612Y1573553D03*
Y1567353D03*
X2029872Y1591865D03*
Y1598065D03*
X2015905Y1591865D03*
Y1598065D03*
X1988240D03*
Y1591865D03*
X2001904Y1598065D03*
Y1591865D03*
X1995205Y1598065D03*
Y1591865D03*
X1951268Y1576854D03*
Y1570654D03*
X2011943Y1573553D03*
Y1567353D03*
G54D798*
X1979119Y1573953D03*
X1985319D03*
X1966815Y1573312D03*
X1960615D03*
X1901854Y1655186D03*
X1895654D03*
X1915899D03*
X1909699D03*
X1943439Y1570205D03*
X1937239D03*
X1953626Y1545289D03*
X1947426D03*
G54D805*
X1952061Y1555561D03*
X1943061D03*
X1917703Y1591472D03*
X1926703D03*
X1958494Y1612836D03*
X1949494D03*
G54D822*
X1919108Y1632800D03*
X1969502D03*
X2030486D03*
X2080880D03*
G54D823*
X1960959Y1565772D03*
G54D824*
Y1563213D03*
Y1560654D03*
Y1558095D03*
Y1555536D03*
Y1552977D03*
Y1550418D03*
Y1547859D03*
Y1545300D03*
Y1542741D03*
X1985368D03*
Y1545300D03*
Y1547859D03*
Y1550418D03*
Y1552977D03*
Y1555536D03*
Y1558095D03*
Y1560654D03*
Y1563213D03*
Y1565772D03*
G74*
X0Y0D02*
M02*
