*
*
G04 PADS 9.5 Build Number: 522968 generated Gerber (RS-274-X) file*
G04 PC Version=2.1*
*
%IN "QCD_PowerBank_001A_V02_"*%
*
%MOIN*%
*
%FSLAX35Y35*%
*
*
*
*
G04 PC Standard Apertures*
*
*
G04 Thermal Relief Aperture macro.*
%AMTER*
1,1,$1,0,0*
1,0,$1-$2,0,0*
21,0,$3,$4,0,0,45*
21,0,$3,$4,0,0,135*
%
*
*
G04 Annular Aperture macro.*
%AMANN*
1,1,$1,0,0*
1,0,$2,0,0*
%
*
*
G04 Odd Aperture macro.*
%AMODD*
1,1,$1,0,0*
1,0,$1-0.005,0,0*
%
*
*
G04 PC Custom Aperture Macros*
*
*
*
*
*
*
G04 PC Aperture Table*
*
%ADD032C,0.05906*%
%ADD047C,0.01*%
%ADD110C,0.001*%
%ADD123R,0.08661X0.08661*%
%ADD459O,0.024X0.074*%
%ADD462R,0.11811X0.27559*%
%ADD652R,0.02953X0.01181*%
%ADD653R,0.01181X0.02953*%
%ADD770R,0.06X0.05*%
%ADD771R,0.05X0.06*%
%ADD782R,0.03X0.038*%
%ADD783R,0.038X0.03*%
%ADD820R,0.06X0.1*%
%ADD821O,0.04724X0.01575*%
*
*
*
*
G04 PC Circuitry*
G04 Layer Name QCD_PowerBank_001A_V02_ - circuitry*
%LPD*%
*
*
G04 PC Custom Flashes*
G04 Layer Name QCD_PowerBank_001A_V02_ - flashes*
%LPD*%
*
*
G04 PC Circuitry*
G04 Layer Name QCD_PowerBank_001A_V02_ - circuitry*
%LPD*%
*
G54D32*
G01X1912778Y1647465D03*
G54D47*
X1868148Y1665974D02*
X1917081D01*
Y1665949*
X1917079Y1665950D02*
G75*
G03X1971473I27197J37297D01*
G01X1971471Y1665949D02*
Y1665937D01*
X2028477*
Y1665933*
X2028461Y1665945D02*
G03X2082914I27226J37750D01*
G01X2082898Y1665933D02*
Y1665935D01*
X2131852*
Y1651502*
X2115046Y1591297D02*
G03X2131851Y1651488I-115054J64566D01*
G01X2115047Y1591301D02*
X2110573Y1595775D01*
X2110572Y1595776D02*
G03X2105806Y1591076I-2391J-2342D01*
G01X2105805Y1591077D02*
X2111502Y1585381D01*
X2070613Y1544383D02*
G03X2111560Y1585473I-70693J111393D01*
G01X2070440Y1544273D02*
X2064713Y1550007D01*
X2064715Y1550005D02*
G03X2059898Y1545354I-2356J-2380D01*
G01X2059899Y1545353D02*
X2064522Y1540729D01*
X2050670Y1534016D02*
G03X2064501Y1540717I-50323J121492D01*
G01X2050693Y1534026D02*
X1949340D01*
X1935529Y1540750D02*
G03X1949388Y1534006I64542J115014D01*
G01X1935483Y1540776D02*
X1940082Y1545371D01*
X1940081D02*
G03X1935461Y1550163I-2438J2273D01*
G01X1935460D02*
X1929665Y1544312D01*
X1888435Y1585464D02*
G03X1929648Y1544323I111517J70498D01*
G01X1888479Y1585394D02*
X1894157Y1591043D01*
G03X1889425Y1595784I-2339J2397*
G01X1889427Y1595786D02*
X1884965Y1591324D01*
X1868147Y1651537D02*
G03X1884953Y1591346I131859J4374D01*
G01X1868148Y1651502D02*
Y1665974D01*
X2127167Y1651867D02*
G03X2127167I-5118J0D01*
G01X2046101Y1545257D02*
G03X2046101I-5118J0D01*
G01X1883073Y1651867D02*
G03X1883073I-5118J0D01*
G54D110*
G54D123*
G01X2004686Y1606855D03*
G54D459*
X2011057Y1634443D03*
X2006057D03*
X2001057D03*
X1996057D03*
Y1657043D03*
X2001057D03*
X2006057D03*
X2011057D03*
G54D462*
X1950131Y1603692D03*
X1928477D03*
G54D652*
X2012560Y1611776D03*
Y1609808D03*
Y1607839D03*
Y1605871D03*
Y1603902D03*
Y1601934D03*
X1996812D03*
Y1603902D03*
Y1605871D03*
Y1607839D03*
Y1609808D03*
Y1611776D03*
G54D653*
X1999765Y1614729D03*
X2001733D03*
X2003702D03*
X2005670D03*
X2007639D03*
X2009607D03*
Y1598981D03*
X2007639D03*
X2005670D03*
X2003702D03*
X2001733D03*
X1999765D03*
G54D770*
X1940337Y1581579D03*
X1949337D03*
X2070101Y1614650D03*
X2079101D03*
G54D771*
X2019428Y1638506D03*
Y1629506D03*
X1988990Y1627252D03*
Y1636252D03*
X1980841Y1627252D03*
Y1636252D03*
G54D782*
X2018452Y1648396D03*
Y1654596D03*
X2052301Y1607666D03*
Y1601466D03*
X2045352D03*
Y1607666D03*
G54D783*
X1979309Y1550564D03*
X1973109D03*
X1979300Y1592997D03*
X1985500D03*
X2030862Y1604256D03*
X2024662D03*
Y1597437D03*
X2030862D03*
X1981061Y1567537D03*
X1987261D03*
X2024662Y1611146D03*
X2030862D03*
G54D820*
X1915418Y1580438D03*
X1928918D03*
G54D821*
X1986943Y1610024D03*
Y1607465D03*
Y1604906D03*
Y1602347D03*
X1963321D03*
Y1604906D03*
Y1607465D03*
Y1610024D03*
G74*
X0Y0D02*
M02*
