*
*
G04 PADS 9.5 Build Number: 522968 generated Gerber (RS-274-X) file*
G04 PC Version=2.1*
*
%IN "QCD_PowerBank_001A_V02_"*%
*
%MOIN*%
*
%FSLAX35Y35*%
*
*
*
*
G04 PC Standard Apertures*
*
*
G04 Thermal Relief Aperture macro.*
%AMTER*
1,1,$1,0,0*
1,0,$1-$2,0,0*
21,0,$3,$4,0,0,45*
21,0,$3,$4,0,0,135*
%
*
*
G04 Annular Aperture macro.*
%AMANN*
1,1,$1,0,0*
1,0,$2,0,0*
%
*
*
G04 Odd Aperture macro.*
%AMODD*
1,1,$1,0,0*
1,0,$1-0.005,0,0*
%
*
*
G04 PC Custom Aperture Macros*
*
*
*
*
*
*
G04 PC Aperture Table*
*
%ADD010C,0.00984*%
%ADD047C,0.01*%
%ADD048C,0.008*%
%ADD050C,0.005*%
%ADD064C,0.01181*%
%ADD071C,0.00787*%
%ADD110C,0.001*%
%ADD120C,0.00591*%
*
*
*
*
G04 PC Circuitry*
G04 Layer Name QCD_PowerBank_001A_V02_ - circuitry*
%LPD*%
*
G54D110*
G01X2109949Y1647189D02*
X2109890Y1647720D01*
X2109771Y1648134*
X2109594Y1648548*
X2109359Y1648900*
X2109069Y1649191*
X2108660Y1649366*
X2108246Y1649484*
X2107775Y1649543*
X2107305Y1649484*
X2106953Y1649367*
X2106602Y1649192*
X2106014Y1648603*
X2105840Y1648197*
X2105781Y1647783*
X2105722Y1647310*
X2105840Y1646482*
X2106134Y1645834*
X2106603Y1645307*
X2107255Y1645011*
X2107269Y1644930*
X2106909Y1644569*
X2106899Y1644562*
X2106599Y1644381*
X2106595Y1644379*
X2106355Y1644259*
X2106341Y1644255*
X2105980Y1644195*
X2105965Y1644194*
X2105601Y1644246*
Y1643807*
X2106031Y1643753*
X2106442Y1643812*
X2106847Y1643928*
X2107018Y1644099*
X2107024Y1644104*
X2107261Y1644282*
X2107558Y1644578*
X2107857Y1644937*
X2107888Y1644955*
X2108305Y1645014*
X2108718Y1645132*
X2109068Y1645307*
X2109361Y1645600*
X2109595Y1645893*
X2109771Y1646304*
X2109890Y1646718*
X2109949Y1647189*
X2109447Y1647241D02*
X2109327Y1646520D01*
X2109322Y1646506*
X2109022Y1645905*
X2109012Y1645892*
X2108772Y1645651*
X2108759Y1645642*
X2108519Y1645522*
X2108519D02*
X2108515Y1645520D01*
X2108214Y1645400*
X2108196Y1645396*
X2107474*
X2107456Y1645400*
X2107155Y1645520*
X2107144Y1645526*
X2106663Y1645887*
X2106649Y1645903*
X2106349Y1646444*
X2106343Y1646460*
X2106223Y1647242*
X2106222Y1647249*
X2106223Y1647257*
X2106343Y1648038*
X2106349Y1648055*
X2106649Y1648596*
X2106663Y1648612*
X2107144Y1648972*
X2107165Y1648981*
X2107826Y1649102*
X2107845Y1649101*
X2108446Y1648981*
X2108462Y1648975*
X2108762Y1648795*
X2108767Y1648792*
X2109007Y1648612*
X2109022Y1648594*
X2109322Y1647993*
X2109327Y1647979*
X2109447Y1647257*
Y1647241*
X2105080Y1647189D02*
X2105021Y1647661D01*
X2104902Y1648135*
X2104727Y1648545*
X2104434Y1648897*
X2104082Y1649190*
X2103671Y1649366*
X2103257Y1649484*
X2102785Y1649543*
X2102196Y1649484*
X2101754Y1649318*
Y1648881*
X2102229Y1649040*
X2102240Y1649042*
X2102781Y1649102*
X2102794*
X2103516Y1648982*
X2103533Y1648975*
X2103834Y1648795*
X2103838Y1648792*
X2104078Y1648612*
X2104091Y1648597*
X2104452Y1647996*
X2104458Y1647979*
X2104518Y1647618*
X2104519Y1647617*
X2104579Y1647196*
Y1647189*
X2104578Y1647181*
X2104458Y1646460*
X2104451Y1646440*
X2104090Y1645899*
X2104078Y1645887*
X2103597Y1645526*
X2103586Y1645520*
X2103285Y1645400*
X2103267Y1645396*
X2102906*
X2102902*
X2102241Y1645456*
X2102225Y1645460*
X2101754Y1645670*
Y1645238*
X2102258Y1645014*
X2102965Y1644955*
X2103437Y1645014*
X2103850Y1645132*
X2104202Y1645308*
X2104492Y1645540*
X2104726Y1645892*
X2104903Y1646246*
X2105021Y1646658*
X2105080Y1647189*
X2100466Y1598145D02*
X2098407Y1600204D01*
X2098404Y1600207*
X2098058Y1600622*
X2098049Y1600638*
X2097911Y1601053*
X2097909Y1601059*
X2097840Y1601404*
X2097839Y1601414*
X2097840Y1601422*
X2097840D02*
X2097909Y1601837D01*
X2097918Y1601859*
X2098126Y1602136*
X2098136Y1602146*
X2098412Y1602353*
X2098434Y1602362*
X2098849Y1602431*
X2098867*
X2099558Y1602293*
X2099574Y1602287*
X2099920Y1602079*
X2099925Y1602075*
X2100189Y1601864*
Y1602289*
X2099865Y1602548*
X2099531Y1602749*
X2099125Y1602817*
X2099124*
X2098785Y1602884*
X2098115Y1602817*
X2097647Y1602483*
X2097315Y1602085*
X2097248Y1601484*
X2097316Y1601013*
X2097518Y1600541*
X2097927Y1599996*
X2098546Y1599376*
X2099790Y1598202*
X2099756Y1598115*
X2097317*
Y1597663*
X2100466*
Y1598145*
X2100753Y1649483D02*
X2099543D01*
X2099009Y1649424*
X2098595Y1649306*
X2098182Y1649128*
X2097831Y1648895*
X2097539Y1648544*
X2097363Y1648193*
X2097245Y1647780*
X2097186Y1647309*
X2097245Y1646778*
X2097364Y1646364*
X2097539Y1645955*
X2097831Y1645663*
X2098184Y1645369*
X2098595Y1645193*
X2099069Y1645075*
X2099069D02*
X2099543Y1645015D01*
X2100753*
Y1649483*
X2100251Y1648992D02*
Y1645506D01*
X2100201Y1645456*
X2099540*
X2099533Y1645457*
X2098751Y1645577*
X2098740Y1645580*
X2098440Y1645700*
X2098423Y1645711*
X2097942Y1646192*
X2097931Y1646209*
X2097811Y1646509*
X2097810Y1646512*
X2097690Y1646873*
X2097687Y1646889*
Y1647670*
X2097690Y1647686*
X2097810Y1648046*
X2097814Y1648056*
X2097995Y1648357*
X2097998Y1648361*
X2098178Y1648602*
X2098196Y1648616*
X2098797Y1648917*
X2098811Y1648921*
X2099532Y1649042*
X2099540*
X2100201*
X2100251Y1648992*
X2096457Y1600786D02*
X2096320Y1601332D01*
X2096184Y1601811*
X2095982Y1602214*
X2095714Y1602482*
X2095445Y1602684*
X2095111Y1602817*
X2094710Y1602884*
X2094304Y1602817*
X2093974Y1602751*
X2093436Y1602213*
X2093237Y1601881*
X2093169Y1601407*
X2093168Y1601402*
X2093032Y1600855*
Y1599623*
X2093168Y1599078*
X2093304Y1598669*
X2093507Y1598264*
X2094043Y1597728*
X2094373Y1597662*
X2094779Y1597594*
X2095184Y1597662*
X2095518Y1597728*
X2095781Y1597925*
X2096048Y1598260*
X2096183Y1598597*
X2096321Y1599009*
X2096457Y1599554*
Y1600786*
X2095866Y1600170D02*
X2095865Y1600166D01*
X2095796Y1599268*
X2095794Y1599257*
X2095587Y1598566*
X2095574Y1598545*
X2095229Y1598199*
X2095207Y1598187*
X2094723Y1598048*
X2094694Y1598049*
X2094279Y1598187*
X2094256Y1598203*
X2093911Y1598617*
X2093902Y1598634*
X2093694Y1599256*
X2093692Y1599268*
X2093623Y1600166*
Y1600170*
Y1600174*
X2093692Y1601141*
X2093694Y1601152*
X2093901Y1601843*
X2093908Y1601857*
X2094184Y1602271*
X2094212Y1602292*
X2094696Y1602430*
X2094723*
X2095207Y1602292*
X2095232Y1602276*
X2095578Y1601861*
X2095587Y1601843*
X2095794Y1601152*
X2095796Y1601141*
X2095865Y1600174*
X2095866Y1600170*
X2095772Y1611697D02*
X2095713Y1612169D01*
X2095595Y1612643*
X2095419Y1613053*
X2095126Y1613405*
X2094774Y1613697*
X2094363Y1613874*
X2093949Y1613992*
X2093478Y1614051*
X2092889Y1613992*
X2092446Y1613826*
Y1613389*
X2092922Y1613548*
X2092932Y1613550*
X2093473Y1613610*
X2093487*
X2094208Y1613489*
X2094225Y1613483*
X2094526Y1613303*
X2094530Y1613300*
X2094771Y1613119*
X2094783Y1613105*
X2095144Y1612504*
X2095151Y1612487*
X2095211Y1612126*
Y1612125*
X2095271Y1611704*
Y1611697*
Y1611689*
X2095151Y1610967*
X2095143Y1610948*
X2094782Y1610407*
X2094771Y1610395*
X2094290Y1610034*
X2094278Y1610028*
X2093978Y1609907*
X2093959Y1609904*
X2093599*
X2093594*
X2092933Y1609964*
X2092917Y1609968*
X2092446Y1610177*
Y1609746*
X2092950Y1609522*
X2093658Y1609463*
X2094129Y1609522*
X2094542Y1609640*
X2094894Y1609816*
X2095184Y1610048*
X2095419Y1610400*
X2095419D02*
X2095595Y1610753D01*
X2095713Y1611166*
X2095772Y1611697*
X2096785Y1644374D02*
X2094181D01*
Y1644114*
X2096785*
Y1644374*
X2093480Y1649483D02*
X2092272D01*
X2091622Y1649365*
X2091159Y1649133*
X2090872Y1648732*
X2090756Y1648151*
X2090873Y1647564*
X2090988Y1647277*
X2091216Y1647049*
X2091742Y1646757*
X2092330Y1646698*
X2092929*
X2092979Y1646648*
Y1645015*
X2093480*
Y1649483*
X2092979Y1648992D02*
Y1647189D01*
X2092929Y1647139*
X2092388*
X2092381*
X2091900Y1647200*
X2091881Y1647206*
X2091580Y1647387*
X2091567Y1647398*
X2091327Y1647699*
X2091316Y1647722*
X2091256Y1648082*
Y1648091*
Y1648098*
X2091316Y1648519*
X2091326Y1648541*
X2091506Y1648782*
X2091524Y1648797*
X2091884Y1648977*
X2091900Y1648982*
X2092320Y1649042*
X2092327*
X2092929*
X2092979Y1648992*
X2092033Y1602345D02*
X2090267Y1602868D01*
Y1598165*
X2090217Y1598115*
X2089092*
Y1597663*
X2092033*
Y1598115*
X2090908*
X2090858Y1598165*
Y1602106*
X2090922Y1602153*
X2092033Y1601827*
Y1602345*
X2091745Y1609933D02*
X2089957Y1611722D01*
X2089954Y1611725*
X2089653Y1612086*
X2089644Y1612102*
X2089524Y1612463*
X2089522Y1612469*
X2089462Y1612769*
X2089461Y1612779*
X2089462Y1612787*
X2089522Y1613148*
X2089531Y1613169*
X2089712Y1613410*
X2089722Y1613420*
X2089962Y1613600*
X2089984Y1613610*
X2090345Y1613670*
X2090363Y1613669*
X2090964Y1613549*
X2090980Y1613543*
X2091280Y1613363*
X2091286Y1613359*
X2091505Y1613183*
Y1613536*
X2091226Y1613760*
X2090936Y1613933*
X2090585Y1613992*
X2090583*
X2090290Y1614051*
X2089710Y1613993*
X2089305Y1613704*
X2089018Y1613359*
X2088961Y1612840*
X2089019Y1612432*
X2089194Y1612023*
X2089549Y1611549*
X2090087Y1611012*
X2091168Y1609990*
X2091134Y1609904*
X2089020*
Y1609523*
X2091745*
Y1609933*
X2088300Y1602816D02*
X2084944D01*
Y1602668*
X2087001Y1597663*
X2087583*
X2085609Y1602293*
X2085655Y1602363*
X2088300*
Y1602816*
X2088259Y1613991D02*
X2085354D01*
Y1613871*
X2087140Y1609523*
X2087632*
X2085919Y1613541*
X2085965Y1613610*
X2088259*
Y1613991*
X2090113Y1647189D02*
X2090054Y1647720D01*
X2089936Y1648134*
X2089759Y1648548*
X2089524Y1648900*
X2089233Y1649191*
X2088824Y1649366*
X2088410Y1649484*
X2087940Y1649543*
X2087529Y1649484*
X2087116Y1649366*
X2086767Y1649192*
X2086179Y1648603*
X2086005Y1648197*
X2085946Y1647783*
X2085886Y1647309*
X2085946Y1646774*
X2086004Y1646304*
X2086238Y1645895*
X2086474Y1645600*
X2086767Y1645307*
X2087116Y1645132*
X2087529Y1645014*
X2088000Y1644955*
X2088471Y1645014*
X2088883Y1645132*
X2089235Y1645308*
X2089525Y1645540*
X2089760Y1645893*
X2089995Y1646304*
X2090054Y1646715*
X2090113Y1647189*
X2089612Y1647241D02*
X2089492Y1646520D01*
X2089487Y1646506*
X2089186Y1645905*
X2089177Y1645892*
X2088937Y1645651*
X2088924Y1645642*
X2088683Y1645522*
X2088683D02*
X2088679Y1645520D01*
X2088379Y1645400*
X2088360Y1645396*
X2087639*
X2087621Y1645400*
X2087320Y1645520*
X2087309Y1645526*
X2086828Y1645887*
X2086814Y1645903*
X2086513Y1646444*
X2086508Y1646460*
X2086388Y1647242*
X2086387Y1647249*
X2086388Y1647257*
X2086508Y1648038*
X2086513Y1648055*
X2086814Y1648596*
X2086828Y1648612*
X2087309Y1648972*
X2087330Y1648981*
X2087991Y1649102*
X2088010Y1649101*
X2088611Y1648981*
X2088627Y1648975*
X2088927Y1648795*
X2088931Y1648792*
X2089172Y1648612*
X2089186Y1648594*
X2089487Y1647993*
X2089492Y1647979*
X2089612Y1647257*
Y1647241*
X2084222Y1600786D02*
X2084086Y1601332D01*
X2084086D02*
X2083949Y1601811D01*
X2083747Y1602214*
X2083479Y1602482*
X2083210Y1602684*
X2082876Y1602817*
X2082475Y1602884*
X2082069Y1602817*
X2081739Y1602751*
X2081201Y1602213*
X2081002Y1601881*
X2080935Y1601407*
X2080934Y1601402*
X2080797Y1600855*
Y1599623*
X2080933Y1599078*
X2081070Y1598669*
X2081272Y1598264*
X2081808Y1597728*
X2082138Y1597662*
X2082544Y1597594*
X2082950Y1597662*
X2083283Y1597728*
X2083546Y1597925*
X2083814Y1598260*
X2083949Y1598597*
X2084086Y1599009*
X2084222Y1599554*
Y1600786*
X2083631Y1600170D02*
Y1600166D01*
X2083562Y1599268*
X2083560Y1599257*
X2083352Y1598566*
X2083340Y1598545*
X2082994Y1598199*
X2082972Y1598187*
X2082489Y1598048*
X2082459Y1598049*
X2082044Y1598187*
X2082022Y1598203*
X2081676Y1598617*
X2081667Y1598634*
X2081460Y1599256*
X2081457Y1599268*
X2081388Y1600166*
Y1600170*
Y1600174*
X2081457Y1601141*
X2081459Y1601152*
X2081667Y1601843*
X2081673Y1601857*
X2081949Y1602271*
X2081977Y1602292*
X2082461Y1602430*
X2082489*
X2082972Y1602292*
X2082997Y1602276*
X2083343Y1601861*
X2083352Y1601843*
X2083560Y1601152*
X2083562Y1601141*
X2083631Y1600174*
Y1600170*
X2080005Y1599895D02*
X2079937Y1600579D01*
X2079868Y1601126*
X2079665Y1601668*
X2079393Y1602076*
X2079123Y1602414*
X2078720Y1602682*
X2078315Y1602817*
X2077912Y1602884*
X2077372Y1602817*
X2077064Y1602694*
Y1602244*
X2077413Y1602360*
X2077421Y1602362*
X2077835Y1602431*
X2077853*
X2078199Y1602362*
X2078201Y1602361*
X2078478Y1602292*
X2078496Y1602284*
X2078772Y1602076*
X2078782Y1602066*
X2078990Y1601790*
X2078994Y1601782*
X2079340Y1601091*
X2079345Y1601076*
X2079483Y1600178*
X2079433Y1600120*
X2079364*
X2079321Y1600144*
X2079119Y1600482*
X2078856Y1600679*
X2078521Y1600813*
X2078190Y1600879*
X2077588Y1600746*
X2077119Y1600411*
X2076786Y1599944*
X2076719Y1599274*
X2076854Y1598599*
X2077189Y1598064*
X2077725Y1597729*
X2078329Y1597594*
X2078733Y1597662*
X2079067Y1597728*
X2079329Y1597925*
X2079528Y1598191*
X2079869Y1598940*
X2080005Y1599895*
X2079414Y1599341D02*
Y1599334D01*
X2079345Y1598850*
X2079340Y1598834*
X2079133Y1598420*
X2079119Y1598403*
X2078773Y1598126*
X2078750Y1598116*
X2078336Y1598047*
X2078319*
X2077905Y1598116*
X2077877Y1598130*
X2077601Y1598407*
X2077593Y1598416*
X2077386Y1598762*
X2077380Y1598779*
X2077310Y1599194*
Y1599202*
Y1599209*
X2077379Y1599693*
X2077384Y1599709*
X2077592Y1600123*
X2077606Y1600141*
X2077883Y1600348*
X2077905Y1600358*
X2078319Y1600427*
X2078336*
X2078750Y1600358*
X2078768Y1600351*
X2079114Y1600144*
X2079131Y1600127*
X2079338Y1599781*
X2079345Y1599764*
X2079414Y1599349*
Y1599341*
X2085469Y1649483D02*
X2084913D01*
X2084022Y1646098*
X2083962Y1645620*
X2083912Y1645576*
X2083852*
X2083805Y1645611*
X2083745Y1645791*
X2083743Y1645797*
X2083683Y1646096*
X2082733Y1649483*
X2082208*
X2081317Y1646037*
X2081257Y1645619*
X2081208Y1645576*
X2081148*
X2081098Y1645619*
X2081038Y1646037*
X2080147Y1649483*
X2079591*
X2080885Y1645015*
X2081470*
X2082361Y1648281*
X2082420Y1648758*
X2082470Y1648802*
X2082530*
X2082580Y1648758*
X2082639Y1648281*
X2083589Y1645015*
X2084175*
X2085469Y1649483*
X2078813D02*
X2076569D01*
Y1649042*
X2078262*
X2078312Y1648992*
Y1647550*
X2078262Y1647500*
X2076690*
Y1647059*
X2078262*
X2078312Y1647009*
Y1645506*
X2078262Y1645456*
X2076449*
Y1645015*
X2078813*
Y1649483*
X2076066Y1600786D02*
X2075929Y1601332D01*
X2075792Y1601811*
X2075591Y1602214*
X2075322Y1602482*
X2075054Y1602684*
X2074720Y1602817*
X2074318Y1602884*
X2073913Y1602817*
X2073583Y1602751*
X2073045Y1602213*
X2072846Y1601881*
X2072778Y1601407*
X2072777Y1601402*
X2072640Y1600855*
Y1599623*
X2072777Y1599078*
X2072913Y1598669*
X2073115Y1598264*
X2073652Y1597728*
X2073982Y1597662*
X2074387Y1597594*
X2074793Y1597662*
X2075127Y1597728*
X2075389Y1597925*
X2075657Y1598260*
X2075792Y1598597*
X2075929Y1599009*
X2076066Y1599554*
Y1600786*
X2075474Y1600170D02*
Y1600166D01*
X2075405Y1599268*
X2075403Y1599257*
X2075196Y1598566*
X2075183Y1598545*
X2074838Y1598199*
X2074816Y1598187*
X2074332Y1598048*
X2074303Y1598049*
X2073888Y1598187*
X2073865Y1598203*
X2073520Y1598617*
X2073511Y1598634*
X2073303Y1599256*
X2073301Y1599268*
X2073232Y1600166*
X2073231Y1600170*
X2073232Y1600174*
X2073301Y1601141*
X2073303Y1601152*
X2073510Y1601843*
X2073516Y1601857*
X2073793Y1602271*
X2073821Y1602292*
X2074305Y1602430*
X2074332*
X2074816Y1602292*
X2074841Y1602276*
X2075186Y1601861*
X2075196Y1601843*
X2075403Y1601152*
X2075405Y1601141*
X2075474Y1600174*
Y1600170*
X2075508Y1649483D02*
X2074178D01*
X2073649Y1649424*
X2073189Y1649195*
X2072960Y1648793*
X2072843Y1648328*
X2072901Y1647867*
X2073073Y1647581*
X2073361Y1647292*
X2073832Y1647116*
X2073842Y1647027*
X2073490Y1646792*
X2073375Y1646620*
X2073373Y1646617*
X2073134Y1646319*
X2072341Y1645015*
X2072944*
X2073651Y1646252*
X2073655Y1646259*
X2073895Y1646559*
X2074075Y1646798*
X2074099Y1646816*
X2074280Y1646876*
X2074283Y1646877*
X2074524Y1646937*
X2074536Y1646939*
X2074957*
X2075007Y1646889*
Y1645015*
X2075508*
Y1649483*
X2075007Y1648992D02*
Y1647430D01*
X2074957Y1647380*
X2074295*
X2074287*
X2073926Y1647440*
X2073909Y1647447*
X2073608Y1647627*
X2073594Y1647640*
X2073414Y1647880*
X2073405Y1647902*
X2073344Y1648263*
Y1648271*
X2073345Y1648281*
X2073405Y1648581*
X2073414Y1648602*
X2073594Y1648842*
X2073612Y1648857*
X2073852Y1648977*
X2073868Y1648982*
X2074288Y1649042*
X2074295*
X2074957*
X2075007Y1648992*
X2071849Y1599895D02*
X2071780Y1600579D01*
X2071712Y1601126*
X2071509Y1601668*
X2071237Y1602076*
X2070966Y1602414*
X2070564Y1602682*
X2070159Y1602817*
X2069755Y1602884*
X2069216Y1602817*
X2068908Y1602694*
Y1602244*
X2069257Y1602360*
X2069264Y1602362*
X2069679Y1602431*
X2069697*
X2070043Y1602362*
X2070045Y1602361*
X2070321Y1602292*
X2070339Y1602284*
X2070616Y1602076*
X2070626Y1602066*
X2070833Y1601790*
X2070838Y1601782*
X2071183Y1601091*
X2071188Y1601076*
X2071326Y1600178*
X2071277Y1600120*
X2071208*
X2071165Y1600144*
X2070963Y1600482*
X2070699Y1600679*
X2070364Y1600813*
X2070033Y1600879*
X2069431Y1600746*
X2068963Y1600411*
X2068630Y1599944*
X2068562Y1599274*
X2068697Y1598599*
X2069032Y1598064*
X2069568Y1597729*
X2070172Y1597594*
X2070577Y1597662*
X2070910Y1597728*
X2071172Y1597925*
X2071372Y1598191*
X2071712Y1598940*
X2071849Y1599895*
X2071258Y1599341D02*
X2071257Y1599334D01*
X2071188Y1598850*
X2071183Y1598834*
X2070976Y1598420*
X2070963Y1598403*
X2070617Y1598126*
X2070594Y1598116*
X2070179Y1598047*
X2070163*
X2069748Y1598116*
X2069721Y1598130*
X2069444Y1598407*
X2069437Y1598416*
X2069229Y1598762*
X2069223Y1598779*
X2069154Y1599194*
X2069153Y1599202*
X2069154Y1599209*
X2069223Y1599693*
X2069228Y1599709*
X2069435Y1600123*
X2069450Y1600141*
X2069726Y1600348*
X2069748Y1600358*
X2070163Y1600427*
X2070179*
X2070594Y1600358*
X2070611Y1600351*
X2070957Y1600144*
X2070974Y1600127*
X2071182Y1599781*
X2071188Y1599764*
X2071257Y1599349*
X2071258Y1599341*
X2072202Y1644374D02*
X2069597D01*
Y1644114*
X2072202*
Y1644374*
X2069256Y1647724D02*
X2069138Y1648198D01*
X2069019Y1648613*
X2068845Y1648963*
X2068612Y1649195*
X2068380Y1649369*
X2068091Y1649485*
X2067744Y1649543*
X2067392Y1649484*
X2067107Y1649427*
X2066641Y1648961*
X2066469Y1648675*
X2066411Y1648264*
X2066410Y1648259*
X2066291Y1647784*
Y1646714*
X2066409Y1646241*
X2066528Y1645886*
X2066703Y1645536*
X2067167Y1645071*
X2067452Y1645014*
X2067804Y1644956*
X2068155Y1645014*
X2068444Y1645072*
X2068670Y1645242*
X2068902Y1645532*
X2069019Y1645824*
X2069138Y1646181*
X2069256Y1646654*
Y1647724*
X2068755Y1647189D02*
Y1647185D01*
X2068695Y1646404*
X2068693Y1646393*
X2068513Y1645792*
X2068500Y1645771*
X2068200Y1645471*
X2068178Y1645458*
X2067757Y1645338*
X2067728*
X2067367Y1645459*
X2067345Y1645474*
X2067044Y1645835*
X2067035Y1645851*
X2066855Y1646392*
X2066852Y1646404*
X2066792Y1647185*
Y1647189*
Y1647193*
X2066852Y1648034*
X2066854Y1648045*
X2067035Y1648646*
X2067041Y1648659*
X2067281Y1649020*
X2067309Y1649040*
X2067730Y1649161*
X2067757*
X2068178Y1649040*
X2068203Y1649024*
X2068503Y1648664*
X2068513Y1648646*
X2068693Y1648045*
X2068695Y1648034*
X2068755Y1647193*
Y1647189*
X2065710Y1647724D02*
X2065592Y1648198D01*
X2065473Y1648613*
X2065298Y1648963*
X2065066Y1649195*
X2064834Y1649369*
X2064544Y1649485*
X2064197Y1649543*
X2063846Y1649484*
X2063561Y1649427*
X2063095Y1648961*
X2062923Y1648675*
X2062864Y1648264*
X2062863Y1648259*
X2062745Y1647784*
Y1646714*
X2062863Y1646241*
X2062981Y1645886*
X2063157Y1645536*
X2063621Y1645071*
X2063906Y1645014*
X2064257Y1644956*
X2064609Y1645014*
X2064898Y1645072*
X2065124Y1645242*
X2065356Y1645532*
X2065473Y1645824*
X2065592Y1646181*
X2065710Y1646654*
Y1647724*
X2065209Y1647189D02*
Y1647185D01*
X2065149Y1646404*
X2065147Y1646393*
X2064967Y1645792*
X2064954Y1645771*
X2064653Y1645471*
X2064632Y1645458*
X2064211Y1645338*
X2064182*
X2063821Y1645459*
X2063798Y1645474*
X2063498Y1645835*
X2063489Y1645851*
X2063308Y1646392*
X2063306Y1646404*
X2063246Y1647185*
Y1647189*
Y1647193*
X2063306Y1648034*
X2063308Y1648045*
X2063488Y1648646*
X2063495Y1648659*
X2063735Y1649020*
X2063763Y1649040*
X2064184Y1649161*
X2064211*
X2064632Y1649040*
X2064657Y1649024*
X2064957Y1648664*
X2064967Y1648646*
X2065147Y1648045*
X2065149Y1648034*
X2065209Y1647193*
Y1647189*
X2061863Y1649075D02*
X2060340Y1649526D01*
Y1645446*
X2060290Y1645396*
X2059319*
Y1645015*
X2061863*
Y1645396*
X2060891*
X2060841Y1645446*
Y1648872*
X2060906Y1648920*
X2061863Y1648638*
Y1649075*
X2055069Y1586057D02*
X2055011Y1586523D01*
X2054848Y1586848*
X2054474*
X2054625Y1586497*
X2054628Y1586484*
X2054688Y1586064*
X2054689Y1586057*
Y1585756*
X2054684Y1585734*
X2054563Y1585493*
X2054557Y1585483*
X2054196Y1585062*
X2054178Y1585049*
X2053637Y1584809*
X2053625Y1584805*
X2052843Y1584685*
X2052786Y1584734*
Y1584794*
X2052806Y1584834*
X2053043Y1585012*
X2053210Y1585180*
X2053267Y1585464*
X2053326Y1585814*
X2053209Y1586279*
X2052979Y1586741*
X2052518Y1586971*
X2051993Y1587087*
X2051351Y1586971*
X2050888Y1586681*
X2050599Y1586218*
X2050482Y1585636*
X2050598Y1585056*
X2050770Y1584827*
X2051000Y1584597*
X2051649Y1584361*
X2052061Y1584243*
X2053130*
X2053602Y1584361*
X2054078Y1584540*
X2054429Y1584715*
X2054719Y1585006*
X2054894Y1585296*
X2055011Y1585647*
X2055069Y1586057*
X2052946Y1585636D02*
X2052945Y1585626D01*
X2052885Y1585325*
X2052879Y1585310*
X2052698Y1585009*
X2052681Y1584992*
X2052381Y1584812*
X2052365Y1584805*
X2052064Y1584745*
X2052047*
X2051626Y1584805*
X2051614Y1584808*
X2051193Y1584989*
X2051174Y1585003*
X2050933Y1585304*
X2050923Y1585327*
X2050863Y1585688*
X2050862Y1585696*
X2050863Y1585706*
X2050923Y1586006*
X2050933Y1586028*
X2051174Y1586328*
X2051187Y1586340*
X2051488Y1586520*
X2051505Y1586527*
X2051866Y1586587*
X2051881*
X2052302Y1586527*
X2052317Y1586522*
X2052678Y1586342*
X2052698Y1586323*
X2052879Y1586022*
X2052885Y1586005*
X2052945Y1585644*
X2052946Y1585636*
X2055010Y1590394D02*
X2054629D01*
Y1589423*
X2054579Y1589373*
X2051153*
X2051105Y1589437*
X2051386Y1590394*
X2050950*
X2050498Y1588871*
X2054579*
X2054629Y1588821*
Y1587850*
X2055010*
Y1590394*
Y1594241D02*
X2050541D01*
Y1592911*
X2050600Y1592382*
X2050830Y1591923*
X2051232Y1591693*
X2051697Y1591577*
X2052158Y1591635*
X2052444Y1591806*
X2052733Y1592095*
X2052909Y1592566*
X2052997Y1592576*
X2053232Y1592223*
X2053404Y1592109*
X2053408Y1592106*
X2053706Y1591868*
X2055010Y1591074*
Y1591678*
X2053773Y1592384*
X2053766Y1592389*
X2053466Y1592629*
X2053226Y1592809*
X2053209Y1592833*
X2053149Y1593013*
X2053148Y1593017*
X2053088Y1593257*
X2053086Y1593269*
Y1593690*
X2053136Y1593740*
X2055010*
Y1594241*
X2052645Y1593690D02*
Y1593029D01*
Y1593021*
X2052584Y1592660*
X2052578Y1592643*
X2052398Y1592342*
X2052385Y1592328*
X2052144Y1592147*
X2052123Y1592138*
X2051762Y1592078*
X2051744*
X2051443Y1592138*
X2051423Y1592147*
X2051183Y1592328*
X2051168Y1592345*
X2051048Y1592586*
X2051043Y1592601*
X2050983Y1593022*
X2050982Y1593029*
Y1593690*
X2051032Y1593740*
X2052595*
X2052645Y1593690*
X2058775Y1645015D02*
X2057070Y1649483D01*
X2056538*
X2054833Y1645015*
X2055388*
X2055856Y1646186*
X2055903Y1646217*
X2057766*
X2057813Y1646184*
X2058222Y1645015*
X2058775*
X2057586Y1646658D02*
X2056023D01*
X2055976Y1646726*
X2056694Y1648641*
Y1648752*
X2056697Y1648768*
X2056757Y1648948*
X2056851Y1648951*
X2056971Y1648650*
X2056972Y1648648*
X2057633Y1646725*
X2057586Y1646658*
X2054650Y1644374D02*
X2052046D01*
Y1644114*
X2054650*
Y1644374*
X2051864Y1649483D02*
X2051310D01*
X2050060Y1645972*
X2049940Y1645552*
X2049842Y1645559*
X2049783Y1645975*
X2048534Y1649483*
X2048039*
X2049627Y1645015*
X2050218*
X2051864Y1649483*
X2047918Y1586522D02*
X2043901Y1584808D01*
X2043831Y1584854*
Y1587149*
X2043450*
Y1584243*
X2043571*
X2047918Y1586030*
Y1586522*
Y1590394D02*
X2047538D01*
Y1589423*
X2047488Y1589373*
X2044062*
X2044014Y1589437*
X2044295Y1590394*
X2043858*
X2043407Y1588871*
X2047488*
X2047538Y1588821*
Y1587850*
X2047918*
Y1590394*
Y1594241D02*
X2043450D01*
Y1592911*
X2043509Y1592382*
X2043739Y1591923*
X2044140Y1591693*
X2044606Y1591577*
X2045067Y1591635*
X2045353Y1591806*
X2045641Y1592095*
X2045818Y1592566*
X2045906Y1592576*
X2046141Y1592223*
X2046313Y1592109*
X2046317Y1592106*
X2046615Y1591868*
X2047918Y1591074*
Y1591678*
X2046681Y1592384*
X2046675Y1592389*
X2046375Y1592629*
X2046135Y1592809*
X2046118Y1592833*
X2046058Y1593013*
X2046057Y1593017*
X2045997Y1593257*
X2045995Y1593269*
Y1593690*
X2046045Y1593740*
X2047918*
Y1594241*
X2045554Y1593690D02*
Y1593029D01*
X2045553Y1593021*
X2045493Y1592660*
X2045487Y1592643*
X2045307Y1592342*
X2045294Y1592328*
X2045053Y1592147*
X2045031Y1592138*
X2044671Y1592078*
X2044653*
X2044352Y1592138*
X2044332Y1592147*
X2044092Y1592328*
X2044077Y1592345*
X2043957Y1592586*
X2043952Y1592601*
X2043892Y1593022*
X2043891Y1593029*
Y1593690*
X2043941Y1593740*
X2045504*
X2045554Y1593690*
X2047618Y1647724D02*
X2047499Y1648198D01*
X2047381Y1648613*
X2047206Y1648963*
X2046974Y1649195*
X2046742Y1649369*
X2046452Y1649485*
X2046105Y1649543*
X2045754Y1649484*
X2045469Y1649427*
X2045003Y1648961*
X2044831Y1648675*
X2044772Y1648264*
X2044771Y1648259*
X2044652Y1647784*
Y1646714*
X2044771Y1646241*
X2044889Y1645886*
X2045064Y1645536*
X2045529Y1645071*
X2045814Y1645014*
X2046165Y1644956*
X2046517Y1645014*
X2046806Y1645072*
X2047032Y1645242*
X2047264Y1645532*
X2047381Y1645824*
X2047500Y1646181*
X2047618Y1646654*
Y1647724*
X2047117Y1647189D02*
Y1647185D01*
X2047057Y1646404*
X2047055Y1646393*
X2046874Y1645792*
X2046862Y1645771*
X2046561Y1645471*
X2046540Y1645458*
X2046119Y1645338*
X2046089*
X2045729Y1645459*
X2045706Y1645474*
X2045406Y1645835*
X2045397Y1645851*
X2045216Y1646392*
X2045214Y1646404*
X2045154Y1647185*
Y1647189*
Y1647193*
X2045214Y1648034*
X2045216Y1648045*
X2045396Y1648646*
X2045402Y1648659*
X2045643Y1649020*
X2045671Y1649040*
X2046091Y1649161*
X2046119*
X2046540Y1649040*
X2046564Y1649024*
X2046865Y1648664*
X2046874Y1648646*
X2047055Y1648045*
X2047057Y1648034*
X2047117Y1647193*
Y1647189*
X2043891Y1645656D02*
X2043487Y1645404D01*
X2043465Y1645396*
X2042864Y1645336*
X2042852*
X2042432Y1645397*
X2042413Y1645403*
X2042112Y1645583*
X2042103Y1645591*
X2041862Y1645831*
X2041848Y1645859*
X2041788Y1646219*
Y1646236*
X2041848Y1646596*
X2041862Y1646623*
X2042103Y1646864*
X2042118Y1646874*
X2042539Y1647055*
X2042553Y1647058*
X2043094Y1647119*
X2043100*
X2043410*
Y1647500*
X2043100*
X2043094*
X2042613Y1647560*
X2042603Y1647562*
X2042243Y1647683*
X2042215Y1647704*
X2042035Y1648005*
X2042029Y1648021*
X2041969Y1648321*
X2041968Y1648331*
X2041969Y1648339*
X2042029Y1648700*
X2042033Y1648714*
X2042153Y1648955*
X2042180Y1648979*
X2042480Y1649099*
X2042491Y1649102*
X2042851Y1649162*
X2042866*
X2043346Y1649102*
X2043365Y1649096*
X2043711Y1648898*
Y1649262*
X2043266Y1649485*
X2042739Y1649543*
X2042214Y1649485*
X2041810Y1649254*
X2041524Y1648911*
X2041467Y1648511*
X2041525Y1648106*
X2041697Y1647762*
X2041982Y1647534*
X2042334Y1647417*
X2042368Y1647369*
Y1647309*
X2042332Y1647261*
X2041916Y1647142*
X2041571Y1646970*
X2041345Y1646630*
X2041287Y1646229*
X2041403Y1645707*
X2041691Y1645304*
X2042213Y1645014*
X2042859Y1644955*
X2043444Y1645014*
X2043891Y1645293*
Y1645656*
X2037735Y1578376D02*
X2037676Y1578848D01*
X2037557Y1579322*
X2037381Y1579732*
X2037088Y1580084*
X2036737Y1580377*
X2036326Y1580553*
X2035912Y1580671*
X2035440Y1580730*
X2034851Y1580671*
X2034409Y1580505*
Y1580068*
X2034884Y1580227*
X2034894Y1580229*
X2035435Y1580289*
X2035449*
X2036170Y1580168*
X2036170D02*
X2036188Y1580162D01*
X2036489Y1579982*
X2036493Y1579979*
X2036733Y1579799*
X2036746Y1579784*
X2037107Y1579183*
X2037113Y1579166*
X2037173Y1578805*
Y1578804*
X2037234Y1578383*
Y1578376*
X2037233Y1578368*
X2037113Y1577647*
X2037105Y1577627*
X2036745Y1577086*
X2036733Y1577074*
X2036252Y1576713*
X2036241Y1576707*
X2035940Y1576587*
X2035922Y1576583*
X2035561*
X2035557*
X2034895Y1576643*
X2034880Y1576647*
X2034409Y1576857*
Y1576425*
X2034913Y1576201*
X2035620Y1576142*
X2036092Y1576201*
X2036505Y1576319*
X2036856Y1576495*
X2037147Y1576727*
X2037381Y1577079*
X2037558Y1577433*
X2037676Y1577845*
X2037735Y1578376*
Y1583295D02*
X2037676Y1583767D01*
X2037557Y1584241*
X2037381Y1584651*
X2037088Y1585003*
X2036737Y1585296*
X2036326Y1585472*
X2035912Y1585590*
X2035440Y1585649*
X2034851Y1585590*
X2034409Y1585424*
Y1584987*
X2034884Y1585146*
X2034894Y1585148*
X2035435Y1585208*
X2035449*
X2036170Y1585088*
X2036188Y1585081*
X2036489Y1584901*
X2036493Y1584898*
X2036733Y1584718*
X2036746Y1584703*
X2037107Y1584102*
X2037113Y1584085*
X2037173Y1583724*
Y1583723*
X2037234Y1583302*
Y1583295*
X2037233Y1583287*
X2037113Y1582566*
X2037105Y1582546*
X2036745Y1582005*
X2036733Y1581993*
X2036252Y1581632*
X2036241Y1581626*
X2035940Y1581506*
X2035922Y1581502*
X2035561*
X2035557*
X2034895Y1581562*
X2034880Y1581567*
X2034409Y1581776*
Y1581344*
X2034913Y1581120*
X2035620Y1581061*
X2036092Y1581120*
X2036505Y1581238*
X2036856Y1581414*
X2037147Y1581646*
X2037381Y1581998*
X2037558Y1582352*
X2037676Y1582764*
X2037735Y1583295*
Y1588895D02*
X2037676Y1589367D01*
X2037557Y1589841*
X2037381Y1590252*
X2037088Y1590603*
X2036737Y1590896*
X2036326Y1591072*
X2035912Y1591191*
X2035440Y1591249*
X2034851Y1591191*
X2034409Y1591025*
Y1590588*
X2034884Y1590746*
X2034894Y1590748*
X2035435Y1590809*
X2035449Y1590808*
X2036170Y1590688*
X2036188Y1590681*
X2036489Y1590501*
X2036493Y1590498*
X2036733Y1590318*
X2036746Y1590304*
X2037107Y1589703*
X2037113Y1589685*
X2037173Y1589324*
Y1589323*
X2037234Y1588903*
Y1588896*
X2037233Y1588887*
X2037113Y1588166*
X2037105Y1588146*
X2036745Y1587606*
X2036733Y1587593*
X2036252Y1587233*
X2036241Y1587226*
X2035940Y1587106*
X2035922Y1587102*
X2035561*
X2035557Y1587103*
X2034895Y1587163*
X2034880Y1587167*
X2034409Y1587376*
Y1586944*
X2034913Y1586721*
X2035620Y1586662*
X2036092Y1586721*
X2036505Y1586839*
X2036856Y1587014*
X2037147Y1587247*
X2037381Y1587598*
X2037558Y1587952*
X2037676Y1588364*
X2037735Y1588895*
X2033588Y1576843D02*
X2033183Y1576591D01*
X2033162Y1576583*
X2032561Y1576523*
X2032549*
X2032128Y1576583*
X2032109Y1576590*
X2031809Y1576770*
X2031799Y1576778*
X2031559Y1577018*
X2031545Y1577046*
X2031545D02*
X2031485Y1577406D01*
Y1577423*
X2031545Y1577783*
X2031559Y1577810*
X2031799Y1578051*
X2031815Y1578061*
X2032236Y1578242*
X2032250Y1578245*
X2032791Y1578306*
X2032796*
X2033107*
Y1578687*
X2032796*
X2032790*
X2032309Y1578747*
X2032300Y1578749*
X2031939Y1578870*
X2031912Y1578891*
X2031732Y1579192*
X2031725Y1579208*
X2031665Y1579508*
X2031664Y1579518*
X2031665Y1579526*
X2031725Y1579887*
X2031730Y1579901*
X2031850Y1580142*
X2031876Y1580166*
X2032177Y1580286*
X2032187Y1580289*
X2032548Y1580349*
X2032562*
X2033043Y1580289*
X2033062Y1580283*
X2033407Y1580085*
Y1580449*
X2032962Y1580672*
X2032436Y1580730*
X2031910Y1580672*
X2031507Y1580441*
X2031221Y1580098*
X2031164Y1579698*
X2031222Y1579293*
X2031394Y1578949*
X2031679Y1578721*
X2032031Y1578604*
X2032065Y1578556*
Y1578496*
X2032029Y1578448*
X2031612Y1578329*
X2031268Y1578157*
X2031041Y1577817*
X2030984Y1577416*
X2031100Y1576894*
X2031388Y1576491*
X2031910Y1576201*
X2032556Y1576142*
X2033140Y1576201*
X2033588Y1576480*
Y1576843*
X2033468Y1581712D02*
X2033059Y1581507D01*
X2033043Y1581503*
X2032562Y1581442*
X2032549Y1581443*
X2032128Y1581503*
X2032109Y1581509*
X2031809Y1581690*
X2031796Y1581701*
X2031555Y1582002*
X2031545Y1582026*
X2031485Y1582447*
X2031484Y1582454*
X2031485Y1582462*
X2031545Y1582823*
X2031555Y1582846*
X2031796Y1583146*
X2031812Y1583160*
X2032173Y1583340*
X2032189Y1583345*
X2032670Y1583405*
X2032676*
X2032977*
X2032984*
X2033347Y1583353*
Y1585589*
X2031163*
Y1585209*
X2032796*
X2032846Y1585159*
Y1583836*
X2032796Y1583786*
X2032440*
X2031790Y1583668*
X2031329Y1583438*
X2031329D02*
X2031101Y1583037D01*
X2030984Y1582454*
X2031100Y1581873*
X2031388Y1581470*
X2031912Y1581179*
X2032558Y1581062*
X2033081Y1581120*
X2033468Y1581341*
Y1581712*
X2033948Y1588219D02*
X2031988Y1591190D01*
X2031344*
Y1588294*
X2031294Y1588244*
X2030743*
Y1587864*
X2031294*
X2031344Y1587814*
Y1586722*
X2031845*
Y1587814*
X2031895Y1587864*
X2033948*
Y1588219*
X2033397Y1588244D02*
X2031895D01*
X2031845Y1588294*
Y1590699*
X2031942Y1590715*
X2032000Y1590541*
X2032117Y1590366*
X2033439Y1588322*
X2033397Y1588244*
X2035807Y1642220D02*
X2035748Y1642692D01*
X2035630Y1643166*
X2035454Y1643576*
X2035161Y1643928*
X2034809Y1644221*
X2034398Y1644397*
X2033984Y1644515*
X2033513Y1644574*
X2032924Y1644515*
X2032481Y1644349*
Y1643913*
X2032957Y1644071*
X2032967Y1644073*
X2033508Y1644133*
X2033522*
X2034243Y1644013*
X2034260Y1644006*
X2034561Y1643826*
X2034565Y1643823*
X2034806Y1643643*
X2034818Y1643628*
X2035179Y1643027*
X2035185Y1643010*
X2035246Y1642649*
Y1642648*
X2035306Y1642227*
Y1642220*
Y1642212*
X2035185Y1641491*
X2035178Y1641471*
X2034817Y1640930*
X2034806Y1640918*
X2034325Y1640557*
X2034313Y1640551*
X2034013Y1640431*
X2033994Y1640427*
X2033634*
X2033634D02*
X2033629D01*
X2032968Y1640487*
X2032952Y1640492*
X2032481Y1640701*
Y1640269*
X2032985Y1640045*
X2033693Y1639986*
X2034164Y1640045*
X2034577Y1640163*
X2034929Y1640339*
X2035219Y1640571*
X2035453Y1640923*
X2035630Y1641277*
X2035748Y1641689*
X2035807Y1642220*
X2031540Y1644106D02*
X2030017Y1644558D01*
Y1640477*
X2029967Y1640427*
X2028995*
Y1640046*
X2031540*
Y1640427*
X2030568*
X2030518Y1640477*
Y1643903*
X2030582Y1643951*
X2031540Y1643670*
Y1644106*
X2028474Y1641544D02*
X2026514Y1644514D01*
X2025870*
Y1641619*
X2025820Y1641569*
X2025269*
Y1641188*
X2025820*
X2025870Y1641138*
Y1640046*
X2026371*
Y1641138*
X2026421Y1641188*
X2028474*
Y1641544*
X2027923Y1641569D02*
X2026421D01*
X2026371Y1641619*
Y1644023*
X2026468Y1644039*
X2026526Y1643865*
X2026643Y1643691*
X2027965Y1641646*
X2027923Y1641569*
X2027898Y1653538D02*
X2027488D01*
X2025700Y1651750*
X2025696Y1651747*
X2025336Y1651446*
X2025320Y1651437*
X2024959Y1651317*
X2024953Y1651315*
X2024652Y1651255*
X2024634*
X2024274Y1651315*
X2024252Y1651324*
X2024011Y1651505*
X2024001Y1651515*
X2023821Y1651755*
X2023812Y1651777*
X2023752Y1652137*
X2023751Y1652146*
X2023752Y1652155*
X2023872Y1652757*
X2023878Y1652772*
X2024059Y1653073*
X2024063Y1653079*
X2024238Y1653298*
X2023885*
X2023662Y1653019*
X2023488Y1652729*
X2023430Y1652378*
X2023429Y1652376*
X2023371Y1652083*
X2023429Y1651503*
X2023718Y1651098*
X2024062Y1650811*
X2024582Y1650754*
X2024990Y1650812*
X2025399Y1650987*
X2025872Y1651342*
X2026410Y1651880*
X2027431Y1652961*
X2027518Y1652927*
Y1650813*
X2027898*
Y1653538*
Y1657145D02*
X2023430D01*
Y1655815*
X2023489Y1655286*
X2023719Y1654826*
X2024120Y1654597*
X2024586Y1654481*
X2025047Y1654538*
X2025333Y1654710*
X2025621Y1654998*
X2025798Y1655469*
X2025886Y1655479*
X2026121Y1655127*
X2026293Y1655012*
X2026297Y1655010*
X2026595Y1654771*
X2027898Y1653978*
Y1654581*
X2026661Y1655288*
X2026655Y1655292*
X2026355Y1655532*
X2026115Y1655712*
X2026098Y1655736*
X2026038Y1655917*
X2026037Y1655920*
X2025977Y1656161*
X2025975Y1656173*
Y1656594*
X2026025Y1656644*
X2027898*
Y1657145*
X2025534Y1656594D02*
Y1655932D01*
X2025533Y1655924*
X2025473Y1655564*
X2025467Y1655546*
X2025286Y1655246*
X2025286D02*
X2025274Y1655231D01*
X2025033Y1655051*
X2025011Y1655042*
X2024651Y1654982*
X2024651D02*
X2024633D01*
X2024332Y1655042*
X2024312Y1655051*
X2024072Y1655231*
X2024057Y1655249*
X2023937Y1655489*
X2023932Y1655505*
X2023872Y1655925*
X2023871Y1655932*
Y1656594*
X2023921Y1656644*
X2025484*
X2025534Y1656594*
X2023913Y1663626D02*
X2023412D01*
Y1660971*
Y1660966*
X2023352Y1660365*
X2023345Y1660345*
X2023105Y1659924*
X2023094Y1659911*
X2022733Y1659610*
X2022707Y1659599*
X2022226Y1659539*
X2022214*
X2021733Y1659599*
X2021708Y1659610*
X2021407Y1659850*
X2021395Y1659864*
X2021155Y1660285*
X2021149Y1660305*
X2021088Y1660906*
Y1660911*
Y1663626*
X2020587*
Y1660557*
X2020705Y1660144*
X2020822Y1659792*
X2020996Y1659561*
X2021226Y1659331*
X2021516Y1659215*
X2021868Y1659098*
X2022276*
X2022983Y1659215*
X2023505Y1659563*
X2023795Y1660086*
X2023913Y1660914*
Y1663626*
X2019646Y1659568D02*
X2017857Y1661356D01*
X2017854Y1661360*
X2017553Y1661720*
X2017544Y1661737*
X2017424Y1662097*
X2017423Y1662103*
X2017362Y1662404*
Y1662414*
Y1662422*
X2017422Y1662782*
X2017432Y1662804*
X2017612Y1663045*
X2017622Y1663055*
X2017862Y1663235*
X2017884Y1663244*
X2018245Y1663304*
X2018263*
X2018864Y1663184*
X2018880Y1663178*
X2019180Y1662997*
X2019186Y1662994*
X2019405Y1662818*
Y1663171*
X2019126Y1663394*
X2018837Y1663568*
X2018485Y1663627*
X2018484*
X2018190Y1663685*
X2017610Y1663627*
X2017205Y1663338*
X2016919Y1662994*
X2016861Y1662475*
X2016919Y1662067*
X2017094Y1661657*
X2017449Y1661184*
X2017987Y1660646*
X2019069Y1659625*
X2019034Y1659539*
X2016921*
Y1659158*
X2019646*
Y1659568*
X2015979Y1659799D02*
X2015575Y1659546D01*
X2015553Y1659539*
X2014952Y1659479*
X2014940*
X2014519Y1659539*
X2014501Y1659546*
X2014200Y1659726*
X2014190Y1659734*
X2013950Y1659974*
X2013936Y1660001*
X2013876Y1660362*
Y1660378*
X2013936Y1660739*
X2013950Y1660766*
X2014190Y1661006*
X2014206Y1661017*
X2014627Y1661197*
X2014641Y1661201*
X2015182Y1661261*
X2015188*
X2015498*
Y1661642*
X2015188*
X2015181Y1661643*
X2014701Y1661703*
X2014691Y1661705*
X2014330Y1661825*
X2014303Y1661847*
X2014123Y1662147*
X2014117Y1662163*
X2014057Y1662464*
X2014056Y1662474*
Y1662482*
X2014116Y1662843*
X2014121Y1662857*
X2014241Y1663097*
X2014267Y1663121*
X2014568Y1663241*
X2014578Y1663244*
X2014939Y1663304*
X2014953Y1663305*
X2015434Y1663245*
X2015453Y1663238*
X2015799Y1663041*
Y1663405*
X2015353Y1663627*
X2014827Y1663686*
X2014302Y1663627*
X2013898Y1663396*
X2013612Y1663054*
X2013555Y1662654*
X2013613Y1662248*
X2013785Y1661905*
X2014070Y1661677*
X2014422Y1661559*
X2014456Y1661512*
Y1661452*
X2014420Y1661404*
X2014004Y1661285*
X2013659Y1661113*
X2013432Y1660772*
X2013375Y1660372*
X2013491Y1659850*
X2013779Y1659446*
X2014301Y1659157*
X2014947Y1659098*
X2015532Y1659156*
X2015979Y1659436*
Y1659799*
X2008822Y1594418D02*
X2008321D01*
Y1591763*
Y1591758*
X2008261Y1591157*
X2008255Y1591137*
X2008014Y1590717*
X2008003Y1590703*
X2007642Y1590402*
X2007616Y1590391*
X2007136Y1590331*
X2007123*
X2006642Y1590391*
X2006617Y1590402*
X2006317Y1590642*
X2006305Y1590656*
X2006064Y1591077*
X2006058Y1591097*
X2005998Y1591698*
X2005997Y1591703*
Y1594418*
X2005496*
Y1591349*
X2005614Y1590936*
X2005732Y1590585*
X2005905Y1590353*
X2006136Y1590123*
X2006425Y1590007*
X2006777Y1589890*
X2007185*
X2007892Y1590008*
X2008414Y1590355*
X2008704Y1590878*
X2008822Y1591707*
Y1594418*
X2004555Y1590360D02*
X2002766Y1592149D01*
X2002763Y1592152*
X2002463Y1592513*
X2002454Y1592529*
X2002333Y1592889*
X2002332Y1592895*
X2002272Y1593196*
X2002271Y1593206*
Y1593214*
X2002332Y1593575*
X2002341Y1593596*
X2002521Y1593837*
X2002531Y1593847*
X2002772Y1594027*
X2002793Y1594036*
X2003154Y1594097*
X2003172Y1594096*
X2003773Y1593976*
X2003789Y1593970*
X2004090Y1593790*
X2004095Y1593786*
X2004314Y1593610*
Y1593963*
X2004035Y1594186*
X2003746Y1594360*
X2003395Y1594419*
X2003393*
X2003100Y1594478*
X2002519Y1594420*
X2002115Y1594130*
X2001828Y1593786*
X2001770Y1593267*
X2001828Y1592859*
X2002004Y1592450*
X2002359Y1591976*
X2002897Y1591438*
X2003978Y1590417*
X2003944Y1590331*
X2001830*
Y1589950*
X2004555*
Y1590360*
X1979705Y1558886D02*
X1978375D01*
X1977846Y1558827*
X1977387Y1558598*
X1977157Y1558196*
X1977041Y1557731*
X1977098Y1557270*
X1977098D02*
X1977270Y1556984D01*
X1977559Y1556695*
X1978029Y1556519*
X1978040Y1556430*
X1977687Y1556195*
X1977573Y1556023*
X1977570Y1556020*
X1977332Y1555722*
X1976538Y1554418*
X1977141*
X1977848Y1555655*
X1977853Y1555662*
X1978093Y1555961*
X1978272Y1556201*
X1978297Y1556219*
X1978477Y1556279*
X1978481Y1556280*
X1978721Y1556340*
X1978733Y1556341*
X1979154*
X1979204Y1556291*
Y1554418*
X1979705*
Y1558886*
X1979204Y1558395D02*
Y1556832D01*
X1979154Y1556782*
X1978493*
X1978485Y1556783*
X1978124Y1556843*
X1978106Y1556850*
X1977806Y1557030*
X1977792Y1557043*
X1977611Y1557283*
X1977602Y1557305*
X1977542Y1557666*
X1977541Y1557674*
X1977542Y1557684*
X1977602Y1557984*
X1977611Y1558004*
X1977792Y1558245*
X1977809Y1558260*
X1978050Y1558380*
X1978065Y1558385*
X1978486Y1558445*
X1978493*
X1979154*
X1979204Y1558395*
X1976099Y1554828D02*
X1974310Y1556617D01*
X1974307Y1556620*
X1974006Y1556981*
X1973997Y1556997*
X1973877Y1557358*
X1973876Y1557364*
X1973815Y1557664*
Y1557674*
Y1557682*
X1973875Y1558043*
X1973885Y1558065*
X1974065Y1558305*
X1974075Y1558315*
X1974315Y1558495*
X1974337Y1558505*
X1974698Y1558565*
X1974716Y1558564*
X1975317Y1558444*
X1975333Y1558438*
X1975633Y1558258*
X1975639Y1558254*
X1975858Y1558078*
X1975858D02*
Y1558431D01*
X1975579Y1558655*
X1975290Y1558828*
X1974938Y1558887*
X1974937*
X1974643Y1558946*
X1974063Y1558888*
X1973658Y1558599*
X1973372Y1558255*
X1973314Y1557735*
X1973372Y1557327*
X1973547Y1556918*
X1973902Y1556445*
X1974440Y1555907*
X1975522Y1554885*
X1975487Y1554799*
X1973374*
Y1554418*
X1976099*
Y1554828*
X1975820Y1566981D02*
X1975704Y1567562D01*
X1975416Y1567964*
X1974893Y1568256*
X1974247Y1568373*
X1973723Y1568315*
X1973337Y1568094*
Y1567723*
X1973745Y1567927*
X1973761Y1567932*
X1974242Y1567992*
X1974255*
X1974676Y1567932*
X1974695Y1567925*
X1974995Y1567745*
X1975009Y1567733*
X1975249Y1567433*
X1975260Y1567409*
X1975320Y1566988*
Y1566981*
Y1566973*
X1975259Y1566612*
X1975249Y1566589*
X1975009Y1566288*
X1974992Y1566275*
X1974631Y1566095*
X1974615Y1566090*
X1974134Y1566030*
X1974128Y1566029*
X1973828*
X1973821Y1566030*
X1973457Y1566082*
Y1563845*
X1975641*
Y1564226*
X1974008*
X1973958Y1564276*
Y1565598*
X1974008Y1565648*
X1974364*
X1975014Y1565767*
X1975475Y1565997*
X1975704Y1566398*
X1975820Y1566981*
X1972612Y1557127D02*
X1972494Y1557601D01*
X1972375Y1558016*
X1972201Y1558366*
X1971968Y1558598*
X1971736Y1558772*
X1971447Y1558888*
X1971100Y1558946*
X1970748Y1558887*
X1970463Y1558830*
X1969997Y1558364*
X1969825Y1558078*
X1969767Y1557667*
X1969766Y1557662*
X1969647Y1557187*
Y1556117*
X1969765Y1555644*
X1969884Y1555289*
X1970059Y1554939*
X1970523Y1554474*
X1970808Y1554417*
X1971160Y1554359*
X1971511Y1554417*
X1971800Y1554475*
X1972026Y1554645*
X1972258Y1554934*
X1972375Y1555227*
X1972494Y1555584*
X1972612Y1556057*
Y1557127*
X1972111Y1556592D02*
Y1556588D01*
X1972051Y1555807*
X1972049Y1555796*
X1971869Y1555195*
X1971856Y1555174*
X1971556Y1554874*
X1971534Y1554861*
X1971113Y1554741*
X1971084*
X1970723Y1554862*
X1970701Y1554877*
X1970400Y1555238*
X1970391Y1555254*
X1970211Y1555795*
X1970208Y1555807*
X1970148Y1556588*
Y1556592*
Y1556596*
X1970208Y1557437*
X1970210Y1557448*
X1970391Y1558049*
X1970397Y1558062*
X1970637Y1558423*
X1970665Y1558443*
X1971086Y1558564*
X1971113*
X1971534Y1558443*
X1971559Y1558427*
X1971859Y1558067*
X1971869Y1558049*
X1972049Y1557448*
X1972051Y1557437*
X1972111Y1556596*
Y1556592*
X1972335Y1564997D02*
X1972276Y1565405D01*
X1972101Y1565814*
X1971746Y1566287*
X1971208Y1566825*
X1970127Y1567846*
X1970161Y1567933*
X1972275*
Y1568313*
X1969550*
Y1567903*
X1971339Y1566115*
X1971342Y1566111*
X1971642Y1565751*
X1971651Y1565734*
X1971771Y1565374*
X1971773Y1565368*
X1971833Y1565067*
X1971834Y1565057*
X1971833Y1565049*
X1971773Y1564689*
X1971764Y1564667*
X1971584Y1564426*
X1971574Y1564416*
X1971333Y1564236*
X1971311Y1564227*
X1970951Y1564167*
X1970933*
X1970332Y1564287*
X1970316Y1564293*
X1970015Y1564474*
X1970010Y1564477*
X1969790Y1564653*
Y1564300*
X1970070Y1564077*
X1970359Y1563903*
X1970710Y1563845*
X1970712Y1563844*
X1971005Y1563786*
X1971585Y1563844*
X1971990Y1564133*
X1972277Y1564477*
X1972335Y1564997*
X1972796Y1587030D02*
X1972737Y1587502D01*
X1972618Y1587976*
X1972443Y1588386*
X1972150Y1588738*
X1971798Y1589031*
X1971387Y1589207*
X1970973Y1589325*
X1970502Y1589384*
X1969913Y1589325*
X1969470Y1589160*
Y1588723*
X1969945Y1588881*
X1969956Y1588883*
X1970497Y1588943*
X1970510*
X1971232Y1588823*
X1971249Y1588816*
X1971550Y1588636*
X1971554Y1588633*
X1971794Y1588453*
X1971807Y1588439*
X1972168Y1587837*
X1972174Y1587820*
X1972234Y1587459*
X1972235Y1587458*
X1972295Y1587037*
Y1587030*
Y1587022*
X1972174Y1586301*
X1972167Y1586281*
X1971806Y1585740*
X1971794Y1585728*
X1971314Y1585367*
X1971302Y1585361*
X1971002Y1585241*
X1970983Y1585237*
X1970622*
X1970618*
X1969957Y1585298*
X1969941Y1585302*
X1969470Y1585511*
Y1585079*
X1969974Y1584856*
X1970681Y1584797*
X1971153Y1584856*
X1971566Y1584973*
X1971918Y1585149*
X1972208Y1585382*
X1972442Y1585733*
X1972619Y1586087*
X1972737Y1586499*
X1972796Y1587030*
X1968849Y1568090D02*
X1968345Y1568314D01*
X1967638Y1568373*
X1967166Y1568314*
X1966753Y1568196*
X1966401Y1568020*
X1966111Y1567788*
X1965877Y1567437*
X1965700Y1567083*
X1965582Y1566671*
X1965523Y1566140*
X1965582Y1565668*
X1965701Y1565194*
X1965877Y1564783*
X1966169Y1564432*
X1966521Y1564139*
X1966932Y1563963*
X1967346Y1563844*
X1967818Y1563785*
X1968407Y1563844*
X1968849Y1564010*
Y1564447*
X1968374Y1564289*
X1968363Y1564287*
X1967822Y1564226*
X1967809Y1564227*
X1967087Y1564347*
X1967070Y1564353*
X1966769Y1564534*
X1966765Y1564537*
X1966525Y1564717*
X1966512Y1564731*
X1966151Y1565332*
X1966145Y1565350*
X1966085Y1565710*
X1966084Y1565712*
X1966024Y1566132*
Y1566139*
X1966025Y1566148*
X1966145Y1566869*
X1966152Y1566888*
X1966513Y1567429*
X1966525Y1567442*
X1967006Y1567802*
X1967017Y1567809*
X1967318Y1567929*
X1967336Y1567933*
X1967697*
X1967701Y1567932*
X1968362Y1567872*
X1968378Y1567868*
X1968849Y1567659*
Y1568090*
X1968768Y1585950D02*
X1968711Y1586293D01*
X1968538Y1586640*
X1968248Y1586930*
X1967833Y1587167*
X1967832Y1587254*
X1968127Y1587431*
X1968416Y1587720*
X1968531Y1588006*
X1968588Y1588291*
X1968472Y1588753*
X1968244Y1589095*
X1967783Y1589326*
X1967316Y1589384*
X1966793Y1589326*
X1966449Y1589097*
X1966162Y1588752*
X1966105Y1588353*
X1966163Y1588006*
X1966276Y1587722*
X1966565Y1587492*
X1966923Y1587252*
X1966918Y1587166*
X1966442Y1586928*
X1966154Y1586698*
X1965982Y1586354*
X1965925Y1586010*
X1966041Y1585488*
X1966328Y1585086*
X1966789Y1584855*
X1967436Y1584797*
X1967963Y1584855*
X1968423Y1585085*
X1968652Y1585486*
X1968768Y1585950*
X1968086Y1588280D02*
X1968026Y1588040D01*
X1968022Y1588030*
X1967902Y1587789*
X1967887Y1587772*
X1967647Y1587591*
X1967643Y1587589*
X1967342Y1587408*
X1967291*
X1966990Y1587589*
X1966981Y1587596*
X1966800Y1587776*
X1966791Y1587789*
X1966671Y1588030*
X1966667Y1588040*
X1966607Y1588280*
X1966606Y1588302*
X1966666Y1588603*
X1966674Y1588621*
X1966794Y1588801*
X1966813Y1588818*
X1967054Y1588938*
X1967064Y1588942*
X1967304Y1589002*
X1967326Y1589003*
X1967627Y1588943*
X1967639Y1588938*
X1967880Y1588818*
X1967902Y1588796*
X1968022Y1588555*
X1968026Y1588545*
X1968086Y1588305*
Y1588280*
X1968267Y1585939D02*
X1968207Y1585638D01*
X1968198Y1585618*
X1968018Y1585377*
X1967996Y1585361*
X1967696Y1585241*
X1967685Y1585238*
X1967325Y1585178*
X1967307*
X1967006Y1585238*
X1966997Y1585241*
X1966697Y1585361*
X1966675Y1585377*
X1966495Y1585618*
X1966486Y1585638*
X1966426Y1585939*
Y1585958*
X1966486Y1586259*
X1966492Y1586275*
X1966673Y1586575*
X1966685Y1586590*
X1966926Y1586770*
X1966936Y1586776*
X1967357Y1586956*
X1967399Y1586955*
X1967760Y1586775*
X1967767Y1586770*
X1968008Y1586590*
X1968021Y1586575*
X1968201Y1586275*
X1968207Y1586259*
X1968267Y1585958*
Y1585939*
X1970513Y1597801D02*
X1970011D01*
Y1595146*
Y1595141*
X1969951Y1594540*
X1969945Y1594520*
X1969704Y1594099*
X1969693Y1594086*
X1969332Y1593785*
X1969306Y1593774*
X1969306D02*
X1968826Y1593714D01*
X1968813*
X1968332Y1593774*
X1968307Y1593784*
X1968007Y1594025*
X1967995Y1594039*
X1967754Y1594460*
X1967748Y1594480*
X1967688Y1595081*
Y1595086*
Y1597801*
X1967186*
Y1594732*
X1967304Y1594319*
X1967422Y1593967*
X1967595Y1593736*
X1967826Y1593505*
X1968115Y1593390*
X1968467Y1593272*
X1968875*
X1969582Y1593390*
X1970104Y1593738*
X1970394Y1594260*
X1970513Y1595089*
Y1597801*
X1973895Y1651406D02*
X1973836Y1651990D01*
X1973557Y1652438*
X1973194*
X1973447Y1652033*
X1973454Y1652012*
X1973514Y1651411*
Y1651406*
Y1651399*
X1973454Y1650978*
X1973447Y1650959*
X1973267Y1650659*
X1973259Y1650649*
X1973019Y1650409*
X1972992Y1650395*
X1972631Y1650335*
X1972615*
X1972254Y1650395*
X1972227Y1650409*
X1971986Y1650649*
X1971976Y1650665*
X1971795Y1651086*
X1971792Y1651100*
X1971732Y1651641*
X1971731Y1651646*
Y1651957*
X1971350*
Y1651646*
Y1651640*
X1971290Y1651159*
X1971288Y1651150*
X1971168Y1650789*
X1971146Y1650762*
X1970845Y1650582*
X1970829Y1650575*
X1970529Y1650515*
X1970511*
X1970150Y1650575*
X1970136Y1650580*
X1969896Y1650700*
X1969872Y1650726*
X1969751Y1651027*
X1969748Y1651037*
X1969688Y1651398*
Y1651412*
X1969748Y1651893*
X1969754Y1651912*
X1969952Y1652257*
X1969588*
X1969366Y1651812*
X1969307Y1651286*
X1969365Y1650761*
X1969596Y1650357*
X1969939Y1650071*
X1970339Y1650014*
X1970744Y1650072*
X1971088Y1650244*
X1971316Y1650529*
X1971433Y1650881*
X1971481Y1650915*
X1971541*
X1971589Y1650879*
X1971708Y1650462*
X1971880Y1650118*
X1972220Y1649891*
X1972621Y1649834*
X1973143Y1649950*
X1973546Y1650238*
X1973836Y1650760*
X1973895Y1651406*
X1973835Y1655864D02*
X1973454D01*
Y1654892*
X1973404Y1654842*
X1969978*
X1969930Y1654906*
X1970212Y1655864*
X1969775*
X1969324Y1654341*
X1973404*
X1973454Y1654291*
Y1653319*
X1973835*
Y1655864*
X1973895Y1658017D02*
X1973836Y1658488D01*
X1973718Y1658901*
X1973542Y1659253*
X1973310Y1659543*
X1972958Y1659778*
X1972605Y1659954*
X1972192Y1660072*
X1971661Y1660131*
X1971189Y1660072*
X1970715Y1659954*
X1970305Y1659778*
X1969953Y1659485*
X1969660Y1659133*
X1969484Y1658722*
X1969366Y1658308*
X1969307Y1657837*
X1969366Y1657248*
X1969532Y1656805*
X1969969*
X1969810Y1657281*
X1969808Y1657291*
X1969748Y1657832*
Y1657837*
Y1657846*
X1969869Y1658567*
X1969875Y1658584*
X1970055Y1658885*
X1970058Y1658889*
X1970239Y1659130*
X1970253Y1659142*
X1970854Y1659503*
X1970871Y1659510*
X1971232Y1659570*
X1971233*
X1971654Y1659630*
X1971669*
X1972391Y1659510*
X1972410Y1659502*
X1972951Y1659141*
X1972963Y1659130*
X1973324Y1658649*
X1973330Y1658637*
X1973451Y1658337*
X1973454Y1658318*
Y1657958*
Y1657953*
X1973394Y1657292*
X1973390Y1657276*
X1973181Y1656805*
X1973612*
X1973836Y1657309*
X1973895Y1658017*
X1968564Y1652558D02*
X1968154D01*
X1966365Y1650769*
X1966362Y1650766*
X1966001Y1650466*
X1965985Y1650457*
X1965625Y1650337*
X1965619Y1650335*
X1965318Y1650275*
X1965300*
X1964939Y1650335*
X1964918Y1650344*
X1964677Y1650524*
X1964667Y1650534*
X1964487Y1650775*
X1964478Y1650797*
X1964417Y1651157*
Y1651165*
X1964418Y1651175*
X1964538Y1651776*
X1964544Y1651792*
X1964724Y1652093*
X1964728Y1652098*
X1964904Y1652318*
X1964551*
X1964328Y1652038*
X1964154Y1651749*
X1964095Y1651398*
Y1651396*
X1964036Y1651103*
X1964094Y1650522*
X1964094D02*
X1964384Y1650118D01*
X1964728Y1649831*
X1965247Y1649773*
X1965655Y1649832*
X1966064Y1650007*
X1966538Y1650362*
X1967076Y1650900*
X1968097Y1651981*
X1968183Y1651947*
Y1649833*
X1968564*
Y1652558*
Y1655864D02*
X1968183D01*
Y1654892*
X1968133Y1654842*
X1964707*
X1964659Y1654906*
X1964941Y1655864*
X1964504*
X1964053Y1654341*
X1968133*
X1968183Y1654291*
Y1653319*
X1968564*
Y1655864*
X1966005Y1593923D02*
X1965596Y1593719D01*
X1965580Y1593714*
X1965099Y1593654*
X1965086*
X1964665Y1593714*
X1964646Y1593720*
X1964346Y1593901*
X1964332Y1593912*
X1964092Y1594213*
X1964082Y1594237*
X1964021Y1594658*
Y1594665*
X1964022Y1594673*
X1964082Y1595034*
X1964092Y1595057*
X1964332Y1595357*
X1964349Y1595371*
X1964710Y1595551*
X1964726Y1595556*
X1965207Y1595616*
X1965213Y1595617*
X1965514*
X1965521Y1595616*
X1965884Y1595564*
Y1597801*
X1963700*
Y1597420*
X1965333*
X1965383Y1597370*
Y1596047*
X1965333Y1595997*
X1964977*
X1964327Y1595879*
X1963866Y1595649*
X1963638Y1595248*
X1963521Y1594665*
X1963637Y1594084*
X1963925Y1593681*
X1964449Y1593390*
X1965095Y1593273*
X1965618Y1593331*
X1966005Y1593552*
Y1593923*
X1968624Y1658017D02*
X1968565Y1658488D01*
X1968447Y1658901*
X1968271Y1659253*
X1968039Y1659543*
X1967687Y1659778*
X1967334Y1659954*
X1966921Y1660072*
X1966391Y1660131*
X1965919Y1660072*
X1965445Y1659954*
X1965034Y1659778*
X1964683Y1659485*
X1964390Y1659133*
X1964213Y1658722*
X1964095Y1658308*
X1964036Y1657837*
X1964095Y1657248*
X1964261Y1656805*
X1964698*
X1964540Y1657281*
X1964537Y1657291*
X1964477Y1657832*
Y1657837*
X1964478Y1657846*
X1964598Y1658567*
X1964604Y1658584*
X1964785Y1658885*
X1964787Y1658889*
X1964968Y1659130*
X1964982Y1659142*
X1965583Y1659503*
X1965601Y1659510*
X1965961Y1659570*
X1965962*
X1966383Y1659630*
X1966398*
X1967120Y1659510*
X1967139Y1659502*
X1967680Y1659141*
X1967692Y1659130*
X1968053Y1658649*
X1968060Y1658637*
X1968180Y1658337*
X1968183Y1658318*
Y1657958*
Y1657953*
X1968123Y1657292*
X1968119Y1657276*
X1967910Y1656805*
X1968341*
X1968565Y1657309*
X1968624Y1658017*
X1946247Y1570404D02*
X1946188Y1570876D01*
X1946069Y1571350*
X1945893Y1571760*
X1945600Y1572112*
X1945249Y1572404*
X1944838Y1572581*
X1944424Y1572699*
X1943952Y1572758*
X1943363Y1572699*
X1942921Y1572533*
Y1572096*
X1943396Y1572255*
X1943406Y1572257*
X1943947Y1572317*
X1943961*
X1944682Y1572196*
X1944700Y1572190*
X1945000Y1572010*
X1945005Y1572007*
X1945245Y1571826*
X1945258Y1571812*
X1945619Y1571211*
X1945625Y1571194*
X1945685Y1570833*
Y1570832*
X1945746Y1570411*
Y1570404*
X1945745Y1570396*
X1945625Y1569674*
X1945617Y1569655*
X1945257Y1569114*
X1945245Y1569102*
X1944764Y1568741*
X1944753Y1568735*
X1944452Y1568614*
X1944434Y1568611*
X1944073*
X1944069*
X1943407Y1568671*
X1943392Y1568675*
X1942921Y1568884*
Y1568453*
X1943425Y1568229*
X1944132Y1568170*
X1944604Y1568229*
X1945017Y1568347*
X1945368Y1568523*
X1945659Y1568755*
X1945893Y1569107*
X1946070Y1569460*
X1946188Y1569873*
X1946247Y1570404*
X1941979Y1572290D02*
X1940457Y1572741D01*
Y1568661*
X1940407Y1568611*
X1939435*
Y1568230*
X1941979*
Y1568611*
X1941008*
X1940958Y1568661*
Y1572087*
X1941022Y1572135*
X1941979Y1571853*
Y1572290*
X1938433Y1568820D02*
X1938025Y1568616D01*
X1938009Y1568611*
X1937528Y1568551*
X1937514*
X1937094Y1568611*
X1937075Y1568618*
X1936774Y1568798*
X1936761Y1568810*
X1936521Y1569110*
X1936510Y1569135*
X1936450Y1569555*
Y1569562*
Y1569571*
X1936510Y1569931*
X1936521Y1569954*
X1936761Y1570255*
X1936778Y1570268*
X1937138Y1570449*
X1937155Y1570454*
X1937635Y1570514*
X1937642*
X1937942*
X1937949*
X1938313Y1570462*
Y1572698*
X1936129*
Y1572317*
X1937762*
X1937812Y1572267*
Y1570945*
X1937762Y1570895*
X1937406*
X1936756Y1570777*
X1936295Y1570546*
X1936066Y1570146*
X1935950Y1569562*
X1936066Y1568982*
X1936353Y1568579*
X1936877Y1568288*
X1937523Y1568170*
X1938047Y1568229*
X1938433Y1568449*
Y1568820*
X1932213Y1570632D02*
X1930883D01*
X1930353Y1570573*
X1929894Y1570343*
X1929665Y1569942*
X1929548Y1569477*
X1929606Y1569016*
X1929778Y1568729*
X1930066Y1568441*
X1930537Y1568264*
X1930547Y1568176*
X1930195Y1567941*
X1930080Y1567769*
X1930078Y1567766*
X1929839Y1567467*
X1929046Y1566164*
X1929649*
X1930356Y1567401*
X1930360Y1567407*
X1930600Y1567707*
X1930780Y1567947*
X1930804Y1567964*
X1930984Y1568025*
X1930988Y1568026*
X1931229Y1568086*
X1931241Y1568087*
X1931661*
X1931711Y1568037*
Y1566164*
X1932213*
Y1570632*
X1931711Y1570141D02*
Y1568578D01*
X1931661Y1568528*
X1931000*
X1930992Y1568529*
X1930631Y1568589*
X1930614Y1568595*
X1930313Y1568776*
X1930299Y1568789*
X1930119Y1569029*
X1930109Y1569051*
X1930049Y1569411*
Y1569420*
X1930050Y1569429*
X1930110Y1569730*
X1930119Y1569750*
X1930299Y1569991*
X1930317Y1570005*
X1930557Y1570126*
X1930572Y1570130*
X1930993Y1570190*
X1931000Y1570191*
X1931661*
X1931711Y1570141*
X1928366Y1570224D02*
X1926843Y1570675D01*
Y1566595*
X1926793Y1566545*
X1925821*
Y1566164*
X1928366*
Y1566545*
X1927394*
X1927344Y1566595*
Y1570021*
X1927408Y1570069*
X1928366Y1569787*
Y1570224*
X1925059Y1567258D02*
X1925002Y1567601D01*
X1924828Y1567947*
X1924538Y1568238*
X1924123Y1568475*
X1924122Y1568561*
X1924418Y1568738*
X1924707Y1569027*
X1924821Y1569314*
X1924878Y1569599*
X1924763Y1570060*
X1924535Y1570403*
X1924073Y1570633*
X1923607Y1570692*
X1923084Y1570634*
X1922739Y1570404*
X1922452Y1570060*
X1922395Y1569661*
X1922453Y1569313*
X1922567Y1569030*
X1922855Y1568799*
X1923214Y1568560*
X1923209Y1568473*
X1922733Y1568235*
X1922445Y1568005*
X1922273Y1567661*
X1922215Y1567317*
X1922331Y1566796*
X1922619Y1566393*
X1923080Y1566163*
X1923727Y1566104*
X1924254Y1566162*
X1924713Y1566392*
X1924943Y1566794*
X1925059Y1567258*
X1924377Y1569588D02*
X1924317Y1569347D01*
X1924313Y1569337*
X1924193Y1569097*
X1924178Y1569079*
X1923938Y1568899*
X1923933Y1568896*
X1923633Y1568716*
X1923581*
X1923281Y1568896*
X1923271Y1568903*
X1923091Y1569084*
X1923082Y1569097*
X1922961Y1569337*
X1922958Y1569347*
X1922897Y1569588*
Y1569610*
X1922957Y1569910*
X1922964Y1569928*
X1923085Y1570109*
X1923104Y1570126*
X1923344Y1570246*
X1923355Y1570250*
X1923595Y1570310*
X1923617*
X1923917Y1570250*
X1923930Y1570246*
X1924170Y1570126*
X1924193Y1570103*
X1924313Y1569863*
X1924317Y1569853*
X1924377Y1569612*
Y1569588*
X1924558Y1567246D02*
X1924498Y1566945D01*
X1924489Y1566925*
X1924308Y1566685*
X1924287Y1566668*
X1923986Y1566548*
X1923976Y1566545*
X1923615Y1566485*
X1923597*
X1923297Y1566546*
X1923288Y1566548*
X1922987Y1566668*
X1922966Y1566685*
X1922786Y1566925*
X1922777Y1566945*
X1922717Y1567246*
Y1567266*
X1922777Y1567566*
X1922783Y1567582*
X1922963Y1567883*
X1922976Y1567897*
X1923216Y1568077*
X1923227Y1568083*
X1923648Y1568263*
X1923690Y1568262*
X1924050Y1568082*
X1924058Y1568077*
X1924298Y1567897*
X1924311Y1567883*
X1924491Y1567582*
X1924498Y1567566*
X1924558Y1567266*
Y1567246*
X1923286Y1623896D02*
X1922785D01*
Y1619919*
X1922735Y1619869*
X1921042*
Y1619428*
X1923286*
Y1623896*
X1920521Y1619838D02*
X1918732Y1621627D01*
X1918729Y1621630*
X1918429Y1621991*
X1918420Y1622007*
X1918300Y1622367*
X1918298Y1622373*
X1918238Y1622674*
X1918237Y1622684*
X1918238Y1622692*
X1918298Y1623053*
X1918307Y1623074*
X1918487Y1623315*
X1918497Y1623325*
X1918738Y1623505*
X1918760Y1623515*
X1919120Y1623575*
X1919138Y1623574*
X1919739Y1623454*
X1919755Y1623448*
X1920056Y1623268*
X1920061Y1623264*
X1920281Y1623088*
Y1623441*
X1920001Y1623665*
X1919712Y1623838*
X1919361Y1623897*
X1919359*
X1919066Y1623956*
X1918485Y1623898*
X1918081Y1623609*
X1917794Y1623264*
X1917736Y1622745*
X1917794Y1622337*
X1917970Y1621928*
X1918325Y1621454*
X1918863Y1620917*
X1919944Y1619895*
X1919910Y1619809*
X1917796*
Y1619428*
X1920521*
Y1619838*
X1919554Y1653990D02*
X1918342D01*
X1918292Y1654040*
Y1655253*
X1917971*
Y1654040*
X1917921Y1653990*
X1916709*
Y1653670*
X1917921*
X1917971Y1653620*
Y1652407*
X1918292*
Y1653620*
X1918342Y1653670*
X1919554*
Y1653990*
X1915287Y1652577D02*
X1914878Y1652373D01*
X1914862Y1652368*
X1914381Y1652308*
X1914368*
X1913947Y1652368*
X1913929Y1652375*
X1913628Y1652555*
X1913615Y1652567*
X1913374Y1652867*
X1913364Y1652891*
X1913304Y1653312*
X1913303Y1653319*
X1913304Y1653327*
X1913364Y1653688*
X1913374Y1653711*
X1913615Y1654011*
X1913631Y1654025*
X1913992Y1654205*
X1914008Y1654210*
X1914489Y1654270*
X1914495Y1654271*
X1914796*
X1914803Y1654270*
X1915167Y1654218*
Y1656455*
X1912983*
Y1656074*
X1914616*
X1914666Y1656024*
Y1654701*
X1914616Y1654651*
X1914259*
X1913610Y1654533*
X1913149Y1654303*
X1912920Y1653902*
X1912803Y1653319*
X1912919Y1652738*
X1913207Y1652335*
X1913731Y1652044*
X1914377Y1651927*
X1914900Y1651985*
X1915287Y1652206*
Y1652577*
X1912200Y1656455D02*
X1911645D01*
X1910396Y1652943*
X1910276Y1652524*
X1910178Y1652531*
X1910119Y1652946*
X1908870Y1656455*
X1908375*
X1909962Y1651987*
X1910553*
X1912200Y1656455*
X1908400Y1656385D02*
Y1656455D01*
X1908500Y1656103D02*
Y1656455D01*
X1908600Y1655822D02*
Y1656455D01*
X1908700Y1655540D02*
Y1656455D01*
X1908800Y1655259D02*
Y1656455D01*
X1908900Y1654977D02*
Y1656371D01*
X1909000Y1654696D02*
Y1656090D01*
X1909100Y1654414D02*
Y1655809D01*
X1909200Y1654133D02*
Y1655528D01*
X1909300Y1653851D02*
Y1655247D01*
X1909400Y1653570D02*
Y1654966D01*
X1909500Y1653288D02*
Y1654685D01*
X1909600Y1653007D02*
Y1654404D01*
X1909700Y1652725D02*
Y1654123D01*
X1909800Y1652444D02*
Y1653842D01*
X1909900Y1652162D02*
Y1653561D01*
X1910000Y1651987D02*
Y1653280D01*
X1910100Y1651987D02*
Y1652999D01*
X1910200Y1651987D02*
Y1652496D01*
X1910300Y1651987D02*
Y1652609D01*
X1910400Y1651987D02*
Y1652956D01*
X1910500Y1651987D02*
Y1653237D01*
X1910600Y1652113D02*
Y1653518D01*
X1910700Y1652384D02*
Y1653798D01*
X1910800Y1652656D02*
Y1654079D01*
X1910900Y1652927D02*
Y1654360D01*
X1911000Y1653199D02*
Y1654641D01*
X1911100Y1653470D02*
Y1654922D01*
X1911200Y1653741D02*
Y1655203D01*
X1911300Y1654013D02*
Y1655484D01*
X1911400Y1654284D02*
Y1655765D01*
X1911500Y1654556D02*
Y1656046D01*
X1911600Y1654827D02*
Y1656327D01*
X1911700Y1655099D02*
Y1656455D01*
X1911800Y1655370D02*
Y1656455D01*
X1911900Y1655641D02*
Y1656455D01*
X1912000Y1655913D02*
Y1656455D01*
X1912100Y1656184D02*
Y1656455D01*
X1912900Y1652835D02*
Y1653803D01*
X1913000Y1652625D02*
Y1654043D01*
Y1656074D02*
Y1656455D01*
X1913100Y1652485D02*
Y1654218D01*
Y1656074D02*
Y1656455D01*
X1913200Y1652345D02*
Y1654329D01*
Y1656074D02*
Y1656455D01*
X1913300Y1652284D02*
Y1654379D01*
Y1656074D02*
Y1656455D01*
X1913400Y1652228D02*
Y1652835D01*
Y1653743D02*
Y1654429D01*
Y1656074D02*
Y1656455D01*
X1913500Y1652173D02*
Y1652710D01*
Y1653868D02*
Y1654479D01*
Y1656074D02*
Y1656455D01*
X1913600Y1652117D02*
Y1652585D01*
Y1653993D02*
Y1654529D01*
Y1656074D02*
Y1656455D01*
X1913700Y1652062D02*
Y1652512D01*
Y1654059D02*
Y1654550D01*
Y1656074D02*
Y1656455D01*
X1913800Y1652032D02*
Y1652452D01*
Y1654109D02*
Y1654568D01*
Y1656074D02*
Y1656455D01*
X1913900Y1652014D02*
Y1652392D01*
Y1654159D02*
Y1654586D01*
Y1656074D02*
Y1656455D01*
X1914000Y1651995D02*
Y1652360D01*
Y1654208D02*
Y1654604D01*
Y1656074D02*
Y1656455D01*
X1914100Y1651977D02*
Y1652346D01*
Y1654222D02*
Y1654623D01*
Y1656074D02*
Y1656455D01*
X1914200Y1651959D02*
Y1652332D01*
Y1654234D02*
Y1654641D01*
Y1656074D02*
Y1656455D01*
X1914300Y1651941D02*
Y1652318D01*
Y1654247D02*
Y1654651D01*
Y1656074D02*
Y1656455D01*
X1914400Y1651930D02*
Y1652310D01*
Y1654259D02*
Y1654651D01*
Y1656074D02*
Y1656455D01*
X1914500Y1651941D02*
Y1652323D01*
Y1654271D02*
Y1654651D01*
Y1656074D02*
Y1656455D01*
X1914600Y1651952D02*
Y1652335D01*
Y1654271D02*
Y1654651D01*
Y1656074D02*
Y1656455D01*
X1914700Y1651963D02*
Y1652348D01*
Y1654271D02*
Y1656455D01*
X1914800Y1651974D02*
Y1652360D01*
Y1654270D02*
Y1656455D01*
X1914900Y1651985D02*
Y1652384D01*
Y1654256D02*
Y1656455D01*
X1915000Y1652042D02*
Y1652434D01*
Y1654242D02*
Y1656455D01*
X1915100Y1652099D02*
Y1652484D01*
Y1654228D02*
Y1656455D01*
X1915200Y1652156D02*
Y1652534D01*
X1916800Y1653670D02*
Y1653990D01*
X1916900Y1653670D02*
Y1653990D01*
X1917000Y1653670D02*
Y1653990D01*
X1917100Y1653670D02*
Y1653990D01*
X1917200Y1653670D02*
Y1653990D01*
X1917300Y1653670D02*
Y1653990D01*
X1917400Y1653670D02*
Y1653990D01*
X1917500Y1653670D02*
Y1653990D01*
X1917600Y1653670D02*
Y1653990D01*
X1917700Y1653670D02*
Y1653990D01*
X1917800Y1619428D02*
Y1619809D01*
Y1622324D02*
Y1623272D01*
Y1653670D02*
Y1653990D01*
X1917900Y1619428D02*
Y1619809D01*
Y1622091D02*
Y1623392D01*
Y1653670D02*
Y1653990D01*
X1918000Y1619428D02*
Y1619809D01*
Y1621887D02*
Y1623512D01*
Y1652407D02*
Y1655253D01*
X1918100Y1619428D02*
Y1619809D01*
Y1621754D02*
Y1623622D01*
Y1652407D02*
Y1655253D01*
X1918200Y1619428D02*
Y1619809D01*
Y1621621D02*
Y1623694D01*
Y1652407D02*
Y1655253D01*
X1918300Y1619428D02*
Y1619809D01*
Y1621487D02*
Y1622366D01*
Y1623062D02*
Y1623765D01*
Y1653646D02*
Y1654013D01*
X1918400Y1619428D02*
Y1619809D01*
Y1621379D02*
Y1622066D01*
Y1623198D02*
Y1623837D01*
Y1653670D02*
Y1653990D01*
X1918500Y1619428D02*
Y1619809D01*
Y1621279D02*
Y1621905D01*
Y1623327D02*
Y1623899D01*
Y1653670D02*
Y1653990D01*
X1918600Y1619428D02*
Y1619809D01*
Y1621179D02*
Y1621785D01*
Y1623402D02*
Y1623909D01*
Y1653670D02*
Y1653990D01*
X1918700Y1619428D02*
Y1619809D01*
Y1621079D02*
Y1621665D01*
Y1623477D02*
Y1623919D01*
Y1653670D02*
Y1653990D01*
X1918800Y1619428D02*
Y1619809D01*
Y1620979D02*
Y1621559D01*
Y1623521D02*
Y1623929D01*
Y1653670D02*
Y1653990D01*
X1918900Y1619428D02*
Y1619809D01*
Y1620881D02*
Y1621459D01*
Y1623538D02*
Y1623939D01*
Y1653670D02*
Y1653990D01*
X1919000Y1619428D02*
Y1619809D01*
Y1620787D02*
Y1621359D01*
Y1623555D02*
Y1623949D01*
Y1653670D02*
Y1653990D01*
X1919100Y1619428D02*
Y1619809D01*
Y1620692D02*
Y1621259D01*
Y1623571D02*
Y1623949D01*
Y1653670D02*
Y1653990D01*
X1919200Y1619428D02*
Y1619809D01*
Y1620598D02*
Y1621159D01*
Y1623562D02*
Y1623929D01*
Y1653670D02*
Y1653990D01*
X1919300Y1619428D02*
Y1619809D01*
Y1620503D02*
Y1621059D01*
Y1623542D02*
Y1623909D01*
Y1653670D02*
Y1653990D01*
X1919400Y1619428D02*
Y1619809D01*
Y1620409D02*
Y1620959D01*
Y1623522D02*
Y1623890D01*
Y1653670D02*
Y1653990D01*
X1919500Y1619428D02*
Y1619809D01*
Y1620315D02*
Y1620859D01*
Y1623502D02*
Y1623874D01*
Y1653670D02*
Y1653990D01*
X1919600Y1619428D02*
Y1619809D01*
Y1620220D02*
Y1620759D01*
Y1623482D02*
Y1623857D01*
X1919700Y1619428D02*
Y1619809D01*
Y1620126D02*
Y1620659D01*
Y1623462D02*
Y1623840D01*
X1919800Y1619428D02*
Y1619809D01*
Y1620031D02*
Y1620559D01*
Y1623421D02*
Y1623785D01*
X1919900Y1619428D02*
Y1619809D01*
Y1619937D02*
Y1620459D01*
Y1623361D02*
Y1623725D01*
X1920000Y1619428D02*
Y1620359D01*
Y1623301D02*
Y1623665D01*
X1920100Y1619428D02*
Y1620259D01*
Y1623233D02*
Y1623586D01*
X1920200Y1619428D02*
Y1620159D01*
Y1623153D02*
Y1623506D01*
X1920300Y1619428D02*
Y1620059D01*
X1920400Y1619428D02*
Y1619959D01*
X1920500Y1619428D02*
Y1619859D01*
X1921100Y1619428D02*
Y1619869D01*
X1921200Y1619428D02*
Y1619869D01*
X1921300Y1619428D02*
Y1619869D01*
X1921400Y1619428D02*
Y1619869D01*
X1921500Y1619428D02*
Y1619869D01*
X1921600Y1619428D02*
Y1619869D01*
X1921700Y1619428D02*
Y1619869D01*
X1921800Y1619428D02*
Y1619869D01*
X1921900Y1619428D02*
Y1619869D01*
X1922000Y1619428D02*
Y1619869D01*
X1922100Y1619428D02*
Y1619869D01*
X1922200Y1619428D02*
Y1619869D01*
X1922300Y1566937D02*
Y1567715D01*
Y1619428D02*
Y1619869D01*
X1922400Y1566700D02*
Y1567915D01*
Y1569633D02*
Y1569692D01*
Y1619428D02*
Y1619869D01*
X1922500Y1566560D02*
Y1568049D01*
Y1569197D02*
Y1570117D01*
Y1619428D02*
Y1619869D01*
X1922600Y1566420D02*
Y1568129D01*
Y1569003D02*
Y1570237D01*
Y1619428D02*
Y1619869D01*
X1922700Y1566353D02*
Y1568209D01*
Y1568923D02*
Y1570357D01*
Y1619428D02*
Y1619869D01*
X1922800Y1566303D02*
Y1566906D01*
Y1567611D02*
Y1568269D01*
Y1568843D02*
Y1570444D01*
Y1619428D02*
Y1623896D01*
X1922900Y1566253D02*
Y1566773D01*
Y1567777D02*
Y1568319D01*
Y1568769D02*
Y1569578D01*
Y1569625D02*
Y1570511D01*
Y1619428D02*
Y1623896D01*
X1923000Y1566203D02*
Y1566663D01*
Y1567915D02*
Y1568369D01*
Y1568702D02*
Y1569260D01*
Y1569982D02*
Y1570578D01*
Y1619428D02*
Y1623896D01*
X1923100Y1566161D02*
Y1566623D01*
Y1567990D02*
Y1568419D01*
Y1568636D02*
Y1569075D01*
Y1570123D02*
Y1570635D01*
Y1619428D02*
Y1623896D01*
X1923200Y1566152D02*
Y1566583D01*
Y1568065D02*
Y1568469D01*
Y1568569D02*
Y1568975D01*
Y1570174D02*
Y1570646D01*
Y1619428D02*
Y1623896D01*
X1923300Y1566143D02*
Y1566545D01*
Y1568115D02*
Y1568884D01*
Y1570224D02*
Y1570658D01*
X1923400Y1566134D02*
Y1566525D01*
Y1568157D02*
Y1568824D01*
Y1570261D02*
Y1570669D01*
X1923500Y1566125D02*
Y1566505D01*
Y1568200D02*
Y1568764D01*
Y1570286D02*
Y1570680D01*
X1923600Y1566115D02*
Y1566485D01*
Y1568243D02*
Y1568709D01*
Y1570311D02*
Y1570691D01*
X1923700Y1566106D02*
Y1566499D01*
Y1568257D02*
Y1568756D01*
Y1570294D02*
Y1570680D01*
X1923800Y1566112D02*
Y1566516D01*
Y1568207D02*
Y1568816D01*
Y1570274D02*
Y1570668D01*
X1923900Y1566123D02*
Y1566533D01*
Y1568157D02*
Y1568876D01*
Y1570254D02*
Y1570655D01*
X1924000Y1566134D02*
Y1566554D01*
Y1568107D02*
Y1568946D01*
Y1570211D02*
Y1570643D01*
X1924100Y1566145D02*
Y1566594D01*
Y1568046D02*
Y1568504D01*
Y1568532D02*
Y1569021D01*
Y1570161D02*
Y1570620D01*
X1924200Y1566156D02*
Y1566634D01*
Y1567971D02*
Y1568431D01*
Y1568608D02*
Y1569111D01*
Y1570089D02*
Y1570570D01*
X1924300Y1566186D02*
Y1566676D01*
Y1567896D02*
Y1568374D01*
Y1568668D02*
Y1569311D01*
Y1569889D02*
Y1570520D01*
X1924400Y1566236D02*
Y1566807D01*
Y1567735D02*
Y1568317D01*
Y1568728D02*
Y1570470D01*
X1924500Y1566286D02*
Y1566957D01*
Y1567554D02*
Y1568259D01*
Y1568820D02*
Y1570420D01*
X1924600Y1566336D02*
Y1568176D01*
Y1568920D02*
Y1570305D01*
X1924700Y1566386D02*
Y1568076D01*
Y1569020D02*
Y1570155D01*
X1924800Y1566544D02*
Y1567976D01*
Y1569261D02*
Y1569912D01*
X1924900Y1566719D02*
Y1567804D01*
X1925000Y1567023D02*
Y1567604D01*
X1925900Y1566164D02*
Y1566545D01*
X1926000Y1566164D02*
Y1566545D01*
X1926100Y1566164D02*
Y1566545D01*
X1926200Y1566164D02*
Y1566545D01*
X1926300Y1566164D02*
Y1566545D01*
X1926400Y1566164D02*
Y1566545D01*
X1926500Y1566164D02*
Y1566545D01*
X1926600Y1566164D02*
Y1566545D01*
X1926700Y1566164D02*
Y1566545D01*
X1926800Y1566164D02*
Y1566545D01*
X1926900Y1566164D02*
Y1570658D01*
X1927000Y1566164D02*
Y1570628D01*
X1927100Y1566164D02*
Y1570599D01*
X1927200Y1566164D02*
Y1570569D01*
X1927300Y1566164D02*
Y1570540D01*
X1927400Y1566164D02*
Y1566545D01*
Y1570070D02*
Y1570510D01*
X1927500Y1566164D02*
Y1566545D01*
Y1570042D02*
Y1570480D01*
X1927600Y1566164D02*
Y1566545D01*
Y1570012D02*
Y1570451D01*
X1927700Y1566164D02*
Y1566545D01*
Y1569983D02*
Y1570421D01*
X1927800Y1566164D02*
Y1566545D01*
Y1569953D02*
Y1570391D01*
X1927900Y1566164D02*
Y1566545D01*
Y1569924D02*
Y1570362D01*
X1928000Y1566164D02*
Y1566545D01*
Y1569895D02*
Y1570332D01*
X1928100Y1566164D02*
Y1566545D01*
Y1569865D02*
Y1570303D01*
X1928200Y1566164D02*
Y1566545D01*
Y1569836D02*
Y1570273D01*
X1928300Y1566164D02*
Y1566545D01*
Y1569806D02*
Y1570243D01*
X1929100Y1566164D02*
Y1566253D01*
X1929200Y1566164D02*
Y1566417D01*
X1929300Y1566164D02*
Y1566582D01*
X1929400Y1566164D02*
Y1566746D01*
X1929500Y1566164D02*
Y1566910D01*
X1929600Y1566164D02*
Y1567075D01*
Y1569064D02*
Y1569683D01*
X1929700Y1566253D02*
Y1567239D01*
Y1568859D02*
Y1570004D01*
X1929800Y1566428D02*
Y1567403D01*
Y1568707D02*
Y1570179D01*
X1929900Y1566603D02*
Y1567544D01*
Y1568607D02*
Y1570346D01*
X1930000Y1566778D02*
Y1567669D01*
Y1568507D02*
Y1570396D01*
X1930100Y1566953D02*
Y1567799D01*
Y1568428D02*
Y1569108D01*
Y1569681D02*
Y1570446D01*
X1930200Y1567128D02*
Y1567944D01*
Y1568391D02*
Y1568921D01*
Y1569858D02*
Y1570496D01*
X1930300Y1567303D02*
Y1568011D01*
Y1568353D02*
Y1568787D01*
Y1569992D02*
Y1570546D01*
X1930400Y1567457D02*
Y1568078D01*
Y1568316D02*
Y1568724D01*
Y1570047D02*
Y1570578D01*
X1930500Y1567582D02*
Y1568144D01*
Y1568278D02*
Y1568664D01*
Y1570097D02*
Y1570589D01*
X1930600Y1567707D02*
Y1568604D01*
Y1570134D02*
Y1570600D01*
X1930700Y1567840D02*
Y1568578D01*
Y1570149D02*
Y1570612D01*
X1930800Y1567963D02*
Y1568561D01*
Y1570163D02*
Y1570623D01*
X1930900Y1567996D02*
Y1568544D01*
Y1570177D02*
Y1570632D01*
X1931000Y1568029D02*
Y1568528D01*
Y1570191D02*
Y1570632D01*
X1931100Y1568054D02*
Y1568528D01*
Y1570191D02*
Y1570632D01*
X1931200Y1568079D02*
Y1568528D01*
Y1570191D02*
Y1570632D01*
X1931300Y1568087D02*
Y1568528D01*
Y1570191D02*
Y1570632D01*
X1931400Y1568087D02*
Y1568528D01*
Y1570191D02*
Y1570632D01*
X1931500Y1568087D02*
Y1568528D01*
Y1570191D02*
Y1570632D01*
X1931600Y1568087D02*
Y1568528D01*
Y1570191D02*
Y1570632D01*
X1931700Y1568069D02*
Y1568546D01*
Y1570173D02*
Y1570632D01*
X1931800Y1566164D02*
Y1570632D01*
X1931900Y1566164D02*
Y1570632D01*
X1932000Y1566164D02*
Y1570632D01*
X1932100Y1566164D02*
Y1570632D01*
X1932200Y1566164D02*
Y1570632D01*
X1936000Y1569310D02*
Y1569815D01*
X1936100Y1568934D02*
Y1570205D01*
X1936200Y1568794D02*
Y1570380D01*
Y1572317D02*
Y1572698D01*
X1936300Y1568654D02*
Y1570549D01*
Y1572317D02*
Y1572698D01*
X1936400Y1568553D02*
Y1570599D01*
Y1572317D02*
Y1572698D01*
X1936500Y1568497D02*
Y1569206D01*
Y1569869D02*
Y1570649D01*
Y1572317D02*
Y1572698D01*
X1936600Y1568442D02*
Y1569011D01*
Y1570053D02*
Y1570699D01*
Y1572317D02*
Y1572698D01*
X1936700Y1568386D02*
Y1568886D01*
Y1570178D02*
Y1570749D01*
Y1572317D02*
Y1572698D01*
X1936800Y1568331D02*
Y1568783D01*
Y1570279D02*
Y1570785D01*
Y1572317D02*
Y1572698D01*
X1936900Y1568284D02*
Y1568723D01*
Y1570329D02*
Y1570803D01*
Y1572317D02*
Y1572698D01*
X1937000Y1568265D02*
Y1568663D01*
Y1570379D02*
Y1570821D01*
Y1572317D02*
Y1572698D01*
X1937100Y1568247D02*
Y1568610D01*
Y1570429D02*
Y1570839D01*
Y1572317D02*
Y1572698D01*
X1937200Y1568229D02*
Y1568596D01*
Y1570459D02*
Y1570857D01*
Y1572317D02*
Y1572698D01*
X1937300Y1568211D02*
Y1568582D01*
Y1570472D02*
Y1570876D01*
Y1572317D02*
Y1572698D01*
X1937400Y1568193D02*
Y1568568D01*
Y1570484D02*
Y1570894D01*
Y1572317D02*
Y1572698D01*
X1937500Y1568175D02*
Y1568553D01*
Y1570497D02*
Y1570895D01*
Y1572317D02*
Y1572698D01*
X1937600Y1568179D02*
Y1568560D01*
Y1570509D02*
Y1570895D01*
Y1572317D02*
Y1572698D01*
X1937700Y1568190D02*
Y1568573D01*
Y1570514D02*
Y1570895D01*
Y1572317D02*
Y1572698D01*
X1937800Y1568201D02*
Y1568585D01*
Y1570514D02*
Y1570913D01*
Y1572300D02*
Y1572698D01*
X1937900Y1568212D02*
Y1568598D01*
Y1570514D02*
Y1572698D01*
X1938000Y1568223D02*
Y1568610D01*
Y1570506D02*
Y1572698D01*
X1938100Y1568259D02*
Y1568654D01*
Y1570492D02*
Y1572698D01*
X1938200Y1568316D02*
Y1568704D01*
Y1570478D02*
Y1572698D01*
X1938300Y1568373D02*
Y1568754D01*
Y1570463D02*
Y1572698D01*
X1938400Y1568430D02*
Y1568804D01*
X1939500Y1568230D02*
Y1568611D01*
X1939600Y1568230D02*
Y1568611D01*
X1939700Y1568230D02*
Y1568611D01*
X1939800Y1568230D02*
Y1568611D01*
X1939900Y1568230D02*
Y1568611D01*
X1940000Y1568230D02*
Y1568611D01*
X1940100Y1568230D02*
Y1568611D01*
X1940200Y1568230D02*
Y1568611D01*
X1940300Y1568230D02*
Y1568611D01*
X1940400Y1568230D02*
Y1568611D01*
X1940500Y1568230D02*
Y1572728D01*
X1940600Y1568230D02*
Y1572699D01*
X1940700Y1568230D02*
Y1572669D01*
X1940800Y1568230D02*
Y1572639D01*
X1940900Y1568230D02*
Y1572610D01*
X1941000Y1568230D02*
Y1568611D01*
Y1572136D02*
Y1572580D01*
X1941100Y1568230D02*
Y1568611D01*
Y1572112D02*
Y1572551D01*
X1941200Y1568230D02*
Y1568611D01*
Y1572082D02*
Y1572521D01*
X1941300Y1568230D02*
Y1568611D01*
Y1572053D02*
Y1572491D01*
X1941400Y1568230D02*
Y1568611D01*
Y1572024D02*
Y1572462D01*
X1941500Y1568230D02*
Y1568611D01*
Y1571994D02*
Y1572432D01*
X1941600Y1568230D02*
Y1568611D01*
Y1571965D02*
Y1572402D01*
X1941700Y1568230D02*
Y1568611D01*
Y1571935D02*
Y1572373D01*
X1941800Y1568230D02*
Y1568611D01*
Y1571906D02*
Y1572343D01*
X1941900Y1568230D02*
Y1568611D01*
Y1571877D02*
Y1572314D01*
X1943000Y1568418D02*
Y1568849D01*
Y1572123D02*
Y1572563D01*
X1943100Y1568373D02*
Y1568805D01*
Y1572156D02*
Y1572600D01*
X1943200Y1568329D02*
Y1568760D01*
Y1572189D02*
Y1572638D01*
X1943300Y1568284D02*
Y1568716D01*
Y1572223D02*
Y1572675D01*
X1943400Y1568240D02*
Y1568672D01*
Y1572256D02*
Y1572703D01*
X1943500Y1568223D02*
Y1568663D01*
Y1572267D02*
Y1572713D01*
X1943600Y1568214D02*
Y1568654D01*
Y1572278D02*
Y1572723D01*
X1943700Y1568206D02*
Y1568645D01*
Y1572289D02*
Y1572733D01*
X1943800Y1568198D02*
Y1568635D01*
Y1572301D02*
Y1572743D01*
X1943900Y1568189D02*
Y1568626D01*
Y1572312D02*
Y1572753D01*
X1944000Y1568181D02*
Y1568617D01*
Y1572310D02*
Y1572752D01*
X1944100Y1568173D02*
Y1568611D01*
Y1572293D02*
Y1572739D01*
X1944200Y1568179D02*
Y1568611D01*
Y1572277D02*
Y1572727D01*
X1944300Y1568191D02*
Y1568611D01*
Y1572260D02*
Y1572714D01*
X1944400Y1568204D02*
Y1568611D01*
Y1572243D02*
Y1572702D01*
X1944500Y1568216D02*
Y1568633D01*
Y1572227D02*
Y1572677D01*
X1944600Y1568229D02*
Y1568673D01*
Y1572210D02*
Y1572649D01*
X1944700Y1568257D02*
Y1568713D01*
Y1572190D02*
Y1572620D01*
X1944800Y1568285D02*
Y1568768D01*
Y1572130D02*
Y1572591D01*
X1944900Y1568314D02*
Y1568843D01*
Y1572070D02*
Y1572554D01*
X1945000Y1568342D02*
Y1568918D01*
Y1572010D02*
Y1572511D01*
X1945100Y1568389D02*
Y1568993D01*
Y1571935D02*
Y1572468D01*
X1945200Y1568439D02*
Y1569068D01*
Y1571860D02*
Y1572425D01*
X1945300Y1568489D02*
Y1569179D01*
Y1571742D02*
Y1572362D01*
X1945400Y1568548D02*
Y1569329D01*
Y1571575D02*
Y1572279D01*
X1945500Y1568628D02*
Y1569479D01*
Y1571409D02*
Y1572195D01*
X1945600Y1568708D02*
Y1569629D01*
Y1571242D02*
Y1572112D01*
X1945700Y1568817D02*
Y1570124D01*
Y1570730D02*
Y1571992D01*
X1945800Y1568967D02*
Y1571872D01*
X1945900Y1569121D02*
Y1571744D01*
X1946000Y1569321D02*
Y1571511D01*
X1946100Y1569566D02*
Y1571227D01*
X1946200Y1569983D02*
Y1570777D01*
X1963600Y1594270D02*
Y1595060D01*
X1963700Y1593996D02*
Y1595358D01*
X1963800Y1593856D02*
Y1595533D01*
Y1597420D02*
Y1597801D01*
X1963900Y1593716D02*
Y1595666D01*
Y1597420D02*
Y1597801D01*
X1964000Y1593640D02*
Y1595716D01*
Y1597420D02*
Y1597801D01*
X1964100Y1593584D02*
Y1594203D01*
Y1595067D02*
Y1595766D01*
Y1597420D02*
Y1597801D01*
Y1650515D02*
Y1651425D01*
Y1654341D02*
Y1654500D01*
Y1657235D02*
Y1658325D01*
X1964200Y1593528D02*
Y1594078D01*
Y1595192D02*
Y1595816D01*
Y1597420D02*
Y1597801D01*
Y1650375D02*
Y1651826D01*
Y1654341D02*
Y1654837D01*
Y1656968D02*
Y1658675D01*
X1964300Y1593473D02*
Y1593953D01*
Y1595317D02*
Y1595866D01*
Y1597420D02*
Y1597801D01*
Y1650235D02*
Y1651992D01*
Y1654341D02*
Y1655175D01*
Y1656805D02*
Y1658924D01*
X1964400Y1593417D02*
Y1593868D01*
Y1595396D02*
Y1595892D01*
Y1597420D02*
Y1597801D01*
Y1650104D02*
Y1652129D01*
Y1654341D02*
Y1655512D01*
Y1656805D02*
Y1659146D01*
X1964500Y1593381D02*
Y1593808D01*
Y1595446D02*
Y1595911D01*
Y1597420D02*
Y1597801D01*
Y1650021D02*
Y1650757D01*
Y1651586D02*
Y1652254D01*
Y1654341D02*
Y1655850D01*
Y1656805D02*
Y1657627D01*
Y1657980D02*
Y1659266D01*
X1964600Y1593363D02*
Y1593748D01*
Y1595496D02*
Y1595929D01*
Y1597420D02*
Y1597801D01*
Y1649937D02*
Y1650624D01*
Y1651885D02*
Y1652318D01*
Y1654341D02*
Y1655864D01*
Y1656805D02*
Y1657099D01*
Y1658575D02*
Y1659386D01*
X1964700Y1593345D02*
Y1593709D01*
Y1595546D02*
Y1595947D01*
Y1597420D02*
Y1597801D01*
Y1649854D02*
Y1650507D01*
Y1652052D02*
Y1652318D01*
Y1654341D02*
Y1654843D01*
Y1655045D02*
Y1655864D01*
Y1658744D02*
Y1659499D01*
X1964800Y1593326D02*
Y1593695D01*
Y1595565D02*
Y1595965D01*
Y1597420D02*
Y1597801D01*
Y1649823D02*
Y1650432D01*
Y1652188D02*
Y1652318D01*
Y1654341D02*
Y1654842D01*
Y1655385D02*
Y1655864D01*
Y1658906D02*
Y1659583D01*
X1964900Y1593308D02*
Y1593680D01*
Y1595578D02*
Y1595983D01*
Y1597420D02*
Y1597801D01*
Y1649812D02*
Y1650357D01*
Y1652313D02*
Y1652318D01*
Y1654341D02*
Y1654842D01*
Y1655725D02*
Y1655864D01*
Y1659039D02*
Y1659666D01*
X1965000Y1593290D02*
Y1593666D01*
Y1595590D02*
Y1595997D01*
Y1597420D02*
Y1597801D01*
Y1649801D02*
Y1650325D01*
Y1654341D02*
Y1654842D01*
Y1659153D02*
Y1659749D01*
X1965100Y1593273D02*
Y1593654D01*
Y1595603D02*
Y1595997D01*
Y1597420D02*
Y1597801D01*
Y1649790D02*
Y1650308D01*
Y1654341D02*
Y1654842D01*
Y1659213D02*
Y1659806D01*
X1965200Y1593285D02*
Y1593666D01*
Y1595615D02*
Y1595997D01*
Y1597420D02*
Y1597801D01*
Y1649779D02*
Y1650291D01*
Y1654341D02*
Y1654842D01*
Y1659273D02*
Y1659849D01*
X1965300Y1593296D02*
Y1593679D01*
Y1595617D02*
Y1595997D01*
Y1597420D02*
Y1597801D01*
Y1649781D02*
Y1650275D01*
Y1654341D02*
Y1654842D01*
Y1659333D02*
Y1659892D01*
X1965400Y1593307D02*
Y1593691D01*
Y1595617D02*
Y1597801D01*
Y1649795D02*
Y1650291D01*
Y1654341D02*
Y1654842D01*
Y1659393D02*
Y1659935D01*
X1965500Y1593318D02*
Y1593704D01*
Y1595617D02*
Y1597801D01*
Y1649809D02*
Y1650311D01*
Y1654341D02*
Y1654842D01*
Y1659453D02*
Y1659968D01*
X1965600Y1565596D02*
Y1566733D01*
Y1593329D02*
Y1593721D01*
Y1595605D02*
Y1597801D01*
Y1649824D02*
Y1650331D01*
Y1654341D02*
Y1654842D01*
Y1659509D02*
Y1659993D01*
X1965700Y1565196D02*
Y1567083D01*
Y1593378D02*
Y1593771D01*
Y1595590D02*
Y1597801D01*
Y1649851D02*
Y1650362D01*
Y1654341D02*
Y1654842D01*
Y1659526D02*
Y1660018D01*
X1965800Y1564962D02*
Y1567283D01*
Y1593435D02*
Y1593821D01*
Y1595576D02*
Y1597801D01*
Y1649894D02*
Y1650395D01*
Y1654341D02*
Y1654842D01*
Y1659543D02*
Y1660043D01*
X1965900Y1564755D02*
Y1567471D01*
Y1593492D02*
Y1593871D01*
Y1649936D02*
Y1650428D01*
Y1654341D02*
Y1654842D01*
Y1659559D02*
Y1660068D01*
X1966000Y1564635D02*
Y1567621D01*
Y1585672D02*
Y1586389D01*
Y1593549D02*
Y1593921D01*
Y1649979D02*
Y1650465D01*
Y1654341D02*
Y1654842D01*
Y1659575D02*
Y1660082D01*
X1966100Y1564515D02*
Y1565618D01*
Y1566600D02*
Y1567771D01*
Y1585405D02*
Y1586589D01*
Y1650034D02*
Y1650548D01*
Y1654341D02*
Y1654842D01*
Y1659589D02*
Y1660095D01*
X1966200Y1564406D02*
Y1565251D01*
Y1566960D02*
Y1567859D01*
Y1585265D02*
Y1586734D01*
Y1587913D02*
Y1588798D01*
Y1650109D02*
Y1650631D01*
Y1654341D02*
Y1654842D01*
Y1659604D02*
Y1660107D01*
X1966300Y1564323D02*
Y1565084D01*
Y1567110D02*
Y1567939D01*
Y1585125D02*
Y1586814D01*
Y1587703D02*
Y1588918D01*
Y1650184D02*
Y1650715D01*
Y1654341D02*
Y1654842D01*
Y1659618D02*
Y1660120D01*
X1966400Y1564240D02*
Y1564918D01*
Y1567260D02*
Y1568019D01*
Y1585050D02*
Y1586894D01*
Y1587623D02*
Y1589038D01*
Y1650259D02*
Y1650804D01*
Y1654341D02*
Y1654842D01*
Y1659629D02*
Y1660130D01*
X1966500Y1564156D02*
Y1564751D01*
Y1567410D02*
Y1568070D01*
Y1585000D02*
Y1585611D01*
Y1586288D02*
Y1586957D01*
Y1587543D02*
Y1589131D01*
Y1650334D02*
Y1650904D01*
Y1654341D02*
Y1654842D01*
Y1659613D02*
Y1660119D01*
X1966600Y1564105D02*
Y1564660D01*
Y1567498D02*
Y1568120D01*
Y1584950D02*
Y1585478D01*
Y1586454D02*
Y1587007D01*
Y1587468D02*
Y1589197D01*
Y1650424D02*
Y1651004D01*
Y1654341D02*
Y1654842D01*
Y1659596D02*
Y1660108D01*
X1966700Y1564062D02*
Y1564585D01*
Y1567573D02*
Y1568170D01*
Y1584900D02*
Y1585360D01*
Y1586600D02*
Y1587057D01*
Y1587401D02*
Y1587971D01*
Y1588660D02*
Y1589264D01*
Y1650524D02*
Y1651104D01*
Y1654341D02*
Y1654842D01*
Y1659579D02*
Y1660097D01*
X1966800Y1564019D02*
Y1564515D01*
Y1567648D02*
Y1568210D01*
Y1584854D02*
Y1585320D01*
Y1586675D02*
Y1587107D01*
Y1587335D02*
Y1587777D01*
Y1588809D02*
Y1589327D01*
Y1650624D02*
Y1651204D01*
Y1654341D02*
Y1654842D01*
Y1659563D02*
Y1660086D01*
X1966900Y1563976D02*
Y1564455D01*
Y1567723D02*
Y1568238D01*
Y1584845D02*
Y1585280D01*
Y1586750D02*
Y1587157D01*
Y1587268D02*
Y1587677D01*
Y1588862D02*
Y1589338D01*
Y1650724D02*
Y1651304D01*
Y1654341D02*
Y1654842D01*
Y1659546D02*
Y1660075D01*
X1967000Y1563943D02*
Y1564395D01*
Y1567798D02*
Y1568267D01*
Y1584836D02*
Y1585240D01*
Y1586803D02*
Y1587583D01*
Y1588912D02*
Y1589349D01*
Y1650824D02*
Y1651404D01*
Y1654341D02*
Y1654842D01*
Y1659529D02*
Y1660050D01*
X1967100Y1563915D02*
Y1564345D01*
Y1567842D02*
Y1568295D01*
Y1584827D02*
Y1585219D01*
Y1586846D02*
Y1587523D01*
Y1588951D02*
Y1589360D01*
Y1650926D02*
Y1651504D01*
Y1654341D02*
Y1654842D01*
Y1659513D02*
Y1660021D01*
X1967200Y1563886D02*
Y1564328D01*
Y1567882D02*
Y1568319D01*
Y1584818D02*
Y1585199D01*
Y1586889D02*
Y1587463D01*
Y1588976D02*
Y1589371D01*
Y1594685D02*
Y1597801D01*
Y1651031D02*
Y1651604D01*
Y1654341D02*
Y1654842D01*
Y1659461D02*
Y1659993D01*
X1967300Y1563858D02*
Y1564312D01*
Y1567922D02*
Y1568331D01*
Y1584809D02*
Y1585179D01*
Y1586932D02*
Y1587404D01*
Y1589001D02*
Y1589383D01*
Y1594335D02*
Y1597801D01*
Y1651137D02*
Y1651704D01*
Y1654341D02*
Y1654842D01*
Y1659395D02*
Y1659964D01*
X1967400Y1563838D02*
Y1564295D01*
Y1567933D02*
Y1568344D01*
Y1584800D02*
Y1585190D01*
Y1586954D02*
Y1587443D01*
Y1588988D02*
Y1589374D01*
Y1594032D02*
Y1597801D01*
Y1651243D02*
Y1651804D01*
Y1654341D02*
Y1654842D01*
Y1659328D02*
Y1659921D01*
X1967500Y1563825D02*
Y1564278D01*
Y1567933D02*
Y1568356D01*
Y1584804D02*
Y1585207D01*
Y1586904D02*
Y1587503D01*
Y1588968D02*
Y1589361D01*
Y1593863D02*
Y1597801D01*
Y1651349D02*
Y1651904D01*
Y1654341D02*
Y1654842D01*
Y1659261D02*
Y1659871D01*
X1967600Y1563813D02*
Y1564262D01*
Y1567933D02*
Y1568369D01*
Y1584815D02*
Y1585224D01*
Y1586854D02*
Y1587563D01*
Y1588948D02*
Y1589349D01*
Y1593731D02*
Y1597801D01*
Y1651455D02*
Y1652004D01*
Y1654341D02*
Y1654842D01*
Y1659195D02*
Y1659821D01*
X1967700Y1563800D02*
Y1564245D01*
Y1567932D02*
Y1568368D01*
Y1584826D02*
Y1585243D01*
Y1586804D02*
Y1587631D01*
Y1588908D02*
Y1589336D01*
Y1593631D02*
Y1594958D01*
Y1651561D02*
Y1652104D01*
Y1654341D02*
Y1654842D01*
Y1659120D02*
Y1659769D01*
X1967800Y1563788D02*
Y1564228D01*
Y1567923D02*
Y1568360D01*
Y1584837D02*
Y1585283D01*
Y1586745D02*
Y1587706D01*
Y1588858D02*
Y1589317D01*
Y1593531D02*
Y1594380D01*
Y1651667D02*
Y1652204D01*
Y1654341D02*
Y1654842D01*
Y1658986D02*
Y1659702D01*
X1967900Y1563794D02*
Y1564235D01*
Y1567914D02*
Y1568351D01*
Y1584848D02*
Y1585323D01*
Y1586670D02*
Y1587129D01*
Y1587295D02*
Y1587786D01*
Y1588800D02*
Y1589267D01*
Y1593476D02*
Y1594205D01*
Y1651773D02*
Y1652304D01*
Y1654341D02*
Y1654842D01*
Y1658853D02*
Y1659636D01*
X1968000Y1563804D02*
Y1564246D01*
Y1567905D02*
Y1568343D01*
Y1584873D02*
Y1585363D01*
Y1586595D02*
Y1587072D01*
Y1587355D02*
Y1587985D01*
Y1588600D02*
Y1589217D01*
Y1593436D02*
Y1594031D01*
Y1651879D02*
Y1652404D01*
Y1654341D02*
Y1654842D01*
Y1656805D02*
Y1657009D01*
Y1658720D02*
Y1659569D01*
X1968100Y1563814D02*
Y1564257D01*
Y1567896D02*
Y1568335D01*
Y1584923D02*
Y1585487D01*
Y1586443D02*
Y1587014D01*
Y1587415D02*
Y1589167D01*
Y1593396D02*
Y1593950D01*
Y1651984D02*
Y1652504D01*
Y1654341D02*
Y1654842D01*
Y1656805D02*
Y1657234D01*
Y1658536D02*
Y1659467D01*
X1968200Y1563824D02*
Y1564268D01*
Y1567887D02*
Y1568326D01*
Y1584973D02*
Y1585621D01*
Y1586276D02*
Y1586957D01*
Y1587504D02*
Y1589117D01*
Y1593361D02*
Y1593870D01*
Y1649833D02*
Y1652558D01*
Y1653319D02*
Y1655864D01*
Y1656805D02*
Y1659342D01*
X1968300Y1563834D02*
Y1564279D01*
Y1567878D02*
Y1568318D01*
Y1585023D02*
Y1586878D01*
Y1587604D02*
Y1589011D01*
Y1593328D02*
Y1593790D01*
Y1649833D02*
Y1652558D01*
Y1653319D02*
Y1655864D01*
Y1656805D02*
Y1659195D01*
X1968400Y1563844D02*
Y1564298D01*
Y1567858D02*
Y1568290D01*
Y1585073D02*
Y1586778D01*
Y1587704D02*
Y1588861D01*
Y1593295D02*
Y1593765D01*
Y1649833D02*
Y1652558D01*
Y1653319D02*
Y1655864D01*
Y1656938D02*
Y1658995D01*
X1968500Y1563879D02*
Y1564331D01*
Y1567814D02*
Y1568246D01*
Y1585220D02*
Y1586678D01*
Y1587930D02*
Y1588642D01*
Y1593272D02*
Y1593753D01*
Y1649833D02*
Y1652558D01*
Y1653319D02*
Y1655864D01*
Y1657163D02*
Y1658716D01*
X1968600Y1563917D02*
Y1564364D01*
Y1567770D02*
Y1568201D01*
Y1585395D02*
Y1586515D01*
Y1593272D02*
Y1593740D01*
Y1657728D02*
Y1658209D01*
X1968700Y1563954D02*
Y1564398D01*
Y1567725D02*
Y1568157D01*
Y1585678D02*
Y1586315D01*
Y1593272D02*
Y1593728D01*
X1968800Y1563992D02*
Y1564431D01*
Y1567681D02*
Y1568112D01*
Y1593272D02*
Y1593715D01*
X1968900Y1593276D02*
Y1593723D01*
X1969000Y1593293D02*
Y1593736D01*
X1969100Y1593310D02*
Y1593748D01*
X1969200Y1593326D02*
Y1593761D01*
X1969300Y1593343D02*
Y1593773D01*
X1969400Y1593360D02*
Y1593841D01*
Y1650700D02*
Y1651881D01*
Y1654341D02*
Y1654598D01*
Y1657157D02*
Y1658427D01*
X1969500Y1585066D02*
Y1585498D01*
Y1588733D02*
Y1589171D01*
Y1593376D02*
Y1593925D01*
Y1650525D02*
Y1652081D01*
Y1654341D02*
Y1654936D01*
Y1656890D02*
Y1658759D01*
X1969600Y1567853D02*
Y1568313D01*
Y1585022D02*
Y1585453D01*
Y1588766D02*
Y1589208D01*
Y1593402D02*
Y1594008D01*
Y1650353D02*
Y1652257D01*
Y1654341D02*
Y1655273D01*
Y1656805D02*
Y1658992D01*
X1969700Y1555905D02*
Y1557399D01*
Y1567753D02*
Y1568313D01*
Y1584977D02*
Y1585409D01*
Y1588799D02*
Y1589246D01*
Y1593469D02*
Y1594093D01*
Y1650270D02*
Y1651327D01*
Y1651508D02*
Y1652257D01*
Y1654341D02*
Y1655611D01*
Y1656805D02*
Y1659181D01*
X1969800Y1555540D02*
Y1557900D01*
Y1564292D02*
Y1564645D01*
Y1567653D02*
Y1568313D01*
Y1584933D02*
Y1585364D01*
Y1588833D02*
Y1589283D01*
Y1593535D02*
Y1594267D01*
Y1650187D02*
Y1650905D01*
Y1651991D02*
Y1652257D01*
Y1654341D02*
Y1655864D01*
Y1656805D02*
Y1657364D01*
Y1658155D02*
Y1659301D01*
X1969900Y1555256D02*
Y1558202D01*
Y1564212D02*
Y1564565D01*
Y1567553D02*
Y1568313D01*
Y1584888D02*
Y1585320D01*
Y1588866D02*
Y1589321D01*
Y1593602D02*
Y1594442D01*
Y1650103D02*
Y1650698D01*
Y1652166D02*
Y1652257D01*
Y1654341D02*
Y1655864D01*
Y1656805D02*
Y1657012D01*
Y1658626D02*
Y1659421D01*
X1970000Y1555056D02*
Y1558367D01*
Y1564132D02*
Y1564485D01*
Y1567453D02*
Y1568313D01*
Y1584853D02*
Y1585294D01*
Y1588888D02*
Y1589334D01*
Y1593669D02*
Y1595029D01*
Y1650062D02*
Y1650648D01*
Y1654341D02*
Y1654842D01*
Y1655144D02*
Y1655864D01*
Y1658793D02*
Y1659524D01*
X1970100Y1554897D02*
Y1558467D01*
Y1564059D02*
Y1564423D01*
Y1567353D02*
Y1568313D01*
Y1584845D02*
Y1585285D01*
Y1588899D02*
Y1589344D01*
Y1593735D02*
Y1597801D01*
Y1650048D02*
Y1650598D01*
Y1654341D02*
Y1654842D01*
Y1655484D02*
Y1655864D01*
Y1658945D02*
Y1659607D01*
X1970200Y1554797D02*
Y1555914D01*
Y1557322D02*
Y1558567D01*
Y1563999D02*
Y1564363D01*
Y1567253D02*
Y1567777D01*
Y1567933D02*
Y1568313D01*
Y1584837D02*
Y1585275D01*
Y1588910D02*
Y1589354D01*
Y1593911D02*
Y1597801D01*
Y1650034D02*
Y1650567D01*
Y1654341D02*
Y1654842D01*
Y1655824D02*
Y1655864D01*
Y1659078D02*
Y1659690D01*
X1970300Y1554697D02*
Y1555527D01*
Y1557747D02*
Y1558667D01*
Y1563939D02*
Y1564303D01*
Y1567153D02*
Y1567683D01*
Y1567933D02*
Y1568313D01*
Y1584828D02*
Y1585266D01*
Y1588922D02*
Y1589364D01*
Y1594091D02*
Y1597801D01*
Y1650019D02*
Y1650550D01*
Y1654341D02*
Y1654842D01*
Y1659171D02*
Y1659774D01*
X1970400Y1554597D02*
Y1555238D01*
Y1558067D02*
Y1558767D01*
Y1563896D02*
Y1564273D01*
Y1567053D02*
Y1567588D01*
Y1567933D02*
Y1568313D01*
Y1584820D02*
Y1585257D01*
Y1588933D02*
Y1589374D01*
Y1594301D02*
Y1597801D01*
Y1650023D02*
Y1650534D01*
Y1654341D02*
Y1654842D01*
Y1659231D02*
Y1659818D01*
X1970500Y1554497D02*
Y1555118D01*
Y1558217D02*
Y1558837D01*
Y1563880D02*
Y1564253D01*
Y1566953D02*
Y1567494D01*
Y1567933D02*
Y1568313D01*
Y1584812D02*
Y1585248D01*
Y1588944D02*
Y1589384D01*
Y1595001D02*
Y1597801D01*
Y1650037D02*
Y1650517D01*
Y1654341D02*
Y1654842D01*
Y1659291D02*
Y1659861D01*
X1970600Y1554459D02*
Y1554998D01*
Y1558367D02*
Y1558857D01*
Y1563863D02*
Y1564233D01*
Y1566853D02*
Y1567399D01*
Y1567933D02*
Y1568313D01*
Y1584803D02*
Y1585239D01*
Y1588928D02*
Y1589372D01*
Y1650051D02*
Y1650530D01*
Y1654341D02*
Y1654842D01*
Y1659351D02*
Y1659904D01*
X1970700Y1554439D02*
Y1554878D01*
Y1558453D02*
Y1558877D01*
Y1563846D02*
Y1564213D01*
Y1566753D02*
Y1567305D01*
Y1567933D02*
Y1568313D01*
Y1584799D02*
Y1585237D01*
Y1588911D02*
Y1589360D01*
Y1650065D02*
Y1650550D01*
Y1654341D02*
Y1654842D01*
Y1659411D02*
Y1659947D01*
X1970800Y1554419D02*
Y1554836D01*
Y1558482D02*
Y1558896D01*
Y1563827D02*
Y1564193D01*
Y1566653D02*
Y1567210D01*
Y1567933D02*
Y1568313D01*
Y1584811D02*
Y1585237D01*
Y1588895D02*
Y1589347D01*
Y1650100D02*
Y1650570D01*
Y1654341D02*
Y1654842D01*
Y1659471D02*
Y1659975D01*
X1970900Y1554402D02*
Y1554803D01*
Y1558510D02*
Y1558912D01*
Y1563807D02*
Y1564173D01*
Y1566553D02*
Y1567116D01*
Y1567933D02*
Y1568313D01*
Y1584824D02*
Y1585237D01*
Y1588878D02*
Y1589335D01*
Y1650150D02*
Y1650614D01*
Y1654341D02*
Y1654842D01*
Y1659514D02*
Y1660000D01*
X1971000Y1554385D02*
Y1554769D01*
Y1558539D02*
Y1558929D01*
Y1563787D02*
Y1564175D01*
Y1566453D02*
Y1567021D01*
Y1567933D02*
Y1568313D01*
Y1584836D02*
Y1585240D01*
Y1588861D02*
Y1589318D01*
Y1650200D02*
Y1650674D01*
Y1654341D02*
Y1654842D01*
Y1659531D02*
Y1660025D01*
X1971100Y1554369D02*
Y1554739D01*
Y1558565D02*
Y1558946D01*
Y1563795D02*
Y1564192D01*
Y1566353D02*
Y1566927D01*
Y1567933D02*
Y1568313D01*
Y1584849D02*
Y1585280D01*
Y1588845D02*
Y1589289D01*
Y1650259D02*
Y1650734D01*
Y1654341D02*
Y1654842D01*
Y1659548D02*
Y1660050D01*
X1971200Y1554365D02*
Y1554765D01*
Y1558539D02*
Y1558929D01*
Y1563805D02*
Y1564208D01*
Y1566253D02*
Y1566833D01*
Y1567933D02*
Y1568313D01*
Y1584869D02*
Y1585320D01*
Y1588828D02*
Y1589261D01*
Y1650384D02*
Y1650886D01*
Y1654341D02*
Y1654842D01*
Y1659564D02*
Y1660073D01*
X1971300Y1554382D02*
Y1554794D01*
Y1558510D02*
Y1558912D01*
Y1563815D02*
Y1564225D01*
Y1566153D02*
Y1566733D01*
Y1567933D02*
Y1568313D01*
Y1584897D02*
Y1585360D01*
Y1588786D02*
Y1589232D01*
Y1650509D02*
Y1651240D01*
Y1654341D02*
Y1654842D01*
Y1659579D02*
Y1660086D01*
X1971400Y1554399D02*
Y1554823D01*
Y1558482D02*
Y1558896D01*
Y1563825D02*
Y1564286D01*
Y1566041D02*
Y1566633D01*
Y1567933D02*
Y1568313D01*
Y1584926D02*
Y1585432D01*
Y1588726D02*
Y1589202D01*
Y1650781D02*
Y1651957D01*
Y1654341D02*
Y1654842D01*
Y1659594D02*
Y1660098D01*
X1971500Y1554415D02*
Y1554851D01*
Y1558453D02*
Y1558866D01*
Y1563835D02*
Y1564361D01*
Y1565921D02*
Y1566533D01*
Y1567933D02*
Y1568313D01*
Y1584955D02*
Y1585507D01*
Y1588666D02*
Y1589159D01*
Y1650915D02*
Y1651957D01*
Y1654341D02*
Y1654842D01*
Y1659608D02*
Y1660111D01*
X1971600Y1554435D02*
Y1554918D01*
Y1558378D02*
Y1558826D01*
Y1563854D02*
Y1564448D01*
Y1565801D02*
Y1566433D01*
Y1567933D02*
Y1568313D01*
Y1584990D02*
Y1585582D01*
Y1588599D02*
Y1589116D01*
Y1650840D02*
Y1651957D01*
Y1654341D02*
Y1654842D01*
Y1659622D02*
Y1660123D01*
X1971700Y1554455D02*
Y1555018D01*
Y1558258D02*
Y1558786D01*
Y1563925D02*
Y1564582D01*
Y1565588D02*
Y1566333D01*
Y1567933D02*
Y1568313D01*
Y1585040D02*
Y1585657D01*
Y1588524D02*
Y1589073D01*
Y1650490D02*
Y1651957D01*
Y1654341D02*
Y1654842D01*
Y1659625D02*
Y1660127D01*
X1971800Y1554475D02*
Y1555118D01*
Y1558138D02*
Y1558724D01*
Y1563997D02*
Y1564849D01*
Y1565233D02*
Y1566215D01*
Y1567933D02*
Y1568313D01*
Y1585090D02*
Y1585733D01*
Y1588448D02*
Y1589029D01*
Y1650278D02*
Y1651075D01*
Y1654341D02*
Y1654842D01*
Y1659608D02*
Y1660116D01*
X1971900Y1554550D02*
Y1555299D01*
Y1557945D02*
Y1558649D01*
Y1564068D02*
Y1566082D01*
Y1567933D02*
Y1568313D01*
Y1585140D02*
Y1585881D01*
Y1588284D02*
Y1588946D01*
Y1650105D02*
Y1650842D01*
Y1654341D02*
Y1654842D01*
Y1659591D02*
Y1660105D01*
X1972000Y1554625D02*
Y1555633D01*
Y1557612D02*
Y1558566D01*
Y1564145D02*
Y1565948D01*
Y1567933D02*
Y1568313D01*
Y1585215D02*
Y1586031D01*
Y1588117D02*
Y1588863D01*
Y1650038D02*
Y1650636D01*
Y1654341D02*
Y1654842D01*
Y1659575D02*
Y1660094D01*
X1972100Y1554737D02*
Y1556443D01*
Y1556752D02*
Y1558466D01*
Y1564265D02*
Y1565815D01*
Y1567933D02*
Y1568313D01*
Y1585295D02*
Y1586181D01*
Y1587951D02*
Y1588779D01*
Y1649971D02*
Y1650536D01*
Y1654341D02*
Y1654842D01*
Y1659558D02*
Y1660082D01*
X1972200Y1554862D02*
Y1558366D01*
Y1564385D02*
Y1565583D01*
Y1567933D02*
Y1568313D01*
Y1585375D02*
Y1586455D01*
Y1587666D02*
Y1588678D01*
Y1649905D02*
Y1650436D01*
Y1654341D02*
Y1654842D01*
Y1659541D02*
Y1660070D01*
X1972300Y1555039D02*
Y1558167D01*
Y1564684D02*
Y1565239D01*
Y1585520D02*
Y1588558D01*
Y1649880D02*
Y1650387D01*
Y1654341D02*
Y1654842D01*
Y1659525D02*
Y1660041D01*
X1972400Y1555302D02*
Y1557929D01*
Y1585670D02*
Y1588438D01*
Y1649865D02*
Y1650370D01*
Y1654341D02*
Y1654842D01*
Y1659507D02*
Y1660013D01*
X1972500Y1555608D02*
Y1557576D01*
Y1585848D02*
Y1588252D01*
Y1649851D02*
Y1650354D01*
Y1654341D02*
Y1654842D01*
Y1659442D02*
Y1659984D01*
X1972600Y1556008D02*
Y1557176D01*
Y1586048D02*
Y1588019D01*
Y1649837D02*
Y1650337D01*
Y1654341D02*
Y1654842D01*
Y1659375D02*
Y1659956D01*
X1972700Y1586370D02*
Y1587650D01*
Y1649851D02*
Y1650346D01*
Y1654341D02*
Y1654842D01*
Y1659309D02*
Y1659907D01*
X1972800Y1649874D02*
Y1650363D01*
Y1654341D02*
Y1654842D01*
Y1659242D02*
Y1659857D01*
X1972900Y1649896D02*
Y1650380D01*
Y1654341D02*
Y1654842D01*
Y1659175D02*
Y1659807D01*
X1973000Y1649918D02*
Y1650397D01*
Y1654341D02*
Y1654842D01*
Y1659081D02*
Y1659750D01*
X1973100Y1649940D02*
Y1650490D01*
Y1654341D02*
Y1654842D01*
Y1658947D02*
Y1659683D01*
X1973200Y1649991D02*
Y1650590D01*
Y1652428D02*
Y1652438D01*
Y1654341D02*
Y1654842D01*
Y1656805D02*
Y1656849D01*
Y1658814D02*
Y1659616D01*
X1973300Y1650062D02*
Y1650714D01*
Y1652268D02*
Y1652438D01*
Y1654341D02*
Y1654842D01*
Y1656805D02*
Y1657074D01*
Y1658681D02*
Y1659550D01*
X1973400Y1554418D02*
Y1554799D01*
Y1557262D02*
Y1558289D01*
Y1567755D02*
Y1568130D01*
Y1650133D02*
Y1650881D01*
Y1652108D02*
Y1652438D01*
Y1654341D02*
Y1654842D01*
Y1656805D02*
Y1657360D01*
Y1658463D02*
Y1659430D01*
X1973500Y1554418D02*
Y1554799D01*
Y1557029D02*
Y1558409D01*
Y1563845D02*
Y1566076D01*
Y1567805D02*
Y1568187D01*
Y1650205D02*
Y1651303D01*
Y1651551D02*
Y1652438D01*
Y1653319D02*
Y1655864D01*
Y1656805D02*
Y1659305D01*
X1973600Y1554418D02*
Y1554799D01*
Y1556848D02*
Y1558529D01*
Y1563845D02*
Y1566061D01*
Y1567855D02*
Y1568244D01*
Y1650335D02*
Y1652369D01*
Y1653319D02*
Y1655864D01*
Y1656805D02*
Y1659137D01*
X1973700Y1554418D02*
Y1554799D01*
Y1556714D02*
Y1558628D01*
Y1563845D02*
Y1566047D01*
Y1567905D02*
Y1568302D01*
Y1650515D02*
Y1652209D01*
Y1653319D02*
Y1655864D01*
Y1657003D02*
Y1658937D01*
X1973800Y1554418D02*
Y1554799D01*
Y1556581D02*
Y1558700D01*
Y1563845D02*
Y1566033D01*
Y1567937D02*
Y1568323D01*
Y1650695D02*
Y1652049D01*
Y1653319D02*
Y1655864D01*
Y1657228D02*
Y1658614D01*
X1973900Y1554418D02*
Y1554799D01*
Y1556448D02*
Y1557289D01*
Y1558085D02*
Y1558771D01*
Y1563845D02*
Y1566029D01*
Y1567949D02*
Y1568334D01*
X1974000Y1554418D02*
Y1554799D01*
Y1556347D02*
Y1556991D01*
Y1558218D02*
Y1558843D01*
Y1563845D02*
Y1564227D01*
Y1565648D02*
Y1566029D01*
Y1567962D02*
Y1568346D01*
X1974100Y1554418D02*
Y1554799D01*
Y1556247D02*
Y1556868D01*
Y1558334D02*
Y1558891D01*
Y1563845D02*
Y1564226D01*
Y1565648D02*
Y1566029D01*
Y1567974D02*
Y1568357D01*
X1974200Y1554418D02*
Y1554799D01*
Y1556147D02*
Y1556748D01*
Y1558409D02*
Y1558901D01*
Y1563845D02*
Y1564226D01*
Y1565648D02*
Y1566038D01*
Y1567987D02*
Y1568368D01*
X1974300Y1554418D02*
Y1554799D01*
Y1556047D02*
Y1556628D01*
Y1558484D02*
Y1558911D01*
Y1563845D02*
Y1564226D01*
Y1565648D02*
Y1566050D01*
Y1567986D02*
Y1568363D01*
X1974400Y1554418D02*
Y1554799D01*
Y1555947D02*
Y1556527D01*
Y1558515D02*
Y1558921D01*
Y1563845D02*
Y1564226D01*
Y1565655D02*
Y1566063D01*
Y1567971D02*
Y1568345D01*
X1974500Y1554418D02*
Y1554799D01*
Y1555850D02*
Y1556427D01*
Y1558532D02*
Y1558931D01*
Y1563845D02*
Y1564226D01*
Y1565673D02*
Y1566075D01*
Y1567957D02*
Y1568327D01*
X1974600Y1554418D02*
Y1554799D01*
Y1555756D02*
Y1556327D01*
Y1558548D02*
Y1558941D01*
Y1563845D02*
Y1564226D01*
Y1565691D02*
Y1566088D01*
Y1567943D02*
Y1568309D01*
X1974700Y1554418D02*
Y1554799D01*
Y1555661D02*
Y1556227D01*
Y1558565D02*
Y1558934D01*
Y1563845D02*
Y1564226D01*
Y1565710D02*
Y1566129D01*
Y1567922D02*
Y1568291D01*
X1974800Y1554418D02*
Y1554799D01*
Y1555567D02*
Y1556127D01*
Y1558548D02*
Y1558914D01*
Y1563845D02*
Y1564226D01*
Y1565728D02*
Y1566179D01*
Y1567862D02*
Y1568272D01*
X1974900Y1554418D02*
Y1554799D01*
Y1555472D02*
Y1556027D01*
Y1558528D02*
Y1558894D01*
Y1563845D02*
Y1564226D01*
Y1565746D02*
Y1566229D01*
Y1567802D02*
Y1568251D01*
X1975000Y1554418D02*
Y1554799D01*
Y1555378D02*
Y1555927D01*
Y1558508D02*
Y1558877D01*
Y1563845D02*
Y1564226D01*
Y1565764D02*
Y1566280D01*
Y1567742D02*
Y1568196D01*
X1975100Y1554418D02*
Y1554799D01*
Y1555284D02*
Y1555827D01*
Y1558488D02*
Y1558860D01*
Y1563845D02*
Y1564226D01*
Y1565810D02*
Y1566403D01*
Y1567619D02*
Y1568140D01*
X1975200Y1554418D02*
Y1554799D01*
Y1555189D02*
Y1555727D01*
Y1558468D02*
Y1558843D01*
Y1563845D02*
Y1564226D01*
Y1565860D02*
Y1566528D01*
Y1567494D02*
Y1568085D01*
X1975300Y1554418D02*
Y1554799D01*
Y1555095D02*
Y1555627D01*
Y1558448D02*
Y1558822D01*
Y1563845D02*
Y1564226D01*
Y1565910D02*
Y1566855D01*
Y1567126D02*
Y1568029D01*
X1975400Y1554418D02*
Y1554799D01*
Y1555000D02*
Y1555527D01*
Y1558398D02*
Y1558762D01*
Y1563845D02*
Y1564226D01*
Y1565960D02*
Y1567974D01*
X1975500Y1554418D02*
Y1554801D01*
Y1554906D02*
Y1555427D01*
Y1558338D02*
Y1558702D01*
Y1563845D02*
Y1564226D01*
Y1566041D02*
Y1567847D01*
X1975600Y1554418D02*
Y1555327D01*
Y1558278D02*
Y1558638D01*
Y1563845D02*
Y1564226D01*
Y1566216D02*
Y1567707D01*
X1975700Y1554418D02*
Y1555227D01*
Y1558205D02*
Y1558558D01*
Y1566391D02*
Y1567567D01*
X1975800Y1554418D02*
Y1555127D01*
Y1558125D02*
Y1558478D01*
Y1566879D02*
Y1567082D01*
X1975900Y1554418D02*
Y1555027D01*
X1976000Y1554418D02*
Y1554927D01*
X1976600Y1554418D02*
Y1554520D01*
X1976700Y1554418D02*
Y1554684D01*
X1976800Y1554418D02*
Y1554848D01*
X1976900Y1554418D02*
Y1555013D01*
X1977000Y1554418D02*
Y1555177D01*
X1977100Y1554418D02*
Y1555341D01*
Y1557267D02*
Y1557968D01*
X1977200Y1554521D02*
Y1555505D01*
Y1557101D02*
Y1558271D01*
X1977300Y1554696D02*
Y1555670D01*
Y1556954D02*
Y1558446D01*
X1977400Y1554871D02*
Y1555807D01*
Y1556854D02*
Y1558604D01*
X1977500Y1555046D02*
Y1555932D01*
Y1556754D02*
Y1558654D01*
X1977600Y1555221D02*
Y1556064D01*
Y1556680D02*
Y1557317D01*
Y1557973D02*
Y1558704D01*
X1977700Y1555396D02*
Y1556204D01*
Y1556642D02*
Y1557165D01*
Y1558123D02*
Y1558754D01*
X1977800Y1555571D02*
Y1556270D01*
Y1556605D02*
Y1557034D01*
Y1558254D02*
Y1558804D01*
X1977900Y1555721D02*
Y1556337D01*
Y1556567D02*
Y1556974D01*
Y1558305D02*
Y1558833D01*
X1978000Y1555846D02*
Y1556404D01*
Y1556530D02*
Y1556914D01*
Y1558355D02*
Y1558844D01*
X1978100Y1555971D02*
Y1556854D01*
Y1558390D02*
Y1558856D01*
X1978200Y1556105D02*
Y1556831D01*
Y1558404D02*
Y1558867D01*
X1978300Y1556220D02*
Y1556814D01*
Y1558418D02*
Y1558878D01*
X1978400Y1556253D02*
Y1556797D01*
Y1558432D02*
Y1558886D01*
X1978500Y1556285D02*
Y1556782D01*
Y1558445D02*
Y1558886D01*
X1978600Y1556310D02*
Y1556782D01*
Y1558445D02*
Y1558886D01*
X1978700Y1556335D02*
Y1556782D01*
Y1558445D02*
Y1558886D01*
X1978800Y1556341D02*
Y1556782D01*
Y1558445D02*
Y1558886D01*
X1978900Y1556341D02*
Y1556782D01*
Y1558445D02*
Y1558886D01*
X1979000Y1556341D02*
Y1556782D01*
Y1558445D02*
Y1558886D01*
X1979100Y1556341D02*
Y1556782D01*
Y1558445D02*
Y1558886D01*
X1979200Y1556311D02*
Y1556813D01*
Y1558415D02*
Y1558886D01*
X1979300Y1554418D02*
Y1558886D01*
X1979400Y1554418D02*
Y1558886D01*
X1979500Y1554418D02*
Y1558886D01*
X1979600Y1554418D02*
Y1558886D01*
X1979700Y1554418D02*
Y1558886D01*
X2001800Y1593058D02*
Y1593535D01*
X2001900Y1589950D02*
Y1590331D01*
Y1592692D02*
Y1593873D01*
X2002000Y1589950D02*
Y1590331D01*
Y1592458D02*
Y1593993D01*
X2002100Y1589950D02*
Y1590331D01*
Y1592321D02*
Y1594113D01*
X2002200Y1589950D02*
Y1590331D01*
Y1592188D02*
Y1594191D01*
X2002300Y1589950D02*
Y1590331D01*
Y1592055D02*
Y1593055D01*
Y1593385D02*
Y1594263D01*
X2002400Y1589950D02*
Y1590331D01*
Y1591935D02*
Y1592690D01*
Y1593675D02*
Y1594334D01*
X2002500Y1589950D02*
Y1590331D01*
Y1591835D02*
Y1592468D01*
Y1593808D02*
Y1594406D01*
X2002600Y1589950D02*
Y1590331D01*
Y1591735D02*
Y1592348D01*
Y1593898D02*
Y1594428D01*
X2002700Y1589950D02*
Y1590331D01*
Y1591635D02*
Y1592228D01*
Y1593973D02*
Y1594438D01*
X2002800Y1589950D02*
Y1590331D01*
Y1591535D02*
Y1592115D01*
Y1594038D02*
Y1594448D01*
X2002900Y1589950D02*
Y1590331D01*
Y1591435D02*
Y1592015D01*
Y1594054D02*
Y1594458D01*
X2003000Y1589950D02*
Y1590331D01*
Y1591341D02*
Y1591915D01*
Y1594071D02*
Y1594468D01*
X2003100Y1589950D02*
Y1590331D01*
Y1591246D02*
Y1591815D01*
Y1594088D02*
Y1594478D01*
X2003200Y1589950D02*
Y1590331D01*
Y1591152D02*
Y1591715D01*
Y1594091D02*
Y1594458D01*
X2003300Y1589950D02*
Y1590331D01*
Y1591057D02*
Y1591615D01*
Y1594071D02*
Y1594438D01*
X2003400Y1589950D02*
Y1590331D01*
Y1590963D02*
Y1591515D01*
Y1594051D02*
Y1594418D01*
X2003500Y1589950D02*
Y1590331D01*
Y1590869D02*
Y1591415D01*
Y1594031D02*
Y1594401D01*
X2003600Y1589950D02*
Y1590331D01*
Y1590774D02*
Y1591315D01*
Y1594011D02*
Y1594384D01*
X2003700Y1589950D02*
Y1590331D01*
Y1590680D02*
Y1591215D01*
Y1593991D02*
Y1594368D01*
X2003800Y1589950D02*
Y1590331D01*
Y1590585D02*
Y1591115D01*
Y1593963D02*
Y1594328D01*
X2003900Y1589950D02*
Y1590331D01*
Y1590491D02*
Y1591015D01*
Y1593903D02*
Y1594268D01*
X2004000Y1589950D02*
Y1590915D01*
Y1593843D02*
Y1594208D01*
X2004100Y1589950D02*
Y1590815D01*
Y1593782D02*
Y1594135D01*
X2004200Y1589950D02*
Y1590715D01*
Y1593702D02*
Y1594055D01*
X2004300Y1589950D02*
Y1590615D01*
Y1593622D02*
Y1593975D01*
X2004400Y1589950D02*
Y1590515D01*
X2004500Y1589950D02*
Y1590415D01*
X2005500Y1591337D02*
Y1594418D01*
X2005600Y1590987D02*
Y1594418D01*
X2005700Y1590680D02*
Y1594418D01*
X2005800Y1590493D02*
Y1594418D01*
X2005900Y1590360D02*
Y1594418D01*
X2006000Y1590258D02*
Y1591675D01*
X2006100Y1590158D02*
Y1591014D01*
X2006200Y1590097D02*
Y1590839D01*
X2006300Y1590057D02*
Y1590664D01*
X2006400Y1590017D02*
Y1590576D01*
X2006500Y1589982D02*
Y1590496D01*
X2006600Y1589949D02*
Y1590416D01*
X2006700Y1589915D02*
Y1590384D01*
X2006800Y1589890D02*
Y1590371D01*
X2006900Y1589890D02*
Y1590359D01*
X2007000Y1589890D02*
Y1590346D01*
X2007100Y1589890D02*
Y1590334D01*
X2007200Y1589892D02*
Y1590339D01*
X2007300Y1589909D02*
Y1590352D01*
X2007400Y1589926D02*
Y1590364D01*
X2007500Y1589942D02*
Y1590377D01*
X2007600Y1589959D02*
Y1590389D01*
X2007700Y1589976D02*
Y1590451D01*
X2007800Y1589992D02*
Y1590534D01*
X2007900Y1590013D02*
Y1590617D01*
X2008000Y1590080D02*
Y1590701D01*
X2008100Y1590146D02*
Y1590867D01*
X2008200Y1590213D02*
Y1591042D01*
X2008300Y1590280D02*
Y1591547D01*
X2008400Y1590346D02*
Y1594418D01*
X2008500Y1590510D02*
Y1594418D01*
X2008600Y1590690D02*
Y1594418D01*
X2008700Y1590870D02*
Y1594418D01*
X2008800Y1591549D02*
Y1594418D01*
X2013400Y1660260D02*
Y1660547D01*
X2013500Y1659837D02*
Y1660874D01*
X2013600Y1659697D02*
Y1661024D01*
Y1662340D02*
Y1662968D01*
X2013700Y1659557D02*
Y1661133D01*
Y1662074D02*
Y1663159D01*
X2013800Y1659435D02*
Y1661183D01*
Y1661893D02*
Y1663279D01*
X2013900Y1659379D02*
Y1660218D01*
Y1660522D02*
Y1661233D01*
Y1661813D02*
Y1663398D01*
X2014000Y1659324D02*
Y1659924D01*
Y1660816D02*
Y1661283D01*
Y1661733D02*
Y1663455D01*
X2014100Y1659268D02*
Y1659824D01*
Y1660916D02*
Y1661312D01*
Y1661667D02*
Y1662247D01*
Y1662744D02*
Y1663512D01*
X2014200Y1659213D02*
Y1659726D01*
Y1661014D02*
Y1661341D01*
Y1661633D02*
Y1662019D01*
Y1663015D02*
Y1663569D01*
X2014300Y1659157D02*
Y1659666D01*
Y1661057D02*
Y1661370D01*
Y1661600D02*
Y1661852D01*
Y1663134D02*
Y1663626D01*
X2014400Y1659148D02*
Y1659606D01*
Y1661100D02*
Y1661398D01*
Y1661567D02*
Y1661802D01*
Y1663174D02*
Y1663638D01*
X2014500Y1659138D02*
Y1659546D01*
Y1661143D02*
Y1661769D01*
Y1663214D02*
Y1663649D01*
X2014600Y1659129D02*
Y1659528D01*
Y1661186D02*
Y1661735D01*
Y1663248D02*
Y1663660D01*
X2014700Y1659120D02*
Y1659513D01*
Y1661208D02*
Y1661703D01*
Y1663265D02*
Y1663672D01*
X2014800Y1659111D02*
Y1659499D01*
Y1661219D02*
Y1661690D01*
Y1663281D02*
Y1663683D01*
X2014900Y1659102D02*
Y1659485D01*
Y1661230D02*
Y1661678D01*
Y1663298D02*
Y1663678D01*
X2015000Y1659103D02*
Y1659484D01*
Y1661241D02*
Y1661665D01*
Y1663299D02*
Y1663666D01*
X2015100Y1659113D02*
Y1659494D01*
Y1661252D02*
Y1661653D01*
Y1663286D02*
Y1663655D01*
X2015200Y1659123D02*
Y1659504D01*
Y1661261D02*
Y1661642D01*
Y1663274D02*
Y1663644D01*
X2015300Y1659133D02*
Y1659514D01*
Y1661261D02*
Y1661642D01*
Y1663261D02*
Y1663633D01*
X2015400Y1659143D02*
Y1659524D01*
Y1661261D02*
Y1661642D01*
Y1663249D02*
Y1663604D01*
X2015500Y1659153D02*
Y1659534D01*
Y1663211D02*
Y1663554D01*
X2015600Y1659199D02*
Y1659562D01*
Y1663154D02*
Y1663504D01*
X2015700Y1659262D02*
Y1659624D01*
Y1663097D02*
Y1663454D01*
X2015800Y1659324D02*
Y1659687D01*
X2015900Y1659387D02*
Y1659749D01*
X2016900Y1662200D02*
Y1662827D01*
X2017000Y1659158D02*
Y1659539D01*
Y1661878D02*
Y1663092D01*
X2017100Y1659158D02*
Y1659539D01*
Y1661650D02*
Y1663212D01*
X2017200Y1659158D02*
Y1659539D01*
Y1661517D02*
Y1663332D01*
X2017300Y1659158D02*
Y1659539D01*
Y1661383D02*
Y1663406D01*
X2017400Y1659158D02*
Y1659539D01*
Y1661250D02*
Y1662216D01*
Y1662649D02*
Y1663477D01*
X2017500Y1659158D02*
Y1659539D01*
Y1661134D02*
Y1661870D01*
Y1662895D02*
Y1663549D01*
X2017600Y1659158D02*
Y1659539D01*
Y1661034D02*
Y1661665D01*
Y1663029D02*
Y1663620D01*
X2017700Y1659158D02*
Y1659539D01*
Y1660934D02*
Y1661545D01*
Y1663113D02*
Y1663636D01*
X2017800Y1659158D02*
Y1659539D01*
Y1660834D02*
Y1661425D01*
Y1663188D02*
Y1663646D01*
X2017900Y1659158D02*
Y1659539D01*
Y1660734D02*
Y1661313D01*
Y1663247D02*
Y1663656D01*
X2018000Y1659158D02*
Y1659539D01*
Y1660634D02*
Y1661213D01*
Y1663264D02*
Y1663666D01*
X2018100Y1659158D02*
Y1659539D01*
Y1660540D02*
Y1661113D01*
Y1663280D02*
Y1663676D01*
X2018200Y1659158D02*
Y1659539D01*
Y1660445D02*
Y1661013D01*
Y1663297D02*
Y1663684D01*
X2018300Y1659158D02*
Y1659539D01*
Y1660351D02*
Y1660913D01*
Y1663297D02*
Y1663664D01*
X2018400Y1659158D02*
Y1659539D01*
Y1660257D02*
Y1660813D01*
Y1663277D02*
Y1663644D01*
X2018500Y1659158D02*
Y1659539D01*
Y1660162D02*
Y1660713D01*
Y1663257D02*
Y1663624D01*
X2018600Y1659158D02*
Y1659539D01*
Y1660068D02*
Y1660613D01*
Y1663237D02*
Y1663607D01*
X2018700Y1659158D02*
Y1659539D01*
Y1659973D02*
Y1660513D01*
Y1663217D02*
Y1663591D01*
X2018800Y1659158D02*
Y1659539D01*
Y1659879D02*
Y1660413D01*
Y1663197D02*
Y1663574D01*
X2018900Y1659158D02*
Y1659539D01*
Y1659784D02*
Y1660313D01*
Y1663166D02*
Y1663530D01*
X2019000Y1659158D02*
Y1659539D01*
Y1659690D02*
Y1660213D01*
Y1663106D02*
Y1663470D01*
X2019100Y1659158D02*
Y1660113D01*
Y1663046D02*
Y1663410D01*
X2019200Y1659158D02*
Y1660013D01*
Y1662982D02*
Y1663335D01*
X2019300Y1659158D02*
Y1659913D01*
Y1662902D02*
Y1663255D01*
X2019400Y1659158D02*
Y1659813D01*
Y1662822D02*
Y1663175D01*
X2019500Y1659158D02*
Y1659713D01*
X2019600Y1659158D02*
Y1659613D01*
X2020600Y1660512D02*
Y1663626D01*
X2020700Y1660162D02*
Y1663626D01*
X2020800Y1659860D02*
Y1663626D01*
X2020900Y1659689D02*
Y1663626D01*
X2021000Y1659557D02*
Y1663626D01*
X2021100Y1659457D02*
Y1660790D01*
X2021200Y1659357D02*
Y1660206D01*
X2021300Y1659301D02*
Y1660031D01*
X2021400Y1659261D02*
Y1659857D01*
X2021500Y1659221D02*
Y1659776D01*
X2021600Y1659187D02*
Y1659696D01*
X2021700Y1659153D02*
Y1659616D01*
X2021800Y1659120D02*
Y1659591D01*
X2021900Y1659098D02*
Y1659578D01*
X2022000Y1659098D02*
Y1659566D01*
X2022100Y1659098D02*
Y1659553D01*
X2022200Y1659098D02*
Y1659541D01*
X2022300Y1659102D02*
Y1659548D01*
X2022400Y1659118D02*
Y1659561D01*
X2022500Y1659135D02*
Y1659573D01*
X2022600Y1659152D02*
Y1659586D01*
X2022700Y1659168D02*
Y1659598D01*
X2022800Y1659185D02*
Y1659666D01*
X2022900Y1659202D02*
Y1659749D01*
X2023000Y1659227D02*
Y1659833D01*
X2023100Y1659294D02*
Y1659917D01*
X2023200Y1659360D02*
Y1660091D01*
X2023300Y1659427D02*
Y1660266D01*
X2023400Y1651790D02*
Y1652230D01*
Y1659494D02*
Y1660847D01*
X2023500Y1651403D02*
Y1652749D01*
Y1655264D02*
Y1657145D01*
Y1659560D02*
Y1663626D01*
X2023600Y1651263D02*
Y1652916D01*
Y1655064D02*
Y1657145D01*
Y1659735D02*
Y1663626D01*
X2023700Y1651123D02*
Y1653066D01*
Y1654864D02*
Y1657145D01*
Y1659915D02*
Y1663626D01*
X2023800Y1651030D02*
Y1651848D01*
Y1652395D02*
Y1653191D01*
Y1654780D02*
Y1657145D01*
Y1660122D02*
Y1663626D01*
X2023900Y1650946D02*
Y1651650D01*
Y1652808D02*
Y1653298D01*
Y1654723D02*
Y1655728D01*
Y1656639D02*
Y1657145D01*
Y1660822D02*
Y1663626D01*
X2024000Y1650863D02*
Y1651517D01*
Y1652975D02*
Y1653298D01*
Y1654666D02*
Y1655363D01*
Y1656644D02*
Y1657145D01*
X2024100Y1650807D02*
Y1651438D01*
Y1653125D02*
Y1653298D01*
Y1654608D02*
Y1655210D01*
Y1656644D02*
Y1657145D01*
X2024200Y1650796D02*
Y1651363D01*
Y1653250D02*
Y1653298D01*
Y1654577D02*
Y1655135D01*
Y1656644D02*
Y1657145D01*
X2024300Y1650785D02*
Y1651311D01*
Y1654552D02*
Y1655060D01*
Y1656644D02*
Y1657145D01*
X2024400Y1650774D02*
Y1651294D01*
Y1654527D02*
Y1655028D01*
Y1656644D02*
Y1657145D01*
X2024500Y1650763D02*
Y1651277D01*
Y1654502D02*
Y1655008D01*
Y1656644D02*
Y1657145D01*
X2024600Y1650756D02*
Y1651261D01*
Y1654482D02*
Y1654988D01*
Y1656644D02*
Y1657145D01*
X2024700Y1650770D02*
Y1651265D01*
Y1654495D02*
Y1654990D01*
Y1656644D02*
Y1657145D01*
X2024800Y1650785D02*
Y1651285D01*
Y1654507D02*
Y1655006D01*
Y1656644D02*
Y1657145D01*
X2024900Y1650799D02*
Y1651305D01*
Y1654520D02*
Y1655023D01*
Y1656644D02*
Y1657145D01*
X2025000Y1650816D02*
Y1651331D01*
Y1654532D02*
Y1655040D01*
Y1656644D02*
Y1657145D01*
X2025100Y1650859D02*
Y1651364D01*
Y1654570D02*
Y1655101D01*
Y1656644D02*
Y1657145D01*
X2025200Y1650902D02*
Y1651397D01*
Y1654630D02*
Y1655176D01*
Y1656644D02*
Y1657145D01*
X2025300Y1641188D02*
Y1641569D01*
Y1650945D02*
Y1651431D01*
Y1654690D02*
Y1655268D01*
Y1656644D02*
Y1657145D01*
X2025400Y1641188D02*
Y1641569D01*
Y1650988D02*
Y1651500D01*
Y1654777D02*
Y1655435D01*
Y1656644D02*
Y1657145D01*
X2025500Y1641188D02*
Y1641569D01*
Y1651063D02*
Y1651583D01*
Y1654877D02*
Y1655724D01*
Y1656641D02*
Y1657145D01*
X2025600Y1641188D02*
Y1641569D01*
Y1651138D02*
Y1651666D01*
Y1654977D02*
Y1657145D01*
X2025700Y1641188D02*
Y1641569D01*
Y1651213D02*
Y1651750D01*
Y1655208D02*
Y1657145D01*
X2025800Y1641188D02*
Y1641569D01*
Y1651288D02*
Y1651850D01*
Y1655474D02*
Y1657145D01*
X2025900Y1640046D02*
Y1644514D01*
Y1651370D02*
Y1651950D01*
Y1655459D02*
Y1657145D01*
X2026000Y1640046D02*
Y1644514D01*
Y1651470D02*
Y1652050D01*
Y1655309D02*
Y1656067D01*
Y1656637D02*
Y1657145D01*
X2026100Y1640046D02*
Y1644514D01*
Y1651570D02*
Y1652150D01*
Y1655159D02*
Y1655731D01*
Y1656644D02*
Y1657145D01*
X2026200Y1640046D02*
Y1644514D01*
Y1651670D02*
Y1652250D01*
Y1655074D02*
Y1655649D01*
Y1656644D02*
Y1657145D01*
X2026300Y1640046D02*
Y1644514D01*
Y1651770D02*
Y1652350D01*
Y1655007D02*
Y1655574D01*
Y1656644D02*
Y1657145D01*
X2026400Y1641184D02*
Y1641574D01*
Y1644069D02*
Y1644514D01*
Y1651870D02*
Y1652450D01*
Y1654927D02*
Y1655496D01*
Y1656644D02*
Y1657145D01*
X2026500Y1641188D02*
Y1641569D01*
Y1643944D02*
Y1644514D01*
Y1651975D02*
Y1652550D01*
Y1654847D02*
Y1655416D01*
Y1656644D02*
Y1657145D01*
X2026600Y1641188D02*
Y1641569D01*
Y1643754D02*
Y1644384D01*
Y1652081D02*
Y1652650D01*
Y1654768D02*
Y1655336D01*
Y1656644D02*
Y1657145D01*
X2026700Y1641188D02*
Y1641569D01*
Y1643602D02*
Y1644233D01*
Y1652187D02*
Y1652750D01*
Y1654707D02*
Y1655266D01*
Y1656644D02*
Y1657145D01*
X2026800Y1641188D02*
Y1641569D01*
Y1643447D02*
Y1644081D01*
Y1652293D02*
Y1652850D01*
Y1654646D02*
Y1655209D01*
Y1656644D02*
Y1657145D01*
X2026900Y1641188D02*
Y1641569D01*
Y1643293D02*
Y1643930D01*
Y1652399D02*
Y1652950D01*
Y1654586D02*
Y1655152D01*
Y1656644D02*
Y1657145D01*
X2027000Y1641188D02*
Y1641569D01*
Y1643138D02*
Y1643778D01*
Y1652505D02*
Y1653050D01*
Y1654525D02*
Y1655094D01*
Y1656644D02*
Y1657145D01*
X2027100Y1641188D02*
Y1641569D01*
Y1642984D02*
Y1643627D01*
Y1652611D02*
Y1653150D01*
Y1654464D02*
Y1655037D01*
Y1656644D02*
Y1657145D01*
X2027200Y1641188D02*
Y1641569D01*
Y1642829D02*
Y1643475D01*
Y1652717D02*
Y1653250D01*
Y1654403D02*
Y1654980D01*
Y1656644D02*
Y1657145D01*
X2027300Y1641188D02*
Y1641569D01*
Y1642675D02*
Y1643323D01*
Y1652822D02*
Y1653350D01*
Y1654342D02*
Y1654923D01*
Y1656644D02*
Y1657145D01*
X2027400Y1641188D02*
Y1641569D01*
Y1642520D02*
Y1643172D01*
Y1652928D02*
Y1653450D01*
Y1654281D02*
Y1654866D01*
Y1656644D02*
Y1657145D01*
X2027500Y1641188D02*
Y1641569D01*
Y1642365D02*
Y1643020D01*
Y1652965D02*
Y1653538D01*
Y1654220D02*
Y1654809D01*
Y1656644D02*
Y1657145D01*
X2027600Y1641188D02*
Y1641569D01*
Y1642211D02*
Y1642869D01*
Y1650813D02*
Y1653538D01*
Y1654159D02*
Y1654752D01*
Y1656644D02*
Y1657145D01*
X2027700Y1641188D02*
Y1641569D01*
Y1642056D02*
Y1642717D01*
Y1650813D02*
Y1653538D01*
Y1654099D02*
Y1654694D01*
Y1656644D02*
Y1657145D01*
X2027800Y1641188D02*
Y1641569D01*
Y1641902D02*
Y1642566D01*
Y1650813D02*
Y1653538D01*
Y1654038D02*
Y1654637D01*
Y1656644D02*
Y1657145D01*
X2027900Y1641188D02*
Y1641569D01*
Y1641747D02*
Y1642414D01*
X2028000Y1641188D02*
Y1642263D01*
X2028100Y1641188D02*
Y1642111D01*
X2028200Y1641188D02*
Y1641960D01*
X2028300Y1641188D02*
Y1641808D01*
X2028400Y1641188D02*
Y1641657D01*
X2029000Y1640046D02*
Y1640427D01*
X2029100Y1640046D02*
Y1640427D01*
X2029200Y1640046D02*
Y1640427D01*
X2029300Y1640046D02*
Y1640427D01*
X2029400Y1640046D02*
Y1640427D01*
X2029500Y1640046D02*
Y1640427D01*
X2029600Y1640046D02*
Y1640427D01*
X2029700Y1640046D02*
Y1640427D01*
X2029800Y1640046D02*
Y1640427D01*
X2029900Y1640046D02*
Y1640427D01*
X2030000Y1640046D02*
Y1640440D01*
X2030100Y1640046D02*
Y1644533D01*
X2030200Y1640046D02*
Y1644503D01*
X2030300Y1640046D02*
Y1644474D01*
X2030400Y1640046D02*
Y1644444D01*
X2030500Y1640046D02*
Y1644414D01*
X2030600Y1640046D02*
Y1640427D01*
Y1643946D02*
Y1644385D01*
X2030700Y1640046D02*
Y1640427D01*
Y1643917D02*
Y1644355D01*
X2030800Y1587864D02*
Y1588244D01*
Y1640046D02*
Y1640427D01*
Y1643887D02*
Y1644326D01*
X2030900Y1587864D02*
Y1588244D01*
Y1640046D02*
Y1640427D01*
Y1643858D02*
Y1644296D01*
X2031000Y1577343D02*
Y1577530D01*
Y1582373D02*
Y1582534D01*
Y1587864D02*
Y1588244D01*
Y1640046D02*
Y1640427D01*
Y1643828D02*
Y1644266D01*
X2031100Y1576894D02*
Y1577905D01*
Y1581873D02*
Y1583034D01*
Y1587864D02*
Y1588244D01*
Y1640046D02*
Y1640427D01*
Y1643799D02*
Y1644237D01*
X2031200Y1576754D02*
Y1578055D01*
Y1579445D02*
Y1579952D01*
Y1581733D02*
Y1583211D01*
Y1585209D02*
Y1585589D01*
Y1587864D02*
Y1588244D01*
Y1640046D02*
Y1640427D01*
Y1643770D02*
Y1644207D01*
X2031300Y1576614D02*
Y1578173D01*
Y1579136D02*
Y1580193D01*
Y1581593D02*
Y1583386D01*
Y1585209D02*
Y1585589D01*
Y1587863D02*
Y1588245D01*
Y1640046D02*
Y1640427D01*
Y1643740D02*
Y1644177D01*
X2031400Y1576484D02*
Y1578223D01*
Y1578944D02*
Y1580313D01*
Y1581463D02*
Y1583473D01*
Y1585209D02*
Y1585589D01*
Y1586722D02*
Y1591190D01*
Y1640046D02*
Y1640427D01*
Y1643711D02*
Y1644148D01*
X2031500Y1576429D02*
Y1577314D01*
Y1577514D02*
Y1578273D01*
Y1578864D02*
Y1580433D01*
Y1581408D02*
Y1582338D01*
Y1582554D02*
Y1583523D01*
Y1585209D02*
Y1585589D01*
Y1586722D02*
Y1591190D01*
Y1640046D02*
Y1640427D01*
Y1643681D02*
Y1644118D01*
X2031600Y1576373D02*
Y1576977D01*
Y1577852D02*
Y1578323D01*
Y1578784D02*
Y1580494D01*
Y1581352D02*
Y1581946D01*
Y1582902D02*
Y1583573D01*
Y1585209D02*
Y1585589D01*
Y1586722D02*
Y1591190D01*
X2031700Y1576317D02*
Y1576877D01*
Y1577952D02*
Y1578354D01*
Y1578714D02*
Y1579335D01*
Y1579736D02*
Y1580551D01*
Y1581297D02*
Y1581821D01*
Y1583027D02*
Y1583623D01*
Y1585209D02*
Y1585589D01*
Y1586722D02*
Y1591190D01*
X2031800Y1576262D02*
Y1576777D01*
Y1578052D02*
Y1578383D01*
Y1578681D02*
Y1579078D01*
Y1580042D02*
Y1580609D01*
Y1581241D02*
Y1581696D01*
Y1583151D02*
Y1583670D01*
Y1585209D02*
Y1585589D01*
Y1586722D02*
Y1591190D01*
X2031900Y1576206D02*
Y1576716D01*
Y1578098D02*
Y1578411D01*
Y1578647D02*
Y1578911D01*
Y1580175D02*
Y1580666D01*
Y1581186D02*
Y1581635D01*
Y1583204D02*
Y1583688D01*
Y1585209D02*
Y1585589D01*
Y1587864D02*
Y1588244D01*
Y1590748D02*
Y1591190D01*
X2032000Y1576193D02*
Y1576656D01*
Y1578141D02*
Y1578440D01*
Y1578614D02*
Y1578849D01*
Y1580215D02*
Y1580682D01*
Y1581163D02*
Y1581575D01*
Y1583254D02*
Y1583706D01*
Y1585209D02*
Y1585589D01*
Y1587864D02*
Y1588244D01*
Y1590541D02*
Y1591171D01*
X2032100Y1576184D02*
Y1576596D01*
Y1578184D02*
Y1578816D01*
Y1580255D02*
Y1580693D01*
Y1581145D02*
Y1581515D01*
Y1583304D02*
Y1583724D01*
Y1585209D02*
Y1585589D01*
Y1587864D02*
Y1588244D01*
Y1590391D02*
Y1591020D01*
X2032200Y1576175D02*
Y1576573D01*
Y1578226D02*
Y1578783D01*
Y1580291D02*
Y1580704D01*
Y1581127D02*
Y1581492D01*
Y1583346D02*
Y1583743D01*
Y1585209D02*
Y1585589D01*
Y1587864D02*
Y1588244D01*
Y1590237D02*
Y1590868D01*
X2032300Y1576165D02*
Y1576559D01*
Y1578251D02*
Y1578749D01*
Y1580308D02*
Y1580715D01*
Y1581109D02*
Y1581478D01*
Y1583359D02*
Y1583761D01*
Y1585209D02*
Y1585589D01*
Y1587864D02*
Y1588244D01*
Y1590082D02*
Y1590717D01*
X2032400Y1576156D02*
Y1576545D01*
Y1578262D02*
Y1578736D01*
Y1580324D02*
Y1580726D01*
Y1581090D02*
Y1581464D01*
Y1583371D02*
Y1583779D01*
Y1585209D02*
Y1585589D01*
Y1587864D02*
Y1588244D01*
Y1589928D02*
Y1590565D01*
X2032500Y1576147D02*
Y1576530D01*
Y1578273D02*
Y1578723D01*
Y1580341D02*
Y1580723D01*
Y1581072D02*
Y1581449D01*
Y1583384D02*
Y1583786D01*
Y1585209D02*
Y1585589D01*
Y1587864D02*
Y1588244D01*
Y1589773D02*
Y1590414D01*
Y1640261D02*
Y1640692D01*
Y1643919D02*
Y1644356D01*
X2032600Y1576147D02*
Y1576527D01*
Y1578284D02*
Y1578711D01*
Y1580344D02*
Y1580712D01*
Y1581066D02*
Y1581447D01*
Y1583396D02*
Y1583786D01*
Y1585209D02*
Y1585589D01*
Y1587864D02*
Y1588244D01*
Y1589619D02*
Y1590262D01*
Y1640217D02*
Y1640648D01*
Y1643952D02*
Y1644394D01*
X2032700Y1576157D02*
Y1576537D01*
Y1578295D02*
Y1578698D01*
Y1580332D02*
Y1580701D01*
Y1581077D02*
Y1581460D01*
Y1583405D02*
Y1583786D01*
Y1585209D02*
Y1585589D01*
Y1587864D02*
Y1588244D01*
Y1589464D02*
Y1590111D01*
Y1640172D02*
Y1640604D01*
Y1643985D02*
Y1644431D01*
X2032800Y1576167D02*
Y1576547D01*
Y1578306D02*
Y1578687D01*
Y1580319D02*
Y1580690D01*
Y1581089D02*
Y1581472D01*
Y1583405D02*
Y1583786D01*
Y1585208D02*
Y1585589D01*
Y1587864D02*
Y1588244D01*
Y1589310D02*
Y1589959D01*
Y1640128D02*
Y1640559D01*
Y1644019D02*
Y1644469D01*
X2032900Y1576177D02*
Y1576557D01*
Y1578306D02*
Y1578687D01*
Y1580307D02*
Y1580678D01*
Y1581100D02*
Y1581485D01*
Y1583405D02*
Y1585589D01*
Y1587864D02*
Y1588244D01*
Y1589155D02*
Y1589808D01*
Y1640083D02*
Y1640515D01*
Y1644052D02*
Y1644506D01*
X2033000Y1576187D02*
Y1576567D01*
Y1578306D02*
Y1578687D01*
Y1580294D02*
Y1580653D01*
Y1581111D02*
Y1581497D01*
Y1583403D02*
Y1585589D01*
Y1587864D02*
Y1588244D01*
Y1589001D02*
Y1589656D01*
Y1640044D02*
Y1640485D01*
Y1644077D02*
Y1644523D01*
X2033100Y1576197D02*
Y1576577D01*
Y1578306D02*
Y1578687D01*
Y1580261D02*
Y1580603D01*
Y1581131D02*
Y1581528D01*
Y1583388D02*
Y1585589D01*
Y1587864D02*
Y1588244D01*
Y1588846D02*
Y1589505D01*
Y1640036D02*
Y1640475D01*
Y1644088D02*
Y1644533D01*
X2033200Y1576238D02*
Y1576601D01*
Y1580204D02*
Y1580553D01*
Y1581188D02*
Y1581578D01*
Y1583374D02*
Y1585589D01*
Y1587864D02*
Y1588244D01*
Y1588691D02*
Y1589353D01*
Y1640028D02*
Y1640466D01*
Y1644099D02*
Y1644543D01*
X2033300Y1576301D02*
Y1576663D01*
Y1580147D02*
Y1580503D01*
Y1581245D02*
Y1581628D01*
Y1583360D02*
Y1585589D01*
Y1587864D02*
Y1588244D01*
Y1588537D02*
Y1589202D01*
Y1640019D02*
Y1640457D01*
Y1644110D02*
Y1644553D01*
X2033400Y1576363D02*
Y1576726D01*
Y1580089D02*
Y1580453D01*
Y1581302D02*
Y1581678D01*
Y1587864D02*
Y1588245D01*
Y1588382D02*
Y1589050D01*
Y1640011D02*
Y1640448D01*
Y1644121D02*
Y1644563D01*
X2033500Y1576426D02*
Y1576788D01*
Y1587864D02*
Y1588899D01*
Y1640003D02*
Y1640439D01*
Y1644132D02*
Y1644573D01*
X2033600Y1587864D02*
Y1588747D01*
Y1639994D02*
Y1640430D01*
Y1644120D02*
Y1644563D01*
X2033700Y1587864D02*
Y1588596D01*
Y1639987D02*
Y1640427D01*
Y1644103D02*
Y1644551D01*
X2033800Y1587864D02*
Y1588444D01*
Y1640000D02*
Y1640427D01*
Y1644086D02*
Y1644538D01*
X2033900Y1587864D02*
Y1588293D01*
Y1640012D02*
Y1640427D01*
Y1644070D02*
Y1644526D01*
X2034000Y1640025D02*
Y1640428D01*
Y1644053D02*
Y1644511D01*
X2034100Y1640037D02*
Y1640466D01*
Y1644036D02*
Y1644482D01*
X2034200Y1640056D02*
Y1640506D01*
Y1644020D02*
Y1644454D01*
X2034300Y1640084D02*
Y1640546D01*
Y1643982D02*
Y1644425D01*
X2034400Y1640113D02*
Y1640614D01*
Y1643922D02*
Y1644396D01*
X2034500Y1576385D02*
Y1576816D01*
Y1580099D02*
Y1580539D01*
Y1581304D02*
Y1581735D01*
Y1585018D02*
Y1585459D01*
Y1586904D02*
Y1587336D01*
Y1590618D02*
Y1591059D01*
Y1640141D02*
Y1640689D01*
Y1643862D02*
Y1644353D01*
X2034600Y1576340D02*
Y1576772D01*
Y1580132D02*
Y1580577D01*
Y1581259D02*
Y1581691D01*
Y1585051D02*
Y1585496D01*
Y1586860D02*
Y1587291D01*
Y1590651D02*
Y1591096D01*
Y1640175D02*
Y1640764D01*
Y1643797D02*
Y1644311D01*
X2034700Y1576296D02*
Y1576727D01*
Y1580165D02*
Y1580614D01*
Y1581215D02*
Y1581646D01*
Y1585084D02*
Y1585534D01*
Y1586815D02*
Y1587247D01*
Y1590685D02*
Y1591134D01*
Y1640225D02*
Y1640839D01*
Y1643722D02*
Y1644268D01*
X2034800Y1576251D02*
Y1576683D01*
Y1580199D02*
Y1580652D01*
Y1581170D02*
Y1581602D01*
Y1585118D02*
Y1585571D01*
Y1586771D02*
Y1587202D01*
Y1590718D02*
Y1591171D01*
Y1640275D02*
Y1640914D01*
Y1643647D02*
Y1644225D01*
X2034900Y1576207D02*
Y1576643D01*
Y1580230D02*
Y1580676D01*
Y1581126D02*
Y1581562D01*
Y1585149D02*
Y1585595D01*
Y1586726D02*
Y1587162D01*
Y1590749D02*
Y1591195D01*
Y1640325D02*
Y1641055D01*
Y1643492D02*
Y1644145D01*
X2035000Y1576194D02*
Y1576634D01*
Y1580241D02*
Y1580686D01*
Y1581113D02*
Y1581553D01*
Y1585160D02*
Y1585605D01*
Y1586713D02*
Y1587153D01*
Y1590760D02*
Y1591205D01*
Y1640396D02*
Y1641205D01*
Y1643326D02*
Y1644062D01*
X2035100Y1576186D02*
Y1576625D01*
Y1580252D02*
Y1580696D01*
Y1581105D02*
Y1581544D01*
Y1585171D02*
Y1585615D01*
Y1586705D02*
Y1587144D01*
Y1590771D02*
Y1591215D01*
Y1640476D02*
Y1641355D01*
Y1643159D02*
Y1643979D01*
X2035200Y1576177D02*
Y1576616D01*
Y1580263D02*
Y1580706D01*
Y1581096D02*
Y1581535D01*
Y1585182D02*
Y1585625D01*
Y1586697D02*
Y1587135D01*
Y1590782D02*
Y1591225D01*
Y1640556D02*
Y1641578D01*
Y1642923D02*
Y1643881D01*
X2035300Y1576169D02*
Y1576607D01*
Y1580274D02*
Y1580716D01*
Y1581088D02*
Y1581526D01*
Y1585193D02*
Y1585635D01*
Y1586688D02*
Y1587126D01*
Y1590793D02*
Y1591235D01*
Y1640693D02*
Y1642178D01*
Y1642269D02*
Y1643761D01*
X2035400Y1576161D02*
Y1576597D01*
Y1580285D02*
Y1580726D01*
Y1581080D02*
Y1581517D01*
Y1585204D02*
Y1585645D01*
Y1586680D02*
Y1587117D01*
Y1590805D02*
Y1591245D01*
Y1640843D02*
Y1643641D01*
X2035500Y1576152D02*
Y1576588D01*
Y1580280D02*
Y1580723D01*
Y1581071D02*
Y1581507D01*
Y1585199D02*
Y1585642D01*
Y1586672D02*
Y1587108D01*
Y1590800D02*
Y1591242D01*
Y1641016D02*
Y1643468D01*
X2035600Y1576144D02*
Y1576583D01*
Y1580264D02*
Y1580710D01*
Y1581063D02*
Y1581502D01*
Y1585183D02*
Y1585629D01*
Y1586663D02*
Y1587102D01*
Y1590783D02*
Y1591230D01*
Y1641216D02*
Y1643235D01*
X2035700Y1576152D02*
Y1576583D01*
Y1580247D02*
Y1580698D01*
Y1581071D02*
Y1581502D01*
Y1585166D02*
Y1585617D01*
Y1586672D02*
Y1587102D01*
Y1590766D02*
Y1591217D01*
Y1641521D02*
Y1642884D01*
X2035800Y1576165D02*
Y1576583D01*
Y1580230D02*
Y1580685D01*
Y1581084D02*
Y1581502D01*
Y1585149D02*
Y1585604D01*
Y1586684D02*
Y1587102D01*
Y1590750D02*
Y1591205D01*
Y1642156D02*
Y1642277D01*
X2035900Y1576177D02*
Y1576583D01*
Y1580214D02*
Y1580673D01*
Y1581096D02*
Y1581502D01*
Y1585133D02*
Y1585592D01*
Y1586697D02*
Y1587102D01*
Y1590733D02*
Y1591192D01*
X2036000Y1576190D02*
Y1576610D01*
Y1580197D02*
Y1580646D01*
Y1581109D02*
Y1581530D01*
Y1585116D02*
Y1585565D01*
Y1586709D02*
Y1587130D01*
Y1590716D02*
Y1591165D01*
X2036100Y1576204D02*
Y1576650D01*
Y1580180D02*
Y1580617D01*
Y1581123D02*
Y1581570D01*
Y1585099D02*
Y1585537D01*
Y1586723D02*
Y1587170D01*
Y1590700D02*
Y1591137D01*
X2036200Y1576232D02*
Y1576690D01*
Y1580155D02*
Y1580589D01*
Y1581151D02*
Y1581610D01*
Y1585074D02*
Y1585508D01*
Y1586752D02*
Y1587210D01*
Y1590674D02*
Y1591108D01*
X2036300Y1576261D02*
Y1576749D01*
Y1580095D02*
Y1580560D01*
Y1581180D02*
Y1581668D01*
Y1585014D02*
Y1585479D01*
Y1586780D02*
Y1587268D01*
Y1590614D02*
Y1591080D01*
X2036400Y1576289D02*
Y1576824D01*
Y1580035D02*
Y1580521D01*
Y1581208D02*
Y1581743D01*
Y1584954D02*
Y1585440D01*
Y1586809D02*
Y1587343D01*
Y1590554D02*
Y1591040D01*
X2036500Y1576318D02*
Y1576899D01*
Y1579973D02*
Y1580478D01*
Y1581237D02*
Y1581818D01*
Y1584893D02*
Y1585397D01*
Y1586837D02*
Y1587418D01*
Y1590493D02*
Y1590998D01*
X2036600Y1576367D02*
Y1576974D01*
Y1579898D02*
Y1580435D01*
Y1581286D02*
Y1581893D01*
Y1584818D02*
Y1585354D01*
Y1586886D02*
Y1587493D01*
Y1590418D02*
Y1590955D01*
X2036700Y1576417D02*
Y1577049D01*
Y1579823D02*
Y1580392D01*
Y1581336D02*
Y1581968D01*
Y1584743D02*
Y1585312D01*
Y1586936D02*
Y1587568D01*
Y1590343D02*
Y1590912D01*
X2036800Y1576467D02*
Y1577169D01*
Y1579694D02*
Y1580324D01*
Y1581386D02*
Y1582088D01*
Y1584614D02*
Y1585243D01*
Y1586986D02*
Y1587688D01*
Y1590214D02*
Y1590844D01*
X2036900Y1576530D02*
Y1577319D01*
Y1579528D02*
Y1580241D01*
Y1581449D02*
Y1582238D01*
Y1584447D02*
Y1585160D01*
Y1587049D02*
Y1587838D01*
Y1590047D02*
Y1590760D01*
X2037000Y1576610D02*
Y1577469D01*
Y1579361D02*
Y1580157D01*
Y1581529D02*
Y1582388D01*
Y1584280D02*
Y1585077D01*
Y1587129D02*
Y1587988D01*
Y1589881D02*
Y1590677D01*
X2037100Y1576690D02*
Y1577619D01*
Y1579194D02*
Y1580070D01*
Y1581609D02*
Y1582538D01*
Y1584114D02*
Y1584989D01*
Y1587209D02*
Y1588138D01*
Y1589714D02*
Y1590589D01*
X2037200Y1576807D02*
Y1578167D01*
Y1578618D02*
Y1579950D01*
Y1581726D02*
Y1583087D01*
Y1583537D02*
Y1584869D01*
Y1587327D02*
Y1588687D01*
Y1589138D02*
Y1590469D01*
X2037300Y1576957D02*
Y1579830D01*
Y1581876D02*
Y1584749D01*
Y1587477D02*
Y1590349D01*
X2037400Y1577117D02*
Y1579689D01*
Y1582036D02*
Y1584608D01*
Y1587636D02*
Y1590208D01*
X2037500Y1577317D02*
Y1579455D01*
Y1582236D02*
Y1584375D01*
Y1587836D02*
Y1589975D01*
X2037600Y1577579D02*
Y1579151D01*
Y1582499D02*
Y1584070D01*
Y1588099D02*
Y1589670D01*
X2037700Y1578062D02*
Y1578654D01*
Y1582982D02*
Y1583573D01*
Y1588582D02*
Y1589174D01*
X2041300Y1646172D02*
Y1646318D01*
X2041400Y1645722D02*
Y1646713D01*
X2041500Y1645572D02*
Y1646863D01*
Y1648283D02*
Y1648740D01*
X2041600Y1645432D02*
Y1646984D01*
Y1647956D02*
Y1649002D01*
X2041700Y1645299D02*
Y1647034D01*
Y1647760D02*
Y1649122D01*
X2041800Y1645244D02*
Y1646149D01*
Y1646306D02*
Y1647084D01*
Y1647680D02*
Y1649242D01*
X2041900Y1645188D02*
Y1645794D01*
Y1646661D02*
Y1647134D01*
Y1647600D02*
Y1649305D01*
X2042000Y1645132D02*
Y1645694D01*
Y1646761D02*
Y1647166D01*
Y1647528D02*
Y1648166D01*
Y1648528D02*
Y1649362D01*
X2042100Y1645077D02*
Y1645594D01*
Y1646861D02*
Y1647195D01*
Y1647495D02*
Y1647897D01*
Y1648848D02*
Y1649420D01*
X2042200Y1645021D02*
Y1645531D01*
Y1646909D02*
Y1647223D01*
Y1647462D02*
Y1647730D01*
Y1648987D02*
Y1649477D01*
X2042300Y1645006D02*
Y1645471D01*
Y1646952D02*
Y1647252D01*
Y1647428D02*
Y1647663D01*
Y1649027D02*
Y1649494D01*
X2042400Y1644997D02*
Y1645411D01*
Y1646995D02*
Y1647630D01*
Y1649067D02*
Y1649505D01*
X2042500Y1644988D02*
Y1645387D01*
Y1647038D02*
Y1647597D01*
Y1649103D02*
Y1649517D01*
X2042600Y1644979D02*
Y1645372D01*
Y1647064D02*
Y1647563D01*
Y1649120D02*
Y1649528D01*
X2042700Y1644970D02*
Y1645358D01*
Y1647075D02*
Y1647549D01*
Y1649137D02*
Y1649539D01*
X2042800Y1644961D02*
Y1645344D01*
Y1647086D02*
Y1647537D01*
Y1649153D02*
Y1649536D01*
X2042900Y1644959D02*
Y1645340D01*
Y1647097D02*
Y1647524D01*
Y1649158D02*
Y1649525D01*
X2043000Y1644969D02*
Y1645350D01*
Y1647108D02*
Y1647512D01*
Y1649145D02*
Y1649514D01*
X2043100Y1644979D02*
Y1645360D01*
Y1647119D02*
Y1647500D01*
Y1649133D02*
Y1649503D01*
X2043200Y1644989D02*
Y1645370D01*
Y1647119D02*
Y1647500D01*
Y1649120D02*
Y1649492D01*
X2043300Y1644999D02*
Y1645380D01*
Y1647119D02*
Y1647500D01*
Y1649108D02*
Y1649467D01*
X2043400Y1645009D02*
Y1645390D01*
Y1647119D02*
Y1647500D01*
Y1649076D02*
Y1649417D01*
X2043500Y1584243D02*
Y1587149D01*
Y1588871D02*
Y1589185D01*
Y1592465D02*
Y1594241D01*
Y1645049D02*
Y1645412D01*
Y1649019D02*
Y1649367D01*
X2043600Y1584255D02*
Y1587149D01*
Y1588871D02*
Y1589522D01*
Y1592200D02*
Y1594241D01*
Y1645111D02*
Y1645474D01*
Y1648962D02*
Y1649317D01*
X2043700Y1584296D02*
Y1587149D01*
Y1588871D02*
Y1589860D01*
Y1592000D02*
Y1594241D01*
Y1645174D02*
Y1645537D01*
Y1648904D02*
Y1649267D01*
X2043800Y1584337D02*
Y1587149D01*
Y1588871D02*
Y1590197D01*
Y1591888D02*
Y1594241D01*
Y1645236D02*
Y1645599D01*
X2043900Y1584378D02*
Y1584808D01*
Y1588871D02*
Y1590394D01*
Y1591831D02*
Y1592964D01*
Y1593718D02*
Y1594241D01*
X2044000Y1584420D02*
Y1584851D01*
Y1588871D02*
Y1590394D01*
Y1591774D02*
Y1592499D01*
Y1593740D02*
Y1594241D01*
X2044100Y1584461D02*
Y1584893D01*
Y1588871D02*
Y1589373D01*
Y1589731D02*
Y1590394D01*
Y1591716D02*
Y1592321D01*
Y1593740D02*
Y1594241D01*
X2044200Y1584502D02*
Y1584936D01*
Y1588871D02*
Y1589373D01*
Y1590071D02*
Y1590394D01*
Y1591678D02*
Y1592246D01*
Y1593740D02*
Y1594241D01*
X2044300Y1584543D02*
Y1584979D01*
Y1588871D02*
Y1589373D01*
Y1591653D02*
Y1592171D01*
Y1593740D02*
Y1594241D01*
X2044400Y1584584D02*
Y1585021D01*
Y1588871D02*
Y1589373D01*
Y1591628D02*
Y1592129D01*
Y1593740D02*
Y1594241D01*
X2044500Y1584625D02*
Y1585064D01*
Y1588871D02*
Y1589373D01*
Y1591603D02*
Y1592109D01*
Y1593740D02*
Y1594241D01*
X2044600Y1584666D02*
Y1585107D01*
Y1588871D02*
Y1589373D01*
Y1591578D02*
Y1592089D01*
Y1593740D02*
Y1594241D01*
X2044700Y1584707D02*
Y1585149D01*
Y1588871D02*
Y1589373D01*
Y1591589D02*
Y1592083D01*
Y1593740D02*
Y1594241D01*
Y1646524D02*
Y1647974D01*
X2044800Y1584748D02*
Y1585192D01*
Y1588871D02*
Y1589373D01*
Y1591601D02*
Y1592100D01*
Y1593740D02*
Y1594241D01*
Y1646154D02*
Y1648459D01*
X2044900Y1584789D02*
Y1585235D01*
Y1588871D02*
Y1589373D01*
Y1591614D02*
Y1592116D01*
Y1593740D02*
Y1594241D01*
Y1645864D02*
Y1648790D01*
X2045000Y1584831D02*
Y1585277D01*
Y1588871D02*
Y1589373D01*
Y1591626D02*
Y1592133D01*
Y1593740D02*
Y1594241D01*
Y1645664D02*
Y1648957D01*
X2045100Y1584872D02*
Y1585320D01*
Y1588871D02*
Y1589373D01*
Y1591655D02*
Y1592183D01*
Y1593740D02*
Y1594241D01*
Y1645500D02*
Y1649058D01*
X2045200Y1584913D02*
Y1585362D01*
Y1588871D02*
Y1589373D01*
Y1591715D02*
Y1592258D01*
Y1593740D02*
Y1594241D01*
Y1645400D02*
Y1646583D01*
Y1647841D02*
Y1649158D01*
X2045300Y1584954D02*
Y1585405D01*
Y1588871D02*
Y1589373D01*
Y1591775D02*
Y1592333D01*
Y1593740D02*
Y1594241D01*
Y1645300D02*
Y1646141D01*
Y1648326D02*
Y1649258D01*
X2045400Y1584995D02*
Y1585448D01*
Y1588871D02*
Y1589373D01*
Y1591854D02*
Y1592498D01*
Y1593740D02*
Y1594241D01*
Y1645200D02*
Y1645843D01*
Y1648655D02*
Y1649358D01*
X2045500Y1585036D02*
Y1585490D01*
Y1588871D02*
Y1589373D01*
Y1591954D02*
Y1592700D01*
Y1593740D02*
Y1594241D01*
Y1645100D02*
Y1645721D01*
Y1648806D02*
Y1649433D01*
X2045600Y1585077D02*
Y1585533D01*
Y1588871D02*
Y1589373D01*
Y1592054D02*
Y1594241D01*
Y1645057D02*
Y1645601D01*
Y1648956D02*
Y1649453D01*
X2045700Y1585118D02*
Y1585576D01*
Y1588871D02*
Y1589373D01*
Y1592251D02*
Y1594241D01*
Y1645037D02*
Y1645481D01*
Y1649049D02*
Y1649473D01*
X2045800Y1585159D02*
Y1585618D01*
Y1588871D02*
Y1589373D01*
Y1592518D02*
Y1594241D01*
Y1645017D02*
Y1645435D01*
Y1649077D02*
Y1649492D01*
X2045900Y1585200D02*
Y1585661D01*
Y1588871D02*
Y1589373D01*
Y1592584D02*
Y1594241D01*
Y1645000D02*
Y1645402D01*
Y1649106D02*
Y1649509D01*
X2046000Y1585242D02*
Y1585704D01*
Y1588871D02*
Y1589373D01*
Y1592435D02*
Y1593243D01*
Y1593712D02*
Y1594241D01*
Y1644983D02*
Y1645368D01*
Y1649134D02*
Y1649525D01*
X2046100Y1585283D02*
Y1585746D01*
Y1588871D02*
Y1589373D01*
Y1592285D02*
Y1592886D01*
Y1593740D02*
Y1594241D01*
Y1644967D02*
Y1645336D01*
Y1649162D02*
Y1649542D01*
X2046200Y1585324D02*
Y1585789D01*
Y1588871D02*
Y1589373D01*
Y1592184D02*
Y1592760D01*
Y1593740D02*
Y1594241D01*
Y1644962D02*
Y1645361D01*
Y1649137D02*
Y1649527D01*
X2046300Y1585365D02*
Y1585832D01*
Y1588871D02*
Y1589373D01*
Y1592118D02*
Y1592685D01*
Y1593740D02*
Y1594241D01*
Y1644978D02*
Y1645390D01*
Y1649109D02*
Y1649510D01*
X2046400Y1585406D02*
Y1585874D01*
Y1588871D02*
Y1589373D01*
Y1592040D02*
Y1592609D01*
Y1593740D02*
Y1594241D01*
Y1644995D02*
Y1645418D01*
Y1649080D02*
Y1649494D01*
X2046500Y1585447D02*
Y1585917D01*
Y1588871D02*
Y1589373D01*
Y1591960D02*
Y1592529D01*
Y1593740D02*
Y1594241D01*
Y1645012D02*
Y1645447D01*
Y1649052D02*
Y1649466D01*
X2046600Y1585488D02*
Y1585960D01*
Y1588871D02*
Y1589373D01*
Y1591880D02*
Y1592449D01*
Y1593740D02*
Y1594241D01*
Y1645031D02*
Y1645509D01*
Y1648982D02*
Y1649426D01*
X2046700Y1585529D02*
Y1586002D01*
Y1588871D02*
Y1589373D01*
Y1591816D02*
Y1592374D01*
Y1593740D02*
Y1594241D01*
Y1645051D02*
Y1645609D01*
Y1648862D02*
Y1649386D01*
X2046800Y1585570D02*
Y1586045D01*
Y1588871D02*
Y1589373D01*
Y1591755D02*
Y1592317D01*
Y1593740D02*
Y1594241D01*
Y1645071D02*
Y1645709D01*
Y1648742D02*
Y1649325D01*
X2046900Y1585611D02*
Y1586087D01*
Y1588871D02*
Y1589373D01*
Y1591694D02*
Y1592260D01*
Y1593740D02*
Y1594241D01*
Y1645143D02*
Y1645878D01*
Y1648561D02*
Y1649250D01*
X2047000Y1585652D02*
Y1586130D01*
Y1588871D02*
Y1589373D01*
Y1591633D02*
Y1592202D01*
Y1593740D02*
Y1594241D01*
Y1645218D02*
Y1646211D01*
Y1648227D02*
Y1649169D01*
X2047100Y1585694D02*
Y1586173D01*
Y1588871D02*
Y1589373D01*
Y1591572D02*
Y1592145D01*
Y1593740D02*
Y1594241D01*
Y1645327D02*
Y1646968D01*
Y1647427D02*
Y1649069D01*
X2047200Y1585735D02*
Y1586215D01*
Y1588871D02*
Y1589373D01*
Y1591512D02*
Y1592088D01*
Y1593740D02*
Y1594241D01*
Y1645452D02*
Y1648969D01*
X2047300Y1585776D02*
Y1586258D01*
Y1588871D02*
Y1589373D01*
Y1591451D02*
Y1592031D01*
Y1593740D02*
Y1594241D01*
Y1645622D02*
Y1648775D01*
X2047400Y1585817D02*
Y1586301D01*
Y1588871D02*
Y1589373D01*
Y1591390D02*
Y1591974D01*
Y1593740D02*
Y1594241D01*
Y1645882D02*
Y1648546D01*
X2047500Y1585858D02*
Y1586343D01*
Y1588870D02*
Y1589374D01*
Y1591329D02*
Y1591917D01*
Y1593740D02*
Y1594241D01*
Y1646183D02*
Y1648196D01*
X2047600Y1585899D02*
Y1586386D01*
Y1587850D02*
Y1590394D01*
Y1591268D02*
Y1591860D01*
Y1593740D02*
Y1594241D01*
Y1646582D02*
Y1647796D01*
X2047700Y1585940D02*
Y1586429D01*
Y1587850D02*
Y1590394D01*
Y1591207D02*
Y1591802D01*
Y1593740D02*
Y1594241D01*
X2047800Y1585981D02*
Y1586471D01*
Y1587850D02*
Y1590394D01*
Y1591146D02*
Y1591745D01*
Y1593740D02*
Y1594241D01*
X2047900Y1586022D02*
Y1586514D01*
Y1587850D02*
Y1590394D01*
Y1591085D02*
Y1591688D01*
Y1593740D02*
Y1594241D01*
X2048100Y1649312D02*
Y1649483D01*
X2048200Y1649031D02*
Y1649483D01*
X2048300Y1648749D02*
Y1649483D01*
X2048400Y1648468D02*
Y1649483D01*
X2048500Y1648187D02*
Y1649483D01*
X2048600Y1647905D02*
Y1649299D01*
X2048700Y1647624D02*
Y1649018D01*
X2048800Y1647342D02*
Y1648737D01*
X2048900Y1647061D02*
Y1648456D01*
X2049000Y1646779D02*
Y1648175D01*
X2049100Y1646498D02*
Y1647894D01*
X2049200Y1646216D02*
Y1647613D01*
X2049300Y1645935D02*
Y1647332D01*
X2049400Y1645653D02*
Y1647051D01*
X2049500Y1645372D02*
Y1646770D01*
X2049600Y1645090D02*
Y1646489D01*
X2049700Y1645015D02*
Y1646208D01*
X2049800Y1645015D02*
Y1645856D01*
X2049900Y1645015D02*
Y1645517D01*
X2050000Y1645015D02*
Y1645763D01*
X2050100Y1645015D02*
Y1646085D01*
X2050200Y1645015D02*
Y1646366D01*
X2050300Y1645239D02*
Y1646647D01*
X2050400Y1645510D02*
Y1646928D01*
X2050500Y1585548D02*
Y1585724D01*
Y1588871D02*
Y1588877D01*
Y1645781D02*
Y1647209D01*
X2050600Y1585054D02*
Y1586220D01*
Y1588871D02*
Y1589215D01*
Y1592385D02*
Y1594241D01*
Y1646053D02*
Y1647490D01*
X2050700Y1584920D02*
Y1586380D01*
Y1588871D02*
Y1589552D01*
Y1592183D02*
Y1594241D01*
Y1646324D02*
Y1647770D01*
X2050800Y1584797D02*
Y1586540D01*
Y1588871D02*
Y1589890D01*
Y1591983D02*
Y1594241D01*
Y1646596D02*
Y1648051D01*
X2050900Y1584697D02*
Y1585465D01*
Y1585890D02*
Y1586689D01*
Y1588871D02*
Y1590227D01*
Y1591883D02*
Y1594241D01*
Y1646867D02*
Y1648332D01*
X2051000Y1584597D02*
Y1585221D01*
Y1586111D02*
Y1586751D01*
Y1588871D02*
Y1590394D01*
Y1591826D02*
Y1592903D01*
Y1593728D02*
Y1594241D01*
Y1647139D02*
Y1648613D01*
X2051100Y1584561D02*
Y1585096D01*
Y1586236D02*
Y1586814D01*
Y1588871D02*
Y1590394D01*
Y1591769D02*
Y1592482D01*
Y1593740D02*
Y1594241D01*
Y1647410D02*
Y1648894D01*
X2051200Y1584524D02*
Y1584986D01*
Y1586348D02*
Y1586876D01*
Y1588871D02*
Y1589373D01*
Y1589761D02*
Y1590394D01*
Y1591711D02*
Y1592315D01*
Y1593740D02*
Y1594241D01*
Y1647681D02*
Y1649175D01*
X2051300Y1584488D02*
Y1584943D01*
Y1586408D02*
Y1586939D01*
Y1588871D02*
Y1589373D01*
Y1590101D02*
Y1590394D01*
Y1591676D02*
Y1592240D01*
Y1593740D02*
Y1594241D01*
Y1647953D02*
Y1649456D01*
X2051400Y1584452D02*
Y1584900D01*
Y1586468D02*
Y1586980D01*
Y1588871D02*
Y1589373D01*
Y1591651D02*
Y1592165D01*
Y1593740D02*
Y1594241D01*
Y1648224D02*
Y1649483D01*
X2051500Y1584415D02*
Y1584857D01*
Y1586525D02*
Y1586998D01*
Y1588871D02*
Y1589373D01*
Y1591626D02*
Y1592127D01*
Y1593740D02*
Y1594241D01*
Y1648496D02*
Y1649483D01*
X2051600Y1584379D02*
Y1584814D01*
Y1586542D02*
Y1587016D01*
Y1588871D02*
Y1589373D01*
Y1591601D02*
Y1592107D01*
Y1593740D02*
Y1594241D01*
Y1648767D02*
Y1649483D01*
X2051700Y1584346D02*
Y1584794D01*
Y1586559D02*
Y1587034D01*
Y1588871D02*
Y1589373D01*
Y1591577D02*
Y1592087D01*
Y1593740D02*
Y1594241D01*
Y1649039D02*
Y1649483D01*
X2051800Y1584318D02*
Y1584780D01*
Y1586576D02*
Y1587052D01*
Y1588871D02*
Y1589373D01*
Y1591590D02*
Y1592084D01*
Y1593740D02*
Y1594241D01*
Y1649310D02*
Y1649483D01*
X2051900Y1584289D02*
Y1584766D01*
Y1586584D02*
Y1587071D01*
Y1588871D02*
Y1589373D01*
Y1591602D02*
Y1592101D01*
Y1593740D02*
Y1594241D01*
X2052000Y1584261D02*
Y1584752D01*
Y1586570D02*
Y1587086D01*
Y1588871D02*
Y1589373D01*
Y1591615D02*
Y1592118D01*
Y1593740D02*
Y1594241D01*
X2052100Y1584243D02*
Y1584752D01*
Y1586556D02*
Y1587064D01*
Y1588871D02*
Y1589373D01*
Y1591627D02*
Y1592134D01*
Y1593740D02*
Y1594241D01*
Y1644114D02*
Y1644374D01*
X2052200Y1584243D02*
Y1584772D01*
Y1586541D02*
Y1587041D01*
Y1588871D02*
Y1589373D01*
Y1591660D02*
Y1592189D01*
Y1593740D02*
Y1594241D01*
Y1644114D02*
Y1644374D01*
X2052300Y1584243D02*
Y1584792D01*
Y1586527D02*
Y1587019D01*
Y1588871D02*
Y1589373D01*
Y1591720D02*
Y1592264D01*
Y1593740D02*
Y1594241D01*
Y1644114D02*
Y1644374D01*
X2052400Y1584243D02*
Y1584823D01*
Y1586481D02*
Y1586997D01*
Y1588871D02*
Y1589373D01*
Y1591780D02*
Y1592346D01*
Y1593740D02*
Y1594241D01*
Y1644114D02*
Y1644374D01*
X2052500Y1584243D02*
Y1584883D01*
Y1586431D02*
Y1586975D01*
Y1588871D02*
Y1589373D01*
Y1591862D02*
Y1592513D01*
Y1593740D02*
Y1594241D01*
Y1644114D02*
Y1644374D01*
X2052600Y1584243D02*
Y1584943D01*
Y1586381D02*
Y1586930D01*
Y1588871D02*
Y1589373D01*
Y1591962D02*
Y1592753D01*
Y1593740D02*
Y1594241D01*
Y1644114D02*
Y1644374D01*
X2052700Y1584243D02*
Y1585012D01*
Y1586320D02*
Y1586880D01*
Y1588871D02*
Y1589373D01*
Y1592062D02*
Y1594241D01*
Y1644114D02*
Y1644374D01*
X2052800Y1584243D02*
Y1584699D01*
Y1584829D02*
Y1585179D01*
Y1586153D02*
Y1586830D01*
Y1588871D02*
Y1589373D01*
Y1592275D02*
Y1594241D01*
Y1644114D02*
Y1644374D01*
X2052900Y1584243D02*
Y1584693D01*
Y1584905D02*
Y1585402D01*
Y1585915D02*
Y1586780D01*
Y1588871D02*
Y1589373D01*
Y1592541D02*
Y1594241D01*
Y1644114D02*
Y1644374D01*
X2053000Y1584243D02*
Y1584709D01*
Y1584980D02*
Y1586698D01*
Y1588871D02*
Y1589373D01*
Y1592572D02*
Y1594241D01*
Y1644114D02*
Y1644374D01*
X2053100Y1584243D02*
Y1584724D01*
Y1585069D02*
Y1586498D01*
Y1588871D02*
Y1589373D01*
Y1592422D02*
Y1593208D01*
Y1593725D02*
Y1594241D01*
Y1644114D02*
Y1644374D01*
X2053200Y1584261D02*
Y1584740D01*
Y1585169D02*
Y1586298D01*
Y1588871D02*
Y1589373D01*
Y1592272D02*
Y1592860D01*
Y1593740D02*
Y1594241D01*
Y1644114D02*
Y1644374D01*
X2053300Y1584286D02*
Y1584755D01*
Y1585660D02*
Y1585916D01*
Y1588871D02*
Y1589373D01*
Y1592178D02*
Y1592753D01*
Y1593740D02*
Y1594241D01*
Y1644114D02*
Y1644374D01*
X2053400Y1584311D02*
Y1584770D01*
Y1588871D02*
Y1589373D01*
Y1592112D02*
Y1592678D01*
Y1593740D02*
Y1594241D01*
Y1644114D02*
Y1644374D01*
X2053500Y1584336D02*
Y1584786D01*
Y1588871D02*
Y1589373D01*
Y1592033D02*
Y1592602D01*
Y1593740D02*
Y1594241D01*
Y1644114D02*
Y1644374D01*
X2053600Y1584361D02*
Y1584801D01*
Y1588871D02*
Y1589373D01*
Y1591953D02*
Y1592522D01*
Y1593740D02*
Y1594241D01*
Y1644114D02*
Y1644374D01*
X2053700Y1584398D02*
Y1584837D01*
Y1588871D02*
Y1589373D01*
Y1591873D02*
Y1592442D01*
Y1593740D02*
Y1594241D01*
Y1644114D02*
Y1644374D01*
X2053800Y1584435D02*
Y1584881D01*
Y1588871D02*
Y1589373D01*
Y1591811D02*
Y1592369D01*
Y1593740D02*
Y1594241D01*
Y1644114D02*
Y1644374D01*
X2053900Y1584473D02*
Y1584925D01*
Y1588871D02*
Y1589373D01*
Y1591750D02*
Y1592312D01*
Y1593740D02*
Y1594241D01*
Y1644114D02*
Y1644374D01*
X2054000Y1584510D02*
Y1584970D01*
Y1588871D02*
Y1589373D01*
Y1591689D02*
Y1592254D01*
Y1593740D02*
Y1594241D01*
Y1644114D02*
Y1644374D01*
X2054100Y1584551D02*
Y1585014D01*
Y1588871D02*
Y1589373D01*
Y1591628D02*
Y1592197D01*
Y1593740D02*
Y1594241D01*
Y1644114D02*
Y1644374D01*
X2054200Y1584601D02*
Y1585067D01*
Y1588871D02*
Y1589373D01*
Y1591567D02*
Y1592140D01*
Y1593740D02*
Y1594241D01*
Y1644114D02*
Y1644374D01*
X2054300Y1584651D02*
Y1585184D01*
Y1588871D02*
Y1589373D01*
Y1591506D02*
Y1592083D01*
Y1593740D02*
Y1594241D01*
Y1644114D02*
Y1644374D01*
X2054400Y1584701D02*
Y1585300D01*
Y1588871D02*
Y1589373D01*
Y1591445D02*
Y1592026D01*
Y1593740D02*
Y1594241D01*
Y1644114D02*
Y1644374D01*
X2054500Y1584786D02*
Y1585417D01*
Y1586788D02*
Y1586848D01*
Y1588871D02*
Y1589373D01*
Y1591384D02*
Y1591969D01*
Y1593740D02*
Y1594241D01*
Y1644114D02*
Y1644374D01*
X2054600Y1584886D02*
Y1585566D01*
Y1586555D02*
Y1586848D01*
Y1588867D02*
Y1589377D01*
Y1591324D02*
Y1591912D01*
Y1593740D02*
Y1594241D01*
Y1644114D02*
Y1644374D01*
X2054700Y1584986D02*
Y1586848D01*
Y1587850D02*
Y1590394D01*
Y1591263D02*
Y1591854D01*
Y1593740D02*
Y1594241D01*
X2054800Y1585140D02*
Y1586848D01*
Y1587850D02*
Y1590394D01*
Y1591202D02*
Y1591797D01*
Y1593740D02*
Y1594241D01*
X2054900Y1585315D02*
Y1586745D01*
Y1587850D02*
Y1590394D01*
Y1591141D02*
Y1591740D01*
Y1593740D02*
Y1594241D01*
Y1645015D02*
Y1645190D01*
X2055000Y1585615D02*
Y1586545D01*
Y1587850D02*
Y1590394D01*
Y1591080D02*
Y1591683D01*
Y1593740D02*
Y1594241D01*
Y1645015D02*
Y1645452D01*
X2055100Y1645015D02*
Y1645714D01*
X2055200Y1645015D02*
Y1645977D01*
X2055300Y1645015D02*
Y1646239D01*
X2055400Y1645045D02*
Y1646501D01*
X2055500Y1645295D02*
Y1646763D01*
X2055600Y1645545D02*
Y1647025D01*
X2055700Y1645795D02*
Y1647287D01*
X2055800Y1646045D02*
Y1647549D01*
X2055900Y1646217D02*
Y1647811D01*
X2056000Y1646217D02*
Y1646664D01*
Y1646790D02*
Y1648073D01*
X2056100Y1646217D02*
Y1646658D01*
Y1647056D02*
Y1648335D01*
X2056200Y1646217D02*
Y1646658D01*
Y1647323D02*
Y1648597D01*
X2056300Y1646217D02*
Y1646658D01*
Y1647590D02*
Y1648859D01*
X2056400Y1646217D02*
Y1646658D01*
Y1647856D02*
Y1649121D01*
X2056500Y1646217D02*
Y1646658D01*
Y1648123D02*
Y1649383D01*
X2056600Y1646217D02*
Y1646658D01*
Y1648390D02*
Y1649483D01*
X2056700Y1646217D02*
Y1646658D01*
Y1648778D02*
Y1649483D01*
X2056800Y1646217D02*
Y1646658D01*
Y1648982D02*
Y1649483D01*
X2056900Y1646217D02*
Y1646658D01*
Y1648827D02*
Y1649483D01*
X2057000Y1646217D02*
Y1646658D01*
Y1648566D02*
Y1649483D01*
X2057100Y1646217D02*
Y1646658D01*
Y1648275D02*
Y1649405D01*
X2057200Y1646217D02*
Y1646658D01*
Y1647984D02*
Y1649143D01*
X2057300Y1646217D02*
Y1646658D01*
Y1647693D02*
Y1648881D01*
X2057400Y1646217D02*
Y1646658D01*
Y1647402D02*
Y1648619D01*
X2057500Y1646217D02*
Y1646658D01*
Y1647111D02*
Y1648357D01*
X2057600Y1646217D02*
Y1646660D01*
Y1646820D02*
Y1648095D01*
X2057700Y1646217D02*
Y1647833D01*
X2057800Y1646204D02*
Y1647571D01*
X2057900Y1645936D02*
Y1647309D01*
X2058000Y1645650D02*
Y1647047D01*
X2058100Y1645364D02*
Y1646785D01*
X2058200Y1645078D02*
Y1646523D01*
X2058300Y1645015D02*
Y1646261D01*
X2058400Y1645015D02*
Y1645999D01*
X2058500Y1645015D02*
Y1645737D01*
X2058600Y1645015D02*
Y1645474D01*
X2058700Y1645015D02*
Y1645212D01*
X2059400Y1645015D02*
Y1645396D01*
X2059500Y1645015D02*
Y1645396D01*
X2059600Y1645015D02*
Y1645396D01*
X2059700Y1645015D02*
Y1645396D01*
X2059800Y1645015D02*
Y1645396D01*
X2059900Y1645015D02*
Y1645396D01*
X2060000Y1645015D02*
Y1645396D01*
X2060100Y1645015D02*
Y1645396D01*
X2060200Y1645015D02*
Y1645396D01*
X2060300Y1645015D02*
Y1645397D01*
X2060400Y1645015D02*
Y1649509D01*
X2060500Y1645015D02*
Y1649479D01*
X2060600Y1645015D02*
Y1649450D01*
X2060700Y1645015D02*
Y1649420D01*
X2060800Y1645015D02*
Y1649390D01*
X2060900Y1645015D02*
Y1645396D01*
Y1648921D02*
Y1649361D01*
X2061000Y1645015D02*
Y1645396D01*
Y1648892D02*
Y1649331D01*
X2061100Y1645015D02*
Y1645396D01*
Y1648863D02*
Y1649301D01*
X2061200Y1645015D02*
Y1645396D01*
Y1648833D02*
Y1649272D01*
X2061300Y1645015D02*
Y1645396D01*
Y1648804D02*
Y1649242D01*
X2061400Y1645015D02*
Y1645396D01*
Y1648775D02*
Y1649212D01*
X2061500Y1645015D02*
Y1645396D01*
Y1648745D02*
Y1649183D01*
X2061600Y1645015D02*
Y1645396D01*
Y1648716D02*
Y1649153D01*
X2061700Y1645015D02*
Y1645396D01*
Y1648686D02*
Y1649124D01*
X2061800Y1645015D02*
Y1645396D01*
Y1648657D02*
Y1649094D01*
X2062800Y1646493D02*
Y1648005D01*
X2062900Y1646130D02*
Y1648513D01*
X2063000Y1645849D02*
Y1648803D01*
X2063100Y1645649D02*
Y1648966D01*
X2063200Y1645492D02*
Y1649066D01*
X2063300Y1645392D02*
Y1646482D01*
Y1647950D02*
Y1649166D01*
X2063400Y1645292D02*
Y1646117D01*
Y1648352D02*
Y1649266D01*
X2063500Y1645192D02*
Y1645832D01*
Y1648668D02*
Y1649366D01*
X2063600Y1645092D02*
Y1645712D01*
Y1648818D02*
Y1649435D01*
X2063700Y1645056D02*
Y1645592D01*
Y1648968D02*
Y1649455D01*
X2063800Y1645036D02*
Y1645472D01*
Y1649051D02*
Y1649475D01*
X2063900Y1645016D02*
Y1645432D01*
Y1649080D02*
Y1649493D01*
X2064000Y1644999D02*
Y1645399D01*
Y1649108D02*
Y1649510D01*
X2064100Y1644982D02*
Y1645366D01*
Y1649137D02*
Y1649526D01*
X2064200Y1644965D02*
Y1645336D01*
Y1649162D02*
Y1649542D01*
X2064300Y1644963D02*
Y1645363D01*
Y1649135D02*
Y1649526D01*
X2064400Y1644979D02*
Y1645392D01*
Y1649107D02*
Y1649509D01*
X2064500Y1644996D02*
Y1645420D01*
Y1649078D02*
Y1649492D01*
X2064600Y1645013D02*
Y1645449D01*
Y1649049D02*
Y1649463D01*
X2064700Y1645033D02*
Y1645517D01*
Y1648972D02*
Y1649423D01*
X2064800Y1645053D02*
Y1645617D01*
Y1648852D02*
Y1649383D01*
X2064900Y1645074D02*
Y1645717D01*
Y1648732D02*
Y1649319D01*
X2065000Y1645149D02*
Y1645904D01*
Y1648535D02*
Y1649244D01*
X2065100Y1645224D02*
Y1646237D01*
Y1648201D02*
Y1649161D01*
X2065200Y1645337D02*
Y1647069D01*
Y1647318D02*
Y1649061D01*
X2065300Y1645462D02*
Y1648959D01*
X2065400Y1645642D02*
Y1648759D01*
X2065500Y1645906D02*
Y1648519D01*
X2065600Y1646214D02*
Y1648165D01*
X2065700Y1646614D02*
Y1647765D01*
X2066300Y1646678D02*
Y1647820D01*
X2066400Y1646278D02*
Y1648220D01*
X2066500Y1645969D02*
Y1648726D01*
X2066600Y1645741D02*
Y1648892D01*
X2066700Y1645541D02*
Y1649020D01*
X2066800Y1645439D02*
Y1647084D01*
Y1647302D02*
Y1649120D01*
X2066900Y1645339D02*
Y1646256D01*
Y1648197D02*
Y1649220D01*
X2067000Y1645239D02*
Y1645956D01*
Y1648531D02*
Y1649320D01*
X2067100Y1645139D02*
Y1645768D01*
Y1648748D02*
Y1649420D01*
X2067200Y1645065D02*
Y1645648D01*
Y1648898D02*
Y1649446D01*
X2067300Y1645045D02*
Y1645528D01*
Y1649037D02*
Y1649466D01*
X2067400Y1645025D02*
Y1645448D01*
Y1649066D02*
Y1649485D01*
X2067500Y1645006D02*
Y1645414D01*
Y1649095D02*
Y1649502D01*
X2067600Y1644990D02*
Y1645381D01*
Y1649123D02*
Y1649519D01*
X2067700Y1644973D02*
Y1645348D01*
Y1649152D02*
Y1649535D01*
X2067800Y1644956D02*
Y1645350D01*
Y1649148D02*
Y1649533D01*
X2067900Y1644972D02*
Y1645379D01*
Y1649120D02*
Y1649517D01*
X2068000Y1644988D02*
Y1645407D01*
Y1649091D02*
Y1649500D01*
X2068100Y1645005D02*
Y1645436D01*
Y1649063D02*
Y1649481D01*
X2068200Y1645023D02*
Y1645471D01*
Y1649027D02*
Y1649441D01*
X2068300Y1645043D02*
Y1645571D01*
Y1648908D02*
Y1649401D01*
X2068400Y1645063D02*
Y1645671D01*
Y1648788D02*
Y1649354D01*
X2068500Y1645114D02*
Y1645771D01*
Y1648668D02*
Y1649279D01*
X2068600Y1599086D02*
Y1599649D01*
Y1645189D02*
Y1646083D01*
Y1648356D02*
Y1649204D01*
X2068700Y1598595D02*
Y1600043D01*
Y1645279D02*
Y1646467D01*
Y1647966D02*
Y1649107D01*
X2068800Y1598435D02*
Y1600183D01*
Y1645404D02*
Y1649007D01*
X2068900Y1598275D02*
Y1600323D01*
Y1645529D02*
Y1648852D01*
X2069000Y1598115D02*
Y1600437D01*
Y1602275D02*
Y1602731D01*
Y1645776D02*
Y1648652D01*
X2069100Y1598021D02*
Y1600509D01*
Y1602308D02*
Y1602771D01*
Y1646067D02*
Y1648331D01*
X2069200Y1597959D02*
Y1598918D01*
Y1599533D02*
Y1600580D01*
Y1602341D02*
Y1602811D01*
Y1646428D02*
Y1647950D01*
X2069300Y1597896D02*
Y1598644D01*
Y1599853D02*
Y1600652D01*
Y1602368D02*
Y1602828D01*
X2069400Y1597834D02*
Y1598478D01*
Y1600053D02*
Y1600723D01*
Y1602385D02*
Y1602840D01*
X2069500Y1597771D02*
Y1598351D01*
Y1600179D02*
Y1600761D01*
Y1602402D02*
Y1602853D01*
X2069600Y1597721D02*
Y1598251D01*
Y1600254D02*
Y1600783D01*
Y1602418D02*
Y1602865D01*
Y1644114D02*
Y1644374D01*
X2069700Y1597699D02*
Y1598151D01*
Y1600329D02*
Y1600805D01*
Y1602430D02*
Y1602878D01*
Y1644114D02*
Y1644374D01*
X2069800Y1597677D02*
Y1598108D01*
Y1600366D02*
Y1600827D01*
Y1602410D02*
Y1602877D01*
Y1644114D02*
Y1644374D01*
X2069900Y1597655D02*
Y1598091D01*
Y1600383D02*
Y1600850D01*
Y1602390D02*
Y1602860D01*
Y1644114D02*
Y1644374D01*
X2070000Y1597633D02*
Y1598074D01*
Y1600400D02*
Y1600872D01*
Y1602370D02*
Y1602844D01*
Y1644114D02*
Y1644374D01*
X2070100Y1597610D02*
Y1598058D01*
Y1600416D02*
Y1600866D01*
Y1602348D02*
Y1602827D01*
Y1644114D02*
Y1644374D01*
X2070200Y1597599D02*
Y1598051D01*
Y1600423D02*
Y1600846D01*
Y1602323D02*
Y1602803D01*
Y1644114D02*
Y1644374D01*
X2070300Y1597616D02*
Y1598067D01*
Y1600407D02*
Y1600826D01*
Y1602298D02*
Y1602770D01*
Y1644114D02*
Y1644374D01*
X2070400Y1597632D02*
Y1598084D01*
Y1600390D02*
Y1600799D01*
Y1602238D02*
Y1602737D01*
Y1644114D02*
Y1644374D01*
X2070500Y1597649D02*
Y1598101D01*
Y1600373D02*
Y1600759D01*
Y1602163D02*
Y1602703D01*
Y1644114D02*
Y1644374D01*
X2070600Y1597666D02*
Y1598118D01*
Y1600356D02*
Y1600719D01*
Y1602088D02*
Y1602658D01*
Y1644114D02*
Y1644374D01*
X2070700Y1597686D02*
Y1598193D01*
Y1600298D02*
Y1600678D01*
Y1601967D02*
Y1602591D01*
Y1644114D02*
Y1644374D01*
X2070800Y1597706D02*
Y1598273D01*
Y1600238D02*
Y1600603D01*
Y1601834D02*
Y1602525D01*
Y1644114D02*
Y1644374D01*
X2070900Y1597726D02*
Y1598353D01*
Y1600178D02*
Y1600528D01*
Y1601658D02*
Y1602458D01*
Y1644114D02*
Y1644374D01*
X2071000Y1597796D02*
Y1598468D01*
Y1600084D02*
Y1600419D01*
Y1601458D02*
Y1602372D01*
Y1644114D02*
Y1644374D01*
X2071100Y1597871D02*
Y1598668D01*
Y1599917D02*
Y1600253D01*
Y1601258D02*
Y1602247D01*
Y1644114D02*
Y1644374D01*
X2071200Y1597962D02*
Y1598932D01*
Y1599691D02*
Y1600121D01*
Y1600999D02*
Y1602122D01*
Y1644114D02*
Y1644374D01*
X2071300Y1598095D02*
Y1600126D01*
Y1600349D02*
Y1601981D01*
Y1644114D02*
Y1644374D01*
X2071400Y1598253D02*
Y1601831D01*
Y1644114D02*
Y1644374D01*
X2071500Y1598473D02*
Y1601681D01*
Y1644114D02*
Y1644374D01*
X2071600Y1598693D02*
Y1601424D01*
Y1644114D02*
Y1644374D01*
X2071700Y1598913D02*
Y1601157D01*
Y1644114D02*
Y1644374D01*
X2071800Y1599554D02*
Y1600381D01*
Y1644114D02*
Y1644374D01*
X2071900Y1644114D02*
Y1644374D01*
X2072000Y1644114D02*
Y1644374D01*
X2072100Y1644114D02*
Y1644374D01*
X2072200Y1644114D02*
Y1644374D01*
X2072400Y1645015D02*
Y1645113D01*
X2072500Y1645015D02*
Y1645277D01*
X2072600Y1645015D02*
Y1645441D01*
X2072700Y1599384D02*
Y1601094D01*
Y1645015D02*
Y1645605D01*
X2072800Y1599008D02*
Y1601561D01*
Y1645015D02*
Y1645770D01*
X2072900Y1598708D02*
Y1601972D01*
Y1645015D02*
Y1645934D01*
Y1647876D02*
Y1648554D01*
X2073000Y1598495D02*
Y1602138D01*
Y1645113D02*
Y1646098D01*
Y1647702D02*
Y1648864D01*
X2073100Y1598295D02*
Y1602268D01*
Y1645288D02*
Y1646263D01*
Y1647554D02*
Y1649039D01*
X2073200Y1598179D02*
Y1602368D01*
Y1645463D02*
Y1646401D01*
Y1647454D02*
Y1649200D01*
X2073300Y1598079D02*
Y1599277D01*
Y1601131D02*
Y1602468D01*
Y1645638D02*
Y1646526D01*
Y1647354D02*
Y1649250D01*
X2073400Y1597979D02*
Y1598965D01*
Y1601476D02*
Y1602568D01*
Y1645813D02*
Y1646658D01*
Y1647278D02*
Y1647929D01*
Y1648557D02*
Y1649300D01*
X2073500Y1597879D02*
Y1598665D01*
Y1601810D02*
Y1602668D01*
Y1645988D02*
Y1646799D01*
Y1647240D02*
Y1647766D01*
Y1648716D02*
Y1649350D01*
X2073600Y1597779D02*
Y1598521D01*
Y1601982D02*
Y1602754D01*
Y1646163D02*
Y1646866D01*
Y1647203D02*
Y1647633D01*
Y1648849D02*
Y1649400D01*
X2073700Y1597718D02*
Y1598401D01*
Y1602132D02*
Y1602774D01*
Y1646315D02*
Y1646932D01*
Y1647165D02*
Y1647572D01*
Y1648901D02*
Y1649430D01*
X2073800Y1597698D02*
Y1598281D01*
Y1602280D02*
Y1602794D01*
Y1646440D02*
Y1646999D01*
Y1647128D02*
Y1647512D01*
Y1648951D02*
Y1649441D01*
X2073900Y1597678D02*
Y1598183D01*
Y1602314D02*
Y1602814D01*
Y1646565D02*
Y1647452D01*
Y1648986D02*
Y1649452D01*
X2074000Y1597659D02*
Y1598150D01*
Y1602343D02*
Y1602831D01*
Y1646698D02*
Y1647428D01*
Y1649001D02*
Y1649464D01*
X2074100Y1597642D02*
Y1598116D01*
Y1602372D02*
Y1602848D01*
Y1646816D02*
Y1647411D01*
Y1649015D02*
Y1649475D01*
X2074200Y1597625D02*
Y1598083D01*
Y1602400D02*
Y1602865D01*
Y1646849D02*
Y1647395D01*
Y1649029D02*
Y1649483D01*
X2074300Y1597609D02*
Y1598050D01*
Y1602429D02*
Y1602881D01*
Y1646881D02*
Y1647380D01*
Y1649042D02*
Y1649483D01*
X2074400Y1597596D02*
Y1598068D01*
Y1602411D02*
Y1602871D01*
Y1646906D02*
Y1647380D01*
Y1649042D02*
Y1649483D01*
X2074500Y1597613D02*
Y1598096D01*
Y1602382D02*
Y1602854D01*
Y1646931D02*
Y1647380D01*
Y1649042D02*
Y1649483D01*
X2074600Y1597630D02*
Y1598125D01*
Y1602354D02*
Y1602837D01*
Y1646939D02*
Y1647380D01*
Y1649042D02*
Y1649483D01*
X2074700Y1597646D02*
Y1598153D01*
Y1602325D02*
Y1602821D01*
Y1646939D02*
Y1647380D01*
Y1649042D02*
Y1649483D01*
X2074800Y1597663D02*
Y1598182D01*
Y1602296D02*
Y1602785D01*
Y1646939D02*
Y1647380D01*
Y1649042D02*
Y1649483D01*
X2074900Y1597683D02*
Y1598262D01*
Y1602204D02*
Y1602745D01*
Y1646939D02*
Y1647380D01*
Y1649042D02*
Y1649483D01*
X2075000Y1597703D02*
Y1598362D01*
Y1602084D02*
Y1602705D01*
Y1646913D02*
Y1647405D01*
Y1649017D02*
Y1649483D01*
X2075100Y1597723D02*
Y1598462D01*
Y1601964D02*
Y1602649D01*
Y1645015D02*
Y1649483D01*
X2075200Y1597783D02*
Y1598580D01*
Y1601829D02*
Y1602574D01*
Y1645015D02*
Y1649483D01*
X2075300Y1597858D02*
Y1598914D01*
Y1601496D02*
Y1602499D01*
Y1645015D02*
Y1649483D01*
X2075400Y1597939D02*
Y1599247D01*
Y1601162D02*
Y1602405D01*
Y1645015D02*
Y1649483D01*
X2075500Y1598064D02*
Y1602305D01*
Y1645015D02*
Y1649483D01*
X2075600Y1598189D02*
Y1602195D01*
X2075700Y1598367D02*
Y1601995D01*
X2075800Y1598621D02*
Y1601784D01*
X2075900Y1598921D02*
Y1601434D01*
X2076000Y1599292D02*
Y1601048D01*
X2076500Y1645015D02*
Y1645456D01*
X2076600Y1645015D02*
Y1645456D01*
Y1649042D02*
Y1649483D01*
X2076700Y1645015D02*
Y1645456D01*
Y1647059D02*
Y1647500D01*
Y1649042D02*
Y1649483D01*
X2076800Y1598869D02*
Y1599964D01*
Y1645015D02*
Y1645456D01*
Y1647059D02*
Y1647500D01*
Y1649042D02*
Y1649483D01*
X2076900Y1598525D02*
Y1600104D01*
Y1645015D02*
Y1645456D01*
Y1647059D02*
Y1647500D01*
Y1649042D02*
Y1649483D01*
X2077000Y1598365D02*
Y1600244D01*
Y1645015D02*
Y1645456D01*
Y1647059D02*
Y1647500D01*
Y1649042D02*
Y1649483D01*
X2077100Y1598205D02*
Y1600384D01*
Y1602256D02*
Y1602708D01*
Y1645015D02*
Y1645456D01*
Y1647059D02*
Y1647500D01*
Y1649042D02*
Y1649483D01*
X2077200Y1598056D02*
Y1600468D01*
Y1602289D02*
Y1602748D01*
Y1645015D02*
Y1645456D01*
Y1647059D02*
Y1647500D01*
Y1649042D02*
Y1649483D01*
X2077300Y1597994D02*
Y1600540D01*
Y1602323D02*
Y1602788D01*
Y1645015D02*
Y1645456D01*
Y1647059D02*
Y1647500D01*
Y1649042D02*
Y1649483D01*
X2077400Y1597931D02*
Y1598739D01*
Y1599740D02*
Y1600611D01*
Y1602356D02*
Y1602821D01*
Y1645015D02*
Y1645456D01*
Y1647059D02*
Y1647500D01*
Y1649042D02*
Y1649483D01*
X2077500Y1597869D02*
Y1598572D01*
Y1599940D02*
Y1600683D01*
Y1602375D02*
Y1602833D01*
Y1645015D02*
Y1645456D01*
Y1647059D02*
Y1647500D01*
Y1649042D02*
Y1649483D01*
X2077600Y1597806D02*
Y1598408D01*
Y1600135D02*
Y1600748D01*
Y1602392D02*
Y1602846D01*
Y1645015D02*
Y1645456D01*
Y1647059D02*
Y1647500D01*
Y1649042D02*
Y1649483D01*
X2077700Y1597744D02*
Y1598308D01*
Y1600211D02*
Y1600770D01*
Y1602409D02*
Y1602858D01*
Y1645015D02*
Y1645456D01*
Y1647059D02*
Y1647500D01*
Y1649042D02*
Y1649483D01*
X2077800Y1597712D02*
Y1598208D01*
Y1600286D02*
Y1600793D01*
Y1602425D02*
Y1602871D01*
Y1645015D02*
Y1645456D01*
Y1647059D02*
Y1647500D01*
Y1649042D02*
Y1649483D01*
X2077900Y1597690D02*
Y1598117D01*
Y1600357D02*
Y1600815D01*
Y1602422D02*
Y1602883D01*
Y1645015D02*
Y1645456D01*
Y1647059D02*
Y1647500D01*
Y1649042D02*
Y1649483D01*
X2078000Y1597667D02*
Y1598100D01*
Y1600374D02*
Y1600837D01*
Y1602402D02*
Y1602870D01*
Y1645015D02*
Y1645456D01*
Y1647059D02*
Y1647500D01*
Y1649042D02*
Y1649483D01*
X2078100Y1597645D02*
Y1598084D01*
Y1600390D02*
Y1600859D01*
Y1602382D02*
Y1602853D01*
Y1645015D02*
Y1645456D01*
Y1647059D02*
Y1647500D01*
Y1649042D02*
Y1649483D01*
X2078200Y1597623D02*
Y1598067D01*
Y1600407D02*
Y1600877D01*
Y1602362D02*
Y1602836D01*
Y1645015D02*
Y1645456D01*
Y1647059D02*
Y1647500D01*
Y1649042D02*
Y1649483D01*
X2078300Y1597601D02*
Y1598050D01*
Y1600424D02*
Y1600857D01*
Y1602337D02*
Y1602820D01*
Y1645015D02*
Y1645473D01*
Y1647042D02*
Y1647517D01*
Y1649025D02*
Y1649483D01*
X2078400Y1597606D02*
Y1598058D01*
Y1600416D02*
Y1600837D01*
Y1602312D02*
Y1602789D01*
Y1645015D02*
Y1649483D01*
X2078500Y1597623D02*
Y1598074D01*
Y1600399D02*
Y1600817D01*
Y1602281D02*
Y1602756D01*
Y1645015D02*
Y1649483D01*
X2078600Y1597640D02*
Y1598091D01*
Y1600383D02*
Y1600781D01*
Y1602206D02*
Y1602722D01*
Y1645015D02*
Y1649483D01*
X2078700Y1597656D02*
Y1598108D01*
Y1600366D02*
Y1600741D01*
Y1602131D02*
Y1602689D01*
Y1645015D02*
Y1649483D01*
X2078800Y1597675D02*
Y1598148D01*
Y1600332D02*
Y1600701D01*
Y1602043D02*
Y1602629D01*
Y1645015D02*
Y1649483D01*
X2078900Y1597695D02*
Y1598228D01*
Y1600272D02*
Y1600646D01*
Y1601909D02*
Y1602562D01*
X2079000Y1597715D02*
Y1598308D01*
Y1600212D02*
Y1600571D01*
Y1601771D02*
Y1602496D01*
X2079100Y1597753D02*
Y1598388D01*
Y1600152D02*
Y1600496D01*
Y1601571D02*
Y1602429D01*
X2079200Y1597828D02*
Y1598555D01*
Y1600011D02*
Y1600347D01*
Y1601371D02*
Y1602317D01*
X2079300Y1597903D02*
Y1598755D01*
Y1599844D02*
Y1600180D01*
Y1601171D02*
Y1602192D01*
X2079400Y1598020D02*
Y1599237D01*
Y1599431D02*
Y1600120D01*
Y1600716D02*
Y1602066D01*
X2079500Y1598153D02*
Y1601916D01*
X2079600Y1598349D02*
Y1601766D01*
Y1649453D02*
Y1649483D01*
X2079700Y1598569D02*
Y1601575D01*
Y1649107D02*
Y1649483D01*
X2079800Y1598789D02*
Y1601308D01*
Y1648762D02*
Y1649483D01*
X2079900Y1599158D02*
Y1600873D01*
Y1648416D02*
Y1649483D01*
X2080000Y1599858D02*
Y1599947D01*
Y1648071D02*
Y1649483D01*
X2080100Y1647726D02*
Y1649483D01*
X2080200Y1647380D02*
Y1649279D01*
X2080300Y1647035D02*
Y1648892D01*
X2080400Y1646689D02*
Y1648505D01*
X2080500Y1646344D02*
Y1648119D01*
X2080600Y1645998D02*
Y1647732D01*
X2080700Y1645653D02*
Y1647345D01*
X2080800Y1599610D02*
Y1600868D01*
Y1645307D02*
Y1646959D01*
X2080900Y1599210D02*
Y1601268D01*
Y1645015D02*
Y1646572D01*
X2081000Y1598877D02*
Y1601866D01*
Y1645015D02*
Y1646185D01*
X2081100Y1598608D02*
Y1602044D01*
Y1645015D02*
Y1645611D01*
X2081200Y1598408D02*
Y1602211D01*
Y1645015D02*
Y1645576D01*
X2081300Y1598236D02*
Y1602312D01*
Y1645015D02*
Y1645919D01*
X2081400Y1598136D02*
Y1600012D01*
Y1600340D02*
Y1602412D01*
Y1645015D02*
Y1646359D01*
X2081500Y1598036D02*
Y1599135D01*
Y1601288D02*
Y1602512D01*
Y1645125D02*
Y1646745D01*
X2081600Y1597936D02*
Y1598835D01*
Y1601621D02*
Y1602612D01*
Y1645492D02*
Y1647132D01*
X2081700Y1597836D02*
Y1598589D01*
Y1601897D02*
Y1602712D01*
Y1645859D02*
Y1647519D01*
X2081800Y1597736D02*
Y1598469D01*
Y1602047D02*
Y1602763D01*
Y1646225D02*
Y1647905D01*
X2081900Y1597709D02*
Y1598349D01*
Y1602197D02*
Y1602783D01*
Y1646592D02*
Y1648292D01*
X2082000Y1597689D02*
Y1598229D01*
Y1602298D02*
Y1602803D01*
Y1646959D02*
Y1648679D01*
X2082100Y1597669D02*
Y1598169D01*
Y1602327D02*
Y1602822D01*
Y1647325D02*
Y1649065D01*
X2082200Y1597651D02*
Y1598135D01*
Y1602355D02*
Y1602838D01*
Y1647692D02*
Y1649452D01*
X2082300Y1597635D02*
Y1598102D01*
Y1602384D02*
Y1602855D01*
Y1648059D02*
Y1649483D01*
X2082400Y1597618D02*
Y1598069D01*
Y1602413D02*
Y1602872D01*
Y1648596D02*
Y1649483D01*
X2082500Y1597601D02*
Y1598052D01*
Y1602427D02*
Y1602880D01*
Y1648802D02*
Y1649483D01*
X2082600Y1597603D02*
Y1598080D01*
Y1602398D02*
Y1602863D01*
Y1648595D02*
Y1649483D01*
X2082700Y1597620D02*
Y1598109D01*
Y1602370D02*
Y1602847D01*
Y1648072D02*
Y1649483D01*
X2082800Y1597637D02*
Y1598137D01*
Y1602341D02*
Y1602830D01*
Y1647729D02*
Y1649243D01*
X2082900Y1597653D02*
Y1598166D01*
Y1602313D02*
Y1602808D01*
Y1647385D02*
Y1648887D01*
X2083000Y1597672D02*
Y1598205D01*
Y1602272D02*
Y1602768D01*
Y1647041D02*
Y1648530D01*
X2083100Y1597692D02*
Y1598305D01*
Y1602152D02*
Y1602728D01*
Y1646697D02*
Y1648174D01*
X2083200Y1597712D02*
Y1598405D01*
Y1602032D02*
Y1602688D01*
Y1646354D02*
Y1647818D01*
X2083300Y1597741D02*
Y1598505D01*
Y1601912D02*
Y1602617D01*
Y1646010D02*
Y1647462D01*
X2083400Y1597816D02*
Y1598725D01*
Y1601684D02*
Y1602542D01*
Y1645666D02*
Y1647105D01*
X2083500Y1597891D02*
Y1599058D01*
Y1601351D02*
Y1602461D01*
Y1645322D02*
Y1646749D01*
X2083600Y1597993D02*
Y1599767D01*
Y1600603D02*
Y1602361D01*
Y1645015D02*
Y1646393D01*
X2083700Y1598118D02*
Y1602261D01*
Y1645015D02*
Y1646013D01*
X2083800Y1598243D02*
Y1602108D01*
Y1645015D02*
Y1645625D01*
X2083900Y1598476D02*
Y1601908D01*
Y1645015D02*
Y1645576D01*
X2084000Y1598752D02*
Y1601631D01*
Y1645015D02*
Y1645923D01*
X2084100Y1599066D02*
Y1601274D01*
Y1645015D02*
Y1646395D01*
X2084200Y1599466D02*
Y1600874D01*
Y1645100D02*
Y1646775D01*
X2084300Y1645446D02*
Y1647155D01*
X2084400Y1645791D02*
Y1647535D01*
X2084500Y1646136D02*
Y1647915D01*
X2084600Y1646482D02*
Y1648295D01*
X2084700Y1646827D02*
Y1648675D01*
X2084800Y1647173D02*
Y1649055D01*
X2084900Y1647518D02*
Y1649435D01*
X2085000Y1602532D02*
Y1602816D01*
Y1647864D02*
Y1649483D01*
X2085100Y1602289D02*
Y1602816D01*
Y1648209D02*
Y1649483D01*
X2085200Y1602046D02*
Y1602816D01*
Y1648555D02*
Y1649483D01*
X2085300Y1601802D02*
Y1602816D01*
Y1648900D02*
Y1649483D01*
X2085400Y1601559D02*
Y1602816D01*
Y1613758D02*
Y1613991D01*
Y1649246D02*
Y1649483D01*
X2085500Y1601316D02*
Y1602816D01*
Y1613515D02*
Y1613991D01*
X2085600Y1601072D02*
Y1602816D01*
Y1613271D02*
Y1613991D01*
X2085700Y1600829D02*
Y1602079D01*
Y1602363D02*
Y1602816D01*
Y1613028D02*
Y1613991D01*
X2085800Y1600586D02*
Y1601844D01*
Y1602363D02*
Y1602816D01*
Y1612785D02*
Y1613991D01*
X2085900Y1600342D02*
Y1601610D01*
Y1602363D02*
Y1602816D01*
Y1612541D02*
Y1613991D01*
Y1647185D02*
Y1647419D01*
X2086000Y1600099D02*
Y1601375D01*
Y1602363D02*
Y1602816D01*
Y1612298D02*
Y1613351D01*
Y1613610D02*
Y1613991D01*
Y1646339D02*
Y1648165D01*
X2086100Y1599856D02*
Y1601141D01*
Y1602363D02*
Y1602816D01*
Y1612055D02*
Y1613116D01*
Y1613610D02*
Y1613991D01*
Y1646136D02*
Y1648420D01*
X2086200Y1599612D02*
Y1600906D01*
Y1602363D02*
Y1602816D01*
Y1611811D02*
Y1612882D01*
Y1613610D02*
Y1613991D01*
Y1645961D02*
Y1648625D01*
X2086300Y1599369D02*
Y1600672D01*
Y1602363D02*
Y1602816D01*
Y1611568D02*
Y1612647D01*
Y1613610D02*
Y1613991D01*
Y1645817D02*
Y1648725D01*
X2086400Y1599126D02*
Y1600437D01*
Y1602363D02*
Y1602816D01*
Y1611325D02*
Y1612413D01*
Y1613610D02*
Y1613991D01*
Y1645692D02*
Y1647161D01*
Y1647338D02*
Y1648825D01*
X2086500Y1598882D02*
Y1600203D01*
Y1602363D02*
Y1602816D01*
Y1611081D02*
Y1612178D01*
Y1613610D02*
Y1613991D01*
Y1645574D02*
Y1646511D01*
Y1647988D02*
Y1648925D01*
X2086600Y1598639D02*
Y1599968D01*
Y1602363D02*
Y1602816D01*
Y1610838D02*
Y1611944D01*
Y1613610D02*
Y1613991D01*
Y1645474D02*
Y1646288D01*
Y1648211D02*
Y1649025D01*
X2086700Y1598396D02*
Y1599734D01*
Y1602363D02*
Y1602816D01*
Y1610595D02*
Y1611709D01*
Y1613610D02*
Y1613991D01*
Y1645374D02*
Y1646108D01*
Y1648391D02*
Y1649125D01*
X2086800Y1598152D02*
Y1599499D01*
Y1602363D02*
Y1602816D01*
Y1610351D02*
Y1611475D01*
Y1613610D02*
Y1613991D01*
Y1645290D02*
Y1645928D01*
Y1648571D02*
Y1649208D01*
X2086900Y1597909D02*
Y1599265D01*
Y1602363D02*
Y1602816D01*
Y1610108D02*
Y1611240D01*
Y1613610D02*
Y1613991D01*
Y1645240D02*
Y1645833D01*
Y1648666D02*
Y1649258D01*
X2087000Y1597666D02*
Y1599030D01*
Y1602363D02*
Y1602816D01*
Y1609865D02*
Y1611006D01*
Y1613610D02*
Y1613991D01*
Y1645190D02*
Y1645758D01*
Y1648741D02*
Y1649308D01*
X2087100Y1597663D02*
Y1598796D01*
Y1602363D02*
Y1602816D01*
Y1609621D02*
Y1610771D01*
Y1613610D02*
Y1613991D01*
Y1645140D02*
Y1645683D01*
Y1648816D02*
Y1649358D01*
X2087200Y1597663D02*
Y1598562D01*
Y1602363D02*
Y1602816D01*
Y1609523D02*
Y1610537D01*
Y1613610D02*
Y1613991D01*
Y1645108D02*
Y1645608D01*
Y1648891D02*
Y1649390D01*
X2087300Y1597663D02*
Y1598327D01*
Y1602363D02*
Y1602816D01*
Y1609523D02*
Y1610302D01*
Y1613610D02*
Y1613991D01*
Y1645080D02*
Y1645533D01*
Y1648966D02*
Y1649419D01*
X2087400Y1597663D02*
Y1598093D01*
Y1602363D02*
Y1602816D01*
Y1609523D02*
Y1610068D01*
Y1613610D02*
Y1613991D01*
Y1645051D02*
Y1645488D01*
Y1648994D02*
Y1649447D01*
X2087500Y1597663D02*
Y1597858D01*
Y1602363D02*
Y1602816D01*
Y1609523D02*
Y1609833D01*
Y1613610D02*
Y1613991D01*
Y1645023D02*
Y1645448D01*
Y1649012D02*
Y1649476D01*
X2087600Y1602363D02*
Y1602816D01*
Y1609523D02*
Y1609599D01*
Y1613610D02*
Y1613991D01*
Y1645005D02*
Y1645408D01*
Y1649031D02*
Y1649494D01*
X2087700Y1602363D02*
Y1602816D01*
Y1613610D02*
Y1613991D01*
Y1644993D02*
Y1645396D01*
Y1649049D02*
Y1649509D01*
X2087800Y1602363D02*
Y1602816D01*
Y1613610D02*
Y1613991D01*
Y1644980D02*
Y1645396D01*
Y1649067D02*
Y1649523D01*
X2087900Y1602363D02*
Y1602816D01*
Y1613610D02*
Y1613991D01*
Y1644968D02*
Y1645396D01*
Y1649085D02*
Y1649537D01*
X2088000Y1602363D02*
Y1602816D01*
Y1613610D02*
Y1613991D01*
Y1644955D02*
Y1645396D01*
Y1649102D02*
Y1649535D01*
X2088100Y1602363D02*
Y1602816D01*
Y1613610D02*
Y1613991D01*
Y1644968D02*
Y1645396D01*
Y1649083D02*
Y1649523D01*
X2088200Y1602363D02*
Y1602816D01*
Y1613610D02*
Y1613991D01*
Y1644980D02*
Y1645396D01*
Y1649063D02*
Y1649510D01*
X2088300Y1602363D02*
Y1602816D01*
Y1644993D02*
Y1645396D01*
Y1649043D02*
Y1649498D01*
X2088400Y1645005D02*
Y1645408D01*
Y1649023D02*
Y1649485D01*
X2088500Y1645023D02*
Y1645448D01*
Y1649003D02*
Y1649459D01*
X2088600Y1645051D02*
Y1645488D01*
Y1648983D02*
Y1649430D01*
X2088700Y1645080D02*
Y1645530D01*
Y1648931D02*
Y1649401D01*
X2088800Y1645108D02*
Y1645580D01*
Y1648871D02*
Y1649373D01*
X2088900Y1645141D02*
Y1645630D01*
Y1648811D02*
Y1649333D01*
X2089000Y1612564D02*
Y1613195D01*
Y1645191D02*
Y1645714D01*
Y1648740D02*
Y1649291D01*
X2089100Y1597663D02*
Y1598115D01*
Y1609523D02*
Y1609904D01*
Y1612242D02*
Y1613457D01*
Y1645241D02*
Y1645814D01*
Y1648665D02*
Y1649248D01*
X2089200Y1597663D02*
Y1598115D01*
Y1609523D02*
Y1609904D01*
Y1612015D02*
Y1613577D01*
Y1645291D02*
Y1645932D01*
Y1648567D02*
Y1649205D01*
X2089300Y1597663D02*
Y1598115D01*
Y1609523D02*
Y1609904D01*
Y1611882D02*
Y1613697D01*
Y1645360D02*
Y1646132D01*
Y1648367D02*
Y1649124D01*
X2089400Y1597663D02*
Y1598115D01*
Y1609523D02*
Y1609904D01*
Y1611748D02*
Y1613771D01*
Y1645440D02*
Y1646332D01*
Y1648167D02*
Y1649024D01*
X2089500Y1597663D02*
Y1598115D01*
Y1609523D02*
Y1609904D01*
Y1611615D02*
Y1612580D01*
Y1613016D02*
Y1613843D01*
Y1645520D02*
Y1646570D01*
Y1647928D02*
Y1648924D01*
X2089600Y1597663D02*
Y1598115D01*
Y1609523D02*
Y1609904D01*
Y1611499D02*
Y1612234D01*
Y1613261D02*
Y1613914D01*
Y1645652D02*
Y1647170D01*
Y1647328D02*
Y1648786D01*
X2089700Y1597663D02*
Y1598115D01*
Y1609523D02*
Y1609904D01*
Y1611399D02*
Y1612029D01*
Y1613394D02*
Y1613986D01*
Y1645802D02*
Y1648636D01*
X2089800Y1597663D02*
Y1598115D01*
Y1609523D02*
Y1609904D01*
Y1611299D02*
Y1611909D01*
Y1613479D02*
Y1614002D01*
Y1645962D02*
Y1648452D01*
X2089900Y1597663D02*
Y1598115D01*
Y1609523D02*
Y1609904D01*
Y1611199D02*
Y1611789D01*
Y1613554D02*
Y1614012D01*
Y1646137D02*
Y1648218D01*
X2090000Y1597663D02*
Y1598115D01*
Y1609523D02*
Y1609904D01*
Y1611099D02*
Y1611678D01*
Y1613612D02*
Y1614022D01*
Y1646337D02*
Y1647910D01*
X2090100Y1597663D02*
Y1598115D01*
Y1609523D02*
Y1609904D01*
Y1610999D02*
Y1611578D01*
Y1613629D02*
Y1614032D01*
Y1647084D02*
Y1647309D01*
X2090200Y1597663D02*
Y1598115D01*
Y1609523D02*
Y1609904D01*
Y1610905D02*
Y1611478D01*
Y1613646D02*
Y1614042D01*
X2090300Y1597663D02*
Y1602858D01*
Y1609523D02*
Y1609904D01*
Y1610810D02*
Y1611378D01*
Y1613662D02*
Y1614049D01*
X2090400Y1597663D02*
Y1602829D01*
Y1609523D02*
Y1609904D01*
Y1610716D02*
Y1611278D01*
Y1613662D02*
Y1614029D01*
X2090500Y1597663D02*
Y1602799D01*
Y1609523D02*
Y1609904D01*
Y1610621D02*
Y1611178D01*
Y1613642D02*
Y1614009D01*
X2090600Y1597663D02*
Y1602769D01*
Y1609523D02*
Y1609904D01*
Y1610527D02*
Y1611078D01*
Y1613622D02*
Y1613989D01*
X2090700Y1597663D02*
Y1602740D01*
Y1609523D02*
Y1609904D01*
Y1610433D02*
Y1610978D01*
Y1613602D02*
Y1613973D01*
X2090800Y1597663D02*
Y1602710D01*
Y1609523D02*
Y1609904D01*
Y1610338D02*
Y1610878D01*
Y1613582D02*
Y1613956D01*
Y1647929D02*
Y1648373D01*
X2090900Y1597663D02*
Y1598116D01*
Y1602155D02*
Y1602680D01*
Y1609523D02*
Y1609904D01*
Y1610244D02*
Y1610778D01*
Y1613562D02*
Y1613939D01*
Y1647496D02*
Y1648771D01*
X2091000Y1597663D02*
Y1598115D01*
Y1602131D02*
Y1602651D01*
Y1609523D02*
Y1609904D01*
Y1610149D02*
Y1610678D01*
Y1613531D02*
Y1613895D01*
Y1647265D02*
Y1648911D01*
X2091100Y1597663D02*
Y1598115D01*
Y1602101D02*
Y1602621D01*
Y1609523D02*
Y1609904D01*
Y1610055D02*
Y1610578D01*
Y1613471D02*
Y1613835D01*
Y1647165D02*
Y1649051D01*
X2091200Y1597663D02*
Y1598115D01*
Y1602072D02*
Y1602591D01*
Y1609523D02*
Y1610478D01*
Y1613411D02*
Y1613775D01*
Y1647065D02*
Y1649154D01*
X2091300Y1597663D02*
Y1598115D01*
Y1602042D02*
Y1602562D01*
Y1609523D02*
Y1610378D01*
Y1613347D02*
Y1613700D01*
Y1647002D02*
Y1647820D01*
Y1648405D02*
Y1649204D01*
X2091400Y1597663D02*
Y1598115D01*
Y1602013D02*
Y1602532D01*
Y1609523D02*
Y1610278D01*
Y1613267D02*
Y1613620D01*
Y1646947D02*
Y1647607D01*
Y1648640D02*
Y1649254D01*
X2091500Y1597663D02*
Y1598115D01*
Y1601983D02*
Y1602503D01*
Y1609523D02*
Y1610178D01*
Y1613187D02*
Y1613540D01*
Y1646891D02*
Y1647482D01*
Y1648774D02*
Y1649304D01*
X2091600Y1597663D02*
Y1598115D01*
Y1601954D02*
Y1602473D01*
Y1609523D02*
Y1610078D01*
Y1646836D02*
Y1647375D01*
Y1648835D02*
Y1649354D01*
X2091700Y1597663D02*
Y1598115D01*
Y1601925D02*
Y1602443D01*
Y1609523D02*
Y1609978D01*
Y1646780D02*
Y1647315D01*
Y1648885D02*
Y1649379D01*
X2091800Y1597663D02*
Y1598115D01*
Y1601895D02*
Y1602414D01*
Y1646751D02*
Y1647255D01*
Y1648935D02*
Y1649397D01*
X2091900Y1597663D02*
Y1598115D01*
Y1601866D02*
Y1602384D01*
Y1646741D02*
Y1647200D01*
Y1648982D02*
Y1649416D01*
X2092000Y1597663D02*
Y1598115D01*
Y1601836D02*
Y1602354D01*
Y1646731D02*
Y1647187D01*
Y1648996D02*
Y1649434D01*
X2092100Y1646721D02*
Y1647175D01*
Y1649010D02*
Y1649452D01*
X2092200Y1646711D02*
Y1647162D01*
Y1649025D02*
Y1649470D01*
X2092300Y1646701D02*
Y1647150D01*
Y1649039D02*
Y1649483D01*
X2092400Y1646698D02*
Y1647139D01*
Y1649042D02*
Y1649483D01*
X2092500Y1609722D02*
Y1610154D01*
Y1613407D02*
Y1613846D01*
Y1646698D02*
Y1647139D01*
Y1649042D02*
Y1649483D01*
X2092600Y1609678D02*
Y1610109D01*
Y1613440D02*
Y1613884D01*
Y1646698D02*
Y1647139D01*
Y1649042D02*
Y1649483D01*
X2092700Y1609633D02*
Y1610065D01*
Y1613474D02*
Y1613921D01*
Y1646698D02*
Y1647139D01*
Y1649042D02*
Y1649483D01*
X2092800Y1609589D02*
Y1610020D01*
Y1613507D02*
Y1613959D01*
Y1646698D02*
Y1647139D01*
Y1649042D02*
Y1649483D01*
X2092900Y1609544D02*
Y1609976D01*
Y1613540D02*
Y1613993D01*
Y1646698D02*
Y1647139D01*
Y1649042D02*
Y1649483D01*
X2093000Y1609518D02*
Y1609958D01*
Y1613557D02*
Y1614003D01*
Y1645015D02*
Y1649483D01*
X2093100Y1599349D02*
Y1601129D01*
Y1609510D02*
Y1609949D01*
Y1613569D02*
Y1614013D01*
Y1645015D02*
Y1649483D01*
X2093200Y1598982D02*
Y1601622D01*
Y1609501D02*
Y1609940D01*
Y1613580D02*
Y1614023D01*
Y1645015D02*
Y1649483D01*
X2093300Y1598682D02*
Y1601986D01*
Y1609493D02*
Y1609931D01*
Y1613591D02*
Y1614033D01*
Y1645015D02*
Y1649483D01*
X2093400Y1598477D02*
Y1602153D01*
Y1609485D02*
Y1609922D01*
Y1613602D02*
Y1614043D01*
Y1645015D02*
Y1649483D01*
X2093500Y1598277D02*
Y1602277D01*
Y1609476D02*
Y1609913D01*
Y1613607D02*
Y1614048D01*
X2093600Y1598171D02*
Y1602377D01*
Y1609468D02*
Y1609904D01*
Y1613591D02*
Y1614036D01*
X2093700Y1598071D02*
Y1599239D01*
Y1601172D02*
Y1602477D01*
Y1609468D02*
Y1609904D01*
Y1613574D02*
Y1614023D01*
X2093800Y1597971D02*
Y1598939D01*
Y1601505D02*
Y1602577D01*
Y1609481D02*
Y1609904D01*
Y1613557D02*
Y1614011D01*
X2093900Y1597871D02*
Y1598639D01*
Y1601839D02*
Y1602677D01*
Y1609493D02*
Y1609904D01*
Y1613541D02*
Y1613998D01*
X2094000Y1597771D02*
Y1598510D01*
Y1601995D02*
Y1602756D01*
Y1609506D02*
Y1609916D01*
Y1613524D02*
Y1613977D01*
X2094100Y1597716D02*
Y1598390D01*
Y1602145D02*
Y1602776D01*
Y1609518D02*
Y1609956D01*
Y1613507D02*
Y1613949D01*
X2094200Y1597696D02*
Y1598270D01*
Y1602287D02*
Y1602796D01*
Y1609542D02*
Y1609996D01*
Y1613491D02*
Y1613920D01*
Y1644114D02*
Y1644374D01*
X2094300Y1597676D02*
Y1598180D01*
Y1602317D02*
Y1602816D01*
Y1609571D02*
Y1610042D01*
Y1613438D02*
Y1613892D01*
Y1644114D02*
Y1644374D01*
X2094400Y1597657D02*
Y1598147D01*
Y1602346D02*
Y1602833D01*
Y1609599D02*
Y1610117D01*
Y1613378D02*
Y1613858D01*
Y1644114D02*
Y1644374D01*
X2094500Y1597641D02*
Y1598114D01*
Y1602374D02*
Y1602849D01*
Y1609628D02*
Y1610192D01*
Y1613318D02*
Y1613815D01*
Y1644114D02*
Y1644374D01*
X2094600Y1597624D02*
Y1598080D01*
Y1602403D02*
Y1602866D01*
Y1609669D02*
Y1610267D01*
Y1613247D02*
Y1613772D01*
Y1644114D02*
Y1644374D01*
X2094700Y1597607D02*
Y1598047D01*
Y1602431D02*
Y1602883D01*
Y1609719D02*
Y1610342D01*
Y1613172D02*
Y1613729D01*
Y1644114D02*
Y1644374D01*
X2094800Y1597598D02*
Y1598070D01*
Y1602408D02*
Y1602869D01*
Y1609769D02*
Y1610434D01*
Y1613077D02*
Y1613676D01*
Y1644114D02*
Y1644374D01*
X2094900Y1597614D02*
Y1598099D01*
Y1602380D02*
Y1602853D01*
Y1609821D02*
Y1610584D01*
Y1612911D02*
Y1613593D01*
Y1644114D02*
Y1644374D01*
X2095000Y1597631D02*
Y1598127D01*
Y1602351D02*
Y1602836D01*
Y1609901D02*
Y1610734D01*
Y1612744D02*
Y1613509D01*
Y1644114D02*
Y1644374D01*
X2095100Y1597648D02*
Y1598156D01*
Y1602322D02*
Y1602819D01*
Y1609981D02*
Y1610884D01*
Y1612577D02*
Y1613426D01*
Y1644114D02*
Y1644374D01*
X2095200Y1597665D02*
Y1598184D01*
Y1602294D02*
Y1602782D01*
Y1610072D02*
Y1611264D01*
Y1612190D02*
Y1613315D01*
Y1644114D02*
Y1644374D01*
X2095300Y1597685D02*
Y1598270D01*
Y1602194D02*
Y1602742D01*
Y1610222D02*
Y1613195D01*
Y1644114D02*
Y1644374D01*
X2095400Y1597705D02*
Y1598370D01*
Y1602074D02*
Y1602702D01*
Y1610372D02*
Y1613075D01*
Y1644114D02*
Y1644374D01*
X2095500Y1597725D02*
Y1598470D01*
Y1601954D02*
Y1602643D01*
Y1610563D02*
Y1612863D01*
Y1644114D02*
Y1644374D01*
X2095600Y1597790D02*
Y1598609D01*
Y1601800D02*
Y1602568D01*
Y1610770D02*
Y1612621D01*
Y1644114D02*
Y1644374D01*
X2095700Y1597865D02*
Y1598943D01*
Y1601467D02*
Y1602493D01*
Y1611120D02*
Y1612221D01*
Y1644114D02*
Y1644374D01*
X2095800Y1597950D02*
Y1599315D01*
Y1601090D02*
Y1602396D01*
Y1644114D02*
Y1644374D01*
X2095900Y1598075D02*
Y1602296D01*
Y1644114D02*
Y1644374D01*
X2096000Y1598200D02*
Y1602178D01*
Y1644114D02*
Y1644374D01*
X2096100Y1598389D02*
Y1601978D01*
Y1644114D02*
Y1644374D01*
X2096200Y1598647D02*
Y1601753D01*
Y1644114D02*
Y1644374D01*
X2096300Y1598947D02*
Y1601403D01*
Y1644114D02*
Y1644374D01*
X2096400Y1599327D02*
Y1601013D01*
Y1644114D02*
Y1644374D01*
X2096500Y1644114D02*
Y1644374D01*
X2096600Y1644114D02*
Y1644374D01*
X2096700Y1644114D02*
Y1644374D01*
X2097200Y1647186D02*
Y1647418D01*
X2097300Y1601123D02*
Y1601948D01*
Y1646587D02*
Y1647972D01*
X2097400Y1597663D02*
Y1598115D01*
Y1600817D02*
Y1602187D01*
Y1646279D02*
Y1648266D01*
X2097500Y1597663D02*
Y1598115D01*
Y1600583D02*
Y1602307D01*
Y1646046D02*
Y1648466D01*
X2097600Y1597663D02*
Y1598115D01*
Y1600432D02*
Y1602427D01*
Y1645894D02*
Y1648617D01*
X2097700Y1597663D02*
Y1598115D01*
Y1600298D02*
Y1602521D01*
Y1645794D02*
Y1646842D01*
Y1647717D02*
Y1648737D01*
X2097800Y1597663D02*
Y1598115D01*
Y1600165D02*
Y1602593D01*
Y1645694D02*
Y1646542D01*
Y1648017D02*
Y1648857D01*
X2097900Y1597663D02*
Y1598115D01*
Y1600032D02*
Y1601106D01*
Y1601783D02*
Y1602664D01*
Y1645606D02*
Y1646287D01*
Y1648199D02*
Y1648941D01*
X2098000Y1597663D02*
Y1598115D01*
Y1599923D02*
Y1600786D01*
Y1601968D02*
Y1602735D01*
Y1645522D02*
Y1646134D01*
Y1648364D02*
Y1649007D01*
X2098100Y1597663D02*
Y1598115D01*
Y1599823D02*
Y1600572D01*
Y1602101D02*
Y1602807D01*
Y1645439D02*
Y1646034D01*
Y1648498D02*
Y1649074D01*
X2098200Y1597663D02*
Y1598115D01*
Y1599723D02*
Y1600452D01*
Y1602194D02*
Y1602826D01*
Y1645362D02*
Y1645934D01*
Y1648619D02*
Y1649136D01*
X2098300Y1597663D02*
Y1598115D01*
Y1599623D02*
Y1600332D01*
Y1602269D02*
Y1602836D01*
Y1645319D02*
Y1645834D01*
Y1648669D02*
Y1649179D01*
X2098400Y1597663D02*
Y1598115D01*
Y1599523D02*
Y1600212D01*
Y1602344D02*
Y1602846D01*
Y1645276D02*
Y1645734D01*
Y1648719D02*
Y1649222D01*
X2098500Y1597663D02*
Y1598115D01*
Y1599423D02*
Y1600111D01*
Y1602373D02*
Y1602856D01*
Y1645234D02*
Y1645676D01*
Y1648769D02*
Y1649265D01*
X2098600Y1597663D02*
Y1598115D01*
Y1599326D02*
Y1600011D01*
Y1602390D02*
Y1602866D01*
Y1645192D02*
Y1645636D01*
Y1648819D02*
Y1649307D01*
X2098700Y1597663D02*
Y1598115D01*
Y1599231D02*
Y1599911D01*
Y1602407D02*
Y1602876D01*
Y1645167D02*
Y1645596D01*
Y1648869D02*
Y1649336D01*
X2098800Y1597663D02*
Y1598115D01*
Y1599137D02*
Y1599811D01*
Y1602423D02*
Y1602882D01*
Y1645142D02*
Y1645569D01*
Y1648918D02*
Y1649364D01*
X2098900Y1597663D02*
Y1598115D01*
Y1599042D02*
Y1599711D01*
Y1602424D02*
Y1602862D01*
Y1645117D02*
Y1645554D01*
Y1648936D02*
Y1649393D01*
X2099000Y1597663D02*
Y1598115D01*
Y1598948D02*
Y1599611D01*
Y1602404D02*
Y1602842D01*
Y1645092D02*
Y1645539D01*
Y1648953D02*
Y1649421D01*
X2099100Y1597663D02*
Y1598115D01*
Y1598853D02*
Y1599511D01*
Y1602384D02*
Y1602822D01*
Y1645071D02*
Y1645523D01*
Y1648970D02*
Y1649434D01*
X2099200Y1597663D02*
Y1598115D01*
Y1598759D02*
Y1599411D01*
Y1602364D02*
Y1602804D01*
Y1645058D02*
Y1645508D01*
Y1648986D02*
Y1649445D01*
X2099300Y1597663D02*
Y1598115D01*
Y1598665D02*
Y1599311D01*
Y1602344D02*
Y1602787D01*
Y1645046D02*
Y1645492D01*
Y1649003D02*
Y1649456D01*
X2099400Y1597663D02*
Y1598115D01*
Y1598570D02*
Y1599211D01*
Y1602324D02*
Y1602771D01*
Y1645033D02*
Y1645477D01*
Y1649020D02*
Y1649467D01*
X2099500Y1597663D02*
Y1598115D01*
Y1598476D02*
Y1599111D01*
Y1602304D02*
Y1602754D01*
Y1645021D02*
Y1645462D01*
Y1649036D02*
Y1649479D01*
X2099600Y1597663D02*
Y1598115D01*
Y1598381D02*
Y1599011D01*
Y1602271D02*
Y1602707D01*
Y1645015D02*
Y1645456D01*
Y1649042D02*
Y1649483D01*
X2099700Y1597663D02*
Y1598115D01*
Y1598287D02*
Y1598911D01*
Y1602211D02*
Y1602647D01*
Y1645015D02*
Y1645456D01*
Y1649042D02*
Y1649483D01*
X2099800Y1597663D02*
Y1598142D01*
Y1598189D02*
Y1598811D01*
Y1602151D02*
Y1602587D01*
Y1645015D02*
Y1645456D01*
Y1649042D02*
Y1649483D01*
X2099900Y1597663D02*
Y1598711D01*
Y1602091D02*
Y1602520D01*
Y1645015D02*
Y1645456D01*
Y1649042D02*
Y1649483D01*
X2100000Y1597663D02*
Y1598611D01*
Y1602016D02*
Y1602440D01*
Y1645015D02*
Y1645456D01*
Y1649042D02*
Y1649483D01*
X2100100Y1597663D02*
Y1598511D01*
Y1601936D02*
Y1602360D01*
Y1645015D02*
Y1645456D01*
Y1649042D02*
Y1649483D01*
X2100200Y1597663D02*
Y1598411D01*
Y1645015D02*
Y1645456D01*
Y1649042D02*
Y1649483D01*
X2100300Y1597663D02*
Y1598311D01*
Y1645015D02*
Y1649483D01*
X2100400Y1597663D02*
Y1598211D01*
Y1645015D02*
Y1649483D01*
X2100500Y1645015D02*
Y1649483D01*
X2100600Y1645015D02*
Y1649483D01*
X2100700Y1645015D02*
Y1649483D01*
X2101800Y1645218D02*
Y1645649D01*
Y1648897D02*
Y1649336D01*
X2101900Y1645173D02*
Y1645605D01*
Y1648930D02*
Y1649373D01*
X2102000Y1645129D02*
Y1645560D01*
Y1648963D02*
Y1649411D01*
X2102100Y1645084D02*
Y1645516D01*
Y1648997D02*
Y1649448D01*
X2102200Y1645040D02*
Y1645471D01*
Y1649030D02*
Y1649485D01*
X2102300Y1645011D02*
Y1645451D01*
Y1649049D02*
Y1649495D01*
X2102400Y1645002D02*
Y1645442D01*
Y1649060D02*
Y1649505D01*
X2102500Y1644994D02*
Y1645433D01*
Y1649071D02*
Y1649515D01*
X2102600Y1644986D02*
Y1645424D01*
Y1649082D02*
Y1649525D01*
X2102700Y1644977D02*
Y1645415D01*
Y1649093D02*
Y1649535D01*
X2102800Y1644969D02*
Y1645405D01*
Y1649101D02*
Y1649541D01*
X2102900Y1644961D02*
Y1645396D01*
Y1649084D02*
Y1649529D01*
X2103000Y1644960D02*
Y1645396D01*
Y1649067D02*
Y1649516D01*
X2103100Y1644972D02*
Y1645396D01*
Y1649051D02*
Y1649504D01*
X2103200Y1644985D02*
Y1645396D01*
Y1649034D02*
Y1649491D01*
X2103300Y1644997D02*
Y1645405D01*
Y1649017D02*
Y1649472D01*
X2103400Y1645010D02*
Y1645445D01*
Y1649001D02*
Y1649443D01*
X2103500Y1645032D02*
Y1645485D01*
Y1648984D02*
Y1649415D01*
X2103600Y1645061D02*
Y1645528D01*
Y1648935D02*
Y1649386D01*
X2103700Y1645089D02*
Y1645603D01*
Y1648875D02*
Y1649353D01*
X2103800Y1645118D02*
Y1645678D01*
Y1648815D02*
Y1649311D01*
X2103900Y1645157D02*
Y1645753D01*
Y1648745D02*
Y1649268D01*
X2104000Y1645207D02*
Y1645828D01*
Y1648670D02*
Y1649225D01*
X2104100Y1645257D02*
Y1645914D01*
Y1648583D02*
Y1649175D01*
X2104200Y1645307D02*
Y1646064D01*
Y1648416D02*
Y1649091D01*
X2104300Y1645387D02*
Y1646214D01*
Y1648249D02*
Y1649008D01*
X2104400Y1645467D02*
Y1646364D01*
Y1648083D02*
Y1648925D01*
X2104500Y1645553D02*
Y1646710D01*
Y1647728D02*
Y1648817D01*
X2104600Y1645703D02*
Y1648697D01*
X2104700Y1645853D02*
Y1648577D01*
X2104800Y1646039D02*
Y1648374D01*
X2104900Y1646239D02*
Y1648140D01*
X2105000Y1646585D02*
Y1647744D01*
X2105700Y1643795D02*
Y1644232D01*
X2105800Y1643782D02*
Y1644218D01*
Y1646761D02*
Y1647918D01*
X2105900Y1643770D02*
Y1644204D01*
Y1646350D02*
Y1648337D01*
X2106000Y1643757D02*
Y1644198D01*
Y1646130D02*
Y1648571D01*
X2106100Y1643763D02*
Y1644215D01*
Y1645910D02*
Y1648689D01*
X2106200Y1643777D02*
Y1644231D01*
Y1645760D02*
Y1648789D01*
X2106300Y1643792D02*
Y1644248D01*
Y1645648D02*
Y1646740D01*
Y1647758D02*
Y1648889D01*
X2106400Y1643806D02*
Y1644282D01*
Y1645535D02*
Y1646351D01*
Y1648147D02*
Y1648989D01*
X2106500Y1643829D02*
Y1644332D01*
Y1645423D02*
Y1646171D01*
Y1648327D02*
Y1649089D01*
X2106600Y1643857D02*
Y1644382D01*
Y1645310D02*
Y1645991D01*
Y1648507D02*
Y1649189D01*
X2106700Y1643886D02*
Y1644442D01*
Y1645263D02*
Y1645859D01*
Y1648639D02*
Y1649240D01*
X2106800Y1643914D02*
Y1644502D01*
Y1645217D02*
Y1645784D01*
Y1648714D02*
Y1649290D01*
X2106900Y1643981D02*
Y1644562D01*
Y1645172D02*
Y1645709D01*
Y1648789D02*
Y1649340D01*
X2107000Y1644081D02*
Y1644660D01*
Y1645126D02*
Y1645634D01*
Y1648864D02*
Y1649383D01*
X2107100Y1644161D02*
Y1644760D01*
Y1645081D02*
Y1645559D01*
Y1648939D02*
Y1649416D01*
X2107200Y1644236D02*
Y1644860D01*
Y1645036D02*
Y1645502D01*
Y1648988D02*
Y1649449D01*
X2107300Y1644320D02*
Y1645462D01*
Y1649006D02*
Y1649483D01*
X2107400Y1644420D02*
Y1645422D01*
Y1649024D02*
Y1649496D01*
X2107500Y1644520D02*
Y1645396D01*
Y1649042D02*
Y1649509D01*
X2107600Y1644629D02*
Y1645396D01*
Y1649061D02*
Y1649521D01*
X2107700Y1644749D02*
Y1645396D01*
Y1649079D02*
Y1649534D01*
X2107800Y1644869D02*
Y1645396D01*
Y1649097D02*
Y1649540D01*
X2107900Y1644956D02*
Y1645396D01*
Y1649090D02*
Y1649527D01*
X2108000Y1644971D02*
Y1645396D01*
Y1649070D02*
Y1649515D01*
X2108100Y1644985D02*
Y1645396D01*
Y1649050D02*
Y1649502D01*
X2108200Y1644999D02*
Y1645396D01*
Y1649030D02*
Y1649490D01*
X2108300Y1645013D02*
Y1645434D01*
Y1649010D02*
Y1649469D01*
X2108400Y1645041D02*
Y1645474D01*
Y1648990D02*
Y1649440D01*
X2108500Y1645070D02*
Y1645514D01*
Y1648952D02*
Y1649412D01*
X2108600Y1645098D02*
Y1645562D01*
Y1648892D02*
Y1649383D01*
X2108700Y1645127D02*
Y1645612D01*
Y1648832D02*
Y1649349D01*
X2108800Y1645173D02*
Y1645679D01*
Y1648767D02*
Y1649306D01*
X2108900Y1645223D02*
Y1645779D01*
Y1648692D02*
Y1649263D01*
X2109000Y1645273D02*
Y1645879D01*
Y1648617D02*
Y1649220D01*
X2109100Y1645339D02*
Y1646061D01*
Y1648438D02*
Y1649159D01*
X2109200Y1645439D02*
Y1646261D01*
Y1648238D02*
Y1649059D01*
X2109300Y1645539D02*
Y1646461D01*
Y1648038D02*
Y1648959D01*
X2109400Y1645649D02*
Y1646958D01*
Y1647540D02*
Y1648839D01*
X2109500Y1645774D02*
Y1648689D01*
X2109600Y1645904D02*
Y1648534D01*
X2109700Y1646138D02*
Y1648301D01*
X2109800Y1646404D02*
Y1648034D01*
X2109900Y1646801D02*
Y1647626D01*
*
G04 PC Custom Flashes*
G04 Layer Name QCD_PowerBank_001A_V02_ - flashes*
%LPD*%
*
*
G04 PC Circuitry*
G04 Layer Name QCD_PowerBank_001A_V02_ - circuitry*
%LPD*%
*
G54D10*
X1998387Y1616477D02*
G75*
G03X1998387I-591J0D01*
G54D47*
G01X1977409Y1553057D02*
X1983209D01*
Y1546057*
X1977409*
X1975009Y1553057D02*
X1969209D01*
Y1546057*
X1975009*
X2021952Y1649289D02*
Y1643489D01*
X2014952*
Y1649289*
X2021952Y1651689D02*
Y1657489D01*
X2014952*
Y1651689*
X1981200Y1588489D02*
X1975400D01*
Y1595489*
X1981200*
X1983600Y1588489D02*
X1989400D01*
Y1595489*
X1983600*
X1943337Y1576072D02*
X1935337D01*
Y1585072*
X1943337*
X1946337Y1576072D02*
X1954337D01*
Y1585072*
X1946337*
X2028962Y1606749D02*
X2034762D01*
Y1599749*
X2028962*
X2026562Y1606749D02*
X2020762D01*
Y1599749*
X2026562*
Y1592930D02*
X2020762D01*
Y1599930*
X2026562*
X2028962Y1592930D02*
X2034762D01*
Y1599930*
X2028962*
X1918418Y1572430D02*
X1910368D01*
Y1586430*
X1918418*
X1925918Y1572430D02*
X1933968D01*
Y1586430*
X1925918*
X2014928Y1634498D02*
Y1642498D01*
X2023928*
Y1634498*
X2014928Y1631498D02*
Y1623498D01*
X2023928*
Y1631498*
X1982961Y1563030D02*
X1977161D01*
Y1570030*
X1982961*
X1985361Y1563030D02*
X1991161D01*
Y1570030*
X1985361*
X2048801Y1604759D02*
Y1610559D01*
X2055801*
Y1604759*
X2048801Y1602359D02*
Y1596559D01*
X2055801*
Y1602359*
X2048852D02*
Y1596559D01*
X2041852*
Y1602359*
X2048852Y1604759D02*
Y1610559D01*
X2041852*
Y1604759*
X2026562Y1606639D02*
X2020762D01*
Y1613639*
X2026562*
X2028962Y1606639D02*
X2034762D01*
Y1613639*
X2028962*
X2073101Y1609143D02*
X2065101D01*
Y1618143*
X2073101*
X2076101Y1609143D02*
X2084101D01*
Y1618143*
X2076101*
X1983793Y1610985D02*
X1976215D01*
Y1610259*
X1974049*
Y1610985*
X1966471*
Y1599371*
X1983793*
Y1610985*
X1993490Y1629245D02*
Y1621245D01*
X1984490*
Y1629245*
X1993490Y1632245D02*
Y1640245D01*
X1984490*
Y1632245*
X1985341Y1629245D02*
Y1621245D01*
X1976341*
Y1629245*
X1985341Y1632245D02*
Y1640245D01*
X1976341*
Y1632245*
X1868148Y1664967D02*
X1917081D01*
Y1664941*
X1917079Y1664943D02*
G03X1971473I27197J37297D01*
G01X1971471Y1664941D02*
Y1664929D01*
X2028477*
Y1664926*
X2028461Y1664937D02*
G03X2082914I27226J37751D01*
G01X2082898Y1664926D02*
Y1664927D01*
X2131852*
Y1650494*
X2115046Y1590290D02*
G03X2131851Y1650481I-115054J64565D01*
G01X2115047Y1590293D02*
X2110573Y1594768D01*
X2110572D02*
G03X2105806Y1590069I-2391J-2341D01*
G01X2105805Y1590070D02*
X2111502Y1584374D01*
X2070613Y1543375D02*
G03X2111560Y1584466I-70693J111394D01*
G01X2070440Y1543266D02*
X2064713Y1548999D01*
X2064715Y1548998D02*
G03X2059898Y1544346I-2356J-2381D01*
G01X2059899Y1544345D02*
X2064522Y1539722D01*
X2050670Y1533009D02*
G03X2064501Y1539710I-50323J121492D01*
G01X2050693Y1533018D02*
X1949340D01*
X1935529Y1539743D02*
G03X1949388Y1532998I64542J115013D01*
G01X1935483Y1539769D02*
X1940082Y1544364D01*
X1940081Y1544363D02*
G03X1935461Y1549156I-2438J2273D01*
G01X1935460Y1549155D02*
X1929665Y1543305D01*
X1888435Y1584457D02*
G03X1929648Y1543315I111517J70498D01*
G01X1888479Y1584387D02*
X1894157Y1590035D01*
Y1590036D02*
G03X1889425Y1594776I-2339J2397D01*
G01X1889427Y1594779D02*
X1884965Y1590317D01*
X1868147Y1650530D02*
G03X1884953Y1590339I131859J4374D01*
G01X1868148Y1650494D02*
Y1664967D01*
X2127167Y1650860D02*
G03X2127167I-5118J0D01*
G01X2046101Y1544249D02*
G03X2046101I-5118J0D01*
G01X1883073Y1650860D02*
G03X1883073I-5118J0D01*
G01X1886616D02*
G03X1886616I-8661J0D01*
G01X2049636Y1544227D02*
G03X2049636I-8662J0D01*
G01X2130602Y1650719D02*
G03X2130602I-8661J0D01*
G54D48*
G01X1958005Y1618432D02*
X1920729D01*
Y1586936*
X1958005*
Y1618432*
G54D50*
G54D64*
X2012557Y1641236D02*
G03X2012557I-1250J0D01*
G01X2013057Y1638236D02*
X1994057D01*
Y1651236*
X2013057*
Y1638236*
G54D71*
X1999765Y1613722D02*
X1999174D01*
X1996812Y1611359*
Y1610769*
X1999765Y1597974D02*
X1996812D01*
Y1600926*
X2009607Y1613722D02*
X2012560D01*
Y1610769*
X2009607Y1597974D02*
X2012560D01*
Y1600926*
G54D110*
X1893725Y1648997D02*
X1893727D01*
X1944276Y1656080D02*
X1944279D01*
X1944276D02*
X1944279D01*
X1910329Y1623997D02*
X1910332D01*
G54D120*
G74*
X0Y0D02*
M02*
